<svg id="Layer_1" height="512" viewBox="0 0 512 512" width="512" xmlns="http://www.w3.org/2000/svg" data-name="Layer 1"><path d="m183.865 357c-.193-9-.556-16.829-1.023-22.087l-.792-8.913h-131.73l-.39 4.4c-.587 6.666-.882 16.249-1.092 26.618-.039 0-.078 0-.118 0-.38 18.4-.15 39.985.68 50.985h56.42l5.91-18.225a5.316 5.316 0 0 1 8.79-.008l5.62 18.23h57.05c.81-10 1.055-33 .675-51z" fill="#e87187"/><path d="m74.72 357.015h.118c.21-10.369.505-19.952 1.092-26.618l.39-4.4h-26l-.39 4.4c-.587 6.666-.882 16.249-1.092 26.618-.039 0-.078 0-.118 0-.38 18.4-.15 39.985.68 50.985h26c-.83-11-1.06-32.585-.68-50.985z" fill="#bc5e72"/><path d="m478.87 139.42a59.325 59.325 0 0 0 -47.96-35.76l-.04.03a52.674 52.674 0 0 1 -69.48-.04 59.339 59.339 0 0 0 -48.05 35.77l-17.02 40.31 37.68 10.19v69.08h124v-69h.8l37.2-10.23z" fill="#5fcda4"/><path d="m334 259h124v19h-124z" fill="#4ca987"/><path d="m198.65 139.42a59.325 59.325 0 0 0 -47.96-35.76l-.04.03a52.674 52.674 0 0 1 -69.48-.04 59.306 59.306 0 0 0 -48.04 35.77l-16.92 40.31 37.79 10.19v69.08h124v-69h.58l37.2-10.23z" fill="#e87187"/><path d="m54 259h124v19h-124z" fill="#b75e71"/><path d="m464.05 357.015h-.078c-.189-8.892-.444-16.848-.912-22.115l-.8-8.9h-131.72l-.39 4.393c-.6 6.665-.991 16.607-1.212 26.607h-.008c-.37 18-.14 40 .68 51h56.43l5.91-18.225a5.316 5.316 0 0 1 8.79-.008l5.61 18.233h57.06c.81-10 1.02-32.745.64-50.985z" fill="#5fcda4"/><path d="m456.36 307h-119.91c-3.26 0-5.45 2.81-5.45 6.07v12.93h131v-12.93a5.83 5.83 0 0 0 -5.64-6.07z" fill="#4ca987"/><path d="m176.14 307h-119.91a6.335 6.335 0 0 0 -6.23 6.07v12.93h132v-12.93a6.012 6.012 0 0 0 -5.86-6.07z" fill="#b75e71"/><path d="m182.84 334.92-.79-8.92h-22.05v7.11a24.037 24.037 0 0 0 23.865 24.065c-.19-8.94-.555-16.965-1.025-22.255z" fill="#f3ce7d"/><path d="m49.93 330.4c-.59 6.7-.885 16.345-1.095 26.775a24.164 24.164 0 0 0 24.165-24.065v-7.11h-22.68z" fill="#cead6b"/><path d="m330.15 330.4c-.6 6.7-1 16.345-1.215 26.775a24.072 24.072 0 0 0 24.065-24.065v-7.11h-22.46z" fill="#88ced8"/><path d="m463.06 334.92-.8-8.92h-22.26v7.11a24.131 24.131 0 0 0 23.975 24.065c-.19-8.94-.445-16.965-.915-22.255z" fill="#88ced8"/><path d="m42.21 179.73 16.92-40.31a59.3 59.3 0 0 1 29.261-30.451 52.853 52.853 0 0 1 -7.221-5.319 59.306 59.306 0 0 0 -48.04 35.77l-16.92 40.31 37.79 10.19v69.08h26v-69.08z" fill="#bc5e72"/><path d="m54 259h26v19h-26z" fill="#874959"/><path d="m137.73 389.775-5.91 18.225h20.32l-5.62-18.233a5.316 5.316 0 0 0 -8.79.008z" fill="#e87187"/><path d="m82.23 307h-26a6.335 6.335 0 0 0 -6.23 6.07v12.93h26v-12.93a6.335 6.335 0 0 1 6.23-6.07z" fill="#874959"/><g fill="#284268"><path d="m456.359 301h-119.913c-6.564 0-11.446 5.5-11.446 12.069v12.723l-.6 4.1c-1.621 18.146-2.02 59.251-.66 78.7a5.745 5.745 0 0 0 5.875 5.408h56.426a5.846 5.846 0 0 0 5.713-3.991l4.546-14.077 4.318 13.958a5.883 5.883 0 0 0 5.736 4.11h57.06a5.85 5.85 0 0 0 5.983-5.379c1.254-16.84.918-58.459-.5-74.29l-.9-8.539v-12.723a11.837 11.837 0 0 0 -11.638-12.069zm.416 31 .306 3.456c.325 3.645.511 8.724.7 14.538a18.145 18.145 0 0 1 -11.781-16.887v-1.107zm-119.775-19h119v7h-119zm-.965 19h10.965v1.107a18.062 18.062 0 0 1 -11.879 16.933c.215-6.953.52-13.04.914-18.04zm121.718 70h-46.962l-4.313-13.9a4.542 4.542 0 0 0 -.74-1.308 10.981 10.981 0 0 0 -9.318-4.792h-.105a11.147 11.147 0 0 0 -9.3 4.71 4.569 4.569 0 0 0 -.779 1.32l-4.571 13.97h-46.383c-.5-10-.636-25.571-.438-39.575a29.944 29.944 0 0 0 24.156-29.318v-1.107h31v27.015a6 6 0 0 0 12 0v-27.015h32v1.107a30.008 30.008 0 0 0 24.072 29.293c.203 13.936.157 29.6-.319 39.6z"/><path d="m484.4 137.076a65.427 65.427 0 0 0 -52.819-39.382 6.1 6.1 0 0 0 -4.664 1.484 46.788 46.788 0 0 1 -61.565-.037 6.007 6.007 0 0 0 -4.624-1.456 65.413 65.413 0 0 0 -52.9 39.391l-17.128 40.309a6.006 6.006 0 0 0 .125 4.967 6.183 6.183 0 0 0 3.93 3.169l33.245 8.992v83.487a5.83 5.83 0 0 0 5.8 6h124.624c3.313 0 5.576-2.688 5.576-6v-83.4l33.373-9.085a6.192 6.192 0 0 0 3.922-3.173 6.008 6.008 0 0 0 .175-4.96zm-32.4 134.924h-112v-7h112zm12-89.839v-25.1a6 6 0 0 0 -12 0v95.939h-112v-95.937a6 6 0 0 0 -12 0v25.017l-23.465-6.338 14.383-33.974a53.37 53.37 0 0 1 40.673-31.821 58.844 58.844 0 0 0 73.142.011 53.406 53.406 0 0 1 40.625 31.81l14.226 33.99z"/><path d="m215.439 228.729a4.336 4.336 0 0 0 .151.752l14.51 47.289c.752 2.255 3.458 3.308 6.314 3.308s5.639-1.053 6.315-3.308l14.435-47.289a3.3 3.3 0 0 0 .15-.752c0-2.33-3.533-4.059-6.164-4.059-1.654 0-2.932.526-3.308 1.955l-11.428 40.747-11.5-40.747c-.376-1.429-1.654-1.955-3.308-1.955-2.633 0-6.167 1.654-6.167 4.059z"/><path d="m276.863 271.507c-7.668 0-9.7-5.789-12.781-5.789-2.33 0-4.285 3.157-4.285 5.263 0 4.36 7.518 9.322 17.367 9.322 10.375 0 17.893-5.563 17.893-16.314 0-19.471-24.133-16.239-24.133-25.561 0-3.609 3.082-5.789 8.5-5.789 6.314 0 8.044 2.857 10.375 2.857 2.706 0 3.908-3.458 3.908-5.187 0-4.962-9.848-6.015-14.283-6.015-8.647 0-18.27 3.834-18.27 15.036 0 17.817 24.133 14.359 24.133 25.636-.004 4.511-3.913 6.541-8.424 6.541z"/><path d="m176.141 301h-119.913a12.339 12.339 0 0 0 -12.228 12.069v12.723l-.2 4.1c-1.621 18.146-1.825 59.251-.465 78.7a5.927 5.927 0 0 0 6.065 5.408h56.426a5.845 5.845 0 0 0 5.713-3.991l4.546-14.077 4.315 13.958a5.883 5.883 0 0 0 5.737 4.11h57.063a5.852 5.852 0 0 0 5.984-5.379c1.254-16.84 1.027-58.459-.386-74.29l-.798-8.539v-12.723a12.021 12.021 0 0 0 -11.859-12.069zm.416 31 .305 3.456c.326 3.645.62 8.724.81 14.538a18.048 18.048 0 0 1 -11.672-16.887v-1.107zm-120.557-19h120v7h-120zm-.184 19h11.184v1.107a18.16 18.16 0 0 1 -11.988 16.933c.215-6.953.41-13.04.804-18.04zm121.718 70h-46.962l-4.313-13.9a4.563 4.563 0 0 0 -.739-1.308 10.984 10.984 0 0 0 -9.32-4.792h-.1a11.148 11.148 0 0 0 -9.3 4.71 4.543 4.543 0 0 0 -.778 1.32l-4.576 13.97h-46.383c-.5-10-.526-25.571-.329-39.575a30.041 30.041 0 0 0 24.266-29.318v-1.107h31v27.015a6 6 0 0 0 12 0v-27.015h32v1.107a29.911 29.911 0 0 0 23.963 29.293c.203 13.936.047 29.6-.429 39.6z"/><path d="m48 278c0 3.314 2.263 6 5.576 6h124.629a5.83 5.83 0 0 0 5.795-6v-83.4l33.264-9.085a6.092 6.092 0 0 0 3.867-3.173 6 6 0 0 0 .147-4.96l-17.113-40.309a65.418 65.418 0 0 0 -52.813-39.382 6.094 6.094 0 0 0 -4.661 1.484 46.787 46.787 0 0 1 -61.564-.037 6.006 6.006 0 0 0 -4.627-1.453 65.409 65.409 0 0 0 -52.9 39.391l-17.122 40.309a6 6 0 0 0 .125 4.967 6.383 6.383 0 0 0 4.039 3.169l33.358 8.992zm124-6h-112v-7h112zm-147.574-96.258 14.328-33.974a53.329 53.329 0 0 1 40.646-31.821 58.825 58.825 0 0 0 73.129.011 53.4 53.4 0 0 1 40.618 31.81l14.333 33.99-23.48 6.403v-25.1a6 6 0 0 0 -12 0v95.939h-112v-95.937a6 6 0 0 0 -12 0v25.017z"/><path d="m73 169.542a6 6 0 0 0 6-6v-3.011a6 6 0 0 0 -12 0v3.011a6 6 0 0 0 6 6z"/><path d="m73 219.274a6 6 0 0 0 6-6v-31.715a6 6 0 0 0 -12 0v31.715a6 6 0 0 0 6 6z"/></g></svg>