<svg id="Layer_1" enable-background="new 0 0 512 512" height="512" viewBox="0 0 512 512" width="512" xmlns="http://www.w3.org/2000/svg"><path d="m430 323h-342.1l-71.9 168h480z" fill="#9ea3b2"/><path d="m404.4 161.9c-4.9-74.6-64.6-140.7-146.9-140.7s-142 66.1-146.9 140.7c-2.4 36.4 9.8 71.6 31.1 100.7l110.9 147.5c2 2.7 5.9 3.3 8.6 1.2.5-.3.9-.8 1.2-1.2l110.9-147.5c22-29.1 33.6-64.9 31.1-100.7z" fill="#e87187"/><path d="m151.5 140.8 21.2 29.1-.1.2-21.1 28.9-.2.1c-5.3-19.1-5.3-39.3 0-58.4z" fill="#9ea3b2"/><path d="m355.5 126.1-34.9-9.1-2-36v-.1c16.2 11.5 28.9 27.1 36.9 45.2z" fill="#9ea3b2"/><path d="m248 131.4-28.6 38.5h-.1l-46.6.2-.1-.1.1-.2-21.2-29.1-.2-.1c6.5-23.1 20.4-43.5 39.6-57.9l.2.3 36.4 9.3z" fill="#f4f8fc"/><path d="m318.6 81.1 2 36-26.5 28.8-46-14.7-.2.2-.1-.1-20.3-38.9 17.8-30.6v-.1c3.5-.4 7.1-.5 10.7-.5 22.4-.1 44.3 6.9 62.6 19.9z" fill="#e2e4ed"/><path d="m294.3 193.8 26.3 28.8-2 36 .1.2c-18.3 13-40.2 19.9-62.7 19.9-3.6 0-7.2-.2-10.7-.5v-.1l-17.8-30.6 20.2-38.8.1-.1v.1z" fill="#e5e5e5"/><path d="m355.5 126.1c12.2 27.8 12.2 59.5 0 87.4h-.1l-34.9 9.1-26.3-28.8v-47.8l-.2-.1 26.5-28.8z" fill="#f4f8fc"/><g fill="#9ea3b2"><path d="m294.1 145.9.2.1v47.8l-46.4 14.8v-.1l-28.6-38.6 28.7-38.5.1-.2z"/><path d="m227.6 247.3 17.8 30.6v.1c-19.7-1.9-38.6-9.2-54.4-21.1l.2-.3z"/><path d="m355.5 213.5c-7.9 18.2-20.7 33.8-36.8 45.2l-.1-.2 2-36z"/><path d="m245.3 61.7v.1l-17.8 30.6-36.4-9.3-.2-.3c15.9-11.9 34.7-19.2 54.4-21.1z"/></g><path d="m430.1 323.2-83.1-.2v.2l12 67.9 97.3-.2.3-.2z" fill="#4ca987"/><path d="m46.2 420.6-30.2 70.4h151v-.5l5.9-69.6-125.4.1z" fill="#4ca987"/><path d="m476.9 442.3-221.1.1-.1 48.6h240.3z" fill="#5fcda4"/><path d="m247.9 208.5-20.3 38.8-36.4 9.3-.2.3c-19.2-14.4-33.2-34.7-39.6-57.9l.2-.1 21.1-28.9.1.1 46.6-.2h.1z" fill="#e2e4ed"/><path d="m171.7 262.6c-21.3-29.1-33.5-64.3-31.1-100.7 4.6-70 57.4-132.5 131.9-140-4.9-.5-9.9-.7-15-.7-82.3 0-142 66.1-146.9 140.7-2.4 36.4 9.8 71.6 31.1 100.7l110.9 147.5c2 2.7 5.9 3.3 8.6 1.2.5-.3.9-.8 1.2-1.2l10.1-13.4z" fill="#af5468"/><g fill="#284268"><path d="m501.6 488.6-65.9-167.6c-.9-2.3-3.1-3.8-5.6-3.8l-90.2-.2 38.2-50.8c23.3-30.9 34.8-68.1 32.3-104.7-2.5-38.5-18.9-74.8-46.1-102.2-59-58.9-154.5-58.9-213.5 0-27.3 27.3-43.7 63.6-46.2 102.2-2.4 35.8 9 73 32.3 104.7l38.4 51.1h-87.3c-2.4 0-4.6 1.4-5.5 3.6l-72 167.5c-.8 1.9-.6 4 .5 5.8 1.1 1.7 3 2.8 5 2.8h480c3.4-.1 6.1-2.9 6-6.3 0-.7-.2-1.4-.4-2.1zm-75.5-159.3 21.9 55.7-83.9.1-9.8-56zm-309.5-167c2.3-35.6 17.5-69.2 42.7-94.5 54.3-54.2 142.2-54.2 196.5 0 25.2 25.3 40.4 58.9 42.7 94.5 2.2 33.7-8.4 68-29.9 96.7l-110.9 147.5c-.1.1-.2.1-.2 0l-111-147.5c-21.5-29.4-32.2-63.7-29.9-96.7zm44.7 322.7h-136.2l24.8-57.9 116.3-.1zm88.5-42.7-.1 42.7h-76.3l5.4-63.5c.3-3.3-2.2-6.2-5.5-6.5-.2 0-.3 0-.5 0l-117.7.1 36.8-85.8h92.4l63.5 84.4c2.3 3.1 5.9 4.9 9.7 4.8 3.8 0 7.4-1.8 9.7-4.8l63.7-84.7h11.2l11.1 63.1c.5 2.9 3 4.9 5.9 4.9l93.6-.2 15.4 39.3-212.3.1c-3.3 0-6 2.8-6 6.1zm11.9 42.7.1-36.7h211l14.4 36.7z"/><path d="m108.6 344h-5.8c-3.3 0-6 2.7-6 6s2.7 6 6 6h5.8c3.3 0 6-2.7 6-6s-2.7-6-6-6z"/><path d="m174.6 344h-47c-3.3 0-6 2.7-6 6s2.7 6 6 6h47c3.3 0 6-2.7 6-6s-2.7-6-6-6z"/><path d="m370.7 169.9c0-63.3-51.5-114.7-114.7-114.7s-114.7 51.4-114.7 114.7c0 63.2 51.4 114.7 114.7 114.7 63.2 0 114.7-51.4 114.7-114.7zm-26.7-53-17.6-4.6-1-18.2c7.2 6.7 13.5 14.4 18.6 22.8zm-95-49.5c2.3-.2 4.6-.2 7-.2 21 0 40.5 6.3 56.8 17.1l1.7 30.5-22.2 24.2-40.4-12.9-17.5-33.5zm39 82.9v39l-38 12.2-23.3-31.6 23.5-31.7zm-54.1-80.8-9.2 15.9-19.3-4.9c8.8-5 18.4-8.7 28.5-11zm-41.8 20 31.4 8 17.4 33.3-24.6 33-40.4.2-18-24.7c6.2-19.8 18.3-37.1 34.2-49.8zm-38.8 80.4c0-5.1.4-10.1 1.1-15l10.9 15-10.9 15c-.7-5-1.1-10-1.1-15zm4.6 30.5 17.7-24.3 40.7-.2 24.5 33.1-17.3 33.2-31.4 8c-15.9-12.7-28-30-34.2-49.8zm47.5 58.8 19.3-4.9 9.2 15.9c-10.1-2.2-19.7-6-28.5-11zm107.3-3.7c-16.3 10.8-35.8 17.1-56.7 17.1-2.3 0-4.7-.1-7-.3l-14.6-25.1 17.5-33.6 40.5-12.9 22 24.1zm-12.7-64v-43.5l22.4-24.3 28.6 7.4c4.9 11.9 7.6 25 7.6 38.7s-2.6 26.7-7.4 38.6l-28.7 7.4zm25.3 54.1 1-18.3 17.7-4.6c-5.1 8.5-11.4 16.2-18.7 22.9z"/></g></svg>