<svg height="512pt" viewBox="0 -10 512.00106 512" width="512pt" xmlns="http://www.w3.org/2000/svg"><path d="m496.074219 268.652344h-102.988281c-7.015626 0-13.207032 4.59375-15.242188 11.308594l-17.808594 58.765624h-208.070312l-17.808594-58.765624c-2.035156-6.714844-8.226562-11.308594-15.242188-11.308594h-102.988281c-8.792969 0-15.925781 7.132812-15.925781 15.929687v191.109375c0 8.792969 7.132812 15.925782 15.925781 15.925782h480.148438c8.792969 0 15.925781-7.132813 15.925781-15.925782v-191.109375c0-8.796875-7.132812-15.929687-15.925781-15.929687zm0 0" fill="#3389ff"/><path d="m136.929688 174.785156c-2.5 5.871094-1.253907 12.671875 3.171874 17.273438l104.414063 108.640625c3.003906 3.125 7.148437 4.890625 11.484375 4.890625s8.480469-1.765625 11.484375-4.890625l104.414063-108.640625c4.425781-4.601563 5.671874-11.402344 3.171874-17.273438-2.5-5.875-8.269531-9.6875-14.652343-9.6875h-35.011719v-149.171875c0-8.792969-7.128906-15.925781-15.925781-15.925781h-106.960938c-8.796875 0-15.925781 7.132812-15.925781 15.925781v149.171875h-35.011719c-6.382812 0-12.152343 3.8125-14.652343 9.6875zm0 0" fill="#bdf052"/><path d="m496.074219 268.652344h-102.988281c-7.015626 0-13.207032 4.59375-15.242188 11.308594l-17.808594 58.765624h-104.035156v152.890626h240.074219c8.796875 0 15.925781-7.132813 15.925781-15.925782v-191.109375c0-8.796875-7.132812-15.929687-15.925781-15.929687zm0 0" fill="#0053bf"/><path d="m309.480469 0c8.796875 0 15.925781 7.132812 15.925781 15.925781v149.171875h35.011719c6.382812 0 12.152343 3.8125 14.652343 9.6875 2.5 5.871094 1.253907 12.671875-3.171874 17.273438l-104.414063 108.640625c-3.003906 3.125-7.148437 4.890625-11.484375 4.890625v-305.589844zm0 0" fill="#54e360"/></svg>