<svg id="Layer_2_00000087395131603124833560000007040853455228504767_" enable-background="new 0 0 512 512" viewBox="0 0 512 512" xmlns="http://www.w3.org/2000/svg"><g id="Icon"><g id="_24"><g><path d="m502.7 224.1v235c0 29.2-23.7 52.9-52.9 52.9h-387.7c-29.2 0-52.9-23.7-52.9-52.9v-235l209.5-208.7c20.6-20.6 54-20.6 74.7 0z" fill="#ff9d00"/><path d="m103.5 58.9h305.5c29.2 0 52.9 23.7 52.9 52.9v305.5c0 29.2-23.7 52.9-52.9 52.9h-305.5c-29.2 0-52.9-23.7-52.9-52.9v-305.6c0-29.2 23.7-52.8 52.9-52.8z" fill="#f4eee6"/><path d="m502.7 224.1v235c0 29.2-23.7 52.9-52.9 52.9h-387.7c-29.2 0-52.9-23.7-52.9-52.9v-234.3l246.4 246.4z" fill="#ffbe1d"/><path d="m487.4 496.4c-8.3 8.4-19.5 14-31.9 15.4l-395.2.2c-13.9-.5-26.5-6.4-35.7-15.6l194-194c20.6-20.6 54.1-20.6 74.8 0z" fill="#ffe000"/></g><g id="Badge"><circle cx="256" cy="172.9" fill="#00bf00" r="88.1"/><path d="m213.8 165.1c3.4 3.4 9 3.4 12.5 0l20.9-20.9v78.6c0 4.9 3.9 8.8 8.8 8.8 4.9 0 8.8-3.9 8.8-8.8v-78.6l20.9 20.9c3.4 3.4 9 3.4 12.5 0 3.4-3.4 3.4-9 0-12.5l-35.9-35.9c-3.4-3.4-9-3.4-12.5 0l-35.9 35.9c-3.5 3.5-3.5 9-.1 12.5z" fill="#fff"/></g></g></g></svg>