<svg id="icons" enable-background="new 0 0 64 64" height="512" viewBox="0 0 64 64" width="512" xmlns="http://www.w3.org/2000/svg"><g><g><g><path d="m54.536 48.065-1.92 5.931h-6.25l-1.92-5.931 5.04-3.669z" fill="#656d78"/></g><g><path d="m59.656 43.626c1.01 1.6 1.649 3.45 1.8 5.43h-.01l-3.66 3.58.87 5.101c-1.22 1.449-2.78 2.6-4.55 3.34h-.011l-4.6-2.42-4.6 2.42h-.011c-1.77-.74-3.33-1.891-4.55-3.34-1.78-2.091-2.84-4.79-2.84-7.74 0-1.4.24-2.74.68-3.99.301-.84.681-1.64 1.16-2.38 2.12-3.38 5.88-5.63 10.16-5.63s8.042 2.249 10.162 5.629zm-7.04 10.37 1.92-5.931-5.05-3.67-5.04 3.67 1.92 5.931z" fill="#e6e9ed"/></g><g><path d="m49.496 58.656 4.6 2.42c-1.42.59-2.97.92-4.6.92s-3.18-.33-4.6-.92z" fill="#656d78"/></g><g><path d="m57.732 52.672 3.723-3.627c.123 1.533-.043 3.108-.546 4.659-.504 1.55-1.296 2.922-2.297 4.09z" fill="#656d78"/></g><g><path d="m54.586 42.989-2.299-4.661c1.496.356 2.942 1.001 4.263 1.959 1.318.958 2.378 2.135 3.18 3.448z" fill="#656d78"/></g><g><path d="m44.405 42.989-5.144.746c.801-1.313 1.861-2.489 3.181-3.448 1.318-.958 2.765-1.603 4.262-1.959z" fill="#656d78"/></g><g><path d="m41.26 52.672-.881 5.122c-1-1.167-1.792-2.539-2.296-4.09-.504-1.55-.671-3.125-.547-4.659z" fill="#656d78"/></g></g><g><path d="m31.506 45.996v.01c-.01 2.22-3.149 4-7 4-3.859 0-6.99-1.78-7-4v-.01-5.721c2.09 1.101 4.471 1.73 7 1.73 2.53 0 4.91-.63 7-1.73z" fill="#eac6bb"/></g><g><path d="m44.896 61.076h-.011c-1.77-.74-3.33-1.891-4.55-3.34-1.78-2.091-2.84-4.79-2.84-7.74 0-1.4.24-2.74.68-3.99h-6.67c-.01 2.22-3.149 4-7 4-3.859 0-6.99-1.78-7-4h-7c-4.42 0-8 3.58-8 8v7.99h18 4 4 20.99c-1.629 0-3.179-.33-4.599-.92z" fill="#ed5565"/></g><g><g><path d="m36.506 11.006v6l2.98 2.32c-.131-3.12-1.22-5.99-2.98-8.32z" fill="#844646"/></g><g><path d="m29.506 12.006v4l2-1 2 1v-4-4c-1.2-.91-2.551-1.64-4-2.14z" fill="#965353"/></g><g><path d="m12.496 17.006v-5.98c-1.76 2.33-2.83 5.181-2.971 8.29z" fill="#965353"/></g><g><path d="m15.506 12.006v4l2-1 2 1v-4-6.14c-1.45.5-2.801 1.229-4 2.14z" fill="#965353"/></g><g><path d="m22.506 5.006v.13 3.87 4 4l2-1 2 1v-4-4-3.87-.13l-2-1.5z" fill="#965353"/></g><g><path d="m19.506 16.006v-4-6.14-.011c.96-.34 1.96-.58 3-.72v3.87 4 4l2-1 2 1v-4-4-3.87c1.04.14 2.04.38 3 .72v.011 6.14 4l2-1 2 1v-4-4c1.141.85 2.15 1.86 3 3v6l2.98 2.32c.01.229.02.449.02.68v7c0 5.75-3.24 10.75-8 13.27-2.09 1.101-4.471 1.73-7 1.73-2.53 0-4.91-.63-7-1.73-4.76-2.52-8-7.52-8-13.27v-7c0-.23.01-.46.02-.69l2.971-2.31v-5.98c.85-1.149 1.869-2.159 3.01-3.02v4 4l2-1z" fill="#eac6bb"/></g><g><g><path d="m26.506 6.257c1.072.463 2.081 1.052 3 1.749v-2.14-.011c-.96-.34-1.96-.58-3-.72z" fill="#d3b1a9"/></g><g><path d="m39.486 19.326-2.98-2.32v-6c-.85-1.14-1.859-2.15-3-3v4 .524c1.164 2.015 1.877 4.324 1.98 6.796.01.229.02.449.02.68v7c0 5.75-3.24 10.75-8 13.27-1.529.806-3.215 1.355-5 1.594.322.043.646.076.975.1.006.001.013.001.019.002.333.022.669.035 1.007.035 2.529 0 4.91-.63 7-1.73 4.76-2.52 8-7.52 8-13.27v-7c-.001-.232-.011-.451-.021-.681z" fill="#d3b1a9"/></g></g><g><path d="m25.506 5.866c.34.117.672.249 1 .391v-1.121-.13l-2-1.5-2 1.5v.13c1.04.14 2.04.38 3 .72z" fill="#844646"/></g><g><path d="m29.506 8.006c1.141.85 2.15 1.86 3 3 .365.484.695.997 1 1.524v-.524-4c-1.2-.91-2.551-1.64-4-2.14z" fill="#844646"/></g></g></g><g><g><path d="m2.504 55.007c-.553 0-1-.447-1-1 0-4.964 4.038-9.002 9.002-9.002.553 0 1 .447 1 1s-.447 1-1 1c-3.861 0-7.002 3.141-7.002 7.002 0 .553-.447 1-1 1z"/></g><g><path d="m17.504 47.006-6.998-.001c-.553 0-1-.448-1-1 0-.553.448-1 1-1l6.998.001c.553 0 1 .448 1 1 0 .553-.448 1-1 1z"/></g><g><path d="m38.178 47.006-6.674-.001c-.553 0-1-.448-1-1 0-.553.448-1 1-1l6.674.001c.553 0 1 .448 1 1 0 .553-.449 1-1 1z"/></g><g><path d="m2.504 62.995c-.553 0-1-.447-1-1v-7.988c0-.553.447-1 1-1s1 .447 1 1v7.988c0 .553-.447 1-1 1z"/></g><g><path d="m17.504 47.006c-.553 0-1-.447-1-1v-5.731c0-.553.447-1 1-1s1 .447 1 1v5.731c0 .553-.447 1-1 1z"/></g><g><path d="m31.504 47.005c-.553 0-1-.447-1-1v-5.73c0-.553.447-1 1-1s1 .447 1 1v5.73c0 .553-.447 1-1 1z"/></g><g><path d="m24.504 43.005c-8.822 0-16-7.178-16-16 0-.553.447-1 1-1s1 .447 1 1c0 7.72 6.28 14 14 14s14-6.28 14-14c0-.553.447-1 1-1s1 .447 1 1c0 8.822-7.178 16-16 16z"/></g><g><path d="m39.504 21.004c-.553 0-1-.447-1-1 0-6.989-5.216-12.955-12.132-13.877-.548-.073-.933-.576-.859-1.123.073-.548.575-.933 1.123-.859 7.906 1.055 13.868 7.872 13.868 15.859 0 .553-.447 1-1 1z"/></g><g><path d="m9.504 21.004c-.553 0-1-.447-1-1 0-7.987 5.962-14.806 13.868-15.859.548-.073 1.05.312 1.123.859s-.312 1.05-.859 1.123c-6.916.922-12.132 6.888-12.132 13.877 0 .553-.447 1-1 1z"/></g><g><path d="m9.504 28.005c-.553 0-1-.447-1-1v-7.001c0-.553.447-1 1-1s1 .447 1 1v7.001c0 .553-.447 1-1 1z"/></g><g><path d="m39.504 28.005c-.553 0-1-.447-1-1v-7.001c0-.553.447-1 1-1s1 .447 1 1v7.001c0 .553-.447 1-1 1z"/></g><g><g><path d="m26.503 18.004c-.15 0-.303-.034-.446-.105l-2-1c-.494-.247-.694-.848-.447-1.342.248-.494.849-.692 1.342-.447l2 1c.494.247.694.848.447 1.342-.176.35-.529.552-.896.552z"/></g><g><path d="m22.505 18.004c-.367 0-.72-.202-.896-.553-.247-.494-.047-1.095.447-1.342l2-1c.493-.245 1.094-.047 1.342.447.247.494.047 1.095-.447 1.342l-2 1c-.143.072-.296.106-.446.106z"/></g><g><path d="m26.503 14.004c-.15 0-.303-.034-.446-.105l-2-1c-.494-.247-.694-.848-.447-1.342.248-.494.849-.692 1.342-.447l2 1c.494.247.694.848.447 1.342-.176.35-.529.552-.896.552z"/></g><g><path d="m22.505 14.004c-.367 0-.72-.202-.896-.553-.247-.494-.047-1.095.447-1.342l2-1c.493-.245 1.094-.047 1.342.447.247.494.047 1.095-.447 1.342l-2 1c-.143.072-.296.106-.446.106z"/></g><g><path d="m26.503 10.004c-.15 0-.303-.034-.446-.105l-2-1c-.494-.247-.694-.848-.447-1.342.248-.494.849-.693 1.342-.447l2 1c.494.247.694.848.447 1.342-.176.35-.529.552-.896.552z"/></g><g><path d="m22.505 10.004c-.367 0-.72-.202-.896-.553-.247-.494-.047-1.095.447-1.342l2-1c.493-.246 1.094-.047 1.342.447.247.494.047 1.095-.447 1.342l-2 1c-.143.072-.296.106-.446.106z"/></g><g><path d="m26.503 6.004c-.209 0-.419-.065-.599-.2l-4-3c-.442-.331-.532-.958-.2-1.399.331-.442.958-.531 1.399-.2l4 3c.442.331.532.958.2 1.399-.196.262-.495.4-.8.4z"/></g><g><path d="m22.505 6.004c-.305 0-.604-.138-.801-.4-.332-.441-.242-1.068.2-1.399l4-3c.441-.332 1.068-.242 1.399.2.332.441.242 1.068-.2 1.399l-4 3c-.179.134-.389.2-.598.2z"/></g><g><path d="m22.504 18.004c-.553 0-1-.447-1-1v-12c0-.553.447-1 1-1s1 .447 1 1v12c0 .553-.447 1-1 1z"/></g><g><path d="m26.504 18.004c-.553 0-1-.447-1-1v-12c0-.553.447-1 1-1s1 .447 1 1v12c0 .553-.447 1-1 1z"/></g></g><g><g><path d="m33.503 17.004c-.15 0-.303-.034-.446-.105l-2-1c-.494-.247-.694-.848-.447-1.342.248-.494.848-.692 1.342-.447l2 1c.494.247.694.848.447 1.342-.176.35-.529.552-.896.552z"/></g><g><path d="m29.505 17.004c-.367 0-.72-.202-.896-.553-.247-.494-.047-1.095.447-1.342l2-1c.494-.245 1.095-.047 1.342.447s.047 1.095-.447 1.342l-2 1c-.143.072-.296.106-.446.106z"/></g><g><path d="m33.503 13.004c-.15 0-.303-.034-.446-.105l-2-1c-.494-.247-.694-.848-.447-1.342.248-.494.848-.692 1.342-.447l2 1c.494.247.694.848.447 1.342-.176.35-.529.552-.896.552z"/></g><g><path d="m29.505 13.004c-.367 0-.72-.202-.896-.553-.247-.494-.047-1.095.447-1.342l2-1c.494-.245 1.095-.047 1.342.447s.047 1.095-.447 1.342l-2 1c-.143.072-.296.106-.446.106z"/></g><g><path d="m29.504 17.004c-.553 0-1-.447-1-1v-10.147c0-.553.447-1 1-1s1 .447 1 1v10.146c0 .554-.447 1.001-1 1.001z"/></g><g><path d="m33.504 17.004c-.553 0-1-.447-1-1v-8.001c0-.553.447-1 1-1s1 .447 1 1v8.001c0 .553-.447 1-1 1z"/></g></g><g><g><path d="m15.505 17.004c-.367 0-.72-.202-.896-.553-.247-.494-.047-1.095.447-1.342l2-1c.494-.245 1.094-.047 1.342.447.247.494.047 1.095-.447 1.342l-2 1c-.143.072-.296.106-.446.106z"/></g><g><path d="m19.503 17.004c-.15 0-.303-.034-.446-.105l-2-1c-.494-.247-.694-.848-.447-1.342.248-.494.848-.692 1.342-.447l2 1c.494.247.694.848.447 1.342-.176.35-.529.552-.896.552z"/></g><g><path d="m15.505 13.004c-.367 0-.72-.202-.896-.553-.247-.494-.047-1.095.447-1.342l2-1c.494-.245 1.094-.047 1.342.447.247.494.047 1.095-.447 1.342l-2 1c-.143.072-.296.106-.446.106z"/></g><g><path d="m19.503 13.004c-.15 0-.303-.034-.446-.105l-2-1c-.494-.247-.694-.848-.447-1.342.248-.494.848-.692 1.342-.447l2 1c.494.247.694.848.447 1.342-.176.35-.529.552-.896.552z"/></g><g><path d="m19.504 17.004c-.553 0-1-.447-1-1v-10.147c0-.553.447-1 1-1s1 .447 1 1v10.146c0 .554-.447 1.001-1 1.001z"/></g><g><path d="m15.504 17.004c-.553 0-1-.447-1-1v-8c0-.553.447-1 1-1s1 .447 1 1v8c0 .553-.447 1-1 1z"/></g></g><g><path d="" style="fill:none;stroke:#000;stroke-width:2;stroke-linecap:round;stroke-linejoin:round;stroke-miterlimit:10"/></g><g><path d="" style="fill:none;stroke:#000;stroke-width:2;stroke-linecap:round;stroke-linejoin:round;stroke-miterlimit:10"/></g><g><path d="m39.487 20.334c-.215 0-.432-.069-.614-.212l-2.984-2.33c-.436-.34-.513-.968-.173-1.403s.967-.514 1.403-.173l2.984 2.33c.436.34.513.968.173 1.403-.197.253-.491.385-.789.385z"/></g><g><path d="m36.504 18.004c-.553 0-1-.447-1-1v-6.001c0-.553.447-1 1-1s1 .447 1 1v6.001c0 .553-.447 1-1 1z"/></g><g><path d="m9.505 20.334c-.298 0-.592-.132-.789-.385-.34-.436-.263-1.063.173-1.403l2.984-2.33c.436-.341 1.063-.263 1.403.173s.263 1.063-.173 1.403l-2.984 2.33c-.182.143-.399.212-.614.212z"/></g><g><path d="m12.488 18.004c-.553 0-1-.447-1-1v-6.001c0-.553.447-1 1-1s1 .447 1 1v6.001c0 .553-.447 1-1 1z"/></g><g><path d="m24.504 51.006c-4.486 0-8-2.199-8-5.007 0-.553.447-1 1-1s1 .447 1 1c0 1.422 2.464 3.007 6 3.007s6-1.585 6-3.007c0-.553.447-1 1-1s1 .447 1 1c0 2.808-3.514 5.007-8 5.007z"/></g><g><g><path d="m20.504 62.996c-.553 0-1-.447-1-1v-4.999c0-.553.447-1 1-1s1 .447 1 1v4.999c0 .553-.447 1-1 1z"/></g><g><path d="m28.504 59.997c-.553 0-1-.447-1-1 0-.552-.448-1-1-1s-1 .448-1 1c0 .553-.447 1-1 1s-1-.447-1-1c0-1.654 1.346-3 3-3s3 1.346 3 3c0 .553-.447 1-1 1z"/></g><g><path d="m24.504 62.995c-.553 0-1-.447-1-1v-2.998c0-.553.447-1 1-1s1 .447 1 1v2.998c0 .553-.447 1-1 1z"/></g><g><path d="m28.504 62.995c-.553 0-1-.447-1-1v-2.998c0-.553.447-1 1-1s1 .447 1 1v2.998c0 .553-.447 1-1 1z"/></g></g><g><path d="m31.504 55.007h-14c-.553 0-1-.447-1-1s.447-1 1-1h14c.553 0 1 .447 1 1s-.447 1-1 1z"/></g><g><g><path d="m49.496 62.994c-7.168 0-13-5.831-13-12.999 0-7.167 5.832-12.998 13-12.998s13 5.831 13 12.998c0 7.168-5.832 12.999-13 12.999zm0-23.997c-6.065 0-11 4.934-11 10.998s4.935 10.999 11 10.999 11-4.935 11-10.999-4.934-10.998-11-10.998z"/></g><g><path d="m59.655 44.626c-.048 0-.097-.003-.146-.011l-5.035-.734c-.325-.047-.606-.252-.752-.547l-2.236-4.531c-.245-.495-.041-1.095.454-1.339.497-.244 1.096-.041 1.339.454l2.004 4.06 4.516.659c.546.079.925.587.845 1.134-.073.497-.5.855-.989.855z"/></g><g><path d="m58.657 58.737c-.479 0-.901-.344-.984-.831l-.877-5.104c-.056-.324.052-.655.287-.885l3.666-3.572c.395-.384 1.029-.378 1.414.018.386.396.378 1.029-.018 1.414l-3.29 3.205.788 4.586c.094.544-.271 1.061-.816 1.154-.056.01-.114.015-.17.015z"/></g><g><path d="m44.892 62.072c-.36 0-.708-.194-.887-.535-.257-.489-.067-1.094.421-1.351l4.605-2.415c.291-.152.64-.152.929 0l4.607 2.415c.489.257.679.86.422 1.35s-.862.681-1.35.422l-4.144-2.172-4.141 2.172c-.147.077-.306.114-.462.114z"/></g><g><path d="m40.337 58.737c-.056 0-.113-.005-.17-.015-.545-.094-.91-.61-.816-1.154l.788-4.585-3.293-3.205c-.396-.386-.404-1.019-.02-1.414.387-.396 1.019-.405 1.414-.02l3.67 3.572c.236.23.344.562.288.886l-.877 5.104c-.083.488-.506.831-.984.831z"/></g><g><path d="m39.337 44.626c-.488 0-.916-.358-.988-.855-.08-.547.299-1.055.845-1.134l4.516-.659 2.004-4.06c.244-.495.843-.697 1.339-.454.495.244.699.844.454 1.339l-2.236 4.531c-.146.295-.427.5-.752.547l-5.035.734c-.05.008-.099.011-.147.011z"/></g><g><path d="m52.611 54.997h-6.242c-.434 0-.817-.279-.951-.691l-1.922-5.932c-.134-.412.013-.863.363-1.117l5.043-3.666c.35-.256.824-.255 1.176-.001l5.051 3.666c.351.255.497.707.363 1.119l-1.93 5.932c-.133.412-.518.69-.951.69zm-5.514-2h4.788l1.48-4.55-3.875-2.812-3.868 2.812z"/></g></g></g></svg>