<svg id="svg10" clip-rule="evenodd" fill-rule="evenodd" height="512" stroke-linejoin="round" stroke-miterlimit="2" viewBox="0 0 48 48" width="512" xmlns="http://www.w3.org/2000/svg" xmlns:svg="http://www.w3.org/2000/svg"><path id="path2" d="m45 40c.552 0 1-.448 1-1v-30c0-.552-.448-1-1-1h-42c-.552 0-1 .448-1 1v30c0 .552.448 1 1 1z" fill="#7cb342"/><path id="path6" d="m23 18.083v-10.083h2v10.083c2.836.477 5 2.946 5 5.917s-2.164 5.44-5 5.917v10.083h-2v-10.083c-2.836-.477-5-2.946-5-5.917s2.164-5.44 5-5.917zm15 1.017v-3.1c0-.552.448-1 1-1h7v2h-6v14h6v2h-7c-.552 0-1-.448-1-1v-3.1c-2.281-.464-4-2.483-4-4.9s1.719-4.436 4-4.9zm-28 0v-3.1c0-.552-.448-1-1-1h-7v2h6v14h-6v2h7c.552 0 1-.448 1-1v-3.1c2.281-.464 4-2.483 4-4.9s-1.719-4.436-4-4.9zm13 1.026c-1.724.445-3 2.012-3 3.874s1.276 3.429 3 3.874zm2 0v7.748c1.724-.445 3-2.012 3-3.874s-1.276-3.429-3-3.874zm13 1.045c-1.165.412-2 1.524-2 2.829s.835 2.417 2 2.829zm-28 0c1.165.412 2 1.524 2 2.829s-.835 2.417-2 2.829z" fill="#c5e1a5"/></svg>