<svg id="Capa_1" enable-background="new 0 0 512.344 512.344" height="512" viewBox="0 0 512.344 512.344" width="512" xmlns="http://www.w3.org/2000/svg"><g><g><path d="m152.997 243.394h-59.474s-50.452 18.859-65.38 32.727c-8.829 8.202-14.435 29.843-17.542 46.158l142.396 10z" fill="#e592b8"/><path d="m222.806 276.121c-14.928-13.868-65.38-32.727-65.38-32.727h-4.43l-18.034 49.443c-3.183 8.726-5.337 19.37-4.798 29.443h-119.563c-2.147 11.27-3.101 20-3.101 20h235.95c0-.001-5.716-52.291-20.644-66.159z" fill="#de5ca3"/><path d="m178.346 177.274c0-13.74 0-72.209 0-111.954l-19.058-16.717h-90c-10.422 9.305-16.684 21.242-16.684 34.259v38.231c-11.678 0-21.145 8.412-21.145 23.902s9.577 26.421 21.145 32.279c0 24.192 11.083 40.934 21.404 50.897 13.36 12.896 28.156 21.489 41.467 24.488 13.311-2.999 28.107-11.592 41.467-24.488 10.321-9.963 21.404-26.705 21.404-50.897z" fill="#ebae9d"/><path d="m198.346 121.093v-38.231l-20-17.543v111.954c0 24.192-11.083 40.934-21.404 50.897-13.36 12.896-28.156 21.489-41.467 24.488 3.448.777 6.802 1.199 10 1.199 15.54 0 34.646-9.45 51.467-25.687 10.321-9.963 21.404-26.705 21.404-50.897 11.568-5.859 21.145-16.789 21.145-32.279s-9.467-23.901-21.145-23.901z" fill="#c38778"/><path d="m107.976 66.431v-6.542c0-2.601 2.731-4.299 5.057-3.134 5.367 2.688 15.202 7.202 30.426 12.72 2.285.828 4.702-.857 4.702-3.287v-6.299c0-2.601 2.731-4.299 5.057-3.134 5.25 2.63 14.776 7.007 29.439 12.361 2.705.988 5.393-1.526 4.568-4.286-.991-3.312-8.879-17.585-14.716-23.045-12.694-7.93-29.102-12.72-47.033-12.72-22.614 0-42.821 7.605-56.187 19.539 0 0 14.541 14.918 34.112 21.16 2.261.721 4.575-.958 4.575-3.333z" fill="#fff0af"/><path d="m172.508 41.784c2.103 3.909 3.726 7.733 4.716 11.045.825 2.759-1.862 5.273-4.568 4.286-14.663-5.355-24.189-9.731-29.439-12.361-2.326-1.165-5.057.533-5.057 3.134v6.299c0 2.431-2.417 4.116-4.702 3.287-15.224-5.518-25.058-10.032-30.426-12.72-2.326-1.165-5.057.533-5.057 3.134v6.542c0 2.375-2.313 4.054-4.576 3.333-12.289-3.919-24.111-9.16-24.112-9.16 4.63 13.273 20.273 26.596 48.688 36.546v-17.099s11.77 7.148 40.185 17.099v-17.099s11.77 7.148 40.185 17.099v-2.287c.001-16.474-10.04-31.209-25.837-41.078z" fill="#ffd064"/><path d="m305.508 164.733c-15.983 1.868-27.425 16.34-25.557 32.323-12.908 9.61-15.581 27.863-5.972 40.771-6.374 14.776.438 31.921 15.214 38.295h97.331v-111.389z" fill="#766d78"/><path d="m467.542 164.733c15.983 1.868 27.425 16.34 25.557 32.323 12.908 9.61 15.581 27.863 5.972 40.771 6.374 14.776-.438 31.921-15.214 38.295h-97.331v-111.389z" fill="#544f56"/><path d="m443.988 253.858c-13.803-6.086-25.51-10.463-25.51-10.463h-63.904s-11.706 4.377-25.51 10.463v.001c8.554 30.447 27.462 58.421 27.462 58.421h60c.001 0 18.908-27.974 27.462-58.422z" fill="#9d6c6c"/><path d="m443.988 253.858c-18.781 25.285-57.463 50-57.463 50s-38.683-24.715-57.463-50.001c-14.852 6.548-32.132 15.076-39.868 22.264-8.829 8.202-14.085 29.843-16.906 46.158l218.213 10s-4.817-46.421-24.714-67.96c-6.939-3.699-14.65-7.309-21.799-10.461z" fill="#ffd064"/><path d="m483.857 276.121c-4.013-3.728-10.594-7.816-18.07-11.802 7.408 13.891 11.672 36.899 13.552 49.338.686 4.54-2.825 8.622-7.416 8.622h-199.636c-1.949 11.27-2.737 20-2.737 20h234.95s-5.716-52.29-20.643-66.158z" fill="#ebb044"/><path d="m439.396 121.093s10-13.659 10-37.663c0-19.129-10.261-35.386-19.279-42.286-11.536-7.411-26.217-12.08-43.592-12.08-45.747 0-72.871 32.317-72.871 62.029v30z" fill="#e592b8"/><path d="m439.396 121.093h20v-30c0-18.427-10.441-37.848-29.279-49.949 4.085 8.537 9.279 23.143 9.279 42.272z" fill="#de5ca3"/><path d="m449.396 177.274c0-28.267-10-93.844-10-93.844-12.475-8.983-30.424-14.365-52.871-14.365-45.747 0-72.871 22.317-72.871 52.029-11.678 0-21.145 8.412-21.145 23.902s9.577 26.421 21.145 32.279c0 24.192 11.083 40.934 21.404 50.897 13.36 12.896 28.156 21.489 41.467 24.488 20.065 0 38.107-11.592 51.467-24.488 10.321-9.964 21.404-26.706 21.404-50.898z" fill="#c38778"/><path d="m459.396 121.093c0-15.133-7.05-28.339-20-37.663v93.844c0 24.192-11.083 40.934-21.404 50.897-13.36 12.896-28.156 21.489-41.467 24.488 3.448.777 6.802 1.199 10 1.199 15.54 0 34.646-9.45 51.467-25.687 10.321-9.963 21.404-26.705 21.404-50.897 11.568-5.859 21.145-16.789 21.145-32.279s-9.467-23.902-21.145-23.902z" fill="#9d6c6c"/><path d="m403.329 175.964c0 7.556-11.733 10.209-16.804 10.209s-16.804-2.653-16.804-10.209c0-5.023 5.385-17.791 16.804-17.791s16.804 12.768 16.804 17.791z" fill="#9d6c6c"/><path d="m108.671 175.964c0 7.556 11.733 10.209 16.804 10.209s16.804-2.653 16.804-10.209c0-5.023-5.385-17.791-16.804-17.791s-16.804 12.768-16.804 17.791z" fill="#c38778"/><path d="m317.012 351.891c26.27 0 42.382-25.176 30.025-59.054l-18.244-50.018c-6.809-18.669-18.79-36.607-33.353-45.562-12.231-5.15-25.761-7.566-39.44-7.566-35.056 0-69.172 15.784-82.793 53.128l-18.244 50.018c-7.034 19.286-9.119 47.964 12.048 59.054z" fill="#766d78"/><path d="m234.435 346.504-45.631 10s-25.1 23.281-17.458 61.804h24.703z" fill="#766d78"/><path d="m357.037 292.837-18.244-50.018c-8.306-22.772-24.239-37.514-43.353-45.562 9.611 11.114 16.544 26.893 23.353 45.562l18.244 50.018c6.521 17.878 7.256 46.751-24.85 46.751l-30.256-112.427c-.662-1.06-1.274-2.109-1.838-3.133-3.074-5.582-10.794-6.425-14.897-1.55-35.736 42.456-102.067 58.966-102.067 105.796 0 8.862 1.49 16.721 3.883 23.617 5.554 2.91 12.705 4.613 21.793 4.613h25.631s-28.02 27.77-18.386 61.804h144.605c7.641-38.523-17.459-61.804-17.459-61.804 43.722 0 42.721-39.32 33.841-63.667z" fill="#544f56"/><path d="m142.562 463.279c2.972-12.923 8.053-28.676 16.106-36.158 7.737-7.188 25.017-15.715 39.869-22.264 8.554 18.494 106.37 18.494 114.924 0 6.034 2.661 12.469 5.647 18.501 8.739 21.368 13.525 30.012 59.683 30.012 59.683z" fill="#fff0af"/><path d="m198.538 404.858c8.554 30.447 27.462 48.421 27.462 48.421h60s18.908-17.974 27.462-48.421z" fill="#ffcdbe"/><path d="m313.462 404.858c-13.804-6.086-25.51-10.463-25.51-10.463h-63.904s-11.706 4.377-25.51 10.463c2.387 5.16 31.198 25.001 57.462 25.001 26.265-.001 55.075-19.841 57.462-25.001z" fill="#ebae9d"/><path d="" fill="#e592b8"/><path d="m353.332 427.121c-4.594-4.267-12.552-9.007-21.368-13.525 6.367 8.995 12.758 28.32 16.268 40.041 1.44 4.809-2.168 9.642-7.188 9.642h-198.482l-3.537 20h234.95s-5.716-42.29-20.643-56.158z" fill="#ffd064"/><path d="m142.562 463.279c-2.537 11.031-3.537 20-3.537 20z" fill="#de5ca3"/><path d="m318.871 328.274c0-37.743-23.571-54.927-47.801-86.682-34.039 38.791-87.941 53.216-87.941 86.682 0 24.192 11.083 40.934 21.404 50.897 13.36 12.896 28.156 21.49 41.467 24.489 13.311-2.999 38.107-11.592 51.467-24.489 10.321-9.963 21.404-26.705 21.404-50.897z" fill="#ffcdbe"/><g fill="#ebae9d"><path d="m281.931 227.161c-3.28 5.179-6.941 9.964-10.861 14.431 23.715 36.18 37.801 48.939 37.801 86.682 0 24.192-11.083 40.934-21.404 50.897-13.36 12.896-28.156 21.49-41.467 24.489 3.448.777 6.802 1.198 10 1.198 15.54 0 34.646-9.449 51.467-25.687 10.321-9.963 21.404-26.705 21.404-50.897 0-42.369-17.74-53.227-46.94-101.113z"/><path d="m270.976 323.964c0 7.556-10.457 10.209-14.976 10.209s-14.976-2.653-14.976-10.209c0-5.023 8.117-22.791 14.976-22.791s14.976 17.768 14.976 22.791z"/></g></g><g><path d="m153.061 196.855c-12.167 9.681-42.881 9.551-54.773-.232-3.199-2.632-7.925-2.171-10.557 1.027-2.631 3.199-2.171 7.926 1.027 10.557 8.775 7.219 22.954 10.842 37.122 10.842 13.878 0 27.746-3.476 36.519-10.455 3.241-2.578 3.779-7.297 1.2-10.538-2.579-3.243-7.296-3.78-10.538-1.201z"/><path d="m93.758 155.503c4.142 0 7.5-3.357 7.5-7.5v-10.099c0-4.143-3.358-7.5-7.5-7.5s-7.5 3.357-7.5 7.5v10.099c0 4.143 3.358 7.5 7.5 7.5z"/><path d="m164.691 148.003v-10.099c0-4.143-3.358-7.5-7.5-7.5s-7.5 3.357-7.5 7.5v10.099c0 4.143 3.358 7.5 7.5 7.5s7.5-3.357 7.5-7.5z"/><path d="m101.171 175.964c0 12.216 14.212 17.71 24.304 17.71s24.304-5.494 24.304-17.71c0-8.826-8.347-25.29-24.304-25.29s-24.304 16.464-24.304 25.29zm24.304-10.29c6.273 0 9.074 8.193 9.29 10.101-1.041 1.244-5.8 2.899-9.29 2.899s-8.248-1.655-9.29-2.898c.219-1.917 3.02-10.102 9.29-10.102z"/><path d="m82.475 119.966c6.012-2.337 16.208-1.555 23.269 4.502 1.415 1.214 3.151 1.808 4.88 1.808 2.112 0 4.212-.888 5.696-2.616 2.697-3.144 2.335-7.879-.809-10.576-10.417-8.938-26.239-11.859-38.474-7.096-3.86 1.502-5.772 5.849-4.271 9.709s5.85 5.773 9.709 4.269z"/><path d="m140.63 126.275c1.728 0 3.465-.594 4.88-1.808 7.061-6.056 17.257-6.84 23.269-4.502 3.86 1.503 8.207-.409 9.709-4.27s-.41-8.207-4.271-9.709c-12.234-4.763-28.056-1.842-38.474 7.096-3.144 2.697-3.506 7.433-.809 10.576 1.484 1.73 3.583 2.617 5.696 2.617z"/><path d="m494.894 278.231c5.075-3.955 9.033-9.199 11.471-15.336 3.092-7.783 3.432-16.197 1.036-24.094 4.152-7.131 5.762-15.397 4.549-23.684-1.215-8.288-5.13-15.748-11.156-21.39.01-12.492-6.431-24.11-16.731-30.807 2.597-5.478 3.978-11.518 3.978-17.926 0-15.604-8.389-27.235-21.145-30.486v-23.415c0-17.286-7.885-34.64-21.634-47.611-14.979-14.133-35.84-21.917-58.737-21.917-9.337 0-18.327 1.259-26.72 3.74-3.972 1.175-6.24 5.348-5.065 9.319s5.346 6.242 9.319 5.065c7.011-2.073 14.569-3.125 22.466-3.125 24.422 0 39.824 9.694 48.443 17.828 8.744 8.249 14.457 18.631 16.289 29.303-12.949-13.074-34.19-22.131-64.732-22.131-30.52 0-51.753 9.044-64.704 22.102 2.011-11.478 8.539-22.725 18.321-31.131 3.142-2.699 3.5-7.435.801-10.576s-7.434-3.501-10.576-.801c-15.388 13.223-24.213 31.423-24.213 49.934v23.416c-12.756 3.251-21.145 14.883-21.145 30.486 0 6.416 1.384 12.464 3.987 17.948-7.357 4.791-12.827 12.118-15.29 20.556-5.694-.855-11.602-1.308-17.707-1.308-19.689 0-37.395 4.564-52.09 12.99.939-4.19 1.576-8.669 1.821-13.451 13.572-8.36 21.258-21.531 21.258-36.734 0-15.604-8.389-27.235-21.145-30.486v-31.647c0-16.812-8.662-32.464-24.389-44.075-15.044-11.106-34.926-17.223-55.982-17.223-21.057 0-40.938 6.116-55.982 17.223-15.724 11.612-24.386 27.264-24.386 44.075v31.646c-12.756 3.251-21.145 14.883-21.145 30.486 0 15.203 7.687 28.374 21.258 36.734 1.291 25.143 13.363 41.974 23.581 51.838 2.959 2.856 5.98 5.512 9.04 7.963-4.243 1.741-9.215 3.841-14.459 6.176-19.971 8.894-33.544 16.605-40.341 22.92-16.498 15.329-22.377 65.203-22.994 70.839-.231 2.119.449 4.235 1.872 5.822 1.422 1.587 3.453 2.493 5.584 2.493h117.562c4.142 0 7.5-3.357 7.5-7.5s-3.358-7.5-7.5-7.5h-109.026c2.871-19.331 9.077-45.605 17.212-53.163 10.522-9.776 43.89-23.861 59.562-29.924 8.515 4.774 17.052 7.876 25.165 9.086v18.08c0 4.143 3.358 7.5 7.5 7.5s7.5-3.357 7.5-7.5v-18.08c9.677-1.443 19.96-5.578 30.086-12.032l-4.794 13.143c-1.419 3.892.584 8.197 4.476 9.616 3.89 1.422 8.197-.584 9.616-4.476l7.893-21.641c15.867-43.502 58.258-48.198 75.747-48.198s59.88 4.696 75.747 48.198l18.243 50.019c4.657 12.767 7.283 31.694-.641 43.021-3.337 4.769-8.474 7.936-15.326 9.479 1.474-5.932 2.348-12.463 2.348-19.632 0-33.613-10.467-48.874-27.809-74.156-5.951-8.676-12.696-18.51-20.229-30.861-1.35-2.214-3.747-3.573-6.34-3.596-2.585-.031-5.013 1.296-6.399 3.487-13.965 22.051-35.702 37.01-54.88 50.207-24.192 16.648-45.085 31.026-45.085 54.919 0 7.169.874 13.7 2.348 19.632-6.852-1.543-11.989-4.71-15.326-9.479-7.924-11.325-5.298-30.253-.641-43.021 1.419-3.892-.584-8.197-4.476-9.616-3.889-1.42-8.196.585-9.616 4.476-2.996 8.215-11.675 36.584 2.443 56.761 6.283 8.979 15.304 13.418 24.163 15.451-6.875 10.719-14.57 28.577-11.402 52.055-3.989 2.526-7.193 4.896-9.557 7.093-16.492 15.322-21.479 56.21-21.993 60.822-.237 2.12.441 4.241 1.864 5.832 1.423 1.59 3.456 2.499 5.589 2.499h145.502c4.143 0 7.5-3.357 7.5-7.5s-3.357-7.5-7.5-7.5h-136.839c2.357-13.796 7.588-35.269 16.086-43.163 5.613-5.215 17.733-11.657 30.198-17.455 9.725 27.031 26.103 42.832 26.862 43.553 1.394 1.325 3.244 2.064 5.167 2.064h60c1.924 0 3.773-.739 5.167-2.064.759-.721 17.137-16.523 26.863-43.553 12.465 5.797 24.584 12.24 30.197 17.455 8.517 7.912 14.2 29.324 16.885 43.163h-50.584c-4.143 0-7.5 3.357-7.5 7.5s3.357 7.5 7.5 7.5h59.447c2.164 0 4.223-.935 5.647-2.564 1.424-1.63 2.075-3.795 1.785-5.94-.622-4.601-6.55-45.392-22.972-60.647-2.365-2.197-5.568-4.567-9.557-7.093 3.168-23.47-4.52-41.322-11.394-52.043 10.793-2.48 17.67-7.644 22.011-12.712h78.444c4.143 0 7.5-3.357 7.5-7.5s-3.357-7.5-7.5-7.5h-70.516c3.677-12.685 1.725-26.263-.601-35.516 8.805 6.515 15.221 10.632 15.665 10.916 1.231.786 2.635 1.18 4.038 1.18s2.807-.394 4.038-1.18c1.527-.976 35.498-22.821 55.685-47.081 13.253 6.062 26.544 12.981 32.503 18.518 8.122 7.545 14.332 33.825 17.209 53.163h-28.021c-4.143 0-7.5 3.357-7.5 7.5s3.357 7.5 7.5 7.5h36.561c2.131 0 4.161-.906 5.584-2.493s2.104-3.703 1.872-5.822c-.536-4.901-5.051-43.231-17.062-63.235zm-434.79-100.956c0-2.827-1.589-5.414-4.111-6.69-6.361-3.222-17.033-10.83-17.033-25.589 0-10.271 5.101-16.402 13.645-16.402 4.142 0 7.5-3.357 7.5-7.5v-38.23c0-25.528 29.325-46.298 65.371-46.298 31.753 0 58.279 16.12 64.149 37.41-19.107-7.307-27.486-12.284-27.57-12.335-2.316-1.406-5.21-1.456-7.571-.126-2.361 1.328-3.822 3.827-3.822 6.536v6.39c-19.977-7.562-28.706-12.748-28.792-12.8-2.317-1.406-5.209-1.456-7.571-.126-2.361 1.328-3.822 3.827-3.822 6.536v6.156c-7.37-3.159-13.735-6.642-19-10.399-3.371-2.404-8.055-1.623-10.461 1.747-2.406 3.372-1.624 8.056 1.748 10.462 8.667 6.187 19.681 11.641 32.736 16.212 2.294.805 4.835.444 6.818-.961 1.982-1.406 3.161-3.687 3.161-6.117v-4.914c6.731 3.091 16.632 7.239 30.206 11.992 2.295.805 4.836.444 6.818-.961 1.982-1.406 3.161-3.687 3.161-6.117v-4.914c5.871 2.696 14.156 6.197 25.185 10.202v30.656c0 4.143 3.358 7.5 7.5 7.5 8.544 0 13.645 6.132 13.645 16.402 0 14.759-10.672 22.367-17.033 25.589-2.522 1.276-4.111 3.863-4.111 6.69 0 22.357-10.394 37.084-19.113 45.5-15.298 14.768-32.591 23.584-46.258 23.584s-30.96-8.816-46.258-23.584c-8.723-8.418-19.117-23.144-19.117-45.501zm157.679 116.409v2.319c0 4.143 3.358 7.5 7.5 7.5s7.5-3.357 7.5-7.5v-12.747c16.657-11.501 34.697-24.476 48.77-42.551 5.331 8.327 10.202 15.429 14.64 21.898 16.765 24.439 25.179 36.707 25.179 65.671 0 22.357-10.394 37.084-19.113 45.5-15.298 14.768-32.591 23.584-46.258 23.584s-30.96-8.816-46.258-23.584c-8.72-8.416-19.113-23.143-19.113-45.5-.001-13.04 11.305-23.236 27.153-34.59zm-30.325 76.367c3.753 5.914 7.945 10.731 11.867 14.517 2.959 2.856 5.98 5.512 9.039 7.963-4.243 1.741-9.215 3.841-14.459 6.176-6.079 2.707-11.557 5.303-16.44 7.786-.697-16.503 5.083-28.963 9.993-36.442zm95.329 75.728h-53.574c-4.341-4.814-14.878-17.786-21.494-36.728 5.959-2.539 11.419-4.736 15.616-6.359 11.187 6.272 22.417 9.666 32.665 9.666 10.247 0 21.477-3.394 32.665-9.666 4.198 1.624 9.657 3.821 15.616 6.359-6.619 18.951-17.161 31.925-21.494 36.728zm35.309-47.073c-5.244-2.335-10.216-4.435-14.46-6.176 3.06-2.451 6.081-5.107 9.04-7.963 3.914-3.778 8.098-8.585 11.846-14.484 4.895 7.499 10.674 19.978 10.006 36.405-4.881-2.481-10.356-5.076-16.432-7.782zm170.524-195.635c4.636 3.451 7.65 8.502 8.488 14.22.837 5.719-.603 11.421-4.054 16.058-1.601 2.149-1.933 4.989-.871 7.449 2.289 5.307 2.375 11.187.241 16.558-1.591 4.006-4.277 7.368-7.74 9.769-7.56-5.595-19.645-12.106-36.065-19.418-5.244-2.335-10.216-4.435-14.459-6.176 3.06-2.451 6.081-5.107 9.04-7.963 10.218-9.863 22.29-26.695 23.582-51.838 3.163-1.949 5.991-4.168 8.492-6.604 7.143 4.297 11.374 12.508 10.374 21.059-.31 2.662.823 5.287 2.972 6.886zm-174.966-74.478c4.143 0 7.5-3.357 7.5-7.5 0-12.464 5.621-23.23 16.255-31.137 11.783-8.761 28.768-13.392 49.116-13.392s37.333 4.631 49.116 13.392c10.634 7.906 16.255 18.673 16.255 31.137 0 4.143 3.357 7.5 7.5 7.5 8.544 0 13.645 6.132 13.645 16.402 0 14.758-10.672 22.367-17.033 25.589-2.521 1.276-4.111 3.863-4.111 6.69 0 22.357-10.394 37.084-19.113 45.5-15.298 14.768-32.591 23.584-46.258 23.584-13.668 0-30.96-8.816-46.258-23.584-8.72-8.416-19.113-23.143-19.113-45.5 0-2.827-1.59-5.414-4.111-6.69-6.361-3.222-17.033-10.831-17.033-25.589-.001-10.27 5.099-16.402 13.643-16.402zm-15.887 46.525c2.503 2.439 5.334 4.661 8.5 6.612.246 4.782.883 9.261 1.822 13.451-6.072-3.482-12.66-6.301-19.69-8.412 1.645-4.842 4.971-9.002 9.368-11.651zm88.755 119.732c-5.892-4.007-17.386-12.148-28.804-22.03l-8.78-24.073c12.79 8.153 25.834 12.612 37.587 12.612 10.247 0 21.477-3.394 32.664-9.666 3.497 1.353 7.864 3.1 12.673 5.115-14.852 16.563-36.459 31.996-45.34 38.042z"/><path d="m362.222 175.964c0 12.216 14.212 17.71 24.304 17.71s24.304-5.494 24.304-17.71c0-8.826-8.347-25.29-24.304-25.29s-24.304 16.464-24.304 25.29zm24.303-10.29c6.271 0 9.071 8.186 9.29 10.102-1.042 1.243-5.8 2.898-9.29 2.898s-8.248-1.655-9.29-2.898c.219-1.917 3.02-10.102 9.29-10.102z"/><path d="m401.377 126.275c1.728 0 3.465-.594 4.879-1.808 7.062-6.058 17.258-6.842 23.269-4.502 3.86 1.504 8.207-.409 9.709-4.27s-.409-8.207-4.27-9.709c-12.231-4.762-28.055-1.844-38.474 7.096-3.145 2.697-3.507 7.432-.81 10.575 1.484 1.731 3.584 2.618 5.697 2.618z"/><path d="m343.223 119.966c6.01-2.337 16.207-1.555 23.267 4.502 1.415 1.214 3.152 1.808 4.88 1.808 2.113 0 4.213-.888 5.696-2.616 2.697-3.144 2.335-7.879-.809-10.576-10.42-8.938-26.24-11.855-38.474-7.096-3.86 1.502-5.771 5.849-4.27 9.709s5.849 5.773 9.71 4.269z"/><path d="m409.821 198.909c-10.2 9.438-36.55 9.566-46.988.226-3.086-2.764-7.828-2.499-10.59.588-2.763 3.087-2.499 7.828.588 10.59 8.004 7.162 20.656 10.729 33.317 10.729 12.924 0 25.856-3.718 33.86-11.123 3.04-2.812 3.225-7.559.411-10.599-2.811-3.041-7.557-3.224-10.598-.411z"/><path d="m425.291 132.454h-10.099c-4.143 0-7.5 3.357-7.5 7.5s3.357 7.5 7.5 7.5h10.099c4.143 0 7.5-3.357 7.5-7.5s-3.357-7.5-7.5-7.5z"/><path d="m365.357 139.954c0-4.143-3.357-7.5-7.5-7.5h-10.099c-4.143 0-7.5 3.357-7.5 7.5s3.357 7.5 7.5 7.5h10.099c4.143 0 7.5-3.357 7.5-7.5z"/><path d="m255.807 368.562c.168 0 .337-.001.506-.002 12.7-.106 23.988-4.246 30.97-11.357 2.902-2.956 2.858-7.705-.097-10.606-2.957-2.901-7.705-2.858-10.606.097-4.089 4.165-11.902 6.796-20.393 6.867-8.659.062-16.619-2.475-20.855-6.646-2.952-2.907-7.7-2.87-10.606.081-2.907 2.951-2.871 7.699.081 10.606 7.086 6.978 18.362 10.96 31 10.96z"/><path d="m243.432 338.596c4.488 2.27 9.435 3.078 12.568 3.078s8.08-.809 12.568-3.078c6.297-3.186 9.908-8.519 9.908-14.632 0-4.895-3.178-12.211-5.898-16.99-5.025-8.825-10.604-13.3-16.578-13.3-5.975 0-11.553 4.475-16.578 13.3-2.721 4.779-5.898 12.096-5.898 16.99-.001 6.113 3.611 11.446 9.908 14.632zm20.045-14.632.014-.008c-.005.009-.009.018-.014.026 0-.006 0-.012 0-.018zm-11.616-8.485c1.679-3.157 3.162-5.059 4.139-6.076.977 1.018 2.46 2.919 4.139 6.076 2.118 3.986 3.187 7.416 3.33 8.517-.602 1.074-4.645 2.679-7.469 2.679-2.842 0-6.92-1.626-7.467-2.691.151-1.117 1.218-4.536 3.328-8.505z"/><path d="m286.717 303.503c4.143 0 7.5-3.357 7.5-7.5v-10.099c0-4.143-3.357-7.5-7.5-7.5s-7.5 3.357-7.5 7.5v10.099c0 4.143 3.357 7.5 7.5 7.5z"/></g></g></svg>