<svg id="Tournament" enable-background="new 0 0 64 64" height="512" viewBox="0 0 64 64" width="512" xmlns="http://www.w3.org/2000/svg"><g><g><path d="m57.56878 25.23207c-6.37004.255-8.43383-9.22227-15.41357-7.58943 2.06945-4.67689 4.13884-9.3538 6.2082-14.03073 6.44241-1.50714 8.69664 6.45105 14.01474 7.48479 1.26847.24657 1.97027 1.61785 1.4474 2.79955l-4.48064 10.12638c-.31289.70713-1.00348 1.17851-1.77613 1.20944z" fill="#5f77e0"/><path d="m42.1552 17.65127c5.01038-1.18862 7.49721 3.40112 10.86172 5.96116-3.11702-5.06346-4.89077-13.43337-.25591-19.47433-1.26172-.65826-2.68806-.93259-4.40692-.53025z" opacity=".1"/><path d="m32.5043 37.86434c-.91942-.40681-1.33496-1.48193-.92814-2.40134l14.53428-32.84797c.40681-.91941 1.48193-1.33495 2.40134-.92814.91941.40681 1.33495 1.48193.92814 2.40134l-14.53428 32.84797c-.40681.91941-1.48193 1.33496-2.40134.92814z" fill="#d08867"/></g><g><path d="m6.43122 25.23207c6.37004.255 8.43383-9.22227 15.41357-7.58943-2.06944-4.67689-4.13885-9.3538-6.2082-14.03073-6.44241-1.50714-8.69665 6.45105-14.01474 7.48479-1.26848.24657-1.97027 1.61785-1.4474 2.79955l4.48063 10.12638c.3129.70713 1.00349 1.17851 1.77614 1.20944z" fill="#f7524b"/><path d="m21.83678 17.65127c-5.01038-1.18862-7.49721 3.40112-10.86172 5.96116 3.11702-5.06346 4.89078-13.43337.25591-19.47433 1.26172-.65826 2.68806-.93259 4.40692-.53025z" opacity=".1"/><path d="m31.4957 37.86434c.91941-.40682 1.33496-1.48194.92815-2.40135l-14.5343-32.84796c-.40681-.91941-1.48193-1.33495-2.40134-.92814-.91941.40682-1.33495 1.48193-.92814 2.40135l14.53429 32.84796c.40682.91941 1.48193 1.33496 2.40134.92814z" fill="#d08867"/></g><g><path d="m11.22502 43.01838c-.02989-.44965-.04665-.9126-.04746-1.37041.00084-4.76866 1.60554-9.16581 4.31251-12.67685 3.80215-4.95894 9.78245-8.14553 16.51468-8.14899 11.4983.00534 20.81526 9.32371 20.81788 20.8246.00262 11.50088-9.3263 20.82322-20.82461 20.81793-11.03509.00434-20.06869-8.58847-20.773-19.44628z" fill="#f0f0fc"/><path d="m31.99995 43.17449c-.50536 0-.91429-.40893-.91429-.91429v-19.13304c0-.50536.40893-.91429.91429-.91429s.91429.40893.91429.91429v19.13304c0 .50536-.40893.91429-.91429.91429z" fill="#82828e"/><path d="m21.85263 57.14056c-.18661 0-.37411-.05714-.53661-.175-.40804-.29643-.49911-.86786-.20179-1.27678l10.14644-13.96608c.29643-.41072.86964-.49821 1.27679-.20179.40893.29643.49821.86786.20179 1.27679l-10.14644 13.96607c-.17857.24643-.45714.37679-.74018.37679z" fill="#82828e"/><path d="m31.99995 43.17449c-.09286 0-.18929-.01429-.28214-.04464l-18.35982-5.96607c-.48036-.15536-.74375-.67143-.5875-1.15179.15625-.48214.67054-.74464 1.15179-.5875l18.35982 5.96607c.48036.15535.74286.67142.5875 1.15178-.12501.3875-.48393.63215-.86965.63215z" fill="#82828e"/><path d="m42.45174 57.5602c-.28214 0-.56071-.13036-.73928-.37679l-10.45179-14.38571c-.29732-.40893-.20625-.98036.20179-1.27679.40714-.29643.98036-.20893 1.27679.20179l10.45178 14.38571c.29643.40893.20715.98036-.20178 1.27679-.16251.11786-.35001.175-.53751.175z" fill="#82828e"/><path d="m31.99995 43.17449c-.38571 0-.74375-.24464-.86964-.63214-.15625-.48036.10714-.99643.5875-1.15178l17.41786-5.66072c.47678-.15536.99643.10714 1.15179.5875s-.10714.99643-.5875 1.15179l-17.41786 5.66071c-.09286.03035-.18929.04464-.28215.04464z" fill="#82828e"/><g fill="#3b3b44"><path d="m30.68701 35.47778-4.72993 3.43649c-.78338.56916-1.11118 1.57803-.81196 2.49895l1.80667 5.56036c.29922.92092 1.15742 1.54443 2.12573 1.54443h5.84651c.96832 0 1.8265-.62351 2.12573-1.54443l1.80667-5.56036c.29922-.92092-.02858-1.92979-.81196-2.49895l-4.72992-3.43649c-.78338-.56917-1.84416-.56917-2.62754 0z"/><path d="m24.6524 22.16093c2.28454-.87027 4.76148-1.33888 7.34726-1.33888 2.58573 0 5.0711.46861 7.35559 1.33888l-6.03271 4.39058c-.78364.57033-1.84557.57062-2.62952.00072z"/><path d="m48.51046 28.9689c2.70696 3.51104 4.31167 7.9082 4.30459 12.67943-.00087.45778-.01224.91022-.05005 1.36245l-5.82158-4.22286c-.78451-.56907-1.11288-1.57888-.81314-2.50054z"/><path d="m49.2398 53.30036c-2.78777 4.13551-7.019 7.20968-11.97968 8.49686l2.25256-6.95041c.29871-.92169 1.15723-1.54597 2.12612-1.54603z"/><path d="m26.74065 61.79794c-4.96067-1.28718-9.21034-4.3644-11.99816-8.49994l7.6133-.0011c.9686-.00014 1.82706.62361 2.12619 1.54486z"/><path d="m11.22502 43.01838c-.02989-.44965-.04665-.9126-.04746-1.37041.00084-4.76866 1.60554-9.16581 4.31251-12.67685l2.38185 7.31049c.30028.92163-.02771 1.93177-.81213 2.50119z"/></g><path d="m52.82263 41.64672c0 11.49408-9.32846 20.82253-20.82254 20.82253-.69408 0-1.38817-.02779-2.06836-.09718 9.87341-3.34272 22.37727-17.19943 14.38141-37.52216 5.16404 3.78967 8.50949 9.89765 8.50949 16.79681z" opacity=".1"/></g></g></svg>