<svg xmlns="http://www.w3.org/2000/svg" version="1.1" xmlns:xlink="http://www.w3.org/1999/xlink" xmlns:svgjs="http://svgjs.com/svgjs" width="512" height="512" x="0" y="0" viewBox="0 0 512 512" style="enable-background:new 0 0 512 512" xml:space="preserve" class=""><g><path fill="#c68ef4" d="m324.75 0-98.12 291.79H0V0z" data-original="#c68ef4" class=""></path><path fill="#b574f1" d="m324.75 0-98.12 291.79h-90.06V0z" data-original="#b574f1" class=""></path><path fill="#2e3a4d" d="M512 220.21V512H186.25l98.12-291.79z" data-original="#ffda44" class=""></path><path fill="#2e3a4d" d="M385.83 220.21H512V512H385.83z" data-original="#ffb655" class=""></path><path fill="#f3f1f4" d="m136.57 190.97 10 13.073-10 16.927h-24.6L88.42 73.48l29.67-4.42zM375.58 322.37v30.67h50.51v90.66h-80.51v-30h50.51v-30.66h-50.51v-90.67h80.51v30z" data-original="#f3f1f4" class=""></path><g fill="#dfdce0"><path d="m185.8 73.6-24.63 147.37h-24.6v-30l19.59-122.04zM385.83 292.37h40.26v30h-40.26zM385.83 353.04h40.26v90.66h-40.26v-30h10.26v-30.66h-10.26z" fill="#dfdce0" data-original="#dfdce0" class=""></path></g></g></svg>