<svg height="512" viewBox="0 0 54 60" width="512" xmlns="http://www.w3.org/2000/svg"><g id="Page-1" fill="none" fill-rule="evenodd"><g id="001---Football"><path id="Path" d="m35.88 2.56-8.88 6.24-8.88-6.24c5.7372996-2.07998694 12.0227004-2.07998694 17.76 0z" fill="#607d8b"/><path id="Path" d="m53 27c.00516.2936542-.0048533.587379-.03.88l-8.67-6.51 3.2-10.35c3.5720829 4.559928 5.5089943 10.187536 5.5 15.98z" fill="#607d8b"/><path id="Path" d="m48.9 41c-.06.1-.13.2-.19.3-2.4618072 3.7504525-5.8560931 6.7966948-9.85 8.84-1.5191072.7832264-3.1139939 1.409789-4.76 1.87l3.6-11.01z" fill="#607d8b"/><path id="Path" d="m27 1c-.5 0-1 .018-1.5.046 13.7346379.81809046 24.454075 12.1950193 24.454075 25.954s-10.7194371 25.1359095-24.454075 25.954c.5.028 1 .046 1.5.046 14.3594033-.0000002 25.9999996-11.6405967 25.9999996-26s-11.6405963-25.99999979-25.9999996-26z" fill="#37474f"/><path id="Path" d="m38.86 50.14c1.97.92 3.14 2.09 3.14 3.36 0 3.04-6.72 5.5-15 5.5s-15-2.46-15-5.5c0-1.27 1.17-2.44 3.14-3.36" fill="#60a917"/><path id="Path" d="m38.86 50.14h-3c1.97.92 3.14 2.09 3.14 3.36 0 2.854-5.924 5.2-13.5 5.472.494.0186667.994.028 1.5.028 8.28 0 15-2.46 15-5.5 0-1.27-1.17-2.44-3.14-3.36z" fill="#549414"/><path id="Path" d="m19.9 52.01c-1.6460061-.460211-3.2408928-1.0867736-4.76-1.87-3.9939069-2.0433052-7.38819275-5.0895475-9.85-8.84-.06-.1-.13-.2-.19-.3h11.2z" fill="#607d8b"/><path id="Path" d="m20.89 35-4.59 6h-11.2c-2.5265939-3.9208788-3.93392977-8.4575487-4.07-13.12l8.67-6.51 7.41 2.18v.01z" fill="#f5f5f5"/><path id="Path" d="m9.7 21.37-8.67 6.51c-.02514668-.292621-.03516003-.5863458-.03-.88-.00899435-5.792464 1.92791705-11.420072 5.5-15.98z" fill="#607d8b"/><g fill="#f5f5f5"><path id="Path" d="m27 8.8v7.8l-9.89 6.96v-.01l-7.41-2.18-3.2-10.35c2.99521432-3.86227485 7.0244699-6.79579483 11.62-8.46z"/><path id="Path" d="m37.7 41-3.6 11.01c-4.6413081 1.3199786-9.5586919 1.3199786-14.2 0l-3.6-11.01 4.59-6h12.22z"/><path id="Path" d="m52.97 27.88c-.1360702 4.6624513-1.5434061 9.1991212-4.07 13.12h-11.2l-4.59-6 3.78-11.44v-.01l7.41-2.18z"/><path id="Path" d="m47.5 11.02-3.2 10.35-7.41 2.18v.01l-9.89-6.96v-7.8l8.88-6.24c4.5955301 1.66420517 8.6247857 4.59772515 11.62 8.46z"/></g><path id="Path" d="m36.89 23.56-3.78 11.44h-12.22l-3.78-11.44 9.89-6.96z" fill="#607d8b"/><path id="Path" d="m47.5 11.02-.94 3.06c-2.7028849-4.73068773-6.8284303-8.48881822-11.79-10.74l1.11-.78c2.7602353 1.0071178 5.3299212 2.47454369 7.6 4.34.065.022.888.762.94.81 1.1166272 1.01606602 2.1468425 2.12321292 3.08 3.31z" fill="#cfd8dc"/><path id="Path" d="m52.97 27.88c-.1710893 4.6565526-1.5756153 9.1841648-4.07 13.12h-2.99c2.6793539-4.1771263 4.099253-9.0374164 4.09-14 0-.46-.01-.92-.04-1.38z" fill="#cfd8dc"/><path id="Shape" d="m4.454 41.849c2.22070603 3.383895 5.1760331 6.223347 8.646 8.307-1.2237576.6843492-2.0150961 1.9444616-2.1 3.344 0 4.222 8.244 6.5 16 6.5s16-2.278 16-6.5c-.0849039-1.3995384-.8762424-2.6596508-2.1-3.344 7.8280112-4.7094004 12.7452765-13.0563359 13.07-22.186.029-.328.03-.642.03-.97.0026539-7.1616585-2.8411285-14.0307562-7.9051861-19.09481388-5.0640577-5.06405763-11.9331554-7.90784006-19.0948139-7.90518612-14.9068887.01158074-26.98841926 12.0931113-27 27 0 .328 0 .642.026.916.15565334 4.9650487 1.68874853 9.7890359 4.428 13.933zm1.683-28.609 2.4 7.754-6.491 4.873c.18334741-4.503907 1.59832745-8.8712873 4.091-12.627zm3.763 9.232 6.424 1.89 3.45 10.448-3.968 5.19h-10.14c-2.15071946-3.5204359-3.39039153-7.5212738-3.607-11.641zm17.1-20.472c2.2478052-.00181911 4.485493.30093481 6.652.9l-6.652 4.677-6.652-4.677c2.1664946-.59912557 4.4041907-.90188061 6.652-.9zm0 15.822 8.71 6.124-3.323 10.054h-10.774l-3.323-10.054zm10.68 6.54 6.424-1.89 7.837 5.887c-.2135948 4.1202631-1.4534913 8.1218253-3.607 11.641h-10.14l-3.968-5.19zm10.183-11.122c2.4930911 3.7555107 3.90811 8.1230112 4.091 12.627l-6.488-4.873zm-14.543 37.936c-4.141712 1.0986617-8.498288 1.0986617-12.64 0l-3.266-9.986 3.968-5.19h11.236l3.968 5.19zm-26.292-9.176h8.547l2.76 8.443c-4.5064549-1.6611546-8.43420238-4.5940256-11.307-8.443zm33.972 11.5c0 1.879-5.326 4.5-14 4.5s-14-2.621-14-4.5c0-.725.775-1.527 2.133-2.237 5.9828247 2.9171865 12.831016 3.5267057 19.235 1.712 1.5486158-.4340457 3.0547616-1.0073852 4.5-1.713 1.357.711 2.132 1.513 2.132 2.238zm-5.335-3.057 2.76-8.443h8.546c-2.8722831 3.8490658-6.7997445 6.7819826-11.306 8.443zm10.72-39.2-2.879 9.317-6.437 1.894-9.069-6.373v-6.761l8.011-5.63c4.0623671 1.56243683 7.6407348 4.16877448 10.374 7.556zm-28.396-7.553 8.011 5.63v6.761l-9.069 6.376-6.437-1.894-2.879-9.318c2.7337186-3.38651386 6.3119743-5.99242494 10.374-7.555z" fill="#000" fill-rule="nonzero"/></g></g></svg>