<svg height="512" viewBox="0 0 60 60" width="512" xmlns="http://www.w3.org/2000/svg"><g id="Page-1" fill="none" fill-rule="evenodd"><g id="002---Game-Time"><path id="Path" d="m41 39c0 .23 0 .45-.02.68-.3618197 10.7735638-9.2003622 19.3201425-19.98 19.32-10.7802705.0017072-19.61972293-8.5457513-19.98-19.32-.02-.23-.02-.45-.02-.68-.00049452-6.420862 3.08181595-12.4515412 8.28613533-16.2121966 5.20431937-3.7606554 11.89775067-4.7939541 17.99386467-2.7778034 1.2378725 6.4377128 6.2722872 11.4721275 12.71 12.71.6686337 2.0262672 1.0095886 4.1462639 1.01 6.28z" fill="#f5f5f5"/><path id="Path" d="m39.99 32.72c-6.4377128-1.2378725-11.4721275-6.2722872-12.71-12.71-2.0249005-.6742242-4.1458088-1.0153257-6.28-1.01-.482 0-.957.029-1.43.063 1.6029797.1207036 3.1849362.4387742 4.71.947 1.2378725 6.4377128 6.2722872 11.4721275 12.71 12.71.6686337 2.0262672 1.0095886 4.1462639 1.01 6.28 0 .23 0 .45-.02.68-.3387316 10.1971467-8.3056356 18.5011784-18.48 19.262.5.036 1 .058 1.5.058 10.7802705.0017072 19.6197229-8.5457513 19.98-19.32.02-.23.02-.45.02-.68-.0004114-2.1337361-.3413663-4.2537328-1.01-6.28z" fill="#cfd8dc"/><path id="Path" d="m59 17c0 8.836556-7.163444 16-16 16-1.0097611-.0015913-2.017271-.0953132-3.01-.28-6.4377128-1.2378725-11.4721275-6.2722872-12.71-12.71-.1846868-.992729-.2784087-2.0002389-.28-3.01 0-8.836556 7.163444-16 16-16s16 7.163444 16 16z" fill="#00bcd4"/><path id="Path" d="m43 1c-.506 0-1.006.03-1.5.076 8.225987.76979956 14.5116736 7.67857671 14.5028539 15.9405-.0088196 8.2619233-6.3092421 15.1572647-14.5368539 15.9095.5.048 1.015.074 1.534.074 8.8365559-.0000002 15.9999997-7.1634441 15.9999997-16 0-8.83655587-7.1634438-15.99999981-15.9999997-16z" fill="#00838f"/><g fill="#607d8b"><path id="Path" d="m15.54 58.24c-4.6177092-1.3014282-8.60953321-4.2278188-11.24-8.24h8.47z"/><path id="Path" d="m28.61 36.35-2.91 8.65h-9.4l-2.91-8.65 7.61-5.35z"/><path id="Path" d="m27.39 20.51-6.39 4.49-6.83-4.8c4.2249752-1.532083 8.8424003-1.5990022 13.11-.19.03.17.07.33.11.5z"/><path id="Path" d="m7.69 34.67-6.67 5.01c-.02-.23-.02-.45-.02-.68-.0053105-4.4546415 1.48417567-8.7822503 4.23-12.29z"/><path id="Path" d="m41 39c0 .23 0 .45-.02.68l-6.67-5.01 1.11-3.58c1.4294598.7773224 2.9712736 1.3272472 4.57 1.63.6686337 2.0262672 1.0095886 4.1462639 1.01 6.28z"/><path id="Path" d="m37.7 50c-2.6304668 4.0121812-6.6222908 6.9385718-11.24 8.24l2.77-8.24z"/></g><path id="Path" d="m27.39 20.51-2.51 1.76c-.2514343-.7387298-.4519047-1.4938351-.6-2.26-1.5255726-.5068481-3.1072343-.8258669-4.71-.95.23-.02.47-.03.71-.04s.48-.02.72-.02c2.1341912-.0053257 4.2550995.3357758 6.28 1.01.03.17.07.33.11.5z" fill="#37474f"/><path id="Path" d="m41 39c0 .23 0 .45-.02.68l-3.05-2.29c-.1266393-1.5884902-.4421993-3.156219-.94-4.67-.6498399-.1220166-1.2911627-.2856875-1.92-.49l.35-1.14c.8946167.4822108 1.8319485.8805769 2.8 1.19.39.12.78.22 1.17.31.2.05.4.09.6.13.6686337 2.0262672 1.0095886 4.1462639 1.01 6.28z" fill="#37474f"/><path id="Path" d="m37.7 50c-2.6304668 4.0121812-6.6222908 6.9385718-11.24 8.24l.44-1.32c3.1693128-1.571697 5.8619073-3.9605116 7.8-6.92z" fill="#37474f"/><path id="Shape" d="m43 0c-9.3845001.01047101-16.989529 7.61549991-17 17 0 .548.031 1.088.082 1.622-8.0564333-2.0120396-16.54140577.9177069-21.64 7.472-2.89242223 3.6786822-4.45766369 8.2264099-4.442 12.906 0 .259 0 .508.021.712.30274504 9.1059066 6.44739355 16.9758082 15.208 19.478h.013l.022.007c3.7479521 1.0639757 7.7180479 1.0639757 11.466 0l.027-.009.015-.005c8.7394601-2.4970582 14.8763647-10.3385688 15.2-19.422.028-.253.028-.502.028-.761-.001829-1.7136298-.2130612-3.4206146-.629-5.083.537.052 1.079.083 1.629.083 9.3888407 0 17-7.6111593 17-17 0-9.38884075-7.6111593-17-17-17zm-5.859 49h-7.393l-2.938-4.164 2.583-7.677 4.718-1.388 5.836 4.384c-.182887 3.1362373-1.1475066 6.1768861-2.806 8.845zm-11.455 8.4c-3.0736321.7960092-6.2993679.7960092-9.373 0l-2.434-7.241 2.937-4.159h8.368l2.937 4.162zm-20.827-8.4c-1.65632968-2.6694765-2.62076386-5.7098845-2.806-8.846l5.836-4.383 4.718 1.388 2.583 7.677-2.938 4.164zm.022-20.033 1.646 5.326-4.472 3.359c.2094381-3.0841253 1.18041562-6.0681804 2.826-8.685zm16.119-8.967c1.5443769-.0016044 3.0831467.1857883 4.582.558l-4.582 3.22-4.571-3.213c1.4951052-.373064 3.030055-.562792 4.571-.565zm0 12.222 6.424 4.517-2.443 7.261h-7.962l-2.443-7.261zm12.514 1.64-4.727 1.391-6.787-4.772v-4.961l4.8-3.374c1.2608084 3.9262918 3.9014152 7.2628421 7.433 9.392zm-19.476-12.532 5.962 4.19v4.961l-6.787 4.772-4.726-1.391-2.141-6.93c2.04167103-2.4955394 4.6903719-4.4245595 7.692-5.602zm-7.758 29.67h5.771l1.895 5.636c-2.9947345-1.1931282-5.63393983-3.1334571-7.666-5.636zm21.774 5.635 1.895-5.635h5.772c-2.0322127 2.5025742-4.6718397 4.4426157-7.667 5.635zm11.892-18.982-4.472-3.36.559-1.8c1.0142428.4581173 2.0714155.8145278 3.156 1.064.4006525 1.3337138.6544899 2.7071852.757 4.096zm3.054-5.653c-8.2842712 0-15-6.7157288-15-15 0-8.28427125 6.7157288-15 15-15s15 6.71572875 15 15c-.0093685 8.2803876-6.7196124 14.9906315-15 15z" fill="#000" fill-rule="nonzero"/><path id="Path" d="m44 16.586v-11.586c0-.55228475-.4477153-1-1-1s-1 .44771525-1 1v12c.0000566.2651948.1054506.5195073.293.707l6 6c.3923789.3789722 1.0160848.3735524 1.4018186-.0121814s.3911536-1.0094397.0121814-1.4018186z" fill="#000"/></g></g></svg>