<svg height="512" viewBox="0 0 60 60" width="512" xmlns="http://www.w3.org/2000/svg"><g id="Page-1" fill="none" fill-rule="evenodd"><g id="003---Hand-Ball"><path id="Path" d="m41 39c0 .23 0 .45-.02.68-.3618197 10.7735638-9.2003622 19.3201425-19.98 19.32-10.7802705.0017072-19.61972293-8.5457513-19.98-19.32-.02-.23-.02-.45-.02-.68.00202046-6.5226862 3.18371051-12.6348505 8.52552569-16.377904 5.34181521-3.7430535 12.17296741-4.6469695 18.30447431-2.422096.8460012.3015622 1.6682898.6659096 2.46 1.09.1013995.3420999.2792093.6566864.52.92l8.19 9.02c.24.27.49.52.73.75v.01c.8423782 2.2410227 1.2726318 4.615887 1.27 7.01z" fill="#f5f5f5"/><path id="Path" d="m41 39c0 .23 0 .45-.02.68-.3618197 10.7735638-9.2003622 19.3201425-19.98 19.32-.5 0-1-.02-1.5-.06 1.3407588-.0949256 2.6679486-.3295298 3.96-.7 1.183611-.3369104 2.3348335-.7786586 3.44-1.32 6.577928-3.277133 10.8312686-9.8951467 11.08-17.24.02-.23.02-.45.02-.68 0-.54-.02-1.08-.07-1.61-.1444026-1.8474251-.5483729-3.6652915-1.2-5.4v-.01c-.24-.23-.49-.48-.73-.75l-.47-.52-7.72-8.5c-.2407907-.2633136-.4186005-.5779001-.52-.92-.19-.1-.38-.2-.58-.3l1.12-.79c.8460012.3015622 1.6682898.6659096 2.46 1.09.1013995.3420999.2792093.6566864.52.92l5.48 6.04 2.71 2.98c.24.27.49.52.73.75v.01c.8423782 2.2410227 1.2726318 4.615887 1.27 7.01z" fill="#cfd8dc"/><path id="Path" d="m59 10.5v16.5c.01 4.87-4.36 9.01-9.39 9.01-.14 0-.27 0-.41-.01-1.9352838.0487181-3.8555256-.3517601-5.61-1.17-1.438789-.7203012-2.744175-1.6807406-3.86-2.84v-.01c-.24-.23-.49-.48-.73-.75l-8.19-9.02c-.2407907-.2633136-.4186005-.5779001-.52-.92-.314642-1.0050731.0525285-2.0985148.91-2.71l.07-.05c1.0170404-.7326269 2.4155728-.6182015 3.3.27l4.43 4.43v-15.57c-.0111213-.70708703.2641739-1.38862042.7632792-1.88960912.4991052-.50098869 1.1795969-.77884886 1.8867208-.77039088 1.3218097.07944957 2.3523856 1.17580687 2.35 2.5v-4c0-1.38071187 1.1192881-2.5 2.5-2.5s2.5 1.11928813 2.5 2.5v4c0-1.38071187 1.1192881-2.5 2.5-2.5s2.5 1.11928813 2.5 2.5v3c0-1.38071187 1.1192881-2.5 2.5-2.5s2.5 1.11928813 2.5 2.5z" fill="#f44335"/><path id="Path" d="m58.27 8.73c-.8805218-.88315515-2.2791146-.97725008-3.27-.22.0946134.06665415.1841891.14018639.268.22.469303.46942615.7326545 1.10621854.732 1.77v16.5c-.168508 4.6104137-3.6796741 8.4062805-8.263 8.933.471.042.955.067 1.463.067.14.01.27.01.41.01 5.03 0 9.4-4.14 9.39-9.01v-16.5c.001185-.66349432-.2614303-1.30024633-.73-1.77z" fill="#c81e1e"/><g fill="#607d8b"><path id="Path" d="m15.54 58.24c-4.6177092-1.3014282-8.60953321-4.2278188-11.24-8.24h8.47z"/><path id="Path" d="m7.69 34.67-6.67 5.01c-.02-.23-.02-.45-.02-.68-.0053105-4.4546415 1.48417567-8.7822503 4.23-12.29z"/><path id="Path" d="m27.83 20.2-1.12.79c-.61-.29-1.24-.56-1.88-.79-1.7140947-.6275039-3.5087385-1.0079819-5.33-1.13.25-.02.5-.04.75-.05s.5-.02.75-.02c2.3294994-.0045244 4.6415544.4016931 6.83 1.2z"/><path id="Path" d="m20.25 19.02c-.244.008-.482.036-.723.053h-.027c.25-.023.5-.043.75-.053z"/><path id="Path" d="m26.71 20.99-5.71 4.01-6.83-4.8c1.7236287-.626258 3.5271431-1.0056795 5.357-1.127 1.8109645.1239164 3.5953017.5033405 5.3 1.127.643.23 1.273.5 1.883.79z"/><path id="Path" d="m28.61 36.35-2.91 8.65h-9.4l-2.91-8.65 7.61-5.35z"/><path id="Path" d="m41 39c0 .23 0 .45-.02.68l-6.67-5.01 1.98-6.42 2.71 2.98c.24.27.49.52.73.75v.01c.8423782 2.2410227 1.2726318 4.615887 1.27 7.01z"/><path id="Path" d="m37.7 50c-2.6304668 4.0121812-6.6222908 6.9385718-11.24 8.24l2.77-8.24z"/></g><path id="Path" d="m27.83 20.2-1.12.79c-.61-.29-1.24-.56-1.88-.79-1.7140947-.6275039-3.5087385-1.0079819-5.33-1.13.25-.02.5-.04.75-.05s.5-.02.75-.02c2.3294994-.0045244 4.6415544.4016931 6.83 1.2z" fill="#37474f"/><path id="Path" d="m41 39c0 .23 0 .45-.02.68l-3.05-2.29c-.1444026-1.8474251-.5483729-3.6652915-1.2-5.4v-.01c-.24-.23-.49-.48-.73-.75l-.47-.52.76-2.46 2.71 2.98c.24.27.49.52.73.75v.01c.8423782 2.2410227 1.2726318 4.615887 1.27 7.01z" fill="#37474f"/><path id="Path" d="m37.7 50c-2.6304668 4.0121812-6.6222908 6.9385718-11.24 8.24l.44-1.32c3.1693128-1.571697 5.8619073-3.9605116 7.8-6.92z" fill="#37474f"/><path id="Shape" d="m56.5 7c-.5253861.00309712-1.043159.12587155-1.514.359-.0365512-1.17596492-.6669915-2.25314689-1.6743952-2.86090272-1.0074038-.60775582-2.2542833-.66314063-3.3116048-.14709728v-.851c0-1.93299662-1.5670034-3.5-3.5-3.5s-3.5 1.56700338-3.5 3.5v.842c-.404306-.19318183-.8418368-.30723177-1.289-.336-.9404968-.05592478-1.861285.28547071-2.538.941-.7465253.70519257-1.1706189 1.6860672-1.173 2.713v13.153l-2.72-2.72c-1.2568635-1.2506191-3.2404691-1.3910589-4.661-.33-.6551804.4734699-1.1222711 1.162951-1.319 1.947-.379-.164-.757-.318-1.127-.449-8.5550193-3.1125005-18.1410925-.3523287-23.731 6.833-2.89242223 3.6786822-4.45766369 8.2264099-4.442 12.906 0 .259 0 .508.021.712.30274504 9.1059066 6.44739355 16.9758082 15.208 19.478h.013l.022.007c3.7479521 1.0639757 7.7180479 1.0639757 11.466 0l.027-.009.015-.005c8.7394601-2.4970582 14.8763647-10.3385688 15.2-19.422.028-.253.028-.502.028-.761-.0045538-1.4150019-.1526453-2.8258917-.442-4.211 2.2373783 1.5139751 4.893601 2.2873367 7.594 2.211.146.006.291.01.437.01 2.7241584-.0172592 5.3375544-1.0805176 7.3-2.97 1.9627874-1.8177232 3.0883951-4.3649035 3.111-7.04v-16.5c.0018633-.92882766-.3662873-1.82014935-1.023069-2.47693101-.6567816-.65678167-1.5481033-1.02493224-2.476931-1.02306899zm-17.659 25.488c.6076213 1.6596771.9779407 3.3968116 1.1 5.16l-4.467-3.356 1.257-4.076 1.533 1.684c.193.214.385.392.577.588zm-1.7 16.512h-7.393l-2.938-4.164 2.583-7.677 4.718-1.388 5.836 4.384c-.182887 3.1362373-1.1475066 6.1768861-2.806 8.845zm-11.455 8.4c-3.0736321.7960092-6.2993679.7960092-9.373 0l-2.434-7.241 2.937-4.159h8.368l2.937 4.162zm-20.827-8.4c-1.65632968-2.6694765-2.62076386-5.7098845-2.806-8.846l5.836-4.383 4.718 1.388 2.583 7.677-2.938 4.164zm.022-20.033 1.646 5.326-4.472 3.359c.2094381-3.0841253 1.18041562-6.0681804 2.826-8.685zm16.119-8.967c1.5406717.0022888 3.075321.1923569 4.57.566l-4.57 3.211-4.571-3.212c1.4951052-.373064 3.030055-.562792 4.571-.565zm0 12.222 6.424 4.517-2.443 7.261h-7.962l-2.443-7.261zm12.513 1.64-4.726 1.391-6.787-4.772v-4.961l5.964-4.191c.5297173.2071727 1.0487034.4407999 1.555.7.1394734.3129198.3255888.6028821.552.86l5.1 5.61zm-19.475-12.532 5.962 4.19v4.961l-6.787 4.772-4.726-1.391-2.141-6.93c2.04167103-2.4955394 4.6903719-4.4245595 7.692-5.602zm-7.758 29.67h5.771l1.895 5.636c-2.9947345-1.1931282-5.63393983-3.1334571-7.666-5.636zm21.774 5.635 1.895-5.635h5.772c-2.0322127 2.5025742-4.6718397 4.4426157-7.667 5.635zm29.946-29.635c-.0223221 2.1297378-.9225046 4.1558721-2.488 5.6-1.6870476 1.6298578-3.9682615 2.4972395-6.312 2.4-3.865 0-6.518-1.248-9.46-4.446l-8.189-9.012c-.1341839-.1489521-.2362993-.3239098-.3-.514 0-.016-.007-.032-.012-.048-.0555966-.1828283-.0739587-.3749505-.054-.565.0515824-.4398912.2964424-.8339399.668-1.075.6214878-.4469038 1.4755637-.3761193 2.015.167l4.427 4.427c.2861786.2844828.7152951.3690913 1.08804.2145279.3727449-.1545635.6160703-.5180086.61696-.9215279v-15.567c.0007117-.47706632.1978305-.93279042.545-1.26.2773601-.27378517.6567298-.41885963 1.046-.4.7942972.0447444 1.4139893.70445913 1.409 1.5v12.5c0 .5522847.4477153 1 1 1s1-.4477153 1-1v-16.5c0-.82842712.6715729-1.5 1.5-1.5s1.5.67157288 1.5 1.5v16.5c0 .5522847.4477153 1 1 1s1-.4477153 1-1v-12.5c0-.82842712.6715729-1.5 1.5-1.5s1.5.67157288 1.5 1.5v12.5c0 .5522847.4477153 1 1 1s1-.4477153 1-1v-9.5c0-.82842712.6715729-1.5 1.5-1.5s1.5.67157288 1.5 1.5z" fill="#000" fill-rule="nonzero"/></g></g></svg>