<svg height="512" viewBox="0 0 60 52" width="512" xmlns="http://www.w3.org/2000/svg"><g id="Page-1" fill="none" fill-rule="evenodd"><g id="005----Tickets" transform="translate(0 -1)"><path id="Path" d="m59 19v27.09c-.0042683.491063-.3644718.9063563-.85.98-2.0841018.3639331-3.7160669 1.9958982-4.08 4.08-.0736437.4855282-.488937.8457317-.98.85h-46.18c-.49106297-.0042683-.90635632-.3644718-.98-.85-.36393312-2.0841018-1.99589822-3.7160669-4.08-4.08-.48552823-.0736437-.84573165-.488937-.85-.98v-26.18c.00426835-.491063.36447177-.9063563.85-.98 2.08410178-.3639331 3.71606688-1.9958982 4.08-4.08.07364368-.4855282.48893703-.8457317.98-.85h46.18c.491063.0042683.9063563.3644718.98.85.4165123 2.3975548 2.4965356 4.1484872 4.93 4.15z" fill="#ffdf00"/><path id="Path" d="m54.07 14.85c-.0736437-.4855282-.488937-.8457317-.98-.85h-3c.491063.0042683.9063563.3644718.98.85.4165123 2.3975548 2.4965356 4.1484872 4.93 4.15v27.09c-.0042683.491063-.3644718.9063563-.85.98-2.0841018.3639331-3.7160669 1.9958982-4.08 4.08-.0736437.4855282-.488937.8457317-.98.85h3c.491063-.0042683.9063563-.3644718.98-.85.3639331-2.0841018 1.9958982-3.7160669 4.08-4.08.4855282-.0736437.8457317-.488937.85-.98v-27.09c-2.4334644-.0015128-4.5134877-1.7524452-4.93-4.15z" fill="#fec108"/><path id="Path" d="m51.5 14h-39.97l28.58-11.92c.4552135-.19530588.9847227-.02449646 1.24.4 1.3043088 2.05796514 3.9037022 2.87370974 6.15 1.93z" fill="#fec108"/><path id="Path" d="m39 46c7.007218.001214 12.7529228-5.5546927 12.987-12.558.013-.149.013-.292.013-.442 0-7.1797017-5.8202983-13-13-13s-13 5.8202983-13 13c0 .15 0 .292.013.442.2351057 7.0028507 5.9802038 12.5581708 12.987 12.558z" fill="#f5f5f5"/><path id="Path" d="m49.25 25.011c-2.7726297-3.5996701-7.2404627-5.4670342-11.75-4.911 1.0035937.110976 1.9904853.3405794 2.94.684 5.1333678 1.873227 8.5516977 6.7515352 8.56 12.216 0 .149 0 .292-.013.442-.1886011 5.6455705-4.0037552 10.5222413-9.438 12.064-.6707205.1899456-1.356086.3237407-2.049.4.4977754.060163.998608.0915485 1.5.094 7.007218.001214 12.7529228-5.5546927 12.987-12.558.013-.15.013-.293.013-.442.0037307-2.8957991-.9646534-5.709043-2.75-7.989z" fill="#cfd8dc"/><path id="Path" d="m35.45 45.51c-2.998678-.8561587-5.591787-2.7575355-7.31-5.36-.02-.04-.05-.07-.07-.11l.07-.04h5.51z" fill="#607d8b"/><path id="Path" d="m30.35 30.19-4.34 3.25c-.01-.15-.01-.29-.01-.44-.0013293-2.8957037.9667805-5.7085027 2.75-7.99z" fill="#607d8b"/><path id="Path" d="m43.44 20.78-4.44 3.12-4.44-3.12c2.8686498-1.0399935 6.0113502-1.0399935 8.88 0z" fill="#607d8b"/><path id="Path" d="m43.95 31.28-1.9 5.72h-6.11l-1.89-5.72 4.95-3.48z" fill="#607d8b"/><path id="Path" d="m52 33c0 .15 0 .29-.01.44l-4.34-3.25 1.6-5.18c1.7832195 2.2814973 2.7513293 5.0942963 2.75 7.99z" fill="#607d8b"/><path id="Path" d="m49.92 40.04c-.02.04-.05.07-.07.11-1.7122155 2.6039031-4.3028659 4.5060793-7.3 5.36l1.8-5.51h5.5z" fill="#607d8b"/><path id="Path" d="m52 33c0 .15 0 .29-.01.44l-3.14-2.35c-.119081-.8967282-.3439817-1.7761908-.67-2.62l1.07-3.46c1.7853514 2.2803391 2.7537224 5.093897 2.75 7.99z" fill="#37474f"/><path id="Path" d="m49.92 40.04c-.02.04-.05.07-.07.11-1.7122155 2.6039031-4.3028659 4.5060793-7.3 5.36l.53-1.61c1.5002106-.9786368 2.7833972-2.2550161 3.77-3.75.0336363-.0477263.0637174-.0978615.09-.15h2.91z" fill="#37474f"/><g fill="#000"><path id="Shape" d="m1.682 48.058c1.66659965.2881664 2.9718336 1.5934003 3.26 3.26.1557713.9672547.98928628 1.6792772 1.969 1.682h46.178c.9789455-.0047926 1.8113044-.7158274 1.969-1.682.2881664-1.6665997 1.5934003-2.9718336 3.26-3.26.9672547-.1557713 1.6792772-.9892863 1.682-1.969v-27.089c0-.5522847-.4477153-1-1-1-1.9484849.0055495-3.6155486-1.3980487-3.942-3.319-.1581323-.9657754-.9903756-1.6762888-1.969-1.681h-.923l-3.743-8.975c-.1022675-.24512581-.297851-.4394971-.5436079-.54023866s-.5214954-.09957633-.7663921.00323866c-1.7926428.75953157-3.8716156.1099848-4.913-1.535-.5087216-.84824737-1.5660351-1.1900053-2.475-.8l-28.395 11.847h-4.419c-.97971372.0027228-1.8132287.7147453-1.969 1.682-.2881664 1.6665997-1.59340035 2.9718336-3.26 3.26-.96725472.1557713-1.67927716.9892863-1.682 1.969v26.178c.00272284.9797137.71474528 1.8132287 1.682 1.969zm38.823-45.043c1.3609247 2.15848215 3.9425675 3.21428006 6.426 2.628l3.069 7.357h-33.469zm-38.485 16.899c2.50749998-.4349586 4.46780999-2.404487 4.891-4.914h11.089v1c0 .5522847.4477153 1 1 1s1-.4477153 1-1v-.994l33.087.014c.4263375 2.51274 2.3988826 4.4788612 4.913 4.897l-.02 26.169c-2.5083956.4376109-4.4710116 2.40463-4.903 4.914l-33.077-.014v-.986c0-.5522847-.4477153-1-1-1s-1 .4477153-1 1v.985l-11.087-.005c-.43483044-2.5071987-2.40387502-4.4674261-4.913-4.891z" fill-rule="nonzero"/><path id="Shape" d="m27.309 40.7c1.8332432 2.7970721 4.6124689 4.8404013 7.829 5.756h.013l.024.008c2.4986689.7090714 5.1453311.7090714 7.644 0l.029-.01.015-.005c5.8144205-1.6669448 9.8978682-6.8834282 10.12-12.928.017-.172.017-.343.017-.521 0-7.7319865-6.2680135-14-14-14s-14 6.2680135-14 14c0 .179 0 .351.014.473.0798185 2.5752452.8744388 5.0775199 2.295 7.227zm1.112-13.363.765 2.473-2.067 1.55c.1879635-1.4088337.6290556-2.7720861 1.302-4.024zm2.127 3.951 2.72.8 1.561 4.724-1.673 2.188h-4.543c-.8980776-1.5548716-1.4337138-3.2923566-1.567-5.083zm8.452-10.288c.7108009-.0003625 1.420238.0622152 2.12.187l-2.12 1.49-2.12-1.49c.6998278-.1242899 1.409221-.1868637 2.12-.187zm0 8.022 3.764 2.646-1.431 4.332h-4.666l-1.431-4.332zm5.732 3.065 2.72-.8 3.5 2.63c-.1314802 1.7905718-.6661459 3.5282355-1.564 5.083h-4.544l-1.673-2.189zm6.149-.727-2.067-1.551.765-2.474c.6727949 1.2523339 1.1138744 2.6158861 1.302 4.025zm-11.881 13.64c-.9330734-.0010958-1.8627844-.1118556-2.77-.33l-1.465-4.481 1.673-2.189h5.124l1.673 2.189-1.465 4.481c-.9071845.2183178-1.8369161.3290801-2.77.33zm-8.931-4h2.856l.929 2.839c-1.4387771-.683775-2.725819-1.6491414-3.785-2.839zm14.078 2.838.928-2.838h2.856c-1.0590012 1.1893711-2.3456834 2.1543827-3.784 2.838zm3.982-18.583-1.275 4.123-2.729.8-4.125-2.897v-2.861l3.554-2.5c1.7719418.7259004 3.3416948 1.8701903 4.575 3.335zm-13.683-3.333 3.554 2.498v2.861l-4.125 2.9-2.729-.8-1.275-4.124c1.2333325-1.4647804 2.8030777-2.6090647 4.575-3.335z" fill-rule="nonzero"/><path id="Path" d="m19 23c.5522847 0 1-.4477153 1-1v-2c0-.5522847-.4477153-1-1-1s-1 .4477153-1 1v2c0 .5522847.4477153 1 1 1z"/><path id="Path" d="m19 29c.5522847 0 1-.4477153 1-1v-2c0-.5522847-.4477153-1-1-1s-1 .4477153-1 1v2c0 .5522847.4477153 1 1 1z"/><path id="Path" d="m19 35c.5522847 0 1-.4477153 1-1v-2c0-.5522847-.4477153-1-1-1s-1 .4477153-1 1v2c0 .5522847.4477153 1 1 1z"/><path id="Path" d="m19 41c.5522847 0 1-.4477153 1-1v-2c0-.5522847-.4477153-1-1-1s-1 .4477153-1 1v2c0 .5522847.4477153 1 1 1z"/><path id="Path" d="m19 47c.5522847 0 1-.4477153 1-1v-2c0-.5522847-.4477153-1-1-1s-1 .4477153-1 1v2c0 .5522847.4477153 1 1 1z"/><path id="Path" d="m6 23h8c.5522847 0 1-.4477153 1-1s-.4477153-1-1-1h-8c-.55228475 0-1 .4477153-1 1s.44771525 1 1 1z"/><path id="Path" d="m6 27h8c.5522847 0 1-.4477153 1-1s-.4477153-1-1-1h-8c-.55228475 0-1 .4477153-1 1s.44771525 1 1 1z"/><path id="Path" d="m6 33h8c.5522847 0 1-.4477153 1-1s-.4477153-1-1-1h-8c-.55228475 0-1 .4477153-1 1s.44771525 1 1 1z"/><path id="Path" d="m6 37h8c.5522847 0 1-.4477153 1-1s-.4477153-1-1-1h-8c-.55228475 0-1 .4477153-1 1s.44771525 1 1 1z"/><path id="Path" d="m6 41h8c.5522847 0 1-.4477153 1-1s-.4477153-1-1-1h-8c-.55228475 0-1 .4477153-1 1s.44771525 1 1 1z"/><path id="Path" d="m6 45h8c.5522847 0 1-.4477153 1-1s-.4477153-1-1-1h-8c-.55228475 0-1 .4477153-1 1s.44771525 1 1 1z"/></g></g></g></svg>