<svg height="512" viewBox="0 0 60 42" width="512" xmlns="http://www.w3.org/2000/svg"><g id="Page-1" fill="none" fill-rule="evenodd"><g id="006---Pitch"><path id="Path" d="m59 6v30c-2.7614237 0-5 2.2385763-5 5h-48c0-1.3260824-.5267842-2.597852-1.46446609-3.5355339-.9376819-.9376819-2.20945146-1.4644661-3.53553391-1.4644661v-30c1.32608245 0 2.59785201-.5267842 3.53553391-1.46446609.93768189-.9376819 1.46446609-2.20945146 1.46446609-3.53553391h48c0 2.76142375 2.2385763 5 5 5z" fill="#60a917"/><path id="Path" d="m58 1h-3c.5522847 0 1 .44771525 1 1v38c0 .5522847-.4477153 1-1 1h3c.5522847 0 1-.4477153 1-1v-38c0-.55228475-.4477153-1-1-1z" fill="#549414"/><path id="Path" d="m1 16h3c.55228475 0 1 .4477153 1 1v8c0 .5522847-.44771525 1-1 1h-3z" fill="#f5f5f5"/><path id="Path" d="m55 16h3c.5522847 0 1 .4477153 1 1v8c0 .5522847-.4477153 1-1 1h-3z" fill="#cfd8dc" transform="matrix(-1 0 0 -1 114 42)"/><path id="Path" d="m6 1c0 1.32608245-.5267842 2.59785201-1.46446609 3.53553391-.9376819.93768189-2.20945146 1.46446609-3.53553391 1.46446609v-4c0-.55228475.44771525-1 1-1z" fill="#f5f5f5"/><path id="Path" d="m6 41h-4c-.55228475 0-1-.4477153-1-1v-4c1.32608245 0 2.59785201.5267842 3.53553391 1.4644661.93768189.9376819 1.46446609 2.2094515 1.46446609 3.5355339z" fill="#f5f5f5"/><path id="Path" d="m59 2v4c-2.7614237 0-5-2.23857625-5-5h4c.5522847 0 1 .44771525 1 1z" fill="#f5f5f5"/><path id="Path" d="m58 1h-3c.5522847 0 1 .44771525 1 1v2.976c.8607505.66089256 1.9147999 1.02067474 3 1.024v-4c0-.55228475-.4477153-1-1-1z" fill="#cfd8dc"/><path id="Path" d="m59 36v4c0 .5522847-.4477153 1-1 1h-4c0-2.7614237 2.2385763-5 5-5z" fill="#f5f5f5"/><path id="Path" d="m56 37.024v2.976c0 .5522847-.4477153 1-1 1h3c.5522847 0 1-.4477153 1-1v-4c-1.0852001.0033253-2.1392495.3631074-3 1.024z" fill="#cfd8dc"/><g fill="#000"><path id="Shape" d="m58 0h-56c-1.1045695 0-2 .8954305-2 2v38c0 1.1045695.8954305 2 2 2h56c1.1045695 0 2-.8954305 2-2v-38c0-1.1045695-.8954305-2-2-2zm-4.91 40h-22.09v-11.069c3.9989443-.5010019 6.9993763-3.9007943 6.9993763-7.931s-3.000432-7.4299981-6.9993763-7.931v-11.069h22.09c.4294053 2.5125124 2.3974876 4.48059468 4.91 4.91v2.09h-10c-1.1045695 0-2 .8954305-2 2v4.357c-2.3966239.8405507-4.0008712 3.1032497-4.0008712 5.643s1.6042473 4.8024493 4.0008712 5.643v4.357c0 1.1045695.8954305 2 2 2h10v2.09c-2.5126573.4291252-4.4808748 2.3973427-4.91 4.91zm-51.09-4.91v-2.09h10c1.1045695 0 2-.8954305 2-2v-4.357c2.3966239-.8405507 4.0008712-3.1032497 4.0008712-5.643s-1.6042473-4.8024493-4.0008712-5.643v-4.357c0-1.1045695-.8954305-2-2-2h-10v-2.09c2.5125124-.42940532 4.48059468-2.3974876 4.91-4.91h22.09v11.069c-3.9989443.5010019-6.9993763 3.9007943-6.9993763 7.931s3.000432 7.4299981 6.9993763 7.931v11.069h-22.09c-.42940532-2.5125124-2.3974876-4.4805947-4.91-4.91zm0-8.09h2c1.1045695 0 2-.8954305 2-2v-8c0-1.1045695-.8954305-2-2-2h-2v-4h10v20h-10zm0-10h2v8h-2zm12 .542c1.2375491.7116646 2.0004435 2.0304166 2.0004435 3.458s-.7628944 2.7463354-2.0004435 3.458zm16 6.458c-.5522847 0-1 .4477153-1 1v1.91c-2.8857455-.4853307-4.9990438-2.9837271-4.9990438-5.91s2.1132983-5.4246693 4.9990438-5.91v1.91c0 .5522847.4477153 1 1 1s1-.4477153 1-1v-1.91c2.8857455.4853307 4.9990438 2.9837271 4.9990438 5.91s-2.1132983 5.4246693-4.9990438 5.91v-1.91c0-.5522847-.4477153-1-1-1zm28-9h-2c-1.1045695 0-2 .8954305-2 2v8c0 1.1045695.8954305 2 2 2h2v4h-10v-20h10zm0 2v8h-2v-8zm-12 7.458c-1.2375491-.7116646-2.0004435-2.0304166-2.0004435-3.458s.7628944-2.7463354 2.0004435-3.458zm12-19.6c-1.4000796-.36455521-2.4934448-1.45792044-2.858-2.858h2.858zm-53.142-2.858c-.36589039 1.39931452-1.45868548 2.49210961-2.858 2.858v-2.858zm-2.858 35.142c1.39931452.3658904 2.49210961 1.4586855 2.858 2.858h-2.858zm53.142 2.858c.3647463-1.3999701 1.4580299-2.4932537 2.858-2.858v2.858z" fill-rule="nonzero"/><circle id="Oval" cx="30" cy="21" r="1"/><circle id="Oval" cx="9" cy="21" r="1"/><circle id="Oval" cx="51" cy="21" r="1"/></g></g></g></svg>