<svg height="512" viewBox="0 0 60 60" width="512" xmlns="http://www.w3.org/2000/svg"><g id="Page-1" fill="none" fill-rule="evenodd"><g id="007---Goal"><path id="Path" d="m59 6v29c.0035514.8339089-.5127089 1.5817704-1.2937125 1.8740888-.7810035.2923185-1.66143.067217-2.2062875-.5640888-.32543-.3582794-.5039504-.8260028-.5-1.31v-29c0-.55228475-.4477153-1-1-1h-48c-.55228475 0-1 .44771525-1 1v29c0 1.1045695-.8954305 2-2 2s-2-.8954305-2-2v-29c0-2.76142375 2.23857625-5 5-5h48c1.3260824 0 2.597852.5267842 3.5355339 1.46446609.9376819.9376819 1.4644661 2.20945146 1.4644661 3.53553391z" fill="#f5f5f5"/><path id="Path" d="m54 1h-3c2.7600532.00330612 4.9966939 2.23994685 5 5v29c-.0017539.4829522-.1795198.948699-.5 1.31.5448575.6313058 1.425284.8564073 2.2062875.5640888.7810036-.2923184 1.2972639-1.0401799 1.2937125-1.8740888v-29c-.0033061-2.76005315-2.2399468-4.99669388-5-5z" fill="#cfd8dc"/><path id="Path" d="m55 6v29l-5-5v-21l4.67-3.74c.2094794.18905916.329333.45782176.33.74z" fill="#607d8b"/><path id="Path" d="m54.67 5.26-2.67 2.14v24.6l3 3v-29c-.000667-.28217824-.1205206-.55094084-.33-.74z" fill="#37474f"/><path id="Rectangle" d="m10 9h40v21h-40z" fill="#00bcd4"/><path id="Rectangle" d="m47 9h3v21h-3z" fill="#00838f"/><path id="Path" d="m10 9v21l-5 5v-29c.00066696-.28217824.12052056-.55094084.33-.74z" fill="#607d8b"/><path id="Path" d="m54.67 5.26-4.67 3.74h-40l-4.67-3.74c.1833983-.16669758.42216417-.25935299.67-.26h48c.2478358.00064701.4866017.09330242.67.26z" fill="#607d8b"/><path id="Path" d="m54 5h-3c.2478358.00064701.4866017.09330242.67.26l-4.67 3.74h3l4.67-3.74c-.1833983-.16669758-.4221642-.25935299-.67-.26z" fill="#37474f"/><path id="Path" d="m15 41-11 11 4 2z" fill="#f44335"/><path id="Path" d="m45 41 11 11-4 2z" fill="#f44335"/><path id="Path" d="m30 43c7.007218.001214 12.7529228-5.5546927 12.987-12.558.013-.149.013-.292.013-.442 0-7.1797017-5.8202983-13-13-13s-13 5.8202983-13 13c0 .15 0 .292.013.442.2351057 7.0028507 5.9802038 12.5581708 12.987 12.558z" fill="#f5f5f5"/><path id="Path" d="m40.25 22.011c-2.7726297-3.5996701-7.2404627-5.4670342-11.75-4.911 1.0035937.110976 1.9904853.3405794 2.94.684 5.1333678 1.873227 8.5516977 6.7515352 8.56 12.216 0 .149 0 .292-.013.442-.1886011 5.6455705-4.0037552 10.5222413-9.438 12.064-.6707205.1899456-1.356086.3237407-2.049.4.4977754.060163.998608.0915485 1.5.094 7.007218.001214 12.7529228-5.5546927 12.987-12.558.013-.15.013-.293.013-.442.0037307-2.8957991-.9646534-5.709043-2.75-7.989z" fill="#cfd8dc"/><g fill="#607d8b"><path id="Path" d="m26.45 42.51c-2.998678-.8561587-5.591787-2.7575355-7.31-5.36-.02-.04-.05-.07-.07-.11l.07-.04h5.51z"/><path id="Path" d="m21.35 27.19-4.34 3.25c-.01-.15-.01-.29-.01-.44-.0013293-2.8957037.9667805-5.7085027 2.75-7.99z"/><path id="Path" d="m34.44 17.78-4.44 3.12-4.44-3.12c2.8686498-1.0399935 6.0113502-1.0399935 8.88 0z"/><path id="Path" d="m34.95 28.28-1.9 5.72h-6.11l-1.89-5.72 4.95-3.48z"/><path id="Path" d="m43 30c0 .15 0 .29-.01.44l-4.34-3.25 1.6-5.18c1.7832195 2.2814973 2.7513293 5.0942963 2.75 7.99z"/><path id="Path" d="m40.92 37.04c-.02.04-.05.07-.07.11-1.7122155 2.6039031-4.3028659 4.5060793-7.3 5.36l1.8-5.51h5.5z"/></g><path id="Path" d="m43 30c0 .15 0 .29-.01.44l-3.14-2.35c-.119081-.8967282-.3439817-1.7761908-.67-2.62l1.07-3.46c1.7853514 2.2803391 2.7537224 5.093897 2.75 7.99z" fill="#37474f"/><path id="Path" d="m40.92 37.04c-.02.04-.05.07-.07.11-1.7122155 2.6039031-4.3028659 4.5060793-7.3 5.36l.53-1.61c1.5002106-.9786368 2.7833972-2.2550161 3.77-3.75.0336363-.0477263.0637174-.0978615.09-.15h2.91z" fill="#37474f"/><path id="Shape" d="m54 0h-48c-3.31233757.00330738-5.99669262 2.68766243-6 6v29c-.00238629 1.5656352 1.20186991 2.8687452 2.76283342 2.9896261 1.56096352.1208809 2.95148451-.9812896 3.19016658-2.5286261l4.461-4.461h5.634c.4083481 5.8608676 4.4414577 10.8392997 10.09 12.455h.013l.024.008c2.4986689.7090714 5.1453311.7090714 7.644 0l.03-.01h.013c5.6473794-1.6162225 9.6799792-6.593226 10.09-12.453h5.634l4.461 4.461c.2386821 1.5473365 1.6292031 2.649507 3.1901666 2.5286261s2.7652197-1.4239909 2.7628334-2.9896261v-29c-.0033074-3.31233757-2.6876624-5.99669262-6-6zm-13.612 36h-4.544l-1.673-2.19 1.561-4.723 2.72-.8 3.5 2.63c-.1314802 1.7905718-.6661459 3.5282355-1.564 5.083zm-10.388 6c-.9330734-.0010958-1.8627844-.1118556-2.77-.33l-1.466-4.48 1.674-2.19h5.124l1.674 2.19-1.466 4.48c-.907173.2183819-1.8369122.329145-2.77.33zm-10.388-6c-.897189-1.5551908-1.4324431-3.292545-1.566-5.083l3.5-2.63 2.72.8 1.561 4.723-1.671 2.19zm10.388-18c.710777.0001827 1.4201661.0627561 2.12.187l-2.12 1.49-2.12-1.49c.6998278-.1242899 1.409221-.1868637 2.12-.187zm10.579 6.335c.6720989 1.2524691 1.1124988 2.6160148 1.3 4.025l-2.067-1.551zm-2.724 2.042-2.73.8-4.125-2.896v-2.861l3.554-2.5c1.7718687.7250851 3.341657 1.8687145 4.575 3.333zm-7.855 6.623h-2.332l-1.432-4.332 3.764-2.646 3.764 2.646-1.432 4.332zm-4.554-14.078 3.554 2.498v2.861l-4.125 2.9-2.73-.8-1.275-4.127c1.2340396-1.4637294 2.804089-2.606956 4.576-3.332zm-6.025 5.414.765 2.473-2.066 1.551c.1871556-1.4088814.627936-2.7722177 1.301-4.024zm21.62-2.936c-3.5596161-4.5715921-9.568347-6.4768106-15.1118427-4.7915879-5.5434958 1.6852227-9.4751987 6.6123331-9.8881573 12.3915879h-5.041v-19h38v19h-5.041c-.1878311-2.7687852-1.2045897-5.4169569-2.918-7.6zm9.959-11.92 3-2.4v25.506l-3-3zm-1.351-1.48h-39.3l-2.5-2h44.297zm-43.649-.923 3 2.4v20.109l-3 3zm15.069 30.923h2.857l.928 2.839c-1.4389745-.6834484-2.7260773-1.6488605-3.785-2.839zm14.077 2.839.928-2.839h2.858c-1.0596212 1.1898055-2.3469771 2.1551525-3.786 2.839zm22.854-5.839c0 .5522847-.4477153 1-1 1s-1-.4477153-1-1v-29c0-1.1045695-.8954305-2-2-2h-48c-1.1045695 0-2 .8954305-2 2v29c0 .5522847-.44771525 1-1 1s-1-.4477153-1-1v-29c0-2.209139 1.790861-4 4-4h48c2.209139 0 4 1.790861 4 4z" fill="#000" fill-rule="nonzero"/><path id="Path" d="m31 59v-12c0-.5522847-.4477153-1-1-1s-1 .4477153-1 1v12c0 .5522847.4477153 1 1 1s1-.4477153 1-1z" fill="#000"/><path id="Path" d="m27 56v-9c0-.5522847-.4477153-1-1-1s-1 .4477153-1 1v9c0 .5522847.4477153 1 1 1s1-.4477153 1-1z" fill="#000"/><path id="Path" d="m35 56v-9c0-.5522847-.4477153-1-1-1s-1 .4477153-1 1v9c0 .5522847.4477153 1 1 1s1-.4477153 1-1z" fill="#000"/><path id="Shape" d="m3.553 52.9 4 2c.48368352.241817 1.07197793.055317 1.328-.421l7-13c.2356128-.4370092.114926-.9807086-.2834574-1.2769874s-.9538149-.2554105-1.3045426.0959874l-11 11c-.22663616.2273151-.33037509.5496081-.27888918.8664445.05148592.3168364.25193754.5896984.53888918.7335555zm7.337-6.37-3.311 6.142-1.891-.946z" fill="#000" fill-rule="nonzero"/><path id="Shape" d="m52 55c.1543931.001545.307047-.0326823.446-.1l4-2c.2869516-.1438571.4874033-.4167191.5388892-.7335555s-.052253-.6391294-.2788892-.8664445l-11-11c-.3507277-.3513979-.9061592-.3922662-1.3045426-.0959874s-.5190702.8399782-.2834574 1.2769874l7 13c.1765037.3217261.5150429.5209345.882.519zm2.311-3.274-1.891.946-3.31-6.147z" fill="#000" fill-rule="nonzero"/></g></g></svg>