<svg height="512" viewBox="0 0 60 60" width="512" xmlns="http://www.w3.org/2000/svg"><g id="Page-1" fill="none" fill-rule="evenodd"><g id="008---Calendar"><path id="Path" d="m59 13v36l-10 10h-44c-2.209139 0-4-1.790861-4-4v-42z" fill="#f5f5f5"/><path id="Path" d="m30 53c9.1631877.0013468 16.6766616-7.2639343 16.983-16.422.017-.195.017-.378.017-.578 0-9.3888407-7.6111593-17-17-17s-17 7.6111593-17 17c0 .2 0 .383.017.578.3073668 9.1576091 7.8202341 16.4223036 16.983 16.422z" fill="#f5f5f5"/><path id="Path" d="m43.4 25.553c-3.2148834-4.1366389-8.1609876-6.5554315-13.4-6.553-.506 0-1.006.023-1.5.066 1.4709017.1260417 2.9185539.4468455 4.305.954 6.7154345 2.449468 11.1866555 8.8317915 11.195 15.98 0 .2 0 .383-.017.578-.2465598 7.3826954-5.235637 13.7599179-12.342 15.776-1.0261441.2915345-2.0780136.4834228-3.141.573.5.043.994.073 1.5.073 9.1631877.0013468 16.6766616-7.2639343 16.983-16.422.017-.195.017-.378.017-.578.0035739-3.787188-1.2641244-7.4659782-3.6-10.447z" fill="#cfd8dc"/><path id="Path" d="m47 36c.0033266.1935488-.0033489.3871401-.02.58l-5.67-4.26 2.09-6.77c2.3381691 2.9809285 3.6061081 6.6614736 3.6 10.45z" fill="#607d8b"/><path id="Path" d="m43.74 46c-2.2298815 3.0828867-5.4370247 5.3208383-9.1 6.35l2.36-6.35z" fill="#607d8b"/><path id="Path" d="m56 13v36l-10 10h3l10-10v-36z" fill="#cfd8dc"/><path id="Path" d="m18 5h-13c-2.209139 0-4 1.790861-4 4v4h58v-4c0-2.209139-1.790861-4-4-4z" fill="#f44335"/><path id="Path" d="m55 5h-3c2.209139 0 4 1.790861 4 4v4h3v-4c0-2.209139-1.790861-4-4-4z" fill="#c81e1e"/><g fill="#9e9e9e"><rect id="Rectangle" height="8" rx="2" width="4" x="8" y="1"/><rect id="Rectangle" height="8" rx="2" width="4" x="18" y="1"/><rect id="Rectangle" height="8" rx="2" width="4" x="28" y="1"/><rect id="Rectangle" height="8" rx="2" width="4" x="38" y="1"/><rect id="Rectangle" height="8" rx="2" width="4" x="48" y="1"/></g><path id="Path" d="m59 49v6c0 2.209139-1.790861 4-4 4h-6z" fill="#cfd8dc"/><path id="Path" d="m25.36 52.35c-3.6645646-1.0315232-6.8741768-3.2687392-9.11-6.35h6.75z" fill="#607d8b"/><path id="Path" d="m18.69 32.32-5.67 4.26c-.0166511-.1928599-.0233266-.3864512-.02-.58-.0061081-3.7885264 1.2618309-7.4690715 3.6-10.45z" fill="#607d8b"/><path id="Path" d="m35.81 20.02-5.81 4.08-5.81-4.08c3.7539513-1.3600091 7.8660487-1.3600091 11.62 0z" fill="#607d8b"/><path id="Path" d="m36.47 33.75-2.48 7.25h-7.99l-2.47-7.25 6.47-4.55z" fill="#607d8b"/><path id="Path" d="m47 36c.0033266.1935488-.0033489.3871401-.02.58l-3.07-2.31c-.1888168-1.8958968-.6994652-3.7457292-1.51-5.47l1-3.25c.14.18.28.37.41.55s.26.37.39.56c1.8312501 2.7703641 2.8051756 6.0191014 2.8 9.34z" fill="#37474f"/><path id="Path" d="m43.74 46c-.14.2-.29.39-.43.58-.06.07-.12.14-.17.2-.24.29-.49.57-.74.85-2.1070433 2.2525265-4.7908013 3.8849154-7.76 4.72l.53-1.43c2.2002531-1.2081692 4.1058256-2.8883513 5.58-4.92z" fill="#37474f"/><path id="Shape" d="m5 60h50c2.7600532-.0033061 4.9966939-2.2399468 5-5v-46c-.0033061-2.76005315-2.2399468-4.99669388-5-5h-2v-1c-.0000001-1.6568542-1.3431458-2.99999987-3-2.99999987s-2.9999999 1.34314567-3 2.99999987v1h-4v-1c0-1.65685425-1.3431458-3-3-3s-3 1.34314575-3 3v1h-4v-1c0-1.65685425-1.3431458-3-3-3s-3 1.34314575-3 3v1h-4v-1c0-1.65685425-1.3431458-3-3-3s-3 1.34314575-3 3v1h-4v-1c0-1.65685425-1.3431458-3-3-3-1.65685425 0-3 1.34314575-3 3v1h-2c-2.76005315.00330612-4.99669388 2.23994685-5 5v46c.00330612 2.7600532 2.23994685 4.9966939 5 5zm-3-5v-41h56v34.586l-9.414 9.414h-43.586c-1.65685425 0-3-1.3431458-3-3zm53 3h-3.586l6.586-6.586v3.586c0 1.6568542-1.3431458 3-3 3zm-6-55c0-.55228475.4477153-1 1-1s1 .44771525 1 1v4c0 .55228475-.4477153 1-1 1s-1-.44771525-1-1zm-10 0c0-.55228475.4477153-1 1-1s1 .44771525 1 1v4c0 .55228475-.4477153 1-1 1s-1-.44771525-1-1zm-10 0c0-.55228475.4477153-1 1-1s1 .44771525 1 1v4c0 .55228475-.4477153 1-1 1s-1-.44771525-1-1zm-10 0c0-.55228475.4477153-1 1-1s1 .44771525 1 1v4c0 .55228475-.4477153 1-1 1s-1-.44771525-1-1zm-10 0c0-.55228475.44771525-1 1-1 .5522847 0 1 .44771525 1 1v4c0 .55228475-.4477153 1-1 1-.55228475 0-1-.44771525-1-1zm-7 6c0-1.65685425 1.34314575-3 3-3h2v1c0 1.65685425 1.34314575 3 3 3 1.6568542 0 3-1.34314575 3-3v-1h4v1c0 1.65685425 1.3431458 3 3 3s3-1.34314575 3-3v-1h4v1c0 1.65685425 1.3431458 3 3 3s3-1.34314575 3-3v-1h4v1c0 1.65685425 1.3431458 3 3 3s3-1.34314575 3-3v-1h4v1c.0000001 1.6568542 1.3431458 2.99999987 3 2.99999987s2.9999999-1.34314567 3-2.99999987v-1h2c1.6568542 0 3 1.34314575 3 3v3h-56z" fill="#000" fill-rule="nonzero"/><path id="Shape" d="m44.194 24.941c-4.7250645-6.05886-12.7750964-8.4504637-20.0418032-5.9542685-7.2667069 2.4961953-12.1477832 9.3297798-12.1521968 17.0132685 0 .224 0 .438.018.61.1035221 3.3103408 1.1252221 6.5267396 2.951 9.29.136.207.29.4.434.6.0426996.0811118.0965568.1558386.16.222 3.3868222 4.5815652 8.7472983 7.283547 14.44478 7.2809827 5.6974817-.0025644 11.0555234-2.7093706 14.43822-7.2939827l.01-.013c.193-.263.393-.52.573-.794 1.8193711-2.746959 2.8406079-5.944988 2.95-9.238.021-.226.021-.44.021-.664.0142804-4.0099784-1.3269355-7.9071164-3.806-11.059zm-.449 2.9c1.2258098 2.0392804 1.9729 4.3301291 2.185 6.7l-3.453-2.594zm-1.456-2.06-1.772 5.734-3.871 1.135-5.646-3.969v-4.061l4.937-3.47c2.4724899.9840919 4.6570961 2.5754289 6.352 4.627zm-8.405 25.732c-2.5485409.6500005-5.2194591.6500005-7.768 0l-2.009-5.405 2.462-4.108h6.862l2.462 4.107zm-.605-11.513h-6.558l-2-5.866 5.279-3.712 5.28 3.712zm-3.279-20c1.1845488.0021694 2.3651671.1363306 3.52.4l-3.52 2.478-3.521-2.478c1.1552549-.2631797 2.3361497-.3973342 3.521-.4zm-5.937 1.15 4.937 3.47v4.061l-5.646 3.969-3.871-1.139-1.772-5.735c1.6953202-2.0508898 3.8798284-3.6418115 6.352-4.626zm-7.808 6.687 1.268 4.105-3.453 2.594c.2119397-2.3695902.9590467-4.6601487 2.185-6.699zm-2.2 9.216 4.836-3.632 3.865 1.137 2.157 6.324-2.474 4.118h-5.655c-.047-.069-.1-.132-.145-.2-1.5228923-2.3128208-2.4153413-4.9832736-2.589-7.747zm4.326 9.947h3.924l1.369 3.684c-1.9979397-.8526825-3.7994854-2.1065828-5.293-3.684zm17.945 3.684 1.374-3.684h3.924c-1.4951432 1.5777832-3.298396 2.8316872-5.298 3.684zm7.033-5.884c-.045.069-.1.131-.143.2h-5.655l-2.469-4.118 2.157-6.324 3.865-1.137 4.837 3.632c-.1732712 2.7642553-1.0668692 5.4350514-2.592 7.747z" fill="#000" fill-rule="nonzero"/></g></g></svg>