<svg height="512" viewBox="0 0 60 44" width="512" xmlns="http://www.w3.org/2000/svg"><g id="Page-1" fill="none" fill-rule="evenodd"><g id="009---Flying-Ball"><circle id="Oval" cx="4" cy="4" fill="#ffdf00" r="3"/><path id="Path" d="m59 22c0-11.5979797-9.4020203-21-21-21h-24c-.8335376.00053413-1.6292764.34783504-2.1964581.95864609-.5671816.61081104-.8546682 1.43006048-.7935419 2.26135391.1715475 1.60668598 1.5445519 2.81458225 3.16 2.78h.66c1.6154481-.03458225 2.9884525 1.17331402 3.16 2.78.0611263.8312934-.2263603 1.6505429-.7935419 2.2613539-.5671817.6108111-1.3629205.958112-2.1964581.9586461h-11c-.83353759.0005341-1.62927638.347835-2.19645806.9586461-.56718168.610811-.85466821 1.4300605-.79354194 2.2613539.17154754 1.606686 1.54455193 2.8145822 3.16 2.78h8.83c1.2496477-.0006584 2.3672525.7776735 2.8 1.95.4067911 1.0519412.1777401 2.2437831-.59 3.07-.5666155.6221659-1.3684904.9777484-2.21.98h-5c-.83353759.0005341-1.62927638.347835-2.19645806.9586461-.56718168.610811-.85466821 1.4300605-.79354194 2.2613539.17154754 1.606686 1.54455193 2.8145822 3.16 2.78h4.66c1.6157995-.0355451 2.9893627 1.1728428 3.16 2.78.0596056.8309234-.2283981 1.6493045-.7952537 2.2597644s-1.3616902.9582124-2.1947463.9602356h-.17c-.8335376.0005341-1.6292764.347835-2.1964581.9586461-.5671816.610811-.85466817 1.4300605-.7935419 2.2613539.1715475 1.606686 1.5445519 2.8145822 3.16 2.78h25c11.5979797 0 21-9.4020203 21-21z" fill="#ffdf00"/><path id="Path" d="m38 1h-3c11.5979797 0 21 9.4020203 21 21s-9.4020203 21-21 21h3c11.5979797 0 21-9.4020203 21-21s-9.4020203-21-21-21z" fill="#fec108"/><path id="Path" d="m38 39c9.1631877.0013468 16.6766616-7.2639343 16.983-16.422.017-.195.017-.378.017-.578 0-9.3888407-7.6111593-17-17-17s-17 7.6111593-17 17c0 .2 0 .383.017.578.3073668 9.1576091 7.8202341 16.4223036 16.983 16.422z" fill="#f5f5f5"/><path id="Path" d="m51.4 11.553c-3.2148834-4.13663888-8.1609876-6.55543152-13.4-6.553-.506 0-1.006.023-1.5.066 1.4709017.1260417 2.9185539.44684546 4.305.954 6.7154345 2.44946804 11.1866555 8.8317915 11.195 15.98 0 .2 0 .383-.017.578-.2465598 7.3826954-5.235637 13.7599179-12.342 15.776-1.0261441.2915345-2.0780136.4834228-3.141.573.495.043.994.073 1.5.073 9.1631877.0013468 16.6766616-7.2639343 16.983-16.422.017-.195.017-.378.017-.578.0035739-3.787188-1.2641244-7.4659782-3.6-10.447z" fill="#cfd8dc"/><g fill="#607d8b"><path id="Path" d="m55 22c.0033266.1935488-.0033489.3871401-.02.58l-5.67-4.26 2.09-6.77c2.3381691 2.9809285 3.6061081 6.6614736 3.6 10.45z"/><path id="Path" d="m51.74 32c-2.2298815 3.0828867-5.4370247 5.3208383-9.1 6.35l2.36-6.35z"/><path id="Path" d="m33.36 38.35c-3.6645646-1.0315232-6.8741768-3.2687392-9.11-6.35h6.75z"/><path id="Path" d="m26.69 18.32-5.67 4.26c-.0166511-.1928599-.0233266-.3864512-.02-.58-.0061081-3.7885264 1.2618309-7.4690715 3.6-10.45z"/><path id="Path" d="m43.81 6.02-5.81 4.08-5.81-4.08c3.7539513-1.36000915 7.8660487-1.36000915 11.62 0z"/><path id="Path" d="m44.47 19.75-2.48 7.25h-7.99l-2.47-7.25 6.47-4.55z"/></g><path id="Path" d="m55 22c.0033266.1935488-.0033489.3871401-.02.58l-3.07-2.31c-.1888168-1.8958968-.6994652-3.7457292-1.51-5.47l1-3.25c.14.18.28.37.41.55s.26.37.39.56c1.8312501 2.7703641 2.8051756 6.0191014 2.8 9.34z" fill="#37474f"/><path id="Path" d="m51.74 32c-.14.2-.29.39-.43.58-.06.07-.12.14-.17.2-.24.29-.49.57-.74.85-2.1070433 2.2525265-4.7908013 3.8849154-7.76 4.72l.53-1.43c2.2002531-1.2081692 4.1058256-2.8883513 5.58-4.92z" fill="#37474f"/><path id="Shape" d="m4 8c2.209139 0 4-1.790861 4-4s-1.790861-4-4-4-4 1.790861-4 4 1.790861 4 4 4zm0-6c1.1045695 0 2 .8954305 2 2s-.8954305 2-2 2-2-.8954305-2-2 .8954305-2 2-2z" fill="#000" fill-rule="nonzero"/><path id="Shape" d="m38 0h-24c-1.1151808.00283315-2.1790224.46901091-2.937 1.287-.7564106.80783563-1.13788634 1.89672935-1.051 3 .2020012 2.13445469 2.0143788 3.75286686 4.158 3.713h.66c1.0908478-.02917534 2.0261501.77337711 2.163 1.856.0451976.551225-.1443575 1.0959234-.522 1.5-.3798508.4093121-.9125907.6425443-1.471.644h-11c-1.1151808.0028331-2.17902237.4690109-2.937 1.287-.75641058.8078356-1.13788634 1.8967293-1.051 3 .20200123 2.1344547 2.01437878 3.7528669 4.158 3.713h8.83c.8412943.0043649 1.589912.5347524 1.873 1.327.2616989.6939649.1066219 1.4763287-.4 2.018-.3779582.4144936-.9120648.6519952-1.473.655h-5c-1.1151808.0028331-2.17902237.4690109-2.937 1.287-.75641058.8078356-1.13788634 1.8967293-1.051 3 .20200123 2.1344547 2.01437878 3.7528669 4.158 3.713h4.66c1.0923539-.0344462 2.0305532.7701583 2.163 1.855.0380808.5519214-.1541556 1.0949621-.531 1.5-.3747131.4113518-.905565.6455512-1.462.645h-.17c-1.1151808.0028331-2.1790224.4690109-2.937 1.287-.75641058.8078356-1.13788634 1.8967293-1.051 3 .20200123 2.1344547 2.0143788 3.7528669 4.158 3.713h25c12.1502645 0 22-9.8497355 22-22s-9.8497355-22-22-22zm0 42h-25c-1.0908478.0291753-2.0261501-.7733771-2.163-1.856-.0451976-.551225.1443575-1.0959234.522-1.5.3798508-.4093121.9125907-.6425443 1.471-.644h.17c1.1074355-.0005197 2.1650968-.4601355 2.9210917-1.2693854.7559949-.80925 1.1426603-1.8957047 1.0679083-3.0006146-.1936885-2.1415956-2.0090298-3.7696847-4.159-3.73h-4.66c-1.09084784.0291753-2.02615008-.7733771-2.163-1.856-.04519757-.551225.14435748-1.0959234.522-1.5.3798508-.4093121.91259071-.6425443 1.471-.644h5c1.1198018-.003264 2.1872278-.4746138 2.944-1.3 1.0246088-1.0920556 1.335301-2.6734789.8-4.072-.5704249-1.5767443-2.0672452-2.6273969-3.744-2.628h-8.83c-1.09084784.0291753-2.02615008-.7733771-2.163-1.856-.04519757-.551225.14435748-1.0959234.522-1.5.3798508-.4093121.91259071-.6425443 1.471-.644h11c1.115655-.0029347 2.1798888-.4694878 2.938-1.288.7562646-.8078717 1.1374049-1.896844 1.05-3-.2024902-2.13405753-2.0147289-3.75190983-4.158-3.712h-.66c-1.0908478.02917534-2.0261501-.77337711-2.163-1.856-.0451976-.55122496.1443575-1.09592339.522-1.5.3798508-.40931214.9125907-.6425443 1.471-.644h24c11.045695 0 20 8.954305 20 20s-8.954305 20-20 20z" fill="#000" fill-rule="nonzero"/><path id="Shape" d="m44.149 5.081c-5.5183795-2.00036417-11.6653494-1.1861727-16.4726611 2.1818718s-7.671829 8.8673795-7.6763389 14.7371282c0 .224 0 .438.018.61.1035221 3.3103408 1.1252221 6.5267396 2.951 9.29.136.207.29.4.434.6.0426996.0811118.0965568.1558386.16.222 3.3868222 4.5815652 8.7472983 7.283547 14.44478 7.2809827 5.6974817-.0025644 11.0555234-2.7093706 14.43822-7.2939827l.01-.013c.193-.263.393-.52.573-.794 1.8193711-2.746959 2.8406079-5.944988 2.95-9.238.021-.226.021-.44.021-.664-.0092114-7.5675676-4.7421007-14.32444503-11.851-16.919zm9.781 15.455-3.453-2.594 1.268-4.105c1.2256666 2.0389822 1.9727516 4.3294731 2.185 6.699zm-3.641-8.759-1.772 5.734-3.871 1.139-5.646-3.969v-4.061l4.937-3.47c2.4724899.98409186 4.6570961 2.57542888 6.352 4.627zm-8.405 25.736c-2.5485409.6500005-5.2194591.6500005-7.768 0l-2.009-5.405 2.462-4.108h6.862l2.462 4.107zm-.605-11.513h-6.558l-2-5.866 5.279-3.712 5.28 3.712zm-3.279-20c1.1845488.00216937 2.3651671.13633055 3.52.4l-3.52 2.478-3.521-2.478c1.1552549-.26317968 2.3361497-.39733416 3.521-.4zm-5.937 1.15 4.937 3.47v4.061l-5.646 3.969-3.871-1.139-1.772-5.735c1.6953202-2.05088981 3.8798284-3.64181152 6.352-4.626zm-7.808 6.687 1.268 4.105-3.453 2.594c.2124198-2.3694918.9594926-4.6599451 2.185-6.699zm-2.2 9.216 4.836-3.632 3.865 1.137 2.157 6.324-2.474 4.118h-5.655c-.047-.069-.1-.132-.145-.2-1.5228923-2.3128208-2.4153413-4.9832736-2.589-7.747zm4.326 9.947h3.924l1.369 3.684c-1.9979397-.8526825-3.7994854-2.1065828-5.293-3.684zm17.945 3.684 1.374-3.684h3.924c-1.4951432 1.5777832-3.298396 2.8316872-5.298 3.684zm7.033-5.884c-.045.069-.1.131-.143.2h-5.655l-2.469-4.118 2.157-6.324 3.865-1.137 4.837 3.632c-.1732712 2.7642553-1.0668692 5.4350514-2.592 7.747z" fill="#000" fill-rule="nonzero"/></g></g></svg>