<svg id="Capa_1" enable-background="new 0 0 512 512" height="512" viewBox="0 0 512 512" width="512" xmlns="http://www.w3.org/2000/svg"><g id="Page-1"><g id="_x30_12---Medal"><g clip-rule="evenodd" fill-rule="evenodd"><path id="Path" d="m432.262 8.393-41.967 67.148h-268.59l-41.967-67.148z" fill="#0377bc"/><path id="Path_1_" d="m201.527 203.205c-19.555 7.582-37.329 19.127-52.207 33.91l-105.087-168.037c-3.882-6.14-3.338-14.086 1.343-19.641l34.162-41.044 41.967 67.148z" fill="#02a9f4"/><path id="Path_2_" d="m121.705 75.541-41.967-67.148-14.378 17.283 31.165 49.865 79.822 127.664c-12.76 5.016-24.782 11.735-35.739 19.976l8.712 13.933c14.878-14.782 32.653-26.327 52.207-33.91z" fill="#0377bc"/><path id="Path_3_" d="m467.767 69.078-105.086 168.037c-14.878-14.782-32.653-26.327-52.207-33.91l79.822-127.664 41.967-67.148 34.161 41.044c4.681 5.555 5.224 13.501 1.343 19.641z" fill="#02a9f4"/><path id="Path_4_" d="m466.424 49.437-34.162-41.044-10.802 17.283 19.783 23.762c4.681 5.554 5.225 13.501 1.343 19.641l-96.373 154.104c5.814 4.247 11.317 8.903 16.468 13.933l105.086-168.038c3.881-6.14 3.338-14.086-1.343-19.641z" fill="#0377bc"/><path id="Path_5_" d="m407.082 344.131c.022 68.413-45.93 128.303-112.016 145.993s-135.812-11.236-169.969-70.512-24.22-134.106 24.223-182.414v-.084c14.878-14.782 32.653-26.327 52.207-33.91 35.053-13.541 73.894-13.541 108.947 0 19.555 7.582 37.329 19.127 52.207 33.91v.084c28.487 28.285 44.475 66.79 44.401 106.933z" fill="#ffdf00"/><path id="Path_6_" d="m362.681 237.199v-.084c-14.878-14.782-32.653-26.327-52.207-33.91-17.372-6.732-35.843-10.176-54.473-10.156-4.247 0-8.393.243-12.59.588 14.348 1.161 28.454 4.384 41.883 9.569 19.555 7.582 37.329 19.127 52.207 33.91v.084c41.676 41.535 55.422 103.5 35.22 158.762-20.203 55.262-70.672 93.751-129.31 98.614 4.197.344 8.343.638 12.59.638 61.124-.02 116.214-36.868 139.569-93.354 23.355-56.487 10.373-121.481-32.889-164.661z" fill="#fec108"/><path id="Path_7_" d="m256 453.246c58.815.01 107.041-46.623 109.006-105.405.109-1.251.109-2.451.109-3.71 0-60.262-48.852-109.115-109.115-109.115s-109.115 48.852-109.115 109.115c0 1.259 0 2.459.109 3.71 1.974 58.778 50.195 105.406 109.006 105.405z" fill="#f5f5f5"/><path id="Path_8_" d="m342.033 277.076c-23.272-30.214-60.772-45.887-98.623-41.22 8.424.931 16.707 2.859 24.677 5.741 43.087 15.723 71.778 56.669 71.848 102.534 0 1.251 0 2.451-.109 3.71-1.583 47.386-33.605 88.318-79.217 101.258-5.63 1.594-11.382 2.717-17.198 3.357 4.178.505 8.382.768 12.59.789 58.815.01 107.041-46.623 109.006-105.405.109-1.259.109-2.459.109-3.71.03-24.305-8.098-47.917-23.083-67.054z" fill="#cfd8dc"/><path id="Path_9_" d="m226.203 449.133c-25.169-7.186-46.934-23.145-61.356-44.989-.168-.336-.42-.588-.588-.923l.588-.336h46.248z" fill="#607d8b"/><path id="Path_10_" d="m183.397 320.546-36.428 27.279c-.084-1.259-.084-2.434-.084-3.693-.011-24.305 8.115-47.914 23.082-67.064z" fill="#607d8b"/><path id="Path_11_" d="m293.267 241.563-37.267 26.188-37.267-26.188c24.078-8.729 50.456-8.729 74.534 0z" fill="#607d8b"/><path id="Path_12_" d="m297.548 329.694-15.948 48.011h-51.284l-15.864-48.011 41.548-29.209z" fill="#607d8b"/><path id="Path_13_" d="m365.115 344.131c0 1.259 0 2.434-.084 3.693l-36.428-27.279 13.43-43.478c14.967 19.15 23.093 42.759 23.082 67.064z" fill="#607d8b"/><path id="Path_14_" d="m347.656 403.221c-.168.336-.42.588-.588.923-14.371 21.856-36.116 37.822-61.272 44.989l15.108-46.248h46.164z" fill="#607d8b"/><path id="Path_15_" d="m365.115 344.131c0 1.259 0 2.434-.084 3.693l-26.356-19.724c-.999-7.527-2.887-14.908-5.624-21.991l8.981-29.041c14.986 19.139 23.114 42.755 23.083 67.063z" fill="#37474f"/><path id="Path_16_" d="m347.656 403.221c-.168.336-.42.588-.588.923-14.371 21.856-36.116 37.822-61.272 44.989l4.449-13.513c12.592-8.214 23.362-18.927 31.643-31.475.282-.401.535-.821.755-1.259h24.425z" fill="#37474f"/></g><path id="Shape" d="m438.708 3.022c-1.738-1.79-3.961-2.856-6.446-3.021-.155.073-352.731-.145-352.892.074-2.346.097-4.451 1.296-6.078 2.913l-34.187 41.061c-6.979 8.349-7.792 20.24-2.014 29.461l101.762 162.782c-58.648 63.493-56.039 162.149 5.881 222.454s160.612 60.305 222.532 0 64.529-158.962 5.881-222.454l101.762-162.782c5.778-9.221 4.965-21.112-2.014-29.461zm-182.708 181.634c-17.306.028-34.491 2.889-50.873 8.469l-68.264-109.19h238.273l-68.264 109.19c-16.381-5.581-33.566-8.442-50.872-8.469zm129.628-117.508h-259.256l-31.484-50.361h322.266zm-333.589-12.356 26.725-32.13 110.525 176.808c-13.833 6.407-26.679 14.759-38.148 24.803l-99.807-159.643c-1.919-3.086-1.634-7.057.705-9.838zm203.961 432.028c-78.805 0-142.689-63.884-142.689-142.689s63.884-142.688 142.689-142.688 142.689 63.884 142.689 142.689c-.088 78.767-63.921 142.6-142.689 142.688zm204.666-422.19-99.806 159.643c-11.469-10.044-24.315-18.396-38.148-24.803l110.524-176.808 26.767 32.122c2.33 2.792 2.598 6.767.663 9.846z"/><path id="Shape_1_" d="m296.146 233.682c-25.935-9.354-54.323-9.354-80.258 0-46.419 16.929-77.329 61.04-77.396 110.449 0 1.502 0 2.946.118 3.97 1.682 50.912 36.008 94.928 84.975 108.964h.109l.201.067c20.972 5.952 43.187 5.952 64.159 0l.243-.084.126-.042c48.778-13.977 83.047-57.721 84.942-108.427.143-1.502.143-2.946.143-4.449-.052-49.403-30.95-93.516-77.362-110.448zm47.037 160.81h-38.131l-14.042-18.373 13.102-39.651 22.83-6.715 29.377 22.075c-1.099 15.031-5.59 29.618-13.136 42.664zm-87.183-25.181h-19.582l-12.011-36.36 31.593-22.209 31.593 22.209-12.011 36.36zm-49.051 25.181h-38.131c-7.538-13.051-12.034-27.634-13.153-42.664l29.377-22.075 22.83 6.715 13.102 39.651zm-39.743-97.901 6.421 20.757-17.349 13.018c1.577-11.825 5.279-23.267 10.928-33.775zm171.167 20.757 6.421-20.765c5.644 10.512 9.34 21.957 10.911 33.784zm-5.749-38.232-10.702 34.615-22.906 6.715-34.623-24.316v-24.014l29.83-20.984c14.871 6.093 28.046 15.694 38.401 27.984zm-76.624-35.706c5.966-.003 11.921.522 17.794 1.57l-17.794 12.506-17.794-12.506c5.874-1.044 11.828-1.569 17.794-1.57zm-38.224 7.739 29.83 20.967v24.014l-34.623 24.341-22.906-6.715-10.702-34.615c10.353-12.295 23.529-21.899 38.401-27.992zm-36.738 160.13h23.972l7.798 23.829c-12.077-5.74-22.88-13.842-31.77-23.829zm51.712 30.795-12.296-37.603 14.042-18.373h43.008l14.042 18.373-12.296 37.611c-15.292 3.599-31.21 3.596-46.5-.008zm66.451-6.975 7.789-23.821h23.972c-8.889 9.984-19.689 18.083-31.761 23.821z"/></g></g></svg>