<svg height="512" viewBox="0 0 56 60" width="512" xmlns="http://www.w3.org/2000/svg"><g id="Page-1" fill="none" fill-rule="evenodd"><g id="013---Notifiction"><path id="Path" d="m37 44v10c0 2.7614237-2.2385763 5-5 5h-26c-2.76142375 0-5-2.2385763-5-5v-48c0-2.76142375 2.23857625-5 5-5h26c1.3260824 0 2.597852.5267842 3.5355339 1.46446609.9376819.9376819 1.4644661 2.20945146 1.4644661 3.53553391v4" fill="#00bcd4"/><path id="Path" d="m32 1h-3c1.3260824 0 2.597852.5267842 3.5355339 1.46446609.9376819.9376819 1.4644661 2.20945146 1.4644661 3.53553391v48c0 2.7614237-2.2385763 5-5 5h3c2.7614237 0 5-2.2385763 5-5v-48c0-1.32608245-.5267842-2.59785201-1.4644661-3.53553391-.9376819-.93768189-2.2094515-1.46446609-3.5355339-1.46446609z" fill="#00838f"/><path id="Path" d="m32 1-1.5 3.743c-.3033953.75823183-1.0373221 1.2558294-1.854 1.257h-19.292c-.81667795-.0011706-1.55060467-.49876817-1.854-1.257l-1.5-3.743" fill="#9e9e9e"/><path id="Path" d="m29 1-1.5 3.743c-.3033953.75823183-1.0373221 1.2558294-1.854 1.257h3c.8166779-.0011706 1.5506047-.49876817 1.854-1.257l1.5-3.743z" fill="#707070"/><path id="Path" d="m55 13v28c0 1.6568542-1.3431458 3-3 3h-22.723c-.1814615.0000574-.3594875.0494899-.515.143l-8.248 4.948c-.3088279.1850542-.6932921.189814-1.0066067.0124622-.3133147-.1773518-.5071089-.5094349-.5073933-.8694622v-35.234c0-1.6568542 1.3431458-3 3-3h30c1.6568542 0 3 1.3431458 3 3z" fill="#ffdf00"/><path id="Path" d="m25.763 44.143-6.763 4.057v.034c.0002844.3600273.1940786.6921104.5073933.8694622.3133146.1773518.6977788.172592 1.0066067-.0124622l8.249-4.948c.1550395-.0937577.3328158-.1432168.514-.1430007l-3 .0000007c-.1811842-.0002168-.3589605.0492423-.514.143z" fill="#fec108"/><path id="Path" d="m52 10h-3c1.6568542 0 3 1.3431458 3 3v28c0 1.6568542-1.3431458 3-3 3h3c1.6568542 0 3-1.3431458 3-3v-28c0-1.6568542-1.3431458-3-3-3z" fill="#fec108"/><path id="Path" d="m37 40c7.007218.001214 12.7529228-5.5546927 12.987-12.558.013-.149.013-.292.013-.442 0-7.1797017-5.8202983-13-13-13s-13 5.8202983-13 13c0 .15 0 .293.013.442.2351057 7.0028507 5.9802038 12.5581708 12.987 12.558z" fill="#f5f5f5"/><path id="Path" d="m47.25 19.011c-2.7726297-3.5996701-7.2404627-5.4670342-11.75-4.911 1.0035937.110976 1.9904853.3405794 2.94.684 5.1333678 1.873227 8.5516977 6.7515352 8.56 12.216 0 .149 0 .292-.013.442-.1886011 5.6455705-4.0037552 10.5222413-9.438 12.064-.6707205.1899456-1.356086.3237407-2.049.4.4977754.060163.998608.0915485 1.5.094 7.007218.001214 12.7529228-5.5546927 12.987-12.558.013-.15.013-.293.013-.442.0037307-2.8957991-.9646534-5.709043-2.75-7.989z" fill="#cfd8dc"/><g fill="#607d8b"><path id="Path" d="m33.45 39.51c-2.998678-.8561587-5.591787-2.7575355-7.31-5.36-.02-.04-.05-.07-.07-.11l.07-.04h5.51z"/><path id="Path" d="m28.35 24.19-4.34 3.25c-.01-.15-.01-.29-.01-.44-.0013293-2.8957037.9667805-5.7085027 2.75-7.99z"/><path id="Path" d="m41.44 14.78-4.44 3.12-4.44-3.12c2.8686498-1.0399935 6.0113502-1.0399935 8.88 0z"/><path id="Path" d="m41.95 25.28-1.9 5.72h-6.11l-1.89-5.72 4.95-3.48z"/><path id="Path" d="m50 27c0 .15 0 .29-.01.44l-4.34-3.25 1.6-5.18c1.7832195 2.2814973 2.7513293 5.0942963 2.75 7.99z"/><path id="Path" d="m47.92 34.04c-.02.04-.05.07-.07.11-1.7122155 2.6039031-4.3028659 4.5060793-7.3 5.36l1.8-5.51h5.5z"/></g><path id="Path" d="m50 27c0 .15 0 .29-.01.44l-3.14-2.35c-.119081-.8967282-.3439817-1.7761908-.67-2.62l1.07-3.46c1.7853514 2.2803391 2.7537224 5.093897 2.75 7.99z" fill="#37474f"/><path id="Path" d="m47.92 34.04c-.02.04-.05.07-.07.11-1.7122155 2.6039031-4.3028659 4.5060793-7.3 5.36l.53-1.61c1.5002106-.9786368 2.7833972-2.2550161 3.77-3.75.0336363-.0477263.0637174-.0978615.09-.15h2.91z" fill="#37474f"/><path id="Shape" d="m32 0h-26c-3.31233757.00330738-5.99669262 2.68766243-6 6v48c.00330738 3.3123376 2.68766243 5.9966926 6 6h26c3.3123376-.0033074 5.9966926-2.6876624 6-6v-9h14c2.209139 0 4-1.790861 4-4v-28c0-2.209139-1.790861-4-4-4h-14v-3c-.0033074-3.31233757-2.6876624-5.99669262-6-6zm-1.477 2-.949 2.371c-.1503094.38074697-.5186601.63041571-.928.629h-19.292c-.40933991.00141571-.77769062-.24825303-.928-.629l-.949-2.371zm5.477 52c0 2.209139-1.790861 4-4 4h-26c-2.209139 0-4-1.790861-4-4v-48c.00618775-1.95309101 1.4219376-3.61614264 3.349-3.934l1.219 3.048c.45266017 1.14161029 1.55792808 1.88982827 2.786 1.886h19.292c1.2280719.00382827 2.3333398-.74438971 2.786-1.886l1.219-3.048c1.9270624.31785736 3.3428123 1.98090899 3.349 3.934v3h-14c-2.209139 0-4 1.790861-4 4v35.234c.0049282 1.1025217.8974783 1.9950718 2 2 .3627718-.0009.7184675-.1004533 1.029-.288l8.248-4.946h6.723zm18-41v28c0 1.1045695-.8954305 2-2 2h-22.723c-.3624418.0003443-.7180261.0988297-1.029.285l-8.248 4.949v-35.234c0-1.1045695.8954305-2 2-2h30c1.1045695 0 2 .8954305 2 2z" fill="#000" fill-rule="nonzero"/><path id="Path" d="m6 54c0 .5522847.44771525 1 1 1h24c.5522847 0 1-.4477153 1-1s-.4477153-1-1-1h-24c-.55228475 0-1 .4477153-1 1z" fill="#000"/><path id="Shape" d="m32.221 13.839c-5.5310521 2.0171663-9.2138726 7.2736028-9.221 13.161 0 .179 0 .351.014.473.200338 6.0656462 4.2899718 11.3097816 10.124 12.982h.013l.024.008c2.4986689.7090714 5.1453311.7090714 7.644 0l.029-.01.015-.005c5.8113914-1.665249 9.8942488-6.8769438 10.12-12.918.017-.179.017-.351.017-.53-.0061797-5.8860097-3.6874627-11.1417332-9.217-13.159-3.0896745-1.1151473-6.4718592-1.1158547-9.562-.002zm.225 2.083 3.554 2.498v2.861l-4.125 2.9-2.729-.8-1.275-4.124c1.2333325-1.4647804 2.8030777-2.6090647 4.575-3.335zm10.286 10.165 2.72-.8 3.5 2.63c-.1308278 1.7908318-.6659015 3.5287103-1.565 5.083h-4.543l-1.673-2.189zm6.149-.727-2.067-1.551.765-2.474c.6730788 1.2522129 1.1141754 2.6158179 1.302 4.025zm-9.548 4.64h-4.666l-1.431-4.332 3.764-2.646 3.764 2.646zm-8.177 3h-4.543c-.8980776-1.5548716-1.4337138-3.2923566-1.567-5.083l3.5-2.63 2.72.8 1.561 4.724zm-4.735-11.664.765 2.473-2.067 1.551c.1879635-1.4088337.6290556-2.7720861 1.302-4.024zm1.648 13.664h2.856l.929 2.839c-1.4387771-.683775-2.725819-1.6491414-3.785-2.839zm6.161 3.669-1.465-4.48 1.673-2.189h5.124l1.673 2.189-1.465 4.481c-1.8218306.4286556-3.7183243.4283133-5.54-.001zm7.917-.831.928-2.838h2.856c-1.0590012 1.1893711-2.3456834 2.1543827-3.784 2.838zm3.982-18.584-1.275 4.124-2.729.8-4.125-2.897v-2.861l3.554-2.5c1.7716811.7258942 3.3413624 1.8697887 4.575 3.334zm-7.009-4.067-2.12 1.49-2.12-1.49c1.4023375-.2493252 2.8376625-.2493252 4.24 0z" fill="#000" fill-rule="nonzero"/></g></g></svg>