<svg height="512" viewBox="0 0 55 60" width="512" xmlns="http://www.w3.org/2000/svg"><g id="Page-1" fill="none" fill-rule="evenodd"><g id="014---Corner"><rect id="Rectangle" fill="#9e9e9e" height="58" rx="2" width="4" x="1" y="1"/><path id="Path" d="m28 3.765v15.718c-.0032095.2383401-.1274802.4586665-.3297921.5847068-.202312.1260404-.4548565.1404698-.6702079.0382932-7.334-3.378-14.666 5.036-22 .536v-17.282c7.549 4.632 15.1-4.42 22.646-.207.2199206.12504323.3552596.35901916.354.612z" fill="#f44335"/><path id="Path" d="m27.646 3.153c-1.8516517-1.0123153-3.9876587-1.37928207-6.071-1.043 1.0790364.15610521 2.1200789.5096732 3.071 1.043.2199206.12504323.3552596.35901916.354.612v15.7c.6899791.1345658 1.3614059.3511009 2 .645.2153514.1021766.4678959.0877472.6702079-.0382932.2023119-.1260403.3265826-.3463667.3297921-.5847068v-15.722c.0012596-.25298084-.1340794-.48695677-.354-.612z" fill="#c81e1e"/><path id="Shape" d="m52 55h-10.39c-.7-5.91-4.54-10.04-10.99-11.9-1.2027643-.3229344-2.4253782-.5667891-3.66-.73l8.3-4.77c.8481929-.4905446 1.2802702-1.4745142 1.0674731-2.4309569-.212797-.9564427-1.021307-1.6643966-1.9974731-1.7490431-.0629727-.0083152-.1265024-.0116589-.19-.01-.393361-.0013179-.7799644.1022366-1.12.3l-28.02 16.12-2 9.17h49c1.1045695 0 2-.8954305 2-2s-.8954305-2-2-2zm-47 0 15.65-9c.15-.02 15.32-1.21 16.93 9z" fill="#f5f5f5" fill-rule="nonzero"/><path id="Path" d="m35.26 37.6-8.3 4.77c-.2442182-.3482668-.3281766-.7842142-.2307734-1.1982733s.3669062-.7668582.7407734-.9697267l4.79-2.6c.6314197-.3637945 1.0469814-1.0114307 1.1145698-1.7370127.0675885-.7255819-.2212059-1.4388294-.7745698-1.9129873l.42-.24c.3400356-.1977634.726639-.3013179 1.12-.3.0634976-.0016589.1270273.0016848.19.01.9748611.0858508 1.7817896.793304 1.9944241 1.7485585.2126344.9552545-.2180233 1.9381877-1.0644241 2.4294415z" fill="#cfd8dc"/><path id="Path" d="m52 55h-3c1.1045695 0 2 .8954305 2 2s-.8954305 2-2 2h3c1.1045695 0 2-.8954305 2-2s-.8954305-2-2-2z" fill="#cfd8dc"/><path id="Path" d="m37.58 55h-32.58l15.65-9c.15-.02 15.32-1.21 16.93 9z" fill="#60a917"/><path id="Shape" d="m9.848 23.006c2.3713738-.1233749 4.7114132-.597179 6.944-1.406 3.413-1.048 6.637-2.035 9.79-.583.5299025.2465303 1.149124.2046451 1.641-.111.4860317-.3095688.7793532-.8467587.777-1.423v-15.718c.0015177-.61502701-.3292718-1.18291415-.865-1.485-4.089-2.28-8.075-1.059-11.928.12-3.559 1.1-6.927 2.123-10.231.359-.13105717-1.59938038-1.50016795-2.810798-3.10360558-2.7461346s-2.87055294 1.38239468-2.87239442 2.9871346v54c0 1.6568542 1.34314575 3 3 3h49c1.6568542 0 3-1.3431458 3-3s-1.3431458-3-3-3h-9.526c-1.014-5.8-5.093-9.991-11.574-11.859-.306-.091-.666-.182-1.065-.271l5.92-3.4c1.2158262-.7002576 1.8434474-2.1029708 1.5553416-3.4761383-.2881057-1.3731675-1.4265912-2.405332-2.8213416-2.5578617-.6843052-.0947848-1.3803302.0500732-1.97.41l-26.519 15.254v-25.835c1.22140249.4978294 2.52906732.7496432 3.848.741zm6.945-18.691c3.555-1.09 6.915-2.122 10.207-.376v15.077c-3.7-1.506-7.3-.4-10.793.67-3.55 1.089-6.911 2.12-10.206.376v-15.074c3.687 1.512 7.291.401 10.792-.673zm-14.793-1.315c0-.55228475.44771525-1 1-1s1 .44771525 1 1v54c0 .5522847-.44771525 1-1 1s-1-.4477153-1-1zm31.527 31.572c.1861139-.1079816.3978381-.1639348.613-.162l.1.006c.541014.0467669.9893066.4387923 1.1077847.9687415s-.120193 1.0755556-.5897847 1.3482585l-8.3 4.77c-.369991.2125119-.5643892.6363728-.4840548 1.0554206.0803344.4190477.4177036.7409651.8400548.8015794 1.1888162.157374 2.3662558.3911918 3.525.7 6.072 1.751 9.625 5.574 10.274 11.057.0594912.5050121.4884997.8849665.997.883h10.39c.5522847 0 1 .4477153 1 1s-.4477153 1-1 1h-46.184c.11843775-.320257.18068557-.6585603.184-1v-1h31.58c.2925081.0000711.5703824-.1279323.7604272-.3502924.1900447-.22236.2732041-.5167807.2275728-.8057076-1.75-11.1-17.89-9.856-18.05-9.835-.1292464.0170168-.2539185.0591404-.367.124l-14.151 8.139v-2.864zm-24.782 19.428 12.2-7.018c1.643-.089 13.129-.436 15.382 7.018z" fill="#000" fill-rule="nonzero"/></g></g></svg>