<svg height="512" viewBox="0 0 60 60" width="512" xmlns="http://www.w3.org/2000/svg"><g id="Page-1" fill="none" fill-rule="evenodd"><g id="015---Stadium"><path id="Path" d="m55.89 26.96c-4.78 3.59-14.58 6.04-25.89 6.04s-21.11-2.45-25.89-6.04c.81-3.68 5.9-6.82 13.12-8.54.3141794 1.6884631.9636406 3.2968146 1.91 4.73 2.4017724 3.654895 6.481584 5.8557612 10.855 5.8557612s8.4532276-2.2008662 10.855-5.8557612c.9535442-1.4304642 1.6067374-3.039633 1.92-4.73 7.23 1.72 12.31 4.87 13.12 8.54z" fill="#60a917"/><path id="Path" d="m42.77 18.42c-.049.264-.121.52-.186.779 5.716 1.807 9.606 4.589 10.306 7.761-4.567 3.43-13.72 5.813-24.39 6.02.5.009 1 .02 1.5.02 11.31 0 21.11-2.45 25.89-6.04-.81-3.67-5.89-6.82-13.12-8.54z" fill="#549414"/><path id="Path" d="m16.14 23.15c2.4017978 3.656673 6.4850885 5.8562356 10.86 5.85.5013371-.0022877 1.002141-.0330037 1.5-.092-5.6499396-.6467224-10.2193434-4.8990655-11.27-10.488-.98.234-1.918.4936667-2.814.779.3482131 1.4046394.9310705 2.7404105 1.724 3.951z" fill="#549414"/><path id="Path" d="m59 22c-.0000324.4768998-.08119.9503192-.24 1.4l-.01.04c-.5842085 1.4303745-1.5795067 2.6553569-2.86 3.52-.81-3.67-5.89-6.82-13.12-8.54.1297285-.6525085.2033308-1.3149294.22-1.98.01-.15.01-.29.01-.44-.0026373-1.3399208-.2083054-2.6717058-.61-3.95 9.82 1.76 16.61 5.55 16.61 9.95z" fill="#0377bc"/><path id="Path" d="m17.01 16.44c.0166692.6650706.0902715 1.3274915.22 1.98-7.22 1.72-12.31 4.86-13.12 8.54-1.28049327-.8646431-2.27579145-2.0896255-2.86-3.52l-.01-.04c-.15880998-.4496808-.2399676-.9231002-.24-1.4 0-4.4 6.79-8.2 16.61-9.94-.4016448 1.2748737-.6073237 2.603357-.61 3.94 0 .15 0 .29.01.44z" fill="#0377bc"/><path id="Path" d="m58.75 23.44-4.75 24.56c-.73 3.65-6.14 6.77-14.17 8.19-.3224996-.7223731-1.0389085-1.1882347-1.83-1.19v-10c-.0032948-1.1032019-.8967981-1.9967052-2-2h-12c-1.1032019.0032948-1.9967052.8967981-2 2v10c-.5305905-.0028231-1.0395388.2101411-1.41.59-.1772975.1711166-.3199051.3748417-.42.6-8.03-1.42-13.44-4.54-14.17-8.19l-4.75-24.56c.58420855 1.4303745 1.57950673 2.6553569 2.86 3.52 4.78 3.59 14.58 6.04 25.89 6.04s21.11-2.45 25.89-6.04c1.2804933-.8646431 2.2757915-2.0896255 2.86-3.52z" fill="#02a9f4"/><path id="Path" d="m19 45v10c-.5305905-.0028231-1.0395388.2101411-1.41.59-.016.015-.027.034-.043.05.84.2 1.712.389 2.623.55.1000949-.2251583.2427025-.4288834.42-.6.3704612-.3798589.8794095-.5928231 1.41-.59v-10c.0032948-1.1032019.8967981-1.9967052 2-2h-3c-1.1032019.0032948-1.9967052.8967981-2 2z" fill="#0377bc"/><path id="Path" d="m55.89 26.96c-.2966667.2226667-.6123333.441-.947.655l-3.943 20.385c-.647 3.236-4.979 6.053-11.55 7.641.1573183.1597667.2858729.3454943.38.549 8.03-1.42 13.44-4.54 14.17-8.19l4.75-24.56c-.5842085 1.4303745-1.5795067 2.6553569-2.86 3.52z" fill="#0377bc"/><path id="Path" d="m40 57c-.0081672 1.1011688-.8988312 1.9918328-2 2h-16c-.6768153.0004625-1.3079466-.3414072-1.6772996-.9085558-.369353-.5671485-.4268108-1.2826206-.1527004-1.9014442.1000949-.2251583.2427025-.4288834.42-.6.3704612-.3798589.8794095-.5928231 1.41-.59h16c1.1045695 0 2 .8954305 2 2z" fill="#9e9e9e"/><path id="Path" d="m39.83 56.19c-.3224996-.7223731-1.0389085-1.1882347-1.83-1.19h-3c1.1045695 0 2 .8954305 2 2-.0081672 1.1011688-.8988312 1.9918328-2 2h3c1.1011688-.0081672 1.9918328-.8988312 2-2 .0006674-.2789242-.0572491-.5548796-.17-.81z" fill="#707070"/><path id="Path" d="m38 45v10h-16v-10c.0032948-1.1032019.8967981-1.9967052 2-2h12c1.1032019.0032948 1.9967052.8967981 2 2z" fill="#3f51b5"/><path id="Path" d="m36 43h-3c1.1032019.0032948 1.9967052.8967981 2 2v10h3v-10c-.0032948-1.1032019-.8967981-1.9967052-2-2z" fill="#283593"/><rect id="Rectangle" fill="#ffdf00" height="4" rx="2" width="5" x="12" y="1"/><rect id="Rectangle" fill="#ffdf00" height="4" rx="2" width="5" x="1" y="1"/><rect id="Rectangle" fill="#ffdf00" height="4" rx="2" width="5" x="54" y="1"/><rect id="Rectangle" fill="#ffdf00" height="4" rx="2" width="5" x="43" y="1"/><path id="Path" d="m43 16c0 .15 0 .29-.01.44-.0166692.6650706-.0902715 1.3274915-.22 1.98-.3132626 1.690367-.9664558 3.2995358-1.92 4.73-2.402722 3.6535429-6.4821922 5.8532999-10.855 5.8532999s-8.452278-2.199757-10.855-5.8532999c-.9463594-1.4331854-1.5958206-3.0415369-1.91-4.73-.1297285-.6525085-.2033308-1.3149294-.22-1.98-.01-.15-.01-.29-.01-.44.0026763-1.336643.2083552-2.6651263.61-3.94 1.228721-3.8398576 4.1632619-6.89620958 7.95-8.28 5.2957844-1.9268055 11.2298701-.21807967 14.69 4.23 1.7883266 2.2787209 2.7570633 5.0933414 2.75 7.99z" fill="#f5f5f5"/><path id="Path" d="m40.25 8.011c-2.7726297-3.59967014-7.2404627-5.46703422-11.75-4.911 1.0035937.11097603 1.9904853.34057939 2.94.684 5.1333678 1.87322697 8.5516977 6.7515352 8.56 12.216 0 .149 0 .292-.013.442-.1886011 5.6455705-4.0037552 10.5222413-9.438 12.064-.6707205.1899456-1.356086.3237407-2.049.4.4977754.060163.998608.0915485 1.5.094 7.007218.001214 12.7529228-5.5546927 12.987-12.558.013-.15.013-.293.013-.442.0037307-2.8957991-.9646534-5.709043-2.75-7.989z" fill="#cfd8dc"/><g fill="#607d8b"><path id="Path" d="m26.45 28.51c-2.998678-.8561587-5.591787-2.7575355-7.31-5.36-.02-.04-.05-.07-.07-.11l.07-.04h5.51z"/><path id="Path" d="m21.35 13.19-4.34 3.25c-.01-.15-.01-.29-.01-.44-.0013293-2.8957037.9667805-5.7085027 2.75-7.99z"/><path id="Path" d="m34.44 3.78-4.44 3.12-4.44-3.12c2.8686498-1.03999347 6.0113502-1.03999347 8.88 0z"/><path id="Path" d="m34.95 14.28-1.9 5.72h-6.11l-1.89-5.72 4.95-3.48z"/><path id="Path" d="m43 16c0 .15 0 .29-.01.44l-4.34-3.25 1.6-5.18c1.7832195 2.2814973 2.7513293 5.0942963 2.75 7.99z"/><path id="Path" d="m40.92 23.04c-.02.04-.05.07-.07.11-1.7122155 2.6039031-4.3028659 4.5060793-7.3 5.36l1.8-5.51h5.5z"/></g><path id="Path" d="m43 16c0 .15 0 .29-.01.44l-3.14-2.35c-.119081-.8967282-.3439817-1.7761908-.67-2.62l1.07-3.46c1.7853514 2.2803391 2.7537224 5.093897 2.75 7.99z" fill="#37474f"/><path id="Path" d="m40.92 23.04c-.02.04-.05.07-.07.11-1.7122155 2.6039031-4.3028659 4.5060793-7.3 5.36l.53-1.61c1.5002106-.9786368 2.7833972-2.2550161 3.77-3.75.0336363-.0477263.0637174-.0978615.09-.15h2.91z" fill="#37474f"/><path id="Shape" d="m8 13.749c-5.074 2.156-8 5.06-8 8.251.00301179.5707087.09615979 1.137359.276 1.679l4.744 24.521c.789 3.943 5.992 7.19 13.98 8.782v.018c0 1.6568542 1.3431458 3 3 3h16c1.6568542 0 3-1.3431458 3-3v-.018c7.989-1.592 13.193-4.839 13.983-8.792l4.742-24.508c.1799765-.5426113.2727951-1.1103238.275-1.682 0-3.18-2.926-6.082-8-8.246v-11.754h1.184c-.1184378.32025698-.1806856.65856033-.184 1 0 1.65685425 1.3431458 3 3 3h1c1.6568542 0 3-1.34314575 3-3s-1.3431458-3-3-3h-12c-1.6568542 0-3 1.34314575-3 3s1.3431458 3 3 3h1c1.6568542 0 3-1.34314575 3-3-.0033144-.34143967-.0655622-.67974302-.184-1h1.184v10.974c-2.238424-.7683684-4.5311424-1.3683728-6.859-1.795-2.024809-5.51188135-7.2741166-9.17448906-13.1461421-9.17247855s-11.1188238 3.66821196-13.1398579 9.18147855c-2.3263795.4220419-4.6178121 1.0180483-6.855 1.783v-10.971h1.184c-.1184378.32025698-.1806856.65856033-.184 1 0 1.65685425 1.3431458 3 3 3h1c1.6568542 0 3-1.34314575 3-3s-1.3431458-3-3-3h-12c-1.65685425 0-3 1.34314575-3 3s1.34314575 3 3 3h1c1.65685425 0 3-1.34314575 3-3-.00331443-.34143967-.06556225-.67974302-.184-1h1.184zm50-10.749c0 .55228475-.4477153 1-1 1h-1c-.5522847 0-1-.44771525-1-1s.4477153-1 1-1h1c.5522847 0 1 .44771525 1 1zm-11 0c0 .55228475-.4477153 1-1 1h-1c-.5522847 0-1-.44771525-1-1s.4477153-1 1-1h1c.5522847 0 1 .44771525 1 1zm-10 51h-2v-2c0-.5522847-.4477153-1-1-1s-1 .4477153-1 1v2h-2v-2c0-.5522847-.4477153-1-1-1s-1 .4477153-1 1v2h-2v-2c0-.5522847-.4477153-1-1-1s-1 .4477153-1 1v2h-2v-9c0-.5522847.4477153-1 1-1h12c.5522847 0 1 .4477153 1 1zm1 4h-16c-.5522847 0-1-.4477153-1-1s.4477153-1 1-1h16c.5522847 0 1 .4477153 1 1s-.4477153 1-1 1zm15.02-10.2c-.617 3.082-5.591 5.906-12.732 7.279-.3411861-.409716-.7859499-.7204982-1.288-.9v-9.179c0-1.6568542-1.3431458-3-3-3h-12c-1.6568542 0-3 1.3431458-3 3v9.184c-.5020501.1795018-.9468139.490284-1.288.9-7.142-1.374-12.112-4.198-12.73-7.274l-3.955-20.44c.159.13.311.261.482.39l.02.014h.006c5.134 3.842 15.265 6.226 26.465 6.226s21.334-2.385 26.466-6.223l.018-.013c.172-.129.325-.261.485-.392zm-33.6-37.468.765 2.473-2.066 1.555c.1879635-1.4088337.6290556-2.7720861 1.302-4.024zm2.127 3.951 2.72.8 1.561 4.724-1.672 2.193h-4.543c-.8980776-1.5548716-1.4337138-3.2923566-1.567-5.083zm8.453-10.283c.7108009-.00036248 1.420238.06221522 2.12.187l-2.12 1.49-2.12-1.49c.6998278-.12428985 1.409221-.18686369 2.12-.187zm0 8.022 3.764 2.646-1.431 4.332h-4.666l-1.431-4.332zm5.732 3.065 2.72-.8 3.5 2.63c-.1308278 1.7908318-.6659015 3.5287103-1.565 5.083h-4.543l-1.673-2.189zm6.149-.727-2.067-1.551.765-2.474c.6730788 1.2522129 1.1141754 2.6158179 1.302 4.025zm-11.881 13.64c-.9330734-.0010958-1.8627844-.1118556-2.77-.33l-1.465-4.481 1.673-2.189h5.124l1.673 2.189-1.465 4.481c-.9071845.2183178-1.8369161.3290801-2.77.33zm-6.075-4 .929 2.839c-1.4387771-.683775-2.725819-1.6491414-3.785-2.839zm12.15 0h2.856c-1.0590012 1.1893711-2.3456834 2.1543827-3.784 2.838zm-17.766-.3c1.8332432 2.7970721 4.6124689 4.8404013 7.829 5.756h.013l.024.008c2.4986689.7090714 5.1453311.7090714 7.644 0l.029-.01h.015c4.7159265-1.3507511 8.3784233-5.0751119 9.65-9.813 5.957 1.573 10.123 4.145 11.207 6.911-4.92 3.322-14.481 5.448-24.72 5.448s-19.8-2.126-24.72-5.448c1.082-2.764 5.249-5.336 11.209-6.911.3842708 1.4421297.9988442 2.8127635 1.82 4.059zm39.691-1.7c-.0830554 1.2696275-.6834967 2.4495435-1.661 3.264-1.6-3.22-6-5.917-12.446-7.589.044-.381.078-.762.09-1.145.017-.179.017-.351.017-.53-.0026316-.8952934-.0903595-1.7883097-.262-2.667 8.592 1.792 14.262 5.198 14.262 8.667zm-18.871-13.746-1.275 4.124-2.729.8-4.125-2.897v-2.861l3.554-2.5c1.7716811.72589417 3.3413624 1.86978871 4.575 3.334zm-13.683-3.332 3.554 2.498v2.861l-4.125 2.9-2.729-.8-1.275-4.127c1.2336755-1.46368687 2.803392-2.60692084 4.575-3.332zm-9.446 11.078c0 .179 0 .351.014.473.012.4.049.8.1 1.2-6.448 1.676-10.856 4.373-12.454 7.592-.97681052-.8153197-1.5767713-1.995363-1.66-3.265 0-3.481 5.669-6.885 14.26-8.66-.1704333.8764723-.2574885 1.7671143-.26 2.66zm0-13c0 .55228475-.4477153 1-1 1h-1c-.5522847 0-1-.44771525-1-1s.4477153-1 1-1h1c.5522847 0 1 .44771525 1 1zm-11 0c0 .55228475-.44771525 1-1 1h-1c-.55228475 0-1-.44771525-1-1s.44771525-1 1-1h1c.55228475 0 1 .44771525 1 1z" fill="#000" fill-rule="nonzero"/></g></g></svg>