<svg height="512" viewBox="0 0 46 60" width="512" xmlns="http://www.w3.org/2000/svg"><g id="Page-1" fill="none" fill-rule="evenodd"><g id="016---Stopwatch" transform="translate(0 -1)"><path id="Path" d="m38.56 53.56c-8.0841762 8.111734-21.0393686 8.6647693-29.78542771 1.2714897-8.74605914-7.3932796-10.35736542-20.2597689-3.70457229-29.5814897 1.42087199-2.0075445 3.1724555-3.759128 5.18-5.18 7.6359029-5.4202678 17.8640971-5.4202678 25.5 0 2.0075445 1.420872 3.759128 3.1724555 5.18 5.18 6.2253728 8.750326 5.2236089 20.7165439-2.37 28.31z" fill="#00bcd4"/><path id="Path" d="m38.556 22.444c-4.4930222-4.495739-10.7158319-6.8205363-17.056-6.372 11.542428.7720638 20.5102536 10.3597794 20.5102536 21.928s-8.9678256 21.1559362-20.5102536 21.928c9.1504921.6368942 17.7344643-4.4753067 21.5334145-12.8242658 3.7989501-8.3489591 2.0140961-18.1791917-4.4774145-24.6597342z" fill="#00838f"/><path id="Path" d="m23 55c9.1631877.0013468 16.6766616-7.2639343 16.983-16.422.017-.195.017-.378.017-.578 0-9.3888407-7.6111593-17-17-17s-17 7.6111593-17 17c0 .2 0 .383.017.578.30736679 9.1576091 7.8202341 16.4223036 16.983 16.422z" fill="#f5f5f5"/><path id="Path" d="m36.4 27.553c-3.2148834-4.1366389-8.1609876-6.5554315-13.4-6.553-.506 0-1.006.023-1.5.066 1.4709017.1260417 2.9185539.4468455 4.305.954 6.7154345 2.449468 11.1866555 8.8317915 11.195 15.98 0 .2 0 .383-.017.578-.2465598 7.3826954-5.235637 13.7599179-12.342 15.776-1.0261441.2915345-2.0780136.4834228-3.141.573.5.043.994.073 1.5.073 9.1631877.0013468 16.6766616-7.2639343 16.983-16.422.017-.195.017-.378.017-.578.0035739-3.787188-1.2641244-7.4659782-3.6-10.447z" fill="#cfd8dc"/><g fill="#607d8b"><path id="Path" d="m40 38c.0033266.1935488-.0033489.3871401-.02.58l-5.67-4.26 2.09-6.77c2.3381691 2.9809285 3.6061081 6.6614736 3.6 10.45z"/><path id="Path" d="m36.74 48c-2.2298815 3.0828867-5.4370247 5.3208383-9.1 6.35l2.36-6.35z"/><path id="Path" d="m18.36 54.35c-3.6645646-1.0315232-6.8741768-3.2687392-9.11-6.35h6.75z"/><path id="Path" d="m11.69 34.32-5.67 4.26c-.01665108-.1928599-.02332665-.3864512-.02-.58-.00610805-3.7885264 1.26183093-7.4690715 3.6-10.45z"/><path id="Path" d="m28.81 22.02-5.81 4.08-5.81-4.08c3.7539513-1.3600091 7.8660487-1.3600091 11.62 0z"/><path id="Path" d="m29.47 35.75-2.48 7.25h-7.99l-2.47-7.25 6.47-4.55z"/></g><path id="Path" d="m40 38c.0033266.1935488-.0033489.3871401-.02.58l-3.07-2.31c-.1888168-1.8958968-.6994652-3.7457292-1.51-5.47l1-3.25c.14.18.28.37.41.55s.26.37.39.56c1.8312501 2.7703641 2.8051756 6.0191014 2.8 9.34z" fill="#37474f"/><path id="Path" d="m36.74 48c-.14.2-.29.39-.43.58-.06.07-.12.14-.17.2-.24.29-.49.57-.74.85-2.1070433 2.2525265-4.7908013 3.8849154-7.76 4.72l.53-1.43c2.2002531-1.2081692 4.1058256-2.8883513 5.58-4.92z" fill="#37474f"/><path id="Path" d="m26 11.5v4.71c-1.9902004-.2799944-4.0097996-.2799944-6 0v-4.71c0-.8284271.6715729-1.5 1.5-1.5h3c.8284271 0 1.5.6715729 1.5 1.5z" fill="#7f8e94"/><path id="Path" d="m24.5 10h-3c.8284271 0 1.5.6715729 1.5 1.5v4.5c1.0036728-.0000214 2.0061183.0701497 3 .21v-4.71c0-.8284271-.6715729-1.5-1.5-1.5z" fill="#545c60"/><path id="Path" d="m10.25 20.07c-2.0075445 1.420872-3.75912801 3.1724555-5.18 5.18l-2.81-2.81c-.17284264-.1701154-.27017719-.4024844-.27017719-.645s.09733455-.4748846.27017719-.645l3.89-3.89c.17011542-.1728426.40248436-.2701772.645-.2701772s.47488458.0973346.645.2701772z" fill="#7f8e94"/><path id="Path" d="m7.44 17.26c-.17011542-.1728426-.40248436-.2701772-.645-.2701772s-.47488458.0973346-.645.2701772l-.855.855 1.955 1.955c-1.00453112.7058391-1.94484196 1.4989127-2.81 2.37-.366.366-.709.749-1.045 1.135l1.675 1.675c1.42087199-2.0075445 3.1724555-3.759128 5.18-5.18z" fill="#545c60"/><path id="Path" d="m43.74 22.44-2.81 2.81c-1.420872-2.0075445-3.1724555-3.759128-5.18-5.18l2.81-2.81c.1701154-.1728426.4024844-.2701772.645-.2701772s.4748846.0973346.645.2701772l3.89 3.89c.1728426.1701154.2701772.4024844.2701772.645s-.0973346.4748846-.2701772.645z" fill="#7f8e94"/><path id="Path" d="m43.74 21.15-3.89-3.89c-.1701154-.1728426-.4024844-.2701772-.645-.2701772s-.4748846.0973346-.645.2701772l-.855.855 3.035 3.035c.1728426.1701154.2701772.4024844.2701772.645s-.0973346.4748846-.2701772.645l-1.135 1.135c.4713306.5342135.9136341 1.0933518 1.325 1.675l2.81-2.81c.1728426-.1701154.2701772-.4024844.2701772-.645s-.0973346-.4748846-.2701772-.645z" fill="#545c60"/><path id="Shape" d="m6.736 54.263c8.3397722 8.3427261 21.6391314 9.0235285 30.7872156 1.5760166 9.1480843-7.4475119 11.1787135-20.6085525 4.7007844-30.4670166l2.228-2.221c.7452764-.7480541.7452764-1.9579459 0-2.706l-3.9-3.9c-.7480574-.7471564-1.9599426-.7471564-2.708 0l-2.219 2.226c-2.6130325-1.7091034-5.5482922-2.8651703-8.625-3.397v-1.652c2.5099601-1.7477119 3.594656-4.92261554 2.67877-7.84075699-.9158859-2.91814145-3.6202742-4.90380566-6.67877-4.90380566s-5.7628841 1.98566421-6.67877 4.90380566c-.915886 2.91814145.1688099 6.09304509 2.67877 7.84075699v1.652c-3.0783231.5322208-6.0150081 1.6893339-8.629 3.4l-2.22-2.227c-.74816976-.7459408-1.95883024-.7459408-2.707 0l-3.9 3.9c-.74660575.7482852-.74660575 1.9597148 0 2.708l2.226 2.219c-5.96890674 9.1190358-4.73133398 21.1730612 2.966 28.889zm31.114-1.414c-8.1993888 8.1907414-21.485495 8.1860682-29.67911989-.0104391-8.19362487-8.1965074-8.19362487-21.4826144 0-29.6791218 8.19362489-8.1965073 21.47973109-8.2011805 29.67911989-.0104391 8.1876887 8.207115 8.1876887 21.492885 0 29.7zm1.35-34.825 3.776 3.776-1.947 1.94c-.549672-.699813-1.1389701-1.3675729-1.765-2-.6319738-.6268271-1.2997611-1.2164833-2-1.766zm-21.2-10.024c-.0030921-2.18546199 1.4135564-4.11970259 3.498095-4.77617233 2.0845386-.65646975 4.353896.11696175 5.6036681 1.9098152 1.249772 1.79285344 1.1903363 4.18965278-.1467631 5.91835713-.2161502-1.18668168-1.2487954-2.04981319-2.455-2.052h-3c-1.2062046.00218681-2.2388498.86531832-2.455 2.052-.6759662-.8739349-1.0434339-1.94715154-1.045-3.052zm3 3.5c0-.2761424.2238576-.5.5-.5h3c.2761424 0 .5.2238576.5.5v3.606c-1.3308537-.1149977-2.6691463-.1149977-4 0zm-17.976 10.3 3.776-3.776 1.941 1.947c-.7002389.5495167-1.36802624 1.1391729-2 1.766-.6260299.6324271-1.215328 1.300187-1.765 2z" fill="#000" fill-rule="nonzero"/><path id="Shape" d="m29.149 21.081c-5.5183795-2.0003642-11.6653494-1.1861727-16.4726611 2.1818718-4.80731167 3.3680445-7.67182904 8.8673795-7.6763389 14.7371282 0 .224 0 .438.018.61.1035221 3.3103408 1.1252221 6.5267396 2.951 9.29.136.207.29.4.434.6.04269958.0811118.09655678.1558386.16.222 3.3868222 4.5815652 8.7472983 7.283547 14.44478 7.2809827 5.6974817-.0025644 11.0555234-2.7093706 14.43822-7.2939827l.01-.013c.193-.263.393-.52.573-.794 1.8193711-2.746959 2.8406079-5.944988 2.95-9.238.021-.226.021-.44.021-.664-.0092114-7.5675676-4.7421007-14.324445-11.851-16.919zm7.6 8.756c1.2258098 2.0392804 1.9729 4.3301291 2.185 6.7l-3.453-2.594zm-1.456-2.06-1.772 5.734-3.875 1.139-5.646-3.969v-4.061l4.937-3.47c2.4724899.9840919 4.6570961 2.5754289 6.352 4.627zm-8.409 25.736c-2.5485409.6500005-5.2194591.6500005-7.768 0l-2.009-5.405 2.462-4.108h6.862l2.462 4.107zm-.605-11.513h-6.558l-2-5.866 5.279-3.712 5.28 3.712zm-3.279-20c1.1845488.0021694 2.3651671.1363306 3.52.4l-3.52 2.478-3.521-2.478c1.1552549-.2631797 2.3361497-.3973342 3.521-.4zm-5.937 1.15 4.937 3.47v4.061l-5.646 3.969-3.871-1.139-1.772-5.735c1.6953202-2.0508898 3.8798284-3.6418115 6.352-4.626zm-7.808 6.687 1.268 4.105-3.453 2.594c.21193966-2.3695902.95904671-4.6601487 2.185-6.699zm-2.2 9.216 4.836-3.632 3.865 1.137 2.157 6.324-2.474 4.118h-5.655c-.047-.069-.1-.132-.145-.2-1.52289229-2.3128208-2.41534128-4.9832736-2.589-7.747zm4.326 9.947h3.924l1.369 3.684c-1.9979397-.8526825-3.7994854-2.1065828-5.293-3.684zm17.945 3.684 1.374-3.684h3.924c-1.4951432 1.5777832-3.298396 2.8316872-5.298 3.684zm7.033-5.884c-.045.069-.1.131-.143.2h-5.655l-2.469-4.118 2.157-6.324 3.865-1.137 4.837 3.632c-.1732712 2.7642553-1.0668692 5.4350514-2.592 7.747z" fill="#000" fill-rule="nonzero"/></g></g></svg>