<svg height="512" viewBox="0 0 58 60" width="512" xmlns="http://www.w3.org/2000/svg"><g id="Page-1" fill="none" fill-rule="evenodd"><g id="017---League"><circle id="Oval" cx="5" cy="55" fill="#ffdf00" r="4"/><path id="Path" d="m5 51c-.51468434.0021695-1.02407235.1040471-1.5.3 1.51101468.6085107 2.50074047 2.0740584 2.50074047 3.703s-.98972579 3.0944893-2.50074047 3.703c1.49641401.6077595 3.21150601.2559465 4.34780561-.8918556s1.47082107-2.8663504.84802118-4.3565675c-.6227999-1.490217-2.08070384-2.4596648-3.69582679-2.4575769z" fill="#fec108"/><circle id="Oval" cx="13" cy="37" fill="#ffdf00" r="4"/><path id="Path" d="m13 33c-.5146843.0021695-1.0240724.1040471-1.5.3 1.5110147.6085107 2.5007405 2.0740584 2.5007405 3.703s-.9897258 3.0944893-2.5007405 3.703c1.496414.6077595 3.211506.2559465 4.3478056-.8918556s1.4708211-2.8663504.8480212-4.3565675c-.6227999-1.490217-2.0807039-2.4596648-3.6958268-2.4575769z" fill="#fec108"/><circle id="Oval" cx="45" cy="37" fill="#ffdf00" r="4"/><path id="Path" d="m45 33c-.5146843.0021695-1.0240724.1040471-1.5.3 1.5110147.6085107 2.5007405 2.0740584 2.5007405 3.703s-.9897258 3.0944893-2.5007405 3.703c1.496414.6077595 3.211506.2559465 4.3478056-.8918556s1.4708211-2.8663504.8480212-4.3565675c-.6227999-1.490217-2.0807039-2.4596648-3.6958268-2.4575769z" fill="#fec108"/><circle id="Oval" cx="21" cy="55" fill="#ffdf00" r="4"/><path id="Path" d="m21 51c-.5146843.0021695-1.0240724.1040471-1.5.3 1.5110147.6085107 2.5007405 2.0740584 2.5007405 3.703s-.9897258 3.0944893-2.5007405 3.703c1.496414.6077595 3.211506.2559465 4.3478056-.8918556s1.4708211-2.8663504.8480212-4.3565675c-.6227999-1.490217-2.0807039-2.4596648-3.6958268-2.4575769z" fill="#fec108"/><circle id="Oval" cx="37" cy="55" fill="#ffdf00" r="4"/><path id="Path" d="m37 51c-.5146843.0021695-1.0240724.1040471-1.5.3 1.5110147.6085107 2.5007405 2.0740584 2.5007405 3.703s-.9897258 3.0944893-2.5007405 3.703c1.496414.6077595 3.211506.2559465 4.3478056-.8918556s1.4708211-2.8663504.8480212-4.3565675c-.6227999-1.490217-2.0807039-2.4596648-3.6958268-2.4575769z" fill="#fec108"/><circle id="Oval" cx="53" cy="55" fill="#ffdf00" r="4"/><path id="Path" d="m53 51c-.5146843.0021695-1.0240724.1040471-1.5.3 1.5110147.6085107 2.5007405 2.0740584 2.5007405 3.703s-.9897258 3.0944893-2.5007405 3.703c1.496414.6077595 3.211506.2559465 4.3478056-.8918556s1.4708211-2.8663504.8480212-4.3565675c-.6227999-1.490217-2.0807039-2.4596648-3.6958268-2.4575769z" fill="#fec108"/><path id="Path" d="m35 20v1c0 .5522847-.4477153 1-1 1h-10c-.5522847 0-1-.4477153-1-1v-1c0-1.6568542 1.3431458-3 3-3h6c1.6568542 0 3 1.3431458 3 3z" fill="#ffdf00"/><path id="Path" d="m32 17h-3c1.6568542 0 3 1.3431458 3 3v1c0 .5522847-.4477153 1-1 1h3c.5522847 0 1-.4477153 1-1v-1c0-1.6568542-1.3431458-3-3-3z" fill="#fec108"/><path id="Path" d="m35 2v5c.0028032 2.5419973-1.6014834 4.8080521-4 5.65-1.2924958.4666907-2.7075042.4666907-4 0-2.3985166-.8419479-4.0028032-3.1080027-4-5.65v-5c0-.55228475.4477153-1 1-1h10c.5522847 0 1 .44771525 1 1z" fill="#ffdf00"/><path id="Path" d="m34 1h-3c.5522847 0 1 .44771525 1 1v5c.0028032 2.5419973-1.6014834 4.8080521-4 5.65-.162.059-.333.09-.5.134 1.151247.3285368 2.3772427.2815987 3.5-.134 2.3985166-.8419479 4.0028032-3.1080027 4-5.65v-5c0-.55228475-.4477153-1-1-1z" fill="#fec108"/><path id="Path" d="m31 12.65v4.35h-4v-4.35c1.2924958.4666907 2.7075042.4666907 4 0z" fill="#ff9801"/><path id="Shape" d="m0 55c.00053703 2.6311265 2.0401079 4.8116571 4.66533407 4.9877668 2.62522618.1761096 4.93776733-1.7124657 5.28972893-4.3199453.3519616-2.6074797-1.37709599-5.0415961-3.955063-5.5678215v-3.1h14v3.1c-2.5149632.5133647-4.2326695 2.8476987-3.9746808 5.4015243.2579888 2.5538256 2.4078572 4.4974552 4.9746808 4.4974552s4.716692-1.9436296 4.9746808-4.4974552c.2579887-2.5538256-1.4597176-4.8881596-3.9746808-5.4015243v-3.1c0-1.1045695-.8954305-2-2-2h-6v-3.1c2.3293772-.4779272 3.9999073-2.5302777 3.9950545-4.9081736-.0048529-2.3778959-1.683746-4.4234108-4.0150545-4.8918264.00872-.0328896.0153994-.0662865.02-.1v-4h30v4c.0046006.0337135.01128.0671104.02.1-2.3313085.4684156-4.0102016 2.5139305-4.0150545 4.8918264-.0048528 2.3778959 1.6656773 4.4302464 3.9950545 4.9081736v3.1h-6c-1.1045695 0-2 .8954305-2 2v3.1c-2.5149632.5133647-4.2326695 2.8476987-3.9746808 5.4015243.2579888 2.5538256 2.4078572 4.4974552 4.9746808 4.4974552s4.716692-1.9436296 4.9746808-4.4974552c.2579887-2.5538256-1.4597176-4.8881596-3.9746808-5.4015243v-3.1h14v3.1c-2.5149632.5133647-4.2326695 2.8476987-3.9746808 5.4015243.2579888 2.5538256 2.4078572 4.4974552 4.9746808 4.4974552s4.716692-1.9436296 4.9746808-4.4974552c.2579887-2.5538256-1.4597176-4.8881596-3.9746808-5.4015243v-3.1c0-1.1045695-.8954305-2-2-2h-6v-3.1c2.3293772-.4779272 3.9999073-2.5302777 3.9950545-4.9081736-.0048529-2.3778959-1.683746-4.4234108-4.0150545-4.8918264.00872-.0328896.0153994-.0662865.02-.1v-4c0-1.1045695-.8954305-2-2-2h-14v-3h4c1.1045695 0 2-.8954305 2-2v-1c0-2.209139-1.790861-4-4-4v-2.685c.6975695-.3316901 1.3357708-.7759647 1.889-1.315h1.111c3.3123376-.0033074 5.9966926-2.68766243 6-6v-2c0-1.1045695-.8954305-2-2-2h-3c0-1.1045695-.8954305-2-2-2h-10c-1.1045695 0-2 .8954305-2 2h-3c-1.1045695 0-2 .8954305-2 2v2c.0033074 3.31233757 2.6876624 5.9966926 6 6h1.111c.5532292.5390353 1.1914305.9833099 1.889 1.315v2.685c-2.209139 0-4 1.790861-4 4v1c0 1.1045695.8954305 2 2 2h4v3h-14c-1.1045695 0-2 .8954305-2 2v4c.0046006.0337135.01128.0671104.02.1-2.33130852.4684156-4.01020163 2.5139305-4.01505448 4.8918264-.00485284 2.3778959 1.66567728 4.4302464 3.99505448 4.9081736v3.1h-6c-1.1045695 0-2 .8954305-2 2v3.1c-2.3264168.4784327-3.99700171 2.5248992-4 4.9zm24 0c0 1.2133867-.7309265 2.3072956-1.8519497 2.7716386s-2.4113767.2076757-3.2693706-.6503183c-.857994-.8579939-1.1146613-2.1483474-.6503183-3.2693706s1.5582519-1.8519497 2.7716386-1.8519497c1.6568542 0 3 1.3431458 3 3zm16 0c0 1.6568542-1.3431458 3-3 3s-3-1.3431458-3-3 1.3431458-3 3-3 3 1.3431458 3 3zm16 0c0 1.6568542-1.3431458 3-3 3s-3-1.3431458-3-3 1.3431458-3 3-3 3 1.3431458 3 3zm-8-18c0 1.6568542-1.3431458 3-3 3s-3-1.3431458-3-3 1.3431458-3 3-3 3 1.3431458 3 3zm-9-33v2c-.0066689 2.07471103-1.6011187 3.79866365-3.669 3.967.4394819-.92742189.6679602-1.94071807.669-2.967v-3zm-15-2h10v5c0 2.76142375-2.2385763 5-5 5s-5-2.23857625-5-5zm-5 4v-2h3v3c.0010398 1.02628193.2295181 2.03957811.669 2.967-2.0678813-.16833635-3.6623311-1.89228897-3.669-3.967zm9 7.92c.6624.1066667 1.3376.1066667 2 0v2.08h-2zm-4 6.08c0-1.1045695.8954305-2 2-2h6c1.1045695 0 2 .8954305 2 2v1h-10zm-14 17c0-1.6568542 1.3431458-3 3-3s3 1.3431458 3 3-1.3431458 3-3 3-3-1.3431458-3-3zm-5 15c1.65685425 0 3 1.3431458 3 3s-1.34314575 3-3 3-3-1.3431458-3-3 1.34314575-3 3-3z" fill="#000" fill-rule="nonzero"/></g></g></svg>