<svg height="512" viewBox="0 0 56 60" width="512" xmlns="http://www.w3.org/2000/svg"><g id="Page-1" fill="none" fill-rule="evenodd"><g id="018---Banner"><rect id="Rectangle" fill="#9e9e9e" height="6" rx="2" width="54" x="1" y="13"/><path id="Path" d="m53 13h-3c1.1032019.0032948 1.9967052.8967981 2 2v2c-.0032948 1.1032019-.8967981 1.9967052-2 2h3c1.1032019-.0032948 1.9967052-.8967981 2-2v-2c-.0032948-1.1032019-.8967981-1.9967052-2-2z" fill="#707070"/><circle id="Oval" cx="28" cy="4" fill="#9e9e9e" r="3"/><path id="Path" d="m28 1c-.5281059.00274535-1.0459153.14635115-1.5.416.9273539.5298262 1.4996803 1.5159639 1.4996803 2.584s-.5723264 2.0541738-1.4996803 2.584c.4540847.26964885.9718941.41325465 1.5.416 1.6568542 0 3-1.34314575 3-3s-1.3431458-3-3-3z" fill="#707070"/><path id="Path" d="m51.0000007 19-.0000007 30.39c.000487.4128236-.2542433.7829785-.64.93l-22 8.61c-.2315671.0899757-.4884329.0899757-.72 0l-22-8.61c-.38575671-.1470215-.64048697-.5171764-.64-.93l-.0000007-30.39z" fill="#f44335"/><path id="Path" d="m48 19v30.39c.000487.4128236-.2542433.7829785-.64.93l-20.86 8.164 1.14.446c.2315671.0899757.4884329.0899757.72 0l22-8.61c.3857567-.1470215.640487-.5171764.64-.93l.0000007-30.39z" fill="#c81e1e"/><path id="Path" d="m27 30v-2c0-.5522847-.4477153-1-1-1h-11c-.5522847 0-1 .4477153-1 1v17c0 .5522847.4477153 1 1 1h2c.5522847 0 1-.4477153 1-1v-6h7c.5522847 0 1-.4477153 1-1v-2c0-.5522847-.4477153-1-1-1h-7v-4h8c.5522847 0 1-.4477153 1-1z" fill="#f5f5f5"/><path id="Path" d="m39.341 40h2.1c.3133673-.0014365.609287.1441066.7994398.3931911.1901528.2490844.2525468.5729026.1685602.8748089-.822 2.832-2.619 4.732-5.909 4.732-4.92 0-6.5-4.25-6.5-9.5s1.58-9.5 6.5-9.5c3.29 0 5.087 1.9 5.914 4.732.0839866.3019063.0215926.6257245-.1685602.8748089-.1901528.2490845-.4860725.3946276-.7994398.3931911h-2.1c-.4077342-.005093-.7726667-.2541614-.926-.632-.2254718-.8599602-1.0335559-1.4357202-1.92-1.368-.75 0-2.5 0-2.5 5.5s1.75 5.5 2.5 5.5c.88463.0652042 1.6898574-.5100183 1.915-1.368.1533333-.3778386.5182658-.626907.926-.632z" fill="#f5f5f5"/><g fill="#000" fill-rule="nonzero"><path id="Shape" d="m5.271 51.254 22 8.608c.4685935.1839515.9894065.1839515 1.458 0l22-8.608c.768628-.297823 1.2740756-1.0386954 1.271-1.863v-29.391h1c1.6568542 0 3-1.3431458 3-3v-2c0-1.6568542-1.3431458-3-3-3h-2.8l-18.254-7.469c.0302082-.17554505.0482512-.35296755.054-.531 0-2.209139-1.790861-4-4-4s-4 1.790861-4 4c.0057488.17803245.0237918.35545495.054.531l-18.254 7.469h-2.8c-1.65685425 0-3 1.3431458-3 3v2c0 1.6568542 1.34314575 3 3 3h1v29.391c-.00307559.8243046.50237202 1.565177 1.271 1.863zm44.729-1.862-22 8.608-22-8.609v-29.391h44zm-22-47.392c1.1045695 0 2 .8954305 2 2-.0008708.25053105-.0494004.49860878-.143.731 0 .008-.01.012-.013.02s0 .025-.008.038c-.3164519.73251949-1.0380485 1.20683923-1.836 1.20683923s-1.5195481-.47431974-1.836-1.20683923c-.005-.013 0-.026-.008-.038s-.01-.012-.013-.02c-.0935996-.23239122-.1421292-.48046895-.143-.731 0-1.1045695.8954305-2 2-2zm-3.193 4.384c.746503 1.01616097 1.9321075 1.61632419 3.193 1.61632419s2.446497-.60016322 3.193-1.61632419l13.724 5.616h-33.834zm-22.807 10.616v-2c0-.5522847.44771525-1 1-1h50c.5522847 0 1 .4477153 1 1v2c0 .5522847-.4477153 1-1 1h-50c-.55228475 0-1-.4477153-1-1z"/><path id="Shape" d="m15 47h2c1.1045695 0 2-.8954305 2-2v-5h6c1.1045695 0 2-.8954305 2-2v-2c0-1.1045695-.8954305-2-2-2h-6v-2h7c1.1045695 0 2-.8954305 2-2v-2c0-1.1045695-.8954305-2-2-2h-11c-1.1045695 0-2 .8954305-2 2v17c0 1.1045695.8954305 2 2 2zm0-19h11v2h-8c-.5522847 0-1 .4477153-1 1v4c0 .5522847.4477153 1 1 1h7v2h-7c-.5522847 0-1 .4477153-1 1v6h-2z"/><path id="Shape" d="m36.5 47c3.456 0 5.833-1.885 6.874-5.452.1764041-.5985157.0576005-1.2452532-.32-1.742-.3805249-.5058056-.9760427-.8041196-1.609-.806h-2.1c-.8111253.0029868-1.5405444.4943974-1.848 1.245-.317.755-.6.755-.993.755-.371 0-1.5 0-1.5-4.5s1.125-4.5 1.496-4.5c.393 0 .676 0 .992.753.3071887.7515443 1.0371049 1.2438134 1.849 1.247h2.1c.6329573-.0018804 1.2284751-.3001944 1.609-.806.3776005-.4967468.4964041-1.1434843.32-1.742-1.037-3.567-3.414-5.452-6.87-5.452-3.422 0-7.5 1.822-7.5 10.5s4.078 10.5 7.5 10.5zm0-19c2.545 0 4.166 1.313 4.945 4l-2.108-.02c-.3800513-1.2322463-1.5492858-2.0482788-2.837-1.98-2.388 0-3.5 2.065-3.5 6.5s1.112 6.5 3.5 6.5c1.2963223.0645027 2.4709993-.7592541 2.852-2l2.1-.012c-.786 2.7-2.407 4.012-4.952 4.012-1.36 0-5.5 0-5.5-8.5s4.14-8.5 5.5-8.5z"/></g></g></g></svg>