<svg height="512" viewBox="0 0 46 60" width="512" xmlns="http://www.w3.org/2000/svg"><g id="Page-1" fill="none" fill-rule="evenodd"><g id="019---Flag"><path id="Path" d="m6 41.26v-4h-4v4" fill="#9e9e9e"/><path id="Path" d="m2 5v-3c0-.55228475.44771525-1 1-1h2c.55228475 0 1 .44771525 1 1v3" fill="#9e9e9e"/><rect id="Rectangle" fill="#ffdf00" height="32.26" rx="1" width="6" x="1" y="5"/><path id="Path" d="m6 5h-3c.55228475 0 1 .44771525 1 1v30.26c0 .5522847-.44771525 1-1 1h3c.55228475 0 1-.4477153 1-1v-30.26c0-.55228475-.44771525-1-1-1z" fill="#fec108"/><path id="Path" d="m45 19.78v12.19c.0019582.3318944-.1625266.6426878-.4380639.8277201-.2755372.1850324-.6254618.2196817-.9319361.0922799-5.88-2.36-11.75-.63-17.63 1.11v-13.74c6.33-1.87 12.66-3.74 19-.48z" fill="#ffdf00"/><path id="Path" d="m35.965 18.065c2.1059489.1632506 4.1579201.7463709 6.035 1.715v12.19c-.0017001.1228518-.0264628.244291-.073.358.5770376.1543688 1.144654.3420161 1.7.562.3067913.12872.657723.0947335.9341124-.0904654.2763893-.185199.4412727-.4968425.4388876-.8295346v-12.19c-2.7893139-1.4133174-5.9218126-2.0079201-9.035-1.715z" fill="#fec108"/><path id="Path" d="m26 20.26v13.74c-6.33 1.87-12.67 3.74-19 .48v-13.74c6.34 3.26 12.67 1.39 19-.48z" fill="#ff9801"/><path id="Path" d="m26 6.26v14c-6.33 1.87-12.66 3.74-19 .48v-14c6.34 3.26 12.67 1.39 19-.48z" fill="#ffdf00"/><path id="Path" d="m45 6.41v13.37c-6.34-3.26-12.67-1.39-19 .48v-14c6.14-1.81 12.29-3.63 18.43-.76.3493657.16828138.5710631.52221926.57.91z" fill="#ff9801"/><path id="Path" d="m44.43 5.5c-2.6542268-1.21417289-5.5812653-1.70839301-8.487-1.433 1.9005875.14204648 3.7596641.62756803 5.487 1.433.3493657.16828138.5710631.52221926.57.91v12.2c1.0371108.2858863 2.042323.6769139 3.0000038 1.167l-.0000038-13.367c.0010631-.38778074-.2206343-.74171862-.57-.91z" fill="#f57c00"/><rect id="Rectangle" fill="#607d8b" height="17.74" rx="1" width="6" x="1" y="41.26"/><path id="Path" d="m6 41.26h-3c.55228475 0 1 .4477153 1 1v15.74c0 .5522847-.44771525 1-1 1h3c.55228475 0 1-.4477153 1-1v-15.74c0-.5522847-.44771525-1-1-1z" fill="#37474f"/><path id="Shape" d="m0 42.26v15.74c0 1.1045695.8954305 2 2 2h4c1.1045695 0 2-.8954305 2-2v-15.74c-.00208995-.7110806-.38325657-1.3670684-1-1.721v-2.557c.61675126-.3544126.997855-1.0106732 1-1.722v-.233c2.074099.8302951 4.2899413 1.2490771 6.524 1.233 3.975 0 7.907-1.162 11.759-2.3 5.873-1.736 11.423-3.374 16.973-1.138.6146457.2495077 1.3131282.1770147 1.8634345-.1933992s.880374-.9902431.8805655-1.6536008v-25.561c-.0000761-.77511136-.4460473-1.48103778-1.146-1.814-6.486-3.033-12.918-1.133-19.137.7-6.127 1.81-11.917 3.508-17.717.8v-.1c-.002145-.71132678-.38324874-1.36758742-1-1.722v-2.278c0-1.1045695-.8954305-2-2-2h-2c-1.1045695 0-2 .8954305-2 2v2.278c-.61675126.35441258-.997855 1.01067322-1 1.722v30.26c.002145.7113268.38324874 1.3675874 1 1.722v2.557c-.61674343.3539316-.99791005 1.0099194-1 1.721zm2 15.74v-15.74h4v15.74zm0-52h4v.737 29.523h-4zm3 32.26v2h-2v-2zm3-4.4v-11.575c2.074045.830588 4.2898799 1.2497082 6.524 1.234 3.5650141-.1425207 7.0919487-.7885867 10.476-1.919v11.653c-5.863 1.725-11.433 3.205-17 .603zm36-1.888c-5.757-2.319-11.462-.919-17 .7v-11.665c5.863-1.726 11.435-3.192 17-.587v11.549zm0-25.558v11.82c-5.752-2.319-11.455-.929-17 .689v-11.916c5.867-1.728 11.434-3.207 17-.593zm-19 1.186v11.911c-5.861 1.725-11.431 3.192-17 .59v-11.807c5.752 2.317 11.452.919 17-.694zm-20-5.6v2h-2v-2z" fill="#000" fill-rule="nonzero"/></g></g></svg>