<svg height="512" viewBox="0 0 60 60" width="512" xmlns="http://www.w3.org/2000/svg"><g id="Page-1" fill="none" fill-rule="evenodd"><g id="020---Whistle"><path id="Path" d="m15.54 40.24c-4.6177092-1.3014282-8.60953321-4.2278188-11.24-8.24h8.47z" fill="#f5f5f5"/><path id="Path" d="m41 21c0 .23 0 .45-.02.68-.0498513 1.5167779-.2712612 3.0230363-.66 4.49l-11.88 4.71-.8.32c-4.2476059 1.6824835-7.4433361 5.2827834-8.61 9.7-1.1812176-.1117605-2.3495426-.3327044-3.49-.66l-2.77-8.24h-8.47c-2.0321991-3.0678338-3.16812099-6.6418319-3.28-10.32-.02-.23-.02-.45-.02-.68 0-11.045695 8.954305-20 20-20s20 8.954305 20 20z" fill="#f5f5f5"/><path id="Path" d="m36.77 8.71c-3.783127-4.86845905-9.6044568-7.71452457-15.77-7.71-.506 0-1 .029-1.5.066 5.6263627.40587596 10.8147101 3.18511404 14.27 7.644 2.7458243 3.5077497 4.2353105 7.8353585 4.23 12.29 0 .23 0 .45-.02.68-.0498513 1.5167779-.2712612 3.0230363-.66 4.49l-11.88 4.71-.8.32c-4.0781898 1.6063586-7.1936757 4.9953526-8.452 9.194.9329565.2412938 1.883093.4104596 2.842.506 1.1666639-4.4172166 4.3623941-8.0175165 8.61-9.7l.8-.32 11.88-4.71c.3887388-1.4669637.6101487-2.9732221.66-4.49.02-.23.02-.45.02-.68.0053105-4.4546415-1.4841757-8.7822503-4.23-12.29z" fill="#cfd8dc"/><path id="Path" d="m57.96 35.11-8.78 3.48c-1.4338297.5578148-2.2836923 2.0409085-2.04 3.56 1.2801243 7.457621-3.4299575 14.6338813-10.7812838 16.4263179-7.3513264 1.7924366-14.8359292-2.4104557-17.1321077-9.6203373-2.2961784-7.2098816 1.3794285-14.9670394 8.4133915-17.7559806l12.68-5.03 12.18-4.83c.8476915-.3305249 1.8032751.0847521 2.14.93l4.24 10.71c.1637093.4041864.1585267.8571362-.0143878 1.257471-.1729146.4003348-.4991224.7146258-.9056122.872529z" fill="#ffdf00"/><path id="Path" d="m58.88 32.98-4.24-10.71c-.3367249-.8452479-1.2923085-1.2605249-2.14-.93l-1.156.458c.1258518.1393278.2272772.2989038.3.472l4.24 10.71c.1637093.4041864.1585267.8571362-.0143878 1.257471-.1729146.4003348-.4991224.7146258-.9056122.872529l-8.78 3.48c-1.4338297.5578148-2.2836923 2.0409085-2.04 3.56 1.2691597 7.3891129-3.3404937 14.5166808-10.6 16.39-.6807654.1750443-1.3737133.2987253-2.073.37 1.6994576.1846595 3.4183212.059294 5.073-.37 7.2595063-1.8733192 11.8691597-9.0008871 10.6-16.39-.2436923-1.5190915.6061703-3.0021852 2.04-3.56l8.78-3.48c.4057654-.1586855.7310533-.4733029.9031792-.873552.172126-.4002491.1767435-.8527699.0128208-1.256448z" fill="#fec108"/><path id="Path" d="m46.9558793 22.8720062h4.943v7.227c0 .5522848-.4477152 1-1 1h-2.943c-.5522847 0-1-.4477152-1-1v-7.23z" fill="#37474f" transform="matrix(.93 -.369 .369 .93 -6.467 20.124)"/><circle id="Oval" cx="32.946" cy="44.59" fill="#fec108" r="8.785"/><circle id="Oval" cx="16.881" cy="50.962" fill="#fec108" r="2.88"/><g fill="#607d8b"><path id="Path" d="m15.54 40.24c-4.6177092-1.3014282-8.60953321-4.2278188-11.24-8.24h8.47z"/><path id="Path" d="m7.69 16.67-6.67 5.01c-.02-.23-.02-.45-.02-.68-.0053105-4.4546415 1.48417567-8.7822503 4.23-12.29z"/><path id="Path" d="m27.83 2.2-6.83 4.8-6.83-4.8c4.4127763-1.60000354 9.2472237-1.60000354 13.66 0z"/><path id="Path" d="m28.61 18.35-2.91 8.65h-9.4l-2.91-8.65 7.61-5.35z"/><path id="Path" d="m41 21c0 .23 0 .45-.02.68l-6.67-5.01 2.46-7.96c2.7458243 3.5077497 4.2353105 7.8353585 4.23 12.29z"/></g><path id="Path" d="m41 21c0 .23 0 .45-.02.68l-3.04-2.29c-.2129737-2.6240622-.9437077-5.1799318-2.15-7.52l.98-3.16c2.7458243 3.5077497 4.2353105 7.8353585 4.23 12.29z" fill="#37474f"/><path id="Shape" d="m3.464 32.549c2.75443523 4.2023188 6.9319887 7.2703317 11.766 8.641h.011l.027.009c.8329795.2309274 1.6796481.4092789 2.535.534-.3402921 1.8006384-.3528263 3.6479097-.037 5.453-1.4521423-.3380539-2.9695061.186348-3.9030403 1.3488933-.9335341 1.1625453-1.1179104 2.7573481-.474262 4.1022326s2.0013319 2.2016727 3.4923023 2.2038741c1.2983821-.0011853 2.509744-.6530527 3.226-1.736 2.8917714 4.2966543 7.7288571 6.8763333 12.908 6.884 1.2742326.0005457 2.5432663-.1624526 3.776-.485 7.7834145-1.9737115 12.7268857-9.6167933 11.335-17.525-.1621395-1.0511701.4302783-2.0732261 1.423-2.455l8.779-3.482c1.3584062-.5392593 2.0230495-2.0771142 1.485-3.436l-4.248-10.706c-.5392291-1.3578831-2.0766657-2.0220916-3.435-1.484l-2.3.91-.61.242-7.541 2.991c.1607582-.9222885.2586504-1.8544363.293-2.79.028-.263.028-.51.028-.769.0021232-5.5701969-2.2096886-10.9128628-6.1484129-14.85158708-3.9387243-3.93872429-9.2813902-6.15053611-14.8515871-6.14841292-11.59432289.00882369-20.99117631 9.40567711-21 21 0 .259 0 .506.021.712.11994509 3.8618164 1.31207151 7.6140888 3.443 10.837zm1.418-21.582 1.645 5.326-4.472 3.359c.2099874-3.0841651 1.18129134-6.0681675 2.827-8.685zm3.008 6.8 4.716 1.388 2.583 7.677-2.938 4.168h-7.392c-1.65736934-2.6686316-2.62189611-5.7089877-2.806-8.845zm13.11-15.767c1.5406835.00209971 3.0753557.19217071 4.57.566l-4.57 3.211-4.571-3.212c1.4951179-.37299566 3.0300593-.56272262 4.571-.565zm0 12.222 6.425 4.517-2.444 7.261h-7.962l-2.444-7.261zm-14.72 18.778h5.771l1.894 5.636c-2.9944372-1.1931586-5.63331109-3.1334969-7.665-5.636zm10.032 6.4-2.433-7.234 2.938-4.166h8.366l1.717 2.434c-2.6082006 1.1050721-4.8584174 2.9125154-6.5 5.221-.9015339 1.2659629-1.6077495 2.6601909-2.095 4.136-.6711424-.0928416-1.3365279-.2233813-1.993-.391zm1.262 13.31c-.9664983.3827333-2.0602666-.0905017-2.443-1.057-.3827333-.9664983.0905017-2.0602667 1.057-2.443s2.0602666.0905017 2.443 1.057c.3827333.9664983-.0905017 2.0602667-1.057 2.443zm35.293-30.439c.0758588-.0296207.1565634-.04488.238-.045.0883991-.0001873.1758873.017855.257.053.1579759.0669151.2820888.1949968.344.355l4.248 10.71c.1310245.3316447-.0314526.7067296-.363.838l-8.779 3.483c-1.8705142.7333433-2.9767702 2.6714772-2.657 4.655 1.2113357 6.8852442-3.0946818 13.538809-9.872 15.254-5.4531029 1.4027579-11.2014605-.7531256-14.3872483-5.3958421-3.1857878-4.6427166-3.1293527-10.7817934.1412483-15.3651579 1.4942238-2.1055923 3.5679038-3.7318104 5.969-4.681l17.047-6.761 2.3 5.791c.1954831.4939777.5794671.8898846 1.0672382 1.1003766.4877712.2104921 1.0392469.218272 1.5327618.0216234l2.73-1.083c.4933177-.1964419.8882687-.5809954 1.0977986-1.0688981s.2164379-1.0391013.0192014-1.5321019l-2.3-5.791zm-3.223 1.279 2.3 5.791-2.73 1.083-2.3-5.79zm-20.839 6.113-2-2.824 2.584-7.68 4.716-1.388 5.84 4.386c-.0667579 1.104553-.2286917 2.2012867-.484 3.278zm8.313-18.7c1.6457087 2.6168325 2.6170126 5.6008349 2.827 8.685l-4.472-3.359zm-1.464-2.03-2.141 6.929-4.725 1.39-6.788-4.771v-4.961l5.962-4.19c3.0020868 1.17708818 5.6509477 3.1065691 7.692 5.603zm-21.616-5.603 5.962 4.19v4.961l-6.788 4.771-4.725-1.39-2.141-6.929c2.04105234-2.4964309 4.6899132-4.42591182 7.692-5.603z" fill="#000" fill-rule="nonzero"/><path id="Shape" d="m29.338 35.495c-3.6796751 1.4581466-6.1184994 4.9894814-6.1790628 8.9470731-.0605633 3.9575918 2.2690637 7.5618986 5.9023979 9.1319567 3.6333343 1.5700582 7.8547042.7966073 10.6953622-1.9596333 2.840658-2.7562405 3.7410691-6.9523637 2.2813027-10.6313965-.9425864-2.4228665-2.816483-4.36716-5.2029572-5.3984175s-5.0866084-1.0635216-7.4970428-.0895825zm6.477 16.332c-3.9962824 1.5834872-8.5196176-.3721203-10.1036496-4.3681868s.3709588-8.5196683 4.3668093-10.104245c3.9958506-1.5845768 8.5197188.3697974 10.1048403 4.3654318 1.5815525 3.9971111-.3730877 8.5199015-4.368 10.107z" fill="#000" fill-rule="nonzero"/></g></g></svg>