<svg height="512" viewBox="0 0 54 60" width="512" xmlns="http://www.w3.org/2000/svg"><g id="Page-1" fill="none" fill-rule="evenodd"><g id="021---Red-Yellow-Card" transform="translate(-1)"><path id="Path" d="m45.96 49c-.1450695.6733825-.6420091 1.2161934-1.3 1.42l-27.17 8.49c-.4800258.1530236-1.0012704.1081605-1.448089-.1246357s-.7822631-.6342755-.931911-1.1153643l-13.02-41.67c-.15416881-.4786794-.10969596-.9992145.12343941-1.4448039.23313537-.4455893.6354107-.7789197 1.11656059-.9251961l17.67-5.53v38.9c.0032948 1.1032019.8967981 1.9967052 2 2z" fill="#ffdf00"/><path id="Path" d="m18 9.039v37.961c.0032948 1.1032019.8967981 1.9967052 2 2h3c-1.1032019-.0032948-1.9967052-.8967981-2-2v-38.9z" fill="#fec108"/><path id="Path" d="m42.96 49c-.1450695.6733825-.6420091 1.2161934-1.3 1.42l-25.975 8.117c.4944295.4286511 1.1759472.5698768 1.8.373l27.17-8.49c.659927-.2022825 1.1590379-.7453764 1.305-1.42z" fill="#fec108"/><rect id="Rectangle" fill="#f44335" height="48" rx="2" width="33" x="21" y="1"/><path id="Path" d="m52 1h-3c1.1032019.0032948 1.9967052.89679813 2 2v44c-.0032948 1.1032019-.8967981 1.9967052-2 2h3c1.1032019-.0032948 1.9967052-.8967981 2-2v-44c-.0032948-1.10320187-.8967981-1.9967052-2-2z" fill="#c81e1e"/><path id="Path" d="m7.856 22.045c-.43674007.0000266-.82297798-.2833765-.954-.7l-1.32-4.227c-.16498939-.5268668.12821293-1.0877562.655-1.253l4.3-1.345c.34101-.1071797.7132959-.0242911.9766213.2174424.2633253.2417334.3776847.6055868.3.9545s-.3356113.6298779-.6766213.7370576l-3.348 1.045 1.023 3.272c.09564079.304116.04054706.6356092-.14832232.8924399s-.48887799.4082173-.80767768.4075601z" fill="#fff"/><path id="Path" d="m25 10c-.5522847 0-1-.44771525-1-1v-4c0-.55228475.4477153-1 1-1h4c.5522847 0 1 .44771525 1 1s-.4477153 1-1 1h-3v3c0 .55228475-.4477153 1-1 1z" fill="#fff"/><path id="Shape" d="m15.58 59.672c.6808706.3572361 1.4764951.4267497 2.209.193l27.162-8.489c.7181713-.2208049 1.3208119-.7149845 1.678-1.376h5.371c1.6568542 0 3-1.3431458 3-3v-44c0-1.65685425-1.3431458-3-3-3h-29c-1.6568542 0-3 1.34314575-3 3v4.365l-16.958 5.307c-.73717242.2235296-1.35396764.7332497-1.71237604 1.415109-.35840839.6818593-.42851165 1.4789392-.19462396 2.212891l13.02 41.668c.2267216.7364109.7403192 1.3505655 1.425 1.704zm6.42-56.672c0-.55228475.4477153-1 1-1h29c.5522847 0 1 .44771525 1 1v44c0 .5522847-.4477153 1-1 1h-5.847c-.1319726-.0269388-.2680274-.0269388-.4 0h-22.753c-.5522847 0-1-.4477153-1-1zm-18.9 12.014c.11003784-.2089081.30026096-.3641187.527-.43l16.373-5.123v37.539c0 1.6568542 1.3431458 3 3 3h19.651l-25.465 7.958c-.2264928.0713738-.4720763.0497018-.6825691-.0602347-.2104927-.1099364-.3685968-.2991031-.4394309-.5257653l-13.022-41.672c-.07486083-.2270275-.05391517-.4747641.058-.686z" fill="#000" fill-rule="nonzero"/></g></g></svg>