<svg height="512" viewBox="0 0 53 60" width="512" xmlns="http://www.w3.org/2000/svg"><g id="Page-1" fill="none" fill-rule="evenodd"><g id="022---Strategy"><path id="Path" d="m35 11v14c-9.3849564.0093709-16.9906291 7.6150436-17 17-.0033266.1935488.0033489.3871401.02.58.0899867 2.9842819.9736398 5.8906725 2.56 8.42h-16.58c-1.65685425 0-3-1.3431458-3-3v-37c0-1.65685425 1.34314575-3 3-3h5v2c.0032948 1.1032019.89679813 1.9967052 2 2h14c1.1032019-.0032948 1.9967052-.8967981 2-2v-2h5c1.6568542 0 3 1.34314575 3 3z" fill="#ff9801"/><path id="Path" d="m8 12h3c-1.10320187-.0032948-1.9967052-.8967981-2-2v-2h-3v2c.0032948 1.1032019.89679813 1.9967052 2 2z" fill="#f57c00"/><path id="Path" d="m32 8h-3c1.6568542 0 3 1.34314575 3 3v14c-9.3849564.0093709-16.9906291 7.6150436-17 17-.0033266.1935488.0033489.3871401.02.58.0899867 2.9842819.9736398 5.8906725 2.56 8.42h3c-1.5863602-2.5293275-2.4700133-5.4357181-2.56-8.42-.0166511-.1928599-.0233266-.3864512-.02-.58-.0031867-4.5096565 1.7868563-8.8355248 4.9756658-12.0243342 3.1888094-3.1888095 7.5146777-4.9788525 12.0243342-4.9756658v-14c0-1.65685425-1.3431458-3-3-3z" fill="#f57c00"/><path id="Path" d="m27 6v4c-.0032948 1.1032019-.8967981 1.9967052-2 2h-14c-1.10320187-.0032948-1.9967052-.8967981-2-2v-4c.0032948-1.10320187.89679813-1.9967052 2-2h1v-1c.0032948-1.10320187.8967981-1.9967052 2-2h8c1.1032019.0032948 1.9967052.89679813 2 2v1h1c1.1032019.0032948 1.9967052.89679813 2 2z" fill="#9e9e9e"/><path id="Path" d="m25 4h-1v-1c-.0032948-1.10320187-.8967981-1.9967052-2-2h-3c1.1032019.0032948 1.9967052.89679813 2 2v1h1c1.1032019.0032948 1.9967052.89679813 2 2v4c-.0032948 1.1032019-.8967981 1.9967052-2 2h3c1.1032019-.0032948 1.9967052-.8967981 2-2v-4c-.0032948-1.10320187-.8967981-1.9967052-2-2z" fill="#707070"/><circle id="Oval" cx="10" cy="20" fill="#ffdf00" r="3"/><path id="Path" d="m13.77 35.995h-1.77v9c0 .5522847-.4477153 1-1 1h-2c-.55228475 0-1-.4477153-1-1v-9h-1.77c-.46905419-.0145356-.89214007-.2857562-1.10117163-.7059096-.20903157-.4201535-.17015998-.9212036.10117163-1.3040904l3.77-5.46c.22681578-.3286754.60065942-.5249094 1-.5249094.3993406 0 .7731842.196234 1 .5249094l3.77 5.46c.2713316.3828868.3102032.8839369.1011716 1.3040904-.2090315.4201534-.6321174.691374-1.1011716.7059096z" fill="#f44335"/><path id="Path" d="m52 42c.0033266.1935488-.0033489.3871401-.02.58-.171157 5.2244835-2.7396847 10.0787925-6.9628677 13.1592549-4.223183 3.0804623-9.6300431 4.0435384-14.6571323 2.6107451-3.9264483-1.1043174-7.3215922-3.5903015-9.56-7-.08-.11-.15-.23-.22-.35-1.5863602-2.5293275-2.4700133-5.4357181-2.56-8.42-.0166511-.1928599-.0233266-.3864512-.02-.58.0000002-9.3888406 7.6111594-16.9999996 17-16.9999996s16.9999998 7.611159 17 16.9999996z" fill="#f5f5f5"/><path id="Path" d="m48.4 31.553c-3.2148834-4.1366389-8.1609876-6.5554315-13.4-6.553-.506 0-1.006.023-1.5.066 1.4709017.1260417 2.9185539.4468455 4.305.954 6.7154345 2.449468 11.1866555 8.8317915 11.195 15.98 0 .2 0 .383-.017.578-.2465598 7.3826954-5.235637 13.7599179-12.342 15.776-1.0261441.2915345-2.0780136.4834228-3.141.573.495.043.994.073 1.5.073 9.1631877.0013468 16.6766616-7.2639343 16.983-16.422.017-.195.017-.378.017-.578.0035739-3.787188-1.2641244-7.4659782-3.6-10.447z" fill="#cfd8dc"/><g fill="#607d8b"><path id="Path" d="m52 42c.0033266.1935488-.0033489.3871401-.02.58l-5.67-4.26 2.09-6.77c2.3381691 2.9809285 3.6061081 6.6614736 3.6 10.45z"/><path id="Path" d="m48.74 52c-2.2298815 3.0828867-5.4370247 5.3208383-9.1 6.35l2.36-6.35z"/><path id="Path" d="m30.36 58.35c-3.6645646-1.0315232-6.8741768-3.2687392-9.11-6.35h6.75z"/><path id="Path" d="m23.69 38.32-5.67 4.26c-.0166511-.1928599-.0233266-.3864512-.02-.58-.0061081-3.7885264 1.2618309-7.4690715 3.6-10.45z"/><path id="Path" d="m40.81 26.02-5.81 4.08-5.81-4.08c3.7539513-1.3600091 7.8660487-1.3600091 11.62 0z"/><path id="Path" d="m41.47 39.75-2.48 7.25h-7.99l-2.47-7.25 6.47-4.55z"/></g><path id="Path" d="m52 42c.0033266.1935488-.0033489.3871401-.02.58l-3.07-2.31c-.1888168-1.8958968-.6994652-3.7457292-1.51-5.47l1-3.25c.14.18.28.37.41.55s.26.37.39.56c1.8312501 2.7703641 2.8051756 6.0191014 2.8 9.34z" fill="#37474f"/><path id="Path" d="m48.74 52c-.14.2-.29.39-.43.58-.06.07-.12.14-.17.2-.24.29-.49.57-.74.85-2.1070433 2.2525265-4.7908013 3.8849154-7.76 4.72l.53-1.43c2.2002531-1.2081692 4.1058256-2.8883513 5.58-4.92z" fill="#37474f"/><path id="Shape" d="m25 3c0-1.65685425-1.3431458-3-3-3h-8c-1.6568542 0-3 1.34314575-3 3-1.65685425 0-3 1.34314575-3 3v1h-4c-2.209139 0-4 1.790861-4 4v37c0 2.209139 1.790861 4 4 4h16.042c.113.169.238.327.356.491.0441092.0839219.0996376.161325.165.23 3.3868222 4.5815652 8.7472983 7.283547 14.44478 7.2809827 5.6974817-.0025644 11.0555234-2.7093706 14.43822-7.2939827.005 0 .008-.013.014-.019.192-.261.39-.516.569-.788 1.8196873-2.7460647 2.8409707-5.9435471 2.95-9.236.021-.225.021-.44.021-.665.0267565-9.5605887-7.4522675-17.4606377-17-17.957v-13.043c0-2.209139-1.790861-4-4-4h-4v-1c0-1.65685425-1.3431458-3-3-3zm-15 3c0-.55228475.4477153-1 1-1h1c.5522847 0 1-.44771525 1-1v-1c0-.55228475.4477153-1 1-1h8c.5522847 0 1 .44771525 1 1v1c0 .55228475.4477153 1 1 1h1c.5522847 0 1 .44771525 1 1v4c0 .5522847-.4477153 1-1 1h-14c-.5522847 0-1-.4477153-1-1zm25 20c1.1845488.0021694 2.3651671.1363306 3.52.4l-3.52 2.478-3.521-2.478c1.1552549-.2631797 2.3361497-.3973342 3.521-.4zm3.884 31.513c-2.5488796.6499998-5.2201204.6499998-7.769 0l-2.009-5.406 2.463-4.107h6.862l2.463 4.106zm-.604-11.513h-6.56l-2-5.866 5.28-3.712 5.28 3.712zm-9.217-18.85 4.937 3.47v4.061l-5.646 3.969-3.87-1.139-1.773-5.735c1.6951718-2.0510477 3.8797237-3.6420012 6.352-4.626zm-7.808 6.688 1.268 4.1-3.453 2.599c.2119397-2.3695902.9590467-4.6601487 2.185-6.699zm2.63 5.582 3.867 1.138 2.156 6.324-2.47 4.118h-5.653c-.047-.069-.1-.132-.146-.2-1.5228923-2.3128208-2.4153413-4.9832736-2.589-7.747zm-.504 13.58h3.924l1.369 3.684c-1.9978014-.8529323-3.7992992-2.1067993-5.293-3.684zm17.945 3.684 1.374-3.684h3.924c-1.4953293 1.5775667-3.2985342 2.8314373-5.298 3.684zm7.033-5.884c-.045.069-.1.131-.144.2h-5.653l-2.47-4.118 2.156-6.324 3.867-1.138 4.835 3.633c-.1719585 2.7643601-1.0652944 5.4354034-2.591 7.747zm.386-16.964c1.2260966 2.0391495 1.9732088 4.3300658 2.185 6.7l-3.453-2.595zm-1.456-2.061-1.773 5.735-3.87 1.139-5.646-3.968v-4.061l4.937-3.47c2.4721507.9842264 4.6566501 2.5751417 6.352 4.626zm-15.289-22.775c1.1045695 0 2 .8954305 2 2v13.043c-9.5340443.5259626-16.9964517 8.4084596-17 17.957 0 .225 0 .44.018.61.0824417 2.5688661.718605 5.0896417 1.865 7.39h-14.883c-1.1045695 0-2-.8954305-2-2v-37c0-1.1045695.8954305-2 2-2h4v1c0 1.6568542 1.34314575 3 3 3h14c1.6568542 0 3-1.3431458 3-3v-1z" fill="#000" fill-rule="nonzero"/><path id="Path" d="m13 9h10c.5522847 0 1-.44771525 1-1s-.4477153-1-1-1h-10c-.5522847 0-1 .44771525-1 1s.4477153 1 1 1z" fill="#000"/><path id="Shape" d="m10 24c2.209139 0 4-1.790861 4-4s-1.790861-4-4-4-4 1.790861-4 4 1.790861 4 4 4zm0-6c1.1045695 0 2 .8954305 2 2s-.8954305 2-2 2-2-.8954305-2-2 .8954305-2 2-2z" fill="#000" fill-rule="nonzero"/><path id="Shape" d="m11.823 27.957c-.413501-.599152-1.0950122-.9568681-1.823-.9568681-.72798777 0-1.40949902.3577161-1.823.9568681l-3.77 5.46c-.48812836.7056617-.54287269 1.6243639-.142 2.383.38000623.7351065 1.13748509 1.197689 1.965 1.2h.77v8c0 1.1045695.8954305 2 2 2h2c1.1045695 0 2-.8954305 2-2v-8h.77c.8275149-.002311 1.5849938-.4648935 1.965-1.2.3988376-.7573382.3441295-1.6735068-.142-2.378zm2.141 6.909c-.0333366.0776889-.1094635.1283093-.194.129h-1.77c-.5522847 0-1 .4477153-1 1v9h-2v-9c0-.5522847-.44771525-1-1-1h-1.77c-.08453652-.0006907-.16066336-.0513111-.194-.129-.0536257-.0992328-.04705783-.2201589.017-.313l3.77-5.46c.04013056-.0581987.10630661-.0929508.177-.0929508.0706934 0 .1368694.0347521.177.0929508l3.77 5.46c.0640578.0928411.0706257.2137672.017.313z" fill="#000" fill-rule="nonzero"/><path id="Path" d="m23.707 18.293c-.3904999-.3903819-1.0235001-.3903819-1.414 0l-2.293 2.293-2.293-2.293c-.3923789-.3789722-1.0160848-.3735524-1.4018186.0121814s-.3911536 1.0094397-.0121814 1.4018186l2.293 2.293-2.293 2.293c-.2599566.2510745-.3642126.6228779-.2726972.9725073.0915155.3496295.3645604.6226744.7141899.7141899.3496294.0915154.7214328-.0127406.9725073-.2726972l2.293-2.293 2.293 2.293c.3923789.3789722 1.0160848.3735524 1.4018186-.0121814s.3911536-1.0094397.0121814-1.4018186l-2.293-2.293 2.293-2.293c.3903819-.3904999.3903819-1.0235001 0-1.414z" fill="#000"/></g></g></svg>