<svg height="512" viewBox="0 0 58 60" width="512" xmlns="http://www.w3.org/2000/svg"><g id="Page-1" fill="none" fill-rule="evenodd"><g id="023---Presentation"><path id="Rectangle" d="m3 9h52v34h-52z" fill="#60a917"/><path id="Rectangle" d="m52 9h3v34h-3z" fill="#549414"/><rect id="Rectangle" fill="#9e9e9e" height="4" rx="1" width="56" x="1" y="5"/><path id="Path" d="m56 5h-3c.5522847 0 1 .44771525 1 1v2c0 .55228475-.4477153 1-1 1h3c.5522847 0 1-.44771525 1-1v-2c0-.55228475-.4477153-1-1-1z" fill="#707070"/><rect id="Rectangle" fill="#9e9e9e" height="4" rx="1" width="56" x="1" y="43"/><path id="Path" d="m56 43h-3c.5522847 0 1 .4477153 1 1v2c0 .5522847-.4477153 1-1 1h3c.5522847 0 1-.4477153 1-1v-2c0-.5522847-.4477153-1-1-1z" fill="#707070"/><path id="Path" d="m27 47h4v10c0 1.1045695-.8954305 2-2 2s-2-.8954305-2-2z" fill="#707070"/><path id="Path" d="m28 1h2c.5522847 0 1 .44771525 1 1v3h-4v-3c0-.55228475.4477153-1 1-1z" fill="#707070"/><path id="Path" d="m19.51 47-3.39 9.32c-.2668918.6773381-.1446437 1.4462021.3191669 2.0073597s1.1959142.825961 1.911385.691352c.7154709-.134609 1.301284-.6473657 1.5294481-1.3387117l3.88-10.68" fill="#707070"/><path id="Path" d="m38.49 47 3.39 9.32c.2668918.6773381.1446437 1.4462021-.3191669 2.0073597s-1.1959142.825961-1.911385.691352c-.7154709-.134609-1.301284-.6473657-1.5294481-1.3387117l-3.88-10.68" fill="#707070"/><g fill="#ffdf00"><circle id="Oval" cx="12" cy="36" r="3"/><circle id="Oval" cx="22" cy="36" r="3"/><circle id="Oval" cx="17" cy="24" r="3"/><circle id="Oval" cx="36" cy="36" r="3"/><circle id="Oval" cx="46" cy="36" r="3"/><circle id="Oval" cx="41" cy="24" r="3"/><circle id="Oval" cx="29" cy="16" r="3"/></g><path id="Shape" d="m0 44v2c0 1.1045695.8954305 2 2 2h16.082l-2.9 7.977c-.2781589.7487875-.2420984 1.5781802.1 2.3.514981 1.0983954 1.640796 1.7785317 2.8526689 1.7233769 1.2118728-.0551548 2.2712528-.8347437 2.6843311-1.9753769l3.641-10.025h1.54v9c0 1.6568542 1.3431458 3 3 3s3-1.3431458 3-3v-9h1.54l3.641 10.023c.3470911 1.03169 1.2257848 1.7944303 2.2960238 1.9930379 1.0702391.1986075 2.1640916-.1980814 2.8582331-1.0365467s.8796538-1.9871431.4847431-3.0014912l-2.902-7.978h16.082c1.1045695 0 2-.8954305 2-2v-2c0-1.1045695-.8954305-2-2-2v-32c1.1045695 0 2-.8954305 2-2v-2c0-1.1045695-.8954305-2-2-2h-24v-2c0-1.1045695-.8954305-2-2-2h-2c-1.1045695 0-2 .8954305-2 2v2h-24c-1.1045695 0-2 .8954305-2 2v2c0 1.1045695.8954305 2 2 2v32c-1.1045695 0-2 .8954305-2 2zm18.941 13.337c-.1363742.3823996-.4904123.6443953-.8959733.6630393-.4055611.018644-.7821435-.2097646-.9530267-.5780393-.1123361-.2387465-.1238691-.5126554-.032-.76l3.15-8.662h2.123zm11.059-.337c0 .5522847-.4477153 1-1 1s-1-.4477153-1-1v-9h2zm10.94-.337c.0918156.247012.0802813.5205928-.032.759-.1708031.3677354-.5467542.5959344-.9518123.5777419-.405058-.0181926-.7590383-.2791753-.8961877-.6607419l-3.393-9.339h2.123zm15.06-10.663h-54v-2h54zm-28-44h2v2h-2zm-26 4h54v2h-54zm2 4h50v32h-50z" fill="#000" fill-rule="nonzero"/><path id="Shape" d="m47 32.142v-1.142c0-1.1045695-.8954305-2-2-2h-3v-1.142c1.8873119-.483632 3.1498272-2.2589828 2.987103-4.2004686s-1.7031486-3.4819102-3.6446344-3.6446344-3.7168366 1.0997911-4.2004686 2.987103h-7.142v-3.142c1.9503067-.503567 3.2219252-2.3787867 2.9681188-4.3770005s-1.9538507-3.4959828-3.9681188-3.4959828-3.7143124 1.497769-3.9681188 3.4959828 1.0178121 3.8734335 2.9681188 4.3770005v3.142h-7.142c-.483632-1.8873119-2.2589828-3.1498272-4.2004686-2.987103s-3.4819102 1.7031486-3.6446344 3.6446344 1.0997911 3.7168366 2.987103 4.2004686v1.142h-3c-1.1045695 0-2 .8954305-2 2v1.142c-1.95030672.503567-3.22192521 2.3787867-2.96811879 4.3770005.25380643 1.9982138 1.95385067 3.4959828 3.96811879 3.4959828 2.0142681 0 3.7143124-1.497769 3.9681188-3.4959828s-1.0178121-3.8734335-2.9681188-4.3770005v-1.142h8v1.142c-1.9503067.503567-3.2219252 2.3787867-2.9681188 4.3770005s1.9538507 3.4959828 3.9681188 3.4959828 3.7143124-1.497769 3.9681188-3.4959828-1.0178121-3.8734335-2.9681188-4.3770005v-1.142c0-1.1045695-.8954305-2-2-2h-3v-1.142c1.3993145-.3658904 2.4921096-1.4586855 2.858-2.858h16.284c.3658904 1.3993145 1.4586855 2.4921096 2.858 2.858v1.142h-3c-1.1045695 0-2 .8954305-2 2v1.142c-1.9503067.503567-3.2219252 2.3787867-2.9681188 4.3770005s1.9538507 3.4959828 3.9681188 3.4959828 3.7143124-1.497769 3.9681188-3.4959828-1.0178121-3.8734335-2.9681188-4.3770005v-1.142h8v1.142c-1.9503067.503567-3.2219252 2.3787867-2.9681188 4.3770005s1.9538507 3.4959828 3.9681188 3.4959828 3.7143124-1.497769 3.9681188-3.4959828-1.0178121-3.8734335-2.9681188-4.3770005zm-33 3.858c0 1.1045695-.8954305 2-2 2s-2-.8954305-2-2 .8954305-2 2-2 2 .8954305 2 2zm10 0c0 1.1045695-.8954305 2-2 2s-2-.8954305-2-2 .8954305-2 2-2 2 .8954305 2 2zm14 0c0 1.1045695-.8954305 2-2 2s-2-.8954305-2-2 .8954305-2 2-2 2 .8954305 2 2zm-11-20c0-1.1045695.8954305-2 2-2s2 .8954305 2 2-.8954305 2-2 2-2-.8954305-2-2zm-10 10c-1.1045695 0-2-.8954305-2-2s.8954305-2 2-2 2 .8954305 2 2-.8954305 2-2 2zm22-2c0-1.1045695.8954305-2 2-2s2 .8954305 2 2-.8954305 2-2 2-2-.8954305-2-2zm7 14c-1.1045695 0-2-.8954305-2-2s.8954305-2 2-2 2 .8954305 2 2-.8954305 2-2 2z" fill="#000" fill-rule="nonzero"/></g></g></svg>