<svg height="512" viewBox="0 0 60 60" width="512" xmlns="http://www.w3.org/2000/svg"><g id="Page-1" fill="none" fill-rule="evenodd"><g id="024---Scoreboard"><path id="Path" d="m59 42v2c-.0032948 1.1032019-.8967981 1.9967052-2 2h-54c-1.10320187-.0032948-1.9967052-.8967981-2-2v-2z" fill="#7f8e94"/><path id="Path" d="m56 42v2c-.0032948 1.1032019-.8967981 1.9967052-2 2h3c1.1032019-.0032948 1.9967052-.8967981 2-2v-2z" fill="#545c60"/><path id="Path" d="m57 6h-54c-1.10320187.0032948-1.9967052.89679813-2 2v34h58v-34c-.0032948-1.10320187-.8967981-1.9967052-2-2z" fill="#00bcd4"/><path id="Path" d="m57 6h-3c1.1032019.0032948 1.9967052.89679813 2 2v34h3v-34c-.0032948-1.10320187-.8967981-1.9967052-2-2z" fill="#00838f"/><path id="Rectangle" d="m9 46h4v9h-4z" fill="#707070"/><path id="Path" d="m11 1c1.1045695 0 2 .8954305 2 2v3h-4v-3c0-1.1045695.8954305-2 2-2z" fill="#707070"/><path id="Path" d="m7 55h8c1.1045695 0 2 .8954305 2 2v1c0 .5522847-.4477153 1-1 1h-10c-.55228475 0-1-.4477153-1-1v-1c0-1.1045695.8954305-2 2-2z" fill="#9e9e9e"/><path id="Rectangle" d="m28 46h4v9h-4z" fill="#707070"/><path id="Path" d="m30 1c1.1045695 0 2 .8954305 2 2v3h-4v-3c0-1.1045695.8954305-2 2-2z" fill="#707070"/><path id="Path" d="m26 55h8c1.1045695 0 2 .8954305 2 2v1c0 .5522847-.4477153 1-1 1h-10c-.5522847 0-1-.4477153-1-1v-1c0-1.1045695.8954305-2 2-2z" fill="#9e9e9e"/><path id="Rectangle" d="m47 46h4v9h-4z" fill="#707070"/><path id="Path" d="m49 1c1.1045695 0 2 .8954305 2 2v3h-4v-3c0-1.1045695.8954305-2 2-2z" fill="#707070"/><path id="Path" d="m45 55h8c1.1045695 0 2 .8954305 2 2v1c0 .5522847-.4477153 1-1 1h-10c-.5522847 0-1-.4477153-1-1v-1c0-1.1045695.8954305-2 2-2z" fill="#9e9e9e"/><path id="Path" d="m5 13c-.4043959-.0000863-.76893405-.2437275-.92367798-.6173454-.15474393-.373618-.06922994-.8036603.21667798-1.0896546l2-2c.39237889-.37897221 1.01608478-.37355237 1.40181858.01218142.38573379.3857338.39115363 1.00943968.01218142 1.40181858l-2 2c-.18749273.1875494-.44180519.2929434-.707.293z" fill="#fff"/><path id="Path" d="m5 18c-.4043959-.0000863-.76893405-.2437275-.92367798-.6173454-.15474393-.373618-.06922994-.8036603.21667798-1.0896546l7-7c.3923789-.37897221 1.0160848-.37355237 1.4018186.01218142.3857338.3857338.3911536 1.00943968.0121814 1.40181858l-7 7c-.18749273.1875494-.44180519.2929434-.707.293z" fill="#fff"/><g fill="#000"><path id="Shape" d="m57 5h-5v-2c0-1.65685425-1.3431458-3-3-3s-3 1.34314575-3 3v2h-13v-2c0-1.65685425-1.3431458-3-3-3s-3 1.34314575-3 3v2h-13v-2c0-1.65685422-1.3431458-2.99999994-3-2.99999994-1.65685422 0-2.99999997 1.34314572-3 2.99999994v2h-5c-1.65685425 0-3 1.34314575-3 3v36c0 1.6568542 1.34314575 3 3 3h5v7h-1c-1.65685425 0-3 1.3431458-3 3v1c0 1.1045695.8954305 2 2 2h10c1.1045695 0 2-.8954305 2-2v-1c0-1.6568542-1.3431458-3-3-3h-1v-7h13v7h-1c-1.6568542 0-3 1.3431458-3 3v1c0 1.1045695.8954305 2 2 2h10c1.1045695 0 2-.8954305 2-2v-1c0-1.6568542-1.3431458-3-3-3h-1v-7h13v7h-1c-1.6568542 0-3 1.3431458-3 3v1c0 1.1045695.8954305 2 2 2h10c1.1045695 0 2-.8954305 2-2v-1c0-1.6568542-1.3431458-3-3-3h-1v-7h5c1.6568542 0 3-1.3431458 3-3v-36c0-1.65685425-1.3431458-3-3-3zm-9-2c0-.55228475.4477153-1 1-1s1 .44771525 1 1v2h-2zm-19 0c0-.55228475.4477153-1 1-1s1 .44771525 1 1v2h-2zm-19 0c0-.55228475.4477153-1 1-1s1 .44771525 1 1v2h-2zm-8 5c0-.55228475.44771525-1 1-1h54c.5522847 0 1 .44771525 1 1v33h-56zm14 49v1h-10v-1c0-.5522847.44771525-1 1-1h8c.5522847 0 1 .4477153 1 1zm-4-3h-2v-7h2zm23 3v1h-10v-1c0-.5522847.4477153-1 1-1h8c.5522847 0 1 .4477153 1 1zm-4-3h-2v-7h2zm23 3v1h-10v-1c0-.5522847.4477153-1 1-1h8c.5522847 0 1 .4477153 1 1zm-4-3h-2v-7h2zm7-9h-54c-.55228475 0-1-.4477153-1-1v-1h56v1c0 .5522847-.4477153 1-1 1z" fill-rule="nonzero"/><path id="Shape" d="m43.5 37c5.4 0 8.5-4.009 8.5-11s-3.1-11-8.5-11-8.5 4.009-8.5 11 3.1 11 8.5 11zm0-2c-1.5899423.0765162-3.1396137-.5143526-4.275-1.63l9.741-12.994c.7412272 1.7796443 1.0937591 3.6970905 1.034 5.624 0 4.106-1.128 9-6.5 9zm0-18c1.5899423-.0765162 3.1396137.5143526 4.275 1.63l-9.741 12.994c-.7412272-1.7796443-1.0937591-3.6970905-1.034-5.624 0-4.106 1.128-9 6.5-9z" fill-rule="nonzero"/><path id="Path" d="m17.5 35c-3.033 0-5.5-1.794-5.5-4 0-.5522847-.4477153-1-1-1s-1 .4477153-1 1c0 3.309 3.364 6 7.5 6s7.5-2.691 7.5-6c-.1004186-2.1621094-1.3945757-4.0890853-3.358-5 1.9634243-.9109147 3.2575814-2.8378906 3.358-5 0-3.309-3.364-6-7.5-6s-7.5 2.691-7.5 6c0 .5522847.4477153 1 1 1s1-.4477153 1-1c0-2.206 2.467-4 5.5-4s5.5 1.794 5.5 4-2.467 4-5.5 4h-1.5c-.5522847 0-1 .4477153-1 1s.4477153 1 1 1h1.5c3.033 0 5.5 1.794 5.5 4s-2.467 4-5.5 4z"/><circle id="Oval" cx="30" cy="23" r="1"/><circle id="Oval" cx="30" cy="29" r="1"/></g></g></g></svg>