<svg id="Capa_1" enable-background="new 0 0 512 512" height="512" viewBox="0 0 512 512" width="512" xmlns="http://www.w3.org/2000/svg"><g id="Page-1"><g id="_x30_25---Strategy-File"><g clip-rule="evenodd" fill-rule="evenodd"><path id="Path" d="m371.2 76.8v204.8c-34.194-.026-66.481 15.755-87.467 42.752-15.217 19.469-23.478 43.471-23.467 68.181 0 1.28 0 2.475.085 3.755.218 7.362 1.191 14.682 2.901 21.845h-216.319c-9.414-.028-17.039-7.653-17.067-17.067v-375.466c.028-9.414 7.653-17.039 17.067-17.067h256v51.2c.028 9.414 7.653 17.039 17.067 17.067z" fill="#f5f5f5"/><path id="Path_1_" d="m294.4 76.8h25.6c-9.414-.028-17.039-7.653-17.067-17.067v-51.2h-25.6v51.2c.028 9.414 7.653 17.039 17.067 17.067z" fill="#cfd8dc"/><path id="Path_2_" d="m345.6 76.8v204.8c-34.194-.026-66.481 15.755-87.467 42.752-15.217 19.469-23.478 43.471-23.467 68.181 0 1.28 0 2.475.085 3.755.218 7.362 1.191 14.682 2.901 21.845h25.6c-1.711-7.164-2.683-14.484-2.901-21.845-.085-1.28-.085-2.475-.085-3.755.049-46.645 29.224-88.294 73.045-104.277 12.136-4.443 24.964-6.696 37.888-6.656v-204.8z" fill="#cfd8dc"/><circle id="Oval" cx="89.6" cy="68.267" fill="#ffdf00" r="25.6"/><circle id="Oval_1_" cx="285.867" cy="128" fill="#ffdf00" r="25.6"/><circle id="Oval_2_" cx="115.2" cy="349.867" fill="#ffdf00" r="25.6"/><path id="Path_3_" d="m371.2 76.8h-51.2c-9.414-.028-17.039-7.653-17.067-17.067v-51.2z" fill="#cfd8dc"/><path id="Path_4_" d="m482.133 392.533c0 1.28 0 2.475-.085 3.755-.613 20.418-6.94 40.256-18.261 57.259-20.503 31.177-55.315 49.948-92.629 49.948s-72.126-18.771-92.629-49.948c-11.228-17.043-17.519-36.861-18.176-57.259-.085-1.28-.085-2.475-.085-3.755.049-46.645 29.224-88.294 73.045-104.277 45.191-16.442 95.828-1.861 125.355 36.096 15.215 19.469 23.477 43.471 23.465 68.181z" fill="#f5f5f5"/><path id="Path_5_" d="m458.667 324.361c-23.66-30.717-61.785-46.652-100.267-41.907 8.564.947 16.985 2.906 25.088 5.837 43.805 15.985 72.975 57.613 73.045 104.243 0 1.271 0 2.492-.111 3.772-1.609 48.176-34.165 89.79-80.538 102.946-5.723 1.621-11.572 2.763-17.485 3.413 4.248.513 8.521.781 12.8.802 59.795.01 108.825-47.4 110.822-107.162.111-1.28.111-2.5.111-3.772.033-24.71-8.23-48.717-23.465-68.172z" fill="#cfd8dc"/><path id="Path_6_" d="m340.907 499.285c-25.589-7.306-47.717-23.531-62.379-45.739-.171-.341-.427-.597-.597-.939l.597-.341h47.019z" fill="#607d8b"/><path id="Path_7_" d="m297.387 368.555-37.035 27.733c-.085-1.28-.085-2.475-.085-3.755-.011-24.71 8.25-48.713 23.467-68.181z" fill="#607d8b"/><path id="Path_8_" d="m409.088 288.256-37.888 26.624-37.888-26.624c24.479-8.875 51.297-8.875 75.776 0z" fill="#607d8b"/><path id="Path_9_" d="m413.44 377.856-16.213 48.811h-52.139l-16.128-48.811 42.24-29.696z" fill="#607d8b"/><path id="Path_10_" d="m482.133 392.533c0 1.28 0 2.475-.085 3.755l-37.035-27.733 13.653-44.203c15.217 19.469 23.479 43.471 23.467 68.181z" fill="#607d8b"/><path id="Path_11_" d="m464.384 452.608c-.171.341-.427.597-.597.939-14.611 22.22-36.718 38.452-62.293 45.739l15.36-47.019h46.933z" fill="#607d8b"/><path id="Path_12_" d="m482.133 392.533c0 1.28 0 2.475-.085 3.755l-26.795-20.053c-1.016-7.652-2.935-15.157-5.717-22.357l9.131-29.525c15.235 19.458 23.498 43.467 23.466 68.18z" fill="#37474f"/><path id="Path_13_" d="m464.384 452.608c-.171.341-.427.597-.597.939-14.611 22.22-36.718 38.452-62.293 45.739l4.523-13.739c12.802-8.351 23.752-19.243 32.171-32 .287-.407.544-.835.768-1.28h24.832z" fill="#37474f"/></g><path id="Shape" d="m46.933 426.667h209.835c11.589 39.049 42.316 69.477 81.476 80.683h.111l.205.068c21.322 6.051 43.907 6.051 65.229 0l.247-.085.128-.043c49.616-14.225 84.462-58.739 86.357-110.319.145-1.459.145-2.918.145-4.437.122-62.706-48.377-114.775-110.933-119.1v-196.634c-.236-2.177-.864-4.432-2.492-6.016l-68.266-68.267c-1.594-1.64-3.853-2.262-6.042-2.517h-256c-14.138 0-25.6 11.462-25.6 25.6v375.467c0 14.138 11.462 25.6 25.6 25.6zm324.267-136.534c6.065-.003 12.119.531 18.091 1.596l-18.091 12.715-18.091-12.715c5.972-1.061 12.026-1.594 18.091-1.596zm48.913 94.609 23.211-6.827 29.867 22.443c-1.122 15.28-5.684 30.108-13.346 43.375h-38.775l-14.276-18.679zm52.472-6.203-17.638-13.235 6.528-21.111c5.74 10.686 9.504 22.321 11.11 34.346zm-101.385 116.394c-7.962-.009-15.896-.954-23.637-2.816l-12.501-38.238 14.276-18.679h43.725l14.276 18.679-12.501 38.238c-7.742 1.863-15.676 2.809-23.638 2.816zm-88.636-51.2c-7.664-13.268-12.234-28.095-13.372-43.375l29.867-22.443 23.211 6.827 13.321 40.311-14.259 18.679h-38.768zm108.544-25.6h-39.817l-12.211-36.966 32.119-22.579 32.119 22.579zm-58.769-120.132 30.327 21.316v24.414l-35.2 24.747-23.287-6.827-10.88-35.191c10.525-12.5 23.92-22.264 39.04-28.459zm-51.413 46.2 6.528 21.103-17.638 13.235c1.603-12.022 5.367-23.655 11.11-34.338zm14.063 116.599h24.371l7.927 24.226c-12.277-5.835-23.26-14.073-32.298-24.226zm120.124 24.226 7.919-24.226h24.388c-9.043 10.152-20.028 18.39-32.307 24.226zm33.988-158.583-10.871 35.174-23.296 6.827-35.2-24.713v-24.414l30.327-21.333c15.122 6.192 28.517 15.957 39.04 28.459zm-137.634-297.31 39.134 39.134h-30.601c-4.713 0-8.533-3.821-8.533-8.533zm-273.067-3.533c0-4.713 3.821-8.533 8.533-8.533h247.467v42.667c0 14.138 11.462 25.6 25.6 25.6h42.667v188.1c-62.485 4.475-110.901 56.455-110.933 119.1 0 1.527 0 2.995.119 4.036.158 4.362.557 8.712 1.195 13.03h-206.115c-4.713 0-8.533-3.821-8.533-8.533z"/><path id="Shape_1_" d="m89.6 102.4c18.851 0 34.133-15.282 34.133-34.133s-15.282-34.134-34.133-34.134-34.133 15.282-34.133 34.134 15.282 34.133 34.133 34.133zm0-51.2c9.426 0 17.067 7.641 17.067 17.067s-7.641 17.066-17.067 17.066-17.067-7.641-17.067-17.067 7.641-17.066 17.067-17.066z"/><path id="Shape_2_" d="m285.867 162.133c18.851 0 34.133-15.282 34.133-34.133s-15.282-34.133-34.133-34.133-34.133 15.282-34.133 34.133c-.001 18.851 15.281 34.133 34.133 34.133zm0-51.2c9.426 0 17.067 7.641 17.067 17.067s-7.641 17.067-17.067 17.067-17.067-7.641-17.067-17.067 7.641-17.067 17.067-17.067z"/><path id="Shape_3_" d="m115.2 315.733c-18.851 0-34.133 15.282-34.133 34.133 0 18.852 15.282 34.134 34.133 34.134s34.133-15.282 34.133-34.133c0-18.852-15.282-34.134-34.133-34.134zm0 51.2c-9.426 0-17.067-7.641-17.067-17.067s7.641-17.067 17.067-17.067 17.067 7.641 17.067 17.067-7.641 17.067-17.067 17.067z"/><path id="Path_14_" clip-rule="evenodd" d="m245.7 279.1c3.332 3.331 8.734 3.331 12.066 0l19.567-19.567 19.567 19.567c3.348 3.234 8.671 3.188 11.962-.104 3.292-3.292 3.338-8.614.104-11.962l-19.567-19.567 19.567-19.567c3.234-3.348 3.188-8.671-.104-11.962-3.292-3.292-8.614-3.338-11.962-.104l-19.567 19.567-19.567-19.567c-3.348-3.234-8.671-3.188-11.962.104-3.292 3.292-3.338 8.614-.104 11.962l19.567 19.567-19.567 19.567c-3.331 3.332-3.331 8.733 0 12.066z" fill-rule="evenodd"/><path id="Path_15_" clip-rule="evenodd" d="m114.347 179.2c-10.924-14.471-16.61-32.222-16.128-50.347.318-4.598-3.073-8.618-7.659-9.079s-8.71 2.803-9.314 7.373c-.427 24.776 8.185 48.859 24.226 67.746-10.812 24.992-14.646 52.448-11.093 79.445l-7.305-7.305c-3.348-3.234-8.671-3.188-11.962.104-3.292 3.292-3.338 8.614-.104 11.962l25.6 25.6c4.051 4.014 11.044 2.867 13.653-2.219l17.067-34.133c2.107-4.218.395-9.345-3.823-11.452s-9.345-.395-11.452 3.823l-4.915 9.839c-2.43-20.952-.031-42.182 7.014-62.063 23.77 20.538 52.201 34.954 82.816 41.993l-12.8 6.409c-4.218 2.107-5.93 7.234-3.823 11.452s7.234 5.93 11.452 3.823l34.133-17.067c4.992-2.691 6.277-9.576 2.176-13.67l-25.6-25.6c-3.348-3.234-8.671-3.188-11.962.104-3.292 3.292-3.338 8.614-.104 11.962l4.267 4.267c-27.245-6.807-52.336-20.372-72.951-39.441 1.897-3.246 3.98-6.38 6.238-9.387 33.212-43.068 93.969-46.805 94.583-46.805 4.713-.236 8.342-4.247 8.107-8.96-.236-4.713-4.247-8.342-8.96-8.107-2.807.145-69.043 4.036-107.093 53.385-1.588 2.081-2.885 4.257-4.284 6.348z" fill-rule="evenodd"/></g></g></svg>