<svg height="512" viewBox="0 0 60 60" width="512" xmlns="http://www.w3.org/2000/svg"><g id="Page-1" fill="none" fill-rule="evenodd"><g id="026---Medical-Kit"><path id="Path" d="m43 15v18.35c-.488566.1129048-.9695214.2565234-1.44.43-4.7929071 1.7478055-8.1234414 6.1337908-8.52 11.22h-30.04c-1.10320187-.0032948-1.9967052-.8967981-2-2v-28c.0032948-1.1032019.89679813-1.9967052 2-2h38c1.1032019.0032948 1.9967052.8967981 2 2z" fill="#02a9f4"/><path id="Path" d="m41 13h-3c1.1032019.0032948 1.9967052.8967981 2 2v18.35c-.488566.1129048-.9695214.2565234-1.44.43-4.7929071 1.7478055-8.1234414 6.1337908-8.52 11.22h3c.3965586-5.0862092 3.7270929-9.4721945 8.52-11.22.4704786-.1734766.951434-.3170952 1.44-.43v-18.35c-.0032948-1.1032019-.8967981-1.9967052-2-2z" fill="#0377bc"/><path id="Path" d="m6 9h6c.5522847 0 1 .44771525 1 1v3h-8v-3c0-.55228475.44771525-1 1-1z" fill="#0377bc"/><path id="Path" d="m32 9h6c.5522847 0 1 .44771525 1 1v3h-8v-3c0-.55228475.4477153-1 1-1z" fill="#0377bc"/><path id="Path" d="m37 9v-5c-.0049422-1.6548028-1.3451972-2.9950578-3-3h-24c-1.6548028.0049422-2.9950578 1.3451972-3 3v5h4v-4h22v4z" fill="#02a9f4"/><path id="Path" d="m34 1h-3c1.6548028.0049422 2.9950578 1.3451972 3 3v5h3v-5c-.0049422-1.6548028-1.3451972-2.9950578-3-3z" fill="#0377bc"/><circle id="Oval" cx="22" cy="29" fill="#f5f5f5" r="12"/><path id="Path" d="m29 26h-4v-4c0-.5522847-.4477153-1-1-1h-4c-.5522847 0-1 .4477153-1 1v4h-4c-.5522847 0-1 .4477153-1 1v4c0 .5522847.4477153 1 1 1h4v4c0 .5522847.4477153 1 1 1h4c.5522847 0 1-.4477153 1-1v-4h4c.5522847 0 1-.4477153 1-1v-4c0-.5522847-.4477153-1-1-1z" fill="#f44335"/><path id="Path" d="m59 46c0 .15 0 .29-.01.44-.0718481 2.3927731-.81325 4.717449-2.14 6.71-2.402722 3.6535429-6.4821922 5.8532999-10.855 5.8532999s-8.452278-2.199757-10.855-5.8532999c-1.3157597-1.997177-2.0529822-4.3196009-2.13-6.71-.01-.15-.01-.29-.01-.44 0-.34.01-.67.04-1 .3965586-5.0862092 3.7270929-9.4721945 8.52-11.22.4704786-.1734766.951434-.3170952 1.44-.43 3.8680155-.9142041 7.9417361-.0098523 11.0595714 2.4551863 3.1178354 2.4650386 4.9376099 6.2202314 4.9404286 10.1948137z" fill="#f5f5f5"/><path id="Path" d="m56.25 38.011c-2.7726297-3.5996701-7.2404627-5.4670342-11.75-4.911 1.0035937.110976 1.9904853.3405794 2.94.684 5.1333678 1.873227 8.5516977 6.7515352 8.56 12.216 0 .149 0 .292-.013.442-.1886011 5.6455705-4.0037552 10.5222413-9.438 12.064-.6707205.1899456-1.356086.3237407-2.049.4.4977754.060163.998608.0915485 1.5.094 7.007218.001214 12.7529228-5.5546927 12.987-12.558.013-.15.013-.293.013-.442.0037307-2.8957991-.9646534-5.709043-2.75-7.989z" fill="#cfd8dc"/><g fill="#607d8b"><path id="Path" d="m42.45 58.51c-2.998678-.8561587-5.591787-2.7575355-7.31-5.36-.02-.04-.05-.07-.07-.11l.07-.04h5.51z"/><path id="Path" d="m37.35 43.19-4.34 3.25c-.01-.15-.01-.29-.01-.44-.0013293-2.8957037.9667805-5.7085027 2.75-7.99z"/><path id="Path" d="m50.44 33.78-4.44 3.12-4.44-3.12c2.8686498-1.0399935 6.0113502-1.0399935 8.88 0z"/><path id="Path" d="m50.95 44.28-1.9 5.72h-6.11l-1.89-5.72 4.95-3.48z"/><path id="Path" d="m59 46c0 .15 0 .29-.01.44l-4.34-3.25 1.6-5.18c1.7832195 2.2814973 2.7513293 5.0942963 2.75 7.99z"/><path id="Path" d="m56.92 53.04c-.02.04-.05.07-.07.11-1.7122155 2.6039031-4.3028659 4.5060793-7.3 5.36l1.8-5.51h5.5z"/></g><path id="Path" d="m59 46c0 .15 0 .29-.01.44l-3.14-2.35c-.119081-.8967282-.3439817-1.7761908-.67-2.62l1.07-3.46c1.7853514 2.2803391 2.7537224 5.093897 2.75 7.99z" fill="#37474f"/><path id="Path" d="m56.92 53.04c-.02.04-.05.07-.07.11-1.7122155 2.6039031-4.3028659 4.5060793-7.3 5.36l.53-1.61c1.5002106-.9786368 2.7833972-2.2550161 3.77-3.75.0336363-.0477263.0637174-.0978615.09-.15h2.91z" fill="#37474f"/><path id="Path" d="m5 21c-.55228475 0-1-.4477153-1-1v-3c0-.5522847.44771525-1 1-1h3c.55228475 0 1 .4477153 1 1s-.44771525 1-1 1h-2v2c0 .5522847-.44771525 1-1 1z" fill="#fff"/><path id="Shape" d="m50.783 32.841c-2.1707588-.7805208-4.5001134-1.0154137-6.783-.684v-17.157c0-1.6568542-1.3431458-3-3-3h-1v-2c0-1.1045695-.8954305-2-2-2v-4c0-2.209139-1.790861-4-4-4h-24c-2.209139 0-4 1.790861-4 4v4c-1.1045695 0-2 .8954305-2 2v2h-1c-1.65685425 0-3 1.3431458-3 3v28c0 1.6568542 1.34314575 3 3 3h29c0 .178 0 .349.014.474.2007642 6.0652723 4.2903133 11.3088951 10.124 12.981h.013l.024.008c2.4986689.7090714 5.1453311.7090714 7.644 0l.03-.01h.013c5.8142914-1.6667436 9.8979989-6.8826398 10.121-12.927.017-.177.017-.348.017-.526-.0061797-5.8860097-3.6874627-11.1417332-9.217-13.159zm5.605 19.159h-4.544l-1.673-2.19 1.561-4.723 2.72-.8 3.5 2.63c-.1314802 1.7905718-.6661459 3.5282355-1.564 5.083zm-10.388-3h-2.332l-1.432-4.332 3.764-2.646 3.764 2.646-1.432 4.332zm-5.844 3h-4.544c-.897189-1.5551908-1.4324431-3.292545-1.566-5.083l3.5-2.63 2.72.8 1.561 4.723zm1.29-17.078 3.554 2.498v2.861l-4.125 2.9-2.73-.8-1.275-4.127c1.2340396-1.4637294 2.804089-2.606956 4.576-3.332zm-6.025 5.414.765 2.473-2.066 1.551c.1871556-1.4088814.627936-2.7722177 1.301-4.024zm20.393 2.473.765-2.474c.6720989 1.2524691 1.1124988 2.6160148 1.3 4.025zm-.685-4.554-1.274 4.122-2.73.8-4.125-2.896v-2.861l3.554-2.5c1.7720784.7256558 3.3418859 1.8699854 4.575 3.335zm-9.129-4.255c.710777.0001827 1.4201661.0627561 2.12.187l-2.12 1.49-2.12-1.49c.6998278-.1242899 1.409221-.1868637 2.12-.187zm-32-22v-2c0-1.1045695-.8954305-2-2-2v-2h20v2c-1.1045695 0-2 .8954305-2 2v2zm18-2h6v2h-6zm-24-6c0-1.1045695.8954305-2 2-2h24c1.1045695 0 2 .8954305 2 2v4h-2v-3c0-.55228475-.4477153-1-1-1h-22c-.5522847 0-1 .44771525-1 1v3h-2zm-2 6h6v2h-6zm-3 34c-.55228475 0-1-.4477153-1-1v-28c0-.5522847.44771525-1 1-1h38c.5522847 0 1 .4477153 1 1v17.594c-.261.078-.524.152-.779.245-4.8486608 1.7654811-8.3339736 6.0538259-9.071 11.161zm34.069 10h2.857l.928 2.839c-1.4389745-.6834484-2.7260773-1.6488605-3.785-2.839zm6.16 3.669-1.465-4.479 1.674-2.19h5.124l1.674 2.19-1.466 4.48c-1.8221671.4286667-3.7189877.4283244-5.541-.001zm7.917-.83.928-2.839h2.858c-1.0596212 1.1898055-2.3469771 2.1551525-3.786 2.839z" fill="#000" fill-rule="nonzero"/><path id="Shape" d="m22 16c-7.1797017 0-13 5.8202983-13 13s5.8202983 13 13 13 13-5.8202983 13-13c-.008266-7.1762751-5.8237249-12.991734-13-13zm0 24c-6.0751322 0-11-4.9248678-11-11s4.9248678-11 11-11 11 4.9248678 11 11c-.0071635 6.0721626-4.9278374 10.9928365-11 11z" fill="#000" fill-rule="nonzero"/><path id="Shape" d="m29 25h-3v-3c0-1.1045695-.8954305-2-2-2h-4c-1.1045695 0-2 .8954305-2 2v3h-3c-1.1045695 0-2 .8954305-2 2v4c0 1.1045695.8954305 2 2 2h3v3c0 1.1045695.8954305 2 2 2h4c1.1045695 0 2-.8954305 2-2v-3h3c1.1045695 0 2-.8954305 2-2v-4c0-1.1045695-.8954305-2-2-2zm0 6h-4c-.5522847 0-1 .4477153-1 1v4h-4v-4c0-.5522847-.4477153-1-1-1h-4v-4h4c.5522847 0 1-.4477153 1-1v-4h4v4c0 .5522847.4477153 1 1 1h4z" fill="#000" fill-rule="nonzero"/></g></g></svg>