<svg height="512" viewBox="0 0 38 60" width="512" xmlns="http://www.w3.org/2000/svg"><g id="Page-1" fill="none" fill-rule="evenodd"><g id="027---Red-Card"><path id="Path" d="m37 4v34c0 1.6568542-1.3431458 3-3 3h-3.45l-.3-.24c-2.0293831-1.5170524-3.2319694-3.8963231-3.25-6.43v-10.83c-.0047443-2.4330464-1.9381376-4.4239549-4.37-4.5-1.2386589.0102987-2.4224588.512391-3.2908191 1.3957553-.8683602.8833643-1.3501012 2.0755911-1.3391809 3.3142447v17.29h-7c-1.65685425 0-3-1.3431458-3-3v-34c0-1.65685425 1.34314575-3 3-3h23c1.6568542 0 3 1.34314575 3 3z" fill="#ffdf00"/><path id="Path" d="m19.63 19c-1.2386589.0102987-2.4224588.512391-3.2908191 1.3957553-.8683602.8833643-1.3501012 2.0755911-1.3391809 3.3142447v17.29h3v-17.29c.008907-1.9557253 1.2095197-3.7083028 3.03-4.423-.4486354-.1688149-.9211289-.2656761-1.4-.287z" fill="#fec108"/><path id="Path" d="m34 1h-3c1.6568542 0 3 1.34314575 3 3v34c0 1.6568542-1.3431458 3-3 3h3c1.6568542 0 3-1.3431458 3-3v-34c0-1.65685425-1.3431458-3-3-3z" fill="#fec108"/><path id="Path" d="m34.94 51.48c.0023921 1.9951604-.7891231 3.909292-2.1999156 5.3200844-1.4107924 1.4107925-3.324924 2.2023077-5.3200844 2.1999156h-13.32c-1.9728477.0037036-3.8549626-.828351-5.18-2.29l-6.1-6.71c-1.1715141-1.2888961-1.82043585-2.9682485-1.82-4.71v-10.65c-.00110199-2.28422 1.11567824-4.4244042 2.99-5.73l4.01-2.81v11.9c0 1.6568542 1.34314575 3 3 3h7v-17.29c-.0109203-1.2386536.4708207-2.4308804 1.3391809-3.3142447.8683603-.8833643 2.0521602-1.3854566 3.2908191-1.3957553 2.4318624.0760451 4.3652557 2.0669536 4.37 4.5v10.83c.0180306 2.5336769 1.2206169 4.9129476 3.25 6.43l.3.24c1.0021763.7976684 1.8786506 1.7415638 2.6 2.8v.01c1.4616735 2.2744389 2.093909 4.9835151 1.79 7.67z" fill="#ffe0b2"/><path id="Path" d="m5 28.2v9.8c0 1.6568542 1.34314575 3 3 3h3c-1.65685425 0-3-1.3431458-3-3v-11.9z" fill="#dfc49c"/><path id="Path" d="m33.15 43.81v-.01c-.7213494-1.0584362-1.5978237-2.0023316-2.6-2.8l-.3-.24c-2.0293831-1.5170524-3.2319694-3.8963231-3.25-6.43v-10.83c-.0047443-2.4330464-1.9381376-4.4239549-4.37-4.5-.5469838-.0100608-1.0906145.087453-1.6.287 1.7857509.6291071 2.9775452 2.3196894 2.97 4.213v10.83c.0180306 2.5336769 1.2206169 4.9129476 3.25 6.43l.3.24c1.0021763.7976684 1.8786506 1.7415638 2.6 2.8v.01c1.4616735 2.2744389 2.093909 4.9835151 1.79 7.67.0023921 1.9951604-.7891231 3.909292-2.1999156 5.3200844-1.4107924 1.4107925-3.324924 2.2023077-5.3200844 2.1999156h3c1.9951604.0023921 3.909292-.7891231 5.3200844-2.1999156 1.4107925-1.4107924 2.2023077-3.324924 2.1999156-5.3200844.303909-2.6864849-.3283265-5.3955611-1.79-7.67z" fill="#dfc49c"/><path id="Path" d="m12 9c-.5522847 0-1-.44771525-1-1v-3c0-.55228475.4477153-1 1-1h3c.5522847 0 1 .44771525 1 1s-.4477153 1-1 1h-2v2c0 .55228475-.4477153 1-1 1z" fill="#fff"/><path id="Shape" d="m34.005 42c2.2071861-.002759 3.9950017-1.7928121 3.995-4v-34c0-2.209139-1.790861-4-4-4h-23c-2.209139 0-4 1.790861-4 4v21.58l-3.581 2.51c-2.14174855 1.4932642-3.41842497 3.939076-3.419 6.55v10.65c-.00053367 1.9906224.74109358 3.9099395 2.08 5.383l6.1 6.708c1.51569931 1.6687843 3.6656299 2.6199107 5.92 2.619h13.32c4.6713417.0062424 8.4736188-3.7558556 8.517-8.427.3178942-2.8790784-.3520688-5.7807234-1.9-8.229-.021369-.0406709-.0450753-.0800702-.071-.118-.315-.449-.633-.847-.957-1.226h.992zm-.065 9.48c-.0038581 3.5992973-2.9207027 6.5161419-6.52 6.52h-13.32c-1.6907101.0015969-3.3033576-.7113822-4.44-1.963l-6.1-6.709c-1.00435391-1.1049868-1.56058691-2.5447745-1.56-4.038v-10.65c.00082187-1.9576273.95818506-3.7913288 2.564-4.911l2.436-1.707v9.978c0 2.209139 1.790861 4 4 4h6v2c0 .5522847.4477153 1 1 1s1-.4477153 1-1v-20.286c.0060995-1.0282186.4251674-2.010848 1.163-2.727.6460252-.6441297 1.524815-1.000045 2.437-.987 1.892011.0582734 3.3965804 1.6070949 3.4 3.5v10.827c.0080167 2.8499148 1.3591771 5.5292591 3.646 7.23 1.0192554.7633942 1.9072359 1.6878532 2.629 2.737.013.023.027.045.04.067 1.34582 2.1148513 1.9198528 4.6296448 1.625 7.119zm-3.04-11.48c-.015-.012-.027-.024-.043-.035-1.787627-1.3240724-2.8463933-3.4134404-2.857-5.638v-10.827c-.0019387-2.9760162-2.3682875-5.4118984-5.343-5.5-1.4530212-.0350305-2.8572403.5252843-3.887 1.551-1.1254032 1.093466-1.763338 2.5938742-1.77 4.163v16.286h-6c-1.1045695 0-2-.8954305-2-2v-34c0-1.1045695.8954305-2 2-2h23c1.1045695 0 2 .8954305 2 2v34c0 1.1045695-.8954305 2-2 2z" fill="#000" fill-rule="nonzero"/></g></g></svg>