<svg height="512" viewBox="0 0 60 53" width="512" xmlns="http://www.w3.org/2000/svg"><g id="Page-1" fill="none" fill-rule="evenodd"><g id="028---Conversation"><path id="Path" d="m47 33c0 10.49-10.3 19-23 19-3.7569354.0196151-7.4753465-.7574681-10.91-2.28-5.28 2.28-12.09 2.2803623-12.09 2.2803623 2.24291207-1.8607819 4.10680975-4.135484 5.49-6.7003623-3.43746514-3.1749797-5.42195646-7.6211078-5.49-12.3 0-10.49 10.3-19 23-19 1.7181114-.0045809 3.432678.1561597 5.12.48 6.99 1.31 12.77 5.25 15.73 10.5 1.4007998 2.4413346 2.1417749 5.2053443 2.15 8.02z" fill="#60a917"/><path id="Path" d="m44.85 24.98c-2.96-5.25-8.74-9.19-15.73-10.5-1.687322-.3238403-3.4018886-.4845809-5.12-.48-.5 0-1 .018-1.488.044 1.2113311.0613849 2.4169154.2070708 3.608.436 6.99 1.31 12.77 5.25 15.73 10.5 1.4007998 2.4413346 2.1417749 5.2053443 2.15 8.02 0 10.082-9.515 18.33-21.53 18.957.506.0286667 1.016.043 1.53.043 12.7 0 23-8.51 23-19-.0082251-2.8146557-.7492002-5.5786654-2.15-8.02z" fill="#549414"/><path id="Path" d="m59 25c-2.6923157-.0323665-5.3598295-.5192132-7.89-1.44-1.9823722.8518589-4.1040966 1.3331447-6.26 1.42-2.96-5.25-8.74-9.19-15.73-10.5-.0804778-.4925739-.1206111-.9908955-.12-1.49 0-6.62 6.72-11.99 15-11.99s15 5.37 15 11.99c-.0534594 2.9797217-1.351701 5.80104-3.58 7.78.9109334 1.6265987 2.1263649 3.0627091 3.58 4.23z" fill="#00bcd4"/><path id="Path" d="m55.42 20.77c2.228299-1.97896 3.5265406-4.8002783 3.58-7.78 0-6.62-6.72-11.99-15-11.99-.506 0-1.006.02033333-1.5.061 7.576.602 13.5 5.714 13.5 11.929-.0370173 2.7083131-1.1202767 5.2973138-3.023 7.225-.3297589.3347878-.3856746.8525254-.135 1.25.78454 1.2268079 1.7478221 2.3296277 2.858 3.272 1.0934375.156413 2.1955911.2442513 3.3.263-1.4536351-1.1672909-2.6690666-2.6034013-3.58-4.23z" fill="#00838f"/><path id="Path" d="m37 33c0 .15 0 .29-.01.44-.0718481 2.3927731-.81325 4.717449-2.14 6.71-2.402722 3.6535429-6.4821922 5.8532999-10.855 5.8532999s-8.452278-2.199757-10.855-5.8532999c-1.3157597-1.997177-2.0529822-4.3196009-2.13-6.71-.01-.15-.01-.29-.01-.44 0-.34.01-.67.04-1 .3965586-5.0862092 3.7270929-9.4721945 8.52-11.22.4704786-.1734766.951434-.3170952 1.44-.43 3.8680155-.9142041 7.9417361-.0098523 11.0595714 2.4551863 3.1178354 2.4650386 4.9376099 6.2202314 4.9404286 10.1948137z" fill="#f5f5f5"/><path id="Path" d="m34.25 25.011c-2.7726297-3.5996701-7.2404627-5.4670342-11.75-4.911 1.0035937.110976 1.9904853.3405794 2.94.684 5.1333678 1.873227 8.5516977 6.7515352 8.56 12.216 0 .149 0 .292-.013.442-.1886011 5.6455705-4.0037552 10.5222413-9.438 12.064-.6707205.1899456-1.356086.3237407-2.049.4.4977754.060163.998608.0915485 1.5.094 7.007218.001214 12.7529228-5.5546927 12.987-12.558.013-.15.013-.293.013-.442.0037307-2.8957991-.9646534-5.709043-2.75-7.989z" fill="#cfd8dc"/><g fill="#607d8b"><path id="Path" d="m20.45 45.51c-2.998678-.8561587-5.591787-2.7575355-7.31-5.36-.02-.04-.05-.07-.07-.11l.07-.04h5.51z"/><path id="Path" d="m15.35 30.19-4.34 3.25c-.01-.15-.01-.29-.01-.44-.0013293-2.8957037.9667805-5.7085027 2.75-7.99z"/><path id="Path" d="m28.44 20.78-4.44 3.12-4.44-3.12c2.8686498-1.0399935 6.0113502-1.0399935 8.88 0z"/><path id="Path" d="m28.95 31.28-1.9 5.72h-6.11l-1.89-5.72 4.95-3.48z"/><path id="Path" d="m37 33c0 .15 0 .29-.01.44l-4.34-3.25 1.6-5.18c1.7832195 2.2814973 2.7513293 5.0942963 2.75 7.99z"/><path id="Path" d="m34.92 40.04c-.02.04-.05.07-.07.11-1.7122155 2.6039031-4.3028659 4.5060793-7.3 5.36l1.8-5.51h5.5z"/></g><path id="Path" d="m37 33c0 .15 0 .29-.01.44l-3.14-2.35c-.119081-.8967282-.3439817-1.7761908-.67-2.62l1.07-3.46c1.7853514 2.2803391 2.7537224 5.093897 2.75 7.99z" fill="#37474f"/><path id="Path" d="m34.92 40.04c-.02.04-.05.07-.07.11-1.7122155 2.6039031-4.3028659 4.5060793-7.3 5.36l.53-1.61c1.5002106-.9786368 2.7833972-2.2550161 3.77-3.75.0336363-.0477263.0637174-.0978615.09-.15h2.91z" fill="#37474f"/><path id="Shape" d="m56.682 20.925c2.0891879-2.1172882 3.2781835-4.9607723 3.318-7.935 0-7.163-7.178-12.99-16-12.99s-16 5.827-16 12.99c0 .1.009.2.012.295-1.3290359-.1885834-2.6696518-.2838166-4.012-.285-13.233 0-24 8.972-24 20 .05722403 4.6796266 1.93831779 9.1522023 5.243 12.466-1.26938926 2.1912444-2.91800999 4.139522-4.869 5.754-.33108956.265627-.45840823.7113343-.31758206 1.1117665s.51910829.6683271.94358206.6682335c4.12105433-.0485328 8.2046278-.7895256 12.08-2.192 3.4551914 1.4587603 7.1695098 2.2043451 10.92 2.192 13.233 0 24-8.972 24-20-.0045297-2.4707317-.5478186-4.9107543-1.592-7.15 1.6174553-.1915937 3.2021087-.5981824 4.712-1.209 2.5378333.8685799 5.1978319 1.3273284 7.88 1.359.4272105.0002593.8074047-.2709002.9462886-.6749053.1388838-.4040051.0057806-.8516196-.3312886-1.1140947-1.1549197-.9232136-2.1464052-2.0340289-2.933-3.286zm-32.682 30.075c-3.6151476.0153007-7.192922-.7316023-10.5-2.192-.2564985-.1155691-.5498135-.1177472-.808-.006-2.87544062 1.1290903-5.90428924 1.8194723-8.985 2.048 1.42445074-1.5312389 2.65349762-3.2332286 3.659-5.067.21701681-.3950775.14289246-.8865096-.181-1.2-3.23964886-2.9894502-5.11343838-7.1753911-5.185-11.583 0-9.925 9.869-18 22-18s22 8.075 22 18-9.869 18-22 18zm27.5-28.362c-.2513366-.1061438-.5353153-.1039733-.785.006-1.6944142.719288-3.4959885 1.1538012-5.332 1.286-3.083-5.03-8.643-8.83-15.33-10.285-.017-.217-.053-.431-.053-.655 0-6.06 6.28-10.99 14-10.99s14 4.93 14 10.99c-.0583085 2.7021027-1.2413348 5.2573526-3.264 7.05-.337811.316764-.4139418.8240267-.184 1.226.5140622.9019011 1.1106138 1.7542134 1.782 2.546-1.6560205-.1766449-3.2814291-.5713966-4.834-1.174z" fill="#000" fill-rule="nonzero"/><path id="Shape" d="m28.783 19.841c-4.2921021-1.5567819-9.0736012-.9239662-12.812957 1.6957529-3.7393559 2.6197191-5.9672378 6.8975376-5.970043 11.4632471 0 .178 0 .349.014.474.2007642 6.0652723 4.2903133 11.3088951 10.124 12.981h.013l.024.008c2.4986689.7090714 5.1453311.7090714 7.644 0l.03-.01h.013c5.8142914-1.6667436 9.8979989-6.8826398 10.121-12.927.017-.177.017-.348.017-.526-.0061797-5.8860097-3.6874627-11.1417332-9.217-13.159zm5.605 19.159h-4.544l-1.673-2.19 1.561-4.723 2.72-.8 3.5 2.63c-.1314802 1.7905718-.6661459 3.5282355-1.564 5.083zm-10.388 6c-.9330734-.0010958-1.8627844-.1118556-2.77-.33l-1.466-4.48 1.674-2.19h5.124l1.674 2.19-1.466 4.48c-.907173.2183819-1.8369122.329145-2.77.33zm-10.388-6c-.897189-1.5551908-1.4324431-3.292545-1.566-5.083l3.5-2.63 2.72.8 1.561 4.723-1.671 2.19zm-.191-11.664.765 2.473-2.066 1.551c.1871556-1.4088814.627936-2.7722177 1.301-4.024zm10.579-6.336c.710777.0001827 1.4201661.0627561 2.12.187l-2.12 1.49-2.12-1.49c.6998278-.1242899 1.409221-.1868637 2.12-.187zm0 8.022 3.764 2.646-1.432 4.332h-4.664l-1.432-4.332zm9.814.787.765-2.474c.6720989 1.2524691 1.1124988 2.6160148 1.3 4.025zm-.685-4.554-1.274 4.122-2.73.8-4.125-2.896v-2.861l3.554-2.5c1.7720784.7256558 3.3418859 1.8699854 4.575 3.335zm-13.683-3.333 3.554 2.498v2.861l-4.125 2.9-2.73-.8-1.275-4.127c1.2340396-1.4637294 2.804089-2.606956 4.576-3.332zm-4.377 19.078h2.857l.928 2.839c-1.4389745-.6834484-2.7260773-1.6488605-3.785-2.839zm14.077 2.839.928-2.839h2.858c-1.0596212 1.1898055-2.3469771 2.1551525-3.786 2.839z" fill="#000" fill-rule="nonzero"/><circle id="Oval" cx="38" cy="13" fill="#000" r="1"/><circle id="Oval" cx="44" cy="13" fill="#000" r="1"/><circle id="Oval" cx="50" cy="13" fill="#000" r="1"/></g></g></svg>