<svg height="512" viewBox="0 0 54 60" width="512" xmlns="http://www.w3.org/2000/svg"><g id="Page-1" fill="none" fill-rule="evenodd"><g id="029---Beers"><path id="Path" d="m16.75 53.99h-10.76c-1.10067601.0000138-1.99449662-.8893377-2-1.99-.01-1.04-.02-2.04-.04-3h.05c2.61417554-.6675201 5.30194799-1.0034916 8-1 0 0 .9 0 2.17.07.285839 1.8147253.9576167 3.5470252 1.97 5.08.1886199.290395.3922288.5707744.61.84z" fill="#00bcd4"/><path id="Path" d="m16.14 53.15c-1.0123833-1.5329748-1.684161-3.2652747-1.97-5.08-1.27-.07-2.17-.07-2.17-.07s-.581 0-1.457.04c.2.008.4.018.627.03.285839 1.8147253.9576167 3.5470252 1.97 5.08.1886199.290395.3922288.5707744.61.84h3c-.2177712-.2692256-.4213801-.549605-.61-.84z" fill="#00838f"/><path id="Path" d="m22.99 9s0 2.24-.19 6c-.18 3.74-.56 8.97-1.31 15-.18 1.48-.36 2.96-.52 4.48-4.2802635 2.2499201-6.9632951 6.6844286-6.97 11.52 0 .15 0 .29.01.44.0176421.5462469.0710901 1.0907487.16 1.63-1.27-.07-2.17-.07-2.17-.07-2.69805201-.0034916-5.38582446.3324799-8 1h-.05c-.12464523-6.3556098-.60875204-12.6990783-1.45-19-.75-6.03-1.12-11.26-1.31-15-.19-3.76-.19-6-.19-6h5v8c0 1.1045695.8954305 2 2 2s2-.8954305 2-2v-8z" fill="#ffdf00"/><path id="Path" d="m9 48c-1.69444872.0169025-3.38627606.1374611-5.066.361 0 .214.011.422.016.639h.05c2.13364818-.5858274 4.33099463-.9082258 6.543-.96-.926-.04-1.543-.04-1.543-.04z" fill="#fec108"/><path id="Path" d="m5 19c.57677593-.0028239 1.12398274-.2556335 1.5-.693-.31995839-.3604295-.4977008-.8250482-.5-1.307v-8h-3v8c.0032948 1.1032019.89679813 1.9967052 2 2z" fill="#fec108"/><path id="Path" d="m19.99 9s0 2.24-.19 6c-.18 3.74-.56 8.97-1.31 15-.18 1.48-.36 2.96-.52 4.48-4.2802635 2.2499201-6.9632951 6.6844286-6.97 11.52 0 .15 0 .29.01.44.0178872.5280229.0689882 1.0543966.153 1.576.52-.016.837-.016.837-.016s.9 0 2.17.07c-.0889099-.5392513-.1423579-1.0837531-.16-1.63-.01-.15-.01-.29-.01-.44.0067049-4.8355714 2.6897365-9.2700799 6.97-11.52.16-1.52.34-3 .52-4.48.75-6.03 1.13-11.26 1.31-15 .19-3.76.19-6 .19-6z" fill="#fec108"/><path id="Path" d="m23 7-.01 2h-12.99v8c0 1.1045695-.8954305 2-2 2s-2-.8954305-2-2v-8h-5v-2c-.00631716-.99097554.48024193-1.92030354 1.29826537-2.47968721.81802343-.55938367 1.86055164-.67568155 2.78173463-.31031279.31731834-1.58391207 1.55749715-2.82072585 3.14226554-3.1337395 1.58476839-.31301364 3.20204846.35941254 4.09773446 1.7037395.9500035-.77337471 2.2369519-.98960129 3.3875349-.56915652 1.150583.42044476 1.9949132 1.41548083 2.2224651 2.61915652.8686324-.82805852 2.1471682-1.05878091 3.250445-.58656974s1.8189838 1.55648526 1.819555 2.75656974z" fill="#f5f5f5"/><path id="Path" d="m20 4c-.5280791.00293834-1.0458389.14653037-1.5.416.9264159.5308123 1.4984808 1.51628948 1.5 2.584l-.01 2h3l.01-2c0-1.65685425-1.3431458-3-3-3z" fill="#cfd8dc"/><path id="Path" d="m52.99 9s0 2.24-.19 6c-.18 3.74-.56 8.97-1.31 15-.8322716 6.3016978-1.3130157 12.6448488-1.44 19h-.05c-2.6141755-.6675201-5.301948-1.0034916-8-1 0 0-.9 0-2.17.07.0889099-.5392513.1423579-1.0837531.16-1.63.01-.15.01-.29.01-.44-.0067049-4.8355714-2.6897365-9.2700799-6.97-11.52-.17-1.52-.35-3-.53-4.48-.75-6.03-1.12-11.26-1.31-15-.19-3.76-.19-6-.19-6h5v8c0 1.1045695.8954305 2 2 2s2-.8954305 2-2v-8z" fill="#ffdf00"/><path id="Path" d="m35 19c.5767759-.0028239 1.1239827-.2556335 1.5-.693-.3199584-.3604295-.4977008-.8250482-.5-1.307v-8h-3v8c.0032948 1.1032019.8967981 1.9967052 2 2z" fill="#fec108"/><path id="Path" d="m39.837 48.016c0 .018 0 .036-.007.054.223-.012.43-.022.627-.03-.226-.01-.439-.019-.62-.024z" fill="#fec108"/><path id="Path" d="m49.99 9s0 2.24-.19 6c-.18 3.74-.56 8.97-1.31 15-.8032719 6.0904016-1.2786241 12.2195748-1.424 18.361.9947582.1270598 1.9764984.3408744 2.934.639h.05c.1269843-6.3551512.6077284-12.6983022 1.44-19 .75-6.03 1.13-11.26 1.31-15 .19-3.76.19-6 .19-6z" fill="#fec108"/><path id="Path" d="m50.05 49c-.03.96-.04 1.96-.05 3-.0055034 1.1006623-.899324 1.9900138-2 1.99h-10.76c.2177712-.2692256.4213801-.549605.61-.84 1.0196448-1.5301992 1.6951808-3.2633924 1.98-5.08 1.27-.07 2.17-.07 2.17-.07 2.698052-.0034916 5.3858245.3324799 8 1z" fill="#00bcd4"/><path id="Path" d="m50 49c-2.6141755-.6675201-5.301948-1.0034916-8-1 0 0-.617 0-1.543.04 2.2120054.0517742 4.4093518.3741726 6.543.96h.05c-.03.96-.04 1.96-.05 3-.0055034 1.1006623-.899324 1.9900138-2 1.99h3c1.100676.0000138 1.9944966-.8893377 2-1.99.01-1.04.02-2.04.05-3z" fill="#00838f"/><path id="Path" d="m53 7-.01 2h-12.99v8c0 1.1045695-.8954305 2-2 2s-2-.8954305-2-2v-8h-5v-2c-.0063172-.99097554.4802419-1.92030354 1.2982654-2.47968721.8180234-.55938367 1.8605516-.67568155 2.7817346-.31031279.3173183-1.58391207 1.5574972-2.82072585 3.1422655-3.1337395 1.5847684-.31301364 3.2020485.35941254 4.0977345 1.7037395.9500035-.77337471 2.2369519-.98960129 3.3875349-.56915652 1.150583.42044476 1.9949132 1.41548083 2.2224651 2.61915652.8686324-.82805852 2.1471682-1.05878091 3.250445-.58656974s1.8189838 1.55648526 1.819555 2.75656974z" fill="#f5f5f5"/><path id="Path" d="m50 4c-.5280791.00293834-1.0458389.14653037-1.5.416.9264159.5308123 1.4984808 1.51628948 1.5 2.584l-.01 2h3l.01-2c0-1.65685425-1.3431458-3-3-3z" fill="#cfd8dc"/><path id="Path" d="m40 46c0 .15 0 .29-.01.44-.0176421.5462469-.0710901 1.0907487-.16 1.63-.2848192 1.8166076-.9603552 3.5498008-1.98 5.08-.1886199.290395-.3922288.5707744-.61.84-2.4578238 3.1632913-6.2390907 5.0138084-10.245 5.0138084s-7.7871762-1.8505171-10.245-5.0138084c-.2177712-.2692256-.4213801-.549605-.61-.84-1.0123833-1.5329748-1.684161-3.2652747-1.97-5.08-.0889099-.5392513-.1423579-1.0837531-.16-1.63-.01-.15-.01-.29-.01-.44.0067049-4.8355714 2.6897365-9.2700799 6.97-11.52.5132111-.269746 1.0444812-.5036385 1.59-.7 2.8686498-1.0399935 6.0113502-1.0399935 8.88 0 .5455188.1963615 1.0767889.430254 1.59.7 4.2802635 2.2499201 6.9632951 6.6844286 6.97 11.52z" fill="#f5f5f5"/><path id="Path" d="m37.25 38.011c-2.7726297-3.5996701-7.2404627-5.4670342-11.75-4.911 1.0035937.110976 1.9904853.3405794 2.94.684 5.1333678 1.873227 8.5516977 6.7515352 8.56 12.216 0 .149 0 .292-.013.442-.1886011 5.6455705-4.0037552 10.5222413-9.438 12.064-.6707205.1899456-1.356086.3237407-2.049.4.4977754.060163.998608.0915485 1.5.094 7.007218.001214 12.7529228-5.5546927 12.987-12.558.013-.15.013-.293.013-.442.0037307-2.8957991-.9646534-5.709043-2.75-7.989z" fill="#cfd8dc"/><path id="Path" d="m23.45 58.51c-2.998678-.8561587-5.591787-2.7575355-7.31-5.36-.02-.04-.05-.07-.07-.11l.07-.04h5.51z" fill="#607d8b"/><path id="Path" d="m18.35 43.19-4.34 3.25c-.01-.15-.01-.29-.01-.44-.0013293-2.8957037.9667805-5.7085027 2.75-7.99z" fill="#607d8b"/><path id="Path" d="m31.44 33.78-4.44 3.12-4.44-3.12c2.8686498-1.0399935 6.0113502-1.0399935 8.88 0z" fill="#607d8b"/><path id="Path" d="m31.95 44.28-1.9 5.72h-6.11l-1.89-5.72 4.95-3.48z" fill="#607d8b"/><path id="Path" d="m40 46c0 .15 0 .29-.01.44l-4.34-3.25 1.6-5.18c1.7832195 2.2814973 2.7513293 5.0942963 2.75 7.99z" fill="#607d8b"/><path id="Path" d="m37.92 53.04c-.02.04-.05.07-.07.11-1.7122155 2.6039031-4.3028659 4.5060793-7.3 5.36l1.8-5.51h5.5z" fill="#607d8b"/><path id="Path" d="m40 46c0 .15 0 .29-.01.44l-3.14-2.35c-.119081-.8967282-.3439817-1.7761908-.67-2.62l1.07-3.46c1.7853514 2.2803391 2.7537224 5.093897 2.75 7.99z" fill="#37474f"/><path id="Path" d="m37.92 53.04c-.02.04-.05.07-.07.11-1.7122155 2.6039031-4.3028659 4.5060793-7.3 5.36l.53-1.61c1.5002106-.9786368 2.7833972-2.2550161 3.77-3.75.0336363-.0477263.0637174-.0978615.09-.15h2.91z" fill="#37474f"/><g fill="#000"><path id="Shape" d="m0 7v2c0 .092 0 2.309.191 6.051.255 5.029.7 10.1 1.317 15.073.96433608 7.2555174 1.45936507 14.5657128 1.482 21.885.01747264 1.6464711 1.35345108 2.9739884 3 2.981h10.292c1.7850505 2.143105 4.1741101 3.6989904 6.856 4.465h.013l.024.008c2.4986689.7090714 5.1453311.7090714 7.644 0l.03-.01h.013c2.6817601-.7662943 5.0707415-2.3221289 6.856-4.465h10.282c1.6469342-.007019 2.9830699-1.3351379 3-2.982.0283488-7.3187518.5233531-14.6282487 1.482-21.884.8-6.408 1.156-11.735 1.317-15.073.188-3.71.191-5.914.191-6.042v-.007l.01-2c-.0002391-1.3425809-.674008-2.59549666-1.7939426-3.33594927-1.1199346-.74045262-2.5366438-.86967118-3.7720574-.34405073-.7923057-1.43076643-2.2985062-2.31901886-3.934-2.32-.6833829-.00066779-1.3575277.15785382-1.969.463-1.1714091-1.17129227-2.8473095-1.68564038-4.4741068-1.37314146-1.6267972.31249892-2.9928419 1.41118817-3.6468932 2.93314146-1.125916-.11601759-2.2482758.25040805-3.0888352 1.00843632-.8405594.75802826-1.3206181 1.8366862-1.3211648 2.96856368v2c0 .092 0 2.309.191 6.051.255 5.029.7 10.1 1.316 15.07l.032.261c.1.818.2 1.652.293 2.478l-.049-.019c-3.0899077-1.1145009-6.4720923-1.1145009-9.562 0l-.064.026c.106-.9193333.2143333-1.833.325-2.741.8-6.408 1.156-11.735 1.317-15.073.188-3.71.191-5.914.191-6.042v-.011l.01-2c-.0002391-1.3425809-.674008-2.59549666-1.7939426-3.33594927-1.1199346-.74045262-2.5366438-.86967118-3.7720574-.34405073-.7923057-1.43076643-2.2985062-2.31901886-3.934-2.32-.6833829-.00066779-1.3575277.15785382-1.969.463-1.1714091-1.17129227-2.84730953-1.68564038-4.47410678-1.37314146-1.62679726.31249892-2.99284196 1.41118817-3.64689322 2.93314146-1.125916-.11601759-2.24827583.25040805-3.08883521 1.00843632-.84055938.75802826-1.3206181 1.8366862-1.32116479 2.96856368zm4.99 44.993c0-.769-.016-1.507-.028-2.233 2.31353561-.4952271 4.67207624-.7499147 7.038-.76.01 0 .536 0 1.34.032.3055177 1.390289.8232481 2.7252577 1.535 3.958h-8.885c-.54976238-.003257-.99509121-.4472499-1-.997zm17.456-17.071 3.554 2.498v2.861l-4.125 2.9-2.73-.8-1.275-4.127c1.2340396-1.4637294 2.804089-2.606956 4.576-3.332zm9.108 0c1.7718687.7250851 3.341657 1.8687145 4.575 3.333l-1.274 4.122-2.73.8-4.125-2.896v-2.861zm1.29 17.078-1.673-2.19 1.561-4.723 2.72-.8 3.5 2.63c-.1314802 1.7905718-.6661459 3.5282355-1.564 5.083zm-5.844-3h-2.332l-1.432-4.332 3.764-2.646 3.764 2.646-1.432 4.332zm-5.844 3h-4.544c-.897189-1.5551908-1.4324431-3.292545-1.566-5.083l3.5-2.63 2.72.8 1.561 4.723zm15.658-9.191.765-2.474c.6720989 1.2524691 1.1124988 2.6160148 1.3 4.025zm-20.393-2.473.765 2.473-2.066 1.551c.1871556-1.4088814.627936-2.7722177 1.301-4.024zm1.648 13.664h2.857l.928 2.839c-1.4389745-.6834484-2.7260773-1.6488605-3.785-2.839zm6.16 3.669-1.465-4.479 1.674-2.19h5.124l1.674 2.19-1.465 4.48c-1.8225037.4286779-3.7196512.4283356-5.542-.001zm7.917-.83.928-2.839h2.858c-1.0596212 1.1898055-2.3469771 2.1551525-3.786 2.839zm15.854-3.849h-8.875c.7120039-1.2328367 1.2303836-2.5677403 1.537-3.958.803-.032 1.328-.032 1.338-.032 2.3631668.0102067 4.718974.2642184 7.03.758-.013.725-.024 1.463-.03 2.233-.0043588.5503062-.4496897.9951918-1 .999zm-13.277-47.846c.2747567.1052641.5819278.08418494.8397293-.05762519.2578016-.14181013.4400679-.38995811.4982707-.67837481.2852934-1.39768808 1.5125005-2.40317112 2.939-2.408 1.0003936-.00207717 1.9348509.49877994 2.487 1.333.1551683.23387704.4014801.39177921.6787801.43514299s.5600588-.03180307.7792199-.20714299c.6762204-.55347375 1.5941876-.70933691 2.4151946-.41007987s1.4233599 1.00927689 1.5848054 1.86807987c.069057.35871407.3282185.65122925.676.763.3471803.11354172.7286694.0271016.993-.225.5781508-.55574666 1.4323564-.71241476 2.1700992-.39801343.7377428.31440132 1.2163519 1.0390705 1.2159008 1.84101343v1h-12c-.5522847 0-1 .44771525-1 1v8c0 .5522847-.4477153 1-1 1s-1-.4477153-1-1v-8c0-.55228475-.4477153-1-1-1h-4v-1c-.0141281-.66484091.3087875-1.29176327.8582767-1.66629579.5494893-.37453252 1.2510674-.44590629 1.8647233-.18970421zm-1.2 25-.032-.265c-.612-4.923-1.051-9.945-1.3-14.927-.116-2.245-.161-3.952-.179-4.952h2.988v7c0 1.6568542 1.3431458 3 3 3s3-1.3431458 3-3v-7h10.979c-.019 1-.064 2.708-.178 4.952-.158 3.306-.514 8.579-1.3 14.926-.7801936 5.9152354-1.254159 11.8668397-1.42 17.831-2.3322813-.461882-4.703443-.6992995-7.081-.709-.009 0-.412 0-1.049.021.011-.165.027-.33.032-.495s.017-.348.017-.526c-.0034739-5.0143017-2.6868923-9.6443045-7.036-12.14-.143-1.254-.29-2.491-.44-3.719zm-6.523 3.856c.710779.0001363 1.4201722.0627101 2.12.187l-2.12 1.49-2.12-1.49c.6998278-.1242899 1.409221-.1868637 2.12-.187zm-11.039 3.4c-1.9271238 2.4515236-2.9704267 5.4817176-2.961 8.6 0 .178 0 .349.014.474 0 .183.023.364.036.547-.645-.021-1.05-.021-1.05-.021-2.37897188.0098396-4.75151102.2479307-7.085.711-.16323211-5.9657345-.63821355-11.9188575-1.423-17.835-.612-4.923-1.051-9.945-1.3-14.927-.117-2.242-.162-3.949-.18-4.949h2.988v7c.00000003 1.6568542 1.34314578 2.9999999 3 2.9999999s3-1.3431457 3-2.9999999v-7h10.979c-.019 1-.064 2.708-.178 4.952-.158 3.306-.514 8.579-1.3 14.927-.161 1.317-.319 2.638-.465 3.983-1.5764222.9017949-2.9608426 2.1037775-4.075 3.538zm-10.398-32.314c.25764286-.14218169.44028948-.3898505.5-.678.28514014-1.39695535 1.51125255-2.40222559 2.937-2.408 1.0003936-.00207717 1.9348509.49877994 2.487 1.333.1551683.23387704.4014801.39177921.6787801.43514299s.5600588-.03180307.7792199-.20714299c.6762204-.55347375 1.5941876-.70933691 2.4151946-.41007987s1.4233599 1.00927689 1.5848054 1.86807987c.069057.35871407.3282185.65122925.676.763.3471803.11354172.7286694.0271016.993-.225.5781508-.55574666 1.4323564-.71241476 2.1700992-.39801343.7377428.31440132 1.2163519 1.0390705 1.2159008 1.84101343v1h-12c-.55228475 0-1 .44771525-1 1v8c0 .5522847-.44771525 1-1 1s-1-.4477153-1-1v-8c0-.55228475-.44771525-1-1-1h-4v-1c-.01412811-.66484091.30878747-1.29176327.85827672-1.66629579s1.2510674-.44590629 1.86472328-.18970421c.27489038.10523367.58218162.08401594.84-.058z" fill-rule="nonzero"/><circle id="Oval" cx="11" cy="40" r="1"/><circle id="Oval" cx="13" cy="36" r="1"/><circle id="Oval" cx="11" cy="32" r="1"/><circle id="Oval" cx="13" cy="28" r="1"/><circle id="Oval" cx="11" cy="24" r="1"/><circle id="Oval" cx="41" cy="40" r="1"/><circle id="Oval" cx="43" cy="36" r="1"/><circle id="Oval" cx="41" cy="32" r="1"/><circle id="Oval" cx="43" cy="28" r="1"/><circle id="Oval" cx="41" cy="24" r="1"/></g></g></g></svg>