<svg id="Capa_1" enable-background="new 0 0 512 512" height="512" viewBox="0 0 512 512" width="512" xmlns="http://www.w3.org/2000/svg"><g id="Page-1"><g id="_x30_30---Goalie-Save" transform="translate(-1)"><g clip-rule="evenodd" fill-rule="evenodd"><path id="Path" d="m275.005 409.088c-.046 29.396-14.941 56.779-39.595 72.789-18.758 13.999-41.533 21.57-64.939 21.589-11.809-.168-23.567-1.598-35.072-4.267l-106.922-24.404c-6.139-1.388-11.389-5.338-14.423-10.852s-3.562-12.063-1.449-17.991l.256-.768c3.753-10.641 14.662-16.999 25.771-15.019l55.552 9.899-80.213-115.029c-3.774-5.147-5.279-11.613-4.167-17.898s4.745-11.842 10.055-15.382c4.687-2.895 10.278-3.959 15.701-2.987 5.861 1.095 11.065 4.432 14.507 9.301l-20.651-29.525c-4.78-6.596-5.627-15.258-2.215-22.655s10.55-12.376 18.67-13.022 15.956 3.141 20.494 9.906l20.651 29.525c-5.201-7.478-5.391-17.352-.481-25.025s13.954-11.637 22.924-10.048c5.861 1.095 11.065 4.432 14.507 9.301l15.445 22.187c-6.882-9.764-4.939-23.203 4.426-30.618s22.891-6.224 30.817 2.714l.085.085c4.365 11.279 9.914 22.063 16.555 32.171 8.491 12.987 18.744 24.733 30.464 34.901v.085l39.68 56.832c8.961 12.99 13.699 28.426 13.567 44.205z" fill="#ffe0b2"/><path id="Path_1_" d="m261.437 364.885-39.68-56.832v-.085c-11.72-10.168-21.973-21.914-30.464-34.901-6.64-10.108-12.189-20.892-16.555-32.171l-.085-.085c-7.579-8.491-20.317-9.959-29.628-3.413 1.466.984 2.817 2.129 4.028 3.413l.085.085c4.365 11.279 9.914 22.063 16.555 32.171 8.491 12.987 18.744 24.733 30.464 34.901v.085l39.68 56.832c8.962 12.988 13.7 28.424 13.568 44.203-.046 29.396-14.941 56.779-39.595 72.789-15.433 11.354-33.536 18.532-52.557 20.838 4.506.452 8.934.751 13.218.751 23.406-.019 46.181-7.591 64.939-21.589 24.653-16.011 39.549-43.393 39.595-72.789.132-15.779-4.606-31.215-13.568-44.203z" fill="#dfc49c"/><path id="Path_2_" d="m504.467 179.2c0 1.963 0 3.84-.171 5.803-1.761 52.444-27.56 101.16-69.952 132.087s-96.658 40.624-147.136 26.291c-24.15-6.818-46.498-18.881-65.451-35.328v-.085c-11.72-10.168-21.973-21.914-30.464-34.901-6.64-10.108-12.189-20.892-16.555-32.171l-.085-.085c-6.923-17.824-10.761-36.696-11.349-55.808-.171-1.963-.171-3.84-.171-5.803 0-94.257 76.41-170.667 170.667-170.667s170.667 76.41 170.667 170.667z" fill="#f5f5f5"/><path id="Path_3_" d="m221.757 308.053v-.085c-11.72-10.168-21.973-21.914-30.464-34.901h72.277l23.637 70.315c-24.149-6.819-46.497-18.882-65.45-35.329z" fill="#607d8b"/><path id="Path_4_" d="m392.083 18.773-58.283 40.96-58.283-40.96c37.656-13.653 78.91-13.653 116.566 0z" fill="#607d8b"/><path id="Path_5_" d="m220.221 142.251-56.917 42.752c-.171-1.963-.171-3.84-.171-5.803-.045-38.013 12.665-74.942 36.096-104.875z" fill="#607d8b"/><path id="Path_6_" d="m504.467 179.2c0 1.963 0 3.84-.171 5.803l-56.917-42.752 20.992-67.925c23.431 29.932 36.141 66.861 36.096 104.874z" fill="#607d8b"/><path id="Path_7_" d="m476.307 273.067c-22.447 34.237-56.51 59.209-95.915 70.315l23.637-70.315z" fill="#607d8b"/><path id="Path_8_" d="m468.371 74.325c-32.283-41.544-81.958-65.83-134.571-65.792-4.318 0-8.533.247-12.8.563 48.012 3.463 92.285 27.18 121.771 65.229 23.431 29.933 36.141 66.862 36.096 104.875 0 1.963 0 3.84-.171 5.803-2.476 74.116-52.562 138.139-123.904 158.379-11.029 3.144-22.353 5.146-33.792 5.973 4.267.307 8.491.495 12.8.495 91.985.015 167.413-72.913 170.496-164.847.171-1.963.171-3.84.171-5.803.045-38.013-12.665-74.942-36.096-104.875z" fill="#cfd8dc"/><path id="Path_9_" d="m398.739 156.587-24.832 73.813h-80.214l-24.832-73.813 64.939-45.654z" fill="#607d8b"/><path id="Path_10_" d="m504.467 179.2c0 1.963 0 3.84-.171 5.803l-25.941-19.456v-.085c-1.817-22.392-8.053-44.202-18.347-64.171l8.363-26.965c23.431 29.932 36.141 66.861 36.096 104.874z" fill="#37474f"/><path id="Path_11_" d="m476.307 273.067c-22.447 34.237-56.51 59.209-95.915 70.315l3.755-11.264c27.045-13.412 50.022-33.796 66.56-59.051z" fill="#37474f"/></g><path id="Shape" d="m395.018 10.761c-39.553-14.272-82.85-14.272-122.402 0-70.794 25.809-117.932 93.087-118.016 168.439 0 2.21 0 4.318.179 6.076.445 13.431 2.412 26.769 5.862 39.757-7.267-.676-14.54 1.224-20.548 5.367-3.984 2.818-7.235 6.548-9.481 10.88-4.678-6.568-11.747-11.038-19.686-12.45-8.112-1.422-16.458.418-23.219 5.12-3.973 2.82-7.219 6.543-9.472 10.863l-4.847-6.946c-6.349-9.099-17.07-14.119-28.124-13.17s-20.762 7.723-25.468 17.771c-4.705 10.048-3.693 21.842 2.656 30.941l4.796 6.886c-4.176.561-8.193 1.972-11.802 4.147-7.161 4.365-12.16 11.535-13.781 19.763-1.852 8.936.068 18.239 5.308 25.711l68.437 98.133-35.285-6.289c-15.503-2.712-30.644 6.377-35.541 21.333-2.932 8.225-2.202 17.312 2.007 24.962 4.209 7.651 11.492 13.133 20.009 15.059l107.008 24.422c12.093 2.802 24.452 4.298 36.864 4.463 25.03-.023 49.396-8.058 69.53-22.929 27.099-17.586 43.473-47.678 43.52-79.983.153-17.528-5.123-34.674-15.104-49.084l-13.978-20.113c9.673 4.774 19.761 8.656 30.14 11.597h.111l.188.06c31.983 9.079 65.861 9.079 97.843 0l.239-.077h.111c74.577-21.319 126.95-88.228 129.732-165.743.196-2.209.196-4.317.196-6.527-.084-75.342-47.205-142.614-117.982-168.439zm76.519 253.772h-63.078l-25.071-35.533 22.042-65.51 40.243-11.844 49.818 37.419c-1.566 26.76-9.801 52.704-23.954 75.468zm-137.737-42.666h-33.971l-20.855-61.961 54.827-38.545 54.827 38.545-20.855 61.961zm-125.611 59.733h49.246l16.162 48.094c-25.552-10.182-48.071-26.739-65.408-48.094zm-11.946-188.015 14.037 45.449-38.161 28.663c1.797-26.32 10.091-51.783 24.141-74.112zm62.899 170.948h-63.078c-5.194-8.312-9.618-17.081-13.218-26.197l-.128-.375c-6.046-15.654-9.622-32.152-10.598-48.905l49.809-37.41 40.243 11.844 22.042 65.51zm198.161-125.499 14.037-45.449c14.043 22.33 22.332 47.794 24.124 74.112zm1.544-62.806-18.27 59.127-40.32 11.861-57.924-40.713v-42.332l50.876-35.755c25.618 10.044 48.222 26.509 65.638 47.812zm-125.047-59.161c13.147.018 26.243 1.64 38.997 4.83l-38.997 27.4-39.006-27.409c12.758-3.183 25.857-4.802 39.006-4.821zm-59.409 11.349 50.876 35.755v42.334l-57.924 40.713-40.32-11.861-18.27-59.127c17.417-21.305 40.02-37.77 65.638-47.814zm-19.942 341.333c7.974 11.557 12.174 25.299 12.023 39.339-.055 26.601-13.577 51.364-35.925 65.792-17.324 13.015-38.406 20.053-60.075 20.053-11.169-.164-22.289-1.523-33.169-4.053l-106.957-24.405c-3.752-.847-6.961-3.259-8.819-6.627s-2.185-7.369-.901-10.994l.265-.854c2.366-6.691 9.226-10.687 16.213-9.446l55.552 9.89c3.403.623 6.844-.871 8.714-3.78 1.87-2.91 1.799-6.661-.181-9.497l-80.212-115.073c-2.53-3.608-3.457-8.101-2.56-12.416.685-3.601 2.853-6.747 5.973-8.67 2.893-1.805 6.355-2.469 9.711-1.86 3.547.68 6.707 2.673 8.849 5.581l51.533 73.856 13.073 18.773c6.345 8.895 20.479-.755 13.986-9.83l-23.262-33.272-41.267-59.127-.137-.162-20.446-29.287c-2.122-3.043-2.948-6.804-2.297-10.456s2.727-6.896 5.77-9.017c6.338-4.401 15.041-2.852 19.473 3.465l20.599 29.534 64.435 92.365c6.318 8.929 20.446-.712 13.995-9.771l-64.393-92.399c-2.956-4.099-3.47-9.475-1.345-14.06 2.125-4.586 6.558-7.668 11.597-8.063 5.038-.395 9.898 1.959 12.712 6.157l64.444 92.356c2.735 3.755 7.97 4.633 11.78 1.975 3.81-2.657 4.794-7.874 2.215-11.737l-48.947-70.153c-3.229-4.651-3.342-10.788-.286-15.555 3.056-4.766 8.681-7.225 14.255-6.231 2.687.524 5.155 1.844 7.083 3.789 10.472 26.062 26.885 49.318 47.932 67.917zm39.364-33.536-20.779-61.781 25.071-35.499h71.39l25.071 35.516-20.779 61.764c-26.245 6.639-53.729 6.639-79.974 0zm100.19-6.545 16.162-48.068h49.246c-17.338 21.352-39.856 37.907-65.408 48.085z"/><path id="Path_12_" clip-rule="evenodd" d="m406.871 361.609c-1.865 1.283-3.144 3.254-3.556 5.481-.411 2.226.079 4.525 1.363 6.389l92.757 134.827c2.672 3.883 7.986 4.865 11.87 2.193 3.883-2.672 4.865-7.986 2.193-11.87l-92.757-134.827c-1.283-1.865-3.254-3.144-5.481-3.556-2.226-.411-4.524.079-6.389 1.363z" fill-rule="evenodd"/><path id="Path_13_" clip-rule="evenodd" d="m504.467 435.2c3.166-.004 6.069-1.761 7.542-4.564 1.473-2.802 1.273-6.19-.519-8.8l-54.272-78.933c-2.667-3.886-7.98-4.873-11.866-2.206s-4.873 7.98-2.206 11.866l54.281 78.933c1.592 2.32 4.226 3.706 7.04 3.704z" fill-rule="evenodd"/><path id="Path_14_" clip-rule="evenodd" d="m361.815 374.323c-3.882 2.668-4.867 7.978-2.202 11.861l60.663 88.269c1.713 2.547 4.662 3.977 7.722 3.746s5.761-2.088 7.073-4.863 1.032-6.04-.732-8.552l-60.655-88.26c-1.282-1.867-3.252-3.147-5.479-3.56-2.225-.412-4.524.076-6.39 1.359z" fill-rule="evenodd"/></g></g></svg>