<svg height="512" viewBox="0 0 60 52" width="512" xmlns="http://www.w3.org/2000/svg"><g id="Page-1" fill="none" fill-rule="evenodd"><g id="031---Water-Caddy"><path id="Path" d="m59 37v11c0 1.6568542-1.3431458 3-3 3h-52c-1.65685425 0-3-1.3431458-3-3v-11z" fill="#02a9f4"/><path id="Path" d="m56 37v11c0 1.6568542-1.3431458 3-3 3h3c1.6568542 0 3-1.3431458 3-3v-11z" fill="#0377bc"/><path id="Path" d="m59 21v16h-4v-16c.0032948-1.1032019.8967981-1.9967052 2-2 1.1011688.0081672 1.9918328.8988312 2 2z" fill="#ffdf00"/><path id="Rectangle" d="m5 28h50v4h-50z" fill="#ffdf00"/><path id="Rectangle" d="m52 28h3v4h-3z" fill="#fec108"/><path id="Rectangle" d="m5 32h50v5h-50z" fill="#02a9f4"/><path id="Rectangle" d="m52 32h3v5h-3z" fill="#0377bc"/><path id="Path" d="m5 21 .00002771 16h-4.00002771v-16c.0032948-1.1032019.89679813-1.9967052 2-2 .53059053-.0028231 1.0395388.2101411 1.41.59.3798589.3704612.59282307.8794095.59 1.41z" fill="#ffdf00"/><path id="Shape" d="m54 1h-48c-1.65685425 0-3 1.34314575-3 3v15c.53059053-.0028231 1.0395388.2101411 1.41.59.3798589.3704612.59282307.8794095.59 1.41v7h50v-7c.0032948-1.1032019.8967981-1.9967052 2-2v-15c0-1.65685425-1.3431458-3-3-3zm-44 10c-1.65685425 0-3-1.34314575-3-3s1.34314575-3 3-3c1.6568542 0 3 1.34314575 3 3 0 .79564947-.3160705 1.55871121-.8786797 2.1213203-.5626091.5626092-1.3256708.8786797-2.1213203.8786797zm27.12-.88c-.5627509.5617507-1.3248592.8780976-2.12.88h-10c-1.6568542 0-3-1.34314575-3-3s1.3431458-3 3-3h10c1.2125666.00106654 2.305263.73198021 2.7691479 1.85230595.4638849 1.12032573.2077333 2.40974677-.6491479 3.26769405zm12.88.88c-1.6568542 0-3-1.34314575-3-3s1.3431458-3 3-3 3 1.34314575 3 3c0 .79564947-.3160705 1.55871121-.8786797 2.1213203-.5626091.5626092-1.3256708.8786797-2.1213203.8786797z" fill="#02a9f4" fill-rule="nonzero"/><path id="Path" d="m54 1h-3c1.6568542 0 3 1.34314575 3 3v15c-1.1032019.0032948-1.9967052.8967981-2 2v7h3v-7c.0032948-1.1032019.8967981-1.9967052 2-2v-15c0-1.65685425-1.3431458-3-3-3z" fill="#0377bc"/><path id="Path" d="m24 28v-4c0-.5522847-.4477153-1-1-1h-10c-.5522847 0-1 .4477153-1 1v4" fill="#283593"/><path id="Path" d="m12 32v5h12v-5" fill="#283593"/><path id="Path" d="m15 19h6c1.1045695 0 2 .8954305 2 2v2h-10v-2c0-1.1045695.8954305-2 2-2z" fill="#3f51b5"/><path id="Path" d="m17 15h2c.5522847 0 1 .4477153 1 1v3h-4v-3c0-.5522847.4477153-1 1-1z" fill="#283593"/><path id="Path" d="m36 28v-4c0-.5522847-.4477153-1-1-1h-10c-.5522847 0-1 .4477153-1 1v4" fill="#283593"/><path id="Path" d="m24 32v5h12v-5" fill="#283593"/><path id="Path" d="m27 19h6c1.1045695 0 2 .8954305 2 2v2h-10v-2c0-1.1045695.8954305-2 2-2z" fill="#3f51b5"/><path id="Path" d="m29 15h2c.5522847 0 1 .4477153 1 1v3h-4v-3c0-.5522847.4477153-1 1-1z" fill="#283593"/><path id="Path" d="m48 28v-4c0-.5522847-.4477153-1-1-1h-10c-.5522847 0-1 .4477153-1 1v4" fill="#283593"/><path id="Path" d="m36 32v5h12v-5" fill="#283593"/><path id="Path" d="m39 19h6c1.1045695 0 2 .8954305 2 2v2h-10v-2c0-1.1045695.8954305-2 2-2z" fill="#3f51b5"/><path id="Path" d="m41 15h2c.5522847 0 1 .4477153 1 1v3h-4v-3c0-.5522847.4477153-1 1-1z" fill="#283593"/><path id="Path" d="m9 48h-4c-.55228475 0-1-.4477153-1-1v-4c0-.5522847.44771525-1 1-1s1 .4477153 1 1v3h3c.55228475 0 1 .4477153 1 1s-.44771525 1-1 1z" fill="#fff"/><g fill="#000" fill-rule="nonzero"><path id="Shape" d="m58 18.184v-14.184c0-2.209139-1.790861-4-4-4h-48c-2.209139 0-4 1.790861-4 4v14.184c-1.19435086.4222546-1.99474861 1.5492146-2 2.816v27c0 2.209139 1.790861 4 4 4h52c2.209139 0 4-1.790861 4-4v-27c-.0052514-1.2667854-.8056491-2.3937454-2-2.816zm-9 17.816v-3h5v3zm-24 0v-3h10v3zm-12 0v-3h10v3zm-7 0v-3h5v3zm13-18h-2v-2h2zm-3 2h5c.5522847 0 1 .4477153 1 1v1h-8v-1c0-.5522847.4477153-1 1-1zm15-2h-2v-2h2zm-3 2h5c.5522847 0 1 .4477153 1 1v1h-8v-1c0-.5522847.4477153-1 1-1zm15-2h-2v-2h2zm-3 2h5c.5522847 0 1 .4477153 1 1v1h-8v-1c0-.5522847.4477153-1 1-1zm-3 7v-3h10v3zm-12 0v-3h10v3zm-12-3h10v3h-10zm41 5v2h-48v-2zm-17 4h10v3h-10zm19-12c0-.5522847.4477153-1 1-1s1 .4477153 1 1v15h-2zm-50-19h48c1.1045695 0 2 .8954305 2 2v14.184c-1.1943509.4222546-1.9947486 1.5492146-2 2.816v6h-5v-3c-.002145-.7113268-.3832487-1.3675874-1-1.722v-1.278c0-1.6568542-1.3431458-3-3-3v-2c0-1.1045695-.8954305-2-2-2h-2c-1.1045695 0-2 .8954305-2 2v2c-1.6568542 0-3 1.3431458-3 3 0-1.6568542-1.3431458-3-3-3v-2c0-1.1045695-.8954305-2-2-2h-2c-1.1045695 0-2 .8954305-2 2v2c-1.6568542 0-3 1.3431458-3 3 0-1.6568542-1.3431458-3-3-3v-2c0-1.1045695-.8954305-2-2-2h-2c-1.1045695 0-2 .8954305-2 2v2c-1.6568542 0-3 1.3431458-3 3v1.278c-.6167513.3544126-.997855 1.0106732-1 1.722v3h-5v-6c-.00525139-1.2667854-.80564913-2.3937454-2-2.816v-14.184c0-1.1045695.8954305-2 2-2zm-4 19c0-.5522847.44771525-1 1-1s1 .4477153 1 1v15h-2zm56 27c0 1.1045695-.8954305 2-2 2h-52c-1.1045695 0-2-.8954305-2-2v-10h56z"/><path id="Shape" d="m25 12h10c2.209139 0 4-1.790861 4-4s-1.790861-4-4-4h-10c-2.209139 0-4 1.790861-4 4s1.790861 4 4 4zm0-6h10c1.1045695 0 2 .8954305 2 2s-.8954305 2-2 2h-10c-1.1045695 0-2-.8954305-2-2s.8954305-2 2-2z"/><path id="Shape" d="m10 12c2.209139 0 4-1.790861 4-4s-1.790861-4-4-4-4 1.790861-4 4 1.790861 4 4 4zm0-6c1.1045695 0 2 .8954305 2 2s-.8954305 2-2 2-2-.8954305-2-2 .8954305-2 2-2z"/><path id="Shape" d="m50 12c2.209139 0 4-1.790861 4-4s-1.790861-4-4-4-4 1.790861-4 4 1.790861 4 4 4zm0-6c1.1045695 0 2 .8954305 2 2s-.8954305 2-2 2-2-.8954305-2-2 .8954305-2 2-2z"/></g></g></g></svg>