<svg height="512" viewBox="0 0 60 60" width="512" xmlns="http://www.w3.org/2000/svg"><g id="Page-1" fill="none" fill-rule="evenodd"><g id="032---Live-Football" transform="translate(0 -1)"><rect id="Rectangle" fill="#ff9801" height="44" rx="6" width="58" x="1" y="12"/><path id="Path" d="m53 12h-3c3.3137085 0 6 2.6862915 6 6v32c0 3.3137085-2.6862915 6-6 6h3c3.3137085 0 6-2.6862915 6-6v-32c0-3.3137085-2.6862915-6-6-6z" fill="#f57c00"/><rect id="Rectangle" fill="#60a917" height="34" rx="2" width="36" x="6" y="17"/><path id="Path" d="m40 17h-3c1.1045695 0 2 .8954305 2 2v30c0 1.1045695-.8954305 2-2 2h3c1.1045695 0 2-.8954305 2-2v-30c0-1.1045695-.8954305-2-2-2z" fill="#549414"/><circle id="Oval" cx="50.5" cy="22.5" fill="#ffdf00" r="3.5"/><circle id="Oval" cx="50.5" cy="33.5" fill="#ffdf00" r="3.5"/><path id="Path" d="m7 56v2c0 1.1045695.8954305 2 2 2h2.789c.7897886-.0000202 1.5618959-.2338446 2.219-.672l4.992-3.328" fill="#607d8b"/><path id="Path" d="m16 56-4.992 3.328c-.6239449.4136222-1.351665.6433738-2.1.663.03 0 .058.009.089.009h2.789c.7897886-.0000202 1.5618959-.2338446 2.219-.672l4.995-3.328z" fill="#37474f"/><path id="Path" d="m53 56v2c0 1.1045695-.8954305 2-2 2h-2.789c-.7897886-.0000202-1.5618959-.2338446-2.219-.672l-4.992-3.328" fill="#607d8b"/><path id="Path" d="m50 56v2c-.0037457 1.0672422-.8448082 1.943514-1.911 1.991.041 0 .081.009.122.009h2.789c1.1045695 0 2-.8954305 2-2v-2z" fill="#37474f"/><path id="Path" d="m41.83 12c-.51-1.54-2.22-2.89-4.62-3.79-2.3124131-.82827754-4.7538825-1.23801097-7.21-1.21-2.4561175-.02801097-4.8975869.38172246-7.21 1.21-2.4.9-4.11 2.25-4.62 3.79" fill="#9e9e9e"/><path id="Path" d="m37.21 8.21c-2.3124131-.82827754-4.7538825-1.23801097-7.21-1.21-.511 0-1.006.031-1.5.062 1.9493873.10013877 3.8733824.48695951 5.71 1.148 2.4.9 4.11 2.25 4.62 3.79h3c-.51-1.54-2.22-2.89-4.62-3.79z" fill="#707070"/><path id="Path" d="m37 34c0 .15 0 .29-.01.44-.0718481 2.3927731-.81325 4.717449-2.14 6.71-2.402722 3.6535429-6.4821922 5.8532999-10.855 5.8532999s-8.452278-2.199757-10.855-5.8532999c-1.3157597-1.997177-2.0529822-4.3196009-2.13-6.71-.01-.15-.01-.29-.01-.44 0-.34.01-.67.04-1 .3965586-5.0862092 3.7270929-9.4721945 8.52-11.22.4704786-.1734766.951434-.3170952 1.44-.43 3.8680155-.9142041 7.9417361-.0098523 11.0595714 2.4551863 3.1178354 2.4650386 4.9376099 6.2202314 4.9404286 10.1948137z" fill="#f5f5f5"/><path id="Path" d="m34.25 26.011c-2.7726297-3.5996701-7.2404627-5.4670342-11.75-4.911 1.0035937.110976 1.9904853.3405794 2.94.684 5.1333678 1.873227 8.5516977 6.7515352 8.56 12.216 0 .149 0 .292-.013.442-.1886011 5.6455705-4.0037552 10.5222413-9.438 12.064-.6707205.1899456-1.356086.3237407-2.049.4.4977754.060163.998608.0915485 1.5.094 7.007218.001214 12.7529228-5.5546927 12.987-12.558.013-.15.013-.293.013-.442.0037307-2.8957991-.9646534-5.709043-2.75-7.989z" fill="#cfd8dc"/><path id="Path" d="m20.45 46.51c-2.998678-.8561587-5.591787-2.7575355-7.31-5.36-.02-.04-.05-.07-.07-.11l.07-.04h5.51z" fill="#607d8b"/><path id="Path" d="m15.35 31.19-4.34 3.25c-.01-.15-.01-.29-.01-.44-.0013293-2.8957037.9667805-5.7085027 2.75-7.99z" fill="#607d8b"/><path id="Path" d="m28.44 21.78-4.44 3.12-4.44-3.12c2.8686498-1.0399935 6.0113502-1.0399935 8.88 0z" fill="#607d8b"/><path id="Path" d="m28.95 32.28-1.9 5.72h-6.11l-1.89-5.72 4.95-3.48z" fill="#607d8b"/><path id="Path" d="m37 34c0 .15 0 .29-.01.44l-4.34-3.25 1.6-5.18c1.7832195 2.2814973 2.7513293 5.0942963 2.75 7.99z" fill="#607d8b"/><path id="Path" d="m34.92 41.04c-.02.04-.05.07-.07.11-1.7122155 2.6039031-4.3028659 4.5060793-7.3 5.36l1.8-5.51h5.5z" fill="#607d8b"/><path id="Path" d="m37 34c0 .15 0 .29-.01.44l-3.14-2.35c-.119081-.8967282-.3439817-1.7761908-.67-2.62l1.07-3.46c1.7853514 2.2803391 2.7537224 5.093897 2.75 7.99z" fill="#37474f"/><path id="Path" d="m34.92 41.04c-.02.04-.05.07-.07.11-1.7122155 2.6039031-4.3028659 4.5060793-7.3 5.36l.53-1.61c1.5002106-.9786368 2.7833972-2.2550161 3.77-3.75.0336363-.0477263.0637174-.0978615.09-.15h2.91z" fill="#37474f"/><g fill="#000"><path id="Shape" d="m53 11h-10.516c-.814973-1.35596764-2.0250676-2.43032788-3.468-3.079l5.659-5.184c.2779855-.23738562.4042908-.60753703.3293969-.9653342-.0748938-.35779716-.3390507-.64621735-.6889064-.75218375-.3498557-.10596639-.7296531-.01259095-.9904905.24351795l-6.357 5.822c-4.5328032-1.4460153-9.4031968-1.4460153-13.936 0l-6.357-5.822c-.2608374-.2561089-.6406348-.34948434-.9904905-.24351795-.3498557.1059664-.6140126.39438659-.6889064.75218375-.0748939.35779717.0514114.72794858.3293969.9653342l5.659 5.184c-1.4427219.64899741-2.6527289 1.72327989-3.468 3.079h-10.516c-3.86416566.0044086-6.99559136 3.1358343-7 7v32c.00407452 3.4765822 2.55907331 6.4233474 6 6.92v1.08c0 1.6568542 1.34314575 3 3 3h2.789c.9873918.0005033 1.9527559-.2918204 2.774-.84l4.737-3.16h21.4l4.741 3.16c.8208312.5482647 1.7859045.8406057 2.773.84h2.786c1.6568542 0 3-1.3431458 3-3v-1.08c3.4409267-.4966526 5.9959255-3.4434178 6-6.92v-32c-.0044086-3.8641657-3.1358343-6.9955914-7-7zm-29.856-1.854c2.1989314-.78693114 4.5206803-1.1750181 6.856-1.146 2.3362762-.02873307 4.6589595.35934028 6.859 1.146 1.1638197.39766106 2.2343034 1.0285183 3.146 1.854h-20.005c.9106561-.8258629 1.9805717-1.45678641 3.144-1.854zm-9.691 49.354c-.4929199.3277594-1.0720599.5017798-1.664.5h-2.789c-.55228475 0-1-.4477153-1-1v-1h7.7zm37.547.5h-2.789c-.5919401.0017798-1.1710801-.1722406-1.664-.5l-2.247-1.5h7.7v1c0 .5522847-.4477153 1-1 1zm7-9c-.0033061 2.7600532-2.2399468 4.9966939-5 5h-46c-2.76005315-.0033061-4.99669388-2.2399468-5-5v-32c.00330612-2.7600532 2.23994685-4.9966939 5-5h46c2.7600532.0033061 4.9966939 2.2399468 5 5z" fill-rule="nonzero"/><path id="Shape" d="m40 16h-32c-1.65685425 0-3 1.3431458-3 3v30c0 1.6568542 1.34314575 3 3 3h32c1.6568542 0 3-1.3431458 3-3v-30c0-1.6568542-1.3431458-3-3-3zm1 33c0 .5522847-.4477153 1-1 1h-32c-.55228475 0-1-.4477153-1-1v-30c0-.5522847.44771525-1 1-1h32c.5522847 0 1 .4477153 1 1z" fill-rule="nonzero"/><path id="Shape" d="m28.783 20.841c-4.2920936-1.5562846-9.0733213-.9232573-12.8125318 1.69636-3.7392104 2.6196172-5.9671985 6.8971084-5.9704682 11.46264 0 .179 0 .351.014.473.200338 6.0656462 4.2899718 11.3097816 10.124 12.982h.013l.024.008c2.4986689.7090714 5.1453311.7090714 7.644 0l.029-.01.015-.005c5.8113914-1.665249 9.8942488-6.8769438 10.12-12.918.017-.179.017-.351.017-.53-.0061797-5.8860097-3.6874627-11.1417332-9.217-13.159zm5.604 19.159h-4.543l-1.673-2.189 1.561-4.724 2.72-.8 3.5 2.63c-.1308278 1.7908318-.6659015 3.5287103-1.565 5.083zm-10.387 6c-.9330734-.0010958-1.8627844-.1118556-2.77-.33l-1.465-4.481 1.673-2.189h5.124l1.673 2.189-1.465 4.481c-.9071845.2183178-1.8369161.3290801-2.77.33zm-10.387-6c-.8980776-1.5548716-1.4337138-3.2923566-1.567-5.083l3.5-2.63 2.72.8 1.561 4.724-1.671 2.189zm-.192-11.664.765 2.473-2.067 1.551c.1879635-1.4088337.6290556-2.7720861 1.302-4.024zm10.579-6.336c.7108009-.0003625 1.420238.0622152 2.12.187l-2.12 1.49-2.12-1.49c.6998278-.1242899 1.409221-.1868637 2.12-.187zm0 8.022 3.764 2.646-1.431 4.332h-4.666l-1.431-4.332zm9.814.787.765-2.474c.6723828 1.2523483 1.1127997 2.6159468 1.3 4.025zm-.685-4.555-1.275 4.124-2.729.8-4.125-2.897v-2.861l3.554-2.5c1.7716811.7258942 3.3413624 1.8697887 4.575 3.334zm-13.683-3.332 3.554 2.498v2.861l-4.125 2.9-2.729-.8-1.275-4.124c1.2333325-1.4647804 2.8030777-2.6090647 4.575-3.335zm-4.377 19.078h2.856l.929 2.839c-1.4387771-.683775-2.725819-1.6491414-3.785-2.839zm14.078 2.838.928-2.838h2.856c-1.0590012 1.1893711-2.3456834 2.1543827-3.784 2.838z" fill-rule="nonzero"/><path id="Shape" d="m46 27c.2223201.0001985.4383671-.0736939.614-.21l1.055-.821c.7954189.6617993 1.7962791 1.0262948 2.831 1.031 1.5406694.0093776 2.9778183-.7744511 3.8041528-2.0748055.8263346-1.3003543.9256341-2.9343445.2628472-4.3251945l1.047-.814c.2822398-.2193611.4260124-.5726322.3771601-.9267396-.0488524-.3541074-.2829079-.6552537-.614-.79-.3310922-.1347463-.7089203-.0826215-.9911601.1367396l-1.055.821c-.7959681-.660358-1.7967732-1.0234194-2.831-1.027-1.5406694-.0093776-2.9778183.7744511-3.8041528 2.0748055-.8263346 1.3003543-.9256341 2.9343445-.2628472 4.3251945l-1.047.814c-.3343941.2630092-.4657735.7087963-.3274612 1.1111182.1383122.402322.5160319.6730885.9414612.6748818zm7-4.5c0 .6630412-.2633921 1.298926-.732233 1.767767-.468841.4688409-1.1047258.732233-1.767767.732233-.4146489-.0025924-.8219204-.109914-1.184-.312l3.6-2.8c.053438.1996936.0816576.4052933.084.612zm-5 0c0-1.3807119 1.1192881-2.5 2.5-2.5.4146489.0025924.8219204.109914 1.184.312l-3.6 2.8c-.053438-.1996936-.0816576-.4052933-.084-.612z" fill-rule="nonzero"/><path id="Shape" d="m55 33.5c-.0025816-.6575004-.1504407-1.306305-.433-1.9l1.047-.814c.2822398-.2193611.4260124-.5726322.3771601-.9267396-.0488524-.3541074-.2829079-.6552537-.614-.79-.3310922-.1347463-.7089203-.0826215-.9911601.1367396l-1.055.821c-.7959681-.660358-1.7967732-1.0234194-2.831-1.027-1.5406694-.0093776-2.9778183.7744511-3.8041528 2.0748055-.8263346 1.3003543-.9256341 2.9343445-.2628472 4.3251945l-1.047.814c-.2822398.2193611-.4260124.5726322-.3771601.9267396.0488524.3541074.2829079.6552537.614.79.3310922.1347463.7089203.0826215.9911601-.1367396l1.055-.821c.7959681.660358 1.7967732 1.0234194 2.831 1.027 2.4841391-.0027556 4.4972444-2.0158609 4.5-4.5zm-7 0c0-1.3807119 1.1192881-2.5 2.5-2.5.4146489.0025924.8219204.109914 1.184.312l-3.6 2.8c-.053438-.1996936-.0816576-.4052933-.084-.612zm2.5 2.5c-.4146489-.0025924-.8219204-.109914-1.184-.312l3.6-2.8c.053438.1996936.0816576.4052933.084.612 0 1.3807119-1.1192881 2.5-2.5 2.5z" fill-rule="nonzero"/><path id="Path" d="m48 41h-2c-.5522847 0-1 .4477153-1 1s.4477153 1 1 1h2c.5522847 0 1-.4477153 1-1s-.4477153-1-1-1z"/><path id="Path" d="m55 41h-2c-.5522847 0-1 .4477153-1 1s.4477153 1 1 1h2c.5522847 0 1-.4477153 1-1s-.4477153-1-1-1z"/><path id="Path" d="m48 45h-2c-.5522847 0-1 .4477153-1 1s.4477153 1 1 1h2c.5522847 0 1-.4477153 1-1s-.4477153-1-1-1z"/><path id="Path" d="m55 45h-2c-.5522847 0-1 .4477153-1 1s.4477153 1 1 1h2c.5522847 0 1-.4477153 1-1s-.4477153-1-1-1z"/><path id="Path" d="m48 49h-2c-.5522847 0-1 .4477153-1 1s.4477153 1 1 1h2c.5522847 0 1-.4477153 1-1s-.4477153-1-1-1z"/><path id="Path" d="m55 49h-2c-.5522847 0-1 .4477153-1 1s.4477153 1 1 1h2c.5522847 0 1-.4477153 1-1s-.4477153-1-1-1z"/></g></g></g></svg>