<svg height="512" viewBox="0 0 50 60" width="512" xmlns="http://www.w3.org/2000/svg"><g id="Page-1" fill="none" fill-rule="evenodd"><g id="033---Football-Stadium-Location" transform="translate(0 -1)"><path id="Path" d="m42.89 22.2c-.3975942 4.0931998-1.6550225 8.0563139-3.69 11.63h-.01c-1.2411656 2.1986758-2.7019626 4.2659046-4.36 6.17-2.5343631 2.9230344-5.4466152 5.4956359-8.66 7.65-.7107006.4649885-1.6292994.4649885-2.34 0-3.2170251-2.1535026-6.1326927-4.7261505-8.67-7.65-1.6557127-1.9023329-3.1163626-3.9660034-4.36-6.16-2.46043948-4.2831545-3.7696129-9.1305414-3.8-14.07.03318442-4.8649465 2.045156-9.5068159 5.5727925-12.85712731 3.5276364-3.35031142 8.2670142-5.1204187 13.1272075-4.90287269 10.5.4 18.12 9.86 17.19 20.19z" fill="#f44335"/><path id="Path" d="m25.7 2.01c-.7540355-.02333137-1.5087922-.00028791-2.26.069 10.111.808 17.36 10.038 16.45 20.121-.3975942 4.0931998-1.6550225 8.0563139-3.69 11.63h-.01c-1.2411656 2.1986758-2.7019626 4.2659046-4.36 6.17-2.4479385 2.821403-5.2474145 5.3174065-8.33 7.427.109.073.232.159.33.223.7107006.4649885 1.6292994.4649885 2.34 0 3.2133848-2.1543641 6.1256369-4.7269656 8.66-7.65 1.6580374-1.9040954 3.1188344-3.9713242 4.36-6.17h.01c2.0349775-3.5736861 3.2924058-7.5368002 3.69-11.63.93-10.33-6.69-19.79-17.19-20.19z" fill="#c81e1e"/><path id="Path" d="m48.82 42.66c-.29 1.03-1.91 6.62-2.82 9.34-1.43 4.28-9.76 8-21 8s-19.57-3.72-21-8c-.83-2.5-2.24-7.36-2.69-8.9l.03-.01c.69 1.64 2.45 3.14 4.98 4.37 4.4 2.16 11.13 3.54 18.68 3.54s14.28-1.38 18.68-3.54c2.75-1.34 4.59-3 5.14-4.8z" fill="#02a9f4"/><path id="Path" d="m44.551 47c-.533 1.784-1.121 3.71-1.551 5-1.365 4.086-9.028 7.654-19.5 7.969.5.015.992.031 1.5.031 11.24 0 19.57-3.72 21-8 .91-2.72 2.53-8.31 2.82-9.34-.489 1.602-2.005 3.091-4.269 4.34z" fill="#0377bc"/><path id="Path" d="m15.16 40c-2.6291075.470187-5.1339682 1.4741733-7.36 2.95-1.08005169.6589659-1.78466832 1.790061-1.9 3.05.00400964.5158947.14926618 1.0208341.42 1.46-2.53-1.23-4.29-2.73-4.98-4.37-.22409839-.5001234-.33996366-1.0419639-.34-1.59 0-3.14 3.86-5.93 9.8-7.66 1.2436374 2.1939966 2.7042873 4.2576671 4.36 6.16z" fill="#0377bc"/><path id="Path" d="m44.1 46c-.0040096.5158947-.1492662 1.0208341-.42 1.46-4.4 2.16-11.13 3.54-18.68 3.54s-14.28-1.38-18.68-3.54c-.27073382-.4391659-.41599036-.9441053-.42-1.46.11533168-1.259939.81994831-2.3910341 1.9-3.05 2.2260318-1.4758267 4.7308925-2.479813 7.36-2.95 2.5373073 2.9238495 5.4529749 5.4964974 8.67 7.65.7107006.4649885 1.6292994.4649885 2.34 0 3.2133848-2.1543641 6.1256369-4.7269656 8.66-7.65 2.6321705.4703262 5.1402728 1.4742478 7.37 2.95 1.0800517.6589659 1.7846683 1.790061 1.9 3.05z" fill="#60a917"/><path id="Path" d="m49 41.5c.0017531.3376577-.0419732.6740137-.13 1-.02.06-.03.11-.05.16-.55 1.8-2.39 3.46-5.14 4.8.2707338-.4391659.4159904-.9441053.42-1.46-.1153317-1.259939-.8199483-2.3910341-1.9-3.05-2.2297272-1.4757522-4.7378295-2.4796738-7.37-2.95 1.6580374-1.9040954 3.1188344-3.9713242 4.36-6.17h.01c5.94 1.74 9.8 4.52 9.8 7.67z" fill="#0377bc"/><path id="Path" d="m25 33c7.007218.001214 12.7529228-5.5546927 12.987-12.558.013-.149.013-.292.013-.442 0-7.1797017-5.8202983-13-13-13s-13 5.8202983-13 13c0 .149 0 .292.013.442.2351057 7.0028507 5.9802038 12.5581708 12.987 12.558z" fill="#f5f5f5"/><path id="Path" d="m35.25 12.011c-2.7726297-3.59967014-7.2404627-5.46703422-11.75-4.911 1.0035937.11097603 1.9904853.34057939 2.94.684 5.1333678 1.87322697 8.5516977 6.7515352 8.56 12.216 0 .149 0 .292-.013.442-.1886011 5.6455705-4.0037552 10.5222413-9.438 12.064-.6707205.1899456-1.356086.3237407-2.049.4.4977754.060163.998608.0915485 1.5.094 7.007218.001214 12.7529228-5.5546927 12.987-12.558.013-.15.013-.293.013-.442.0037307-2.8957991-.9646534-5.709043-2.75-7.989z" fill="#cfd8dc"/><g fill="#607d8b"><path id="Path" d="m21.45 32.51c-2.998678-.8561587-5.591787-2.7575355-7.31-5.36-.02-.04-.05-.07-.07-.11l.07-.04h5.51z"/><path id="Path" d="m16.35 17.19-4.34 3.25c-.01-.15-.01-.29-.01-.44-.0013293-2.8957037.9667805-5.7085027 2.75-7.99z"/><path id="Path" d="m29.44 7.78-4.44 3.12-4.44-3.12c2.8686498-1.03999347 6.0113502-1.03999347 8.88 0z"/><path id="Path" d="m29.95 18.28-1.9 5.72h-6.11l-1.89-5.72 4.95-3.48z"/><path id="Path" d="m38 20c0 .15 0 .29-.01.44l-4.34-3.25 1.6-5.18c1.7832195 2.2814973 2.7513293 5.0942963 2.75 7.99z"/><path id="Path" d="m35.92 27.04c-.02.04-.05.07-.07.11-1.7122155 2.6039031-4.3028659 4.5060793-7.3 5.36l1.8-5.51h5.5z"/></g><path id="Path" d="m38 20c0 .15 0 .29-.01.44l-3.14-2.35c-.119081-.8967282-.3439817-1.7761908-.67-2.62l1.07-3.46c1.7853514 2.2803391 2.7537224 5.093897 2.75 7.99z" fill="#37474f"/><path id="Path" d="m35.92 27.04c-.02.04-.05.07-.07.11-1.7122155 2.6039031-4.3028659 4.5060793-7.3 5.36l.53-1.61c1.5002106-.9786368 2.7833972-2.2550161 3.77-3.75.0336363-.0477263.0637174-.0978615.09-.15h2.91z" fill="#37474f"/><path id="Shape" d="m40.651 33.238c1.7777008-3.4040261 2.877713-7.1207703 3.239-10.944.4848418-5.4310029-1.2708771-10.8242392-4.86-14.929-3.3593294-3.86610862-8.1716415-6.16580721-13.29-6.351-5.1979319-.22112746-10.2588602 1.70057932-14 5.316-3.67564654 3.50439965-5.75085478 8.3645084-5.74 13.443.01789662 4.6940866 1.1644704 9.3150224 3.343 13.473-5.956 1.962-9.343 4.936-9.343 8.254.0044552.6405105.13493501 1.2738812.384 1.864l-.035.011c.419 1.452 1.853 6.39 2.7 8.941 1.68 5.032 10.911 8.684 21.951 8.684s20.272-3.652 21.949-8.684c1-2.985 2.866-9.478 2.885-9.543h-.014c.1170046-.4143015.1775512-.8425006.18-1.273 0-3.315-3.389-6.291-9.349-8.262zm7.349 8.262c0 1.371-1.05 2.77-2.935 4.031-.254253-1.3896274-1.0723342-2.6120433-2.26-3.377-1.8732014-1.2872008-3.9690205-2.2155866-6.181-2.738 1.1162272-1.3903631 2.1330795-2.8576647 3.043-4.391 5.159 1.643 8.333 4.091 8.333 6.475zm-40.914 5.239c-.11525543-.2297825-.17874516-.4820347-.186-.739.14411072-.9351369.69283039-1.7593138 1.5-2.253 1.9394472-1.2901657 4.1142626-2.1852381 6.4-2.634 2.5037257 2.8074015 5.3534729 5.2858517 8.481 7.376 1.0407847.6787447 2.3842153.6787447 3.425 0 3.1265182-2.0898955 5.9746812-4.568765 8.476-7.377 2.2869012.4557485 4.4637397 1.3505956 6.41 2.635.8104118.4917718 1.362303 1.3163147 1.508 2.253-.0072815.256524-.0704148.5083746-.185.738-4.046 1.906-10.281 3.262-17.915 3.262s-13.868-1.355-17.914-3.261zm6.039-38.968c3.1825787-3.07759039 7.4418089-4.78967964 11.869-4.771.2226667 0 .4463333.00433333.671.013 4.5699066.16623619 8.8660551 2.22088444 11.864 5.674 3.2290703 3.6915827 4.8082655 8.5429742 4.371 13.428-1.279 14.259-13.782 23.077-16.275 24.7-.3782036.245927-.8657964.245927-1.244 0-2.738-1.782-16.381-11.456-16.381-27.042-.00901337-4.5340317 1.84375663-8.8729479 5.125-12.002zm-2.794 27.26c.9078931 1.5312259 1.9230999 2.9962247 3.038 4.384-2.2076932.5235934-4.29930662 1.4515794-6.169 2.737-1.18865862.7654251-2.00774815 1.9884492-2.263 3.379-1.886-1.261-2.937-2.66-2.937-4.031 0-2.387 3.174-4.833 8.331-6.469zm34.721 16.653c-1.182 3.546-8.612 7.316-20.052 7.316s-18.869-3.77-20.051-7.316c-.414-1.243-.971-3.07-1.48-4.774 4.316 3.07 12.257 5.09 21.531 5.09s17.22-2.021 21.535-5.093c-.516 1.725-1.075 3.553-1.483 4.777z" fill="#000" fill-rule="nonzero"/><path id="Shape" d="m21.151 33.459.024.008c2.4986689.7090714 5.1453311.7090714 7.644 0l.029-.01.015-.005c5.8127501-1.6657087 9.8959439-6.8794469 10.12-12.922.017-.179.017-.351.017-.53.0036795-5.9793308-3.7923296-11.3003264-9.4473766-13.24271014-5.655047-1.94238373-11.9194473-.07691663-15.5906234 4.64271014-1.92818 2.4510118-2.9719257 5.4814686-2.962 8.6 0 .179 0 .351.014.473.200338 6.0656462 4.2899718 11.3097816 10.124 12.982zm-6.538-7.459c-.8980776-1.5548716-1.4337138-3.2923566-1.567-5.083l3.5-2.63 2.72.8 1.561 4.724-1.671 2.189zm-.192-11.664.765 2.473-2.067 1.551c.1879635-1.4088337.6290556-2.7720861 1.302-4.024zm10.579-6.336c.7108009-.00036248 1.420238.06221522 2.12.187l-2.12 1.49-2.12-1.49c.6998278-.12428985 1.409221-.18686369 2.12-.187zm0 8.022 3.764 2.646-1.431 4.332h-4.666l-1.431-4.332zm5.732 3.065 2.72-.8 3.5 2.63c-.1308278 1.7908318-.6659015 3.5287103-1.565 5.083h-4.543l-1.673-2.189zm6.149-.727-2.067-1.551.765-2.474c.6730788 1.2522129 1.1141754 2.6158179 1.302 4.025zm-11.881 13.64c-.9330734-.0010958-1.8627844-.1118556-2.77-.33l-1.465-4.481 1.673-2.189h5.124l1.673 2.189-1.465 4.481c-.9071845.2183178-1.8369161.3290801-2.77.33zm5.147-1.162.928-2.838h2.856c-1.0590012 1.1893711-2.3456834 2.1543827-3.784 2.838zm3.982-18.584-1.275 4.124-2.729.8-4.125-2.897v-2.861l3.554-2.5c1.7716811.72589417 3.3413624 1.8697887 4.575 3.334zm-13.683-3.332 3.554 2.498v2.861l-4.125 2.9-2.729-.8-1.275-4.124c1.2333325-1.4647804 2.8030777-2.60906469 4.575-3.335zm-4.377 19.078h2.856l.929 2.839c-1.4387771-.683775-2.725819-1.6491414-3.785-2.839z" fill="#000" fill-rule="nonzero"/></g></g></svg>