<svg height="512" viewBox="0 0 47 60" width="512" xmlns="http://www.w3.org/2000/svg"><g id="Page-1" fill="none" fill-rule="evenodd"><g id="034---Location-Pin" transform="translate(0 -1)"><path id="Path" d="m44.937 27.475c-1.531 17.572-15.857 28.991-20.475 32.088-.8629883.5845805-1.9950117.5845805-2.858 0-4.885-3.279-20.604-15.794-20.604-35.154-.05323137-6.0425006 2.35822533-11.8457684 6.67809168-16.07109699 4.31986632-4.22532858 10.17506442-6.50780457 16.21490832-6.32090301 12.855.496 22.179 12.426 21.044 25.458z" fill="#f44335"/><path id="Path" d="m23.893 2.017c-.8017746-.03117034-1.6046576-.01815062-2.405.039 12.545.837 21.566 12.59 20.449 25.419-1.523 17.485-15.712 28.875-20.402 32.038l.069.047c.8629883.5845805 1.9950117.5845805 2.858 0 4.618-3.1 18.944-14.516 20.475-32.088 1.135-13.029-8.189-24.959-21.044-25.455z" fill="#c81e1e"/><path id="Path" d="m29.62 47c-2.0069005 2.2600225-4.216082 4.3319671-6.6 6.19-2.4078009-1.8515715-4.6374764-3.9238975-6.66-6.19z" fill="#ffdf00"/><path id="Path" d="m23 41c9.1631877.0013468 16.6766616-7.2639343 16.983-16.422.017-.195.017-.378.017-.578 0-9.3888407-7.6111593-17-17-17s-17 7.6111593-17 17c0 .2 0 .383.017.578.30736679 9.1576091 7.8202341 16.4223036 16.983 16.422z" fill="#f5f5f5"/><path id="Path" d="m36.4 13.553c-3.2148834-4.13663888-8.1609876-6.55543152-13.4-6.553-.506 0-1.006.023-1.5.066 1.4709017.1260417 2.9185539.44684546 4.305.954 6.7154345 2.449468 11.1866555 8.8317915 11.195 15.98 0 .2 0 .383-.017.578-.2465598 7.3826954-5.235637 13.7599179-12.342 15.776-1.0261441.2915345-2.0780136.4834228-3.141.573.5.043.994.073 1.5.073 9.1631877.0013468 16.6766616-7.2639343 16.983-16.422.017-.195.017-.378.017-.578.0035739-3.787188-1.2641244-7.4659782-3.6-10.447z" fill="#cfd8dc"/><g fill="#607d8b"><path id="Path" d="m40 24c.0033266.1935488-.0033489.3871401-.02.58l-5.67-4.26 2.09-6.77c2.3381691 2.9809285 3.6061081 6.6614736 3.6 10.45z"/><path id="Path" d="m36.74 34c-2.2298815 3.0828867-5.4370247 5.3208383-9.1 6.35l2.36-6.35z"/><path id="Path" d="m18.36 40.35c-3.6645646-1.0315232-6.8741768-3.2687392-9.11-6.35h6.75z"/><path id="Path" d="m11.69 20.32-5.67 4.26c-.01665108-.1928599-.02332665-.3864512-.02-.58-.00610805-3.7885264 1.26183093-7.4690715 3.6-10.45z"/><path id="Path" d="m28.81 8.02-5.81 4.08-5.81-4.08c3.7539513-1.36000915 7.8660487-1.36000915 11.62 0z"/><path id="Path" d="m29.47 21.75-2.48 7.25h-7.99l-2.47-7.25 6.47-4.55z"/></g><path id="Path" d="m40 24c.0033266.1935488-.0033489.3871401-.02.58l-3.07-2.31c-.1888168-1.8958968-.6994652-3.7457292-1.51-5.47l1-3.25c.14.18.28.37.41.55s.26.37.39.56c1.8312501 2.7703641 2.8051756 6.0191014 2.8 9.34z" fill="#37474f"/><path id="Path" d="m36.74 34c-.14.2-.29.39-.43.58-.06.07-.12.14-.17.2-.24.29-.49.57-.74.85-2.1070433 2.2525265-4.7908013 3.8849154-7.76 4.72l.53-1.43c2.2002531-1.2081692 4.1058256-2.8883513 5.58-4.92z" fill="#37474f"/><path id="Shape" d="m21.047 60.391c1.2005338.8086267 2.7714662.8086267 3.972 0 3.2-2.147 19.258-13.821 20.914-32.831.6143177-6.8683238-1.5979104-13.6902633-6.126-18.891-4.0078217-4.63401068-9.7542874-7.4033612-15.876-7.651-6.2170395-.25403531-12.2656927 2.05573969-16.731 6.389-4.63073113 4.4388366-7.23402476 10.5855021-7.2 17 0 20.814 17.532 33.627 21.047 35.984zm-12.46-51.542c3.867836-3.75781899 9.0502918-5.85656468 14.443-5.849.274 0 .5486667.00533333.824.016 5.5744781.22896334 10.8058443 2.75397619 14.453 6.976 4.1680196 4.7914002 6.2025804 11.0749213 5.634 17.4-1.577 18.1-16.967 29.285-20.036 31.343-.5251483.3614538-1.2188517.3614538-1.744 0-3.367-2.263-20.161-14.529-20.161-34.326-.03240843-5.8707786 2.34928704-11.4968878 6.587-15.56z" fill="#000" fill-rule="nonzero"/><path id="Shape" d="m18.083 41.315c7.2005929 2.0508485 14.917884-.5824286 19.363-6.607.005 0 .008-.013.014-.019.192-.261.39-.516.569-.788 1.8196873-2.7460647 2.8409707-5.9435471 2.95-9.236.021-.225.021-.44.021-.665.0057189-7.688113-4.8742255-14.53038412-12.1450507-17.02882684-7.2708251-2.49844271-15.3257935-.10094069-20.0469493 5.96682684-2.47944275 3.1529607-3.8212884 7.0509377-3.808 11.062 0 .225 0 .44.018.61.10273666 3.3104751 1.12450313 6.5270832 2.951 9.29.135.2.286.394.429.592.04410924.0839219.09963757.161325.165.23 2.353457 3.1935462 5.7027658 5.5130832 9.52 6.593zm-6.702-6.315h3.924l1.369 3.684c-1.9978014-.8529323-3.7992992-2.1067993-5.293-3.684zm11.619-27c1.1845488.00216937 2.3651671.13633055 3.52.4l-3.52 2.478-3.521-2.478c1.1552549-.26317968 2.3361497-.39733416 3.521-.4zm0 10.422 5.28 3.712-2 5.866h-6.56l-2-5.866zm-3.431 11.578h6.862l2.463 4.106-2.01 5.407c-2.5488796.6499998-5.2201204.6499998-7.769 0l-2.009-5.406zm9.757 8.684 1.374-3.684h3.924c-1.4953293 1.5775667-3.2985342 2.8314373-5.298 3.684zm7.033-5.884c-.045.069-.1.131-.144.2h-5.653l-2.47-4.118 2.156-6.324 3.867-1.138 4.835 3.633c-.1719585 2.7643601-1.0652944 5.4354034-2.591 7.747zm.386-16.964c1.2260966 2.0391495 1.9732088 4.3300658 2.185 6.7l-3.453-2.595zm-1.456-2.061-1.773 5.735-3.87 1.139-5.646-3.968v-4.061l4.937-3.47c2.4721507.9842264 4.6566501 2.5751417 6.352 4.626zm-18.226-4.625 4.937 3.47v4.061l-5.646 3.969-3.87-1.139-1.773-5.735c1.6951718-2.0510477 3.8797237-3.6420012 6.352-4.626zm-7.808 6.688 1.268 4.1-3.453 2.599c.21193966-2.3695902.95904671-4.6601487 2.185-6.699zm-2.2 9.214 4.835-3.632 3.867 1.138 2.156 6.324-2.475 4.118h-5.653c-.047-.069-.1-.132-.146-.2-1.52305689-2.3131108-2.41551296-4.9839295-2.589-7.748z" fill="#000" fill-rule="nonzero"/><path id="Shape" d="m29.62 46h-13.26c-.3937523-.0001053-.7509145.2308641-.912353.59-.1614384.3591358-.0970986.7795785.164353 1.074 2.0634849 2.314621 4.340186 4.4299441 6.8 6.318.3603524.2788563.8636476.2788563 1.224 0 2.4321789-1.8963978 4.686499-4.0104714 6.735-6.316.2631479-.2947281.3280875-.7167654.1657148-1.076969-.1623727-.3602035-.5216104-.5910301-.9167148-.589031zm-6.6 5.917c-1.5310932-1.215683-2.9864718-2.5237872-4.358-3.917h8.662c-1.3569741 1.3896584-2.7951653 2.697621-4.307 3.917z" fill="#000" fill-rule="nonzero"/></g></g></svg>