<svg height="512" viewBox="0 0 60 60" width="512" xmlns="http://www.w3.org/2000/svg"><g id="Page-1" fill="none" fill-rule="evenodd"><g id="037---Radio"><path id="Path" d="m47 12v21.04c-.33-.03-.66-.04-1-.04-1.0102551-.0012074-2.0171549.1162642-3 .35-.488566.1129048-.9695214.2565234-1.44.43-2.2977651.8321026-4.3123928 2.2988626-5.81 4.23-.4851936.623809-.9135699 1.2898003-1.28 1.99h-30.47c-1.65685425 0-3-1.3431458-3-3v-25c0-1.6568542 1.34314575-3 3-3h40c1.6568542 0 3 1.3431458 3 3z" fill="#ff9801"/><path id="Path" d="m44 9h-3c1.6568542 0 3 1.3431458 3 3v21.04c-.33-.03-.66-.04-1-.04-1.0102551-.0012074-2.0171549.1162642-3 .35-.488566.1129048-.9695214.2565234-1.44.43-2.2977651.8321026-4.3123928 2.2988626-5.81 4.23-.4851936.623809-.9135699 1.2898003-1.28 1.99h3c.3664301-.7001997.7948064-1.366191 1.28-1.99 1.4976072-1.9311374 3.5122349-3.3978974 5.81-4.23.4704786-.1734766.951434-.3170952 1.44-.43.9828451-.2337358 1.9897449-.3512074 3-.35.34 0 .67.01 1 .04v-21.04c0-1.6568542-1.3431458-3-3-3z" fill="#f57c00"/><rect id="Rectangle" fill="#f5f5f5" height="6" rx="3" width="46" x="1" y="14"/><path id="Path" d="m44 14h-3c1.6568542 0 3 1.3431458 3 3s-1.3431458 3-3 3h3c1.6568542 0 3-1.3431458 3-3s-1.3431458-3-3-3z" fill="#cfd8dc"/><path id="Path" d="m10 4v5h-6v-5c.00000002-1.65685423 1.34314577-2.99999996 3-2.99999996s2.99999998 1.34314573 3 2.99999996z" fill="#707070"/><circle id="Oval" cx="33" cy="27" fill="#00bcd4" r="2"/><circle id="Oval" cx="41" cy="27" fill="#00bcd4" r="2"/><path id="Path" d="m35 2v2c0 .55228475-.4477153 1-1 1h-24v-1c0-1.65685425-1.34314575-3-3-3h27c.5522847 0 1 .44771525 1 1z" fill="#9e9e9e"/><path id="Path" d="m59 46c0 .15 0 .29-.01.44-.0718481 2.3927731-.81325 4.717449-2.14 6.71-2.402722 3.6535429-6.4821922 5.8532999-10.855 5.8532999s-8.452278-2.199757-10.855-5.8532999c-1.3157597-1.997177-2.0529822-4.3196009-2.13-6.71-.01-.15-.01-.29-.01-.44 0-.34.01-.67.04-1 .1328999-1.7463533.6194175-3.447464 1.43-5 .3664301-.7001997.7948064-1.366191 1.28-1.99 1.4976072-1.9311374 3.5122349-3.3978974 5.81-4.23.4704786-.1734766.951434-.3170952 1.44-.43.9828451-.2337358 1.9897449-.3512074 3-.35.34 0 .67.01 1 .04 1.1755764.0849594 2.3334756.3340423 3.44.74 5.135304 1.8729995 8.5542545 6.753791 8.56 12.22z" fill="#f5f5f5"/><path id="Path" d="m56.25 38.011c-2.7726297-3.5996701-7.2404627-5.4670342-11.75-4.911 1.0035937.110976 1.9904853.3405794 2.94.684 5.1333678 1.873227 8.5516977 6.7515352 8.56 12.216 0 .149 0 .292-.013.442-.1886011 5.6455705-4.0037552 10.5222413-9.438 12.064-.6707205.1899456-1.356086.3237407-2.049.4.4977754.060163.998608.0915485 1.5.094 7.007218.001214 12.7529228-5.5546927 12.987-12.558.013-.15.013-.293.013-.442.0037307-2.8957991-.9646534-5.709043-2.75-7.989z" fill="#cfd8dc"/><path id="Path" d="m42.45 58.51c-2.998678-.8561587-5.591787-2.7575355-7.31-5.36-.02-.04-.05-.07-.07-.11l.07-.04h5.51z" fill="#607d8b"/><path id="Path" d="m37.35 43.19-4.34 3.25c-.01-.15-.01-.29-.01-.44-.0013293-2.8957037.9667805-5.7085027 2.75-7.99z" fill="#607d8b"/><path id="Path" d="m50.44 33.78-4.44 3.12-4.44-3.12c2.8686498-1.0399935 6.0113502-1.0399935 8.88 0z" fill="#607d8b"/><path id="Path" d="m50.95 44.28-1.9 5.72h-6.11l-1.89-5.72 4.95-3.48z" fill="#607d8b"/><path id="Path" d="m59 46c0 .15 0 .29-.01.44l-4.34-3.25 1.6-5.18c1.7832195 2.2814973 2.7513293 5.0942963 2.75 7.99z" fill="#607d8b"/><path id="Path" d="m56.92 53.04c-.02.04-.05.07-.07.11-1.7122155 2.6039031-4.3028659 4.5060793-7.3 5.36l1.8-5.51h5.5z" fill="#607d8b"/><path id="Path" d="m59 46c0 .15 0 .29-.01.44l-3.14-2.35c-.119081-.8967282-.3439817-1.7761908-.67-2.62l1.07-3.46c1.7853514 2.2803391 2.7537224 5.093897 2.75 7.99z" fill="#37474f"/><path id="Path" d="m56.92 53.04c-.02.04-.05.07-.07.11-1.7122155 2.6039031-4.3028659 4.5060793-7.3 5.36l.53-1.61c1.5002106-.9786368 2.7833972-2.2550161 3.77-3.75.0336363-.0477263.0637174-.0978615.09-.15h2.91z" fill="#37474f"/><g fill="#000"><path id="Path" d="m10 25h13c.5522847 0 1-.4477153 1-1s-.4477153-1-1-1h-13c-.55228475 0-1 .4477153-1 1s.44771525 1 1 1z"/><path id="Path" d="m26 27h-19c-.55228475 0-1 .4477153-1 1s.44771525 1 1 1h19c.5522847 0 1-.4477153 1-1s-.4477153-1-1-1z"/><path id="Path" d="m26 31h-19c-.55228475 0-1 .4477153-1 1s.44771525 1 1 1h19c.5522847 0 1-.4477153 1-1s-.4477153-1-1-1z"/><path id="Path" d="m23 35h-13c-.55228475 0-1 .4477153-1 1s.44771525 1 1 1h13c.5522847 0 1-.4477153 1-1s-.4477153-1-1-1z"/><path id="Shape" d="m36 27c0-1.6568542-1.3431458-3-3-3s-3 1.3431458-3 3 1.3431458 3 3 3 3-1.3431458 3-3zm-3 1c-.5522847 0-1-.4477153-1-1s.4477153-1 1-1 1 .4477153 1 1-.4477153 1-1 1z" fill-rule="nonzero"/><path id="Shape" d="m41 30c1.6568542 0 3-1.3431458 3-3s-1.3431458-3-3-3-3 1.3431458-3 3 1.3431458 3 3 3zm0-4c.5522847 0 1 .4477153 1 1s-.4477153 1-1 1-1-.4477153-1-1 .4477153-1 1-1z" fill-rule="nonzero"/><path id="Shape" d="m50.783 32.841c-.9011122-.3256174-1.833876-.5558757-2.783-.687v-20.154c0-2.209139-1.790861-4-4-4h-33v-2h23c1.1045695 0 2-.8954305 2-2h19c0 .55228475.4477153 1 1 1s1-.44771525 1-1v-2c0-.55228475-.4477153-1-1-1s-1 .44771525-1 1h-19c0-1.1045695-.8954305-2-2-2h-27c-2.209139 0-4 1.790861-4 4v4.142c-1.76068514.45459333-2.99318518 2.0395884-3 3.858v25c0 2.209139 1.790861 4 4 4h28.929c-.6143175 1.5954102-.9292473 3.2904036-.929 5 0 .178 0 .349.014.474.2007642 6.0652723 4.2903133 11.3088951 10.124 12.981h.013l.024.008c2.4986689.7090714 5.1453311.7090714 7.644 0l.03-.01h.013c5.8142914-1.6667436 9.8979989-6.8826398 10.121-12.927.017-.177.017-.348.017-.526-.0061797-5.8860097-3.6874627-11.1417332-9.217-13.159zm5.605 19.159h-4.544l-1.673-2.19 1.561-4.723 2.72-.8 3.5 2.63c-.1314802 1.7905718-.6661459 3.5282355-1.564 5.083zm-10.388 6c-.9330734-.0010958-1.8627844-.1118556-2.77-.33l-1.466-4.48 1.674-2.19h5.124l1.674 2.19-1.466 4.48c-.907173.2183819-1.8369122.329145-2.77.33zm-10.388-6c-.897189-1.5551908-1.4324431-3.292545-1.566-5.083l3.5-2.63 2.72.8 1.561 4.723-1.671 2.19zm10.388-18c.710777.0001827 1.4201661.0627561 2.12.187l-2.12 1.49-2.12-1.49c.6998278-.1242899 1.409221-.1868637 2.12-.187zm2.332 15h-4.664l-1.432-4.332 3.764-2.646 3.764 2.646zm-6.886-14.078 3.554 2.498v2.861l-4.125 2.9-2.73-.8-1.275-4.127c1.2340396-1.4637294 2.804089-2.606956 4.576-3.332zm-6.025 5.414.765 2.473-2.066 1.551c.1871556-1.4088814.627936-2.7722177 1.301-4.024zm20.393 2.473.765-2.474c.6720989 1.2524691 1.1124988 2.6160148 1.3 4.025zm-.685-4.554-1.274 4.122-2.73.8-4.125-2.896v-2.861l3.554-2.5c1.7720784.7256558 3.3418859 1.8699854 4.575 3.335zm-51.129-19.255c-1.1045695 0-2-.8954305-2-2s.8954305-2 2-2h6v4zm8-4h32c1.1045695 0 2 .8954305 2 2s-.8954305 2-2 2h-32zm22-11h-23c-.0041446-.70425323-.1960759-1.39465346-.556-2h23.556zm-29 0c0-1.1045695.8954305-2 2-2s2 .8954305 2 2v4h-4zm-1 6h40c1.1045695 0 2 .8954305 2 2v1.556c-.6053465-.3599241-1.2957468-.5518554-2-.556h-40c-.70425323.0041446-1.39465346.1960759-2 .556v-1.556c0-1.1045695.8954305-2 2-2zm0 29c-1.1045695 0-2-.8954305-2-2v-16.556c.60534654.3599241 1.29574677.5518554 2 .556h40c.7042532-.0041446 1.3946535-.1960759 2-.556v11.556c-4.3163997-.0024628-8.3914313 1.9909397-11.039 5.4-.393725.508465-.7525468 1.0430225-1.074 1.6zm33.069 15h2.857l.928 2.839c-1.4389745-.6834484-2.7260773-1.6488605-3.785-2.839zm14.077 2.839.928-2.839h2.858c-1.0596212 1.1898055-2.3469771 2.1551525-3.786 2.839z" fill-rule="nonzero"/></g></g></g></svg>