<svg height="512" viewBox="0 0 60 45" width="512" xmlns="http://www.w3.org/2000/svg"><g id="Page-1" fill="none" fill-rule="evenodd"><g id="038---Boots" transform="translate(-1 -1)"><g fill="#707070"><path id="Path" d="m11 40.66v2.34c0 1.1045695-.8954305 2-2 2s-2-.8954305-2-2v-2.77c.32.06.66.1 1 .14.98.11 1.98.2 3 .29z"/><path id="Path" d="m19 40.84v2.16c0 1.1045695-.8954305 2-2 2s-2-.8954305-2-2v-2.11l.7.03c.33.01.66.02.99.02.76 0 1.52-.03 2.3-.1z"/><path id="Path" d="m42 41.08v1.92c0 1.1045695-.8954305 2-2 2s-2-.8954305-2-2v-1.78c.21.01.42.01.64.01.54 0 1.09-.01 1.64-.04.58-.03 1.15-.06 1.72-.11z"/><path id="Path" d="m50 40.14v2.86c0 1.1045695-.8954305 2-2 2s-2-.8954305-2-2v-2.28c1.38-.16 2.71-.36 4-.58z"/><path id="Path" d="m56.52 42.96c-1.0906199.1899009-2.1289105-.5395877-2.32-1.63l-.35-1.99c.56-.1333333 1.11-.2733333 1.65-.42l.2-.06c.01 0 .02-.01.03-.01.6701658-.1828114 1.3007617-.4879385 1.86-.9l.1.14.45 2.55c.1868572 1.0865721-.5355596 2.1211443-1.62 2.32z"/></g><path id="Path" d="m59.96 30.71v.11c-.0017744.1744438-.0185023.3484142-.05.52-.45 2.44-3.44 3.17-5.46 3.72-4.7018251 1.229781-9.5235692 1.9439893-14.38 2.13-2.2135042.1375743-4.4353517-.0374804-6.6-.52-2.1251313-.4626747-4.2951556-.6873913-6.47-.67-1.8672788-.0067397-3.7314037.1539031-5.57.48-1.8375305.3560735-3.7093711.5036739-5.58.44-1.23-.04-2.68-.11-4.28-.23-.49-.04-1.01-.09-1.53-.13l1.54-.03c1.45-9.85-1.17-15.59-3.53-18.63.0261098.0241035.04957572.0509217.07.08 1.0402087 1.1711538 2.3326765 2.0909258 3.78 2.69 1.6980118.6911561 3.5305536.9886023 5.36.87 2.2618284-.1772995 4.450493-.8828784 6.39-2.06l21.9 8.93c1.8341794.7346972 3.9328233.2060003 5.2-1.31l.85-1.02.75-.9c.74.3 1.48.6 2.22.89.62.25 1.25.5 1.87.75 1.6.63 3.46 2.04 3.52 3.89z" fill="#02a9f4"/><path id="Path" d="m59.96 30.71v.11c-.0017744.1744438-.0185023.3484142-.05.52-.45 2.44-3.44 3.17-5.46 3.72-4.7018251 1.229781-9.5235692 1.9439893-14.38 2.13-.9495175.0466688-1.9008333.0433309-2.85-.01 4.8062649-.1876102 9.5777689-.8984738 14.23-2.12 2.02-.55 5.01-1.28 5.46-3.72.0314977-.1715858.0482256-.3455562.05-.52v-.11c-.06-1.85-1.92-3.26-3.52-3.89-.61-.25-1.23-.49-1.84-.74l.75-.9c.74.3 1.48.6 2.22.89.62.25 1.25.5 1.87.75 1.6.63 3.46 2.04 3.52 3.89z" fill="#0377bc"/><path id="Path" d="m11.58 36.53-1.54.03c-.52-.06-1.05-.11-1.59-.17-2.26-.25-4.82-1.16-5.9-3.33-.4015374-.9925593-.5823841-2.0605785-.53-3.13l-.01-8.38c0-.02-.01-.04 0-.06l-.01-3.8c.00004024-.1372135.01006672-.2742421.03-.41.1361039-1.1006048.97703532-1.982161 2.07-2.17.49105532-.0668141.99074024.0205435 1.43.25.80965178.4991943 1.50480638 1.1636803 2.04 1.95.14.18.28.35.42.52.01.01.03.03.03.04l.03.03c2.36 3.04 4.98 8.78 3.53 18.63z" fill="#3f51b5"/><path id="Path" d="m8.05 17.9-.03-.03c0-.01-.02-.03-.03-.04-.14-.17-.28-.34-.42-.52-.53519362-.7863197-1.23034822-1.4508057-2.04-1.95-.43925976-.2294565-.93894468-.3168141-1.43-.25-.42583698.0605957-.82569424.2409303-1.153.52.61650734.4817846 1.16277413 1.0472363 1.623 1.68.14.18.28.35.42.52.01.01.03.03.03.04l.03.03c2.35 3.027 4.95 8.733 3.55 18.506.488.053.972.1 1.444.154l1.54-.03c1.446-9.85-1.174-15.59-3.534-18.63z" fill="#283593"/><path id="Path" d="m52.35 25.18-1.6 1.92c-1.2671767 1.5160003-3.3658206 2.0446972-5.2 1.31l-21.9-8.93c.9713937-.5823435 1.8854721-1.2553463 2.73-2.01.5548518-.6107526 1.2473329-1.0804056 2.02-1.37.9811891-.1454139 1.9831772.0262554 2.86.49 5.52 2.24 11.03 4.52 16.55 6.76h.01c1.51.62 3.02 1.23 4.53 1.83z" fill="#3f51b5"/><path id="Path" d="m60 30.82v2.44c-.0000818 1.8604832-.8974089 3.6067337-2.41 4.69-.5592383.4120615-1.1898342.7171886-1.86.9-.01 0-.02.01-.03.01l-.2.06c-.54.15-1.09.29-1.65.42-1.25.3-2.53.57-3.85.8-1.29.22-2.62.42-4 .58-1.29.15-2.62.27-4 .36-.57.05-1.14.08-1.72.11-.55.03-1.1.04-1.64.04-.22 0-.43 0-.64-.01-1.8276733-.0273321-3.6475144-.2451768-5.43-.65-1.8298799-.3953647-3.6979689-.5865336-5.57-.57-1.6190858-.0096741-3.2357111.1275549-4.83.41-1.0480705.2008147-2.1063064.3443608-3.17.43h-.01c-.78.07-1.54.1-2.3.1-.33 0-.66-.01-.99-.02l-.7-.03c-1.39-.06-2.72-.13-4-.23-1.02-.09-2.02-.18-3-.29-.34-.04-.68-.08-1-.14-.13-.02-.25-.05-.37-.07-2.69883279-.5495017-4.63585081-2.9258002-4.63-5.68l-.00040257-13.09c-.00123611.0336447.00213403.0673461.01040257.1-.01.02 0 .04 0 .06l.01 8.38c-.0523841 1.0694215.1284626 2.1374407.53 3.13 1.08 2.17 3.64 3.08 5.9 3.33.54.06 1.07.11 1.59.17.52.04 1.04.09 1.53.13 1.6.12 3.05.19 4.28.23 1.8706289.0636739 3.7424695-.0839265 5.58-.44 1.8385963-.3260969 3.7027212-.4867397 5.57-.48 2.1748444-.0173913 4.3448687.2073253 6.47.67 2.1646483.4825196 4.3864958.6575743 6.6.52 4.8564308-.1860107 9.6781749-.900219 14.38-2.13 2.02-.55 5.01-1.28 5.46-3.72.0314977-.1715858.0482256-.3455562.05-.52z" fill="#7f8e94"/><path id="Path" d="m59.96 30.82c-.0017744.1744438-.0185023.3484142-.05.52-.285 1.544-1.586 2.4-3.016 2.964-.2660374 1.4671475-1.0904619 2.7740394-2.3 3.646-.5592383.4120615-1.1898342.7171886-1.86.9-.01 0-.02.01-.03.01l-.2.06c-.54.15-1.09.29-1.65.42-1.25.3-2.53.57-3.85.8-1.29.22-2.62.42-4 .58-1.29.15-2.62.27-4 .36-.565.05-1.129.079-1.7.109.234.01.466.026.7.031.21.01.42.01.64.01.54 0 1.09-.01 1.64-.04.58-.03 1.15-.06 1.72-.11 1.38-.09 2.71-.21 4-.36 1.38-.16 2.71-.36 4-.58 1.32-.23 2.6-.5 3.85-.8.56-.1333333 1.11-.2733333 1.65-.42l.2-.06c.01 0 .02-.01.03-.01.6701658-.1828114 1.3007617-.4879385 1.86-.9 1.5110778-1.0841336 2.4068424-2.8302417 2.406-4.69l.0000006-2.44z" fill="#545c60"/><path id="Path" d="m31.26 3.505c8.391 3.408 16.758 6.887 25.177 10.224" fill="#283593"/><path id="Path" d="m11.9 20.67c-1.4473235-.5990742-2.7397913-1.5188462-3.78-2.69-.02042428-.0290783-.0438902-.0558965-.07-.08l-.03-.03c0-.01-.02-.03-.03-.04-.14-.17-.28-.34-.42-.52-.53519362-.7863197-1.23034822-1.4508057-2.04-1.95-.43925976-.2294565-.93894468-.3168141-1.43-.25-1.09296468.187839-1.9338961 1.0693952-2.07 2.17 0-.15-.01-.29-.01-.44l-.02-12.24c-.0336967-1.26076596.85864272-2.35706868 2.1-2.58.49105532-.06681405.99074024.02054345 1.43.25.80965178.49919427 1.50480638 1.16368028 2.04 1.95.14.18.28.35.42.52 2.14 2.73 4.54 7.68 3.91 15.93z" fill="#283593"/><path id="Path" d="m59.96 17.62v.11c-.0017744.1744438-.0185023.3484142-.05.52-.45 2.44-3.44 3.17-5.46 3.72-2.1799861.5939574-4.3940718 1.0548078-6.63 1.38h-.01c-5.52-2.24-11.03-4.52-16.55-6.76-.8768228-.4637446-1.8788109-.6354139-2.86-.49-.7726671.2895944-1.4651482.7592474-2.02 1.37-.8445279.7546537-1.7586063 1.4276565-2.73 2.01-1.939507 1.1771216-4.1281716 1.8827005-6.39 2.06-1.8294464.1186023-3.6619882-.1788439-5.36-.87.63-8.25-1.77-13.2-3.91-15.93.04615549.04748263.08955959.09756429.13.15 2.33965 2.5253312 5.7086401 3.83754179 9.14 3.56 2.2618284-.17729953 4.450493-.88287841 6.39-2.06l21.9 8.93c1.8341794.7346972 3.9328233.2060003 5.2-1.31l1.6-1.92c1.36.55 2.73 1.1 4.09 1.64 1.6.63 3.46 2.04 3.52 3.89z" fill="#0377bc"/><path id="Path" d="m52.35 12.09-1.6 1.92c-1.2671767 1.5160003-3.3658206 2.0446972-5.2 1.31l-21.9-8.93c.9713937-.58234352 1.8854721-1.2553463 2.73-2.01.5548518-.61075261 1.2473329-1.08040563 2.02-1.37.9811891-.14541385 1.9831772.02625544 2.86.49 7.03 2.86 14.05 5.76 21.09 8.59z" fill="#283593"/><path id="Path" d="m60 17.73v2.44c-.002054 2.6123133-1.7502157 4.9008904-4.27 5.59-.01 0-.02.01-.03.01l-.2.06c-.31.08-.62.17-.93.24-.74-.29-1.48-.59-2.22-.89-1.51-.6-3.02-1.21-4.53-1.83 2.2359282-.3251922 4.4500139-.7860426 6.63-1.38 2.02-.55 5.01-1.28 5.46-3.72.0314977-.1715858.0482256-.3455562.05-.52z" fill="#545c60"/><path id="Shape" d="m56.81 12.8c-.671-.266-1.344-.537-2.016-.8-.715-.286-1.428-.569-2.144-.857h-.009c-2.1533333-.8666667-4.3016667-1.73766667-6.445-2.613l.468-.585c.2368336-.27735608.3038867-.66165341.1749755-1.00282555-.1289113-.34117214-.4333403-.58510563-.7944088-.6365455s-.7215074.09777277-.9405667.38937105l-.839 1.047c-.565-.23-1.123-.459-1.685-.689l.463-.577c.2333441-.27756396.2981461-.65969895.169354-.99867358s-.4309951-.58166747-.7897788-.63425473c-.3587838-.05258726-.7179226.09317211-.9385752.38092831l-.834 1.039-.712-.291-.975-.4.463-.581c.3443495-.43216282.2731628-1.06165046-.159-1.406s-1.0616505-.27316282-1.406.159l-.828 1.039-1.691-.69.458-.593c.3443495-.43216282.2731628-1.06165046-.159-1.406s-1.0616505-.27316282-1.406.159l-.827 1.047c-.591-.24-1.181-.483-1.771-.723-1.0733673-.5568319-2.3006127-.74350257-3.491-.531-.8628732.28444682-1.6413059.77934438-2.265 1.44l-.167.152c-2.3401258 2.18090298-5.3377327 3.52372394-8.523 3.818-3.1181666.25014275-6.1802005-.93535069-8.317-3.22-.192-.22-.377-.453-.561-.686-.60551349-.87951171-1.39467159-1.61715106-2.313-2.162-.62505961-.32775985-1.33662586-.45287808-2.036-.358-1.73774276.28832556-3.00017946 1.80887179-2.964 3.57v29.88c.00540102 3.0553444 2.05227746 5.7302025 5 6.534v1.986c0 1.6568542 1.34314575 3 3 3 1.6568542 0 3-1.3431458 3-3v-1.272c.6533333.044 1.32.0833333 2 .118v1.154c0 1.6568542 1.3431458 3 3 3s3-1.3431458 3-3v-1.265c.779-.087 1.562-.193 2.354-.342 3.3119353-.5559425 6.6973781-.5047762 9.991.151 1.529972.3495328 3.0875645.5646847 4.655.643v.813c0 1.6568542 1.3431458 3 3 3s3-1.3431458 3-3v-.988c.676-.0526667 1.3426667-.113 2-.181v1.169c.0000001 1.6568542 1.3431458 2.9999999 3 2.9999999s2.9999999-1.3431457 3-2.9999999v-2.031c.692-.1333333 1.3743333-.2736667 2.047-.421l.168.953c.2508198 1.4366319 1.4966404 2.4859881 2.955 2.489.1783244-.0000479.3563141-.015438.532-.046 1.6207768-.3040531 2.6985583-1.851306 2.422-3.477l-.382-2.167c1.4317102-1.2849612 2.2521483-3.1162315 2.258-5.04v-2.44c-.0017008-.123078-.0261099-.2447844-.072-.359-.181-2.006-1.887-3.508-3.542-4.311 2.2149688-1.1746645 3.6038699-3.4728461 3.614-5.98v-2.44c-.0016861-.1227557-.0260979-.2441369-.072-.358-.201-2.241-2.312-3.86-4.118-4.572zm-29.76-7.677.178-.162c.3954679-.43130892.8832813-.76768479 1.427-.984.766822-.07568571 1.5387811.07926321 2.217.445l.013.009 1.221.5-.468.587c-.2416387.27715162-.3116864.66455599-.1823997 1.00877573.1292868.34421974.4370497.58972082.8013948.63926879.364345.04954798.7264911-.10485086.9430049-.40204452l.834-1.046 1.691.69-.467.592c-.2227551.27938169-.279541.65637946-.1489669.9889819s.4286708.57027931.782.62350003.7082118-.08610021.9309669-.36548193l.836-1.048 1.558.637.123.05-.468.582c-.2333441.27756396-.2981461.65969895-.169354.99867358s.4309951.58166752.7897788.63425472c.3587838.0525873.7179226-.0931721.9385752-.3809283l.838-1.045 1.688.691-.467.583c-.2234696.2788458-.2812017.6557296-.1514489.9886829.1297527.3329532.4272776.5713925.7805.6255.3532224.0541074.7084793-.0843371.9319489-.3631829l.837-1.046c1.93.7873333 3.8676667 1.5736667 5.813 2.359l-.72.864c-.9850642 1.1849614-2.6225101 1.598364-4.052 1.023l-20.17-8.23c.442-.329.874-.67 1.292-1.047zm-9.726 4.325c2.2477184-.17164902 4.429737-.8378647 6.39-1.951l21.466 8.753c.6618877.2645594 1.3681978.400323 2.081.4 1.6465266.0014906 3.2078252-.7318577 4.258-2l1.131-1.358.4.159c1.01.4046667 2.0186667.8076667 3.026 1.209 1.362.536 2.845 1.7 2.886 2.959v.11c-.0017764.1137086-.0128129.2270836-.033.339-.322 1.74-2.755 2.4-4.533 2.88l-.208.057c-2.0586549.5602962-4.1486344.9983938-6.259 1.312l-1.736-.707.469-.586c.3244183-.4318457.2472849-1.0432686-.1742202-1.3810132-.4215052-.3377445-1.0350385-.2797404-1.3857798.1310132l-.84 1.049-1.685-.69.464-.578c.3465587-.4310582.2780582-1.0614413-.153-1.408s-1.0614413-.2780582-1.408.153l-.835 1.041-.763-.313-.924-.377.464-.581c.3443495-.4321628.2731628-1.0616505-.159-1.406s-1.0616505-.2731628-1.406.159l-.829 1.04-1.69-.691.464-.582c.3443495-.4321628.2731627-1.0616504-.159-1.4059999-.4321628-.3443496-1.0616504-.2731629-1.406.1589999l-.83 1.04c-.59-.24-1.18-.483-1.77-.723-1.0733673-.5568319-2.3006127-.7435026-3.491-.531-.8614147.2841866-1.6387067.7779835-2.262 1.437l-.17.155c-2.3401681 2.1808391-5.3377521 3.5236498-8.523 3.818-1.4416254.0930216-2.8872985-.1031575-4.252-.577.3171374-3.9586961-.2714098-7.9376308-1.721-11.635 1.9129037.86779684 4.0095937 1.25272797 6.106 1.121zm13.549 8.065.012.008c.407.165.814.333 1.221.5l-.468.588c-.3106553.4327677-.227507 1.0330948.1890781 1.3651361s1.0203362.2792107 1.3729219-.1201361l.834-1.046 1.691.69-.469.589c-.3443495.4318867-.2733867 1.0611505.1585 1.4055s1.0611505.2733867 1.4055-.1585l.836-1.048 1.524.623.156.064-.467.581c-.2333441.277564-.2981461.659699-.169354.9986736s.4309951.5816675.7897788.6342547c.3587838.0525873.7179226-.0931721.9385752-.3809283l.838-1.044 1.688.691-.467.582c-.2292977.2782963-.2910097.6584881-.1615102.9950237.1294994.3365356.4301521.5772889.7868569.6300904.3567048.0528016.7142115-.0905269.9356533-.3751141l.837-1.045c1.9313333.7873333 3.8696667 1.574 5.815 2.36l-.72.864c-.9851407 1.1848869-2.6227453 1.5979254-4.052 1.022l-20.17-8.226c.44-.329.873-.673 1.291-1.047l.181-.164c.3952607-.4301547.882306-.7657887 1.425-.982.7672413-.0753375 1.5395133.0799525 2.218.446zm-26.649-14.5c.29292801-.04130682.59142198.01083339.853.149.66241005.42248227 1.2305762.9770315 1.669 1.629.021.026.043.051.064.078 2.075 2.421 4.407 6.808 4.174 14.184-.7891117-.4645504-1.50154867-1.0484654-2.112-1.731-.192-.221-.376-.453-.561-.686-.60545264-.8777833-1.39386417-1.6139979-2.311-2.158-.62534981-.3279665-1.33729849-.4530905-2.037-.358-.32707265.0489147-.64453904.1484392-.941.295l-.022-9.815c-.03029629-.75565539.48543751-1.42433966 1.224-1.587zm6.467 32.592c-.721-.063-1.433-.131-2.13-.209-1.188-.131-4.063-.665-5.113-2.775-.3306835-.8571712-.47653513-1.774537-.428-2.692l-.02-12.239c-.0317858-.7567654.48428166-1.4271472 1.224-1.59.29249576-.0413974.59060011.010386.852.148.66308067.4231638 1.23189781.9783647 1.671 1.631l.064.078c2.464 2.866 5.089 8.243 3.88 17.648zm-.691 7.395c0 .5522847-.44771525 1-1 1s-1-.4477153-1-1v-1.625c.658.0726667 1.32466667.1393333 2 .2zm8 0c0 .5522847-.4477153 1-1 1s-1-.4477153-1-1v-1.078c.66.014 1.327 0 2-.029zm3.985-3.573c-1.7453038.3346144-3.5179215.5063524-5.295.513-.3 0-.61-.009-.954-.019-2.729-.1-5.223-.277-7.631-.546-.444-.046-.873-.112-1.279-.2-1.92119026-.3950176-3.4071716-1.9218139-3.75-3.853 1.51514149 1.186092 3.34512774 1.901327 5.263 2.057 2.338.262 4.781.438 7.47.538 1.9442814.0624872 3.8894976-.0907824 5.8-.457 1.7793617-.3162746 3.5837776-.4702407 5.391-.46 2.0991346-.0181604 4.1937472.1978413 6.245.644 1.773943.3997316 3.5876072.5963293 5.406.586.4846667 0 .975-.0126667 1.471-.038 4.9277193-.1925687 9.8200067-.9191526 14.591-2.167l.2-.055c1.3765066-.306805 2.697851-.8227971 3.918-1.53-.4230246 1.6697794-1.7083417 2.9848632-3.368 3.446l-.072.022-.158.048c-4.3285893 1.1424253-8.7594281 1.8545483-13.228 2.126h-.009c-.006 0-.012 0-.018 0-.579.04-1.161.078-1.755.108-2.4897429.1507515-4.9883313-.047843-7.423-.59-3.564172-.7177629-7.2296943-.7763977-10.815-.173zm19.015 3.573c0 .5522847-.4477153 1-1 1s-1-.4477153-1-1v-.778c.442 0 .887-.009 1.331-.033.227-.012.445-.028.669-.041zm8 0c0 .5522847-.4477153 1-1 1s-1-.4477153-1-1v-1.4c.676-.0873333 1.3426667-.1826667 2-.286zm8.154-2.188c.0925945.542411-.2656078 1.0592711-.806 1.163-.2627111.0458624-.5328788-.0145724-.7510108-.1679963s-.3663405-.3872554-.4119892-.6500037l-.185-1.076c.264-.068.531-.131.792-.2l.2-.06.034-.011c.3074667-.0892654.6082202-.20021.9-.332zm1.807-10.055c.0046469.1342118-.0067674.2684979-.034.4-.322 1.739-2.755 2.4-4.533 2.88l-.207.057c-4.6323499 1.2093112-9.3820387 1.9134158-14.166 2.1-2.1213145.1270154-4.2499903-.0412594-6.325-.5-2.1992684-.4794871-4.4451433-.7122585-6.696-.694-1.9298601-.0082504-3.8564686.1591061-5.756.5-1.7656864.3400935-3.5638261.4819724-5.361.423-1.108-.041-2.164-.1-3.2-.167.79-6.3-.044-10.955-1.452-14.327l.1.046c.0950927.0657365.201056.1141478.313.143 1.7991948.7292957 3.739521 1.0440817 5.677.921 2.2474636-.1727671 4.4290582-.8396406 6.389-1.953l21.47 8.753c.6618877.2645594 1.3681978.400323 2.081.4 1.6464953.0013503 3.2077371-.7319714 4.258-2l1.131-1.357c1.142.458 2.2833333.914 3.424 1.368 1.362.537 2.845 1.702 2.887 3.007zm-3.494-5.957-.072.022-.462.128c-.1.027-.2.05-.3.076l-.952-.38-1.032-.412-.017-.007-1.222-.494c1.119-.233 2.214-.5 3.3-.794l.2-.055c1.3771086-.3068643 2.6988726-.823563 3.919-1.532-.4213278 1.6690319-1.7041401 2.9846586-3.362 3.448z" fill="#000" fill-rule="nonzero"/></g></g></svg>