<svg height="512" viewBox="0 0 60 60" width="512" xmlns="http://www.w3.org/2000/svg"><g id="Page-1" fill="none" fill-rule="evenodd"><g id="039---Quick-Runner"><path id="Path" d="m41.87 54.32c-1.4920168 1.2359216-3.1871554 2.2036055-5.01 2.86-1.0539669.3231404-2.1406825.5277381-3.24.61-4.0501569.3558406-8.1287435-.1941195-11.94-1.61-3.8575897-1.6159767-7.472105-3.7597813-10.74-6.37-2.32-1.71-5.03-4.2-7.94-4.81-.15-.03-1.57-.43-1.67-.29 7.67-7.71 21.67-2.71 21.67-2.71s1.04-5-9.1-5-12.9-8.12-12.9-8.12c6.34 2.12 12.94.87 17.75-.77l-.81.79c-.5516762.4891138-.7895166 1.2420772-.6189026 1.9593427s.7220096 1.2824954 1.434828 1.4708273 1.4714431-.0307809 1.9740746-.57017l1.42-1.38.12-.14c.8065875.7087639 1.6511712 1.3730806 2.53 1.99 1.3165144.9435238 2.5418552 2.0081641 3.66 3.18 1.3196884 1.3293279 2.4869113 2.801773 3.48 4.39.9529991 1.5553785 2.0620648 3.0095613 3.31 4.34l-.04.04-1.23 1.2c-.7925286.7704372-.8104372 2.0374714-.04 2.83s2.0374714.8104372 2.83.04l1.38-1.34c1.03.93 2.04 1.8 3.05 2.61l-1.64 1.6c-.7077668.6901376-.8033962 1.7945132-.2247946 2.5960392.5786016.8015261 1.6569232 1.0584558 2.5347946.6039608z" fill="#ffdf00"/><path id="Path" d="m41.78 49.98c-4.51 2.54-5.02 3.51-8.51 3.83-3.4569679.3010453-6.9376237-.1703291-10.19-1.38-3.5071483-1.4931988-6.7941368-3.4579903-9.77-5.84-.41-.31-.84-.64-1.28-.98s-.89-.69-1.37-1.05c3.7075464-.354291 7.4483435.0575711 10.99 1.21 1.0916338.3863323 2.2968985.2826594 3.3065232-.2844164 1.0096248-.5670758 1.725334-1.5423558 1.9634768-2.6755836.0786549-.388438.1188491-.7836803.12-1.18-.0169744-1.705083-.6168679-3.3530258-1.7-4.67-1.3013415-1.5110586-3.0254122-2.5977456-4.95-3.12-.4278792-.1284366-.7167293-.5275241-.7050385-.974111.0116907-.4465868.3210256-.8300151.7550385-.935889.9516499-.231511 1.8870097-.5254812 2.8-.88.5.41 1.02.8 1.56 1.18 1.3165144.9435238 2.5418552 2.0081641 3.66 3.18 1.3196884 1.3293279 2.4869113 2.801773 3.48 4.39.9529991 1.5553785 2.0620648 3.0095613 3.31 4.34.15.16.3.32.45.47.37.38.76.77 1.17 1.14.43.4.86.79 1.28 1.16 1.03.93 2.04 1.8 3.05 2.61.19.16.39.32.58.46z" fill="#ff9801"/><path id="Path" d="m41.78 49.98c-.19-.14-.39-.3-.58-.46-1.01-.81-2.02-1.68-3.05-2.61-.42-.37-.85-.76-1.28-1.16-.41-.37-.8-.76-1.17-1.14-.15-.15-.3-.31-.45-.47-1.2479352-1.3304387-2.3570009-2.7846215-3.31-4.34-.9930887-1.588227-2.1603116-3.0606721-3.48-4.39-1.1181448-1.1718359-2.3434856-2.2364762-3.66-3.18-.54-.38-1.06-.77-1.56-1.18-.6872955.2653026-1.3882981.4936292-2.1.684.22.164.429.336.656.5 1.3165144.9435238 2.5418552 2.0081641 3.66 3.18 1.3196884 1.3293279 2.4869113 2.801773 3.48 4.39.9529991 1.5553785 2.0620648 3.0095613 3.31 4.34.15.16.3.32.45.47.37.38.76.77 1.17 1.14.43.4.86.79 1.28 1.16 1.03.93 2.04 1.8 3.05 2.61.61.514 1.323 1.027 1.473.881z" fill="#f57c00"/><path id="Path" d="m56.76 43.24c-.05-.11-.09-.22-.13-.33-.68-1.64-1.3533333-3.2866667-2.02-4.94-2.14-5.27-4.25-10.56-6.4-15.83" fill="#283593"/><path id="Path" d="m16.83 24.4-1.68 1.63c-.5126761.4983855-1.2522939.6854033-1.9402465.4906055s-1.2197236-.7418167-1.395-1.435.0325703-1.42722.5452465-1.9256055l1.99-1.93c.18.28.38.55.59.82.61.78 1.24 1.56 1.89 2.35z" fill="#707070"/><path id="Path" d="m14.36 21.22-.01.01" fill="#283593"/><path id="Path" d="m16.84 24.39-.01.01" fill="#283593"/><path id="Path" d="m44.4 51.99-2.05 1.99c-.1415457.1373644-.3034532.2520489-.48.34-.8778714.454495-1.956193.1975653-2.5347946-.6039608-.5786016-.801526-.4829722-1.9059016.2247946-2.5960392l1.64-1.6c1.08.89 2.14 1.7 3.2 2.47z" fill="#707070"/><path id="Path" d="m51.26 55.91-.03.16-1.51 2.1c-.4180007.5805566-1.1139726.8940123-1.8257497.8222914-.7117772-.071721-1.3312237-.5177225-1.6250001-1.1700001s-.217251-1.4117347.2007498-1.9922913l1.19-1.64c.48.31.97.61 1.45.89l.18.1c.01.01.02.01.03.02.5972099.3545707 1.2549994.5953081 1.94.71z" fill="#707070"/><path id="Path" d="m31.17 5.66c-.03.25-.06.49-.08.73-.53 3.82-2.8 9.71-10.89 15.55l-.12.1c-.64-.76-1.3-1.58-1.97-2.45-1.4-1.79-2.53-4.26-1.73-6.55.432878-.9799915 1.0744825-1.8536657 1.88-2.56l8.76-8.55c.8799019-.90169889 2.2867056-1.02495359 3.31-.29.3926143.30391965.6795232.72378633.82 1.2.2066574.92793575.213475 1.88922643.02 2.82z" fill="#3f51b5"/><path id="Path" d="m31.15 2.84c-.1404768-.47621367-.4273857-.89608035-.82-1.2-.8897004-.64845369-2.0981979-.64115404-2.98.018.382418.30185079.6619022.71478871.8 1.182.2066574.92793575.213475 1.88922643.02 2.82-.03.25-.06.49-.08.73-.49 3.532-2.478 8.834-9.169 14.23.391.491.779.969 1.159 1.42l.12-.1c8.09-5.84 10.36-11.73 10.89-15.55.02-.24.05-.48.08-.73.193475-.93077357.1866574-1.89206425-.02-2.82z" fill="#283593"/><path id="Path" d="m58.1 52.55c-.0716953.0783603-.1485321.1518564-.23.22-.08.07-.17.13-.25.19-2.07 1.37-4.67-.26-6.48-1.32-4.1538911-2.5191502-8.0259802-5.4760183-11.55-8.82-1.6411003-1.4942611-3.0649194-3.2109225-4.23-5.1-1.1508674-1.8436118-2.5024452-3.5540451-4.03-5.1-1.2981856-1.3435414-2.7138132-2.5684108-4.23-3.66-1.5411761-1.0670418-2.9538801-2.3086106-4.21-3.7-.82-.91-1.78-1.99-2.81-3.22l.12-.1c8.09-5.84 10.36-11.73 10.89-15.55 0 .04-.01.09-.01.13-.1828718 3.43724991 1.2259341 6.7674901 3.82 9.03 1.7032651 1.4969422 3.734565 2.5725378 5.93 3.14v.01l8.87 21.92c.7551947 1.8265378 2.5992285 2.9603966 4.57 2.81l2.49-.19c.55 1.36 1.11 2.72 1.68 4.07v.01c.66 1.58.95 3.9-.34 5.23z" fill="#02a9f4"/><path id="Path" d="m40.83 18.7v-.01c-2.195435-.5674622-4.2267349-1.6430578-5.93-3.14-2.5940659-2.2625099-4.0028718-5.59275009-3.82-9.03 0-.04.01-.09.01-.13-.2916155 1.97797103-.9175416 3.891932-1.851 5.66.6625602 1.3214136 1.5648729 2.508221 2.661 3.5 1.7032651 1.4969422 3.734565 2.5725378 5.93 3.14v.01" fill="#0377bc"/><path id="Path" d="m58.44 47.32v-.01c-.57-1.35-1.13-2.71-1.68-4.07l-2.49.19c-.145.012-.288 0-.432 0 .526 1.3 1.059 2.593 1.6 3.88v.01c.66 1.58.95 3.9-.34 5.23-.0716953.0783603-.1485321.1518564-.23.22-.08.07-.17.13-.25.19-.1276107.0853337-.2613019.1612035-.4.227 1.1045976.4713742 2.3678692.3870322 3.4-.227.08-.06.17-.12.25-.19.0814679-.0681436.1583047-.1416397.23-.22 1.292-1.33 1.002-3.65.342-5.23z" fill="#0377bc"/><path id="Path" d="m56.76 43.24-2.49.19c-1.9707715.1503966-3.8148053-.9834622-4.57-2.81l-8.87-21.92v-.01c1.0965614.2916462 2.2182019.4791443 3.35.56.8240656-.0263087 1.6427693.1415426 2.39.49.7860197.6028443 1.3602861 1.4397325 1.64 2.39v.01c2.15 5.27 4.26 10.56 6.4 15.83.67 1.65 1.3433333 3.2966667 2.02 4.94.04.11.08.22.13.33z" fill="#3f51b5"/><path id="Path" d="m56.63 42.91c-.68-1.64-1.3533333-3.2866667-2.02-4.94-2.14-5.27-4.25-10.56-6.4-15.83v-.01c-.2797139-.9502675-.8539803-1.7871557-1.64-2.39-.7472307-.3484574-1.5659344-.5163087-2.39-.49-1.1317981-.0808557-2.2534386-.2683538-3.35-.56v.01l.216.534c.045 0 .089.013.134.016.8240656-.0263087 1.6427693.1415426 2.39.49.7860197.6028443 1.3602861 1.4397325 1.64 2.39v.01c2.15 5.27 4.26 10.56 6.4 15.83.67 1.65 1.3433333 3.2966667 2.02 4.94.04.11.08.22.13.33l-.937.071c.472637.1181866.9614047.1583824 1.447.119l2.49-.19c-.05-.11-.09-.22-.13-.33z" fill="#283593"/><path id="Path" d="m57.9 52.8-1.6 1.56c-1.3309098 1.3005994-3.2082452 1.8779546-5.04 1.55-.6850006-.1146919-1.3427901-.3554293-1.94-.71-.01-.01-.02-.01-.03-.02l-.18-.1c-.48-.28-.97-.58-1.45-.89-1.08-.68-2.17-1.41-3.26-2.2-1.06-.77-2.12-1.58-3.2-2.47-1.01-.81-2.02-1.68-3.05-2.61-.42-.37-.85-.76-1.28-1.16-.41-.37-.8-.76-1.17-1.14-.15-.15-.3-.31-.45-.47-1.2479352-1.3304387-2.3570009-2.7846215-3.31-4.34-.9930887-1.588227-2.1603116-3.0606721-3.48-4.39-1.1181448-1.1718359-2.3434856-2.2364762-3.66-3.18-.8788288-.6169194-1.7234125-1.2812361-2.53-1.99-.59-.5-1.14-1.03-1.67-1.57-.23-.23-.46-.48-.68-.72-.16-.17-.31-.35-.47-.52-.92-1.04-1.79-2.04-2.62-3.03-.65-.79-1.28-1.57-1.89-2.35-.21-.27-.41-.54-.59-.82-.07-.1-.14-.2-.21-.31-1.4903082-2.31685-1.1387798-5.3634294.84-7.28l12.04-11.71-8.76 8.55c-.8055175.7063343-1.447122 1.5800085-1.88 2.56-.8 2.29.33 4.76 1.73 6.55.67.87 1.33 1.69 1.97 2.45 1.03 1.23 1.99 2.31 2.81 3.22 1.2561199 1.3913894 2.6688239 2.6329582 4.21 3.7 1.5161868 1.0915892 2.9318144 2.3164586 4.23 3.66 1.5275548 1.5459549 2.8791326 3.2563882 4.03 5.1 1.1650806 1.8890775 2.5888997 3.6057389 4.23 5.1 3.5240198 3.3439817 7.3961089 6.3008498 11.55 8.82 1.81 1.06 4.41 2.69 6.48 1.32.08-.06.17-.12.25-.19z" fill="#7f8e94"/><path id="Path" d="m58.05 52.66-.15.14" fill="#283593"/><path id="Path" d="m38.15 46.91-1.38 1.34c-.7925286.7704372-2.0595628.7525286-2.83-.04s-.7525286-2.0595628.04-2.83l1.23-1.2.04-.04c.15.16.3.32.45.47.37.38.76.77 1.17 1.14.43.4.86.79 1.28 1.16z" fill="#707070"/><path id="Path" d="m22.27 30.24-.12.14-1.42 1.38c-.5026315.5393891-1.2612562.7585019-1.9740746.57017s-1.264214-.7535618-1.434828-1.4708273.0672264-1.4702289.6189026-1.9593427l.81-.79.7-.68c.16.17.31.35.47.52.22.24.45.49.68.72.53.54 1.08 1.07 1.67 1.57z" fill="#707070"/><g fill="#000"><path id="Shape" d="m.291 28.174c-.26760257.2691266-.35979149.6665461-.238 1.026.03.09 3.115 8.8 13.847 8.8 4.776 0 6.732 1.128 7.531 2.075.1306889.1537466.2440395.321425.338.5-3.976-1.091-14.5-3.143-21.061 3.341-.07330623.0619446-.1381905.1332164-.193.212-.23829037.3349939-.24728553.7816916-.02267442 1.126007.22461111.3443153.63705987.5160878 1.03967442.432993.143.021.434.081 1.022.231.126.032.217.054.241.059 2.131.446 4.275 2.111 6.168 3.58.475.368.936.726 1.385 1.057 3.3411945 2.6664649 7.0377626 4.8541817 10.983 6.5 3.1704415 1.1775731 6.5249349 1.7823097 9.907 1.786.826 0 1.652-.037 2.472-.11 1.172826-.0881202 2.3320704-.3074911 3.456-.654 1.916742-.6821958 3.7000467-1.6929607 5.27-2.987.2213384-.121933.4263089-.2714607.61-.445l1.454-1.421c.576.406 1.152.7973333 1.728 1.174l-.567.786c-.9703642 1.3431565-.6681564 3.2186356.6750001 4.1889999 1.3431564.9703643 3.2186356.6681565 4.1889999-.6749999l1.291-1.791c.146.01.292.029.438.029 1.7717161.002716 3.4745338-.6861609 4.746-1.92l1.749-1.7c.0809839-.0828028.1466646-.1792926.194-.285 1.482-1.709 1.169-4.361.416-6.157-.506-1.222-1.011-2.4456667-1.515-3.671-.062-.151-.125-.3-.187-.453-.006-.012-.009-.026-.016-.038-.8786667-2.1453333-1.7513333-4.2896667-2.618-6.433l.748-.073c.5390472-.0655303.9272906-.5492655.8746032-1.0897191s-.5270491-.9400956-1.0686032-.9002809l-1.336.129c-.229-.565-.454-1.124-.681-1.688l.738-.07c.5497995-.0524671.9529671-.5407005.9005-1.0905s-.5407005-.9529671-1.0905-.9005l-1.328.127c-.091-.227-.184-.457-.275-.682-.1333333-.3333333-.269-.6693333-.407-1.008l.74-.073c.2644121-.0252952.5078969-.1547471.6767399-.3597974.1688429-.2050504.2491699-.46885.2232601-.7332026-.0205053-.2663676-.1486508-.5128835-.3548873-.682703-.2062364-.1698196-.4727601-.2482829-.7381127-.217297l-1.324.13c-.2266667-.564-.4546667-1.1283333-.684-1.693l.741-.073c.2646032-.0252873.5082513-.1548808.6771226-.3601532.1688713-.2052725.249069-.4693316.2228774-.7338468-.021038-.2663417-.1494736-.5126794-.3557983-.6824163-.2063247-.169737-.4727997-.24828-.7382017-.2175837l-1.325.131c-.239-.591-.476-1.183-.716-1.774-.3497324-1.1573941-1.0717582-2.1669647-2.054-2.872-.8060651-.4202731-1.7040488-.6333423-2.613-.62l-.223-.014c-3.1950101-.1553698-6.2480294-1.3670808-8.68-3.445-2.3562939-2.0572837-3.6450278-5.07733936-3.5-8.202.024-.291.062-.585.1-.879.2076392-1.04760754.1854622-2.12779757-.065-3.166-.2006009-.67615397-.607156-1.27287754-1.163-1.707-1.4183018-1.04407472-3.3880302-.88862588-4.625.365l-12.035 11.709c-2.1865929 2.1339332-2.6777866 5.4658634-1.2 8.14l-1.424 1.385c-.8675997.8464575-1.140585 2.1318461-.6918887 3.2578529.4486964 1.1260067 1.5309053 1.8713713 2.7428887 1.8891471h.043c.781084.0016977 1.5317381-.3027283 2.091-.848l.911-.887c.4.4726667.815.9533333 1.245 1.442-4.372 1.436-10.682 2.638-16.689.63-.35920505-.1188652-.75473672-.02482-1.022.243zm41.36 25.093c-.1873317.1819111-.4388901.2825345-.7.28h-.011c-.4033122-.0064598-.7632564-.2545941-.9127605-.6292286s-.0592931-.8024106.2287605-1.0847714l1-.977c.5333333.4246667 1.0666667.8363333 1.6 1.235zm7.254 4.318c-.2044177.3015182-.5566249.4680249-.9193713.4346347-.3627463-.0333903-.6786394-.2613946-.82458-.5951627s-.0988384-.7204926.1229513-1.009472l.64-.887c.232.141.464.288.7.425l.182.1.031.017c.2768124.1602752.5645173.3009532.861.421zm-4.557-37.322c.5847555-.0164184 1.1657285.098751 1.7.337.590055.4959695 1.0172369 1.1579969 1.226 1.9v.017c.166.408.33.816.495 1.224l-.747.074c-.5302099.0532207-.9255482.5128564-.8988712 1.0450625.026677.532206.465997.9500042.9988712.9499375.0333057.0019195.0666943.0019195.1 0l1.33-.131c.2286667.564.457 1.1286667.685 1.694l-.749.073c-.5522847.0276142-.9776142.4977153-.95 1.05.0276143.5522847.4977153.9776142 1.05.95.032 0 .065 0 .1-.005l1.333-.132c.213.529.428 1.057.641 1.586l.039.1-.742.071c-.5522847.0259574-.9789573.4947153-.953 1.047.0259574.5522847.4947153.9789574 1.047.953h.1l1.334-.127.682 1.691-.744.072c-.5522847.0276142-.9776142.4977153-.95 1.05s.4977153.9776142 1.05.95c.032 0 .064 0 .1-.005l1.333-.129c.782 1.9333333 1.5696667 3.8703333 2.363 5.811l-1.121.086c-1.5368734.1226058-2.9763604-.7635746-3.559-2.191l-8.183-20.221c.544.086 1.093.156 1.652.2zm-10.119-3.963c1.6902936 1.491033 3.6893311 2.5899231 5.854 3.218l8.695 21.482c.8503324 2.0815181 2.8734978 3.4434615 5.122 3.448.1466667 0 .2946667-.006.444-.018l1.762-.136c.4666667 1.1393333.9356667 2.2756667 1.407 3.409.565 1.348.765 3.224-.141 4.165-.0936562.0972135-.1983686.1831313-.312.256-1.472.983-3.643-.3-5.227-1.241l-.184-.109c-4.0973052-2.4762905-7.9139552-5.3896588-11.383-8.689-1.5705085-1.4324291-2.9339307-3.076546-4.051-4.885-1.1898583-1.911293-2.5891746-3.6839168-4.172-5.285-1.3395615-1.3881431-2.8022146-2.6519825-4.37-3.776-1.4746952-1.0265273-2.8309866-2.21345-4.044-3.539-.744-.823-1.439-1.621-2.109-2.407 5.066-3.826 7.821-7.67 9.256-11.031.7138962 1.9690769 1.8994753 3.7331966 3.453 5.138zm-4.524-13.883c.2329975.18142455.4035895.43102019.488.714.1603539.77007422.1603539 1.56492578 0 2.335 0 .032-.006.065-.011.1-.334 3.759-2.358 9.386-9.939 15.084-.459-.562-.907-1.12-1.338-1.674-.733-.942-2.355-3.375-1.575-5.6.3826981-.8317554.936796-1.5732788 1.626-2.176l8.758-8.549c.5190886-.55053798 1.3584113-.64918264 1.991-.234zm-14.581 12.583c.2094409 1.9110735.9742856 3.7188884 2.2 5.2 1.439 1.853 3.017 3.727 4.824 5.729 1.311821 1.4385418 2.7795018 2.7267872 4.376 3.841 1.4665766 1.0532639 2.8348236 2.2370921 4.088 3.537 1.4753214 1.494348 2.7793815 3.1485724 3.888 4.932 1.2129899 1.9663176 2.6938765 3.7541515 4.4 5.312 3.5761404 3.3986312 7.5104998 6.3991921 11.734 8.949l.181.107c1.1817025.7726981 2.4751314 1.3592099 3.835 1.739-1.4930822.8643131-3.3351525.8608771-4.825-.009-.02-.013-.042-.024-.063-.035l-.146-.081c-3.8380821-2.3056226-7.4386209-4.9853425-10.749-8v-.007l-.013-.009c-.433-.388-.867-.779-1.3-1.185-.392-.361-.77-.735-1.133-1.109-1.3773868-1.4018994-2.5917737-2.9551069-3.62-4.63-1.032747-1.6526221-2.2451181-3.1859446-3.615-4.572-1.1646557-1.2107369-2.4365114-2.3135696-3.8-3.295-1.4562441-1.0186241-2.8153441-2.1695073-4.06-3.438-.2-.208-.4-.422-.652-.7-1.841-2.035-3.452-3.947-4.929-5.849-.272-.347-.525-.7-.753-1.054-1.0598851-1.6491981-1.0075902-3.7778371.132-5.373zm19.554 31.1.558-.543c.311.314.623.629.951.931.166.155.33.3.5.451l-.611.595c-.1826694.1957474-.4439078.2986261-.711.28-.403131-.0068535-.7627127-.2551325-.9119635-.62968-.1492508-.3745474-.0589719-.8020882.2289635-1.08432zm-16.039-16.486.769-.748c.156.169.311.339.472.5.3.309.615.614.936.916l-.783.761c-.2536065.2612386-.6291571.3639969-.9804373.2682677-.3512802-.0957293-.622772-.3748166-.7087745-.7286039-.0860024-.3537873.0270767-.7263603.2952118-.9726638zm-4.184-4.3c-.1836918.1949536-.444676.2979543-.712.281-.403131-.0068535-.7627127-.2551325-.9119635-.62968-.1492508-.3745474-.0589719-.8020882.2289635-1.08432l1.165-1.133c.4053333.5213333.823 1.045 1.253 1.571zm1.929 4.554c-.2023911 1.2736299.4337784 2.5336947 1.5787664 3.1270727 1.1449881.5933781 2.541316.3866336 3.4652336-.5130727l.9-.878c.607.5 1.234.982 1.892 1.445 1.263836.9088067 2.4429639 1.9299589 3.523 3.051 1.2639319 1.2758376 2.3830528 2.6873988 3.337 4.209.8167631 1.3422084 1.7489571 2.6106749 2.786 3.791l-.583.567c-.8675997.8464575-1.140585 2.1318461-.6918887 3.2578529.4486964 1.1260067 1.5309053 1.8713713 2.7428887 1.8891471h.042c.7811707.0031445 1.532235-.3010886 2.091-.847l.708-.689c.51.4466667 1.0183333.8823333 1.525 1.307l-.839.815c-1.1844147 1.1572194-1.209901 3.0543814-.057 4.243.1205551.1206994.2510115.2310855.39.33-.825244.5239173-1.7110624.9456716-2.638 1.256-.9841604.3005201-1.9987629.4903598-3.025.566-3.9008709.3401164-7.8286097-.189616-11.5-1.551-3.7708007-1.5854101-7.3042635-3.6846236-10.5-6.238-.434-.32-.883-.669-1.344-1.026-1.963-1.524-4.176-3.242-6.611-3.87 7.35-5.246 18.961-1.212 19.086-1.167.2722928.0971379.5733001.0716804.8254112-.0698086.2521112-.1414889.4306522-.385162.4895888-.6681914.182493-1.2030031-.1683913-2.4258037-.961-3.349-1.539-1.896-4.607-2.856-9.116-2.856-6.344 0-9.556-3.349-10.984-5.557 4.47228633.8681428 9.0861663.6708162 13.468-.576z" fill-rule="nonzero"/><path id="Path" d="m24.563 37.59c.9414644 1.1372101 1.4629876 2.563719 1.477 4.04-.0013277.3278212-.0348215.6547209-.1.976-.2971001 1.3929871-1.5256876 2.3900171-2.95 2.394-.3227667.001605-.643638-.0493966-.95-.151-3.708821-1.2185637-7.6301199-1.6544149-11.516-1.28-.4018437.0550276-.73064875.3473292-.83236899.7399605-.10172023.3926314.04379407.8078164.36836899 1.0510395.392.294.764.582 1.128.863l.23.177c.442.3433333.8753333.6766667 1.3 1 3.0486561 2.438178 6.4169742 4.4471908 10.011 5.971 2.7263539 1.013994 5.612189 1.5318254 8.521 1.529.7 0 1.409-.03 2.111-.091.5916138-.050566 1.1794481-.1384072 1.76-.263.3560037-.0702394.6460227-.3278185.7578029-.6730393s.027779-.7239052-.2194902-.9894803-.6190007-.3763623-.9713127-.2894804c-.4965238.1056543-.9991728.1801332-1.505.223-3.3090334.2871279-6.6405386-.1640632-9.754-1.321-3.4150402-1.4611793-6.6161978-3.3786444-9.516-5.7-.17-.129-.344-.261-.52-.4 2.6892352.0623665 5.3560708.5054363 7.921 1.316 1.3650465.4837249 2.8725479.3538545 4.1347504-.3562063 1.2622026-.7100608 2.1559112-1.9310078 2.4512496-3.3487937.0920812-.453242.1389774-.9145001.14-1.377-.0161775-1.9350867-.6960571-3.8059911-1.926-5.3-.2169274-.2651816-.4482769-.5182305-.693-.758-.3948836-.3865993-1.0284007-.3798836-1.415.015s-.3798836 1.0284007.015 1.415c.1915276.1857031.372479.3820119.542.588z"/></g></g></g></svg>