<svg height="512" viewBox="0 0 46 60" width="512" xmlns="http://www.w3.org/2000/svg"><g id="Page-1" fill="none" fill-rule="evenodd"><g id="040---Gloves"><path id="Path" d="m45 12v25c.0073574 4.5921065-1.9639921 8.9647856-5.41 12l-.02.08c-.1854822-.0524432-.3772475-.0793576-.57-.08h-23c-.3315234.0011473-.6577104.0835524-.95.24l-.05-.24c-1.3096658-3.9377244-3.597842-7.478376-6.65-10.29l-5.36-4.95c-1.62354971-1.5009899-1.83844981-3.990836-.49609733-5.7478148 1.34235249-1.7569787 3.80113192-2.2041021 5.67609733-1.0321852l4.83 3.02v-18.77c-.0172291-1.1201128.4173784-2.19996425 1.2057395-2.99585144.7883611-.79588718 1.8640345-1.2407347 2.9842605-1.23414856 2.1346067.10150703 3.8124121 1.86298251 3.81 4v-6c0-2.209139 1.790861-4 4-4s4 1.790861 4 4v3c0-2.209139 1.790861-4 4-4s4 1.790861 4 4v4c0-2.209139 1.790861-4 4-4s4 1.790861 4 4z" fill="#00bcd4"/><path id="Path" d="m43.83 9.17c-1.1364666-1.13545292-2.8431583-1.47836788-4.33-.87.4974892.20037518.9504943.49705439 1.333.873.7458097.75207992 1.1651142 1.7678245 1.167 2.827v25c.0073574 4.5921065-1.9639921 8.9647856-5.41 12h2.41c.1927525.0006424.3845178.0275568.57.08l.02-.08c3.4460079-3.0352144 5.4173574-7.4078935 5.41-12v-25c-.0018942-1.0606427-.4223608-2.07766887-1.17-2.83z" fill="#00838f"/><path id="Path" d="m41 51v6c-.0032948 1.1032019-.8967981 1.9967052-2 2h-7c1.1032019-.0032948 1.9967052-.8967981 2-2v-6c-.0032948-1.1032019-.8967981-1.9967052-2-2h7c.1927525.0006424.3845178.0275568.57.08.847385.2553799 1.4280179 1.034971 1.43 1.92z" fill="#707070"/><path id="Path" d="m34 51v6c-.0032948 1.1032019-.8967981 1.9967052-2 2h-16c-1.1032019-.0032948-1.9967052-.8967981-2-2v-6c0-1.1045695.8954305-2 2-2h16c1.1032019.0032948 1.9967052.8967981 2 2z" fill="#9e9e9e"/><path id="Path" d="m32 49h-3c1.1032019.0032948 1.9967052.8967981 2 2v6c-.0032948 1.1032019-.8967981 1.9967052-2 2h3c1.1032019-.0032948 1.9967052-.8967981 2-2v-6c-.0032948-1.1032019-.8967981-1.9967052-2-2z" fill="#707070"/><g fill="#000"><path id="Shape" d="m33 3c-1.1254641.00438071-2.2157926.39239797-3.091 1.1-.4636664-2.54324386-2.7912534-4.3124762-5.3658204-4.07863723-2.574567.23383896-4.5453086 2.39347354-4.5431796 4.97863723v2.021c-.7976168-.60789234-1.7596023-.96188627-2.761-1.016-1.332556-.05878545-2.629977.43679751-3.584 1.369-1.0526451 1.00544017-1.6502405 2.39633896-1.655 3.852v16.974l-3.3-2.063c-2.31264405-1.4431134-5.34348562-.8905215-6.99802841 1.2759012-1.65454279 2.1664226-1.38990678 5.2358405.61102841 7.0870988l5.361 4.948c2.802703 2.5943996 4.9348922 5.8293979 6.214 9.428-.5679062.5609114-.887686 1.3257901-.888 2.124v6c0 1.6568542 1.3431458 3 3 3h23c1.6568542 0 3-1.3431458 3-3v-6c.0002439-.7913555-.3133441-1.5505117-.872-2.111 3.1167429-3.1730725 4.8658038-7.4412548 4.872-11.889v-25c.0013285-1.3264893-.5250291-2.59903085-1.4629991-3.53700088-.93797-.93797002-2.2105116-1.4643276-3.5370009-1.46299912-1.0854693.00367682-2.1396111.36419333-3 1.026v-.026c-.0033061-2.76005315-2.2399468-4.99669388-5-5zm-17 55c-.5522847 0-1-.4477153-1-1v-6c0-.5522847.4477153-1 1-1h16c.5522847 0 1 .4477153 1 1v6c0 .5522847-.4477153 1-1 1zm24-1c0 .5522847-.4477153 1-1 1h-4.184c.1184378-.320257.1806856-.6585603.184-1v-6c-.0033144-.3414397-.0655622-.679743-.184-1h4.184c.5522847 0 1 .4477153 1 1zm1-48c.796138-.00159707 1.560128.31396056 2.1230837.87691627.5629557.56295573.8785134 1.32694573.8769163 2.12308373v25c-.0037798 4.1861148-1.7566572 8.1802101-4.835 11.017-.056 0-.108-.017-.165-.017h-23c-.0981185.0049433-.1959157.0149567-.293.03-1.3938418-3.8349851-3.6825356-7.2820816-6.676-10.055l-5.361-4.948c-1.24884639-1.1495501-1.41627207-3.0612335-.38626092-4.4103665s2.91824236-1.6914014 4.35626092-.7896335l4.83 3.019c.3079655.19248.6960772.2028653 1.0138956.0271304.3178185-.1757349.5153794-.5099627.5161044-.8731304v-18.774c.0034265-.9090928.3771635-1.77753478 1.035-2.405.5584821-.55467155 1.322491-.85208803 2.109-.821 1.6015083.07440121 2.8604038 1.39677044 2.856 3v16c0 .5522847.4477153 1 1 1s1-.4477153 1-1v-22c0-1.65685425 1.3431458-3 3-3s3 1.34314575 3 3v22c0 .5522847.4477153 1 1 1s1-.4477153 1-1v-19c0-1.65685425 1.3431458-3 3-3s3 1.34314575 3 3v19c0 .5522847.4477153 1 1 1s1-.4477153 1-1v-15c0-1.6568542 1.3431458-3 3-3z" fill-rule="nonzero"/><path id="Path" d="m36.281 45.251c-.4142136.3656125-.4536125.9977864-.088 1.412s.9977864.4536125 1.412.088c2.7955365-2.4696849 4.3961073-6.0208034 4.395-9.751 0-.5522847-.4477153-1-1-1s-1 .4477153-1 1c.0015993 3.1565392-1.3529077 6.1616582-3.719 8.251z"/><path id="Path" d="m29 53h-10c-.5522847 0-1 .4477153-1 1s.4477153 1 1 1h10c.5522847 0 1-.4477153 1-1s-.4477153-1-1-1z"/></g></g></g></svg>