<svg id="Capa_1" enable-background="new 0 0 512 512" height="512" viewBox="0 0 512 512" width="512" xmlns="http://www.w3.org/2000/svg"><g id="Page-1"><g id="_x30_41---Kit" transform="translate(-1)"><g clip-rule="evenodd" fill-rule="evenodd"><path id="Path" d="m375.869 138.496-47.531 32.427-21.76-27.989c-5.021 44.612-6.789 89.531-5.291 134.4h-52.821c-9.414.028-17.039 7.653-17.067 17.067v42.667l-19.115 45.141-6.144 14.507c-2.901.085-5.803.085-8.875.085-65.024 0-95.829-7.595-106.752-11.264-2.893-.997-4.703-3.872-4.352-6.912 9.438-78.247 10.039-157.309 1.792-235.691l-21.76 27.989-47.531-32.427 24.747-65.877c.818-2.213 2.065-4.243 3.669-5.973 1.65-1.977 3.682-3.603 5.973-4.779l17.493-8.704 51.883-25.941c.683-.341 1.451-.683 2.133-1.024.387 4.885 1.274 9.717 2.645 14.421 18.859 65.28 121.259 65.28 140.117 0 1.371-4.704 2.258-9.537 2.645-14.421.683.341 1.451.683 2.133 1.024l51.883 25.941 17.493 8.704c2.291 1.176 4.323 2.801 5.973 4.779 1.604 1.73 2.851 3.76 3.669 5.973z" fill="#ffdf00"/><path id="Path_1_" d="m205.8 294.4v42.667l-19.115 45.141-6.101 14.396c5.325.119 10.82.196 16.683.196 3.072 0 5.973 0 8.875-.085l6.144-14.507 19.115-45.141v-42.667c.028-9.414 7.653-17.039 17.067-17.067h-25.6c-9.415.028-17.04 7.653-17.068 17.067z" fill="#fec108"/><path id="Path_2_" d="m351.123 72.619c-.818-2.213-2.065-4.243-3.669-5.973-1.65-1.977-3.682-3.603-5.973-4.779l-17.493-8.704-51.883-25.941c-.683-.341-1.451-.683-2.133-1.024-.351 3.965-1.025 7.895-2.014 11.75l30.43 15.215 17.493 8.704c2.291 1.176 4.323 2.801 5.973 4.779 1.604 1.73 2.851 3.76 3.669 5.973l24.747 65.877-30.805 21.018 8.875 11.409 47.531-32.427z" fill="#fec108"/><path id="Path_3_" d="m303.865 170.155-1.126.768c-3.581-4.604-9.632-6.519-15.21-4.815-5.578 1.705-9.525 6.675-9.92 12.495-2.048 28.459-2.978 61.508-1.92 98.739h25.6c-1.111-35.749-.251-71.533 2.576-107.187z" fill="#fec108"/><path id="Path_4_" d="m66.195 170.923-1.707 2.219-10.837 13.995c-4.241 5.471-11.987 6.737-17.749 2.901l-20.565-13.739c-5.042-3.45-7.083-9.892-4.949-15.616l8.277-22.187z" fill="#ff9801"/><path id="Path_5_" d="m269.971 26.197c-.387 4.885-1.274 9.717-2.645 14.421-18.859 65.28-121.259 65.28-140.117 0-1.371-4.704-2.258-9.537-2.645-14.421 18.406-8.819 38.556-13.397 58.965-13.397h27.477c20.409 0 40.559 4.578 58.965 13.397z" fill="#fec108"/><path id="Path_6_" d="m375.869 138.496 8.277 22.187c2.134 5.724.092 12.166-4.949 15.616l-20.565 13.739c-5.762 3.836-13.509 2.57-17.749-2.901l-10.837-13.995-1.707-2.219" fill="#ff9801"/><circle id="Oval" cx="146.067" cy="149.333" fill="#f5f5f5" r="17.067"/><path id="Path_7_" d="m453.267 294.4v42.667h-221.867v-42.667c.028-9.414 7.653-17.039 17.067-17.067h187.733c9.414.028 17.039 7.653 17.067 17.067z" fill="#ff9801"/><path id="Path_8_" d="m436.2 277.333h-25.6c9.414.028 17.039 7.653 17.067 17.067v42.667h25.6v-42.667c-.028-9.414-7.653-17.039-17.067-17.067z" fill="#f57c00"/><path id="Path_9_" d="m282.6 337.067s-7.424 51.712-70.315 45.141l19.115-45.141z" fill="#c81e1e"/><path id="Path_10_" d="m498.408 467.797-98.816 29.525c-3.591 1.125-7.492-.268-9.557-3.413l-47.702-71.509-47.701 71.509c-2.066 3.145-5.967 4.538-9.557 3.413l-98.816-29.525c-2.294-.69-4.192-2.313-5.231-4.471-1.039-2.159-1.122-4.655-.23-6.878l25.344-59.733 6.144-14.507c62.891 6.571 70.315-45.141 70.315-45.141h119.467s7.424 51.712 70.315 45.141l31.488 74.24c.892 2.223.809 4.719-.23 6.878s-2.939 3.781-5.233 4.471z" fill="#f44335"/><path id="Path_11_" d="m316.733 422.4-46.933 70.357 15.275 4.565c3.591 1.125 7.492-.268 9.557-3.413l34.901-52.318z" fill="#c81e1e"/><path id="Path_12_" d="m446.781 382.208 31.488 74.24c.892 2.223.809 4.719-.23 6.878s-2.937 3.781-5.231 4.471l-83.541 24.96.768 1.152c2.066 3.145 5.967 4.538 9.557 3.413l98.816-29.525c2.294-.69 4.192-2.313 5.231-4.471s1.122-4.655.23-6.878l-31.488-74.24z" fill="#c81e1e"/><path id="Path_13_" d="m472.381 382.208c-62.891 6.571-70.315-45.141-70.315-45.141h51.2z" fill="#c81e1e"/><path id="Path_14_" d="m154.694 369.886h-.58c-12.117-.853-23.177-2.005-32.896-3.541-4.439-.705-7.57-4.732-7.159-9.207.944-10.274 1.749-20.284 2.415-30.029.158-3.08 1.965-5.835 4.728-7.206 2.762-1.371 6.05-1.146 8.598.59 2.549 1.736 3.963 4.712 3.698 7.785-.501 7.293-1.07 14.74-1.707 22.34 7.194.922 15.061 1.707 23.484 2.236 4.713.156 8.407 4.102 8.252 8.815-.156 4.713-4.102 8.407-8.815 8.252z" fill="#fff"/><path id="Path_15_" d="m250.054 459.776c-.829-.003-1.654-.123-2.449-.358l-26.59-7.953c-2.322-.696-4.238-2.347-5.27-4.54s-1.083-4.722-.14-6.955l8.713-20.574c1.838-4.341 6.847-6.369 11.187-4.531 4.341 1.838 6.369 6.847 4.531 11.187l-5.001 11.802 17.459 5.214c4.056 1.214 6.609 5.219 5.997 9.408s-4.203 7.297-8.437 7.3z" fill="#fff"/></g><path id="Shape" d="m146.067 123.733c-14.139 0-25.6 11.462-25.6 25.6s11.462 25.6 25.6 25.6 25.6-11.462 25.6-25.6-11.462-25.6-25.6-25.6zm0 34.134c-4.713 0-8.533-3.821-8.533-8.533 0-4.713 3.821-8.533 8.533-8.533 4.713 0 8.533 3.821 8.533 8.533s-3.821 8.533-8.533 8.533z"/><path id="Path_16_" clip-rule="evenodd" d="m231.4 140.8h34.133c4.713 0 8.533-3.821 8.533-8.533 0-4.713-3.82-8.533-8.533-8.533h-34.133c-4.713 0-8.533 3.821-8.533 8.533s3.82 8.533 8.533 8.533z" fill-rule="evenodd"/><path id="Path_17_" clip-rule="evenodd" d="m231.4 174.933h34.133c4.713 0 8.533-3.821 8.533-8.533 0-4.713-3.82-8.533-8.533-8.533h-34.133c-4.713 0-8.533 3.821-8.533 8.533 0 4.713 3.82 8.533 8.533 8.533z" fill-rule="evenodd"/><path id="Shape_1_" d="m461.8 335.36v-40.96c0-14.138-11.462-25.6-25.6-25.6h-126.49c-.815-34.585.276-69.189 3.268-103.654l21.171 27.196c6.991 8.957 19.689 11.04 29.175 4.787l20.608-13.764c8.375-5.596 11.778-16.232 8.209-25.651l-32.998-87.962c-1.121-3.178-2.861-6.101-5.12-8.602-2.411-2.869-5.378-5.22-8.721-6.912l-69.392-34.611c-.606-.299-1.229-.563-1.835-.853-.213-.119-.435-.205-.666-.307-19.485-9.293-40.791-14.142-62.379-14.199h-27.529c-21.584.044-42.89 4.879-62.379 14.157-.23.102-.452.188-.666.307-.606.29-1.229.555-1.835.853l-69.493 34.704c-3.187 1.605-6.023 3.827-8.346 6.537-2.345 2.541-4.16 5.523-5.342 8.772l-33.033 88.09c-3.587 9.438-.174 20.101 8.226 25.702l20.617 13.73c9.468 6.207 22.113 4.13 29.099-4.779l21.333-27.375c5.72 70.841 4.385 142.074-3.985 212.651-.831 7.046 3.388 13.711 10.112 15.974 10.24 3.413 40.875 11.349 105.429 11.674l-20.335 48c-1.774 4.439-1.604 9.419.467 13.727s5.855 7.55 10.43 8.937l98.748 29.508c1.611.501 3.288.754 4.975.751 5.718.003 11.063-2.837 14.259-7.578l40.55-60.851 40.568 60.86c3.194 4.741 8.534 7.587 14.251 7.595 1.665.012 3.323-.23 4.915-.717l98.893-29.551c4.59-1.413 8.371-4.694 10.418-9.039 2.046-4.344 2.168-9.35.334-13.788zm-14.182 10.24 12.109 28.535c-29.568-.751-41.574-17.28-46.293-28.535zm-2.885-51.2v34.133h-204.8v-34.133c0-4.713 3.821-8.533 8.533-8.533h8.534v17.067c0 4.713 3.821 8.533 8.533 8.533s8.533-3.821 8.533-8.533v-17.067h34.134v17.067c0 4.713 3.821 8.533 8.533 8.533 4.713 0 8.533-3.821 8.533-8.533v-17.067h34.134v17.067c0 4.713 3.82 8.533 8.533 8.533s8.533-3.821 8.533-8.533v-17.067h34.134v17.067c0 4.713 3.82 8.533 8.533 8.533s8.533-3.821 8.533-8.533v-17.067h8.533c4.714 0 8.534 3.82 8.534 8.533zm-207.684 51.2h34.193c-4.693 11.255-16.683 27.793-46.285 28.535zm137.387-176.41-20.531 13.713c-2.019 1.37-4.757.924-6.238-1.015l-7.04-9.02 31.027-21.163 4.514 12.041c.756 2.001.031 4.259-1.749 5.444zm-163.405-147.857c17.062.085 33.936 3.566 49.638 10.24-.388 2.256-.897 4.489-1.527 6.69-9.139 31.607-39.04 42.803-61.875 42.803s-52.736-11.195-61.867-42.777c-.633-2.203-1.146-4.44-1.536-6.699 15.7-6.684 32.575-10.171 49.638-10.257zm-170.351 161.596-20.531-13.713c-1.806-1.19-2.543-3.474-1.775-5.495l4.506-12.015 31.027 21.163-7.049 9.054c-1.466 1.92-4.177 2.362-6.178 1.006zm156.587 205.338c-61.44 0-91.187-6.827-102.4-10.308 9.397-78.344 9.938-157.498 1.613-235.964-1.118-10.027-2.517-20.198-4.412-31.983-.401-3.083-2.446-5.703-5.339-6.841s-6.176-.612-8.569 1.372-3.518 5.112-2.937 8.166c1.63 10.189 2.876 19.106 3.9 27.827l-14.711 18.842-35.362-24.124 22.426-59.802c.463-1.273 1.186-2.436 2.125-3.413.901-1.056 2-1.925 3.234-2.56l61.21-30.566c.324 1.357.563 2.731.956 4.079 9.685 33.519 40.414 55.142 78.268 55.142s68.582-21.623 78.268-55.108c.393-1.348.64-2.714.956-4.07l61.107 30.524c1.396.714 2.628 1.711 3.618 2.927.845.922 1.49 2.008 1.894 3.191l22.374 59.657-35.362 24.124-14.669-18.85c1.016-8.687 2.261-17.613 3.9-27.819.595-4.576-2.556-8.797-7.113-9.526s-8.868 2.296-9.732 6.83c-1.894 11.785-3.294 21.956-4.403 31.915-4.732 42.116-6.554 84.507-5.453 126.874h-44.186c-14.138 0-25.6 11.462-25.6 25.6v40.96l-22.417 52.907c-1.068-.003-2.101-.003-3.184-.003zm199.833 100.906-47.642-71.467c-3.399-4.941-10.74-4.87-14.165 0l-47.71 71.441-98.825-29.355 25.378-59.913.051-.128 3.695-8.713c1.749.085 3.618.282 5.282.282 46.02 0 61.44-31.206 66.074-45.722h27.494v34.133c0 4.713 3.821 8.533 8.533 8.533s8.533-3.82 8.533-8.533v-34.131h17.067v34.133c0 4.713 3.82 8.533 8.533 8.533s8.533-3.82 8.533-8.533v-34.133h27.58c4.668 14.507 20.045 45.722 66.074 45.722 1.707 0 3.55-.196 5.316-.282l29.099 68.574z"/></g></g></svg>