<svg height="512" viewBox="0 0 60 48" width="512" xmlns="http://www.w3.org/2000/svg"><g id="Page-1" fill="none" fill-rule="evenodd"><g id="042---Flags"><path id="Path" d="m26.38 24.58-9.24 3.25-3.39-9.63 9.23-3.26z" fill="#ff5722"/><path id="Path" d="m22.98 14.94-2.668.942 3.068 8.698-6.57 2.311.33.939 9.24-3.25z" fill="#d84315"/><path id="Path" d="m22.98 14.94-9.23 3.26-3.39-9.64 9.23-3.25z" fill="#ffdf00"/><path id="Path" d="m19.59 5.31-2.669.94 3.059 8.69-6.561 2.318.331.942 9.23-3.26z" fill="#fec108"/><path id="Path" d="m13.75 18.2-9.63 3.39-3.06-8.69c-.08957731-.2505974-.07557079-.5265642.03891866-.7668044s.32001707-.4249352.57108134-.5131956l8.69-3.06z" fill="#ff5722"/><path id="Path" d="m17.14 27.83-8.69 3.06c-.51902278.1800268-1.08608564-.092342-1.27-.61l-3.06-8.69 9.63-3.39z" fill="#ffdf00"/><path id="Path" d="m36.23 46.55c-.2164355.0705434-.4423707.1076372-.67.11-.8482022-.0003627-1.6029491-.5383205-1.88-1.34l-3.68-10.45-2.12-6.02-1.5-4.27-3.4-9.64-3.39-9.63-.52-1.48c-.3242427-1.02840956.2251738-2.12871846 1.2420626-2.48746172s2.1351018.15325072 2.5279374 1.15746172l7.16 20.34 2.12 6.01v.01l5.33 15.14c.3665909 1.0410203-.1793974 2.1822252-1.22 2.55z" fill="#ff9801"/><path id="Path" d="m46.25 18.2-3.39 9.63-9.24-3.25 3.4-9.64z" fill="#ff5722"/><path id="Path" d="m49.64 8.56-3.39 9.64-9.23-3.26 3.39-9.63z" fill="#ffdf00"/><path id="Path" d="m58.94 12.9-3.06 8.69-9.63-3.39 3.39-9.64 8.69 3.06c.2510643.0882604.4565919.2729554.5710813.5131956.1144895.2402402.128496.516207.0389187.7668044z" fill="#ff5722"/><path id="Path" d="m58.33 11.62-8.69-3.06-.331.94 6.021 2.12c.2510643.0882604.4565919.2729554.5710813.5131956.1144895.2402402.128496.516207.0389187.7668044l-2.729 7.75 2.669.94 3.06-8.69c.0895773-.2505974.0755708-.5265642-.0389187-.7668044-.1144894-.2402402-.320017-.4249352-.5710813-.5131956z" fill="#d84315"/><path id="Path" d="m55.88 21.59-3.06 8.69c-.1839144.517658-.7509772.7900268-1.27.61l-8.69-3.06 3.39-9.63z" fill="#ffdf00"/><path id="Path" d="m46.25 18.2-.331.94 6.961 2.45-3.06 8.69 1.73.609c.5190228.1800268 1.0860856-.092342 1.27-.61l3.06-8.69z" fill="#fec108"/><path id="Path" d="m30 34.87-3.68 10.45c-.2747379.8034064-1.0309199 1.3423871-1.88 1.34-.2276293-.0023628-.4535645-.0394566-.67-.11-1.0406026-.3677748-1.5865909-1.5089797-1.22-2.55l5.33-15.15z" fill="#f57c00"/><path id="Path" d="m40.93 3.83-.52 1.48-3.39 9.63-3.4 9.64-1.5 4.27-2.12-6.01 7.16-20.34c.2196947-.69681167.8018758-1.21837437 1.5185556-1.36043903.7166798-.14206465 1.4537957.11797891 1.922686.67829505.4688902.56031615.5949291 1.33172835.3287584 2.01214398z" fill="#f57c00"/><path id="Shape" d="m58.663 10.677-16.978-5.977.188-.533c.5513877-1.56155219-.2668307-3.27452913-1.828-3.827-.750295-.26500865-1.575138-.22108095-2.2930424.12211788s-1.2700525.95755052-1.5349576 1.70788212l-6.217 17.656-6.215-17.657c-.5500756-1.56296584-2.2630342-2.38407561-3.826-1.834s-2.3840756 2.26303416-1.834 3.826l.189.538-16.971 5.976c-.50250963.1753443-.91440538.5437481-1.14450742 1.0236591-.23010205.4799111-.25943034 1.0317437-.08149258 1.5333409l6.118 17.375c.27865017.801216 1.03371191 1.3384252 1.882 1.339.22639818-.0005416.45113026-.0387291.665-.113l16.981-5.976 1.055 3-5.211 14.81c-.262404.7547829-.213906 1.5829311.1348055 2.3019258s.9690133 1.2698189 1.7241945 1.5310742c.3145184.1028174.6431077.1561204.974.158 1.2742447.0053146 2.4099824-.8025357 2.823-2.008l2.737-7.763 2.734 7.768c.3558365 1.0112403 1.2241333 1.7558283 2.2778113 1.9532849 1.053678.1974567 2.1326585-.1822164 2.8305-.996s.9085252-1.9380446.5526887-2.9492849l-5.214-14.81 1.055-3 16.988 5.978c.4985304.1740122 1.0456468.1438165 1.522-.084.4792067-.2267237.8468781-.6369296 1.02-1.138l6.114-17.366c.1811666-.5015514.1545317-1.0546843-.0739872-1.5365082-.228519-.4818239-.6399961-.8524342-1.1430128-1.0294918zm-10.3-1.5-2.727 7.745-7.344-2.59 2.726-7.743zm-26.663 5.152-7.342 2.589-2.727-7.747 7.343-2.586zm-11.952-4.493 2.728 7.747-7.745 2.731-2.731-7.751zm-1.624 20.112-2.724-7.748 7.74-2.73 2.729 7.751zm9.631-3.391-2.728-7.752 7.342-2.588 2.73 7.754zm7.617 18.443c-.1364428.3973705-.5118747.6628314-.932.659-.1136712-.001027-.2265632-.0188875-.335-.053-.2502387-.0879098-.4553032-.2716311-.5700769-.5107431-.1147738-.239112-.1298541-.5140256-.0419231-.7642569l4.385-12.465 1.06 3.009zm10.524.6c-.5212771.1773795-1.0887125-.0945629-1.277-.612l-7.291-20.708c0-.011 0-.022 0-.032s-.012-.017-.016-.027l-3.384-9.612-3.388-9.625-.529-1.484c-.184187-.52163295.0893671-1.09381304.611-1.278s1.093813.08936705 1.278.611l14.606 41.494c.1823683.5187762-.0883491 1.0874615-.606 1.273zm-4.835-22.762 7.042-20c.0880056-.25137365.2726515-.45725559.513-.572.2373462-.11478241.5109038-.12919914.759-.04.5205674.18307099.7944514.75321512.612 1.274l-7.3 20.736-.008.014v.016l-.555 1.578zm6.568-6.622 7.345 2.589-2.728 7.75-7.346-2.585zm14.253 13.73-7.75-2.727 2.728-7.749 7.747 2.73zm3.389-9.631-7.747-2.732 2.727-7.745 7.749 2.73z" fill="#000" fill-rule="nonzero"/></g></g></svg>