<svg height="512" viewBox="0 0 60 38" width="512" xmlns="http://www.w3.org/2000/svg"><g id="Page-1" fill="none" fill-rule="evenodd"><g id="043---Goal"><path id="Path" d="m56 37h-52c1.10320187-.0032948 1.9967052-.8967981 2-2v-5h48v5c.0032948 1.1032019.8967981 1.9967052 2 2z" fill="#a4c400"/><path id="Path" d="m54 35v-5h-3v5c.0032948 1.1032019.8967981 1.9967052 2 2h3c-1.1032019-.0032948-1.9967052-.8967981-2-2z" fill="#90ac00"/><path id="Path" d="m59 5v30c-.0019317 1.0767528-.853999 1.9597241-1.93 2h-1.07c-1.1032019-.0032948-1.9967052-.8967981-2-2v-29h-48v29c-.0032948 1.1032019-.89679813 1.9967052-2 2h-1c-1.10320187-.0032948-1.9967052-.8967981-2-2v-30c0-2.209139 1.790861-4 4-4h50c2.209139 0 4 1.790861 4 4z" fill="#02a9f4"/><path id="Path" d="m55 1h-3c2.209139 0 4 1.790861 4 4v30c-.0019942.7116287-.3830905 1.3682577-1 1.723.3029146.1792769.6480158.2748699 1 .277h1c1.1045695 0 2-.8954305 2-2v-30c0-2.209139-1.790861-4-4-4z" fill="#0377bc"/><g fill="#000"><path id="Shape" d="m55 0h-50c-2.76005315.00330612-4.99669388 2.23994685-5 5v30c0 1.6568542 1.34314575 3 3 3h1c1.65685425 0 3-1.3431458 3-3v-4h46v4c0 1.6568542 1.3431458 3 3 3h1c1.6568542 0 3-1.3431458 3-3v-30c-.0033061-2.76005315-2.2399468-4.99669388-5-5zm-40.414 7 .5.5-3.086 3.086-3.586-3.586zm9 0 .5.5-3.086 3.086-3.086-3.086.5-.5zm9 0 .5.5-3.086 3.086-3.086-3.086.5-.5zm9 0 .5.5-3.086 3.086-3.086-3.086.5-.5zm10 0-3.586 3.586-3.086-3.086.5-.5zm.914 17.086-3.086-3.086 3.586-3.586v6.172zm-4.5-4.5-3.086-3.086 3.086-3.086 3.086 3.086zm-27 2.828 3.086 3.086-3.086 3.086-3.086-3.086zm-4.5 1.672-3.086-3.086 3.086-3.086 3.086 3.086zm5.914-3.086 3.086-3.086 3.086 3.086-3.086 3.086zm7.586 1.414 3.086 3.086-3.086 3.086-3.086-3.086zm1.414-1.414 3.086-3.086 3.086 3.086-3.086 3.086zm7.586 1.414 3.086 3.086-3.086 3.086-3.086-3.086zm1.414-1.414 3.086-3.086 3.086 3.086-3.086 3.086zm3.086-5.914-3.086-3.086 3.086-3.086 3.086 3.086zm-1.414 1.414-3.086 3.086-3.086-3.086 3.086-3.086zm-7.586-1.414-3.086-3.086 3.086-3.086 3.086 3.086zm-1.414 1.414-3.086 3.086-3.086-3.086 3.086-3.086zm-7.586-1.414-3.086-3.086 3.086-3.086 3.086 3.086zm-1.414 1.414-3.086 3.086-3.086-3.086 3.086-3.086zm-7.586-1.414-3.086-3.086 3.086-3.086 3.086 3.086zm-1.414 1.414-3.086 3.086-3.086-3.086 3.086-3.086zm-8.086 7.086v-6.172l3.586 3.586-3.086 3.086zm5-1.172 3.086 3.086-3.086 3.086-3.086-3.086zm4.5 4.5 2.086 2.086h-4.172zm9 0 2.086 2.086h-4.172zm9 0 2.086 2.086h-4.172zm9 0 2.086 2.086h-4.172zm1.414-1.414 3.086-3.086 3.086 3.086-3.086 3.086zm8.086-10.914-.5.5-3.086-3.086 3.586-3.586zm-42.414-2.586-3.086 3.086-.5-.5v-6.172zm-3.586 14.414 2.586 2.586h-2.586zm43.414 2.586 2.586-2.586v2.586zm7.586 6c0 .5522847-.4477153 1-1 1h-1c-.5522847 0-1-.4477153-1-1v-29c-.0006262-.13112444-.0267796-.26087229-.077-.382-.1544456-.37364684-.5186917-.61752995-.923-.618h-48c-.40430828.00047005-.76855441.24435316-.923.618-.0502204.12112771-.07637376.25087556-.077.382v29c0 .5522847-.44771525 1-1 1h-1c-.55228475 0-1-.4477153-1-1v-30c0-1.65685425 1.34314575-3 3-3h50c1.6568542 0 3 1.34314575 3 3z" fill-rule="nonzero"/><path id="Path" d="m43 36h-26c-.5522847 0-1 .4477153-1 1s.4477153 1 1 1h26c.5522847 0 1-.4477153 1-1s-.4477153-1-1-1z"/><path id="Path" d="m13 36h-4c-.55228475 0-1 .4477153-1 1s.44771525 1 1 1h4c.5522847 0 1-.4477153 1-1s-.4477153-1-1-1z"/><path id="Path" d="m51 36h-4c-.5522847 0-1 .4477153-1 1s.4477153 1 1 1h4c.5522847 0 1-.4477153 1-1s-.4477153-1-1-1z"/></g></g></g></svg>