<svg height="512" viewBox="0 0 60 45" width="512" xmlns="http://www.w3.org/2000/svg"><g id="Page-1" fill="none" fill-rule="evenodd"><g id="044---Seating"><rect id="Rectangle" fill="#02a9f4" height="5" rx="2" width="58" x="1" y="39"/><path id="Path" d="m57 39h-3c1.1032019.0032948 1.9967052.8967981 2 2v1c-.0032948 1.1032019-.8967981 1.9967052-2 2h3c1.1032019-.0032948 1.9967052-.8967981 2-2v-1c-.0032948-1.1032019-.8967981-1.9967052-2-2z" fill="#0377bc"/><path id="Rectangle" d="m7 32h6v7h-6z" fill="#9e9e9e"/><path id="Rectangle" d="m10 32h3v7h-3z" fill="#707070"/><path id="Path" d="m18 28c.0013291 1.0612728-.4196715 2.0794609-1.1701053 2.8298947s-1.7686219 1.1714344-2.8298947 1.1701053h-8c-2.209139 0-4-1.790861-4-4 0-.5522847.44771525-1 1-1h14c.5522847 0 1 .4477153 1 1z" fill="#0377bc"/><path id="Path" d="m16 20v7h-12v-7c0-2.209139 1.790861-4 4-4h4c2.209139 0 4 1.790861 4 4z" fill="#02a9f4"/><path id="Path" d="m14.59 16.95c-.7233627-.6137801-1.6413276-.9504854-2.59-.95l-3-.0000005c2.209139.0000005 4 1.7908615 4 4.0000005v7h3.0000127l-.0000127-7c.0029697-1.1748934-.513061-2.29113-1.41-3.05z" fill="#0377bc"/><path id="Rectangle" d="m27 32h6v7h-6z" fill="#9e9e9e"/><path id="Rectangle" d="m30 32h3v7h-3z" fill="#707070"/><path id="Path" d="m38 28c.0013291 1.0612728-.4196715 2.0794609-1.1701053 2.8298947s-1.7686219 1.1714344-2.8298947 1.1701053h-8c-2.209139 0-4-1.790861-4-4 0-.5522847.4477153-1 1-1h14c.5522847 0 1 .4477153 1 1z" fill="#0377bc"/><path id="Path" d="m36 20v7h-12v-7c0-2.209139 1.790861-4 4-4h4c2.209139 0 4 1.790861 4 4z" fill="#02a9f4"/><path id="Path" d="m34.59 16.95c-.7233627-.6137801-1.6413276-.9504854-2.59-.95l-3-.0000005c2.209139.0000005 4 1.7908615 4 4.0000005v7h3.0000127l-.0000127-7c.0029697-1.1748934-.513061-2.29113-1.41-3.05z" fill="#0377bc"/><path id="Rectangle" d="m47 32h6v7h-6z" fill="#9e9e9e"/><path id="Rectangle" d="m50 32h3v7h-3z" fill="#707070"/><path id="Path" d="m58 28c.0013291 1.0612728-.4196715 2.0794609-1.1701053 2.8298947s-1.7686219 1.1714344-2.8298947 1.1701053h-8c-2.209139 0-4-1.790861-4-4 0-.5522847.4477153-1 1-1h14c.5522847 0 1 .4477153 1 1z" fill="#0377bc"/><path id="Path" d="m56 20v7h-12v-7c0-2.209139 1.790861-4 4-4h4c2.209139 0 4 1.790861 4 4z" fill="#02a9f4"/><path id="Path" d="m54.59 16.95c-.7233627-.6137801-1.6413276-.9504854-2.59-.95l-3-.0000005c2.209139.0000005 4 1.7908615 4 4.0000005v7h3.0000127l-.0000127-7c.0029697-1.1748934-.513061-2.29113-1.41-3.05z" fill="#0377bc"/><path id="Path" d="m18 13c-.0018942 1.0606427-.4223608 2.0776689-1.17 2.83-.6060585.6055287-1.391942.9984704-2.24 1.12-.7233627-.6137801-1.6413276-.9504854-2.59-.95h-4c-.94867241-.0004854-1.86663732.3362199-2.59.95-1.95990012-.287088-3.4120405-1.9691861-3.41-3.95 0-.5522847.44771525-1 1-1h14c.5522847 0 1 .4477153 1 1z" fill="#0377bc"/><path id="Path" d="m16 5v7h-12v-7c0-2.209139 1.790861-4 4-4h4c2.209139 0 4 1.790861 4 4z" fill="#02a9f4"/><path id="Path" d="m12 1h-3c2.209139 0 4 1.790861 4 4v7h3v-7c0-2.209139-1.790861-4-4-4z" fill="#0377bc"/><path id="Path" d="m38 13c-.0018942 1.0606427-.4223608 2.0776689-1.17 2.83-.6060585.6055287-1.391942.9984704-2.24 1.12-.7233627-.6137801-1.6413276-.9504854-2.59-.95h-4c-.9486724-.0004854-1.8666373.3362199-2.59.95-1.9599001-.287088-3.4120405-1.9691861-3.41-3.95 0-.5522847.4477153-1 1-1h14c.5522847 0 1 .4477153 1 1z" fill="#0377bc"/><path id="Path" d="m36 5v7h-12v-7c0-2.209139 1.790861-4 4-4h4c2.209139 0 4 1.790861 4 4z" fill="#02a9f4"/><path id="Path" d="m32 1h-3c2.209139 0 4 1.790861 4 4v7h3v-7c0-2.209139-1.790861-4-4-4z" fill="#0377bc"/><path id="Path" d="m58 13c-.0018942 1.0606427-.4223608 2.0776689-1.17 2.83-.6060585.6055287-1.391942.9984704-2.24 1.12-.7233627-.6137801-1.6413276-.9504854-2.59-.95h-4c-.9486724-.0004854-1.8666373.3362199-2.59.95-1.9599001-.287088-3.4120405-1.9691861-3.41-3.95 0-.5522847.4477153-1 1-1h14c.5522847 0 1 .4477153 1 1z" fill="#0377bc"/><path id="Path" d="m56 5v7h-12v-7c0-2.209139 1.790861-4 4-4h4c2.209139 0 4 1.790861 4 4z" fill="#02a9f4"/><path id="Path" d="m52 1h-3c2.209139 0 4 1.790861 4 4v7h3v-7c0-2.209139-1.790861-4-4-4z" fill="#0377bc"/><g fill="#000"><path id="Shape" d="m57 38h-3v-5c2.7600532-.0033061 4.9966939-2.2399468 5-5 0-1.1045695-.8954305-2-2-2v-6c-.0046063-.9007006-.2549326-1.7830666-.724-2.552.4661193-.2391876.8930286-.548073 1.266-.916.9335186-.9384898 1.4576869-2.2082855 1.458-3.532 0-1.1045695-.8954305-2-2-2v-6c-.0033061-2.76005315-2.2399468-4.99669388-5-5h-4c-2.7600532.00330612-4.9966939 2.23994685-5 5v6c-1.1045695 0-2 .8954305-2 2 .0099718 1.8725406 1.0633764 3.5832141 2.731 4.435-.4738535.7719725-.7267068 1.6592074-.731 2.565v6c-1.1045695 0-2 .8954305-2 2 .0033061 2.7600532 2.2399468 4.9966939 5 5v5h-12v-5c2.7600532-.0033061 4.9966939-2.2399468 5-5 0-1.1045695-.8954305-2-2-2v-6c-.0046063-.9007006-.2549326-1.7830666-.724-2.552.4661193-.2391876.8930286-.548073 1.266-.916.9335186-.9384898 1.4576869-2.2082855 1.458-3.532 0-1.1045695-.8954305-2-2-2v-6c-.0033061-2.76005315-2.2399468-4.99669388-5-5h-4c-2.7600532.00330612-4.9966939 2.23994685-5 5v6c-1.1045695 0-2 .8954305-2 2 .0099718 1.8725406 1.0633764 3.5832141 2.731 4.435-.4738535.7719725-.7267068 1.6592074-.731 2.565v6c-1.1045695 0-2 .8954305-2 2 .0033061 2.7600532 2.2399468 4.9966939 5 5v5h-12v-5c2.7600532-.0033061 4.9966939-2.2399468 5-5 0-1.1045695-.8954305-2-2-2v-6c-.0046063-.9007006-.2549326-1.7830666-.724-2.552.4661193-.2391876.8930286-.548073 1.266-.916.9335186-.9384898 1.4576869-2.2082855 1.458-3.532 0-1.1045695-.8954305-2-2-2v-6c-.0033061-2.76005315-2.2399468-4.99669388-5-5h-4c-2.76005315.00330612-4.99669388 2.23994685-5 5v6c-1.1045695 0-2 .8954305-2 2 .00997184 1.8725406 1.0633764 3.5832141 2.731 4.435-.47385347.7719725-.72670677 1.6592074-.731 2.565v6c-1.1045695 0-2 .8954305-2 2 .00330612 2.7600532 2.23994685 4.9966939 5 5v5h-3c-1.65685425 0-3 1.3431458-3 3v1c0 1.6568542 1.34314575 3 3 3h54c1.6568542 0 3-1.3431458 3-3v-1c0-1.6568542-1.3431458-3-3-3zm-12-33c0-1.65685425 1.3431458-3 3-3h4c1.6568542 0 3 1.34314575 3 3v6h-10zm-1 8h13.0000437c.0071945 1.3414308-.885947 2.5210826-2.1790437 2.878-.8294806-.5720881-1.8133677-.8783103-2.821-.878h-4c-1.0045995-.0005942-1.9857667.3034491-2.814.872-1.2874632-.3629283-2.1791033-1.5343786-2.186-2.872zm1 7c0-1.6568542 1.3431458-3 3-3h4c1.6568542 0 3 1.3431458 3 3v6h-10zm-2 8h14c0 1.6568542-1.3431458 3-3 3h-8c-1.6568542 0-3-1.3431458-3-3zm5 5h4v5h-4zm-23-28c0-1.65685425 1.3431458-3 3-3h4c1.6568542 0 3 1.34314575 3 3v6h-10zm-1 8h13.0000437c.0071945 1.3414308-.885947 2.5210826-2.1790437 2.878-.8294806-.5720881-1.8133677-.8783103-2.821-.878h-4c-1.0045995-.0005942-1.9857667.3034491-2.814.872-1.2874632-.3629283-2.1791033-1.5343786-2.186-2.872zm1 7c0-1.6568542 1.3431458-3 3-3h4c1.6568542 0 3 1.3431458 3 3v6h-10zm-2 8h14c0 1.6568542-1.3431458 3-3 3h-8c-1.6568542 0-3-1.3431458-3-3zm5 5h4v5h-4zm-23-28c0-1.65685425 1.34314575-3 3-3h4c1.6568542 0 3 1.34314575 3 3v6h-10zm-1 8h13.0000437c.0071945 1.3414308-.885947 2.5210826-2.1790437 2.878-.8294806-.5720881-1.8133677-.8783103-2.821-.878h-4c-1.00459954-.0005942-1.98576667.3034491-2.814.872-1.28746321-.3629283-2.17910333-1.5343786-2.186-2.872zm1 7c0-1.6568542 1.34314575-3 3-3h4c1.6568542 0 3 1.3431458 3 3v6h-10zm-2 8h14c0 1.6568542-1.3431458 3-3 3h-8c-1.65685425 0-3-1.3431458-3-3zm5 5h4v5h-4zm50 9c0 .5522847-.4477153 1-1 1h-54c-.55228475 0-1-.4477153-1-1v-1c0-.5522847.44771525-1 1-1h54c.5522847 0 1 .4477153 1 1z" fill-rule="nonzero"/><path id="Path" d="m12 19h-4c-.55228475 0-1 .4477153-1 1s.44771525 1 1 1h4c.5522847 0 1-.4477153 1-1s-.4477153-1-1-1z"/><path id="Path" d="m32 19h-4c-.5522847 0-1 .4477153-1 1s.4477153 1 1 1h4c.5522847 0 1-.4477153 1-1s-.4477153-1-1-1z"/><path id="Path" d="m52 19h-4c-.5522847 0-1 .4477153-1 1s.4477153 1 1 1h4c.5522847 0 1-.4477153 1-1s-.4477153-1-1-1z"/><path id="Path" d="m12 4h-4c-.55228475 0-1 .44771525-1 1s.44771525 1 1 1h4c.5522847 0 1-.44771525 1-1s-.4477153-1-1-1z"/><path id="Path" d="m32 4h-4c-.5522847 0-1 .44771525-1 1s.4477153 1 1 1h4c.5522847 0 1-.44771525 1-1s-.4477153-1-1-1z"/><path id="Path" d="m52 4h-4c-.5522847 0-1 .44771525-1 1s.4477153 1 1 1h4c.5522847 0 1-.44771525 1-1s-.4477153-1-1-1z"/></g></g></g></svg>