<svg height="512" viewBox="0 0 60 60" width="512" xmlns="http://www.w3.org/2000/svg"><g id="Page-1" fill="none" fill-rule="evenodd"><g id="045---Swap-Players" transform="translate(-1)"><path id="Path" d="m35.47 39.58-1.86 1.23c-.5201185.3410853-1.2146445.2282249-1.6-.26l-.99-1.25-2.37-3.01c-.01.1-.03.21-.04.32-.7176319 6.9078171-.6639681 13.8740585.16 20.77.0347012.2702718-.1234184.5282564-.38.62-.96.32-3.67 1-9.39 1s-8.43-.68-9.39-1c-.25658161-.0917436-.41470122-.3497282-.38-.62.8239681-6.8959415.8776319-13.8621829.16-20.77-.00776814-.1039755-.02112074-.2074582-.04-.31l-2.37 3-.99 1.25c-.38535555.4882249-1.07988155.6010853-1.6.26l-1.86-1.23c-.4599839-.2937619-.64839307-.87155-.45-1.38l2.99-7.87c.07094964-.1981764.18346646-.3788853.33-.53.14989138-.1749239.333562-.3177789.54-.42l1.59-.78 4.89-2.41c.0293938.4502223.1064923.896053.23 1.33 1.71 5.97 10.99 5.97 12.7 0 .1235077-.433947.2006062-.8797777.23-1.33l4.89 2.41 1.59.78c.206438.1022211.3901086.2450761.54.42.1465335.1511147.2590504.3318236.33.53l.48 1.24v.01l1 2.65 1.51 3.97c.1983931.50845.0099839 1.0862381-.45 1.38z" fill="#ffdf00"/><path id="Path" d="m35.92 38.2-1.51-3.97-1-2.65v-.01l-.48-1.24c-.0709496-.1981764-.1834665-.3788853-.33-.53-.1498914-.1749239-.333562-.3177789-.54-.42l-1.59-.78-4.89-2.41c-.0293938.4502223-.1064923.896053-.23 1.33 0 .01-.008.019-.011.029l2.131 1.051 1.59.78c.206438.1022211.3901086.2450761.54.42.1465335.1511147.2590504.3318236.33.53l.48 1.24v.01l1 2.65 1.51 3.97c.1983931.50845.0099839 1.0862381-.45 1.38l-.806.533.346.437c.3853555.4882249 1.0798815.6010853 1.6.26l1.86-1.23c.4599839-.2937619.6483931-.87155.45-1.38z" fill="#fec108"/><path id="Path" d="m28.33 39.691-.31-.391c-1.362-1.73-2.584-1.354-2.729.843-.3393877 5.748703-.1791194 11.5160168.479 17.237.0347012.2702718-.1234184.5282564-.38.62-2.5705473.6976895-5.2268551 1.0282971-7.89.982.478.011.972.018 1.5.018 5.72 0 8.43-.68 9.39-1 .2565816-.0917436.4147012-.3497282.38-.62-.6774976-5.8711612-.8247593-11.791416-.44-17.689z" fill="#fec108"/><path id="Path" d="m25.58 26.19c-.0293938.4502223-.1064923.896053-.23 1.33-1.71 5.97-10.99 5.97-12.7 0-.1235077-.433947-.2006062-.8797777-.23-1.33l1.16-.57c.8237061-.4082474 1.7306755-.6204441 2.65-.62h5.54c.9193245-.0004441 1.8262939.2117526 2.65.62z" fill="#fec108"/><path id="Path" d="m59.47 15.58-1.86 1.23c-.5201185.3410853-1.2146445.2282249-1.6-.26l-.99-1.25-2.37-3.01c-.01.1-.03.21-.04.32-.7176319 6.9078171-.6639681 13.8740585.16 20.77.0347012.2702718-.1234184.5282564-.38.62-.96.32-3.67 1-9.39 1-2.8836006.0803969-5.766669-.1780388-8.59-.77l-1-2.65v-.01c.6528105-6.3034929.6461075-12.6578984-.02-18.96-.01-.11-.03-.22-.04-.32l-2.37 3.01-.99 1.25c-.3853555.4882249-1.0798815.6010853-1.6.26l-1.86-1.23c-.4599839-.2937619-.6483931-.87155-.45-1.38l2.99-7.87c.0709496-.19817642.1834665-.37888526.33-.53.1498914-.17492394.333562-.31777886.54-.42l1.59-.78 4.89-2.41c.0293938.45022231.1064923.89605304.23 1.33 1.71 5.97 10.99 5.97 12.7 0 .1235077-.43394696.2006062-.87977769.23-1.33l4.89 2.41 1.59.78c.206438.10222114.3901086.24507606.54.42.1465335.15111474.2590504.33182358.33.53l2.99 7.87c.1983931.50845.0099839 1.0862381-.45 1.38z" fill="#ff9801"/><path id="Path" d="m52.33 15.691-.31-.391c-1.362-1.73-2.584-1.354-2.729.843-.3393877 5.748703-.1791194 11.5160168.479 17.237.0347012.2702718-.1234184.5282564-.38.62-2.5760637.6991108-5.2381834 1.0297295-7.907.982.482.011.984.018 1.517.018 5.72 0 8.43-.68 9.39-1 .2565816-.0917436.4147012-.3497282.38-.62-.6774976-5.8711612-.8247593-11.791416-.44-17.689z" fill="#f57c00"/><path id="Path" d="m59.92 14.2-2.99-7.87c-.0709496-.19817642-.1834665-.37888526-.33-.53-.1498914-.17492394-.333562-.31777886-.54-.42l-1.59-.78-4.89-2.41c-.0293938.45022231-.1064923.89605304-.23 1.33 0 .01-.008.019-.011.029l2.131 1.051 1.59.78c.206438.10222114.3901086.24507606.54.42.1465335.15111474.2590504.33182358.33.53l2.99 7.87c.1983931.50845.0099839 1.0862381-.45 1.38l-.806.533.346.437c.3853555.4882249 1.0798815.6010853 1.6.26l1.86-1.23c.4599839-.2937619.6483931-.87155.45-1.38z" fill="#f57c00"/><path id="Path" d="m49.58 2.19c-.0293938.45022231-.1064923.89605304-.23 1.33-1.71 5.97-10.99 5.97-12.7 0-.1235077-.43394696-.2006062-.87977769-.23-1.33l1.16-.57c.8237061-.40824744 1.7306755-.62044407 2.65-.62h5.54c.9193245-.00044407 1.8262939.21175256 2.65.62z" fill="#f57c00"/><path id="Path" d="m22.564 8.2-5.819-4c-.3216204-.23477748-.745012-.27740927-1.1069817-.11146327-.3619697.16594601-.6059951.5145569-.6380183.91146327v2h-4c-3.31233757.00330738-5.99669262 2.68766243-6 6v7c0 1.1045695.8954305 2 2 2s2-.8954305 2-2v-7c0-1.1045695.8954305-2 2-2h4v2c.0320232.3969064.2760486.7455173.6380183.9114633s.7853613.1233142 1.1069817-.1114633l5.819-4c.2717691-.1753069.4359535-.47659472.4359535-.8s-.1641844-.6246931-.4359535-.8z" fill="#f44335"/><path id="Path" d="m39.436 51.8 5.819 4c.3216204.2347775.745012.2774093 1.1069817.1114633s.6059951-.5145569.6380183-.9114633v-2h4c3.3123376-.0033074 5.9966926-2.6876624 6-6v-7c0-1.1045695-.8954305-2-2-2s-2 .8954305-2 2v7c0 1.1045695-.8954305 2-2 2h-4v-2c-.0320232-.3969064-.2760486-.7455173-.6380183-.9114633s-.7853613-.1233142-1.1069817.1114633l-5.819 4c-.2717691.1753069-.4359535.4765947-.4359535.8s.1641844.6246931.4359535.8z" fill="#f44335"/><path id="Path" d="m16 55.93h-.05c-1.025-.052-1.984-.13-2.851-.235-.5350639-.0648242-.9224916-.5420326-.876-1.079.078-.914.1446667-1.8186667.2-2.714.0426158-.5470452.5118866-.9614201 1.06-.936.5507452.0342906.9696234.5082136.936 1.059-.036.5906667-.0773333 1.1856667-.124 1.785.555.05 1.141.091 1.754.122.5522847.013531.9890309.4722153.9754999 1.0245s-.4722152.9890309-1.0244999.9755z" fill="#fff"/><path id="Path" d="m40 31.93h-.05c-1.025-.052-1.984-.13-2.851-.235-.5350639-.0648242-.9224916-.5420326-.876-1.079.078-.914.1446667-1.8186667.2-2.714.0219718-.3572656.2328736-.6756708.5532606-.8352754s.7015848-.136161 1 .0615c.2984151.197661.4687112.5395098.4467394.8967754-.036.5906667-.0773333 1.1856667-.124 1.785.555.05 1.141.091 1.754.122.5522847.013531.9890309.4722153.9755 1.0245-.013531.5522847-.4722153.989031-1.0245.9755z" fill="#fff"/><g fill="#000"><path id="Path" d="m19.383 37.076c-.3736085-.1565192-.8048223-.070672-1.09.217l-3 3c-.3789722.3923789-.3735524 1.0160848.0121814 1.4018186s1.0094397.3911536 1.4018186.0121814l1.293-1.293v7.586c0 .5522847.4477153 1 1 1s1-.4477153 1-1v-10c.0001018-.4044291-.2434093-.7691037-.617-.924z"/><path id="Shape" d="m57.869 5.988c-.1106923-.31614762-.2872524-.60518809-.518-.848-.2365089-.27435303-.5259534-.49815382-.851-.658l-7.637-3.758c-.960823-.47815133-2.019778-.72602827-3.093-.724h-5.54c-1.0727837-.00200064-2.1313331.24551916-3.092.723l-7.63 3.756c-.3104989.14866626-.5882449.35774069-.817.615-.2456191.25098881-.4351331.55127995-.556.881l-2.986 7.86c-.3770008.9474928-.0288605 2.0292446.83 2.579l1.863 1.232c.9528656.6248659 2.2251581.4187476 2.932-.475l1.835-2.326c.3593998 4.5684596.3724371 9.1575721.039 13.728-.05-.028-.1-.066-.148-.091l-7.637-3.758c-.960823-.4781513-2.019778-.7260283-3.093-.724h-5.54c-1.0727837-.0020006-2.1313331.2455192-3.092.723l-7.63 3.756c-.31049891.1486663-.58824494.3577407-.817.615-.24561908.2509888-.43513313.55128-.556.881l-2.986 7.86c-.37700081.9474928-.02886047 2.0292446.83 2.579l1.863 1.232c.95286561.6248659 2.22515806.4187476 2.932-.475l1.831-2.316c.46670879 6.1354416.341464 12.3015704-.374 18.413-.07831938.737115.35991862 1.4315092 1.059 1.678 1.179.394 4.01 1.054 9.71 1.054s8.531-.66 9.723-1.058c.6923386-.2508161 1.124089-.9417817 1.046-1.674-.7138162-6.1132628-.8373863-12.2810521-.369-18.418l1.825 2.313c.707501.8983436 1.9841695 1.1071425 2.941.481l1.855-1.226c.8595631-.5462381 1.2110108-1.6253251.838-2.573l-.869-2.293c2.3220884.325281 4.6653953.4750387 7.01.448 5.7 0 8.529-.659 9.716-1.055.6998507-.2411259 1.1364345-.9380768 1.048-1.673-.7105871-6.1154819-.8344848-12.2849197-.37-18.424l1.826 2.314c.7073045.8992589 1.9847171 1.1085427 2.942.482l1.854-1.226c.8598952-.5459805 1.2114309-1.6253377.838-2.573zm-17.639-3.988h5.54c.7662417-.00116096 1.5222192.17619245 2.208.518l.515.253c-.03.159-.065.318-.109.473-.7382204 2.3258935-2.9462571 3.86626978-5.384 3.756-2.4372071.11028787-4.6448059-1.42965892-5.383-3.755-.045-.157-.079-.315-.11-.474l.516-.254c.6856249-.34113692 1.4411968-.51813314 2.207-.517zm-24 24h5.54c.7662417-.001161 1.5222192.1761925 2.208.518l.515.253c-.031.159-.065.317-.109.473-.7382204 2.3258935-2.9462571 3.8662698-5.384 3.756-2.4372071.1102879-4.6448059-1.4296589-5.383-3.755-.045-.157-.079-.315-.11-.474l.516-.254c.6856249-.3411369 1.4411968-.5181331 2.207-.517zm18.689 12.746-1.857 1.228c-.0873721.0573132-.2041387.0377068-.268-.045l-3.094-3.918c.086-.691.173-1.383.283-2.057.0889178-.545105-.280895-1.0590821-.826-1.148-.545105-.0889178-1.0590821.280895-1.148.826-.134.821-.245 1.663-.344 2.5 0 .023-.008.045-.01.069-.011.1-.029.191-.039.287-.7166885 6.8703838-.6747693 13.7987913.125 20.66-2.8629717.670492-5.8024391.9570068-8.741.852-2.9397129.1065778-5.8805342-.1785928-8.745-.848.799566-6.8605356.8418202-13.7882216.126-20.658-.011-.1-.028-.19-.04-.286-.0014118-.0181075-.0037481-.036131-.007-.054-.1-.847-.212-1.7-.347-2.522-.08891786-.545105-.60289496-.9149178-1.14799999-.826-.54510504.0889179-.91491783.602895-.82600001 1.148.11.675.2 1.371.284 2.065l-3.097 3.918c-.06462977.0755853-.17497763.0922014-.259.039l-1.865-1.234c-.0650399-.0371693-.09139541-.117532-.061-.186l2.993-7.879c.0305739-.0817186.07909991-.1555328.142-.216.06405948-.0756164.14216608-.1381017.23-.184l5.286-2.6c.011.04.016.08.027.119.9595388 3.2011605 3.9680483 5.3438023 7.307 5.204 3.3396171.1399149 6.3485129-2.0038256 7.307-5.206.011-.039.017-.078.027-.117l5.294 2.6c.1014287.0576418.1910104.1339897.264.225.0474328.0538979.0834874.1168234.106.185l.453 1.17c.007.025.015.048.024.072l2.514 6.632c.0273516.0704941-.0028337.1502694-.07.185zm24-24-1.855 1.227c-.0873265.0581658-.2047569.0389578-.269-.044l-3.095-3.929c.092-.727.188-1.421.29-2.048.0438404-.26268259-.0189105-.53200163-.174342-.74825419-.1554315-.21625255-.3907026-.36157273-.653658-.40374581-.2619184-.04611139-.5313662.01531563-.747419.17039191-.2160529.15507627-.3604641.39070482-.400581.65360809-.126.767-.245 1.626-.355 2.54v.007c-.013.11-.028.209-.041.32-.7132662 6.870156-.6723559 13.7977472.122 20.659-2.8628221.6692161-5.8018773.955051-8.74.85-2.6277691.0581753-5.2546367-.151237-7.84-.625l-.735-1.939c.634629-6.2987818.6205551-12.6460944-.042-18.942-.013-.11-.027-.209-.04-.318v-.008c-.111-.916-.229-1.777-.355-2.541-.0900224-.54510503-.604895-.91402238-1.15-.82399997s-.9140224.60489493-.824 1.14999997c.1.62.2 1.317.292 2.047l-3.106 3.937c-.0646298.0755853-.1749776.0922014-.259.039l-1.865-1.234c-.0650399-.0371693-.0913954-.117532-.061-.186l2.993-7.879c.0305739-.08171864.0790999-.15553284.142-.216.0640595-.07561638.1421661-.13810167.23-.184l5.286-2.6c.011.04.016.08.027.119.9595388 3.20116053 3.9680483 5.34380225 7.307 5.204 3.3375773.14019065 6.3453665-2.00058464 7.306-5.2.011-.039.017-.08.027-.12l5.3 2.6c.1018608.05785401.1917913.13454952.265.226.0455837.05194685.079663.11294884.1.179l2.994 7.879c.0254495.0706628-.0064612.1491457-.074.182z" fill-rule="nonzero"/><path id="Path" d="m48 16.5c0-1.963-2.2-3.5-5-3.5-2.354 0-4.356 1.106-4.871 2.691-.1294341.3444788-.0592137.7322116.1828107 1.0094173.2420245.2772058.616741.3990873.9755312.3173044s.6436725-.3540138.7416581-.7087217c.207-.629 1.4-1.309 2.971-1.309 1.717 0 3 .792 3 1.5s-1.283 1.5-3 1.5c-.5522847 0-1 .4477153-1 1s.4477153 1 1 1c1.717 0 3 .792 3 1.5s-1.283 1.5-3 1.5c-1.571 0-2.764-.68-2.969-1.309-.0979856-.3547079-.3828679-.6269388-.7416581-.7087217s-.7335067.0400986-.9755312.3173044c-.2420244.2772057-.3122448.6649385-.1828107 1.0094173.513 1.585 2.515 2.691 4.869 2.691 2.8 0 5-1.537 5-3.5-.0420527-1.0272203-.5948374-1.9654156-1.473-2.5.8781626-.5345844 1.4309473-1.4727797 1.473-2.5z"/><path id="Shape" d="m15.082 14.75c.7089642.3768773 1.5688148.3275227 2.23-.128l5.818-4c.5433459-.3617448.8697854-.97124886.8697854-1.624s-.3264395-1.26225522-.8697854-1.624l-5.817-4c-.6616853-.45490984-1.5212925-.50461371-2.231-.129-.6598556.33730873-1.0770185 1.01394551-1.082 1.755v1h-3c-3.86416566.00440864-6.99559136 3.13583434-7 7v7c0 1.6568542 1.34314575 3 3 3s3-1.3431458 3-3v-7c0-.5522847.4477153-1 1-1h3v1c.0068383.7392515.423729 1.4135201 1.082 1.75zm-4.082-4.75c-1.65685425 0-3 1.3431458-3 3v7c0 .5522847-.44771525 1-1 1s-1-.4477153-1-1v-7c.00330612-2.7600532 2.23994685-4.99669388 5-5h4c.5522847 0 1-.44771525 1-1l-.012-1.963c.0544723-.04488339.1317351-.04933308.191-.011l5.783 3.974-5.783 3.975c-.0279623.018123-.0606824.0275213-.094.027-.048 0-.086-.018-.085 0v-2.002c0-.5522847-.4477153-1-1-1z" fill-rule="nonzero"/><path id="Shape" d="m55 37c-1.6568542 0-3 1.3431458-3 3v7c0 .5522847-.4477153 1-1 1h-3v-1c-.0060964-.7399728-.4230958-1.4151882-1.082-1.752-.7090648-.3764178-1.5686623-.3270777-2.23.128l-5.818 4c-.5433459.3617448-.8697854.9712489-.8697854 1.624s.3264395 1.2622552.8697854 1.624l5.818 4c.3583096.2475306.7835035.3800767 1.219.38.3523908-.0002583.6994072-.0864118 1.011-.251.6592211-.3369776 1.076275-1.0126666 1.082-1.753v-1h3c3.8639376-.0049584 6.9950416-3.1360624 7-7v-7c0-1.6568542-1.3431458-3-3-3zm1 10c-.0033061 2.7600532-2.2399468 4.9966939-5 5h-4c-.5522847 0-1 .4477153-1 1l.012 1.963c-.0549395.0436752-.1314097.0480793-.191.011l-5.783-3.974 5.783-3.975c.0281827-.0174201.060887-.026118.094-.025.048 0 .085.018.085 0v2c0 .5522847.4477153 1 1 1h4c1.6568542 0 3-1.3431458 3-3v-7c0-.5522847.4477153-1 1-1s1 .4477153 1 1z" fill-rule="nonzero"/></g></g></g></svg>