<svg height="512" viewBox="0 0 58 60" width="512" xmlns="http://www.w3.org/2000/svg"><g id="Page-1" fill="none" fill-rule="evenodd"><g id="046---Club-Insignia" transform="translate(0 -1)"><path id="Path" d="m18.75 30.01c-1.7832195 2.2814973-2.7513293 5.0942963-2.75 7.99 0 .15 0 .29.01.44.0731037 2.3910685.8106567 4.7145336 2.13 6.71 2.4017978 3.656673 6.4850885 5.8562356 10.86 5.85v9.0000367c-.2699898.0023361-.5282084-.1104072-.71-.3100367-3.68-3.9-9.2-4.77-14.24-5.79-.64-.13-1.29-.28-1.92-.46-3.29816804-.8801232-6.18044471-2.8948842-8.14-5.69-3.33-4.89-2.94-11.43-.28-16.53 1.97-3.78 4.79-7.21 6.29-11.22 2.01-5.37-.93-8.49-3.08-9.96-.46052013-.31044584-.77009331-.79946114-.8536873-1.34852166s.06642171-1.10804782.4136873-1.54147834l1.63-2.04c.50710433-.64299055 1.35882277-.90567007 2.14-.66 7.79 2.49 15.32-.96 17.85-2.24.2796915-.13874636.5877862-.21063511.9-.21000417v23.00000417c-4.0071504-.003063-7.7907162 1.8462702-10.25 5.01z" fill="#02a9f4"/><path id="Path" d="m54.01 47.75c-1.9595553 2.7951158-4.841832 4.8098768-8.14 5.69-.63.18-1.28.33-1.92.46-5.04 1.02-10.56 1.89-14.24 5.79-.1817916.1996295-.4400102.3123728-.71.3100367v-9.0000367c4.3725152.0074246 8.4533268-2.1928287 10.85-5.85 1.32675-1.992551 2.0681519-4.3172269 2.14-6.71.01-.15.01-.29.01-.44-.0057455-5.466209-3.424696-10.3470005-8.56-12.22-1.4222004-.5206232-2.9255099-.7847181-4.44-.78v-23.00000417c.3122138-.00063094.6203085.07125781.9.21000417 2.53 1.28 10.06 4.73 17.85 2.24.7811772-.24567007 1.6328957.01700945 2.14.66l1.63 2.04c.3472656.43343052.4972813.99241782.4136873 1.54147834s-.3931672 1.03807582-.8536873 1.34852166c-2.15 1.47-5.09 4.59-3.08 9.96 1.5 4.01 4.32 7.44 6.29 11.22 2.66 5.1 3.05 11.64-.28 16.53z" fill="#ffdf00"/><path id="Path" d="m40.465 5.273c-3.6876317-.32270903-7.2766072-1.36322319-10.565-3.063-.2796915-.13874636-.5877862-.21063511-.9-.21000417v1.17900417c3.6070405 1.57937916 7.5325406 2.2963436 11.465 2.094z" fill="#fec108"/><path id="Path" d="m54.29 31.22c-1.97-3.78-4.79-7.21-6.29-11.22-2.01-5.37.93-8.49 3.08-9.96.4605201-.31044584.7700933-.79946114.8536873-1.34852166s-.0664217-1.10804782-.4136873-1.54147834l-1.63-2.04c-.5071043-.64299055-1.3588228-.90567007-2.14-.66-.405.13-.809.234-1.213.332.1305057.09464633.2490394.20478528.353.328l1.63 2.04c.3472656.43343052.4972813.99241782.4136873 1.54147834s-.3931672 1.03807582-.8536873 1.34852166c-2.15 1.47-5.09 4.59-3.08 9.96 1.5 4.01 4.32 7.44 6.29 11.22 2.66 5.1 3.05 11.64-.28 16.53-1.9595553 2.7951158-4.841832 4.8098768-8.14 5.69-.63.18-1.28.33-1.92.46-4.079.826-8.472 1.554-11.95 3.869v2.2310367c.2699898.0023361.5282084-.1104072.71-.3100367 3.68-3.9 9.2-4.77 14.24-5.79.64-.13 1.29-.28 1.92-.46 3.298168-.8801232 6.1804447-2.8948842 8.14-5.69 3.33-4.89 2.94-11.43.28-16.53z" fill="#fec108"/><path id="Path" d="m42 38c0 .15 0 .29-.01.44-.0718481 2.3927731-.81325 4.717449-2.14 6.71-2.402722 3.6535429-6.4821922 5.8532999-10.855 5.8532999s-8.452278-2.199757-10.855-5.8532999c-1.3157597-1.997177-2.0529822-4.3196009-2.13-6.71-.01-.15-.01-.29-.01-.44 0-.34.01-.67.04-1 .1328999-1.7463533.6194175-3.447464 1.43-5 .3664301-.7001997.7948064-1.366191 1.28-1.99 1.4976072-1.9311374 3.5122349-3.3978974 5.81-4.23.4704786-.1734766.951434-.3170952 1.44-.43.9828451-.2337358 1.9897449-.3512074 3-.35.34 0 .67.01 1 .04 1.1755764.0849594 2.3334756.3340423 3.44.74 5.135304 1.8729995 8.5542545 6.753791 8.56 12.22z" fill="#f5f5f5"/><path id="Path" d="m39.25 30.011c-2.7726297-3.5996701-7.2404627-5.4670342-11.75-4.911 1.0035937.110976 1.9904853.3405794 2.94.684 5.1333678 1.873227 8.5516977 6.7515352 8.56 12.216 0 .149 0 .292-.013.442-.1886011 5.6455705-4.0037552 10.5222413-9.438 12.064-.6707205.1899456-1.356086.3237407-2.049.4.4977754.060163.998608.0915485 1.5.094 7.007218.001214 12.7529228-5.5546927 12.987-12.558.013-.15.013-.293.013-.442.0037307-2.8957991-.9646534-5.709043-2.75-7.989z" fill="#cfd8dc"/><g fill="#607d8b"><path id="Path" d="m25.45 50.51c-2.998678-.8561587-5.591787-2.7575355-7.31-5.36-.02-.04-.05-.07-.07-.11l.07-.04h5.51z"/><path id="Path" d="m20.35 35.19-4.34 3.25c-.01-.15-.01-.29-.01-.44-.0013293-2.8957037.9667805-5.7085027 2.75-7.99z"/><path id="Path" d="m33.44 25.78-4.44 3.12-4.44-3.12c2.8686498-1.0399935 6.0113502-1.0399935 8.88 0z"/><path id="Path" d="m33.95 36.28-1.9 5.72h-6.11l-1.89-5.72 4.95-3.48z"/><path id="Path" d="m42 38c0 .15 0 .29-.01.44l-4.34-3.25 1.6-5.18c1.7832195 2.2814973 2.7513293 5.0942963 2.75 7.99z"/><path id="Path" d="m39.92 45.04c-.02.04-.05.07-.07.11-1.7122155 2.6039031-4.3028659 4.5060793-7.3 5.36l1.8-5.51h5.5z"/></g><path id="Path" d="m42 38c0 .15 0 .29-.01.44l-3.14-2.35c-.119081-.8967282-.3439817-1.7761908-.67-2.62l1.07-3.46c1.7853514 2.2803391 2.7537224 5.093897 2.75 7.99z" fill="#37474f"/><path id="Path" d="m39.92 45.04c-.02.04-.05.07-.07.11-1.7122155 2.6039031-4.3028659 4.5060793-7.3 5.36l.53-1.61c1.5002106-.9786368 2.7833972-2.2550161 3.77-3.75.0336363-.0477263.0637174-.0978615.09-.15h2.91z" fill="#37474f"/><path id="Path" d="m8.75 48.175c-.24887091.0000978-.48883553-.0926077-.673-.26-.60712468-.5527359-1.14746752-1.1746336-1.61-1.853-2.114-3.112-2.458-7.449-.92-11.6.12504296-.3349365.4192739-.5777209.77185889-.6368988s.70995797.0742414.9375.35.29068407.6519623.16564111.9868988c-1.34407999 3.1850421-1.08390537 6.8207966.7 9.782.37301627.5492458.80934788 1.0527053 1.3 1.5.30578757.2779389.40912689.7153359.26006024 1.1007385-.14906666.3854027-.51983387.639424-.93306024.6392615z" fill="#fff"/><path id="Shape" d="m52.591 26.4c-1.4428754-2.1218578-2.6671233-4.3844046-3.654-6.753-1.71-4.559.528-7.291 2.707-8.778.6907853-.4689123 1.1543987-1.20496598 1.2789542-2.03052577s-.1012618-1.66563065-.6229542-2.31747423l-1.631-2.035c-.7697361-.96220766-2.0509237-1.35367062-3.227-.986-6.442 2.058-12.853-.05-17.096-2.18-.8460479-.42904598-1.8459521-.42904598-2.692 0-4.243 2.131-10.654 4.237-17.096 2.18-1.17628463-.36656212-2.45701669.02515854-3.227.987l-1.631 2.034c-.5226256.65167134-.74902029 1.49215519-.62442584 2.31816322.12459446.82600804.5888315 1.56231748 1.28042584 2.03083678 2.179 1.487 4.417 4.219 2.707 8.778-.9869374 2.3682501-2.21118385 4.6304592-3.654 6.752-.886 1.406-1.8 2.858-2.586 4.358-3.059 5.86-2.923 12.75.335 17.552 2.08438451 2.9985172 5.16872314 5.1564906 8.7 6.087.631.179 1.3.341 2 .482l1 .2c4.664.929 9.489 1.889 12.7 5.3.3737177.3962667.8943053.6208843 1.439.6208843s1.0652823-.2246176 1.439-.6208843c3.215-3.411 8.04-4.371 12.7-5.3l1-.2c.694-.141 1.366-.3 2-.482 3.5312769-.9305094 6.6156155-3.0884828 8.7-6.087 3.263-4.8 3.394-11.692.335-17.551-.777-1.5-1.694-2.952-2.58-4.359zm-26.362 23.269-1.465-4.479 1.674-2.19h5.124l1.674 2.19-1.465 4.479c-1.8223116.429993-3.7196884.429993-5.542 0zm-1.783-22.746 3.554 2.497v2.86l-4.126 2.9-2.729-.8-1.275-4.125c1.2336305-1.4641686 2.8037967-2.6074801 4.576-3.332zm6.886 14.077h-4.664l-1.432-4.332 3.764-2.646 3.764 2.646zm-12.911-8.664.765 2.473-2.067 1.551c.1879635-1.4088337.6290556-2.7720861 1.302-4.024zm2.127 3.95 2.72.8 1.562 4.724-1.674 2.19h-4.544c-.897189-1.5551908-1.4324431-3.292545-1.566-5.083zm2.378 9.714.928 2.839c-1.4391214-.6836845-2.7265077-1.6490542-3.786-2.839zm12.148 0h2.858c-1.0596212 1.1898055-2.3469771 2.1551525-3.786 2.839zm4.314-2h-4.544l-1.674-2.19 1.562-4.723 2.72-.8 3.5 2.632c-.1319136 1.7898605-.6665603 3.5267787-1.564 5.081zm-.574-9.191.765-2.474c.6725453 1.2522791 1.112972 2.6159079 1.3 4.025zm-1.959-.431-2.729.8-4.126-2.898v-2.86l3.554-2.5c1.7717322.7253296 3.3414661 1.8689194 4.575 3.333zm-7.855-6.7-2.12-1.49c1.4022185-.2506707 2.8377815-.2506707 4.24 0zm-13.752 25.44-1-.2c-.645-.13-1.267-.28-1.849-.444-3.07783307-.8050882-5.76827235-2.6801354-7.589-5.289-2.856-4.2-2.94-10.285-.216-15.5.745-1.428 1.639-2.845 2.5-4.216 1.51735602-2.2357163 2.80267641-4.6203945 3.836-7.117 2.279-6.08-1.185-9.585-3.454-11.134-.23142536-.15581846-.38644977-.40196963-.427-.678-.04253156-.27437281.03343897-.55390073.209-.769l1.636-2.037c.18768582-.23506329.47121333-.37315441.772-.376.09569411.00019605.19079475.01503445.282.044 6.812 2.177 13.48.171 18.052-2.028v20.673c-7.3226986.5204716-12.9980112 6.6118283-13 13.953 0 .178 0 .349.014.474.2018698 6.0795373 4.3093366 11.3318074 10.161 12.993.9216142.2648965 1.8684522.4324785 2.825.5v6.083c-3.591-3.101-8.432-4.072-12.752-4.932zm37.94-5.933c-1.8212899 2.6087437-4.5119861 4.4837229-7.59 5.289-.582.164-1.2.314-1.849.444l-1 .2c-4.325.861-9.173 1.834-12.752 4.934v-6.088c.954325-.0665081 1.8991065-.2324062 2.819-.495 5.8371947-1.6524139 9.9435329-6.8795437 10.167-12.942.017-.178.017-.349.017-.527.0211113-7.3502478-5.6666164-13.4549297-13-13.953v-20.672c4.573 2.2 11.243 4.206 18.052 2.027.3863851-.1166302.8047578.01555018 1.054.333l1.63 2.036c.1724867.21742011.2468607.49674332.2053301.77114878-.0415306.27440547-.1952302.51921028-.4243301.67585122-2.269 1.549-5.733 5.054-3.454 11.134 1.0336414 2.4966465 2.3192976 4.8813261 3.837 7.117.865 1.371 1.759 2.788 2.5 4.216 2.727 5.215 2.643 11.299-.212 15.5z" fill="#000" fill-rule="nonzero"/><path id="Path" d="m18 22c.5522847 0 1-.4477153 1-1v-4h5c.5522847 0 1-.4477153 1-1s-.4477153-1-1-1h-5v-4h5c.5522847 0 1-.4477153 1-1 0-.55228475-.4477153-1-1-1h-6c-.5522847 0-1 .44771525-1 1v11c0 .5522847.4477153 1 1 1z" fill="#000"/><path id="Path" d="m41.1 17.01c-.5467605-.0778666-1.053123.302241-1.131.849-.1800751 1.2261608-1.2296955 2.136342-2.469 2.141-1.3770797-.0087298-2.4912702-1.1229203-2.5-2.5v-4c0-1.3807119 1.1192881-2.5 2.5-2.5 1.2397713.0072856 2.2889746.9176425 2.471 2.144.0403854.3630927.2755603.6752652.6134194.8142563s.7246247.0826774 1.0088217-.1468861c.2841969-.2295635.420589-.5958367.3557589-.9553702-.3246182-2.2091023-2.2161869-3.84854684-4.449-3.856-2.4841391.00275556-4.4972444 2.0158609-4.5 4.5v4c.0093215 2.48141 2.01859 4.4906785 4.5 4.5 2.2340161-.0076061 4.1262693-1.6485511 4.45-3.859.0373768-.2627149-.0311984-.5295135-.1906247-.7416442-.1594262-.2121306-.3966295-.3521972-.6593753-.3893558z" fill="#000"/></g></g></svg>