<svg height="512" viewBox="0 0 59 60" width="512" xmlns="http://www.w3.org/2000/svg"><g id="Page-1" fill="none" fill-rule="evenodd"><g id="047---Locker-Room"><path id="Path" d="m20 30.28c-1.3185076 2.7176721-2.0023836 5.6993712-2 8.72 0 .23 0 .45.02.68.0827819 2.7900318.7576971 5.5305965 1.98 8.04v3.28c-.0032948 1.1032019-.8967981 1.9967052-2 2h-15c-1.10320187-.0032948-1.9967052-.8967981-2-2v-48c.0032948-1.10320187.89679813-1.9967052 2-2h15c1.1032019.0032948 1.9967052.89679813 2 2z" fill="#02a9f4"/><path id="Path" d="m20 3c-.0032948-1.10320187-.8967981-1.9967052-2-2h-3.0000062c1.1032081.0032948 1.9967114.89679813 2.0000062 2v27.28c-1.3185076 2.7176721-2.0023836 5.6993712-2 8.72 0 .23 0 .45.02.68.0827819 2.7900318.7576971 5.5305965 1.98 8.04v3.28c-.0032948 1.1032019-.8967981 1.9967052-2.0000062 2h3.0000062c1.1032019-.0032948 1.9967052-.8967981 2-2v-3.28c-1.2223029-2.5094035-1.8972181-5.2499682-1.98-8.04-.02-.23-.02-.45-.02-.68-.0023836-3.0206288.6814924-6.0023279 2-8.72z" fill="#0377bc"/><path id="Path" d="m3 53h4v4c0 1.1045695-.8954305 2-2 2s-2-.8954305-2-2z" fill="#9e9e9e"/><path id="Path" d="m14 53h4v4c0 1.1045695-.8954305 2-2 2s-2-.8954305-2-2z" fill="#9e9e9e"/><circle id="Oval" cx="7" cy="27" fill="#f5f5f5" r="2"/><path id="Path" d="m39 3v16.03c-.33-.02-.67-.03-1-.03-6.1655432-.0045246-11.986873 2.8415409-15.77 7.71-.8658146 1.108964-1.6132171 2.3054784-2.23 3.57v-27.28c.0032948-1.10320187.8967981-1.9967052 2-2h15c1.1032019.0032948 1.9967052.89679813 2 2z" fill="#02a9f4"/><path id="Path" d="m37 1h-3c1.1032019.0032948 1.9967052.89679813 2 2v16.03c-.33-.02-.67-.03-1-.03-5.7443291-.0055105-11.2116665 2.4679129-15 6.786v4.494c.6167829-1.2645216 1.3641854-2.461036 2.23-3.57 3.783127-4.8684591 9.6044568-7.7145246 15.77-7.71.33 0 .67.01 1 .03v-16.03c-.0032948-1.10320187-.8967981-1.9967052-2-2z" fill="#0377bc"/><path id="Path" d="m58 39c0 .23 0 .45-.02.68-.2924906 8.7025856-6.18409 16.2149494-14.5661492 18.5732605-8.3820592 2.358311-17.3264926-.9799017-22.1138508-8.2532605-.4797893-.7325545-.9139466-1.4939996-1.3-2.28-1.2223029-2.5094035-1.8972181-5.2499682-1.98-8.04-.02-.23-.02-.45-.02-.68-.0023836-3.0206288.6814924-6.0023279 2-8.72.6167829-1.2645216 1.3641854-2.461036 2.23-3.57 3.783127-4.8684591 9.6044568-7.7145246 15.77-7.71.33 0 .67.01 1 .03 1.9918452.0886288 3.9581901.4832469 5.83 1.17 7.9001802 2.8820515 13.160118 10.3905428 13.17 18.8z" fill="#f5f5f5"/><path id="Path" d="m53.77 26.71c-3.783127-4.8684591-9.6044568-7.7145246-15.77-7.71-.5946667 0-1.183.0256667-1.765.077 5.5269183.4861563 10.6017752 3.2518555 14.006 7.633 2.7458243 3.5077497 4.2353105 7.8353585 4.23 12.29 0 .23 0 .45-.02.68-.2901073 8.6855105-6.1595948 16.1881061-14.52 18.56-1.2087523.3432868-2.4478405.5690018-3.7.674.583.051 1.17.086 1.765.086 10.7818218.0038651 19.6236716-8.5442002 19.984-19.32.02-.23.02-.45.02-.68.0053105-4.4546415-1.4841757-8.7822503-4.23-12.29z" fill="#cfd8dc"/><path id="Path" d="m58 39c.0039899.2275971-.0040212.4552463-.024.682l-6.67-5.011 2.459-7.965c2.7503272 3.5071609 4.2418733 7.837047 4.235 12.294z" fill="#607d8b"/><path id="Path" d="m54.165 50.765c-2.6235083 3.6267343-6.396654 6.2594075-10.706 7.47l2.776-7.47z" fill="#607d8b"/><path id="Path" d="m32.541 58.235c-4.3111312-1.2131121-8.0870164-3.8449925-10.717-7.47h7.941z" fill="#607d8b"/><path id="Path" d="m24.694 34.671-6.67 5.011c-.0199788-.2267537-.0279899-.4544029-.024-.682-.0068733-4.456953 1.4846728-8.7868391 4.235-12.294z" fill="#607d8b"/><path id="Path" d="m44.835 20.2-6.835 4.8-6.835-4.8c4.4162204-1.5999585 9.2537796-1.5999585 13.67 0z" fill="#607d8b"/><path id="Path" d="m45.612 36.353-2.918 8.529h-9.4l-2.906-8.529 7.612-5.353z" fill="#607d8b"/><path id="Path" d="m58 39c.0039899.2275971-.0040212.4552463-.024.682l-3.611-2.717c-.2222801-2.2307291-.8232216-4.4072399-1.777-6.436l1.177-3.823c.164.212.329.435.482.647s.306.435.459.659c2.1541952 3.2592594 3.2999346 7.0811735 3.294 10.988z" fill="#37474f"/><path id="Path" d="m54.165 50.765c-.165.235-.341.459-.506.682-.071.082-.141.165-.2.235-.283.342-.577.671-.871 1-2.4786278 2.6501441-5.6358868 4.5706458-9.129 5.553l.623-1.682c2.588684-1.4211745 4.830655-3.3977972 6.565-5.788z" fill="#37474f"/><g fill="#000"><path id="Path" d="m15 48h-9c-.55228475 0-1 .4477153-1 1s.44771525 1 1 1h9c.5522847 0 1-.4477153 1-1s-.4477153-1-1-1z"/><path id="Path" d="m15 44h-9c-.55228475 0-1 .4477153-1 1s.44771525 1 1 1h9c.5522847 0 1-.4477153 1-1s-.4477153-1-1-1z"/><path id="Path" d="m15 40h-9c-.55228475 0-1 .4477153-1 1s.44771525 1 1 1h9c.5522847 0 1-.4477153 1-1s-.4477153-1-1-1z"/><path id="Path" d="m15 12h-9c-.55228475 0-1 .4477153-1 1s.44771525 1 1 1h9c.5522847 0 1-.4477153 1-1s-.4477153-1-1-1z"/><path id="Path" d="m15 8h-9c-.55228475 0-1 .44771525-1 1s.44771525 1 1 1h9c.5522847 0 1-.44771525 1-1s-.4477153-1-1-1z"/><path id="Path" d="m15 4h-9c-.55228475 0-1 .44771525-1 1s.44771525 1 1 1h9c.5522847 0 1-.44771525 1-1s-.4477153-1-1-1z"/><path id="Shape" d="m10 27c0-1.6568542-1.34314575-3-3-3s-3 1.3431458-3 3 1.34314575 3 3 3 3-1.3431458 3-3zm-4 0c0-.5522847.44771525-1 1-1s1 .4477153 1 1-.44771525 1-1 1-1-.4477153-1-1z" fill-rule="nonzero"/><path id="Path" d="m25 14h9c.5522847 0 1-.4477153 1-1s-.4477153-1-1-1h-9c-.5522847 0-1 .4477153-1 1s.4477153 1 1 1z"/><path id="Path" d="m25 10h9c.5522847 0 1-.44771525 1-1s-.4477153-1-1-1h-9c-.5522847 0-1 .44771525-1 1s.4477153 1 1 1z"/><path id="Path" d="m25 6h9c.5522847 0 1-.44771525 1-1s-.4477153-1-1-1h-9c-.5522847 0-1 .44771525-1 1s.4477153 1 1 1z"/><path id="Shape" d="m45.174 19.261c-1.6680084-.6050725-3.406963-.9929259-5.174-1.154v-15.107c0-1.65685425-1.3431458-3-3-3h-15c-.740399.00260366-1.4533329.28064791-2 .78-.5466671-.49935209-1.259601-.77739634-2-.78h-15c-1.65685425 0-3 1.34314575-3 3v48c.00525139 1.2667854.80564914 2.3937454 2 2.816v3.184c0 1.6568542 1.34314575 3 3 3s3-1.3431458 3-3v-3h5v3c0 1.6568542 1.3431458 3 3 3s3-1.3431458 3-3v-3.184c1.103115-.3929285 1.8748846-1.394196 1.974-2.561 5.2345275 7.2841107 14.5211281 10.4341786 23.1070871 7.8380557s14.571332-10.3639533 14.8929129-19.3280557c.026-.258.026-.506.026-.765-.0107488-8.8288164-5.5323549-16.7118616-13.826-19.739zm8.944 9.706c1.6460081 2.6163253 2.6173442 5.6000828 2.827 8.684l-4.472-3.358zm-1.464-2.034-2.141 6.929-4.724 1.391-6.789-4.773v-4.96l5.962-4.19c3.0020868 1.1770882 5.6509477 3.1065691 7.692 5.603zm-10.673 17.067h-7.962l-2.444-7.262 6.425-4.515 6.425 4.515zm-12.73 5h-7.392c-1.6569053-2.6688452-2.6213937-5.7090806-2.806-8.845l5.837-4.384 4.716 1.388 2.583 7.678zm-7.369-20.034 1.645 5.327-4.472 3.358c.2099874-3.0841651 1.1812913-6.0681675 2.827-8.685zm20.689-8.4-4.571 3.211-4.571-3.212c3.0007763-.7533251 6.1412237-.7533251 9.142 0zm-11.532.766 5.961 4.188v4.96l-6.789 4.773-4.724-1.391-2.142-6.93c2.0421942-2.4956138 4.6916492-4.4243372 7.694-5.601zm-9.039-19.332h15c.5522847 0 1 .44771525 1 1v15.007c-6.4734988-.0123448-12.58779 2.9739019-16.558 8.087-.156.2-.293.411-.442.616v-23.71c0-.55228475.4477153-1 1-1zm-16 55c0 .5522847-.44771525 1-1 1s-1-.4477153-1-1v-3h2zm11 0c0 .5522847-.4477153 1-1 1s-1-.4477153-1-1v-3h2zm1-5h-15c-.55228475 0-1-.4477153-1-1v-48c0-.55228475.44771525-1 1-1h15c.5522847 0 1 .44771525 1 1v27.076c-1.3204617 2.7894543-2.0036398 5.837795-2 8.924 0 .259 0 .507.021.711.0894253 2.8489058.7630077 5.6490892 1.979 8.227v3.062c0 .5522847-.4477153 1-1 1zm5.28-1h5.771l1.894 5.636c-2.9944372-1.1931586-5.6333111-3.1334969-7.665-5.636zm10.034 6.4-2.435-7.24 2.937-4.16h8.368l2.937 4.162-2.435 7.238c-3.0754359.7790105-6.2965641.7790105-9.372 0zm11.741-.767 1.894-5.633h5.772c-2.0320581 2.5023068-4.6712894 4.4423105-7.666 5.635zm9.086-7.633h-7.392l-2.938-4.163 2.583-7.678 4.716-1.388 5.838 4.384c-.1833574 3.1362944-1.1483099 6.176909-2.807 8.845z" fill-rule="nonzero"/></g></g></g></svg>