<svg height="512" viewBox="0 0 60 61" width="512" xmlns="http://www.w3.org/2000/svg"><g id="Page-1" fill="none" fill-rule="evenodd"><g id="048---Half-Time" transform="translate(-1 -1)"><path id="Path" d="m39.563 53.558c-8.0841762 8.111734-21.0393686 8.6647693-29.78542771 1.2714897-8.74605914-7.3932796-10.35736542-20.2597689-3.70457229-29.5814897 1.42087199-2.0075445 3.1724555-3.759128 5.18-5.18 4.5669893-3.2427361 10.1979933-4.6233994 15.747-3.861 3.5167771.4705457 6.8645261 1.7962543 9.75 3.861 2.0075445 1.420872 3.759128 3.1724555 5.18 5.18 6.2261567 8.7496163 5.2256657 20.7157759-2.367 28.31z" fill="#f44335"/><path id="Path" d="m39.559 22.441c-4.4938002-4.4964453-10.717833-6.8212907-17.059-6.372 11.5398314.7758139 20.503764 10.3626193 20.503764 21.9285s-8.9639326 21.1526861-20.503764 21.9285c9.1510067.6376141 17.7358604-4.4743521 21.5355134-12.8236102 3.7996531-8.3492582 2.0151489-18.180202-4.4765134-24.6613898z" fill="#c81e1e"/><path id="Path" d="m24 55c9.1651016.0029294 16.6806769-7.2639851 16.986-16.424.014-.196.014-.383.014-.576 0-9.3888407-7.6111593-17-17-17s-17 7.6111593-17 17c0 .2 0 .382.017.578.30736679 9.1576091 7.8202341 16.4223036 16.983 16.422z" fill="#f5f5f5"/><path id="Path" d="m37.407 27.551c-3.2159156-4.1389167-8.1655591-6.5574379-13.407-6.551-.506 0-1.006.0216667-1.5.065 8.7696097.7853735 15.4921551 8.1302965 15.5 16.935 0 .2 0 .382-.017.578-.2470118 7.3811163-5.234506 13.7570572-12.339 15.774-1.0261903.2911418-2.0780539.4826942-3.141.572.5.044.994.074 1.5.074 9.1631877.0013468 16.6766616-7.2639343 16.983-16.422.014-.196.014-.383.014-.576.0061744-3.7870703-1.2590709-7.4665993-3.593-10.449z" fill="#cfd8dc"/><path id="Path" d="m27 11.5v4.709c-1.9902699-.279-4.0097301-.279-6 0v-4.709c0-.8284271.6715729-1.5 1.5-1.5h3c.8284271 0 1.5.6715729 1.5 1.5z" fill="#7f8e94"/><path id="Path" d="m25.5 10h-3c.8284271 0 1.5.6715729 1.5 1.5v4.5c1.0036484-.0003234 2.0060917.0695135 3 .209v-4.709c0-.8284271-.6715729-1.5-1.5-1.5z" fill="#545c60"/><path id="Path" d="m11.253 20.068c-2.0075445 1.420872-3.75912801 3.1724555-5.18 5.18l-2.81-2.81c-.17265128-.1704218-.26983538-.4029056-.26983538-.6455s.0971841-.4750782.26983538-.6455l3.89-3.889c.16943241-.1741093.40205685-.2723257.645-.2723257s.47556759.0982164.645.2723257z" fill="#7f8e94"/><path id="Path" d="m8.443 17.258c-.16943241-.1741093-.40205685-.2723257-.645-.2723257s-.47556759.0982164-.645.2723257l-.855.855 1.955 1.955c-1.00453112.7058391-1.94484196 1.4989127-2.81 2.37-.366.366-.709.748-1.046 1.134l1.676 1.676c1.42087199-2.0075445 3.1724555-3.759128 5.18-5.18z" fill="#545c60"/><path id="Path" d="m44.743 22.438-2.81 2.81c-1.420872-2.0075445-3.1724555-3.759128-5.18-5.18l2.81-2.81c.1694324-.1741093.4020568-.2723257.645-.2723257s.4755676.0982164.645.2723257l3.89 3.889c.1726513.1704218.2698354.4029056.2698354.6455s-.0971841.4750782-.2698354.6455z" fill="#7f8e94"/><path id="Path" d="m44.743 21.147-3.89-3.889c-.1694324-.1741093-.4020568-.2723257-.645-.2723257s-.4755676.0982164-.645.2723257l-.855.855 3.035 3.034c.1726513.1704218.2698354.4029056.2698354.6455s-.0971841.4750782-.2698354.6455l-1.135 1.134c.4715752.5343572.9138885 1.0938418 1.325 1.676l2.81-2.81c.1726513-.1704218.2698354-.4029056.2698354-.6455s-.0971841-.4750782-.2698354-.6455z" fill="#545c60"/><circle id="Oval" cx="24" cy="38" fill="#9e9e9e" r="4"/><path id="Path" d="m26.828 35.172c-1.1350719-1.1357323-2.8392724-1.4826363-4.328-.881 1.5121789.6106493 2.5022287 2.0781789 2.5022287 3.709s-.9900498 3.0983507-2.5022287 3.709c1.7633772.7133645 3.7852175.0862079 4.835327-1.4998747 1.0501095-1.5860827.8379762-3.6923028-.507327-5.0371253z" fill="#707070"/><circle id="Oval" cx="45" cy="45" fill="#02a9f4" r="15"/><path id="Path" d="m45 30c-.506 0-1.007.027-1.5.076 7.6612948.774165 13.491947 7.2236903 13.491947 14.924s-5.8306522 14.149835-13.491947 14.924c.493.049.994.076 1.5.076 8.2842712-.0000001 14.9999998-6.7157288 14.9999998-15s-6.7157286-14.9999999-14.9999998-15z" fill="#0377bc"/><g fill="#000"><path id="Shape" d="m25 33.1v-8.1c0-.5522847-.4477153-1-1-1s-1 .4477153-1 1v8.1c-2.5149632.5133647-4.2326695 2.8476987-3.9746808 5.4015243.2579888 2.5538256 2.4078572 4.4974552 4.9746808 4.4974552s4.716692-1.9436296 4.9746808-4.4974552c.2579887-2.5538256-1.4597176-4.8881596-3.9746808-5.4015243zm1.121 7.02c-1.1870572 1.1329556-3.0549428 1.1329556-4.242 0-.8581818-.8579227-1.1150152-2.1483473-.6507253-3.2694817s1.5582561-1.8521589 2.7717253-1.8521589 2.3074354.7310245 2.7717253 1.8521589.2074565 2.411559-.6507253 3.2694817z" fill-rule="nonzero"/><path id="Shape" d="m45.146 29.007c-.5257929-1.2699792-1.1675065-2.4887999-1.917-3.641l2.222-2.215c.7459408-.7481698.7459408-1.9588302 0-2.707l-3.9-3.895c-.7480574-.7471564-1.9599426-.7471564-2.708 0l-2.213 2.226c-2.6144875-1.7104138-5.5514445-2.8675-8.63-3.4v-1.653c2.5099601-1.7477119 3.594656-4.92261554 2.67877-7.84075699-.9158859-2.91814145-3.6202742-4.90380566-6.67877-4.90380566s-5.7628841 1.98566421-6.67877 4.90380566c-.915886 2.91814145.1688099 6.09304509 2.67877 7.84075699v1.654c-3.0786858.532035-6.0157344 1.6891572-8.63 3.4l-2.219-2.227c-.74816976-.7459408-1.95883024-.7459408-2.707 0l-3.895 3.895c-.74660575.7482852-.74660575 1.9597148 0 2.708l2.226 2.218c-5.90717304 8.9119051-4.88557431 20.7208439 2.4643306 28.4858708 7.3499049 7.765027 19.0849696 9.4332468 28.3076694 4.0241292 5.5771836 4.0964929 13.1567366 4.1400043 18.780584.1078124s8.0152958-11.2247221 5.9255206-17.8216207c-2.0897751-6.5968985-8.1863651-11.1005756-15.1061046-11.1591917zm-4.946-10.984 3.777 3.777-1.942 1.934c-.5507963-.6997659-1.1410898-1.3675188-1.768-2-.6322641-.6258918-1.3000355-1.2148661-2-1.764zm-21.2-10.023c-.0030921-2.18546199 1.4135564-4.11970259 3.498095-4.77617233 2.0845386-.65646975 4.353896.11696175 5.6036681 1.9098152 1.249772 1.79285344 1.1903363 4.18965278-.1467631 5.91835713-.2161502-1.18668168-1.2487954-2.04981319-2.455-2.052h-3c-1.2062046.00218681-2.2388498.86531832-2.455 2.052-.6759662-.8739349-1.0434339-1.94715154-1.045-3.052zm3 3.5c0-.2761424.2238576-.5.5-.5h3c.2761424 0 .5.2238576.5.5v3.608c-1.3308537-.1149977-2.6691463-.1149977-4 0zm-17.977 10.3 3.777-3.777 1.938 1.946c-1.40994717 1.0912769-2.67572308 2.3570528-3.767 3.767zm5.124 31.053c-8.20308539-8.2030854-8.20308539-21.5029146 0-29.706 8.2030854-8.2030854 21.5029146-8.2030854 29.706 0 1.7319753 1.7337721 3.1419142 3.7616597 4.164 5.989-1.0224169.1259035-2.0301622.3509633-3.009.672-4.5088677-8.7919535-15.2689678-12.2959177-24.0903391-7.8448792-8.82137121 4.4510385-12.39591569 15.1878979-8.00289843 24.0383065 4.39301723 8.8504087 15.10617303 12.4953793 23.98523753 8.1605727.5917134.8434413 1.2631346 1.6280498 2.005 2.343-8.1487917 4.4110403-18.2298833 2.9239999-24.758-3.652zm29-22.291c-3.9416187 1.857711-6.9515886 5.2471649-8.3304447 9.3807111s-1.0065342 8.651255 1.0304447 12.5032889c-7.9166524 3.7754276-17.397461.4828352-21.26988787-7.3868249-3.87242691-7.86966-.69658868-17.3902139 7.12489057-21.3590553 7.8214792-3.9688414 17.3803408-.910237 21.4449973 6.8618802zm6.853 28.438c-5.6624714 0-10.7673795-3.4109905-12.9343135-8.6424319-2.166934-5.2314415-.9691534-11.2530911 3.0348186-15.257063 4.0039719-4.003972 10.0256215-5.2017526 15.257063-3.0348186 5.2314414 2.166934 8.6424319 7.2718421 8.6424319 12.9343135-.0082673 7.7285595-6.2714405 13.9917327-14 14z" fill-rule="nonzero"/><path id="Path" d="m47 55h-2.479l2.387-1.937c.3564028-.2755086.6419676-.6320361.833-1.04.2840825-.6415346.3374341-1.3616038.151-2.038-.274141-1.0087057-1.0609589-1.797425-2.069-2.074-.9106829-.2565441-1.8889608-.0714745-2.643.5-.7473956.5662448-1.1845695 1.4513367-1.18 2.389 0 .5522847.4477153 1 1 1s1-.4477153 1-1c-.0011113-.3150186.1473183-.6118779.4-.8.2571323-.1940827.5911321-.2545737.9-.163.3199382.0917045.5703294.3413403.663.661.066375.2339497.0501303.4836235-.046.707-.0658628.1187207-.1574282.2212193-.268.3l-2.559 2.083c-.6818966.487692-1.0875316 1.2736562-1.09 2.112v.3c0 .5522847.4477153 1 1 1h4c.5522847 0 1-.4477153 1-1s-.4477153-1-1-1z"/><path id="Path" d="m51 43.8h-12c-.5522847 0-1 .4477153-1 1s.4477153 1 1 1h12c.5522847 0 1-.4477153 1-1s-.4477153-1-1-1z"/><path id="Path" d="m43.707 36.707.293-.293v4.386c0 .5522847.4477153 1 1 1s1-.4477153 1-1v-6.8c-.0000863-.4043959-.2437275-.7689341-.6173454-.923678-.373618-.1547439-.8036603-.0692299-1.0896546.216678l-2 2c-.3789722.3923789-.3735524 1.0160848.0121814 1.4018186s1.0094397.3911536 1.4018186.0121814z"/></g></g></g></svg>