<svg height="512" viewBox="0 0 60 48" width="512" xmlns="http://www.w3.org/2000/svg"><g id="Page-1" fill="none" fill-rule="evenodd"><g id="049---Laptop-Football-Streaming"><path id="Path" d="m2 39h56c.5522847 0 1 .4477153 1 1v3c0 2.209139-1.790861 4-4 4h-50c-2.209139 0-4-1.790861-4-4v-3c0-.5522847.44771525-1 1-1z" fill="#607d8b"/><path id="Path" d="m58 39h-3c.5522847 0 1 .4477153 1 1v3c0 2.209139-1.790861 4-4 4h3c2.209139 0 4-1.790861 4-4v-3c0-.5522847-.4477153-1-1-1z" fill="#37474f"/><path id="Path" d="m42 39-1.171 2.342c-.508231 1.0161218-1.5468652 1.6579614-2.683 1.658h-16.292c-1.1361348-.0000386-2.174769-.6418782-2.683-1.658l-1.171-2.342" fill="#37474f"/><path id="Path" d="m39.37 5h11.63c1.6568542 0 3 1.34314575 3 3v31h-48v-31c0-1.65685425 1.34314575-3 3-3z" fill="#00bcd4"/><path id="Path" d="m51 5h-3c1.6568542 0 3 1.34314575 3 3v31h3v-31c0-1.65685425-1.3431458-3-3-3z" fill="#00838f"/><path id="Path" d="m43 14c0 .15 0 .29-.01.44-.0718481 2.3927731-.81325 4.717449-2.14 6.71-2.402722 3.6535429-6.4821922 5.8532999-10.855 5.8532999s-8.452278-2.199757-10.855-5.8532999c-1.3157597-1.997177-2.0529822-4.3196009-2.13-6.71-.01-.15-.01-.29-.01-.44 0-.34.01-.67.04-1 .1328999-1.7463533.6194175-3.44746396 1.43-5 .3664301-.70019969.7948064-1.36619096 1.28-1.99 1.4976072-1.93113743 3.5122349-3.39789741 5.81-4.23.4704786-.17347659.951434-.31709523 1.44-.43.9828451-.23373579 1.9897449-.35120743 3-.35.34 0 .67.01 1 .04 1.1755764.08495935 2.3334756.33404232 3.44.74 5.135304 1.87299945 8.5542545 6.75379097 8.56 12.22z" fill="#f5f5f5"/><path id="Path" d="m40.25 6.011c-2.7726297-3.59967014-7.2404627-5.46703422-11.75-4.911 1.0035937.11097603 1.9904853.34057939 2.94.684 5.1333678 1.87322697 8.5516977 6.75153521 8.56 12.216 0 .149 0 .292-.013.442-.1886011 5.6455705-4.0037552 10.5222413-9.438 12.064-.6707205.1899456-1.356086.3237407-2.049.4.4977754.060163.998608.0915485 1.5.094 7.007218.001214 12.7529228-5.5546927 12.987-12.558.013-.15.013-.293.013-.442.0037307-2.8957991-.9646534-5.70904303-2.75-7.989z" fill="#cfd8dc"/><g fill="#607d8b"><path id="Path" d="m26.45 26.51c-2.998678-.8561587-5.591787-2.7575355-7.31-5.36-.02-.04-.05-.07-.07-.11l.07-.04h5.51z"/><path id="Path" d="m21.35 11.19-4.34 3.25c-.01-.15-.01-.29-.01-.44-.0013293-2.8957037.9667805-5.70850269 2.75-7.99z"/><path id="Path" d="m34.44 1.78-4.44 3.12-4.44-3.12c2.8686498-1.03999347 6.0113502-1.03999347 8.88 0z"/><path id="Path" d="m34.95 12.28-1.9 5.72h-6.11l-1.89-5.72 4.95-3.48z"/><path id="Path" d="m43 14c0 .15 0 .29-.01.44l-4.34-3.25 1.6-5.18c1.7832195 2.28149731 2.7513293 5.0942963 2.75 7.99z"/><path id="Path" d="m40.92 21.04c-.02.04-.05.07-.07.11-1.7122155 2.6039031-4.3028659 4.5060793-7.3 5.36l1.8-5.51h5.5z"/></g><path id="Path" d="m43 14c0 .15 0 .29-.01.44l-3.14-2.35c-.119081-.8967282-.3439817-1.7761908-.67-2.62l1.07-3.46c1.7853514 2.28033911 2.7537224 5.093897 2.75 7.99z" fill="#37474f"/><path id="Path" d="m40.92 21.04c-.02.04-.05.07-.07.11-1.7122155 2.6039031-4.3028659 4.5060793-7.3 5.36l.53-1.61c1.5002106-.9786368 2.7833972-2.2550161 3.77-3.75.0336363-.0477263.0637174-.0978615.09-.15h2.91z" fill="#37474f"/><path id="Path" d="m10 13c-.55228475 0-1-.4477153-1-1v-3c0-.55228475.44771525-1 1-1h3c.5522847 0 1 .44771525 1 1s-.4477153 1-1 1h-2v2c0 .5522847-.4477153 1-1 1z" fill="#fff"/><path id="Shape" d="m58 38h-3v-30c0-2.209139-1.790861-4-4-4h-11.206c-1.423264-1.40168472-3.1326034-2.47927467-5.011-3.159-3.0900398-1.11374475-6.4719602-1.11374475-9.562 0-1.8798525.67915451-3.5906136 1.7567805-5.015 3.159h-11.206c-2.209139 0-4 1.790861-4 4v30h-3c-1.1045695 0-2 .8954305-2 2v3c.00330612 2.7600532 2.23994685 4.9966939 5 5h50c2.7600532-.0033061 4.9966939-2.2399468 5-5v-3c0-1.1045695-.8954305-2-2-2zm-30.771-12.331-1.465-4.479 1.674-2.19h5.124l1.674 2.19-1.465 4.479c-1.8223116.429993-3.7196884.429993-5.542 0zm-7.808-17.333.765 2.473-2.067 1.551c.1879635-1.4088337.6290556-2.77208611 1.302-4.024zm2.127 3.95 2.721.8 1.561 4.724-1.674 2.19h-4.544c-.897189-1.5551908-1.4324431-3.292545-1.566-5.083zm8.452-2.264 3.764 2.646-1.432 4.332h-4.664l-1.432-4.332zm-6.074 11.978.928 2.839c-1.4391214-.6836845-2.7265077-1.6490542-3.786-2.839zm12.148 0h2.858c-1.0596212 1.1898055-2.3469771 2.1551525-3.786 2.839zm4.314-2h-4.544l-1.674-2.19 1.561-4.723 2.721-.8 3.5 2.632c-.1319136 1.7898605-.6665603 3.5267787-1.564 5.081zm-.574-9.191.765-2.474c.6725453 1.25227907 1.112972 2.6159079 1.3 4.025zm-.685-4.554-1.274 4.123-2.729.8-4.126-2.898v-2.86l3.554-2.5c1.7719418.72590039 3.3416948 1.8701903 4.575 3.335zm-9.129-4.255c.7108303-.00002718 1.4202672.06288514 2.12.188l-2.12 1.49-2.12-1.49c.6997328-.12511486 1.4091697-.18802718 2.12-.188zm-4.554.923 3.554 2.497v2.86l-4.126 2.9-2.729-.8-1.275-4.125c1.2336305-1.46416856 2.8037967-2.60748012 4.576-3.332zm-18.446 5.077c0-1.1045695.8954305-2 2-2h9.527c-1.6502985 2.34071613-2.5332642 5.1360172-2.527 8 0 .178 0 .349.014.474.1887235 5.6261563 3.7288775 10.5920634 8.986 12.605v3.921c0 .5522847.4477153 1 1 1s1-.4477153 1-1v-3.328c.658601.1462632 1.327073.2438601 2 .292v7.036c0 .5522847.4477153 1 1 1s1-.4477153 1-1v-7.036c.672865-.0481534 1.3413117-.1454124 2-.291v3.327c0 .5522847.4477153 1 1 1s1-.4477153 1-1v-3.921c5.2400299-2.004645 8.7759646-6.9454278 8.983-12.552.017-.178.017-.349.017-.527.0060664-2.8639526-.8768808-5.65919506-2.527-8h9.527c1.1045695 0 2 .8954305 2 2v30h-46zm33.382 32-.447.9c-.3387428.6769347-1.0320477 1.1032261-1.789 1.1h-16.292c-.7569523.0032261-1.4502572-.4230653-1.789-1.1l-.447-.9zm17.618 3c0 1.6568542-1.3431458 3-3 3h-50c-1.65685425 0-3-1.3431458-3-3v-3h15.382l.894 1.789c.6740361 1.3584764 2.0615043 2.2158526 3.578 2.211h16.292c1.5164957.0048526 2.9039639-.8525236 3.578-2.211l.894-1.789h15.382z" fill="#000" fill-rule="nonzero"/><circle id="Oval" cx="5" cy="43" fill="#000" r="1"/><circle id="Oval" cx="9" cy="43" fill="#000" r="1"/><path id="Path" d="m15 42h-2c-.5522847 0-1 .4477153-1 1s.4477153 1 1 1h2c.5522847 0 1-.4477153 1-1s-.4477153-1-1-1z" fill="#000"/></g></g></svg>