<svg height="512" viewBox="0 0 60 54" width="512" xmlns="http://www.w3.org/2000/svg"><g id="Page-1" fill="none" fill-rule="evenodd"><g id="050---Banner" transform="translate(-1)"><path id="Path" d="m51 21c0 .23 0 .45-.02.68-.2924906 8.7025856-6.18409 16.2149494-14.5661492 18.5732605-8.3820592 2.358311-17.3264926-.9799017-22.1138508-8.2532605-.4797893-.7325545-.9139466-1.4939996-1.3-2.28-1.2223029-2.5094035-1.8972181-5.2499682-1.98-8.04-.02-.23-.02-.45-.02-.68-.0023836-3.0206288.6814924-6.0023279 2-8.72.6167829-1.2645216 1.3641854-2.46103598 2.23-3.57 3.783127-4.86845905 9.6044568-7.71452457 15.77-7.71.33 0 .67.01 1 .03 1.9918452.08862881 3.9581901.4832469 5.83 1.17 7.9001802 2.88205152 13.160118 10.3905428 13.17 18.8z" fill="#f5f5f5"/><path id="Path" d="m46.77 8.71c-3.783127-4.86845905-9.6044568-7.71452457-15.77-7.71-.5946667 0-1.183.02566667-1.765.077 5.5269183.48615629 10.6017752 3.25185546 14.006 7.633 2.7458243 3.5077497 4.2353105 7.8353585 4.23 12.29 0 .23 0 .45-.02.68-.2901073 8.6855105-6.1595948 16.1881061-14.52 18.56-1.2087523.3432868-2.4478405.5690018-3.7.674.583.051 1.17.086 1.765.086 10.7818218.0038651 19.6236716-8.5442002 19.984-19.32.02-.23.02-.45.02-.68.0053105-4.4546415-1.4841757-8.7822503-4.23-12.29z" fill="#cfd8dc"/><g fill="#607d8b"><path id="Path" d="m51 21c.0039899.2275971-.0040212.4552463-.024.682l-6.67-5.011 2.459-7.965c2.7503272 3.5071609 4.2418733 7.837047 4.235 12.294z"/><path id="Path" d="m47.165 32.765c-2.6235083 3.6267343-6.396654 6.2594075-10.706 7.47l2.776-7.47z"/><path id="Path" d="m25.541 40.235c-4.3111312-1.2131121-8.0870164-3.8449925-10.717-7.47h7.941z"/><path id="Path" d="m17.694 16.671-6.67 5.011c-.0199788-.2267537-.0279899-.4544029-.024-.682-.0068733-4.456953 1.4846728-8.7868391 4.235-12.294z"/><path id="Path" d="m37.835 2.2-6.835 4.8-6.835-4.8c4.4162204-1.59995848 9.2537796-1.59995848 13.67 0z"/><path id="Path" d="m38.612 18.353-2.918 8.529h-9.4l-2.906-8.529 7.612-5.353z"/></g><path id="Path" d="m51 21c.0039899.2275971-.0040212.4552463-.024.682l-3.611-2.717c-.2222801-2.2307291-.8232216-4.4072399-1.777-6.436l1.177-3.823c.164.212.329.435.482.647s.306.435.459.659c2.1541952 3.2592594 3.2999346 7.0811735 3.294 10.988z" fill="#37474f"/><path id="Path" d="m47.165 32.765c-.165.235-.341.459-.506.682-.071.082-.141.165-.2.235-.283.342-.577.671-.871 1-2.4786278 2.6501441-5.6358868 4.5706458-9.129 5.553l.623-1.682c2.588684-1.4211745 4.830655-3.3977972 6.565-5.788z" fill="#37474f"/><path id="Path" d="m56.37 34.27-4.11 4.71-3.36 3.84c-.68-1.17-5.13-7.82-17.9-7.82s-17.22 6.65-17.9 7.82l-3.36-3.84-4.11-4.71c-.33522193-.3761513-.33522193-.9438487 0-1.32 3.95-4.31 11.74-9.95 25.37-9.95s21.42 5.64 25.37 9.95c.3352219.3761513.3352219.9438487 0 1.32z" fill="#f44335"/><path id="Path" d="m28 35c-9.429 0-14.313 3.622-16.5 5.99l1.6 1.83c.652-1.122 4.8-7.27 16.4-7.771-.494-.021-.979-.049-1.5-.049z" fill="#c81e1e"/><path id="Path" d="m56.37 32.95c-3.95-4.31-11.74-9.95-25.37-9.95-.514 0-1 .023-1.5.039 12.7.4 20.069 5.763 23.87 9.911.3352219.3761513.3352219.9438487 0 1.32l-4.11 4.71-1.76 2.01c.5295327.5592316.9987804 1.1726054 1.4 1.83l3.36-3.84 4.11-4.71c.3352219-.3761513.3352219-.9438487 0-1.32z" fill="#c81e1e"/><path id="Path" d="m59.13 47.5-4.15.52-1.45 4.32c-.1118605.3352213-.3934505.5857338-.7394147.6578097-.3459641.0720758-.7041655-.0451468-.9405853-.3078097-1.4588746-1.6558966-3.0655085-3.1755045-4.8-4.54-.4339935-.3391609-.709703-.8416329-.7626375-1.3898833-.0529345-.5482503.1215491-1.0941892.4826375-1.5101167l2.13-2.43 3.36-3.84c2.7439932 2.0047221 5.2591211 4.3052258 7.5 6.86.2417285.2806761.3104176.6711567.1789833 1.0174756s-.4419009.592903-.8089833.6425244z" fill="#c81e1e"/><path id="Path" d="m14.95 48.15c-1.7344915 1.3644955-3.3411254 2.8841034-4.8 4.54-.23641976.2626629-.59462121.3798855-.94058535.3078097-.34596414-.0720759-.62755411-.3225884-.73941465-.6578097l-1.45-4.32-4.15-.52c-.36708235-.0496214-.67754901-.2962055-.80898329-.6425244-.13143427-.3463189-.06274516-.7367995.17898329-1.0174756 2.24087891-2.5547742 4.75600678-4.8552779 7.5-6.86l3.36 3.84 2.13 2.43c.3610884.4159275.535572.9618664.4826375 1.5101167-.0529345.5482504-.328644 1.0507224-.7626375 1.3898833z" fill="#c81e1e"/><path id="Shape" d="m53.741 38.805 3.383-3.874c.6719003-.7604071.6632796-1.9048015-.02-2.655-1.7888046-1.942045-3.8307919-3.6345636-6.071-5.032.5667002-1.7738481.8843993-3.6177816.944-5.479.023-.258.023-.506.023-.765-.0107488-8.8288164-5.5323549-16.71186163-13.826-19.739-4.6353319-1.67102539-9.7086681-1.67102539-14.344 0-8.2961576 3.02459089-13.8201032 10.9086952-13.83 19.739 0 .259 0 .507.02.708.0591169 1.8799016.3781438 3.7425746.948 5.535-2.23890282 1.3980002-4.27982638 3.0904734-6.068 5.032-.68342009.7505279-.6920401 1.8952653-.02 2.656l3.383 3.874c-2.4392703 1.9187345-4.70256816 4.0511807-6.763 6.372-.49171044.5556534-.63539625 1.3378578-.37326272 2.0319874s.88700122 1.1860948 1.62326272 1.2780126l3.521.446 1.25 3.722c.22658647.6741114.79410159 1.177193 1.49052276 1.3212943.69642116.1441013 1.41698004-.0924559 1.89247724-.6212943 1.4132255-1.6103785 2.9707063-3.0881945 4.653-4.415.6564758-.5040499 1.0747418-1.2575901 1.1552773-2.081326.0805354-.8237359-.1838601-1.644019-.7302773-2.265674l-1.628-1.862c1.3317495-1.7834359 3.0630758-3.229804 5.055-4.223 1.8018374 1.1926927 3.7766666 2.1006757 5.855 2.692 3.7483169 1.0637963 7.7186831 1.0637963 11.467 0 2.0810765-.5920749 4.0585791-1.5010582 5.863-2.695 1.9919242.993196 3.7232505 2.4395641 5.055 4.223l-1.628 1.862c-.5463613.6265277-.8101022 1.4506729-.729 2.278.0833986.8193736.5013059 1.5679885 1.155 2.069 1.682215 1.3283676 3.2396755 2.8075033 4.653 4.419.3728141.4233581.9098883.6656609 1.474.665.1370373.0001806.2737387-.0135565.408-.041.7023636-.1388355 1.2755401-.6451414 1.5-1.325l1.25-3.722 3.52-.446c.7366559-.0916664 1.3619392-.5838059 1.6241307-1.2782987.2621915-.6944929.1181528-1.477074-.3741307-2.0327013-2.0597887-2.3204345-4.3224179-4.4525467-6.761-6.371zm-15.489-16.242 1.142-3.4 4.716-1.388 5.836 4.383c-.0737965 1.3730485-.3025826 2.7333531-.682 4.055-3.440502-1.8244367-7.1629143-3.0582548-11.012-3.65zm-12.478-.272-1.2-3.553 6.426-4.515 6.425 4.516-1.192 3.553c-3.4755008-.388669-6.9834992-.388669-10.459 0zm21.344-11.324c1.6460081 2.6163253 2.6173442 5.6000828 2.827 8.684l-4.472-3.358zm-1.464-2.034-2.141 6.929-4.724 1.391-6.789-4.773v-4.96l5.962-4.19c3.0020868 1.17708818 5.6509477 3.1065691 7.692 5.603zm-10.086-6.366-4.568 3.21-4.568-3.21c3.0010452-.73449861 6.1349548-.73449861 9.136 0zm-11.529.764 5.961 4.189v4.96l-6.789 4.773-4.724-1.391-2.142-6.93c2.0418525-2.49597534 4.6914102-4.42477342 7.694-5.601zm-7.512 12.962-4.472 3.358c.2099874-3.0841651 1.1812913-6.0681675 2.827-8.685zm-4.473 5.861 5.836-4.383 4.718 1.388 1.148 3.4c-3.8512016.5899342-7.5759957 1.8224054-11.019 3.646-.3765495-1.3209715-.605613-2.6795896-.683-4.051zm2.664 24.517c-.0259544.2693699-.1629194.515762-.378.68-1.7812306 1.4021607-3.430134 2.9647026-4.926 4.668l-1.45-4.319c-.12201499-.3637527-.44139053-.6256251-.822-.674l-4.152-.518c1.99929716-2.2644236 4.20515724-4.3377111 6.589-6.193l4.895 5.594c.1838313.2089765.2722527.4851121.244.762zm8.665-9.717.563 1.679c-.7992027-.3158583-1.5759955-.6857119-2.325-1.107.553-.205 1.136-.398 1.762-.572zm2.931 2.446-.971-2.893c3.7408005-.6786733 7.5731995-.6786733 11.314 0l-.971 2.893c-3.0754359.7790105-6.2965641.7790105-9.372 0zm11.74-.769.563-1.679c.626.174 1.209.367 1.762.572-.7488514.4221614-1.5256586.7926901-2.325 1.109zm-7.054-4.631c-11.024 0-16.121 4.784-17.992 7.2l-2.508-2.867-.022-.025-4.11-4.68c4.025-4.393 11.562-9.628 24.632-9.628s20.607 5.235 24.618 9.614l-4.1 4.7c-.0074181.0066133-.0141215.013987-.02.022l-2.506 2.864c-1.871-2.416-6.968-7.2-17.992-7.2zm23.858 13.027c-.3806095.0483749-.699985.3102473-.822.674l-1.436 4.326c-1.4989126-1.7055963-3.1504358-3.270761-4.934-4.676-.2156444-.1638865-.3530363-.4103944-.379-.68-.0282527-.2768879.0601687-.5530235.244-.762l4.895-5.594c2.3794232 1.8521388 4.5803469 3.9228284 6.574 6.185z" fill="#000" fill-rule="nonzero"/><path id="Path" d="m36 26h-10c-.5522847 0-1 .4477153-1 1s.4477153 1 1 1h10c.5522847 0 1-.4477153 1-1s-.4477153-1-1-1z" fill="#000"/><path id="Path" d="m36 30h-10c-.5522847 0-1 .4477153-1 1s.4477153 1 1 1h10c.5522847 0 1-.4477153 1-1s-.4477153-1-1-1z" fill="#000"/></g></g></svg>