<svg id="Flat" height="512" viewBox="0 0 512 512" width="512" xmlns="http://www.w3.org/2000/svg"><path d="m247.872 398.4a8 8 0 0 0 -10 5.291l-10.057 32.656-9.668-32.577a8 8 0 1 0 -15.338 4.551l14.879 50.143a10.406 10.406 0 0 0 9.974 7.491h.057a10.4 10.4 0 0 0 10-7.388l15.444-50.167a8 8 0 0 0 -5.291-10z" fill="#f4991e"/><path d="m289.23 414.045a8 8 0 0 0 16-.163v-.949a14.905 14.905 0 0 0 -14.888-14.888h-18.669a14.905 14.905 0 0 0 -14.888 14.888v12.179a14.905 14.905 0 0 0 14.888 14.888h17.556v9.955h-16.473a8 8 0 0 0 -15.971.689v.752a13.53 13.53 0 0 0 3.064 9.808c1.849 2.167 5.333 4.751 11.425 4.751h19.067a14.905 14.905 0 0 0 14.888-14.888v-12.179a14.905 14.905 0 0 0 -14.888-14.888h-17.556v-9.955z" fill="#f4991e"/><path d="m488 368h-133.02a8 8 0 0 0 -8 8v48h-19.221a8 8 0 0 0 0 16h19.221v48a8 8 0 0 0 8 8h133.02a8 8 0 0 0 8-8v-112a8 8 0 0 0 -8-8zm-8 112h-117.02v-96h117.02z" fill="#5f913f"/><path d="m184.241 424h-19.221v-48a8 8 0 0 0 -8-8h-133.02a8 8 0 0 0 -8 8v112a8 8 0 0 0 8 8h133.02a8 8 0 0 0 8-8v-48h19.221a8 8 0 0 0 0-16zm-35.221 56h-117.02v-96h117.02z" fill="#5f913f"/><path d="m193.285 234.535a7.935 7.935 0 0 1 -4.4-1.329c-.659-.437-16.324-10.974-31.8-35.074-14.027-21.85-30.75-59.748-30.75-116.214 0-27.428 10.226-42.932 18.806-51.108a52.6 52.6 0 0 1 35.911-14.5c19.633 0 35.606 14.136 35.606 31.51a28.307 28.307 0 0 1 -3.031 12.761l-.038.081c-3.584 7.4-9.752 10.585-14.255 12.907-4.468 2.3-5.667 3.152-6.23 5.167-.861 3.08-.092 4.419.16 4.859 1.2 2.087 4.3 3.3 4.821 3.439a8 8 0 0 1 -4.063 15.476c-1.006-.264-9.97-2.817-14.637-10.954-1.985-3.456-3.885-9.244-1.685-17.123 2.517-9 9.331-12.516 14.307-15.081 3.714-1.915 5.9-3.131 7.116-5.518.045-.1.093-.2.142-.291a12.494 12.494 0 0 0 1.4-5.72c0-8.552-8.8-15.51-19.606-15.51a36.513 36.513 0 0 0 -24.873 10.08c-9.186 8.754-13.847 22.053-13.847 39.525 0 52.084 15.069 86.816 27.712 106.782 13.678 21.6 27.557 31.091 27.7 31.184a8.005 8.005 0 0 1 -4.462 14.651z" fill="#f9b534"/><path d="m318.715 234.535a7.935 7.935 0 0 0 4.4-1.329c.659-.437 16.324-10.974 31.8-35.074 14.027-21.85 30.75-59.748 30.75-116.214 0-27.428-10.226-42.932-18.806-51.108a52.6 52.6 0 0 0 -35.911-14.5c-19.633 0-35.606 14.136-35.606 31.51a28.307 28.307 0 0 0 3.031 12.761l.038.081c3.584 7.4 9.752 10.585 14.255 12.907 4.468 2.3 5.667 3.152 6.23 5.167.861 3.08.092 4.419-.16 4.859-1.2 2.087-4.3 3.3-4.821 3.439a8 8 0 0 0 4.063 15.476c1.006-.264 9.97-2.817 14.637-10.954 1.985-3.456 3.885-9.244 1.685-17.123-2.517-9-9.331-12.516-14.307-15.081-3.714-1.915-5.9-3.131-7.116-5.518-.045-.1-.093-.2-.142-.291a12.494 12.494 0 0 1 -1.4-5.72c0-8.552 8.8-15.51 19.606-15.51a36.513 36.513 0 0 1 24.873 10.08c9.186 8.754 13.844 22.053 13.844 39.525 0 52.084-15.069 86.816-27.712 106.782-13.678 21.6-27.557 31.091-27.7 31.184a8.005 8.005 0 0 0 4.462 14.651z" fill="#f9b534"/><path d="m278.2 299.9s17.4-30.529 25.137-47.19c28.886-62.213 31.7-113.093 31.7-113.093a37.272 37.272 0 0 1 -16.737-11.705 16.594 16.594 0 0 1 -2.359-17.7v-15.437h-119.884v15.433a16.593 16.593 0 0 1 -2.358 17.7 37.272 37.272 0 0 1 -16.734 11.709s2.811 50.88 31.7 113.093c7.735 16.665 25.135 47.19 25.135 47.19l-7.1 16.537-29.306 10v17.872h117.217v-17.868l-29.306-10z" fill="#f4991e"/><circle cx="256.014" cy="169.326" fill="#f7a41c" r="28"/><path d="m256.014 141.326a27.955 27.955 0 0 0 -8.66 1.372 28 28 0 0 0 26.2 48.445 28 28 0 0 0 -17.542-49.817z" fill="#f9b534"/><circle cx="256.014" cy="48" fill="#f7a41c" r="16"/><g fill="#f9b534"><path d="m256 64-59.943 30.775h119.885z"/><path d="m281.5 307.573-3.3-7.673s1.886-3.31 4.685-8.331h-53.772c2.8 5.021 4.686 8.331 4.686 8.331l-3.3 7.669z"/></g></svg>