<svg id="Capa_1" enable-background="new 0 0 512 512" height="512" viewBox="0 0 512 512" width="512" xmlns="http://www.w3.org/2000/svg"><g><path d="m305.27 92.844c-90.4 90.4-256.87 302.238-270.678 36.139-.71-13.681-20.1-15.432-23.292-2.109-32.688 136.463-.922 291.559 181.238 291.559 128.431 0 211.705-82.035 283.996-154.326z" fill="#e26e7e"/><path d="m234.275 166.521c-3.337 44.129 11.825 89.409 45.499 123.083 33.125 33.125 77.297 48.373 120.601 45.77 27.388-22.63 52.369-47.475 76.16-71.266l-171.265-171.264c-20.613 20.614-45.183 47.541-70.995 73.677z" fill="#d9495d"/><g fill="#e26e7e"><path d="m119.397 193.234c-2.596 0-5.119-1.349-6.507-3.759-2.066-3.59-.832-8.176 2.758-10.242 20.162-11.606 40.899-27.936 61.638-48.535 2.938-2.918 7.686-2.903 10.606.036 2.919 2.939 2.903 7.688-.036 10.606-21.66 21.515-43.437 38.638-64.724 50.893-1.18.678-2.466 1.001-3.735 1.001z"/><path d="m308.959 454.622c-3.298 0-6.321-2.193-7.23-5.528-1.09-3.996 1.266-8.119 5.262-9.209 16.59-4.524 57.026-25.731 70.199-35.012 3.387-2.385 8.066-1.572 10.451 1.813 2.385 3.387 1.574 8.065-1.813 10.451-12.81 9.023-55.56 31.947-74.891 37.219-.661.18-1.325.266-1.978.266z"/></g><path d="m308.605 312.405c1.614-17.904-31.568-61.34-59.212-65.561-18.803 22.307-41.844 45.355-69.371 64.282-11.761 8.087-6.017 26.527 8.255 26.708 32.018.406 74.381-4.667 120.328-25.429z" fill="#f5ea72"/><g><path d="m308.964 164.274c-9 10.859-28.493 45.701-59.57 82.57 7.453 15.463 17.573 29.952 30.38 42.76 8.89 8.89 18.58 16.485 28.832 22.802 26.665-12.048 54.536-29.376 82.297-53.994z" fill="#ebca5f"/><path d="m485.063 254.631c-4.37-24.051 7.368-40.432 22.783-44.754h.033c8.732-32.652 3.585-68.24-15.438-97.429h-.011c-24.36-.928-34.632-12.646-35.502-35.502v-.011c-29.189-19.022-64.777-24.17-97.429-15.438v.033c-4.321 15.415-20.702 27.153-44.753 22.783h-.007c-3.267 2.649-6.43 5.49-9.47 8.53-22.051 22.05-33.815 50.489-35.304 79.359l.005.003c15.296 15.663 19.351 33.529 7.851 49.601l-.023.022c5.897 15.409 15.05 29.858 27.47 42.278s26.869 21.573 42.279 27.47l.022-.023c16.072-11.5 33.939-7.445 49.601 7.851l.003.006c28.87-1.488 57.309-13.253 79.359-35.304 3.04-3.04 5.881-6.203 8.53-9.47z" fill="#efedff"/><g fill="#d4d4ff"><path d="m407.947 168.931c-1.919 0-3.839-.732-5.304-2.196-2.929-2.93-2.929-7.678 0-10.607l50.824-50.824c2.93-2.928 7.678-2.928 10.607 0 2.929 2.93 2.929 7.678 0 10.607l-50.824 50.824c-1.464 1.463-3.384 2.196-5.303 2.196z"/><path d="m379.964 164.499c-2.73 0-5.363-1.497-6.689-4.097l-32.631-64.041c-1.881-3.691-.413-8.207 3.277-10.088 3.692-1.879 8.207-.412 10.088 3.277l32.631 64.041c1.881 3.691.413 8.207-3.277 10.088-1.09.556-2.254.82-3.399.82z"/><path d="m296.094 200.992c-3.625 0-6.813-2.634-7.398-6.328-.648-4.091 2.143-7.933 6.234-8.58l70.99-11.244c4.082-.648 7.933 2.144 8.58 6.234.648 4.091-2.143 7.933-6.234 8.58l-70.99 11.244c-.397.064-.793.094-1.182.094z"/><path d="m476.416 229.553c-1.145 0-2.309-.264-3.399-.819l-64.041-32.631c-3.69-1.881-5.158-6.396-3.277-10.088 1.881-3.69 6.398-5.158 10.088-3.277l64.041 32.631c3.691 1.881 5.158 6.396 3.277 10.088-1.326 2.599-3.958 4.096-6.689 4.096z"/><path d="m375.897 280.776c-.39 0-.784-.03-1.182-.094-4.092-.647-6.883-4.489-6.234-8.58l11.243-70.99c.648-4.091 4.487-6.887 8.58-6.234 4.092.648 6.883 4.489 6.234 8.58l-11.243 70.99c-.585 3.695-3.773 6.328-7.398 6.328z"/></g><g fill="#6171a3"><path d="m406.876 153.296-23.384-3.704c-4.739-.751-9.422 1.636-11.6 5.911l-10.749 21.096c-2.178 4.275-1.356 9.467 2.037 12.859l16.741 16.742c3.393 3.393 8.584 4.215 12.859 2.037l21.096-10.749c4.275-2.178 6.661-6.861 5.911-11.6l-3.704-23.385c-.752-4.74-4.468-8.456-9.207-9.207z"/><path d="m456.929 76.947-13.216 6.734c-4.275 2.178-6.661 6.862-5.911 11.601l3.704 23.385c.751 4.739 4.467 8.456 9.206 9.206l23.385 3.704c4.739.75 9.422-1.636 11.6-5.911l6.734-13.216c-4.521-6.936-9.81-13.517-15.897-19.604-6.088-6.089-12.669-11.379-19.605-15.899z"/><path d="m372.006 84.86c2.178-4.275 1.356-9.466-2.037-12.859l-10.469-10.469c-15.987 4.276-31.272 11.853-44.753 22.783l2.319 14.642c.751 4.739 4.467 8.456 9.206 9.206l23.385 3.704c4.739.75 9.422-1.636 11.6-5.911z"/><path d="m314.807 197.119c2.178-4.275 1.356-9.466-2.037-12.859l-16.741-16.741c-3.393-3.393-8.584-4.215-12.859-2.037l-13.198 6.725c-.865 16.782 1.768 33.698 7.851 49.601l14.635 2.318c4.739.75 9.422-1.636 11.6-5.911z"/><path d="m484.518 197.372c4.275-2.178 9.466-1.356 12.859 2.037l10.469 10.469c-4.276 15.987-11.853 31.272-22.783 44.753l-14.642-2.319c-4.739-.751-8.456-4.467-9.206-9.206l-3.704-23.385c-.75-4.739 1.636-9.422 5.911-11.6z"/><path d="m372.259 254.571c4.275-2.178 9.466-1.356 12.859 2.036l16.741 16.742c3.393 3.393 4.215 8.584 2.037 12.859l-6.725 13.197c-16.781.865-33.698-1.768-49.601-7.851l-2.318-14.635c-.75-4.739 1.636-9.422 5.911-11.6z"/></g></g></g></svg>