<svg id="Capa_1" enable-background="new 0 0 512 512" height="512" viewBox="0 0 512 512" width="512" xmlns="http://www.w3.org/2000/svg"><g><path d="m340.572 391.807h-300.055v60.64c0 32.891 26.663 59.554 59.554 59.554h180.948c32.891 0 59.554-26.663 59.554-59.554v-60.64z" fill="#6171a3"/><path d="m295.575 436.804h-210.06c-24.851 0-44.997-20.146-44.997-44.997v-311.091c0-32.89 26.663-59.554 59.554-59.554h180.948c32.891 0 59.554 26.663 59.554 59.554v311.091c-.002 24.851-20.148 44.997-44.999 44.997z" fill="#79ce6f"/><path d="m281.019 21.162h-66.168c-25.669 29.368-41.245 67.772-41.245 109.749 0 92.065 74.901 166.966 166.967 166.966v-217.161c-.001-32.891-26.664-59.554-59.554-59.554z" fill="#4dc176"/><path d="m178.831 172.424h-29.542c-6.467 0-12.669 2.569-17.242 7.142l-36.693 36.694c-4.796 4.796-1.399 12.996 5.383 12.996h104.995c4.654-17.948-1.765-42.445-26.901-56.832z" fill="#e26e7e"/><path d="m185.621 68.734h-36.332c-6.467 0-12.669 2.569-17.242 7.142l-36.693 36.693c-4.796 4.796-1.399 12.996 5.383 12.996h72.963c14.086-9.713 20.553-38.857 11.921-56.831z" fill="#f5ea72"/><g><path d="m173.7 125.565h100.548v-56.831h-88.628c-7.111 17.661-11.287 36.806-11.92 56.831z" fill="#ebca5f"/><path d="m205.732 229.256h68.516v-56.831h-95.417c5.335 20.773 14.585 39.99 26.901 56.831z" fill="#d9495d"/><path d="m393.886 250.467c5.575-18.439 21.958-36.302 43.915-31.913h.008c20.929-23.205 33.673-53.935 33.673-87.644 0-4.649-.246-9.239-.719-13.763l-.005-.001c-13.588-15.385-19.817-35.38-16.794-51.623l.029-.019c-18.282-31.635-49.42-54.905-86.272-62.678l-.013.007c-8.619 10.585-45.655 10.585-54.274 0l-.013-.007c-36.852 7.773-67.989 31.043-86.272 62.678l.029.019c3.023 16.243-3.206 36.238-16.794 51.623l-.005.001c-.473 4.524-.719 9.114-.719 13.763 0 33.709 12.745 64.439 33.673 87.644h.008c21.958-4.389 38.34 13.474 43.915 31.913v.034c16.286 7.271 34.326 11.319 53.314 11.319s37.028-4.048 53.314-11.319v-.034z" fill="#efedff"/><g fill="#d4d4ff"><path d="m340.572 112.352c-4.142 0-7.5-3.357-7.5-7.5v-77.697c0-4.143 3.358-7.5 7.5-7.5s7.5 3.357 7.5 7.5v77.696c0 4.143-3.358 7.501-7.5 7.501z"/><path d="m315.79 130.359c-.768 0-1.549-.119-2.319-.369l-73.895-24.01c-3.939-1.28-6.095-5.511-4.815-9.45 1.28-3.94 5.508-6.094 9.451-4.815l73.894 24.01c3.939 1.28 6.095 5.511 4.815 9.45-1.029 3.17-3.969 5.184-7.131 5.184z"/><path d="m279.58 222.351c-1.528 0-3.071-.466-4.402-1.434-3.351-2.435-4.094-7.125-1.659-10.476l45.669-62.857c2.434-3.351 7.124-4.096 10.476-1.659 3.351 2.435 4.094 7.125 1.659 10.476l-45.669 62.857c-1.468 2.019-3.755 3.093-6.074 3.093z"/><path d="m365.354 130.359c-3.162 0-6.102-2.015-7.131-5.185-1.28-3.939.876-8.17 4.815-9.45l73.894-24.01c3.94-1.282 8.171.876 9.451 4.815s-.876 8.17-4.815 9.45l-73.895 24.01c-.77.251-1.551.37-2.319.37z"/><path d="m401.565 222.351c-2.319 0-4.607-1.072-6.074-3.093l-45.669-62.858c-2.435-3.351-1.692-8.041 1.659-10.476 3.351-2.436 8.042-1.692 10.476 1.659l45.669 62.857c2.435 3.351 1.692 8.041-1.659 10.476-1.332.969-2.874 1.435-4.402 1.435z"/></g><g fill="#6171a3"><path d="m333.535 99.453-20.706 15.044c-4.196 3.049-5.952 8.452-4.349 13.385l7.909 24.341c1.603 4.933 6.199 8.273 11.386 8.273h25.594c5.187 0 9.784-3.34 11.386-8.273l7.909-24.341c1.603-4.933-.153-10.337-4.349-13.385l-20.706-15.044c-4.196-3.048-9.877-3.048-14.074 0z"/><path d="m313.435 2.834-4.955 15.249c-1.603 4.933.153 10.337 4.349 13.385l20.706 15.044c4.196 3.048 9.878 3.048 14.074 0l20.706-15.044c4.196-3.049 5.952-8.453 4.349-13.385l-4.955-15.249c-8.757-1.847-17.83-2.834-27.137-2.834-9.306 0-18.379.987-27.137 2.834z"/><path d="m254.57 73.796c-1.603-4.933-6.199-8.272-11.386-8.272h-16.004c-8.951 15.489-14.844 32.964-16.794 51.623l12.964 9.419c4.196 3.049 9.878 3.049 14.074 0l20.706-15.044c4.196-3.049 5.952-8.452 4.349-13.385z"/><path d="m296.657 203.326c-1.602-4.933-6.199-8.273-11.386-8.273h-25.594c-5.187 0-9.784 3.34-11.386 8.273l-4.948 15.228c12.166 13.489 27.11 24.407 43.915 31.913l12.959-9.415c4.196-3.049 5.952-8.453 4.349-13.385z"/><path d="m426.574 73.796c1.602-4.933 6.199-8.272 11.386-8.272h16.005c8.951 15.489 14.844 32.964 16.794 51.623l-12.964 9.419c-4.196 3.049-9.878 3.049-14.074 0l-20.706-15.044c-4.196-3.049-5.952-8.452-4.349-13.385z"/><path d="m384.487 203.326c1.602-4.933 6.199-8.273 11.386-8.273h25.593c5.187 0 9.784 3.34 11.387 8.273l4.948 15.228c-12.166 13.489-27.11 24.407-43.915 31.913l-12.958-9.415c-4.196-3.049-5.952-8.453-4.349-13.385z"/></g></g><g fill="#efedff"><path d="m139.04 481.902h-26.538c-4.142 0-7.5-3.357-7.5-7.5s3.358-7.5 7.5-7.5h26.538c4.142 0 7.5 3.357 7.5 7.5s-3.357 7.5-7.5 7.5z"/><path d="m268.588 481.902h-26.539c-4.142 0-7.5-3.357-7.5-7.5s3.358-7.5 7.5-7.5h26.539c4.142 0 7.5 3.357 7.5 7.5s-3.358 7.5-7.5 7.5z"/></g><g><g><ellipse cx="108.496" cy="360.347" fill="#fff" rx="30.274" ry="24.109"/><ellipse cx="272.593" cy="360.347" fill="#fff" rx="30.274" ry="24.109"/><path d="m214.954 341.823c0-15.085-10.928-16.502-24.409-16.502-13.48 0-24.409 1.417-24.409 16.502s10.928 27.313 24.409 27.313c13.48 0 24.409-12.228 24.409-27.313z" fill="#565e75"/></g><g fill="#565e75"><path d="m113.557 339.065c-4.142 0-7.5-3.358-7.5-7.5v-12.362c0-4.142 3.358-7.5 7.5-7.5s7.5 3.358 7.5 7.5v12.362c0 4.142-3.358 7.5-7.5 7.5z"/><path d="m267.533 339.065c-4.142 0-7.5-3.358-7.5-7.5v-12.362c0-4.142 3.358-7.5 7.5-7.5s7.5 3.358 7.5 7.5v12.362c0 4.142-3.358 7.5-7.5 7.5z"/></g></g></g></svg>