<svg enable-background="new 0 0 256 256" height="512" viewBox="0 0 256 256" width="512" xmlns="http://www.w3.org/2000/svg"><g id="Layer_50"><g><g><g><path d="m110.467 7.414c-3.754-.699-6.713-3.598-7.427-7.276-.036-.185-.294-.185-.329 0-.714 3.678-3.673 6.577-7.427 7.276-.188.035-.188.288 0 .323 3.755.699 6.713 3.598 7.427 7.276.036.185.294.185.329 0 .714-3.678 3.673-6.577 7.427-7.276.188-.035.188-.288 0-.323z" fill="#70d6f9"/></g></g><g><g><path d="m24.463 178.457c-2.763-.515-4.941-2.648-5.466-5.355-.026-.136-.216-.136-.242 0-.525 2.707-2.703 4.84-5.466 5.355-.139.026-.139.212 0 .238 2.763.515 4.941 2.648 5.466 5.355.026.136.216.136.242 0 .525-2.707 2.703-4.841 5.466-5.355.138-.026.138-.212 0-.238z" fill="#87d147"/></g></g><g><g><path d="m224.206 92.737h-2.33v-2.33c0-1.744-1.414-3.157-3.157-3.157s-3.157 1.413-3.157 3.157v2.33h-2.329c-1.744 0-3.157 1.413-3.157 3.157s1.413 3.157 3.157 3.157h2.329v2.33c0 1.744 1.413 3.157 3.157 3.157s3.157-1.413 3.157-3.157v-2.33h2.33c1.744 0 3.157-1.413 3.157-3.157s-1.413-3.157-3.157-3.157z" fill="#f5c84c"/></g></g><g><g><circle cx="236.927" cy="117.627" fill="#70d6f9" r="3.377"/></g></g><g><g><circle cx="73.927" cy="17.627" fill="#fc657e" r="3.377"/></g></g><g><g><path d="m178.946 202.331c-.223-4-3.021-7.391-6.906-8.369l-19.242-4.03c-1.334-.336-2.629-.812-3.863-1.42l-5.52-2.722c-2.12-1.045-3.462-3.204-3.462-5.567v-5.073c-3.284 1.788-7.042 2.806-11.025 2.806-3.715 0-7.229-.89-10.351-2.459v4.726c0 2.363-1.342 4.522-3.462 5.567l-5.52 2.722c-1.234.608-2.529 1.084-3.863 1.42l-19.242 4.03c-3.885.978-6.683 4.369-6.906 8.369l-1.764 48.482c-.081 1.459 1.08 2.687 2.541 2.687h97.808c1.461 0 2.622-1.228 2.541-2.687z" fill="#dae6f1"/></g></g><g><g><path d="m238.7 206.705c-.204-3.658-2.763-6.759-6.316-7.654l-17.597-3.685c-1.22-.307-2.404-.742-3.532-1.299l-5.048-2.489c-1.939-.956-3.166-2.93-3.166-5.091v-4.639c-3.004 1.635-6.44 2.566-10.083 2.566-3.397 0-6.612-.814-9.466-2.249v4.322c0 2.161-1.228 4.135-3.166 5.091l-5.048 2.489c-.449.221-.912.408-1.377.591 2.892 1.446 4.861 4.346 5.047 7.673l1.764 48.482c.081 1.459-1.08 2.687-2.541 2.687h59.82c1.336 0 2.398-1.123 2.324-2.457z" fill="#dae6f1"/></g></g><g><g><path d="m84.631 194.658c-.465-.183-.928-.37-1.377-.591l-5.048-2.489c-1.939-.956-3.166-2.93-3.166-5.091v-4.639c-3.004 1.635-6.44 2.566-10.083 2.566-3.397 0-6.612-.814-9.466-2.249v4.322c0 2.161-1.228 4.135-3.166 5.091l-5.048 2.489c-1.128.556-2.313.992-3.532 1.299l-17.597 3.685c-3.553.894-6.112 3.995-6.316 7.654l-1.614 44.338c-.074 1.334.988 2.457 2.324 2.457h59.82c-1.461 0-2.622-1.228-2.541-2.687l1.764-48.482c.185-3.326 2.155-6.227 5.046-7.673z" fill="#dae6f1"/></g></g><g><g><path d="m239.714 234.584h-19.224v18.916h17.499c1.336 0 2.398-1.123 2.324-2.457z" fill="#f9d0b4"/></g></g><g><g><path d="m239.066 216.769h-7.192c-2.447 0-4.431 1.984-4.431 4.431s1.984 4.431 4.431 4.431h7.514z" fill="#70d6f9"/></g></g><g><g><path d="m215.322 220.742c-.146-.543-.628-.927-1.19-.927h-10.585c-.562 0-1.044.385-1.19.927-.268.998-.413 2.046-.413 3.129 0 4.601 2.561 8.595 6.329 10.662.35.192.782.192 1.132 0 3.768-2.067 6.329-6.061 6.329-10.662.001-1.083-.144-2.131-.412-3.129z" fill="#f98fa6"/></g></g><g><g><path d="m211.254 194.067-5.048-2.489c-1.939-.956-3.166-2.93-3.166-5.091v-4.639c-3.004 1.635-6.44 2.566-10.083 2.566-3.397 0-6.611-.814-9.466-2.249v4.322c0 2.161-1.228 4.135-3.166 5.091l-5.048 2.489c-.446.22-.903.415-1.365.596 2.885 1.448 4.85 4.345 5.035 7.667l.026.723c3.214 3.978 7.292 7.312 12.074 9.717.695.35 1.456.524 2.218.524s1.524-.174 2.218-.523c7.852-3.948 13.821-10.394 17.152-18.101-.468-.183-.93-.38-1.381-.603z" fill="#f9d0b4"/></g></g><g><g><path d="m203.547 219.814h5.26v-18.391c-3.378 4.702-7.901 8.621-13.324 11.348-.694.349-1.456.523-2.218.523s-1.524-.174-2.218-.524c-4.781-2.404-8.861-5.737-12.074-9.714l1.738 47.756c.081 1.459-1.08 2.687-2.541 2.687h30.638v-18.828c-.185-.005-.369-.049-.534-.14-3.768-2.067-6.329-6.061-6.329-10.662 0-1.083.145-2.131.413-3.129.144-.541.627-.926 1.189-.926z" fill="#fc657e"/></g></g><g><g><path d="m148.935 188.512-5.52-2.722c-2.12-1.045-3.462-3.204-3.462-5.567v-5.073c-3.284 1.788-7.042 2.806-11.025 2.806-3.715 0-7.229-.89-10.351-2.459v4.726c0 2.363-1.342 4.522-3.462 5.567l-5.52 2.722c-.493.243-.999.459-1.51.66 3.642 8.427 10.168 15.475 18.755 19.792.759.382 1.592.573 2.425.573s1.666-.191 2.425-.573c8.586-4.317 15.113-11.365 18.755-19.793-.511-.199-1.017-.415-1.51-.659z" fill="#f9d0b4"/></g></g><g><g><path d="m180.056 232.816h-21.021v20.684h19.135c1.461 0 2.622-1.228 2.541-2.687z" fill="#f9d0b4"/></g></g><g><g><path d="m179.347 213.336h-7.864c-2.676 0-4.845 2.169-4.845 4.845s2.169 4.845 4.845 4.845h8.216z" fill="#70d6f9"/></g></g><g><g><path d="m78.475 232.816-.655 17.998c-.081 1.459 1.08 2.687 2.541 2.687h19.135v-20.684h-21.021z" fill="#f9d0b4"/></g></g><g><g><path d="m80.621 207.607c-.42 0-.829.041-1.232.1l-.6 16.499c.591.132 1.202.206 1.833.206 4.641 0 8.403-3.762 8.403-8.403s-3.763-8.402-8.404-8.402z" fill="#f5c84c"/></g></g><g><g><path d="m140.508 216.666h5.752v-20.109c-3.693 5.141-8.639 9.426-14.569 12.408-.759.382-1.592.573-2.425.573s-1.666-.191-2.425-.573c-5.939-2.986-10.89-7.28-14.585-12.432v56.967h34.005v-20.587c-.202-.006-.403-.054-.584-.153-4.121-2.26-6.921-6.627-6.921-11.658 0-1.184.159-2.33.451-3.421.159-.594.686-1.015 1.301-1.015z" fill="#fc657e"/></g></g><g><g><path d="m153.384 217.68c-.159-.594-.687-1.014-1.301-1.014h-11.574c-.615 0-1.142.421-1.301 1.014-.293 1.091-.451 2.237-.451 3.421 0 5.032 2.8 9.398 6.921 11.658.382.21.855.21 1.238 0 4.121-2.26 6.921-6.627 6.921-11.658-.002-1.184-.161-2.33-.453-3.421z" fill="#f98fa6"/></g></g><g><g><path d="m83.254 194.067-5.048-2.489c-1.939-.956-3.166-2.93-3.166-5.091v-4.639c-3.004 1.635-6.44 2.566-10.083 2.566-3.397 0-6.612-.814-9.466-2.249v4.322c0 2.161-1.228 4.135-3.166 5.091l-5.048 2.489c-.451.222-.913.42-1.381.603 3.331 7.707 9.299 14.152 17.151 18.1.694.35 1.456.524 2.218.524s1.524-.174 2.218-.523c4.782-2.405 8.86-5.74 12.075-9.717l.026-.723c.185-3.323 2.15-6.219 5.035-7.668-.462-.181-.919-.376-1.365-.596z" fill="#f9d0b4"/></g></g><g><g><path d="m18.816 234.584-.599 16.459c-.074 1.334.988 2.457 2.324 2.457h17.499v-18.916z" fill="#f9d0b4"/></g></g><g><g><path d="m20.779 211.53c-.384 0-.758.037-1.127.092l-.549 15.089c.54.12 1.099.189 1.676.189 4.244 0 7.685-3.44 7.685-7.685s-3.441-7.685-7.685-7.685z" fill="#f5c84c"/></g></g><g><g><path d="m77.82 250.813 1.738-47.756c-3.214 3.977-7.293 7.31-12.075 9.714-.694.349-1.456.523-2.218.523s-1.524-.174-2.218-.524c-5.431-2.731-9.959-6.657-13.339-11.369v52.099h30.653c-1.461 0-2.622-1.228-2.541-2.687z" fill="#fc657e"/></g></g><g><g><path d="m153.616 137.076c-.527 0-1.044.044-1.548.125.035.518.059 1.039.059 1.565v15.99c0 .523-.024 1.041-.058 1.556.505.081 1.019.135 1.547.135 5.349 0 9.686-4.336 9.686-9.686s-4.337-9.685-9.686-9.685z" fill="#f9d0b4"/></g></g><g><g><path d="m105.729 138.767c0-.526.024-1.047.059-1.565-.504-.081-1.021-.125-1.548-.125-5.349 0-9.686 4.337-9.686 9.686s4.337 9.686 9.686 9.686c.528 0 1.042-.054 1.547-.135-.035-.515-.058-1.032-.058-1.556z" fill="#f9d0b4"/></g></g><g><g><path d="m152.124 133.729c-.013-.658-.54-1.2-1.198-1.219-9.638-.283-14.716-4.102-16.667-6.015-.533-.522-1.392-.467-1.857.117-8.473 10.656-20.973 9.152-25.176 8.272-.764-.16-1.496.416-1.497 1.196v18.677c0 12.76 10.44 23.199 23.199 23.199 12.76 0 23.199-10.44 23.199-23.199v-20.666c0-.121-.001-.242-.003-.362z" fill="#f9d0b4"/></g></g><g><g><path d="m147.082 109.12c-2.472 0-4.783.698-6.77 1.89-2.32-3.872-6.547-6.486-11.365-6.486h-6.805c-13.171 0-23.947 10.776-23.947 23.946v10.73c1.657-1.326 3.756-2.124 6.043-2.124.507 0 1.003.043 1.489.118v-1.115c.001-.78.734-1.356 1.497-1.196 4.203.88 16.703 2.383 25.176-8.272.464-.584 1.324-.639 1.857-.117 1.951 1.913 7.029 5.732 16.667 6.015.658.019 1.185.562 1.198 1.219.002.121.004.242.004.363v3.103c.486-.075.982-.118 1.489-.118 2.611 0 4.976 1.038 6.718 2.718v-17.422c.001-7.288-5.962-13.252-13.251-13.252z" fill="#5b5d60"/></g></g><g><g><path d="m215.534 147.028c-.482 0-.954.04-1.416.115.032.474.054.95.054 1.432v14.623c0 .479-.022.952-.053 1.423.462.074.932.123 1.415.123 4.892 0 8.858-3.966 8.858-8.858s-3.965-8.858-8.858-8.858z" fill="#f9d0b4"/></g></g><g><g><path d="m171.74 148.574c0-.481.022-.958.054-1.432-.461-.074-.934-.115-1.416-.115-4.892 0-8.858 3.966-8.858 8.858s3.966 8.858 8.858 8.858c.483 0 .953-.049 1.415-.123-.032-.471-.053-.944-.053-1.423z" fill="#f9d0b4"/></g></g><g><g><path d="m214.17 143.966c-.012-.602-.494-1.098-1.095-1.115-8.814-.259-13.458-3.752-15.242-5.501-.487-.478-1.273-.427-1.698.107-7.749 9.745-19.181 8.37-23.024 7.565-.698-.146-1.369.38-1.369 1.094v17.081c0 11.669 9.547 21.216 21.216 21.216s21.216-9.547 21.216-21.216v-18.899c-.001-.111-.002-.221-.004-.332z" fill="#f9d0b4"/></g></g><g><g><path d="m209.559 121.462c-2.261 0-4.375.639-6.191 1.728-2.122-3.541-5.987-5.932-10.393-5.932h-6.223c-12.045 0-21.9 9.855-21.9 21.9v9.813c1.516-1.213 3.435-1.942 5.527-1.942.464 0 .917.039 1.361.108v-1.02c.001-.714.671-1.24 1.369-1.094 3.844.804 15.275 2.179 23.024-7.566.425-.534 1.211-.584 1.698-.107 1.784 1.749 6.428 5.242 15.242 5.501.602.018 1.083.513 1.095 1.115.002.11.003.221.003.332v2.838c.444-.069.898-.108 1.361-.108 2.388 0 4.551.949 6.144 2.486v-15.933c.002-6.666-5.451-12.119-12.117-12.119z" fill="#5b5d60"/></g></g><g><g><path d="m87.534 147.028c-.482 0-.954.04-1.416.115.032.474.054.95.054 1.432v14.623c0 .479-.022.952-.053 1.423.462.074.932.123 1.415.123 4.892 0 8.858-3.966 8.858-8.858s-3.965-8.858-8.858-8.858z" fill="#f9d0b4"/></g></g><g><g><path d="m43.74 148.574c0-.481.022-.958.054-1.432-.461-.074-.934-.115-1.416-.115-4.892 0-8.858 3.966-8.858 8.858s3.966 8.858 8.858 8.858c.483 0 .953-.049 1.415-.123-.032-.471-.053-.944-.053-1.423z" fill="#f9d0b4"/></g></g><g><g><path d="m86.17 143.966c-.012-.602-.494-1.098-1.095-1.115-8.814-.259-13.458-3.752-15.242-5.501-.487-.478-1.273-.427-1.698.107-7.749 9.745-19.181 8.37-23.024 7.565-.698-.146-1.369.38-1.369 1.094v17.081c0 11.669 9.547 21.216 21.216 21.216s21.216-9.547 21.216-21.216v-18.899c-.001-.111-.002-.221-.004-.332z" fill="#f9d0b4"/></g></g><g><g><path d="m81.559 121.462c-2.261 0-4.375.639-6.191 1.728-2.122-3.541-5.987-5.932-10.393-5.932h-6.223c-12.045 0-21.9 9.855-21.9 21.9v9.813c1.516-1.213 3.435-1.942 5.527-1.942.464 0 .917.039 1.361.108v-1.02c.001-.714.671-1.24 1.369-1.094 3.844.804 15.275 2.179 23.024-7.566.425-.534 1.211-.584 1.698-.107 1.784 1.749 6.428 5.242 15.242 5.501.602.018 1.083.513 1.095 1.115.002.11.003.221.003.332v2.838c.444-.069.898-.108 1.361-.108 2.388 0 4.551.949 6.144 2.486v-15.933c.002-6.666-5.451-12.119-12.117-12.119z" fill="#5b5d60"/></g></g><g><g><circle cx="120.021" cy="147.978" r="3.07"/></g></g><g><g><circle cx="138.12" cy="147.978" r="3.07"/></g></g><g><g><path d="m184.812 154.19c-1.551 0-2.808 1.257-2.808 2.808s1.257 2.808 2.808 2.808 2.808-1.257 2.808-2.808c-.001-1.551-1.258-2.808-2.808-2.808z"/></g></g><g><g><path d="m201.363 154.19c-1.551 0-2.808 1.257-2.808 2.808s1.257 2.808 2.808 2.808 2.808-1.257 2.808-2.808-1.257-2.808-2.808-2.808z"/></g></g><g><g><path d="m56.812 154.19c-1.551 0-2.808 1.257-2.808 2.808s1.257 2.808 2.808 2.808 2.808-1.257 2.808-2.808c-.001-1.551-1.258-2.808-2.808-2.808z"/></g></g><g><g><path d="m73.363 154.19c-1.551 0-2.808 1.257-2.808 2.808s1.257 2.808 2.808 2.808 2.808-1.257 2.808-2.808-1.257-2.808-2.808-2.808z"/></g></g><g><g><path d="m116.647 48.734-17.126-17.126c-2.456-2.457-6.438-2.457-8.894 0-2.455 2.454-2.455 6.439 0 8.893l6.391 6.391h-37.569c-3.473 0-6.289 2.815-6.289 6.289s2.816 6.289 6.289 6.289h37.568l-6.391 6.391c-2.456 2.455-2.455 6.438 0 8.893 2.456 2.457 6.438 2.457 8.894 0l17.127-17.126c1.179-1.179 1.842-2.778 1.842-4.447s-.662-3.268-1.842-4.447z" fill="#fc657e"/></g></g><g><g><path d="m201.998 25.642c-.251-1.575-1.488-2.786-3.079-3.016-12.545-1.807-23.596-5.86-31.116-11.415-1.286-.949-3.013-.949-4.298 0-7.52 5.554-18.571 9.608-31.116 11.415-1.591.229-2.828 1.441-3.079 3.015-4.484 28.203 9.241 56.193 34.629 69.787.537.288 1.126.431 1.715.431s1.178-.144 1.715-.431c25.377-13.586 39.116-41.575 34.629-69.786z" fill="#9be5f9"/></g></g><g><g><path d="m190.835 33.309c-9.505-1.966-18.15-5.149-25.181-9.267-7.032 4.118-15.677 7.301-25.183 9.268-1.034 19.697 8.569 38.567 25.184 49.304 16.614-10.734 26.217-29.602 25.18-49.305z" fill="#edf4fc"/></g></g><g><g><path d="m165.655 24.042c-3.196 1.871-6.738 3.538-10.529 4.997v44.695c3.093 3.344 6.608 6.345 10.53 8.88 3.92-2.533 7.434-5.532 10.526-8.875v-44.7c-3.791-1.459-7.333-3.126-10.527-4.997z" fill="#70d6f9"/></g></g><g><g><path d="m138.104 159.048c-1.144-.773-2.698-.474-3.471.672-2.568 3.798-8.161 3.809-10.735 0-.774-1.146-2.328-1.445-3.471-.672-1.145.773-1.445 2.327-.672 3.471 4.543 6.725 14.462 6.748 19.021 0 .773-1.144.472-2.698-.672-3.471z"/></g></g><g><g><path d="m201.468 166.944c-1.14-.771-2.696-.473-3.471.671-1.065 1.576-2.834 2.517-4.731 2.517-1.898 0-3.667-.941-4.732-2.517-.773-1.144-2.328-1.444-3.471-.671-1.145.773-1.445 2.327-.672 3.471 1.996 2.954 5.313 4.717 8.875 4.717 3.561 0 6.878-1.764 8.874-4.717.773-1.144.473-2.698-.672-3.471z"/></g></g><g><g><path d="m73.468 166.944c-1.141-.771-2.695-.473-3.471.671-1.065 1.576-2.834 2.517-4.731 2.517-1.898 0-3.667-.941-4.732-2.517-.773-1.144-2.328-1.444-3.471-.671-1.145.773-1.445 2.327-.672 3.471 1.996 2.954 5.313 4.717 8.875 4.717 3.561 0 6.878-1.764 8.874-4.717.773-1.144.473-2.698-.672-3.471z"/></g></g><g><g><g><path d="m178.15 251c0-.022-.001-.062-.002-.112 0 .042.001.084.002.112zm63.048-44.386c0-.016-.001-.032-.002-.048-.266-4.777-3.562-8.771-8.201-9.939-.032-.008-.065-.016-.098-.022l-17.547-3.675c-2.47-.631-3.65-1.508-8.038-3.594-1.093-.539-1.771-1.63-1.771-2.849v-3.201c5.602-3.521 9.631-9.316 10.788-16.083 5.893-.41 10.565-5.323 10.565-11.318 0-2.803-1.026-5.367-2.715-7.35v-14.955c0-8.061-6.558-14.619-14.618-14.619-1.848 0-3.68.359-5.396 1.05-2.762-3.285-6.872-5.253-11.188-5.253h-6.223c-11.802 0-21.671 8.423-23.918 19.573v-11.959c0-8.686-7.066-15.751-15.752-15.751-2.047 0-4.076.409-5.971 1.195-2.976-3.619-7.455-5.792-12.163-5.792h-6.806c-14.583 0-26.446 11.864-26.446 26.446v1.454c-1.63-6.294-7.341-10.963-14.137-10.963-1.848 0-3.68.359-5.396 1.05-2.762-3.285-6.872-5.253-11.188-5.253h-6.223c-13.454 0-24.399 10.946-24.399 24.4v8.7c-2.057 2.057-3.331 4.896-3.331 8.028 0 5.995 4.672 10.907 10.564 11.318 1.199 7.012 5.484 12.981 11.406 16.458v2.826c0 1.219-.679 2.311-1.771 2.849-4.389 2.086-5.57 2.963-8.039 3.594l-17.547 3.675c-.032.007-.065.014-.098.022-4.639 1.167-7.935 5.161-8.203 9.987-.113 3.094-1.296 35.621-1.611 44.29-.153 2.762 2.05 5.096 4.819 5.096h217.448c1.321 0 2.6-.55 3.507-1.51.908-.96 1.387-2.267 1.315-3.538-.18-4.889-1.456-39.927-1.616-44.339zm-4.402 16.516h-4.922c-1.064 0-1.931-.866-1.931-1.931s.866-1.931 1.931-1.931h4.781c.004.104.149 4.077.141 3.862zm-25.123-59.933c0 10.479-8.574 18.716-18.716 18.716-10.231 0-18.717-8.361-18.717-18.716.018-15.284-.036-14.095.031-15.436 8.471 1.225 17.007-1.044 22.896-7.653 3.996 3.286 9.256 4.834 14.505 5.178-.037-.304-.001 16.697.001 17.911zm10.22-7.311c0 3.117-2.255 5.718-5.22 6.256v-12.508c.009.002.019.002.028.004 2.921.544 5.192 3.14 5.192 6.248zm-54.54-16.728c0-10.697 8.702-19.4 19.399-19.4h6.223c3.345 0 6.506 1.807 8.249 4.717.709 1.184 2.244 1.568 3.43.859 1.498-.897 3.194-1.372 4.906-1.372 5.304 0 9.618 4.315 9.618 9.619v11.545c-.957-.326-1.836-.453-2.505-.542 0-.101-.003-.605-.002-.505l-.001-.162c-.038-1.942-1.586-3.509-3.522-3.565-4.758-.14-10.212-1.499-13.565-4.788-1.532-1.5-4.046-1.371-5.405.336-6.753 8.493-16.625 7.497-20.554 6.675-1.712-.36-3.338.543-4.027 1.979-.661.047-1.696.236-2.243.387v-5.783zm1.887 10.472v12.512c-2.964-.538-5.219-3.139-5.219-6.256.001-3.148 2.307-5.727 5.219-6.256zm.346 17.573c1.199 7.012 5.484 12.981 11.406 16.458v2.826c0 1.219-.679 2.311-1.771 2.849-2.397 1.175-4.531 2.248-5.314 2.603-1.735-.648-.69-.213-20.544-4.442-1.145-.292-2.262-.704-3.32-1.226-3-1.485-5.265-2.586-5.667-2.808-1.17-.647-1.921-1.896-1.921-3.239v-3.627c6.179-3.84 10.615-10.226 11.833-17.682 1.75-.096 3.401-.556 4.879-1.316.789 5.193 5.1 9.234 10.419 9.604zm7.521 53.323h-5.623c-1.293 0-2.346-1.052-2.346-2.345s1.053-2.345 2.346-2.345h5.452zm-68.834-82.917c9.417 1.431 18.795-1.074 25.235-8.423 2.697 2.271 7.774 5.266 16.119 5.767-.1.02 0 19.704 0 19.804 0 11.501-9.39 20.699-20.699 20.699-11.223 0-20.699-9.162-20.699-20.699.021-17.038-.043-15.692.044-17.148zm52.529 9.153c0 3.62-2.689 6.623-6.175 7.115v-14.222c3.545.507 6.175 3.537 6.175 7.107zm-60.105-18.292c0-11.826 9.621-21.446 21.446-21.446h6.806c3.738 0 7.271 2.02 9.22 5.271.721 1.203 2.266 1.557 3.431.859 1.673-1.003 3.568-1.534 5.483-1.534 5.929 0 10.752 4.823 10.752 10.751v12.956c-.798-.295-2.148-.623-3.207-.71-.038-.1.33-4.491-3.628-4.608-8.915-.261-13.453-3.794-14.989-5.3-1.6-1.57-4.188-1.387-5.564.345-7.466 9.389-18.367 8.29-22.708 7.381-1.815-.38-3.532.624-4.199 2.161-.864.051-1.957.239-2.842.509v-6.635zm2.532 11.191v14.217c-3.485-.494-6.175-3.496-6.175-7.115 0-3.511 2.557-6.586 6.175-7.102zm-4.484 17.963c1.464.744 3.096 1.195 4.824 1.29 1.262 7.724 5.979 14.297 12.508 18.084v3.225c0 1.422-.792 2.696-2.067 3.325-4.796 2.278-6.106 3.251-8.841 3.948-19.849 4.23-18.876 3.818-20.544 4.442-.77-.351-3.508-1.717-5.313-2.603-1.093-.539-1.771-1.63-1.771-2.849v-3.201c5.602-3.521 9.631-9.316 10.788-16.083 5.309-.368 9.615-4.396 10.416-9.578zm-16.946 52.601c2.692.547 4.725 2.933 4.725 5.785 0 3-2.249 5.483-5.148 5.855zm9.934-59.096c3.994 3.529 2.133 10.07-3.06 11.013v-12.508c1.109.306 1.902.469 3.06 1.495zm-50.493 11.013c-2.964-.538-5.219-3.139-5.219-6.256 0-3.202 2.361-5.737 5.219-6.256zm.356-17.587c-.734.052-1.692.234-2.243.387v-5.785c0-10.697 8.702-19.4 19.399-19.4h6.223c3.345 0 6.506 1.807 8.249 4.717.709 1.184 2.244 1.568 3.43.859 1.498-.897 3.194-1.372 4.906-1.372 5.304 0 9.618 4.315 9.618 9.619v11.545c-1.302-.444-2.401-.525-2.505-.542 0-.087-.003-.596-.003-.667-.038-1.942-1.586-3.508-3.522-3.565-4.758-.14-10.212-1.499-13.565-4.788-1.512-1.481-4.03-1.391-5.405.336-6.753 8.493-16.625 7.497-20.554 6.675-1.684-.353-3.326.52-4.028 1.981zm4.644 18.642c.018-15.284-.036-14.095.031-15.436 8.615 1.244 17.081-1.124 22.896-7.653 3.996 3.286 9.256 4.834 14.505 5.178v17.91c0 10.478-8.584 18.716-18.716 18.716-10.23.002-18.716-8.36-18.716-18.715zm-24.179 50.993c2.241.572 3.903 2.607 3.903 5.024 0 2.548-1.847 4.672-4.272 5.104zm13.48 36.81h-14.82l.507-13.916h14.313zm11.667 0h-6.667c0-9.534 0-17.939 0-27.452 0-1.381-1.119-2.5-2.5-2.5s-2.5 1.119-2.5 2.5v8.536h-14.132l.099-2.722c5.276-.376 9.456-4.778 9.456-10.148 0-5.117-3.797-9.353-8.72-10.067l.084-2.303c.144-2.565 1.903-4.712 4.385-5.356 9.044-1.905 16.907-3.514 17.862-3.765.779 1.543 1.659 3.027 2.634 4.446v48.831zm28.042 0c.008-.134.057-.972.067 0zm-.001 0h-23.041v-42.896c2.903 2.813 6.395 5.231 9.715 6.9 2.064 1.04 4.563 1.068 6.684.001 3.007-1.512 6.022-3.596 8.215-5.509-1.3 35.733-1.559 41.177-1.573 41.504zm1.846-48.906c-2.92 3.441-6.454 6.292-10.734 8.444-.668.336-1.521.336-2.19 0-6.25-3.142-11.604-8.288-14.928-14.652l4.188-2.065c5.14-2.533 4.521-7.804 4.561-7.952 2.094.645 4.513 1.046 6.966 1.046 2.652 0 5.2-.444 7.583-1.25v.824c0 3.137 1.747 5.947 4.561 7.333l2.814 1.388c-1.73 1.998-2.671 4.511-2.821 6.884zm19.901 48.906c-4.156-.003-13.763.008-16.64-.011l-.038-.084.567-15.588h16.11v15.683zm12.758 0h-7.758c0-10.52 0-19.768 0-30.251 0-1.381-1.119-2.5-2.5-2.5s-2.5 1.119-2.5 2.5v9.567h-15.928l.125-3.432c5.746-.3 10.331-5.055 10.331-10.874 0-5.55-4.172-10.136-9.542-10.809l.075-2.053s0-.001 0-.002v-.001c.036-.1-.226-5.393 5-6.748 21.817-4.594 18.618-3.86 19.708-4.159.878 1.759 1.879 3.447 2.99 5.059v53.703zm6.467-62.967c1.872-.923 3.301-2.438 4.11-4.26.968-2.182.701-3.95.747-4.548 5.138 1.654 10.903 1.702 16.376-.229v1.227c0 3.15 1.731 6.269 4.856 7.809l4.794 2.364c-3.734 7.26-9.745 12.918-16.536 16.334-.789.397-1.802.404-2.604 0-6.938-3.488-12.884-9.232-16.535-16.334zm27.539 62.967h-29.006v-47.695c3.055 3.033 6.856 5.828 10.963 7.893 2.2 1.105 4.847 1.131 7.097 0 4.141-2.082 7.947-4.898 10.946-7.876v10.844h-3.252c-1.735 0-3.263 1.179-3.715 2.866-1.802 6.698 1.022 13.809 6.967 17.504zm2.552-20.788c-3.791-2.397-5.663-6.807-4.879-11.046h4.827 4.898c.798 4.352-1.154 8.704-4.846 11.046zm12.722-11.963c-1.381 0-2.5 1.119-2.5 2.5v30.251h-7.774v-16.43c5.973-3.651 8.849-10.77 7.039-17.536-.453-1.688-1.981-2.867-3.717-2.867h-3.322v-16.844c1.117-1.619 2.124-3.315 3.007-5.083 1.095.3-2.094-.432 19.708 4.159 5.242 1.357 4.962 6.649 5 6.75l.28 7.688h-5.271c-4.051 0-7.346 3.295-7.346 7.345s3.295 7.345 7.346 7.345h5.806l.174 4.79h-15.929v-9.567c-.001-1.382-1.12-2.501-2.501-2.501zm19.116 32.751h-16.615v-15.684h16.111c.396 11.869.485 14.942.502 15.572-.002-.133-.001-.257.021.112h-.019c.002.052.001.039 0 0zm.469-55.793 2.812-1.386c5.14-2.533 4.521-7.804 4.561-7.952 2.097.646 4.51 1.046 6.966 1.046 2.652 0 5.2-.444 7.583-1.25v.824c0 3.137 1.747 5.947 4.561 7.333l4.188 2.065c-3.322 6.359-8.663 11.502-14.928 14.652-.668.336-1.521.336-2.19 0-3.99-2.006-7.681-4.841-10.734-8.444-.161-2.466-1.107-4.913-2.819-6.888zm27.688 55.793h-23.09c0-3.255.426 11.607-1.508-41.504 2.164 1.893 5.147 3.967 8.214 5.508 2.064 1.04 4.563 1.068 6.684.001 3.452-1.736 6.846-4.136 9.7-6.885v9.194h-2.76c-1.684 0-3.166 1.144-3.605 2.78-1.657 6.176.915 12.738 6.365 16.18zm2.549-19.054c-3.184-2.067-4.906-5.828-4.284-9.632.268 0 9.08 0 8.536 0 .616 3.77-1.052 7.537-4.252 9.632zm9.134 19.054h-6.684v-14.691c3.54-2.203 5.948-5.781 6.684-9.818zm2.5-29.952c-1.051 0-1.947.65-2.316 1.569-.073-.851-.215-1.696-.437-2.522-.439-1.637-1.922-2.78-3.605-2.78h-2.825v-15.124c.98-1.426 1.866-2.917 2.649-4.468.074.02.145.049.22.068.032.008.065.016.098.022l17.545 3.675c2.476.643 4.232 2.779 4.384 5.334l.271 7.447h-4.599c-3.821 0-6.931 3.109-6.931 6.931s3.109 6.931 6.931 6.931h5.104l.144 3.954h-14.133v-8.536c0-1.382-1.119-2.501-2.5-2.501zm2.5 29.952v-13.916h14.313l.508 13.916z"/></g></g></g><g><g><g><path d="m118.415 46.966-17.127-17.126c-3.434-3.435-8.993-3.437-12.429 0-3.433 3.433-3.434 8.995 0 12.428l2.123 2.124h-31.533c-4.847 0-8.789 3.942-8.789 8.789s3.942 8.789 8.789 8.789h31.533l-2.123 2.123c-3.434 3.432-3.436 8.996 0 12.429 3.434 3.435 8.993 3.437 12.429 0l17.127-17.126c3.434-3.435 3.436-8.993 0-12.43zm-3.535 8.893-17.127 17.126c-1.433 1.432-3.928 1.431-5.358 0-1.479-1.479-1.481-3.876 0-5.357l6.391-6.391c1.567-1.567.462-4.268-1.768-4.268h-37.569c-2.089 0-3.789-1.7-3.789-3.789s1.7-3.789 3.789-3.789h37.568c2.22 0 3.341-2.694 1.768-4.268l-6.391-6.392c-1.479-1.479-1.479-3.877 0-5.357 1.431-1.431 3.926-1.433 5.358 0l17.126 17.126c1.498 1.499 1.464 3.896.002 5.359z"/></g></g></g><g><g><g><path d="m204.467 25.25c-.423-2.663-2.509-4.711-5.191-5.098-12.143-1.748-22.792-5.637-29.987-10.952-2.174-1.604-5.095-1.605-7.269.001-7.193 5.313-17.842 9.202-29.986 10.951-2.681.386-4.768 2.434-5.191 5.098-4.657 29.298 9.777 58.386 35.917 72.382 1.839.986 4.01.955 5.79.001 26.142-13.997 40.576-43.086 35.917-72.383zm-38.278 67.976c-.327.176-.735.179-1.068 0-24.266-12.992-37.664-39.994-33.341-67.189.079-.495.458-.861.967-.935 12.947-1.865 24.398-6.083 32.244-11.878.404-.298.924-.298 1.328 0 7.847 5.796 19.298 10.014 32.244 11.878.509.073.888.439.967.934 4.324 27.194-9.074 54.196-33.341 67.19z"/></g></g></g><g><g><g><path d="m193.331 33.178c-.06-1.135-.877-2.086-1.989-2.317-8.254-1.708-17.158-4.719-24.424-8.976-.781-.457-1.746-.457-2.527 0-7.218 4.226-16.138 7.263-24.426 8.977-1.112.23-1.93 1.182-1.989 2.317-1.094 20.832 9.208 40.458 26.294 51.514.01.006.019.014.029.02.832.538 1.896.53 2.714 0 16.998-10.983 27.421-30.572 26.318-51.535zm-40.705 33.496c-6.39-9.041-9.907-19.996-9.723-31.333 3.357-.761 6.607-1.683 9.723-2.738zm21.056 6.071c-2.305 2.41-5.277 4.959-8.025 6.861-2.702-1.874-5.596-4.329-8.003-6.836-.009-.01-.018-.02-.027-.03v-41.994c2.533-1.034 5.512-2.436 8.028-3.826 2.465 1.365 5.536 2.808 8.027 3.825zm5-6.066v-34.077c3.115 1.055 6.365 1.976 9.723 2.738.184 11.341-3.333 22.297-9.723 31.339z"/></g></g></g></g></g></svg>