<svg id="Layer_1" height="512" viewBox="0 0 256 256" width="512" xmlns="http://www.w3.org/2000/svg"><g><g><path d="m20.613 66c47.155 15.818 97.508-13.253 107.387-62 9.879 48.747 60.232 77.818 107.387 62-37.277 32.929-37.277 91.071 0 124-47.156-15.818-97.508 13.253-107.387 62-9.879-48.747-60.232-77.818-107.387-62 37.277-32.929 37.277-91.071 0-124z" fill="#fcc24c"/></g><g><g><path d="m235.387 66c-3.266 1.096-6.548 1.968-9.831 2.642-33.483 32.424-33.483 86.293 0 118.717 3.283.673 6.564 1.546 9.831 2.642-37.277-32.93-37.277-91.072 0-124.001z" fill="#dea42e"/></g></g><g><g><path d="m20.613 66c3.266 1.096 6.548 1.968 9.831 2.642 33.483 32.424 33.483 86.293 0 118.717-3.282.673-6.564 1.546-9.83 2.642 37.276-32.93 37.276-91.072-.001-124.001z" fill="#fce06a"/></g></g><g><g><path d="m48.545 164.001c-.266 0-.536-.053-.796-.166-1.013-.44-1.478-1.618-1.038-2.631 1.647-3.793 3.037-7.741 4.133-11.733.293-1.065 1.385-1.693 2.458-1.399 1.065.292 1.691 1.393 1.399 2.458-1.146 4.174-2.599 8.301-4.32 12.267-.327.753-1.064 1.204-1.836 1.204z" fill="#690589"/></g></g><g><path d="m128 254c-.951 0-1.771-.67-1.96-1.602-4.595-22.673-18.721-42.311-38.755-53.878-20.034-11.566-44.103-13.982-66.036-6.624-.897.302-1.893-.072-2.368-.896-.476-.824-.305-1.869.408-2.499 17.338-15.315 27.281-37.367 27.281-60.501s-9.943-45.186-27.281-60.501c-.713-.63-.884-1.675-.408-2.499s1.471-1.199 2.368-.896c21.934 7.356 46.002 4.943 66.036-6.624 20.034-11.566 34.16-31.204 38.755-53.877.189-.933 1.009-1.603 1.96-1.603s1.771.67 1.96 1.602c4.595 22.673 18.721 42.311 38.755 53.877s44.103 13.981 66.036 6.624c.898-.303 1.892.072 2.368.896s.305 1.869-.408 2.499c-17.338 15.316-27.281 37.368-27.281 60.502s9.943 45.186 27.281 60.501c.713.63.884 1.675.408 2.499-.477.824-1.47 1.198-2.368.896-21.936-7.357-46.004-4.943-66.036 6.624-20.034 11.566-34.16 31.204-38.755 53.878-.189.932-1.009 1.602-1.96 1.602zm-81.089-70.292c14.724 0 29.359 3.834 42.374 11.348 18.703 10.798 32.5 28.299 38.715 48.782 6.215-20.482 20.012-37.984 38.715-48.782s40.76-13.996 61.603-9.137c-14.63-15.623-22.888-36.322-22.888-57.919s8.258-42.295 22.888-57.919c-20.844 4.859-42.9 1.661-61.603-9.137s-32.5-28.299-38.715-48.782c-6.215 20.482-20.012 37.984-38.715 48.782-18.703 10.799-40.759 13.996-61.602 9.137 14.63 15.624 22.887 36.323 22.887 57.919s-8.258 42.295-22.888 57.919c6.339-1.478 12.795-2.211 19.229-2.211z" fill="#690589"/></g><g><path d="m139.946 148.017c1.936-2.368 5.488-2.69 7.855-.753 4.735 3.874 12.915 8.395 20.556 8.287 5.381 0 10.225-1.614 13.453-3.982 3.229-2.368 4.627-5.058 4.627-7.749 0-1.399-.322-2.367-.968-3.444-.646-1.076-1.614-2.152-3.229-3.229-3.12-2.045-8.394-3.874-14.743-5.058h-.216c-5.058-.968-9.793-2.26-13.883-4.197s-7.641-4.627-10.009-8.394c-1.614-2.583-2.476-5.596-2.476-8.825 0-6.457 3.659-12.053 8.61-15.712 5.058-3.659 11.623-5.704 18.618-5.704 10.331 0 17.973 5.058 23.461 8.609 2.476 1.722 3.229 5.166 1.507 7.641-1.614 2.583-5.059 3.336-7.641 1.614-5.489-3.659-10.763-6.888-17.327-6.888-4.843 0-9.147 1.507-12.054 3.659-2.905 2.152-4.09 4.52-4.09 6.78 0 1.292.216 2.152.754 3.014.538.861 1.507 1.83 2.905 2.798 2.799 1.938 7.642 3.659 13.453 4.735h.215c5.488 1.076 10.547 2.476 14.852 4.52 4.412 2.152 8.287 4.951 10.762 8.933 1.615 2.583 2.583 5.812 2.583 9.147 0 6.888-3.874 12.807-9.255 16.681-5.273 3.874-12.269 6.135-19.91 6.135-11.623-.108-21.416-5.919-27.551-10.762-2.366-1.937-2.689-5.488-.859-7.856z" fill="#ff4397"/></g><g><path d="m92.219 166.636c-3.458 0-6.578-2.074-7.915-5.263l-25.439-60.637c-1.355-3.047.113-6.77 3.385-8.012 3.046-1.354 6.658.113 8.011 3.273l22.005 52.246 22.005-52.246c1.354-3.159 5.078-4.626 8.124-3.273 3.16 1.242 4.626 4.965 3.385 8.012l-25.656 60.66c-1.343 3.176-4.456 5.24-7.905 5.24z" fill="#526faa"/></g><g><path d="m92.219 168.636c-4.275 0-8.106-2.547-9.759-6.489l-25.439-60.638c-.859-1.933-.879-4.223-.037-6.242.85-2.039 2.448-3.597 4.506-4.394 1.925-.841 4.074-.876 6.058-.098 2.058.808 3.675 2.382 4.553 4.433l20.167 47.881 20.162-47.87c.876-2.045 2.5-3.614 4.577-4.429 2.044-.801 4.247-.763 6.201.106 1.908.748 3.478 2.285 4.338 4.294.864 2.018.897 4.314.088 6.299l-25.666 60.685c-1.661 3.926-5.489 6.462-9.749 6.462zm-27.594-74.417c-.535 0-1.065.111-1.563.332-.033.015-.067.029-.102.043-1.044.396-1.855 1.181-2.284 2.212-.421 1.01-.415 2.146.017 3.117l25.456 60.676c1.028 2.452 3.411 4.037 6.07 4.037 2.651 0 5.031-1.578 6.064-4.019l25.655-60.66c.397-.978.376-2.149-.07-3.191-.437-1.019-1.22-1.793-2.204-2.181-1.053-.464-2.157-.479-3.196-.071-1.074.421-1.911 1.228-2.357 2.27l-22.001 52.235c-.312.742-1.038 1.224-1.843 1.224s-1.531-.482-1.843-1.224l-22.005-52.247c-.449-1.048-1.28-1.859-2.334-2.273-.476-.186-.97-.28-1.46-.28z" fill="#690589"/></g><g><path d="m168.357 168.636c-12.224-.113-22.401-6.149-28.79-11.192-3.199-2.617-3.727-7.385-1.203-10.65.011-.015.022-.029.034-.043 1.275-1.56 3.096-2.524 5.126-2.716 2.014-.192 3.986.406 5.544 1.681 4.492 3.676 12.231 7.974 19.261 7.835 4.711 0 9.184-1.31 12.299-3.595 2.527-1.854 3.81-3.919 3.81-6.136 0-.954-.173-1.563-.684-2.415-.576-.96-1.41-1.785-2.623-2.592-2.874-1.884-7.909-3.605-13.82-4.723h-.029c-.126 0-.252-.012-.376-.036-5.841-1.118-10.539-2.542-14.363-4.354-4.82-2.283-8.469-5.357-10.846-9.137-1.821-2.914-2.782-6.332-2.782-9.89 0-6.583 3.434-12.896 9.422-17.321 5.438-3.935 12.467-6.095 19.807-6.095 10.753 0 18.57 5.061 24.277 8.755l.27.175c1.686 1.171 2.803 2.869 3.2 4.818.407 1.999.003 4.003-1.139 5.645-1.016 1.63-2.693 2.807-4.669 3.232-1.988.43-4.021.039-5.723-1.096-5.377-3.584-10.31-6.552-16.218-6.552-4.101 0-8.061 1.19-10.863 3.267-2.177 1.612-3.28 3.352-3.28 5.172 0 1.032.165 1.498.45 1.954.241.387.868 1.189 2.348 2.213 2.559 1.772 7.108 3.365 12.5 4.38h.029c.129 0 .258.013.385.038 6.279 1.231 11.292 2.761 15.325 4.676 5.398 2.634 9.188 5.798 11.602 9.684 1.859 2.973 2.885 6.598 2.885 10.203 0 7.018-3.677 13.689-10.086 18.304-5.71 4.194-13.202 6.511-21.08 6.511zm-26.845-19.374c-1.172 1.54-.918 3.853.561 5.063 5.872 4.635 15.229 10.208 26.303 10.31 7.014 0 13.664-2.041 18.707-5.746 5.369-3.865 8.44-9.354 8.44-15.069 0-2.865-.81-5.737-2.278-8.087-2.009-3.232-5.26-5.911-9.943-8.196-3.669-1.742-8.311-3.158-14.17-4.317h-.02c-.122 0-.244-.011-.364-.033-6.094-1.128-11.146-2.925-14.228-5.058-1.577-1.093-2.742-2.23-3.463-3.382-.741-1.187-1.058-2.405-1.058-4.074 0-2.17.85-5.387 4.899-8.387 3.478-2.575 8.305-4.052 13.244-4.052 7.028 0 12.508 3.271 18.437 7.224.794.53 1.739.711 2.662.514.909-.196 1.682-.737 2.173-1.524.565-.817.744-1.727.558-2.644-.188-.922-.738-1.759-1.51-2.295l-.216-.138c-5.289-3.424-12.532-8.113-22.104-8.113-6.505 0-12.7 1.891-17.446 5.324-4.939 3.651-7.782 8.791-7.782 14.092 0 2.807.751 5.492 2.172 7.765 1.962 3.121 5.048 5.695 9.169 7.646 3.476 1.646 7.8 2.957 13.217 4.005h.025c.123 0 .246.011.366.034 6.586 1.228 12.081 3.129 15.473 5.352 1.712 1.141 2.967 2.404 3.849 3.872.878 1.466 1.253 2.803 1.253 4.474 0 2.449-.944 6.062-5.444 9.362-3.786 2.777-9.121 4.369-14.636 4.369-8.062.13-16.567-4.439-21.822-8.739-.736-.602-1.666-.881-2.635-.794-.949.087-1.796.528-2.389 1.242z" fill="#690589"/></g><g><path d="m215.589 244.236-7.765 7.764-10.191-17.956-10.192-17.956 17.956 10.191 17.956 10.192z" fill="#fcc24c"/></g><g><path d="m215.589 11.764-7.765-7.764-10.191 17.956-10.192 17.956 17.956-10.191 17.956-10.192z" fill="#fcc24c"/></g><g><path d="m40.411 244.236 7.765 7.764 10.191-17.956 10.192-17.956-17.956 10.191-17.956 10.192z" fill="#fcc24c"/></g><g><path d="m40.411 11.764 7.765-7.764 10.191 17.956 10.192 17.956-17.956-10.191-17.956-10.192z" fill="#fcc24c"/></g><g><path d="m207.824 254c-.089 0-.179-.006-.269-.018-.618-.084-1.163-.452-1.471-.995l-20.383-35.912c-.444-.783-.312-1.765.325-2.401.635-.636 1.618-.77 2.401-.325l35.912 20.383c.543.308.911.852.994 1.471.084.619-.126 1.241-.567 1.683l-15.529 15.529c-.376.377-.886.585-1.413.585zm-15.064-32.594 15.508 27.322 11.814-11.815z" fill="#690589"/></g><g><path d="m187.442 41.912c-.519 0-1.03-.201-1.415-.586-.637-.636-.77-1.619-.325-2.401l20.383-35.912c.308-.543.852-.911 1.471-.995.623-.085 1.242.126 1.683.568l15.529 15.529c.441.441.651 1.063.567 1.683-.083.619-.451 1.163-.994 1.471l-35.912 20.383c-.309.175-.65.26-.987.26zm20.826-34.64-15.508 27.322 27.322-15.507z" fill="#690589"/></g><g><path d="m48.176 254c-.526 0-1.037-.208-1.414-.586l-15.529-15.529c-.441-.441-.651-1.063-.567-1.683.083-.619.451-1.163.994-1.471l35.912-20.383c.783-.445 1.767-.311 2.401.325.637.636.77 1.619.325 2.401l-20.383 35.912c-.308.543-.853.911-1.471.995-.09.013-.179.019-.268.019zm-12.258-17.086 11.814 11.815 15.508-27.322z" fill="#690589"/></g><g><path d="m68.558 41.912c-.337 0-.678-.085-.986-.261l-35.913-20.382c-.543-.308-.911-.852-.994-1.471-.084-.619.126-1.241.567-1.683l15.53-15.529c.441-.441 1.062-.652 1.683-.568.618.084 1.163.452 1.471.995l20.383 35.912c.444.783.312 1.765-.325 2.401-.386.385-.899.586-1.416.586zm-32.64-22.826 27.322 15.508-15.508-27.322z" fill="#690589"/></g></g></svg>