<svg width="68" height="69" xmlns="http://www.w3.org/2000/svg" xmlns:xlink="http://www.w3.org/1999/xlink" overflow="hidden"><defs><clipPath id="clip0"><rect x="707" y="182" width="68" height="69"/></clipPath></defs><g clip-path="url(#clip0)" transform="translate(-707 -182)"><path d="M34 7.08333C19.125 7.08333 7.08333 19.125 7.08333 34 7.08333 48.875 19.125 60.9167 34 60.9167 48.875 60.9167 60.9167 48.875 60.9167 34 60.9167 19.125 48.875 7.08333 34 7.08333ZM27.5542 57.1625 29.3958 56.0292 24.0125 47.7417 14.45 45.1917 13.8833 47.3167C11.5458 43.775 10.0583 39.525 9.91667 34.9917L11.6167 36.4083 17.85 28.7583 17.3542 18.9125 15.2292 19.0542C17.9208 15.6542 21.5333 12.9625 25.7125 11.475L24.7917 13.4583 34 17 43.2083 13.4583 42.4292 11.4042C46.6083 12.9625 50.15 15.5833 52.9125 18.9833L50.7875 18.8417 50.2917 28.6875 56.525 36.3375 58.225 34.9208C58.0125 39.4542 56.5958 43.6333 54.2583 47.2458L53.6917 45.1208 44.1292 47.6708 38.7458 55.9583 40.5875 57.0917C38.5333 57.6583 36.3375 58.0125 34.1417 58.0125 31.9458 58.0125 29.6083 57.8 27.5542 57.1625Z" transform="matrix(1 0 0 1.01471 707 182)"/><path d="M43.2083 32.5833 34 25.5 24.7917 32.5833 28.3333 43.2083 34 43.2083 39.6667 43.2083Z" transform="matrix(1 0 0 1.01471 707 182)"/></g></svg>