<svg width="64" height="64" xmlns="http://www.w3.org/2000/svg" xmlns:xlink="http://www.w3.org/1999/xlink" overflow="hidden"><defs><clipPath id="clip0"><rect x="592" y="379" width="64" height="64"/></clipPath></defs><g clip-path="url(#clip0)" transform="translate(-592 -379)"><path d="M637.333 392.333 637.333 389C637.333 388.632 637.035 388.333 636.667 388.333 636.298 388.333 636 388.632 636 389L636 392.333 612 392.333 612 389C612 388.632 611.702 388.333 611.333 388.333 610.965 388.333 610.667 388.632 610.667 389L610.667 392.333 601.333 392.333 601.333 433.667 646.667 433.667 646.667 392.333ZM645.333 432.333 602.667 432.333 602.667 403 645.333 403ZM602.667 401.667 602.667 393.667 610.667 393.667 610.667 396.333C610.667 396.702 610.965 397 611.333 397 611.702 397 612 396.702 612 396.333L612 393.667 636 393.667 636 396.333C636 396.702 636.298 397 636.667 397 637.035 397 637.333 396.702 637.333 396.333L637.333 393.667 645.333 393.667 645.333 401.667Z"/><path d="M619.333 428.333 641.333 428.333 641.333 407 606.667 407 606.667 428.333 619.333 428.333ZM619.333 427 619.333 421.667 628.667 421.667 628.667 427ZM619.333 415 628.667 415 628.667 420.333 619.333 420.333ZM618 420.333 608 420.333 608 415 618 415ZM630 415 640 415 640 420.333 630 420.333ZM630 427 630 421.667 640 421.667 640 427ZM640 408.333 640 413.667 630 413.667 630 408.333ZM628.667 408.333 628.667 413.667 619.333 413.667 619.333 408.333ZM618 408.333 618 413.667 608 413.667 608 408.333ZM608 427 608 421.667 618 421.667 618 427Z"/></g></svg>