<svg width="65" height="65" xmlns="http://www.w3.org/2000/svg" xmlns:xlink="http://www.w3.org/1999/xlink" overflow="hidden"><defs><clipPath id="clip0"><rect x="1100" y="281" width="65" height="65"/></clipPath></defs><g clip-path="url(#clip0)" transform="translate(-1100 -281)"><path d="M1156.88 297.25 1143.72 297.25 1139.65 290.479 1125.35 290.479 1121.28 297.25 1108.12 297.25C1106.26 297.252 1104.74 298.767 1104.74 300.635L1104.74 333.135C1104.74 335.004 1106.26 336.519 1108.12 336.521L1156.88 336.521C1158.74 336.519 1160.26 335.004 1160.26 333.135L1160.26 300.635C1160.26 298.767 1158.74 297.252 1156.88 297.25ZM1126.11 291.833 1138.89 291.833 1142.14 297.25 1122.86 297.25ZM1156.88 298.604C1158 298.604 1158.91 299.514 1158.91 300.635L1158.91 333.135C1158.91 334.257 1158 335.167 1156.88 335.167L1108.12 335.167C1107 335.167 1106.09 334.257 1106.09 333.135L1106.09 300.635C1106.09 299.514 1107 298.604 1108.12 298.604Z"/><path d="M1110.16 308.76 1118.96 308.76 1118.96 302.667 1110.16 302.667ZM1111.51 304.021 1117.6 304.021 1117.6 307.406 1111.51 307.406Z"/><path d="M1132.5 306.052C1125.77 306.052 1120.31 311.509 1120.31 318.24 1120.31 324.971 1125.77 330.427 1132.5 330.427 1139.23 330.427 1144.69 324.971 1144.69 318.24 1144.68 311.512 1139.23 306.06 1132.5 306.052ZM1132.5 329.073C1126.52 329.073 1121.67 324.223 1121.67 318.24 1121.67 312.256 1126.52 307.406 1132.5 307.406 1138.48 307.406 1143.33 312.256 1143.33 318.24 1143.33 324.22 1138.48 329.066 1132.5 329.073Z"/><path d="M1132.5 310.115C1128.01 310.115 1124.38 313.752 1124.38 318.24 1124.38 322.727 1128.01 326.365 1132.5 326.365 1136.99 326.365 1140.62 322.727 1140.62 318.24 1140.62 313.754 1136.99 310.119 1132.5 310.115ZM1132.5 325.01C1128.76 325.01 1125.73 321.979 1125.73 318.24 1125.73 314.5 1128.76 311.469 1132.5 311.469 1136.24 311.469 1139.27 314.5 1139.27 318.24 1139.27 321.977 1136.24 325.006 1132.5 325.01Z"/></g></svg>