<svg width="140" height="140" xmlns="http://www.w3.org/2000/svg" xmlns:xlink="http://www.w3.org/1999/xlink" overflow="hidden"><defs><clipPath id="clip0"><rect x="662" y="166" width="140" height="140"/></clipPath></defs><g clip-path="url(#clip0)" transform="translate(-662 -166)"><path d="M772.833 276.833 699.917 276.833 699.917 195.167 772.833 195.167 772.833 276.833ZM691.167 186.417 691.167 195.167 689.271 195.167C686.938 195.312 685.333 197.208 685.333 199.542 685.188 201.875 686.938 203.771 689.271 203.917L691.167 203.917 691.167 209.75 689.271 209.75C686.792 209.75 684.896 211.646 684.896 214.125 684.896 216.604 686.792 218.5 689.271 218.5L691.167 218.5 691.167 224.333 689.271 224.333C686.792 224.333 684.896 226.229 684.896 228.708 684.896 231.188 686.792 233.083 689.271 233.083L691.167 233.083 691.167 238.917 689.271 238.917C686.792 238.917 684.896 240.812 684.896 243.292 684.896 245.771 686.792 247.667 689.271 247.667L691.167 247.667 691.167 253.5 689.271 253.5C686.792 253.5 684.896 255.396 684.896 257.875 684.896 260.354 686.792 262.25 689.271 262.25L691.167 262.25 691.167 268.083 689.271 268.083C686.792 268.083 684.896 269.979 684.896 272.458 684.896 274.938 686.792 276.833 689.271 276.833L691.167 276.833 691.167 285.583 781.583 285.583 781.583 186.417 691.167 186.417Z"/><path d="M720.333 250.583C723.542 250.583 726.167 253.208 726.167 256.417 726.167 259.625 723.542 262.25 720.333 262.25 717.125 262.25 714.5 259.625 714.5 256.417 714.5 253.208 717.125 250.583 720.333 250.583ZM720.333 268.083C726.167 268.083 731.125 263.708 731.854 257.875 732.583 252.042 728.938 246.646 723.25 245.188L723.25 241.833C723.25 240.229 724.562 238.917 726.167 238.917L746.583 238.917C751.396 238.917 755.333 234.979 755.333 230.167L755.333 213.833 759.125 217.625C760.292 218.792 762.042 218.792 763.208 217.625 764.375 216.458 764.375 214.708 763.208 213.542L754.458 204.792C753.875 204.208 753.146 203.917 752.417 203.917 751.688 203.917 750.958 204.208 750.375 204.792L741.625 213.542C740.458 214.708 740.458 216.458 741.625 217.625 742.792 218.792 744.542 218.792 745.708 217.625L749.5 213.833 749.5 230.167C749.5 231.771 748.188 233.083 746.583 233.083L726.167 233.083C721.354 233.083 717.417 237.021 717.417 241.833L717.417 245.188C711.729 246.646 708.083 252.188 708.812 257.875 709.542 263.708 714.5 268.083 720.333 268.083Z"/><path d="M763.208 245.625C762.625 245.042 761.896 244.75 761.167 244.75 760.438 244.75 759.708 245.042 759.125 245.625L752.417 252.333 745.708 245.625C744.542 244.458 742.792 244.458 741.625 245.625 740.458 246.792 740.458 248.542 741.625 249.708L748.333 256.417 741.625 263.125C740.458 264.292 740.458 266.042 741.625 267.208 742.792 268.375 744.542 268.375 745.708 267.208L752.417 260.5 759.125 267.208C760.292 268.375 762.042 268.375 763.208 267.208 764.375 266.042 764.375 264.292 763.208 263.125L756.5 256.417 763.208 249.708C764.375 248.542 764.375 246.792 763.208 245.625Z"/><path d="M709.542 226.375C710.125 226.958 710.854 227.25 711.583 227.25 712.312 227.25 713.042 226.958 713.625 226.375L720.333 219.667 727.042 226.375C728.208 227.542 729.958 227.542 731.125 226.375 732.292 225.208 732.292 223.458 731.125 222.292L724.417 215.583 731.125 208.875C732.292 207.708 732.292 205.958 731.125 204.792 729.958 203.625 728.208 203.625 727.042 204.792L720.333 211.5 713.625 204.792C712.458 203.625 710.708 203.625 709.542 204.792 708.375 205.958 708.375 207.708 709.542 208.875L716.25 215.583 709.542 222.292C708.375 223.458 708.375 225.208 709.542 226.375Z"/></g></svg>