<svg width="77" height="77" xmlns="http://www.w3.org/2000/svg" xmlns:xlink="http://www.w3.org/1999/xlink" overflow="hidden"><defs><clipPath id="clip0"><rect x="700" y="500" width="77" height="77"/></clipPath></defs><g clip-path="url(#clip0)" transform="translate(-700 -500)"><path d="M769.582 537.971C768.967 537.271 754.356 520.854 738.5 520.854 722.644 520.854 708.033 537.271 707.418 537.971 707.152 538.273 707.152 538.727 707.418 539.029 708.033 539.729 722.644 556.146 738.5 556.146 754.356 556.146 768.967 539.729 769.582 539.029 769.848 538.727 769.848 538.273 769.582 537.971ZM723.26 538.5C723.26 530.083 730.083 523.26 738.5 523.26 746.917 523.26 753.74 530.083 753.74 538.5 753.74 546.917 746.917 553.74 738.5 553.74 730.087 553.73 723.27 546.913 723.26 538.5ZM709.111 538.5C711.196 536.286 719.68 527.738 729.767 524.107 729.806 524.092 729.809 524.099 729.773 524.12 721.832 528.913 719.279 539.237 724.072 547.178 725.481 549.514 727.438 551.47 729.773 552.88 729.809 552.901 729.806 552.908 729.767 552.893 719.68 549.262 711.193 540.714 709.111 538.5ZM747.233 552.893C747.194 552.908 747.191 552.901 747.227 552.88 755.168 548.087 757.721 537.763 752.928 529.822 751.519 527.486 749.562 525.53 747.227 524.12 747.191 524.099 747.194 524.092 747.233 524.107 757.32 527.738 765.807 536.286 767.889 538.5 765.807 540.714 757.32 549.262 747.233 552.893Z"/><path d="M738.5 531.281C734.513 531.281 731.281 534.513 731.281 538.5 731.281 542.487 734.513 545.719 738.5 545.719 742.487 545.719 745.719 542.487 745.719 538.5 745.714 534.515 742.485 531.286 738.5 531.281ZM738.5 544.115C735.399 544.115 732.885 541.601 732.885 538.5 732.885 535.399 735.399 532.885 738.5 532.885 741.601 532.885 744.115 535.399 744.115 538.5 744.111 541.599 741.599 544.111 738.5 544.115Z"/></g></svg>