<svg width="46" height="46" xmlns="http://www.w3.org/2000/svg" xmlns:xlink="http://www.w3.org/1999/xlink" overflow="hidden"><defs><clipPath id="clip0"><rect x="846" y="191" width="46" height="46"/></clipPath></defs><g clip-path="url(#clip0)" transform="translate(-846 -191)"><path d="M869 196.271C858.944 196.271 850.792 204.423 850.792 214.479 850.792 224.535 858.944 232.688 869 232.688 879.056 232.688 887.208 224.535 887.208 214.479 887.208 204.423 879.056 196.271 869 196.271ZM869 231.729C859.473 231.729 851.75 224.006 851.75 214.479 851.75 204.952 859.473 197.229 869 197.229 878.527 197.229 886.25 204.952 886.25 214.479 886.239 224.002 878.522 231.718 869 231.729Z" fill="#FF0000"/><path d="M860.375 206.333C862.237 206.332 864.005 207.146 865.215 208.561 865.387 208.763 865.689 208.786 865.89 208.614 866.091 208.442 866.115 208.14 865.943 207.939 864.07 205.752 861.092 204.863 858.327 205.666 858.073 205.74 857.927 206.006 858 206.26 858.074 206.514 858.34 206.66 858.594 206.586 859.173 206.418 859.773 206.333 860.375 206.333Z" fill="#FF0000"/><path d="M864.208 212.425C864.208 210.837 862.921 209.55 861.333 209.55 859.746 209.55 858.458 210.837 858.458 212.425 858.458 214.013 859.746 215.3 861.333 215.3 862.921 215.3 864.208 214.013 864.208 212.425ZM861.333 214.342C860.275 214.342 859.417 213.484 859.417 212.425 859.417 211.366 860.275 210.508 861.333 210.508 862.392 210.508 863.25 211.366 863.25 212.425 863.249 213.483 862.391 214.341 861.333 214.342Z" fill="#FF0000"/><path d="M879.677 205.666C876.912 204.863 873.934 205.752 872.061 207.939 871.884 208.135 871.9 208.438 872.096 208.615 872.293 208.792 872.596 208.777 872.773 208.58 872.779 208.574 872.784 208.568 872.789 208.561 874.417 206.66 877.006 205.888 879.409 206.586 879.664 206.66 879.93 206.514 880.003 206.26 880.077 206.006 879.931 205.74 879.677 205.666Z" fill="#FF0000"/><path d="M876.667 209.549C875.079 209.549 873.792 210.836 873.792 212.424 873.792 214.012 875.079 215.299 876.667 215.299 878.254 215.299 879.542 214.012 879.542 212.424 879.542 210.836 878.254 209.549 876.667 209.549ZM876.667 214.341C875.608 214.341 874.75 213.483 874.75 212.424 874.75 211.365 875.608 210.507 876.667 210.507 877.725 210.507 878.583 211.365 878.583 212.424 878.583 213.482 877.725 214.341 876.667 214.342Z" fill="#FF0000"/><path d="M869 219.758C865.857 219.75 863.203 222.092 862.822 225.212 862.79 225.475 862.978 225.714 863.241 225.745 863.376 225.761 863.511 225.719 863.613 225.629 866.69 222.912 871.31 222.912 874.387 225.629 874.586 225.804 874.889 225.784 875.063 225.585 875.152 225.483 875.194 225.347 875.178 225.212 874.797 222.092 872.143 219.75 869 219.758ZM869 222.633C867.26 222.626 865.555 223.126 864.094 224.071 864.092 224.073 864.088 224.072 864.086 224.07 864.084 224.068 864.084 224.064 864.087 224.062 865.154 221.349 868.218 220.014 870.932 221.081 872.297 221.617 873.377 222.698 873.913 224.062 873.914 224.065 873.913 224.068 873.91 224.069 873.909 224.069 873.907 224.069 873.906 224.069 872.445 223.125 870.74 222.626 869 222.634Z" fill="#FF0000"/></g></svg>