<svg width="46" height="47" xmlns="http://www.w3.org/2000/svg" xmlns:xlink="http://www.w3.org/1999/xlink" overflow="hidden"><defs><clipPath id="clip0"><rect x="727" y="192" width="46" height="47"/></clipPath></defs><g clip-path="url(#clip0)" transform="translate(-727 -192)"><path d="M23 4.79167C12.9375 4.79167 4.79167 12.9375 4.79167 23 4.79167 33.0625 12.9375 41.2083 23 41.2083 33.0625 41.2083 41.2083 33.0625 41.2083 23 41.2083 12.9375 33.0625 4.79167 23 4.79167ZM23 40.25C13.4646 40.25 5.75 32.5354 5.75 23 5.75 13.4646 13.4646 5.75 23 5.75 32.5354 5.75 40.25 13.4646 40.25 23 40.25 32.5354 32.5354 40.25 23 40.25Z" fill="#92D050" transform="matrix(1 0 0 1.02174 727 192)"/><path d="M31.5771 29.9C27.7917 34.6437 20.8917 35.4104 16.1479 31.625 15.525 31.0979 14.95 30.5229 14.4229 29.9 14.2792 29.7083 13.9437 29.6604 13.7521 29.8042 13.5604 29.9479 13.5125 30.2833 13.6562 30.475 17.7771 35.65 25.3 36.4646 30.475 32.3438 31.1458 31.7688 31.7688 31.1458 32.3438 30.475 32.4875 30.2833 32.4875 29.9479 32.2479 29.8042 32.0083 29.6604 31.7688 29.6604 31.5771 29.9L31.5771 29.9Z" fill="#92D050" transform="matrix(1 0 0 1.02174 727 192)"/><path d="M18.2083 20.125C18.2083 18.5438 16.9146 17.25 15.3333 17.25 13.7521 17.25 12.4583 18.5438 12.4583 20.125 12.4583 21.7062 13.7521 23 15.3333 23 16.9146 23 18.2083 21.7062 18.2083 20.125ZM13.4167 20.125C13.4167 19.0708 14.2792 18.2083 15.3333 18.2083 16.3875 18.2083 17.25 19.0708 17.25 20.125 17.25 21.1792 16.3875 22.0417 15.3333 22.0417 14.2792 22.0417 13.4167 21.1792 13.4167 20.125Z" fill="#92D050" transform="matrix(1 0 0 1.02174 727 192)"/><path d="M30.6667 17.25C29.0854 17.25 27.7917 18.5438 27.7917 20.125 27.7917 21.7062 29.0854 23 30.6667 23 32.2479 23 33.5417 21.7062 33.5417 20.125 33.5417 18.5438 32.2479 17.25 30.6667 17.25ZM30.6667 22.0417C29.6125 22.0417 28.75 21.1792 28.75 20.125 28.75 19.0708 29.6125 18.2083 30.6667 18.2083 31.7208 18.2083 32.5833 19.0708 32.5833 20.125 32.5833 21.1792 31.7208 22.0417 30.6667 22.0417 30.6667 22.0417 30.6667 22.0417 30.6667 22.0417L30.6667 22.0417Z" fill="#92D050" transform="matrix(1 0 0 1.02174 727 192)"/></g></svg>