<svg width="46" height="47" xmlns="http://www.w3.org/2000/svg" xmlns:xlink="http://www.w3.org/1999/xlink" overflow="hidden"><defs><clipPath id="clip0"><rect x="688" y="192" width="46" height="47"/></clipPath></defs><g clip-path="url(#clip0)" transform="translate(-688 -192)"><path d="M35.4583 7.81042C35.7458 8.05 35.9854 8.28958 36.2729 8.52917 37.8542 7.85833 38.8125 6.99583 38.8125 5.98958 38.8125 3.01875 30.6667 1.4375 23 1.4375 15.3333 1.4375 7.1875 3.01875 7.1875 5.98958 7.1875 6.99583 8.14583 7.85833 9.72708 8.52917 10.0146 8.28958 10.2542 8.05 10.5417 7.81042 9.00833 7.1875 8.14583 6.56458 8.14583 5.98958 8.14583 4.50417 13.8 2.39583 23 2.39583 32.2 2.39583 37.8542 4.50417 37.8542 5.98958 37.8542 6.56458 37.0396 7.23542 35.4583 7.81042Z" fill="#00B050" transform="matrix(1 0 0 1.02174 688 192)"/><path d="M23 41.2083C33.0625 41.2083 41.2083 33.0625 41.2083 23 41.2083 12.9375 33.0625 4.79167 23 4.79167 12.9375 4.79167 4.79167 12.9375 4.79167 23 4.79167 33.0625 12.9375 41.2083 23 41.2083ZM23 5.75C32.5354 5.75 40.25 13.4646 40.25 23 40.25 32.5354 32.5354 40.25 23 40.25 13.4646 40.25 5.75 32.5354 5.75 23 5.75 13.4646 13.4646 5.75 23 5.75Z" fill="#00B050" transform="matrix(1 0 0 1.02174 688 192)"/><path d="M14.4229 29.9C14.2312 29.7083 13.9437 29.6604 13.7521 29.8521 13.5604 29.9958 13.5125 30.2833 13.6562 30.5229 17.7771 35.6979 25.3 36.5125 30.475 32.3917 31.1458 31.8167 31.7688 31.1937 32.3438 30.5229 32.4875 30.3312 32.4875 29.9958 32.2479 29.8521 32.0563 29.7083 31.7208 29.7083 31.5771 29.9479 27.7917 34.6437 20.8917 35.4104 16.1479 31.625 15.4771 31.0979 14.9021 30.5229 14.4229 29.9L14.4229 29.9Z" fill="#00B050" transform="matrix(1 0 0 1.02174 688 192)"/><path d="M12.0271 21.5625C12.2667 21.6583 12.5542 21.5146 12.6021 21.2271 12.6021 21.2271 12.6021 21.2271 12.6021 21.2271 13.1771 19.3104 15.1896 18.2562 17.1063 18.8312 18.2562 19.1667 19.1187 20.0771 19.5021 21.2271 19.5979 21.4667 19.8375 21.6104 20.0771 21.5625 20.3167 21.5146 20.4604 21.2271 20.4125 20.9875 20.4125 20.9875 20.4125 20.9875 20.4125 20.9875 19.6937 18.5917 17.1063 17.25 14.7104 17.9688 13.2729 18.4 12.1229 19.55 11.6917 20.9875 11.6437 21.1792 11.7875 21.4667 12.0271 21.5625Z" fill="#00B050" transform="matrix(1 0 0 1.02174 688 192)"/><path d="M25.9229 21.5625C26.1625 21.6583 26.45 21.5146 26.4979 21.2271 26.4979 21.2271 26.4979 21.2271 26.4979 21.2271 27.0729 19.3104 29.0854 18.2562 31.0021 18.8312 32.1521 19.1667 33.0146 20.0771 33.3979 21.2271 33.4938 21.4667 33.7333 21.6104 33.9729 21.5625 34.2125 21.4667 34.3562 21.2271 34.3083 20.9875 34.3083 20.9875 34.3083 20.9875 34.3083 20.9875 33.5896 18.5917 31.0021 17.25 28.6062 17.9688 27.1687 18.4 26.0187 19.55 25.5875 20.9875 25.5396 21.1792 25.6833 21.4667 25.9229 21.5625Z" fill="#00B050" transform="matrix(1 0 0 1.02174 688 192)"/></g></svg>