<svg width="47" height="47" xmlns="http://www.w3.org/2000/svg" xmlns:xlink="http://www.w3.org/1999/xlink" overflow="hidden"><defs><clipPath id="clip0"><rect x="804" y="191" width="47" height="47"/></clipPath></defs><g clip-path="url(#clip0)" transform="translate(-804 -191)"><path d="M827.5 233.104C837.775 233.104 846.104 224.775 846.104 214.5 846.104 204.225 837.775 195.896 827.5 195.896 817.225 195.896 808.896 204.225 808.896 214.5 808.896 224.775 817.225 233.104 827.5 233.104ZM827.5 196.875C837.234 196.875 845.125 204.766 845.125 214.5 845.125 224.234 837.234 232.125 827.5 232.125 817.766 232.125 809.875 224.234 809.875 214.5 809.886 204.771 817.771 196.886 827.5 196.875Z" fill="#FFC000"/><path d="M819.667 210.094C818.044 210.094 816.729 211.409 816.729 213.031 816.729 214.654 818.044 215.969 819.667 215.969 821.289 215.969 822.604 214.654 822.604 213.031 822.604 211.409 821.289 210.094 819.667 210.094ZM819.667 214.99C818.585 214.99 817.708 214.113 817.708 213.031 817.708 211.95 818.585 211.073 819.667 211.073 820.748 211.073 821.625 211.95 821.625 213.031 821.623 214.112 820.748 214.988 819.667 214.99Z" fill="#FFC000"/><path d="M835.333 210.094C833.711 210.094 832.396 211.409 832.396 213.031 832.396 214.654 833.711 215.969 835.333 215.969 836.956 215.969 838.271 214.654 838.271 213.031 838.271 211.409 836.956 210.094 835.333 210.094ZM835.333 214.99C834.252 214.99 833.375 214.113 833.375 213.031 833.375 211.95 834.252 211.073 835.333 211.073 836.415 211.073 837.292 211.95 837.292 213.031 837.292 214.113 836.415 214.99 835.333 214.99Z" fill="#FFC000"/><path d="M816.881 207.676 822.648 207.112C822.917 207.085 823.114 206.845 823.087 206.575 823.06 206.306 822.819 206.11 822.55 206.137L816.685 206.711C816.416 206.738 816.22 206.978 816.247 207.247 816.272 207.497 816.483 207.688 816.734 207.688Z" fill="#FFC000"/><path d="M832.353 207.112 838.136 207.678C838.136 207.678 838.253 207.688 838.269 207.688 838.539 207.688 838.758 207.469 838.758 207.198 838.759 206.947 838.568 206.736 838.318 206.711L832.449 206.137C832.18 206.11 831.939 206.306 831.912 206.575 831.885 206.845 832.082 207.085 832.351 207.112Z" fill="#FFC000"/><path d="M822.502 224.362C822.594 224.488 822.741 224.562 822.897 224.562 823.001 224.561 823.103 224.527 823.186 224.464 825.997 222.405 829.616 221.794 832.948 222.816 833.204 222.902 833.481 222.763 833.567 222.507 833.653 222.251 833.515 221.973 833.258 221.887 833.251 221.885 833.243 221.883 833.235 221.88 829.608 220.767 825.668 221.433 822.607 223.675 822.388 223.835 822.34 224.141 822.5 224.359 822.5 224.36 822.501 224.361 822.502 224.362Z" fill="#FFC000"/></g></svg>