<svg width="46" height="47" xmlns="http://www.w3.org/2000/svg" xmlns:xlink="http://www.w3.org/1999/xlink" overflow="hidden"><defs><clipPath id="clip0"><rect x="766" y="191" width="46" height="47"/></clipPath></defs><g clip-path="url(#clip0)" transform="translate(-766 -191)"><path d="M23 4.79167C12.9438 4.79167 4.79167 12.9438 4.79167 23 4.79167 33.0562 12.9438 41.2083 23 41.2083 33.0562 41.2083 41.2083 33.0562 41.2083 23 41.2083 12.9438 33.0562 4.79167 23 4.79167ZM23 40.25C13.4731 40.25 5.75 32.5269 5.75 23 5.75 13.4731 13.4731 5.75 23 5.75 32.5269 5.75 40.25 13.4731 40.25 23 40.2392 32.5224 32.5224 40.2392 23 40.25Z" fill="#A5A5A5" transform="matrix(1 0 0 1.02174 766 191)"/><path d="M18.2083 21.5625C18.2083 19.9747 16.9211 18.6875 15.3333 18.6875 13.7455 18.6875 12.4583 19.9747 12.4583 21.5625 12.4583 23.1503 13.7455 24.4375 15.3333 24.4375 16.9211 24.4375 18.2083 23.1503 18.2083 21.5625ZM15.3333 23.4792C14.2748 23.4792 13.4167 22.621 13.4167 21.5625 13.4167 20.504 14.2748 19.6458 15.3333 19.6458 16.3919 19.6458 17.25 20.504 17.25 21.5625 17.2484 22.6204 16.3912 23.4776 15.3333 23.4792Z" fill="#A5A5A5" transform="matrix(1 0 0 1.02174 766 191)"/><path d="M30.6667 18.6875C29.0788 18.6875 27.7917 19.9747 27.7917 21.5625 27.7917 23.1503 29.0788 24.4375 30.6667 24.4375 32.2545 24.4375 33.5417 23.1503 33.5417 21.5625 33.5417 19.9747 32.2545 18.6875 30.6667 18.6875ZM30.6667 23.4792C29.6081 23.4792 28.75 22.621 28.75 21.5625 28.75 20.504 29.6081 19.6458 30.6667 19.6458 31.7252 19.6458 32.5833 20.504 32.5833 21.5625 32.5833 22.621 31.7252 23.4792 30.6667 23.4792Z" fill="#A5A5A5" transform="matrix(1 0 0 1.02174 766 191)"/><path d="M28.75 30.6667 17.25 30.6667C16.9854 30.6667 16.7708 30.8812 16.7708 31.1458 16.7708 31.4105 16.9854 31.625 17.25 31.625L28.75 31.625C29.0146 31.625 29.2292 31.4105 29.2292 31.1458 29.2292 30.8812 29.0146 30.6667 28.75 30.6667Z" fill="#A5A5A5" transform="matrix(1 0 0 1.02174 766 191)"/><path d="M18.9271 16.2917C18.9271 16.027 18.7126 15.8125 18.4479 15.8125L12.2188 15.8125C11.9541 15.8125 11.7396 16.027 11.7396 16.2917 11.7396 16.5563 11.9541 16.7708 12.2188 16.7708L18.4479 16.7708C18.7126 16.7708 18.9271 16.5563 18.9271 16.2917Z" fill="#A5A5A5" transform="matrix(1 0 0 1.02174 766 191)"/><path d="M33.7812 15.8125 27.5521 15.8125C27.2874 15.8125 27.0729 16.027 27.0729 16.2917 27.0729 16.5563 27.2874 16.7708 27.5521 16.7708L33.7812 16.7708C34.0459 16.7708 34.2604 16.5563 34.2604 16.2917 34.2604 16.027 34.0459 15.8125 33.7812 15.8125Z" fill="#A5A5A5" transform="matrix(1 0 0 1.02174 766 191)"/></g></svg>