<svg width="72" height="72" xmlns="http://www.w3.org/2000/svg" xmlns:xlink="http://www.w3.org/1999/xlink" overflow="hidden"><defs><clipPath id="clip0"><rect x="745" y="604" width="72" height="72"/></clipPath></defs><g clip-path="url(#clip0)" transform="translate(-745 -604)"><path d="M809.835 618.337C809.673 618.282 809.503 618.255 809.331 618.257L808.836 618.25 752.596 618.25 752.322 618.256C751.505 618.249 750.838 618.906 750.831 619.723 750.831 619.732 750.831 619.741 750.831 619.75L750.831 652.75C750.831 653.578 751.503 654.25 752.331 654.25 752.564 654.25 752.794 654.196 753.002 654.092L761.686 649.75 769.461 649.75C769.692 648.703 770.067 647.694 770.575 646.75L767.275 646.75 767.275 643.182 772.096 643.182 772.096 644.583C772.334 644.312 772.583 644.052 772.846 643.804L772.846 643.182 773.552 643.182C773.888 642.912 774.238 642.662 774.602 642.432L772.849 642.432 772.849 638.775 777.671 638.775 777.671 641.05C777.918 640.979 778.167 640.911 778.421 640.857L778.421 638.775 783.242 638.775 783.242 640.836C783.497 640.888 783.744 640.96 783.992 641.029L783.992 638.775 788.813 638.775 788.813 642.432 787.143 642.432C787.507 642.662 787.857 642.912 788.193 643.182L788.81 643.182 788.81 643.723C789.071 643.965 789.321 644.219 789.56 644.484L789.56 643.182 794.381 643.182 794.381 646.75 791.176 646.75C791.684 647.694 792.059 648.703 792.291 649.75L799.975 649.75 808.66 654.092C809.401 654.462 810.302 654.162 810.673 653.422 810.777 653.213 810.831 652.983 810.831 652.75L810.831 619.75C810.831 619.116 810.433 618.55 809.835 618.337ZM760.956 631.959C760.726 631.284 760.469 630.609 760.198 629.945L760.956 629.945ZM760.956 629.195 759.89 629.195C759.381 628.014 758.806 626.845 758.165 625.688L760.953 625.688ZM766.525 646.75 762.831 646.75 762.831 643.182 766.525 643.182ZM766.525 642.432 762.818 642.432C762.796 641.209 762.706 639.988 762.55 638.775L766.525 638.775ZM766.525 638.025 762.446 638.025C762.262 636.827 762.015 635.64 761.706 634.468L761.706 634.338 766.525 634.338ZM766.525 633.591 761.706 633.591 761.706 629.945 766.525 629.945ZM766.525 629.195 761.706 629.195 761.706 625.688 766.525 625.688ZM772.096 642.432 767.275 642.432 767.275 638.775 772.096 638.775ZM772.096 638.025 767.275 638.025 767.275 634.337 772.096 634.337ZM772.096 633.591 767.275 633.591 767.275 629.945 772.096 629.945ZM772.096 629.195 767.275 629.195 767.275 625.688 772.096 625.688ZM777.668 638.025 772.849 638.025 772.849 634.336 777.671 634.336ZM777.668 633.591 772.849 633.591 772.849 629.945 777.671 629.945ZM777.668 629.195 772.849 629.195 772.849 625.688 777.671 625.688ZM783.239 638.025 778.421 638.025 778.421 634.336 783.242 634.336ZM783.239 633.59 778.421 633.59 778.421 629.945 783.242 629.945ZM783.239 629.195 778.421 629.195 778.421 625.688 783.242 625.688ZM788.81 638.025 783.992 638.025 783.992 634.335 788.813 634.335ZM788.81 633.589 783.992 633.589 783.992 629.944 788.813 629.944ZM788.81 629.195 783.992 629.195 783.992 625.688 788.813 625.688ZM794.381 642.432 789.563 642.432 789.563 638.775 794.385 638.775ZM794.381 638.025 789.563 638.025 789.563 634.334 794.385 634.334ZM794.381 633.588 789.563 633.588 789.563 629.945 794.385 629.945ZM794.381 629.195 789.563 629.195 789.563 625.688 794.385 625.688ZM798.831 646.75 795.135 646.75 795.135 643.182 798.831 643.182ZM798.845 642.432 795.135 642.432 795.135 638.775 799.109 638.775C798.954 639.988 798.865 641.209 798.845 642.432ZM799.956 634.468C799.647 635.64 799.4 636.827 799.216 638.025L795.135 638.025 795.135 634.334 799.956 634.334ZM799.956 633.588 795.135 633.588 795.135 629.945 799.956 629.945ZM799.956 629.195 795.135 629.195 795.135 625.688 799.956 625.688ZM800.706 631.959 800.706 629.945 801.464 629.945C801.193 630.613 800.937 631.284 800.706 631.959ZM800.706 629.195 800.706 625.688 803.495 625.688C802.858 626.844 802.283 628.013 801.77 629.195ZM807.831 624.287 807.831 650.323 801.831 647.323 801.831 643.798 806.331 645.769 806.331 644.95 801.831 642.979C801.833 641.72 801.912 640.463 802.067 639.213L806.331 640.37 806.331 639.594 802.17 638.469C802.368 637.137 802.652 635.82 803.018 634.525L806.331 635.026 806.331 634.266 803.235 633.799C803.64 632.486 804.125 631.199 804.687 629.945L806.331 629.945 806.331 629.195 805.038 629.195C805.433 628.364 805.864 627.539 806.331 626.72L806.331 622.75 805.278 622.75C804.803 623.474 804.343 624.202 803.919 624.938L800.706 624.938 800.706 622.75 799.956 622.75 799.956 624.938 795.135 624.938 795.135 622.75 794.385 622.75 794.385 624.938 789.563 624.938 789.563 622.75 788.813 622.75 788.813 624.938 783.992 624.938 783.992 622.75 783.242 622.75 783.242 624.938 778.421 624.938 778.421 622.75 777.671 622.75 777.671 624.938 772.849 624.938 772.849 622.75 772.099 622.75 772.099 624.938 767.275 624.938 767.275 622.75 766.525 622.75 766.525 624.938 761.706 624.938 761.706 622.75 760.956 622.75 760.956 624.938 757.744 624.938C757.32 624.202 756.86 623.474 756.385 622.75L755.335 622.75 755.335 626.718C755.802 627.538 756.233 628.363 756.628 629.193L755.331 629.193 755.331 629.943 756.975 629.943C757.537 631.198 758.021 632.486 758.425 633.8L755.329 634.279 755.329 635.036 758.642 634.522C759.012 635.831 759.298 637.162 759.496 638.508L755.329 639.639 755.329 640.416 759.599 639.258C759.752 640.499 759.83 641.749 759.831 643L759.831 643.053 755.331 645.024 755.331 645.843 759.831 643.872 759.831 647.322 753.831 650.322 753.831 621.25 807.831 621.25Z"/><path d="M780.875 642.095C775.242 642.095 770.675 646.661 770.675 652.295 770.675 657.928 775.242 662.495 780.875 662.495 786.509 662.495 791.076 657.928 791.076 652.295 791.076 646.661 786.509 642.095 780.875 642.095ZM789.555 652.75C789.479 654.284 788.994 655.77 788.153 657.055L787.986 656.396 784.511 657.325 782.555 660.342 783.117 660.696C781.647 661.102 780.095 661.102 778.625 660.696L779.183 660.344 777.227 657.325 773.752 656.396 773.589 657.04C772.756 655.763 772.275 654.288 772.196 652.765L772.71 653.193 774.975 650.399 774.785 646.808 774.099 646.854C775.066 645.653 776.334 644.731 777.773 644.18L777.515 644.826 780.872 646.117 784.225 644.824 783.964 644.172C785.409 644.723 786.682 645.648 787.653 646.852L786.953 646.805 786.762 650.397 789.027 653.19Z"/><path d="M777.513 651.795 778.803 655.669 780.87 655.669 782.935 655.669 784.226 651.795 780.87 649.214 777.513 651.795Z"/></g></svg>