<svg width="68" height="68" xmlns="http://www.w3.org/2000/svg" xmlns:xlink="http://www.w3.org/1999/xlink" overflow="hidden"><defs><clipPath id="clip0"><rect x="656" y="604" width="68" height="68"/></clipPath></defs><g clip-path="url(#clip0)" transform="translate(-656 -604)"><path d="M716.562 657.55 707.708 648.696C706.504 647.492 704.875 647.067 703.317 647.35L700.2 644.233C702.963 640.692 704.592 636.158 704.592 631.342 704.592 619.654 695.029 610.092 683.342 610.092 671.654 610.092 662.092 619.654 662.092 631.342 662.092 643.029 671.654 652.592 683.342 652.592 688.158 652.592 692.621 650.963 696.233 648.2L699.35 651.317C699.067 652.875 699.492 654.504 700.696 655.708L709.55 664.562C710.542 665.554 711.817 666.05 713.092 666.05 714.367 666.05 715.642 665.554 716.633 664.562 718.475 662.579 718.475 659.463 716.562 657.55ZM683.271 648.271C673.921 648.271 666.271 640.621 666.271 631.271 666.271 621.921 673.921 614.271 683.271 614.271 692.621 614.271 700.271 621.921 700.271 631.271 700.271 640.621 692.621 648.271 683.271 648.271Z"/></g></svg>