<svg height="512" viewBox="0 0 175 175" width="512" xmlns="http://www.w3.org/2000/svg"><g id="Layer_2" data-name="Layer 2"><g id="Filled"><g id="_04.Frown" data-name="04.Frown"><circle id="Background" cx="87.5" cy="87.5" fill="#ffdd67" r="87.5"/><g id="Face" fill="#b26d3c"><path id="Mouth" d="m60.06 134.93a6 6 0 0 1 -.22-9.27c5.39-4.6 14.89-10.66 27.66-10.66s22.26 6 27.65 10.63a6 6 0 0 1 -.24 9.28 6 6 0 0 1 -7.54-.13c-3.85-3.26-10.79-7.78-19.87-7.78s-16 4.51-19.88 7.79a6 6 0 0 1 -7.56.14z"/><g id="Eye_02" data-name="Eye 02"><circle cx="116.5" cy="81.17" r="11.5"/><rect height="40.46" rx="6" transform="matrix(.498 -.867 .867 .498 8.3 137.33)" width="12" x="116.78" y="41.27"/></g><g id="Eye_01" data-name="Eye 01"><circle cx="58.5" cy="81.17" r="11.5"/><rect height="12" rx="6" transform="matrix(.867 -.498 .498 .867 -23.69 34.18)" width="40.46" x="31.99" y="55.5"/></g></g></g></g></g></svg>