<svg width="78" height="78" xmlns="http://www.w3.org/2000/svg" xmlns:xlink="http://www.w3.org/1999/xlink" overflow="hidden"><defs><clipPath id="clip0"><rect x="1046" y="407" width="78" height="78"/></clipPath></defs><g clip-path="url(#clip0)" transform="translate(-1046 -407)"><path d="M1072.81 432.025C1072.81 436.064 1069.54 439.337 1065.5 439.337 1061.46 439.337 1058.19 436.064 1058.19 432.025 1058.19 427.986 1061.46 424.712 1065.5 424.712 1069.54 424.712 1072.81 427.986 1072.81 432.025Z"/><path d="M1111.81 432.025C1111.81 436.064 1108.54 439.337 1104.5 439.337 1100.46 439.337 1097.19 436.064 1097.19 432.025 1097.19 427.986 1100.46 424.712 1104.5 424.712 1108.54 424.712 1111.81 427.986 1111.81 432.025Z"/><path d="M1099.62 467.288 1099.62 459.975C1099.62 458.837 1099.14 457.7 1098.16 457.05 1096.21 455.425 1093.61 454.288 1091.01 453.638 1089.22 453.15 1087.11 452.663 1085 452.663 1083.05 452.663 1080.94 452.987 1078.99 453.638 1076.39 454.288 1073.95 455.587 1071.84 457.05 1070.86 457.862 1070.38 458.837 1070.38 459.975L1070.38 467.288 1099.62 467.288Z"/><path d="M1092.31 443.4C1092.31 447.439 1089.04 450.712 1085 450.712 1080.96 450.712 1077.69 447.439 1077.69 443.4 1077.69 439.361 1080.96 436.087 1085 436.087 1089.04 436.087 1092.31 439.361 1092.31 443.4Z"/><path d="M1117.66 445.675C1115.71 444.05 1113.11 442.913 1110.51 442.263 1108.72 441.775 1106.61 441.288 1104.5 441.288 1102.55 441.288 1100.44 441.612 1098.49 442.263 1097.51 442.587 1096.54 442.913 1095.56 443.4L1095.56 443.562C1095.56 446.325 1094.43 448.925 1092.64 450.712 1095.72 451.688 1098.16 452.987 1100.11 454.45 1100.6 454.938 1101.09 455.263 1101.41 455.913L1119.12 455.913 1119.12 448.6C1119.12 447.462 1118.64 446.325 1117.66 445.675Z"/><path d="M1069.89 454.45 1069.89 454.45C1072.16 452.825 1074.76 451.525 1077.36 450.712 1075.57 448.763 1074.44 446.325 1074.44 443.562 1074.44 443.4 1074.44 443.4 1074.44 443.237 1073.46 442.913 1072.49 442.425 1071.51 442.263 1069.72 441.775 1067.61 441.288 1065.5 441.288 1063.55 441.288 1061.44 441.612 1059.49 442.263 1056.89 443.075 1054.45 444.212 1052.34 445.675 1051.36 446.325 1050.88 447.462 1050.88 448.6L1050.88 455.913 1068.43 455.913C1068.91 455.263 1069.24 454.938 1069.89 454.45Z"/></g></svg>