<svg height="512" viewBox="0 0 175 175" width="512" xmlns="http://www.w3.org/2000/svg"><g id="Layer_2" data-name="Layer 2"><g id="Filled"><g id="_44.Smile-Beam_With-Halo" data-name="44.Smile-Beam_With-Halo"><circle id="Background" cx="87.5" cy="87.5" fill="#ffdd67" r="87.5"/><path id="Halo" d="m101.94 1.2a86.28 86.28 0 0 1 25.17 8.27c15.84 1.27 27.4 3.19 34.59 5a172.39 172.39 0 0 1 -20.83 3.66 445.41 445.41 0 0 1 -53.37 2.87 445.41 445.41 0 0 1 -53.37-2.84 172.39 172.39 0 0 1 -20.83-3.65c7.19-1.85 18.75-3.77 34.59-5a86.28 86.28 0 0 1 25.17-8.31c-41.45 1.05-73.06 6.61-73.06 13.31 0 3.84 10.37 7.3 27 9.76 15.73 2.32 37 3.73 60.5 3.73s44.77-1.42 60.48-3.74c16.65-2.46 27-5.92 27-9.76.02-6.69-31.59-12.25-73.04-13.3z" fill="#4cc4ff"/><g id="Face" fill="#b26d3c"><path id="Mouth" d="m87.5 140.07a50.6 50.6 0 0 1 -47.83-34.07 6 6 0 1 1 11.33-3.93 38.59 38.59 0 0 0 73 0 6 6 0 1 1 11.33 3.93 50.6 50.6 0 0 1 -47.83 34.07z"/><path d="m116.5 58.77c-11 0-19.89 16.63-19.89 10.28s8.9-22.38 19.89-22.38 19.9 16 19.9 22.38-8.91-10.28-19.9-10.28z"/><path d="m58.5 58.35c-11 0-19.9 16.64-19.9 10.29s8.91-22.38 19.9-22.38 19.89 16 19.89 22.38-8.9-10.29-19.89-10.29z"/></g></g></g></g></svg>