<svg width="114" height="113" xmlns="http://www.w3.org/2000/svg" xmlns:xlink="http://www.w3.org/1999/xlink" overflow="hidden"><defs><clipPath id="clip0"><rect x="496" y="409" width="114" height="113"/></clipPath></defs><g clip-path="url(#clip0)" transform="translate(-496 -409)"><path d="M70.625 31.7813C70.625 42.1826 62.193 50.6146 51.7917 50.6146 41.3903 50.6146 32.9583 42.1826 32.9583 31.7813 32.9583 21.3799 41.3903 12.9479 51.7917 12.9479 62.193 12.9479 70.625 21.3799 70.625 31.7813Z" transform="matrix(1.00885 0 0 1 496 409)"/><path d="M58.8542 83.5729C58.8738 72.6418 66.7863 63.3239 77.5698 61.5332 74.2738 59.9549 70.8476 58.6647 67.3292 57.6771 62.2933 56.1356 57.0582 55.3423 51.7917 55.3229 46.5309 55.4137 41.3057 56.2054 36.2542 57.6771 29.6711 59.5982 23.462 62.6231 17.8917 66.6229 15.5693 68.4416 14.1864 71.2072 14.125 74.1562L14.125 92.9896 60.9611 92.9896C59.5771 90.0431 58.8578 86.8283 58.8542 83.5729Z" transform="matrix(1.00885 0 0 1 496 409)"/><path d="M81.2188 65.9167C71.4674 65.9167 63.5625 73.8216 63.5625 83.5729 63.5625 93.3242 71.4674 101.229 81.2188 101.229 90.9701 101.229 98.875 93.3242 98.875 83.5729 98.875 73.8216 90.9701 65.9167 81.2188 65.9167ZM89.4583 84.75 82.9844 84.75 82.9844 91.224 79.4531 91.224 79.4531 84.75 72.9792 84.75 72.9792 81.2188 79.4531 81.2188 79.4531 74.7448 82.9844 74.7448 82.9844 81.2188 89.4583 81.2188Z" transform="matrix(1.00885 0 0 1 496 409)"/></g></svg>