<svg width="50" height="49" xmlns="http://www.w3.org/2000/svg" xmlns:xlink="http://www.w3.org/1999/xlink" overflow="hidden"><defs><clipPath id="clip0"><rect x="703" y="392" width="50" height="49"/></clipPath></defs><g clip-path="url(#clip0)" transform="translate(-703 -392)"><path d="M42.875 15.8275 29.6042 15.8275 29.6042 12.2546C29.6008 11.1284 28.6887 10.2163 27.5625 10.2129L6.125 10.2129C4.99882 10.2163 4.0867 11.1284 4.08333 12.2546L4.08333 26.0399C4.0867 27.1661 4.99882 28.0782 6.125 28.0816L9.1875 28.0816 9.1875 33.1858 14.2917 28.0816 19.3958 28.0816 19.3958 31.6545C19.3992 32.7807 20.3113 33.6928 21.4375 33.6962L34.7083 33.6962 39.8125 38.8003 39.8125 33.6962 42.875 33.6962C44.0012 33.6928 44.9133 32.7807 44.9167 31.6545L44.9167 17.8697C44.9136 16.7433 44.0014 15.8309 42.875 15.8275ZM19.3958 17.8692 19.3958 27.0613 13.8701 27.0613 13.571 27.3604 10.2083 30.723 10.2083 27.0613 6.125 27.0613C5.56119 27.0613 5.10417 26.6042 5.10417 26.0404L5.10417 12.2551C5.10417 11.6913 5.56119 11.2343 6.125 11.2343L27.5625 11.2343C28.1263 11.2343 28.5833 11.6913 28.5833 12.2551L28.5833 15.828 21.4375 15.828C20.3113 15.8314 19.3992 16.7435 19.3958 17.8697ZM43.8958 31.6545C43.8958 32.2183 43.4388 32.6753 42.875 32.6753L38.7917 32.6753 38.7917 36.3371 35.4321 32.9729 35.133 32.6738 21.4375 32.6738C20.8737 32.6738 20.4167 32.2168 20.4167 31.653L20.4167 17.8697C20.4167 17.3059 20.8737 16.8489 21.4375 16.8489L42.875 16.8489C43.4388 16.8489 43.8958 17.3059 43.8958 17.8697Z" transform="matrix(1.02041 0 0 1 703 392)"/></g></svg>