<svg width="37" height="37" xmlns="http://www.w3.org/2000/svg" xmlns:xlink="http://www.w3.org/1999/xlink" overflow="hidden"><defs><clipPath id="clip0"><rect x="1178" y="564" width="37" height="37"/></clipPath></defs><g clip-path="url(#clip0)" transform="translate(-1178 -564)"><path d="M1207.72 569.396 1187.36 569.396 1183.4 573.363 1183.4 593.723C1183.4 594.761 1184.24 595.603 1185.28 595.604L1207.72 595.604C1208.76 595.603 1209.6 594.761 1209.6 593.723L1209.6 571.277C1209.6 570.239 1208.76 569.397 1207.72 569.396ZM1189.95 570.167 1203.05 570.167 1203.05 579.031C1203.05 579.244 1202.88 579.417 1202.67 579.417L1190.33 579.417C1190.12 579.417 1189.95 579.244 1189.95 579.031ZM1208.83 593.723C1208.83 594.336 1208.34 594.833 1207.72 594.833L1185.28 594.833C1184.66 594.833 1184.17 594.336 1184.17 593.723L1184.17 573.681 1187.68 570.167 1189.18 570.167 1189.18 579.031C1189.18 579.67 1189.69 580.188 1190.33 580.188L1202.67 580.188C1203.31 580.188 1203.82 579.67 1203.82 579.031L1203.82 570.167 1207.72 570.167C1208.34 570.167 1208.83 570.664 1208.83 571.277Z"/><path d="M1196.5 582.5C1194.16 582.5 1192.26 584.398 1192.26 586.74 1192.26 589.081 1194.16 590.979 1196.5 590.979 1198.84 590.979 1200.74 589.081 1200.74 586.74 1200.74 584.399 1198.84 582.503 1196.5 582.5ZM1196.5 590.208C1194.58 590.208 1193.03 588.655 1193.03 586.74 1193.03 584.824 1194.58 583.271 1196.5 583.271 1198.42 583.271 1199.97 584.824 1199.97 586.74 1199.97 588.654 1198.41 590.206 1196.5 590.208Z"/><path d="M1195.34 585.583 1197.66 585.583 1197.66 587.896 1195.34 587.896Z"/><path d="M1194.96 571.323 1191.88 571.323 1191.88 578.26 1194.96 578.26ZM1194.19 577.49 1192.65 577.49 1192.65 572.094 1194.19 572.094Z"/></g></svg>