<svg width="63" height="63" xmlns="http://www.w3.org/2000/svg" xmlns:xlink="http://www.w3.org/1999/xlink" overflow="hidden"><defs><clipPath id="clip0"><rect x="464" y="605" width="63" height="63"/></clipPath></defs><g clip-path="url(#clip0)" transform="translate(-464 -605)"><path d="M506 624.688C506 630.487 501.299 635.188 495.5 635.188 489.701 635.188 485 630.487 485 624.688 485 618.888 489.701 614.188 495.5 614.188 501.299 614.188 506 618.888 506 624.688Z"/><path d="M516.5 658.812 516.5 648.312C516.5 646.737 515.713 645.162 514.4 644.112 511.513 641.75 507.837 640.175 504.163 639.125 501.538 638.338 498.65 637.812 495.5 637.812 492.612 637.812 489.725 638.338 486.837 639.125 483.163 640.175 479.487 642.013 476.6 644.112 475.288 645.162 474.5 646.737 474.5 648.312L474.5 658.812 516.5 658.812Z"/></g></svg>