<svg width="48" height="48" xmlns="http://www.w3.org/2000/svg" xmlns:xlink="http://www.w3.org/1999/xlink" overflow="hidden"><defs><clipPath id="clip0"><rect x="567" y="390" width="48" height="48"/></clipPath></defs><g clip-path="url(#clip0)" transform="translate(-567 -390)"><path d="M604 398.15C604.3 398.4 604.55 398.65 604.85 398.9 606.5 398.2 607.5 397.3 607.5 396.25 607.5 393.15 599 391.5 591 391.5 583 391.5 574.5 393.15 574.5 396.25 574.5 397.3 575.5 398.2 577.15 398.9 577.45 398.65 577.7 398.4 578 398.15 576.4 397.5 575.5 396.85 575.5 396.25 575.5 394.7 581.4 392.5 591 392.5 600.6 392.5 606.5 394.7 606.5 396.25 606.5 396.85 605.65 397.55 604 398.15Z"/><path d="M591 433C601.5 433 610 424.5 610 414 610 403.5 601.5 395 591 395 580.5 395 572 403.5 572 414 572 424.5 580.5 433 591 433ZM591 396C600.95 396 609 404.05 609 414 609 423.95 600.95 432 591 432 581.05 432 573 423.95 573 414 573 404.05 581.05 396 591 396Z"/><path d="M582.05 421.2C581.85 421 581.55 420.95 581.35 421.15 581.15 421.3 581.1 421.6 581.25 421.85 585.55 427.25 593.4 428.1 598.8 423.8 599.5 423.2 600.15 422.55 600.75 421.85 600.9 421.65 600.9 421.3 600.65 421.15 600.45 421 600.1 421 599.95 421.25 596 426.15 588.8 426.95 583.85 423 583.15 422.45 582.55 421.85 582.05 421.2L582.05 421.2Z"/><path d="M579.55 412.5C579.8 412.6 580.1 412.45 580.15 412.15 580.15 412.15 580.15 412.15 580.15 412.15 580.75 410.15 582.85 409.05 584.85 409.65 586.05 410 586.95 410.95 587.35 412.15 587.45 412.4 587.7 412.55 587.95 412.5 588.2 412.45 588.35 412.15 588.3 411.9 588.3 411.9 588.3 411.9 588.3 411.9 587.55 409.4 584.85 408 582.35 408.75 580.85 409.2 579.65 410.4 579.2 411.9 579.15 412.1 579.3 412.4 579.55 412.5Z"/><path d="M594.05 412.5C594.3 412.6 594.6 412.45 594.65 412.15 594.65 412.15 594.65 412.15 594.65 412.15 595.25 410.15 597.35 409.05 599.35 409.65 600.55 410 601.45 410.95 601.85 412.15 601.95 412.4 602.2 412.55 602.45 412.5 602.7 412.4 602.85 412.15 602.8 411.9 602.8 411.9 602.8 411.9 602.8 411.9 602.05 409.4 599.35 408 596.85 408.75 595.35 409.2 594.15 410.4 593.7 411.9 593.65 412.1 593.8 412.4 594.05 412.5Z"/></g></svg>