<svg width="49" height="48" xmlns="http://www.w3.org/2000/svg" xmlns:xlink="http://www.w3.org/1999/xlink" overflow="hidden"><defs><clipPath id="clip0"><rect x="764" y="389" width="49" height="48"/></clipPath></defs><g clip-path="url(#clip0)" transform="translate(-764 -389)"><path d="M38.559 7 12.146 7 7 12.146 7 38.559C7.0014 39.9066 8.09345 40.9986 9.441 41L38.559 41C39.9066 40.9986 40.9986 39.9066 41 38.559L41 9.441C40.9986 8.09345 39.9066 7.0014 38.559 7ZM15.5 8 32.5 8 32.5 19.5C32.5 19.7761 32.2761 20 32 20L16 20C15.7239 20 15.5 19.7761 15.5 19.5ZM40 38.559C39.9991 39.3545 39.3545 39.9991 38.559 40L9.441 40C8.6455 39.9991 8.00085 39.3545 8 38.559L8 12.559 12.56 8 14.5 8 14.5 19.5C14.5 20.3284 15.1715 21 16 21L32 21C32.8284 21 33.5 20.3284 33.5 19.5L33.5 8 38.559 8C39.3545 8.00085 39.9991 8.6455 40 9.441Z" transform="matrix(1.02083 0 0 1 764 389)"/><path d="M24 24C20.9625 24 18.5 26.4625 18.5 29.5 18.5 32.5376 20.9625 35 24 35 27.0375 35 29.5 32.5376 29.5 29.5 29.4964 26.4639 27.0361 24.0036 24 24ZM24 34C21.5147 34 19.5 31.9853 19.5 29.5 19.5 27.0147 21.5147 25 24 25 26.4853 25 28.5 27.0147 28.5 29.5 28.497 31.9841 26.4841 33.9969 24 34Z" transform="matrix(1.02083 0 0 1 764 389)"/><path d="M22.5 28 25.5 28 25.5 31 22.5 31Z" transform="matrix(1.02083 0 0 1 764 389)"/><path d="M22 9.5 18 9.5 18 18.5 22 18.5ZM21 17.5 19 17.5 19 10.5 21 10.5Z" transform="matrix(1.02083 0 0 1 764 389)"/></g></svg>