<svg width="64" height="64" xmlns="http://www.w3.org/2000/svg" xmlns:xlink="http://www.w3.org/1999/xlink" overflow="hidden"><defs><clipPath id="clip0"><rect x="631" y="379" width="64" height="64"/></clipPath></defs><g clip-path="url(#clip0)" transform="translate(-631 -379)"><path d="M693.671 408.751 685.921 408.751 683.337 401.001 680.754 408.751 673.337 408.751 673.004 408.751 665.587 408.751 663.004 401.001 660.421 408.751 653.004 408.751 652.671 408.751 645.254 408.751 642.671 401.001 640.087 408.751 632.337 408.751 638.279 413.918 635.954 421.668 642.671 417.018 649.387 421.668 647.063 413.918 652.837 408.897 658.612 413.918 656.287 421.668 663.004 417.018 669.721 421.668 667.396 413.918 673.171 408.897 678.945 413.918 676.621 421.668 683.337 417.018 690.054 421.668 687.729 413.918 693.671 408.751Z"/></g></svg>