<svg id="Capa_1" enable-background="new 0 0 512 512" height="512" viewBox="0 0 512 512" width="512" xmlns="http://www.w3.org/2000/svg"><g><g id="Appointment"><g><path d="m0 122v330h321.2l-10.53-21.58c-5.75-11.79-8.67-24.72-8.67-38.42 0-49.63 40.37-90 90-90 13.7 0 26.63 2.92 38.42 8.67l21.58 10.53v-199.2l-226-36z" fill="#e5f6ff"/><path d="m0 32h452v90h-452z" fill="#ff7f66"/></g><g><path d="m301.194 392h-241.194v-210h332v119.194l-12.861 1.86c-39.185 5.625-70.459 36.899-76.084 76.084z" fill="#80bfff"/></g></g><g><path d="m60 0h30v92h-30z" fill="#4d5e80"/></g><g><path d="m120 0h30v92h-30z" fill="#4d5e80"/></g><g><path d="m272 0h30v92h-30z" fill="#3d4566"/></g><g><path d="m332 0h30v92h-30z" fill="#3d4566"/></g><g id="Appointment_1_"><g><path d="m0 122v330h321.2l-10.53-21.58c-5.75-11.79-8.67-24.72-8.67-38.42 0-49.63 40.37-90 90-90 13.7 0 26.63 2.92 38.42 8.67l21.58 10.53v-199.2l-226-36z" fill="#e5f6ff"/><path d="m226 452h95.2l-10.53-21.58c-5.75-11.79-8.67-24.72-8.67-38.42 0-49.63 40.37-90 90-90 13.7 0 26.63 2.92 38.42 8.67l21.58 10.53v-199.2l-226-36z" fill="#cce6ff"/><path d="m0 32h452v90h-452z" fill="#ff7f66"/></g><g><path d="m301.194 392h-241.194v-210h332v119.194l-12.861 1.86c-39.185 5.625-70.459 36.899-76.084 76.084z" fill="#80bfff"/></g><path d="m301.194 392 1.86-12.861c5.625-39.185 36.899-70.459 76.084-76.084l12.861-1.86v-119.195h-165.999v210z" fill="#69f"/></g><g><path d="m60 0h30v92h-30z" fill="#4d5e80"/></g><g><path d="m120 0h30v92h-30z" fill="#4d5e80"/></g><g><path d="m272 0h30v92h-30z" fill="#3d4566"/></g><g><path d="m332 0h30v92h-30z" fill="#3d4566"/></g><g><path d="m392 512c-64.751 0-120-52.666-120-120 0-66.481 54.762-120 120-120 67.699 0 120 55.552 120 120 0 66.167-53.833 120-120 120z" fill="#ff7f66"/></g><path d="m512 392c0-64.448-52.302-120-120-120v240c66.167 0 120-53.833 120-120z" fill="#f24949"/><path d="m392 482c-49.626 0-90-40.374-90-90 0-23.962 9.473-46.563 26.673-63.642 17.119-16.997 39.609-26.358 63.327-26.358 49.626 0 90 40.374 90 90s-40.374 90-90 90z" fill="#e5f6ff"/><path d="m482 392c0-49.626-40.374-90-90-90v180c49.626 0 90-40.374 90-90z" fill="#cce6ff"/><g><path d="m452 407h-75v-75h30v45h45z" fill="#4d5e80"/></g><path d="m407 332h-15v75h60v-30h-45z" fill="#3d4566"/><path d="m226 32h226v90h-226z" fill="#f24949"/></g></svg>