<svg id="icons" enable-background="new 0 0 64 64" height="512" viewBox="0 0 64 64" width="512" xmlns="http://www.w3.org/2000/svg"><g><g><path d="m32 46.11 5.38 2.819c-1.651.691-3.47 1.071-5.38 1.071-1.9 0-3.72-.38-5.37-1.07z" fill="#656d78"/></g><g><path d="m37.79 34.2-2.21 6.8h-7.16l-2.21-6.8 5.79-4.2z" fill="#656d78"/></g><g><path d="m43.859 28.57c1.171 1.859 1.921 4.02 2.091 6.34l-4.28 4.17 1.02 5.96c-1.43 1.68-3.239 3.03-5.31 3.89l-5.38-2.82-5.37 2.819c-2.07-.859-3.89-2.2-5.32-3.89l1.03-5.96-4.28-4.17h-.01c.17-2.32.92-4.48 2.1-6.34 2.47-3.949 6.85-6.569 11.85-6.569s9.38 2.62 11.859 6.57zm-8.279 12.43 2.21-6.8-5.79-4.2-5.79 4.2 2.21 6.8z" fill="#e6e9ed"/></g><g><path d="m47.59 27.01c-3.111-5.39-8.93-9.01-15.59-9.01s-12.48 3.62-15.59 9c-1.53 2.65-2.41 5.72-2.41 9s.87 6.35 2.41 9c1.58 2.729 3.859 5.01 6.59 6.59 2.649 1.54 5.72 2.41 9 2.41s6.35-.87 9-2.41c2.729-1.58 5.01-3.85 6.59-6.58 1.53-2.649 2.41-5.72 2.41-9v-.01c0-3.28-.87-6.35-2.41-8.99zm-4.901 18.03c-1.43 1.68-3.239 3.03-5.31 3.89-1.65.69-3.469 1.07-5.379 1.07-1.9 0-3.72-.38-5.37-1.07-2.07-.859-3.89-2.2-5.32-3.89-2.06-2.44-3.31-5.59-3.31-9.04 0-.37.01-.73.05-1.09.17-2.32.92-4.48 2.1-6.34 2.47-3.95 6.85-6.57 11.85-6.57s9.38 2.62 11.859 6.57c1.171 1.859 1.921 4.02 2.091 6.34.04.36.05.72.05 1.09 0 3.45-1.25 6.6-3.311 9.04z" fill="#ffce54"/></g><g><path d="m41.619 39.13 4.344-4.245c.146 1.782-.055 3.63-.645 5.446-.587 1.809-1.511 3.421-2.677 4.777z" fill="#656d78"/></g><g><path d="m37.952 27.824-2.694-5.442c1.741.41 3.436 1.173 4.98 2.296 1.538 1.116 2.787 2.493 3.717 4.022z" fill="#656d78"/></g><g><path d="m26.067 27.818-6.008.88c.928-1.528 2.177-2.904 3.723-4.026 1.536-1.118 3.232-1.88 4.974-2.292z" fill="#656d78"/></g><g><path d="m22.39 39.12-1.02 5.985c-1.167-1.355-2.09-2.968-2.68-4.785-.588-1.807-.789-3.655-.643-5.438z" fill="#656d78"/></g><path d="m31 18.034v.97c0 .553.447 1 1 1s1-.447 1-1v-.97c-.332-.018-.664-.034-1-.034s-.668.016-1 .034z" fill="#f6bb42"/><path d="m33 53.967v-.963c0-.553-.447-1-1-1s-1 .447-1 1v.963c.331.018.664.033 1 .033s.669-.015 1-.033z" fill="#f6bb42"/><g><path d="m23.5 22.281c-.346 0-.682-.18-.867-.5l-.499-.865c-.276-.479-.112-1.09.366-1.366.479-.277 1.09-.112 1.366.366l.499.865c.276.479.111 1.09-.366 1.366-.158.091-.329.134-.499.134z" fill="#f6bb42"/></g><g><path d="m41.001 52.594c-.346 0-.682-.179-.867-.5l-.501-.867c-.276-.478-.112-1.09.366-1.366.476-.276 1.089-.113 1.366.366l.501.867c.276.478.112 1.09-.366 1.366-.157.091-.329.134-.499.134z" fill="#f6bb42"/></g><g><path d="m17.274 28.504c-.17 0-.342-.043-.5-.135l-.864-.5c-.478-.276-.642-.888-.364-1.366.275-.479.886-.644 1.366-.364l.864.5c.478.276.642.888.364 1.366-.184.32-.52.499-.866.499z" fill="#f6bb42"/></g><g><path d="m47.587 46.006c-.17 0-.342-.043-.5-.135l-.867-.502c-.478-.276-.642-.889-.364-1.366.276-.478.886-.644 1.366-.364l.867.502c.478.276.642.889.364 1.366-.185.32-.52.499-.866.499z" fill="#f6bb42"/></g><g><path d="m14.998 37.004h-.999c-.553 0-1-.447-1-1s.447-1 1-1h.999c.553 0 1 .447 1 1s-.447 1-1 1z" fill="#f6bb42"/></g><g><path d="m50 37.006s-.001 0-.002 0l-1.002-.002c-.553-.001-.999-.449-.998-1.002.001-.552.448-.998 1-.998h.001l1.003.002c.553.001.999.449.998 1.002-.001.552-.448.998-1 .998z" fill="#f6bb42"/></g><g><path d="m16.411 46.004c-.346 0-.683-.18-.867-.501-.276-.479-.111-1.09.367-1.365l.865-.498c.479-.276 1.091-.111 1.365.367.276.479.111 1.09-.367 1.365l-.865.498c-.157.091-.329.134-.498.134z" fill="#f6bb42"/></g><g><path d="m46.722 28.506c-.346 0-.683-.18-.867-.501-.276-.479-.111-1.09.367-1.365l.868-.5c.479-.277 1.091-.111 1.365.367.276.479.111 1.09-.367 1.365l-.868.5c-.157.091-.329.134-.498.134z" fill="#f6bb42"/></g><g><path d="m22.997 52.594c-.17 0-.342-.043-.499-.134-.479-.276-.643-.889-.366-1.366l.5-.865c.276-.479.888-.642 1.366-.366.479.276.643.889.366 1.366l-.5.865c-.185.321-.521.5-.867.5z" fill="#f6bb42"/></g><g><path d="m40.497 22.283c-.17 0-.342-.043-.5-.135-.478-.276-.642-.889-.364-1.366l.502-.867c.276-.479.886-.644 1.366-.364.478.276.642.889.364 1.366l-.502.867c-.185.32-.52.499-.866.499z" fill="#f6bb42"/></g><g><path d="m52 5c2.21 0 4 1.79 4 4-1.101 0-2 .9-2 2v38.99c0 5.529-4.47 10-10 10h-9v.01c-1.66 0-3 1.34-3 3 0-1.66-1.34-3-3-3v-.01h-9c-5.53 0-10-4.471-10-10v-38.99c0-1.1-.891-2-2-2 0-2.21 1.79-4 4-4h16c2.21 0 4-1.79 4-4 0 2.21 1.79 4 4 4zm-2 31.01v-.01c0-3.28-.87-6.35-2.41-8.99-3.111-5.39-8.93-9.01-15.59-9.01s-12.48 3.62-15.59 9c-1.53 2.65-2.41 5.72-2.41 9s.87 6.35 2.41 9c1.58 2.729 3.859 5.01 6.59 6.59 2.649 1.54 5.72 2.41 9 2.41s6.35-.87 9-2.41c2.729-1.58 5.01-3.85 6.59-6.58 1.53-2.65 2.41-5.72 2.41-9z" fill="#656d78"/></g><g><path d="m44 12.003h-24c-.553 0-1-.447-1-1s.447-1 1-1h24c.553 0 1 .447 1 1s-.447 1-1 1z" fill="#545c66"/></g><g><path d="m37 15.003h-10c-.553 0-1-.447-1-1s.447-1 1-1h10c.553 0 1 .447 1 1s-.447 1-1 1z" fill="#545c66"/></g></g></svg>