<svg height="512" viewBox="0 0 58 37" width="512" xmlns="http://www.w3.org/2000/svg"><g id="Page-1" fill="none" fill-rule="evenodd"><g id="043---Goal"><path id="Rectangle" d="m2.426 29h52.574v7h-52.574z" fill="#4fba6f"/><path id="Shape" d="m54.4 20.184-2.9 2.9-3.086-3.084 7.633-7.633c.2599566-.2510745.3642126-.6228779.2726972-.9725073-.0915155-.3496295-.3645604-.6226744-.7141899-.7141899-.3496294-.0915154-.7214328.0127406-.9725073.2726972l-3.133 3.133-3.086-3.086 7-7c.3789722-.39237889.3735524-1.01608478-.0121814-1.40181858-.3857338-.38573379-1.0094397-.39115363-1.4018186-.01218142l-7 7-3.086-3.086 2.264-2.265c.2599566-.25107447.3642126-.62287789.2726972-.97250732-.0915155-.34962944-.3645604-.6226744-.7141899-.71418984-.3496294-.09151544-.7214328.01274058-.9725073.27269716l-2.264 2.265-2.9-2.9c-.3904653-.39156989-1.0244301-.39246532-1.416-.002s-.3924653 1.02443011-.002 1.416l2.9 2.9-3.082 3.086-3.086-3.086 2.542-2.542c.3789722-.39237889.3735524-1.01608478-.0121814-1.40181858-.3857338-.38573379-1.0094397-.39115363-1.4018186-.01218142l-2.542 2.542-2.876-2.876c-.3904999-.39038194-1.0235001-.39038194-1.414 0-.1139686.11850026-.1958766.26407625-.238.423-.0464963-.14129903-.1244542-.27020308-.228-.377-.3904999-.39038194-1.0235001-.39038194-1.414 0l-2.83 2.83-3.07-3.07c-.2245945-.23693254-.552866-.34573508-.8745125-.289849s-.5939775.26904331-.7254875.567849c-.02-.024-.028-.053-.05-.075-.3904999-.39038194-1.0235001-.39038194-1.414 0l-2.866 2.867-2.737-2.737c-.3923789-.37897221-1.0160848-.37355237-1.4018186.01218142-.3857338.3857338-.3911536 1.00943969-.0121814 1.40181858l2.737 2.737-3.086 3.086-6.4-6.4c-.25258677-.2533013-.62112121-.35260792-.96677996-.26051201s-.61592802.36160279-.709.707.00519319.71421071.25777996.96751201l6.4 6.4-3.082 3.086-3.14-3.14c-.25107447-.2599566-.62287789-.3642126-.97250732-.2726972-.34962944.0915155-.6226744.3645604-.71418984.7141899-.09151544.3496294.01274058.7214328.27269716.9725073l7.64 7.64-3.086 3.086-2.672-2.673c-.39237889-.3789722-1.01608478-.3735524-1.40181858.0121814-.38573379.3857338-.39115363 1.0094397-.01218142 1.4018186l3.378 3.379 2.794 2.794h-5.326c-.55228475 0-1 .4477153-1 1s.44771525 1 1 1h49.74c.5522847 0 1-.4477153 1-1s-.4477153-1-1-1h-3.586l6.4-6.4c.252944-.2525868.3519205-.6209306.259646-.96628-.0922746-.3453493-.3617814-.6152374-.707-.708-.3452186-.0927625-.713702.0056932-.966646.25828zm-4.314-4.684-3.086 3.086-3.086-3.086 3.086-3.086zm-19.672 4.5 3.086-3.086 3.086 3.086-3.086 3.086zm1.672 4.5-3.086 3.086-3.086-3.086 3.086-3.086zm-3.086-5.914-3.086-3.086 3.086-3.086 3.086 3.086zm-1.414 1.414-3.086 3.086-3.086-3.086 3.086-3.086zm-7.586-1.414-3.086-3.086 3.086-3.086 3.086 3.086zm-1.414 1.414-3.086 3.086-3.086-3.086 3.086-3.086zm1.414 1.414 3.086 3.086-3.086 3.086-3.086-3.086zm4.5 4.5 2.086 2.086h-4.172zm9 0 2.086 2.086h-4.172zm1.414-1.414 3.086-3.086 3.086 3.086-3.086 3.086zm4.5-4.5 3.086-3.086 3.086 3.086-3.086 3.086zm3.086-12.086 3.086 3.086-3.086 3.086-3.086-3.086zm-1.414 7.586-3.086 3.086-3.086-3.086 3.086-3.086zm-4.5-4.5-3.086 3.086-3.086-3.086 3.086-3.086zm-7.842-7.33c.1131152-.11897349.1945989-.26440654.237-.423.0466926.14143599.1250095.27036829.229.377l2.876 2.876-3.086 3.086-3.086-3.086zm-1.158 7.33-3.086 3.086-3.086-3.086 3.086-3.086zm-7.8-7.367c.0769325-.08154716.1394853-.17554531.185-.278.0153863.02583032.0320744.05086256.05.075l3.07 3.07-3.091 3.086-3.086-3.086zm-4.286 4.281 3.086 3.086-3.086 3.086-3.086-3.086zm-7.586 7.586 3.086-3.086 3.086 3.086-3.086 3.086zm3.086 5.914 3.086 3.086-3.086 3.086-3.086-3.086zm4.5 4.5 2.086 2.086h-4.172zm24.914 2.086 2.086-2.086 2.086 2.086zm6.586-.414-3.086-3.086 3.086-3.086 3.086 3.086z" fill="#bdc3c7" fill-rule="nonzero"/><path id="Path" d="m53 0h-49c-2.209139 0-4 1.790861-4 4v30c0 1.1045695.8954305 2 2 2h1c1.1045695 0 2-.8954305 2-2v-29h48v29c0 1.1045695.8954305 2 2 2h1c1.1045695 0 2-.8954305 2-2v-30c0-2.209139-1.790861-4-4-4z" fill="#3b97d3"/><g fill="#a56a43"><path id="Path" d="m42 37h-26c-.5522847 0-1-.4477153-1-1s.4477153-1 1-1h26c.5522847 0 1 .4477153 1 1s-.4477153 1-1 1z"/><path id="Path" d="m12 37h-4c-.55228475 0-1-.4477153-1-1s.44771525-1 1-1h4c.5522847 0 1 .4477153 1 1s-.4477153 1-1 1z"/><path id="Path" d="m50 37h-4c-.5522847 0-1-.4477153-1-1s.4477153-1 1-1h4c.5522847 0 1 .4477153 1 1s-.4477153 1-1 1z"/></g></g></g></svg>