<svg id="Capa_1" enable-background="new 0 0 512 512" height="512" viewBox="0 0 512 512" width="512" xmlns="http://www.w3.org/2000/svg"><g><g clip-rule="evenodd" fill-rule="evenodd"><path d="m256 504.517c86.401 0 156.844-28.744 156.844-63.979 0-35.234-70.442-63.95-156.844-63.95s-156.844 28.715-156.844 63.95c0 35.234 70.443 63.979 156.844 63.979z" fill="#95d6a4"/><path d="m256 376.587c86.628 0 156.844 28.63 156.844 63.95s-70.216 63.979-156.844 63.979c-4.082 0-8.135-.085-12.133-.199 80.96-2.523 144.711-30.104 144.711-63.781 0-33.647-63.751-61.257-144.711-63.78 3.998-.112 8.051-.169 12.133-.169z" fill="#78c2a4"/><path d="m256 7.512c86.628 0 156.844 70.215 156.844 156.843 0 84.615-67.013 201.234-150.863 271.278-3.74 3.289-7.738 3.374-11.99 0-83.822-70.044-150.835-186.663-150.835-271.278 0-86.628 70.216-156.843 156.844-156.843z" fill="#f37c7c"/><path d="m256 7.512c86.628 0 156.844 70.215 156.844 156.843 0 84.615-67.013 201.234-150.863 271.278-3.74 3.289-7.738 3.374-11.99 0-2.041-1.729-4.082-3.486-6.123-5.244 80.96-70.527 144.711-183.489 144.711-266.035s-63.752-150.181-144.712-156.388c3.998-.312 8.051-.454 12.133-.454z" fill="#eb5468"/><path d="m256 265.921c55.929 0 101.567-45.639 101.567-101.566 0-55.928-45.639-101.567-101.567-101.567s-101.565 45.639-101.565 101.567 45.636 101.566 101.565 101.566z" fill="#f9f7f8"/><path d="m256 62.788c56.099 0 101.567 45.469 101.567 101.567s-45.469 101.566-101.567 101.566c-4.109 0-8.164-.255-12.133-.737 50.373-5.981 89.435-48.841 89.435-100.829s-39.062-94.848-89.435-100.83c3.969-.482 8.024-.737 12.133-.737z" fill="#ebe8fa"/><path d="m263.285 98.533 36.029-26.05c-13.125-6.208-27.809-9.695-43.315-9.695-15.449 0-30.104 3.459-43.229 9.638l35.943 26.107v25.853l-30.84 22.422-23.358-7.597-14.004-42.804c-16.215 18-26.078 41.812-26.078 67.948 0 4.706.34 9.354.936 13.89l34.666-25.2 23.358 7.597 11.793 36.255-13.239 18.199h-43.936c14.484 25.115 39.457 43.427 68.911 49.04l-13.211-40.479 13.211-18.199h38.154l13.209 18.199-13.096 40.451c29.425-5.641 54.311-23.953 68.798-49.011h-43.938l-13.239-18.199 11.793-36.255 23.358-7.597 34.668 25.086c.623-4.507.936-9.099.936-13.776 0-26.107-9.865-49.891-26.051-67.891l-14.031 42.747-23.358 7.597-30.842-22.422v-25.854z" fill="#365e7d"/><g fill="#2b4d66"><path d="m243.867 63.525c16.441 1.957 31.691 7.853 44.76 16.697l10.688-7.739c-13.125-6.208-27.809-9.695-43.315-9.695-.482 0-.992 0-1.475.028-.084 0-.197 0-.311 0-3.485.057-6.944.284-10.347.709z"/><path d="m331.517 96.464-7.994 24.378c5.84 12.303 9.27 25.938 9.723 40.366l23.387 16.923c.623-4.507.936-9.099.936-13.776-.002-26.107-9.867-49.919-26.052-67.891z"/><path d="m343.989 215.096h-24.266c-9.723 16.809-24.151 30.614-41.472 39.544l-3.061 9.467c29.426-5.641 54.313-23.953 68.799-49.011z"/></g></g><path d="m256 55.305c30.103 0 57.374 12.189 77.103 31.918 19.758 19.757 31.947 47.027 31.947 77.132s-12.189 57.374-31.947 77.103c-19.729 19.758-46.999 31.947-77.103 31.947s-57.374-12.189-77.132-31.947c-19.729-19.729-31.918-46.998-31.918-77.103s12.189-57.374 31.918-77.132c19.758-19.729 47.028-31.918 77.132-31.918zm105.28 248.374c27.241-47.991 44.079-97.768 44.079-139.324 0-17.405-2.977-34.102-8.418-49.607-5.699-16.101-14.033-30.926-24.521-43.966-2.58-3.231-2.07-7.938 1.133-10.517 3.232-2.579 7.938-2.069 10.519 1.134 11.564 14.344 20.748 30.671 26.984 48.389 6.01 17.093 9.299 35.461 9.299 54.567 0 44.164-17.576 96.549-46.065 146.723-12.812 22.507-27.807 44.618-44.418 65.368 24.35 5.187 45.213 12.869 60.55 22.252 18.906 11.537 29.934 25.88 29.934 41.839 0 21.034-19.361 39.431-50.628 52.187-29.227 11.906-69.45 19.276-113.728 19.276-13.096 0-25.965-.652-38.438-1.899-12.814-1.304-24.946-3.203-36.227-5.641-4.055-.85-6.633-4.819-5.754-8.873.85-4.054 4.818-6.633 8.871-5.754 10.885 2.324 22.479 4.167 34.585 5.386 11.678 1.162 24.064 1.786 36.963 1.786 42.35 0 80.561-6.945 108.087-18.17 25.483-10.403 41.272-23.981 41.272-38.297 0-10.29-8.361-20.324-22.706-29.083-15.533-9.468-37.588-17.122-63.666-21.913-18.057 21.034-37.731 40.337-58.31 56.836-2.807 2.267-6.803 2.154-9.469-.085-20.551-16.47-40.167-35.745-58.196-56.75-26.107 4.79-48.131 12.444-63.666 21.913-14.345 8.759-22.706 18.793-22.706 29.083 0 7.002 3.883 13.862 10.857 20.325 8.135 7.512 20.239 14.287 35.349 19.927 3.883 1.417 5.84 5.727 4.393 9.61-1.416 3.855-5.725 5.811-9.609 4.394-16.865-6.293-30.671-14.117-40.28-22.989-10.092-9.326-15.705-19.899-15.705-31.267 0-15.959 11.027-30.302 29.906-41.839 15.364-9.383 36.2-17.065 60.577-22.252-16.611-20.75-31.635-42.861-44.418-65.368-28.489-50.174-46.066-102.559-46.066-146.723 0-45.383 18.398-86.486 48.134-116.222 29.737-29.738 70.838-48.135 116.222-48.135 19.105 0 37.475 3.288 54.567 9.298 17.717 6.236 34.045 15.421 48.389 26.986 3.203 2.58 3.713 7.285 1.133 10.517-2.58 3.203-7.285 3.713-10.516 1.134-13.039-10.488-27.865-18.85-43.967-24.52-15.505-5.443-32.202-8.419-49.606-8.419-41.244 0-78.577 16.725-105.62 43.739-27.015 27.042-43.739 64.375-43.739 105.62 0 41.557 16.838 91.334 44.079 139.324 26.646 46.914 63.583 92.665 105.28 127.22 41.697-34.554 78.634-80.306 105.28-127.22zm-39.373-150.408-23.132 7.54-11.707 36.029 13.097 18.028h35.178c7.795-12.189 12.842-26.306 14.287-41.471zm-27.753-6.718 23.132-7.512 11.254-34.583c-1.9-2.296-3.912-4.507-6.039-6.605-8.531-8.56-18.736-15.477-30.048-20.239l-28.941 21.033v25.654zm-6.094 77.132-13.096-18.028h-37.928l-13.098 18.028 10.488 32.23c6.918 1.644 14.146 2.494 21.572 2.494 7.428 0 14.654-.85 21.572-2.494zm-76.225-8.816 13.097-18.028-11.707-36.029-23.159-7.54-27.695 20.126c1.447 15.165 6.492 29.282 14.26 41.471zm-17.149-75.828 23.159 7.512 30.643-22.252v-25.654l-28.941-21.033c-11.312 4.762-21.517 11.679-30.048 20.239-2.127 2.098-4.139 4.309-6.039 6.605zm75.345 8.504-14.031-10.205-28.035 20.381 10.688 32.939h34.668l10.715-32.939zm-32.57-75.431 18.539 13.465 18.51-13.465c-5.98-1.191-12.16-1.814-18.51-1.814s-12.529.624-18.539 1.814zm101.681 48.19-7.115 21.827 17.547 12.728c-1.22-12.388-4.878-24.067-10.432-34.555zm-15.649 109.56h-21.713l-6.491 19.956c10.177-4.677 19.39-11.14 27.212-18.964.342-.312.652-.652.992-.992zm-106.78 19.985-6.493-19.985h-21.713c.311.34.65.681.992.992 7.822 7.824 17.008 14.288 27.214 18.993zm-54.314-94.99 17.547-12.728-7.088-21.827c-5.554 10.488-9.213 22.167-10.459 34.555z"/></g></svg>