<svg height="511pt" viewBox="-10 0 511 511.99959" width="511pt" xmlns="http://www.w3.org/2000/svg"><path d="m479.875 338.539062c6.902344-22.632812 10.625-46.648437 10.625-71.539062 0-135.308594-109.691406-245-245-245s-245 109.691406-245 245c0 24.890625 3.722656 48.90625 10.625 71.539062zm0 0" fill="#69d173"/><path d="m228.363281 1.066406c-51.28125 6.984375-56.152343 36.058594-56.175781 46.726563-.003906 2.238281-1.246094 4.3125-3.257812 5.289062-26.675782 12.976563-12.292969 75.515625-12.292969 75.515625 2.679687.179688 5.484375 1.265625 7.574219 2.277344.511718-3.1875 1.347656-6.324219 2.53125-9.355469.898437-2.3125 2.023437-4.648437 3.429687-6.851562 2.4375-3.828125 3.550781-8.34375 3.21875-12.855469-.960937-13.046875-.496094-38.757812 16.722656-46.503906 14.589844-6.566406 32.488281-2.765625 43.902344 1.03125 7.410156 2.464844 15.441406 2.464844 22.851563 0 11.414062-3.796875 29.3125-7.597656 43.902343-1.03125 17.171875 7.726562 17.679688 33.3125 16.730469 46.390625-.328125 4.550781.753906 9.109375 3.210938 12.96875 1.449218 2.277343 2.601562 4.691406 3.515624 7.074219 1.136719 2.964843 1.945313 6.023437 2.445313 9.132812 2.636719-1.277344 6.402344-2.667969 9.625-2.210938.394531-13.675781 1.65625-28.417968 1.65625-28.417968 15.199219-74.429688-54.375-106.703125-109.589844-99.179688zm0 0" fill="#a0391e"/><path d="m234.464844.40625c-2.046875.167969-4.085938.382812-6.101563.65625-51.28125 6.988281-56.152343 36.0625-56.175781 46.730469-.003906 2.238281-1.246094 4.308593-3.257812 5.289062-26.675782 12.976563-12.292969 75.515625-12.292969 75.515625 2.679687.179688 5.484375 1.265625 7.574219 2.277344 2.566406-15.96875 10.050781-17.179688 9.179687-29.0625-.960937-13.050781-.5-38.757812 16.722656-46.507812 12.78125-5.75 28.097657-3.546876 39.371094-.359376-19.636719-14.15625-16.902344-44.175781 4.980469-54.539062zm0 0" fill="#84260d"/><path d="m415.707031 392.214844-170.144531 60.988281-170.285156-60.988281h-40.375c42.734375 71.726562 121.042968 119.785156 210.597656 119.785156s167.863281-48.058594 210.597656-119.785156zm0 0" fill="#ebeaec"/><path d="m327.449219 289.980469h-12.117188c-21.765625 45.578125-69.890625 63.949219-69.890625 63.949219-42.5-17.828126-61.75-47.226563-69.652344-63.949219h-12.238281c-6.570312.523437-108.101562-20.28125-153.035156 46.515625 6.667969 22.585937 16.511719 43.804687 29 63.160156h45.371094l160.671875 57.546875 160.542968-57.546875h45.382813c12.480469-19.339844 22.316406-40.546875 28.988281-63.117188-44.945312-66.847656-146.453125-46.035156-153.023437-46.558593zm0 0" fill="#6c83e5"/><path d="m245.441406 353.929688s50.296875-19.195313 71.308594-67.03125c-2.445312-.65625-4.914062-1.28125-7.410156-1.855469-9.882813-9.882813-12.390625-28.617188-12.839844-41.726563-5.15625 6.007813-10.570312 11.03125-15.742188 15.046875-10.074218 7.824219-22.511718 12.074219-35.316406 12.074219-12.808594 0-25.242187-4.25-35.320312-12.074219-5.171875-4.015625-10.585938-9.039062-15.742188-15.046875-.449218 13.105469-2.957031 31.84375-12.839844 41.726563-2.414062.558593-4.804687 1.160156-7.175781 1.792969 6.882813 15.929687 25.769531 48.089843 71.078125 67.09375zm0 0" fill="#f9bd91"/><path d="m210.125 258.363281c-5.171875-4.015625-10.585938-9.039062-15.742188-15.046875-.453124 13.109375-2.957031 31.84375-12.839843 41.726563-2.417969.558593-4.804688 1.160156-7.175781 1.792969 4.523437 10.476562 14.242187 27.964843 33.242187 44.117187 19.464844-19.167969 27.320313-46.957031 30.199219-61.027344-10.0625-1.339843-19.628906-5.304687-27.683594-11.5625zm0 0" fill="#e5a876"/><path d="m342.0625 130.4375c-3.996094-3.660156-11.953125-1.804688-15.390625.4375.753906 4.691406.796875 9.492188.144531 14.234375l-4.058594 29.566406c0 2.382813-.074218 4.71875-.214843 7.019531 9.898437 2.984376 14.816406-5.902343 15.644531-12 .355469-2.625.9375-5.214843 1.75-7.738281 2.632812-8.222656 12.128906-22.347656 2.125-31.519531zm0 0" fill="#f9bd91"/><path d="m341.984375 130.4375c-4.066406-3.660156-12.160156-1.804688-15.660156.4375.765625 4.691406.808593 9.492188.148437 14.234375l-4.132812 29.566406c0 2.382813-.074219 4.71875-.214844 7.019531 10.070312 2.984376 15.074219-5.902343 15.917969-12 .363281-2.625.953125-5.214843 1.777343-7.738281 2.679688-8.222656 12.34375-22.347656 2.164063-31.519531zm0 0" fill="#f9bd91"/><path d="m310.25 278.09375c-3.652344-1.921875-8.140625-.175781-9.578125 3.695312-5.175781 13.933594-19.957031 43.320313-55.230469 54.640626l-.8125.417968.8125 31.128906c47.339844-15.113281 69.507813-45.480468 81.636719-78.027343-7.140625-3.605469-12.800781-9.734375-16.828125-11.855469zm0 0" fill="#ff5252"/><path d="m245.441406 336.429688c-35.277344-11.320313-50.054687-40.707032-55.230468-54.640626-1.4375-3.871093-5.925782-5.617187-9.582032-3.695312-4.023437 2.121094-9.683594 8.25-16.824218 11.855469 12.125 32.546875 34.296874 62.914062 81.636718 78.027343zm0 0" fill="#f44040"/><path d="m217.835938 432.757812c-2.511719.359376-4.378907 2.507813-4.378907 5.046876v21.8125c0 4.492187.953125 8.9375 2.871094 13.003906 3.652344 7.738281 11.738281 18.402344 29.230469 22.546875v-66.335938zm0 0" fill="#ffcb37"/><path d="m229.507812 467.574219c-7.144531 0-13.285156-4.257813-16.050781-10.371094v2.414063c0 4.492187.953125 8.9375 2.871094 13.003906 3.65625 7.738281 11.738281 18.402344 29.230469 22.546875v-37.964844c-2.765625 6.113281-8.90625 10.371094-16.050782 10.371094zm0 0" fill="#fcac1f"/><path d="m273.277344 432.757812c2.515625.359376 4.382812 2.507813 4.382812 5.046876v21.8125c0 4.492187-.953125 8.9375-2.871094 13.003906-3.652343 7.738281-11.738281 18.402344-29.230468 22.546875v-66.335938zm0 0" fill="#ff5252"/><path d="m261.609375 467.574219c-7.148437 0-13.285156-4.257813-16.050781-10.371094v37.964844c17.492187-4.144531 25.578125-14.808594 29.226562-22.546875 1.917969-4.066406 2.875-8.511719 2.875-13.003906v-2.414063c-2.765625 6.113281-8.90625 10.371094-16.050781 10.371094zm0 0" fill="#f44040"/><path d="m432.765625 298.625c-.03125.039062-42.980469 60.378906-19.800781 147.175781 31.367187-29.390625 55-66.9375 67.507812-109.261719-12.578125-18.707031-29.589844-30.546874-47.707031-37.914062zm0 0" fill="#4b68d1"/><path d="m58.222656 298.625c.027344.039062 42.976563 60.378906 19.796875 147.175781-31.363281-29.390625-54.996093-66.9375-67.503906-109.261719 12.578125-18.707031 29.589844-30.546874 47.707031-37.914062zm0 0" fill="#4b68d1"/><path d="m10.515625 336.539062c5.523437 18.703126 13.226563 36.46875 22.804687 53.011719 4.027344-55.078125 24.902344-90.925781 24.902344-90.925781-18.117187 7.367188-35.128906 19.207031-47.707031 37.914062zm0 0" fill="#3752a0"/><path d="m216.195312 319.980469c-14.945312-13.03125-22.566406-28.984375-25.984374-38.191407-1.4375-3.871093-5.925782-5.617187-9.582032-3.695312-4.023437 2.121094-9.683594 8.25-16.824218 11.855469 6.855468 18.398437 16.925781 36.097656 32.929687 50.742187-3.738281-12.011718 7.015625-23.738281 19.460937-20.710937zm0 0" fill="#e53636"/><path d="m324.5 159.210938-2.160156 15.464843c0 2.382813-.074219 4.722657-.214844 7.019531 10.070312 2.984376 15.074219-5.902343 15.917969-12 .777343-5.644531 2.203125-9.113281 3.570312-12.28125-4 5.585938-12.023437 6.410157-17.113281 1.796876zm0 0" fill="#e5a876"/><path d="m148.691406 130.4375c4.0625-3.660156 12.15625-1.804688 15.65625.4375-.765625 4.691406-.808594 9.492188-.148437 14.234375l4.132812 29.566406c0 2.382813.074219 4.71875.214844 7.019531-10.070313 2.984376-15.074219-5.902343-15.917969-12-.359375-2.625-.953125-5.214843-1.777344-7.738281-2.679687-8.222656-12.34375-22.347656-2.160156-31.519531zm0 0" fill="#f9bd91"/><path d="m166.171875 159.210938 2.160156 15.464843c0 2.382813.074219 4.722657.214844 7.019531-10.070313 2.984376-15.074219-5.902343-15.917969-12-.777344-5.644531-2.207031-9.113281-3.570312-12.28125 4 5.585938 12.023437 6.410157 17.113281 1.796876zm0 0" fill="#e5a876"/><path d="m324.222656 121.40625c-.917968-2.390625-2.070312-4.808594-3.523437-7.089844-2.464844-3.867187-3.546875-8.4375-3.21875-12.996094.949219-13.109374.441406-38.75-16.769531-46.496093-14.621094-6.578125-32.554688-2.769531-43.996094 1.035156-7.425782 2.46875-15.476563 2.46875-22.90625 0-11.4375-3.804687-29.371094-7.613281-43.992188-1.035156-17.257812 7.765625-17.722656 33.53125-16.761718 46.609375.332031 4.523437-.78125 9.046875-3.226563 12.882812-1.410156 2.210938-2.535156 4.550782-3.4375 6.867188-2.925781 7.511718-3.777344 15.660156-2.683594 23.636718l4.070313 29.636719c0 42.609375 22.746094 71.570313 42.089844 86.59375 10.097656 7.839844 22.5625 12.101563 35.394531 12.101563 12.835937 0 25.296875-4.261719 35.394531-12.101563 19.347656-15.023437 42.089844-43.984375 42.089844-86.59375l4.070312-29.628906c1.085938-7.902344.261719-15.96875-2.59375-23.421875zm0 0" fill="#fcd2ae"/><path d="m239.289062 261.050781c-14.496093-15.023437-31.539062-43.984375-31.539062-86.59375l-3.050781-29.636719c-.820313-7.980468-.179688-16.125 2.007812-23.640624.679688-2.3125 1.523438-4.652344 2.578125-6.863282 1.832032-3.835937 2.664063-8.359375 2.417969-12.886718-.722656-13.074219-.375-38.839844 12.558594-46.605469.695312-.417969 1.402343-.792969 2.117187-1.128907-10.933594-2.738281-24.816406-4.15625-36.5625 1.128907-17.261718 7.765625-17.722656 33.53125-16.761718 46.605469.332031 4.523437-.78125 9.050781-3.226563 12.886718-1.410156 2.210938-2.539063 4.550782-3.4375 6.863282-2.925781 7.515624-3.777344 15.660156-2.683594 23.640624l4.070313 29.636719c0 42.609375 22.746094 71.570313 42.089844 86.59375 10.097656 7.839844 22.5625 12.101563 35.394531 12.101563 3.972656 0 7.90625-.410156 11.75-1.207032-6.425781-1.777343-12.496094-5.480468-17.722657-10.894531zm0 0" fill="#f9bd91"/></svg>