<svg height="512" viewBox="0 0 301.245 282.292" width="512" xmlns="http://www.w3.org/2000/svg"><path d="m109.821 147.879h81.546v85.575h-81.546z" fill="#f9d7aa"/><g><path d="m109.821 147.879v13.799s15.975 36.47 48.199 36.47c15.466 0 26.275-6.074 33.346-12.392v-37.878h-81.545z" fill="#e8ac6b"/></g><path d="m209.672 107.603c.021-.628.032-1.256.032-1.884 0-39.038 11.392-83.083-57.908-83.73-.319-.006-1.548-.015-1.551-.015 0 0-1.233.009-1.552.015-69.299.647-57.908 44.692-57.908 83.73 0 .628.011 1.256.031 1.884s-.07 29.052 4.222 36.315 29.712 40.456 53.813 40.456c.022-.022 2.806-.023 2.83 0 24.1 0 49.521-33.193 53.813-40.456s4.222-36.315 4.222-36.315z" fill="#f9d7aa"/><path d="m301.245 250.959c0-29.333-27.333-40-40.333-42.667s-51-12.667-69.5-16.333c-10.767 17.591-36.276 24.693-40.789 25.831-4.512-1.138-30.022-8.24-40.789-25.831-18.5 3.667-56.5 13.667-69.5 16.333-13.001 2.667-40.334 13.334-40.334 42.667 20.667 9.333 70.212 31.333 150.606 31.333.006-.006.01-.011.016-.017.006.006.01.011.016.017 80.394 0 129.94-22 150.607-31.333z" fill="#fff"/><g><path d="m260.911 208.292c-13-2.667-51-12.667-69.5-16.333-10.767 17.591-36.276 24.693-40.789 25.831-4.512-1.138-30.022-8.24-40.789-25.831-18.5 3.667-56.5 13.667-69.5 16.333-13 2.667-40.333 13.334-40.333 42.667 3.751 1.694 8.468 3.809 14.134 6.13.259-9.863 2.419-15.235 2.419-15.235 1.514-3.981 4.159-7.4 8.024-10.447 7.272-5.732 16.206-7.894 18.771-8.42 5.955-1.221 16.247-3.747 28.165-6.671 10.829-2.657 22.729-5.577 32.274-7.725 14.503 15.47 36.069 21.954 43.168 23.744 1.204.303 2.435.455 3.667.455s2.464-.152 3.667-.455c22.205-5.599 35.626-15.937 43.049-23.771 9.564 2.15 21.519 5.083 32.393 7.752 11.918 2.924 22.21 5.45 28.165 6.671 2.565.526 11.499 2.688 18.771 8.42 3.866 3.047 6.51 6.467 8.024 10.447 0 0 1.504 7.069.942 15.835 6.328-2.557 11.539-4.891 15.611-6.73.001-29.333-27.333-40-40.333-42.667z" fill="#a5ccf2"/></g><path d="" fill="none" stroke="#dcb089" stroke-miterlimit="10"/><g fill="#a3928b"><path d="m209.82 117.442c-2.093.17-4.664 7.612-5.664 13.779s-10.911 7.302-16.661 12.052-12.25 6.75-14 4.75c-12.75-14.5-23.252-12.145-23.252-12.145-3.889-.605-10.139-2.355-22.889 12.145-1.75 2-8.25 0-14-4.75s-15.661-5.885-16.661-12.052-3.571-13.609-5.664-13.779c-1.093 1.33-.593 13.164 1.074 22.497 1.5 6.5 4.716 10.5 11.216 17.667s19.451 17.706 29.951 25.27c3.5 2.564 9.573 5.23 17.037 5.23.04-.04.077-.084.117-.125.04.041.077.085.117.125 7.463 0 13.537-2.667 17.037-5.23 10.5-7.564 23.451-18.103 29.951-25.27s9.716-11.167 11.216-17.667c1.668-9.334 2.168-21.167 1.075-22.497zm-43.702 44.33c-2.833 2.333-5.46 7.833-6.48 10-1.018 2.161-4.614 2.498-9.292 2.5-.006 0-.011 0-.017 0s-.011 0-.017 0c-4.678-.001-8.274-.338-9.292-2.5-1.02-2.167-3.646-7.667-6.48-10-2.833-2.333-4.833-6.833-3.333-8.5 6.138-9.53 18.354-12.329 19.102-12.492l.003-.008s.011.002.017.004c.005-.001.017-.004.017-.004l.003.008c.748.164 12.964 2.962 19.102 12.492 1.5 1.667-.5 6.167-3.333 8.5z"/><path d="m86.656 92.264c2.435.032 3.795 0 3.795 0s2.988 2.817 3.655 11.329c.698 2.231 3.167 3.012 4 .012s.25-14.083 3.75-18.333c1.5-3.25-7-25 2.5-35.5 2.25-3-6.75-10-12.25-4.75s-10.4 20.734-5.45 47.242z"/><path d="m213.796 92.264c-2.435.032-3.795 0-3.795 0s-2.988 2.817-3.655 11.329c-.698 2.231-3.167 3.012-4 .012s-.25-14.083-3.75-18.333c-1.5-3.25 7-25-2.5-35.5-2.25-3 6.75-10 12.25-4.75s10.4 20.734 5.45 47.242z"/></g><path d="m205.33 24.472s0 0 2.463-1.997 1.537-9.503-2-9.503c-7.537-.5-19.463-3-25.963-6-43.5-18.5-68.5 4.5-75.121 15.003-19.915 2.825-15.482 26.925-15.482 26.925 4.061 1.903 8.749 2.763 16.749 0s22.104-14.428 44.269-4.096c.009-.011.018-.021.027-.032.009.011.018.021.027.032 26.031-11.57 36.269 1.333 44.269 4.096s12.688 1.903 16.748 0c7.485-18.072-5.986-24.428-5.986-24.428z" fill="#3a2a1f"/><path d="m205.302 107.562 4.699-15.032s8.268-2.295 12.628 6.598-7.952 27.166-17.795 28.702c-2.729-6.956.468-20.268.468-20.268z" fill="#f9d7aa"/><path d="m95.346 107.562-4.699-15.032s-8.268-2.295-12.628 6.598 7.81 28.702 17.997 28.702c2.729-6.956-.67-20.268-.67-20.268z" fill="#f9d7aa"/></svg>