<svg id="icons" enable-background="new 0 0 64 64" height="512" viewBox="0 0 64 64" width="512" xmlns="http://www.w3.org/2000/svg"><g><g><g><path d="m44.592 50.249 1.41-1.421 2.83-2.819 1.41-1.42 11.58 11.58c1.57 1.561 1.57 4.1 0 5.66-1.561 1.56-4.09 1.561-5.65 0z" fill="#656d78"/></g><g><path d="m43.322 40.488 5.51 5.521-2.83 2.819-5.51-5.51c.51-.42 1-.87 1.48-1.35.479-.479.93-.969 1.35-1.48z" fill="#ccd1d9"/></g><g><path d="m25.001 46c11.591 0 21.001-9.411 21.001-21.001.001-11.6-9.41-21-21-21-11.6 0-21.01 9.399-21 21.001 0 11.599 9.4 20.999 20.999 21zm16.972-37.971c8.889 8.89 9.35 23.04 1.35 32.459-.42.511-.871 1.001-1.35 1.48-.48.479-.971.93-1.48 1.35-9.43 8.001-23.57 7.54-32.461-1.35-9.369-9.37-9.379-24.569 0-33.94 9.37-9.369 24.559-9.369 33.941.001z" fill="#e6e9ed"/></g><g><path d="m25.002 36.56 6.141 3.23c-1.891.788-3.961 1.219-6.141 1.219-2.17 0-4.24-.43-6.131-1.219z" fill="#656d78"/></g><g><path d="m38.551 16.52c1.352 2.129 2.201 4.6 2.4 7.249l-.01.001-4.891 4.759 1.172 6.8v.011c-1.631 1.931-3.711 3.47-6.08 4.451l-6.141-3.23-6.131 3.23c-2.369-.98-4.449-2.521-6.08-4.451-2.369-2.789-3.789-6.39-3.789-10.33 0-3.12.9-6.039 2.449-8.5l.01.01 6.71-.979 2.981-6.041v-.021c1.229-.309 2.52-.47 3.849-.47 5.723.001 10.732 3 13.551 7.511zm-9.649 13.489 2.42-7.409-6.32-4.591-6.311 4.59 2.41 7.411z" fill="#e6e9ed"/></g><g><path d="m31.322 22.6-2.42 7.409-7.8.001-2.411-7.411 6.311-4.59z" fill="#656d78"/></g><g><path d="m18.871 39.79c1.891.789 3.961 1.219 6.131 1.219 2.18 0 4.25-.431 6.141-1.219 2.369-.981 4.449-2.521 6.08-4.451v-.011c2.358-2.778 3.779-6.39 3.779-10.318 0-.42-.02-.83-.051-1.241-.199-2.649-1.049-5.12-2.4-7.249-2.818-4.511-7.828-7.51-13.55-7.511-1.329 0-2.62.161-3.849.47-4.07 1.011-7.531 3.571-9.701 7.03-1.549 2.461-2.449 5.38-2.449 8.5 0 3.94 1.42 7.541 3.789 10.33 1.631 1.931 3.711 3.471 6.08 4.451zm6.131-35.791c11.59 0 21.001 9.4 21 21 0 11.59-9.41 21.001-21.001 21.001-11.599-.001-20.999-9.401-20.999-21-.01-11.602 9.4-21.001 21-21.001z" fill="#5d9cec"/></g><g><path d="m35.99 28.584 4.969-4.841c.166 2.041-.063 4.142-.736 6.216-.67 2.065-1.721 3.9-3.056 5.453z" fill="#656d78"/></g><g><path d="m31.801 15.671-3.068-6.224c1.992.474 3.919 1.34 5.686 2.622 1.756 1.275 3.176 2.841 4.24 4.592z" fill="#656d78"/></g><g><path d="m18.225 15.663-6.865.996c1.064-1.749 2.484-3.316 4.25-4.598 1.754-1.275 3.684-2.143 5.676-2.614z" fill="#656d78"/></g><g><path d="m14.023 28.572-1.176 6.837c-1.334-1.554-2.387-3.387-3.059-5.462-.672-2.063-.898-4.166-.732-6.207z" fill="#656d78"/></g></g><g><g><path d="m45.299 50.541c-.256 0-.512-.098-.707-.293-.391-.391-.391-1.024 0-1.414l4.241-4.243c.391-.391 1.023-.391 1.414 0s.392 1.023 0 1.414l-4.241 4.243c-.194.194-.45.293-.707.293z" fill="#656d78"/></g></g></g></svg>