<svg width="78" height="78" xmlns="http://www.w3.org/2000/svg" xmlns:xlink="http://www.w3.org/1999/xlink" overflow="hidden"><defs><clipPath id="clip0"><rect x="553" y="599" width="78" height="78"/></clipPath></defs><g clip-path="url(#clip0)" transform="translate(-553 -599)"><path d="M579.812 624.025C579.812 628.064 576.539 631.338 572.5 631.338 568.461 631.338 565.188 628.064 565.188 624.025 565.188 619.986 568.461 616.713 572.5 616.713 576.539 616.713 579.812 619.986 579.812 624.025Z"/><path d="M618.812 624.025C618.812 628.064 615.539 631.338 611.5 631.338 607.461 631.338 604.188 628.064 604.188 624.025 604.188 619.986 607.461 616.713 611.5 616.713 615.539 616.713 618.812 619.986 618.812 624.025Z"/><path d="M606.625 659.287 606.625 651.975C606.625 650.838 606.138 649.7 605.162 649.05 603.213 647.425 600.612 646.287 598.013 645.638 596.225 645.15 594.112 644.662 592 644.662 590.05 644.662 587.938 644.987 585.987 645.638 583.388 646.287 580.95 647.588 578.838 649.05 577.862 649.862 577.375 650.838 577.375 651.975L577.375 659.287 606.625 659.287Z"/><path d="M599.312 635.4C599.312 639.439 596.039 642.713 592 642.713 587.961 642.713 584.688 639.439 584.688 635.4 584.688 631.361 587.961 628.088 592 628.088 596.039 628.088 599.312 631.361 599.312 635.4Z"/><path d="M624.662 637.675C622.713 636.05 620.112 634.912 617.513 634.263 615.725 633.775 613.612 633.287 611.5 633.287 609.55 633.287 607.438 633.612 605.487 634.263 604.513 634.588 603.537 634.912 602.562 635.4L602.562 635.562C602.562 638.325 601.425 640.925 599.638 642.713 602.725 643.688 605.162 644.987 607.112 646.45 607.6 646.938 608.088 647.263 608.412 647.912L626.125 647.912 626.125 640.6C626.125 639.463 625.638 638.325 624.662 637.675Z"/><path d="M576.888 646.45 576.888 646.45C579.162 644.825 581.763 643.525 584.362 642.713 582.575 640.763 581.438 638.325 581.438 635.562 581.438 635.4 581.438 635.4 581.438 635.237 580.463 634.912 579.487 634.425 578.513 634.263 576.725 633.775 574.612 633.287 572.5 633.287 570.55 633.287 568.438 633.612 566.487 634.263 563.888 635.075 561.45 636.213 559.338 637.675 558.362 638.325 557.875 639.463 557.875 640.6L557.875 647.912 575.425 647.912C575.912 647.263 576.237 646.938 576.888 646.45Z"/></g></svg>