<svg id="Layer_1" enable-background="new 0 0 512 512" height="512" viewBox="0 0 512 512" width="512" xmlns="http://www.w3.org/2000/svg"><g><path d="m488.277 345.122c8.249-24.537 12.725-50.807 12.725-78.124 0-135.311-109.691-245.002-245.002-245.002s-245.002 109.691-245.002 245.002c0 27.317 4.476 53.587 12.725 78.124z" fill="#73c3f9"/><path d="m462.825 15.284h-264.523l3.466 62.942s-8.511 6.236-2.627 14.922v61.015l5.255 30.287s-43.572 56.751 0 109.217c0 0-9.683 24.416-9.683 45.082 0 20.667 9.683 42.315 9.683 42.315s-46.129 44.292 0 109.238l-4.99 15.064 9.487 2.103c15.245 2.971 30.994 4.531 47.107 4.531s31.862-1.56 47.106-4.529l12.208-2.706c75.668-18.818 137.431-72.81 166.93-143.616v-326.446c.001-10.725-8.694-19.419-19.419-19.419z" fill="#92c357"/><path d="m29.755 34.703v326.446c29.499 70.805 91.261 124.796 166.927 143.615l4.587 1.017 5.127-15.477c-46.129-64.947 0-109.238 0-109.238s-9.683-21.648-9.683-42.315 9.683-45.082 9.683-45.082c-43.572-52.466 0-109.217 0-109.217l-5.255-30.287v-61.017c-5.884-8.686 2.627-14.922 2.627-14.922l-3.466-62.942h-151.127c-10.725 0-19.42 8.694-19.42 19.419z" fill="#6faf46"/><g><path d="m353.332 145.644h-194.665c-8.365 0-15.171-6.805-15.171-15.171v-112.132c0-3.332 2.701-6.032 6.032-6.032s6.032 2.7 6.032 6.032v112.132c0 1.713 1.394 3.107 3.107 3.107h194.665c1.713 0 3.107-1.393 3.107-3.107v-112.891c0-3.332 2.701-6.032 6.032-6.032 3.332 0 6.032 2.7 6.032 6.032v112.891c0 8.366-6.805 15.171-15.171 15.171z" fill="#d3dcfb"/></g><g><path d="m308.232 78.226h-104.464c-6.232 0-11.302-5.07-11.302-11.302v-49.342c0-3.332 2.701-6.032 6.032-6.032 3.332 0 6.032 2.7 6.032 6.032v48.58h102.94v-48.391c0-3.332 2.7-6.032 6.032-6.032s6.032 2.7 6.032 6.032v49.153c0 6.232-5.07 11.302-11.302 11.302z" fill="#e9efff"/></g><g><path d="m256 206.893c-36.47 0-66.141-29.671-66.141-66.141 0-3.332 2.701-6.032 6.032-6.032 3.332 0 6.032 2.7 6.032 6.032 0 29.819 24.259 54.077 54.077 54.077s54.077-24.259 54.077-54.077c0-3.332 2.701-6.032 6.032-6.032s6.032 2.7 6.032 6.032c0 36.47-29.671 66.141-66.141 66.141z" fill="#e9efff"/></g><g><path d="m480.202 343.398h-448.404c-3.332 0-6.032-2.7-6.032-6.032s2.701-6.032 6.032-6.032h448.405c3.332 0 6.032 2.7 6.032 6.032s-2.701 6.032-6.033 6.032z" fill="#d3dcfb"/></g><g><path d="m256 403.507c-36.47 0-66.141-29.67-66.141-66.14s29.671-66.141 66.141-66.141 66.141 29.671 66.141 66.141-29.671 66.14-66.141 66.14zm0-120.217c-29.818 0-54.077 24.259-54.077 54.076 0 29.818 24.259 54.076 54.077 54.076s54.077-24.259 54.077-54.076c0-29.818-24.259-54.076-54.077-54.076z" fill="#e9efff"/></g><path d="m256 467.839c-25.986 0-48.509 15.07-59.318 36.924 4.032 1.003 8.103 1.907 12.212 2.707 9.288-16.438 26.917-27.567 47.106-27.567s37.818 11.129 47.106 27.567c4.108-.8 8.179-1.704 12.212-2.707-10.809-21.854-33.332-36.924-59.318-36.924z" fill="#e9efff"/><g><path d="m478.255 59.308c-20.808 0-37.737-16.929-37.737-37.737 0-3.332 2.7-6.032 6.032-6.032s6.032 2.7 6.032 6.032c0 14.156 11.517 25.673 25.673 25.673 3.332 0 6.032 2.701 6.032 6.032s-2.7 6.032-6.032 6.032z" fill="#d3dcfb"/></g><g><path d="m34.926 59.308c-3.332 0-6.032-2.7-6.032-6.032s2.701-6.032 6.032-6.032c14.156 0 25.673-11.517 25.673-25.673 0-3.332 2.7-6.032 6.032-6.032s6.032 2.7 6.032 6.032c-.001 20.808-16.929 37.737-37.737 37.737z" fill="#d3dcfb"/></g><g><path d="m257.582 110.434h-3.163c-3.332 0-6.032-2.7-6.032-6.032s2.7-6.032 6.032-6.032h3.163c3.332 0 6.032 2.701 6.032 6.032s-2.701 6.032-6.032 6.032z" fill="#e9efff"/></g><g><path d="m256 352.166c-3.332 0-6.032-2.7-6.032-6.032v-17.73c0-3.332 2.7-6.032 6.032-6.032s6.032 2.7 6.032 6.032v17.73c0 3.332-2.7 6.032-6.032 6.032z" fill="#d3dcfb"/></g><path d="m488.277 345.122v-310.419c0-14.034-11.418-25.452-25.452-25.452h-413.65c-14.034 0-25.451 11.418-25.451 25.452v310.419c3.395 10.099 7.437 19.899 12.064 29.361v-339.78c0-7.382 6.005-13.388 13.387-13.388h413.651c7.382 0 13.387 6.006 13.387 13.388v339.78c4.627-9.462 8.669-19.262 12.064-29.361z" fill="#e9efff"/><path d="m257.723 38.286s4.718-24.165 0-28.883c-4.445-4.445-.517-8.858-.046-9.355-.555-.03-1.114-.048-1.677-.048-16.849 0-30.508 13.658-30.508 30.507 0 8.097 3.16 15.451 8.306 20.912h41.878z" fill="#3c58a0"/><path d="m256 9.403c4.718 4.718 0 28.883 0 28.883l17.953 13.134h4.249c5.146-5.461 8.306-12.816 8.306-20.912 0-16.85-13.659-30.508-30.508-30.508 0 0-4.718 4.685 0 9.403z" fill="#4f71b6"/><ellipse cx="256" cy="22.782" fill="#ffc7ab" rx="13.379" ry="13.379" transform="matrix(.23 -.973 .973 .23 175.011 266.699)"/><path d="m277.848 49.71c-.227-1.097-.421-2.202-.551-3.316-.253-2.165-1.389-7.217-6.503-8.861-5.556-1.786-11.975-2.551-18.368-2.111-3.473 1.976-8.117 5.615-8.117 10.942v12.316c3.601 1.498 7.547 2.335 11.691 2.335 8.752 0 16.638-3.691 22.201-9.596z" fill="#ffdd40"/><path d="m241.206 37.533c-5.114 1.644-6.25 6.696-6.503 8.861-.13 1.113-.324 2.218-.551 3.316l-.354 1.71c3.343 3.548 7.529 6.288 12.234 7.917 0-3.439 0-8.301 0-12.973 0-5.416 4.798-9.084 8.288-11.037-4.442.142-8.913.856-13.114 2.206z" fill="#ffb332"/><g><path d="m93.148 131.433s4.718-24.165 0-28.883c-4.445-4.445-.516-8.858-.046-9.355-.555-.03-1.114-.048-1.677-.048-16.849 0-30.507 13.659-30.507 30.507 0 8.097 3.16 15.451 8.306 20.912h41.878z" fill="#3c58a0"/><path d="m91.424 102.551c4.718 4.718 0 28.883 0 28.883l17.953 13.134h4.249c5.146-5.461 8.306-12.816 8.306-20.912 0-16.849-13.659-30.507-30.508-30.507 0-.001-4.718 4.684 0 9.402z" fill="#4f71b6"/><ellipse cx="91.424" cy="115.93" fill="#ffc7ab" rx="13.379" ry="13.379" transform="matrix(.23 -.973 .973 .23 -42.409 178.273)"/><path d="m113.272 142.857c-.227-1.097-.421-2.202-.551-3.316-.253-2.165-1.389-7.217-6.503-8.861-5.556-1.786-11.975-2.55-18.368-2.111-3.473 1.976-8.117 5.615-8.117 10.942v12.316c3.601 1.498 7.547 2.335 11.691 2.335 8.753 0 16.638-3.691 22.201-9.596z" fill="#ff7186"/><path d="m76.63 130.681c-5.114 1.644-6.25 6.697-6.503 8.861-.13 1.113-.324 2.218-.551 3.316l-.354 1.71c3.343 3.548 7.529 6.288 12.234 7.917 0-3.439 0-8.302 0-12.973 0-5.416 4.798-9.084 8.288-11.037-4.441.142-8.912.855-13.114 2.206z" fill="#ff4155"/></g><g><path d="m202.865 131.433s4.718-24.165 0-28.883c-4.445-4.445-.517-8.858-.046-9.355-.555-.03-1.114-.048-1.677-.048-16.849 0-30.508 13.659-30.508 30.507 0 8.097 3.16 15.451 8.306 20.912h41.878z" fill="#3c58a0"/><path d="m201.141 102.551c4.718 4.718 0 28.883 0 28.883l17.953 13.134h4.249c5.146-5.461 8.306-12.816 8.306-20.912 0-16.849-13.659-30.507-30.508-30.507 0-.001-4.718 4.684 0 9.402z" fill="#4f71b6"/><ellipse cx="201.141" cy="115.93" fill="#ffc7ab" rx="13.379" ry="13.379" transform="matrix(.23 -.973 .973 .23 42.1 285.055)"/><path d="m222.989 142.857c-.227-1.097-.421-2.202-.551-3.316-.253-2.165-1.389-7.217-6.503-8.861-5.555-1.786-11.975-2.55-18.368-2.111-3.473 1.976-8.117 5.615-8.117 10.942v12.316c3.601 1.498 7.547 2.335 11.691 2.335 8.752 0 16.638-3.691 22.201-9.596z" fill="#ff7186"/><path d="m186.347 130.681c-5.114 1.644-6.25 6.697-6.503 8.861-.13 1.113-.324 2.218-.551 3.316l-.354 1.71c3.343 3.548 7.529 6.288 12.234 7.917 0-3.439 0-8.302 0-12.973 0-5.416 4.798-9.084 8.287-11.037-4.441.142-8.911.855-13.113 2.206z" fill="#ff4155"/></g><g><path d="m312.582 131.433s4.718-24.165 0-28.883c-4.445-4.445-.517-8.858-.046-9.355-.555-.03-1.114-.048-1.677-.048-16.849 0-30.507 13.659-30.507 30.507 0 8.097 3.16 15.451 8.306 20.912h41.878z" fill="#3c58a0"/><path d="m310.858 102.551c4.718 4.718 0 28.883 0 28.883l17.953 13.134h4.249c5.146-5.461 8.306-12.816 8.306-20.912 0-16.849-13.659-30.507-30.508-30.507 0-.001-4.718 4.684 0 9.402z" fill="#4f71b6"/><ellipse cx="310.858" cy="115.93" fill="#ffc7ab" rx="13.379" ry="13.379" transform="matrix(.23 -.973 .973 .23 126.609 391.837)"/><path d="m332.706 142.857c-.227-1.097-.421-2.202-.551-3.316-.253-2.165-1.389-7.217-6.503-8.861-5.556-1.786-11.975-2.55-18.368-2.111-3.473 1.976-8.117 5.615-8.117 10.942v12.316c3.601 1.498 7.547 2.335 11.691 2.335 8.753 0 16.638-3.691 22.202-9.596z" fill="#ff7186"/><path d="m296.064 130.681c-5.114 1.644-6.25 6.697-6.503 8.861-.13 1.113-.324 2.218-.551 3.316l-.354 1.71c3.343 3.548 7.529 6.288 12.234 7.917 0-3.439 0-8.302 0-12.973 0-5.416 4.798-9.084 8.288-11.037-4.442.142-8.912.855-13.114 2.206z" fill="#ff4155"/></g><g><path d="m422.299 131.433s4.718-24.165 0-28.883c-4.445-4.445-.516-8.858-.046-9.355-.555-.03-1.114-.048-1.677-.048-16.849 0-30.508 13.659-30.508 30.507 0 8.097 3.16 15.451 8.306 20.912h41.878z" fill="#3c58a0"/><path d="m420.575 102.551c4.718 4.718 0 28.883 0 28.883l17.953 13.134h4.249c5.146-5.461 8.306-12.816 8.306-20.912 0-16.849-13.659-30.507-30.508-30.507 0-.001-4.718 4.684 0 9.402z" fill="#4f71b6"/><ellipse cx="420.575" cy="115.93" fill="#ffc7ab" rx="13.379" ry="13.379" transform="matrix(.924 -.383 .383 .924 -12.35 169.772)"/><path d="m442.423 142.857c-.227-1.097-.421-2.202-.551-3.316-.253-2.165-1.389-7.217-6.503-8.861-5.556-1.786-11.975-2.55-18.368-2.111-3.473 1.976-8.117 5.615-8.117 10.942v12.316c3.601 1.498 7.547 2.335 11.691 2.335 8.752 0 16.638-3.691 22.201-9.596z" fill="#ff7186"/><path d="m405.781 130.681c-5.114 1.644-6.25 6.697-6.503 8.861-.13 1.113-.324 2.218-.551 3.316l-.354 1.71c3.343 3.548 7.529 6.288 12.234 7.917 0-3.439 0-8.302 0-12.973 0-5.416 4.798-9.084 8.287-11.037-4.441.142-8.912.855-13.113 2.206z" fill="#ff4155"/></g><g><path d="m148.006 218.554s4.718-24.165 0-28.883c-4.445-4.445-.517-8.858-.046-9.355-.555-.03-1.114-.048-1.677-.048-16.849 0-30.507 13.659-30.507 30.508 0 8.096 3.16 15.451 8.306 20.912h41.878z" fill="#3c58a0"/><path d="m146.283 189.671c4.718 4.718 0 28.883 0 28.883l17.953 13.134h4.249c5.146-5.461 8.306-12.816 8.306-20.912 0-16.849-13.659-30.508-30.508-30.508 0 0-4.718 4.685 0 9.403z" fill="#4f71b6"/><ellipse cx="146.283" cy="203.05" fill="#ffc7ab" rx="13.379" ry="13.379" transform="matrix(.23 -.973 .973 .23 -84.945 298.768)"/><path d="m168.13 229.978c-.227-1.097-.421-2.202-.551-3.316-.253-2.165-1.389-7.217-6.503-8.861-5.556-1.786-11.975-2.55-18.368-2.111-3.473 1.976-8.117 5.615-8.117 10.942v12.316c3.601 1.498 7.547 2.335 11.691 2.335 8.753 0 16.638-3.691 22.201-9.596z" fill="#ff7186"/><path d="m131.489 217.801c-5.114 1.644-6.25 6.697-6.503 8.861-.13 1.113-.324 2.218-.551 3.316l-.354 1.71c3.343 3.548 7.529 6.288 12.234 7.917 0-3.439 0-8.302 0-12.973 0-5.416 4.798-9.084 8.288-11.037-4.442.142-8.913.856-13.114 2.206z" fill="#ff4155"/></g><g><path d="m257.723 218.554s4.718-24.165 0-28.883c-4.445-4.445-.517-8.858-.046-9.355-.556-.03-1.114-.048-1.677-.048-16.849 0-30.507 13.659-30.507 30.508 0 8.096 3.16 15.451 8.306 20.912h41.878z" fill="#3c58a0"/><path d="m256 189.671c4.718 4.718 0 28.883 0 28.883l17.953 13.134h4.249c5.146-5.461 8.306-12.816 8.306-20.912 0-16.849-13.659-30.508-30.508-30.508 0 0-4.718 4.685 0 9.403z" fill="#4f71b6"/><ellipse cx="256" cy="203.05" fill="#ffc7ab" rx="13.379" ry="13.379" transform="matrix(.23 -.973 .973 .23 -.435 405.55)"/><path d="m277.848 229.978c-.227-1.097-.421-2.202-.551-3.316-.253-2.165-1.389-7.217-6.503-8.861-5.556-1.786-11.975-2.55-18.368-2.111-3.473 1.976-8.117 5.615-8.117 10.942v12.316c3.601 1.498 7.547 2.335 11.691 2.335 8.753 0 16.638-3.691 22.201-9.596z" fill="#ff7186"/><path d="m241.206 217.801c-5.114 1.644-6.25 6.697-6.503 8.861-.13 1.113-.324 2.218-.551 3.316l-.354 1.71c3.343 3.548 7.529 6.288 12.234 7.917 0-3.439 0-8.302 0-12.973 0-5.416 4.798-9.084 8.288-11.037-4.442.142-8.913.856-13.114 2.206z" fill="#ff4155"/></g><g><path d="m367.44 218.554s4.718-24.165 0-28.883c-4.445-4.445-.517-8.858-.046-9.355-.555-.03-1.114-.048-1.677-.048-16.849 0-30.508 13.659-30.508 30.508 0 8.096 3.16 15.451 8.306 20.912h41.877z" fill="#3c58a0"/><path d="m365.717 189.671c4.718 4.718 0 28.883 0 28.883l17.953 13.134h4.249c5.146-5.461 8.306-12.816 8.306-20.912 0-16.849-13.659-30.508-30.508-30.508 0 0-4.718 4.685 0 9.403z" fill="#4f71b6"/><ellipse cx="365.717" cy="203.05" fill="#ffc7ab" rx="13.379" ry="13.379" transform="matrix(.23 -.973 .973 .23 84.074 512.332)"/><path d="m387.564 229.978c-.227-1.097-.421-2.202-.551-3.316-.253-2.165-1.389-7.217-6.503-8.861-5.556-1.786-11.975-2.55-18.368-2.111-3.473 1.976-8.117 5.615-8.117 10.942v12.316c3.601 1.498 7.547 2.335 11.691 2.335 8.753 0 16.638-3.691 22.201-9.596z" fill="#ff7186"/><path d="m350.923 217.801c-5.114 1.644-6.25 6.697-6.503 8.861-.13 1.113-.324 2.218-.551 3.316l-.354 1.71c3.343 3.548 7.529 6.288 12.234 7.917 0-3.439 0-8.302 0-12.973 0-5.416 4.798-9.084 8.287-11.037-4.441.142-8.912.856-13.113 2.206z" fill="#ff4155"/></g><g><path d="m148.006 305.674s4.718-24.165 0-28.883c-4.445-4.445-.517-8.858-.046-9.355-.555-.03-1.114-.048-1.677-.048-16.849 0-30.507 13.658-30.507 30.507 0 8.097 3.16 15.451 8.306 20.912h41.878z" fill="#3c58a0"/><path d="m146.283 276.792c4.718 4.718 0 28.883 0 28.883l17.953 13.134h4.249c5.146-5.461 8.306-12.816 8.306-20.912 0-16.849-13.659-30.507-30.508-30.507 0-.001-4.718 4.683 0 9.402z" fill="#4f71b6"/><ellipse cx="146.283" cy="290.171" fill="#ffc7ab" rx="13.379" ry="13.379" transform="matrix(.23 -.973 .973 .23 -169.734 365.872)"/><path d="m168.13 317.098c-.227-1.097-.421-2.202-.551-3.316-.253-2.165-1.389-7.217-6.503-8.861-5.556-1.786-11.975-2.551-18.368-2.111-3.473 1.976-8.117 5.615-8.117 10.942v12.316c3.601 1.498 7.547 2.335 11.691 2.335 8.753 0 16.638-3.691 22.201-9.596z" fill="#ff7186"/><path d="m131.489 304.922c-5.114 1.644-6.25 6.697-6.503 8.861-.13 1.113-.324 2.218-.551 3.316l-.354 1.71c3.343 3.548 7.529 6.288 12.234 7.917 0-3.439 0-8.301 0-12.973 0-5.416 4.798-9.084 8.288-11.037-4.442.141-8.913.855-13.114 2.206z" fill="#ff4155"/></g><g><path d="m257.723 305.674s4.718-24.165 0-28.883c-4.445-4.445-.517-8.858-.046-9.355-.556-.03-1.114-.048-1.677-.048-16.849 0-30.507 13.658-30.507 30.507 0 8.097 3.16 15.451 8.306 20.912h41.878z" fill="#3c58a0"/><path d="m256 276.792c4.718 4.718 0 28.883 0 28.883l17.953 13.134h4.249c5.146-5.461 8.306-12.816 8.306-20.912 0-16.849-13.659-30.507-30.508-30.507 0-.001-4.718 4.683 0 9.402z" fill="#4f71b6"/><ellipse cx="256" cy="290.171" fill="#ffc7ab" rx="13.379" ry="13.379" transform="matrix(.23 -.973 .973 .23 -85.225 472.654)"/><path d="m277.848 317.098c-.227-1.097-.421-2.202-.551-3.316-.253-2.165-1.389-7.217-6.503-8.861-5.556-1.786-11.975-2.551-18.368-2.111-3.473 1.976-8.117 5.615-8.117 10.942v12.316c3.601 1.498 7.547 2.335 11.691 2.335 8.753 0 16.638-3.691 22.201-9.596z" fill="#ff7186"/><path d="m241.206 304.922c-5.114 1.644-6.25 6.697-6.503 8.861-.13 1.113-.324 2.218-.551 3.316l-.354 1.71c3.343 3.548 7.529 6.288 12.234 7.917 0-3.439 0-8.301 0-12.973 0-5.416 4.798-9.084 8.288-11.037-4.442.141-8.913.855-13.114 2.206z" fill="#ff4155"/></g><g><path d="m367.44 305.674s4.718-24.165 0-28.883c-4.445-4.445-.517-8.858-.046-9.355-.555-.03-1.114-.048-1.677-.048-16.849 0-30.508 13.658-30.508 30.507 0 8.097 3.16 15.451 8.306 20.912h41.877z" fill="#3c58a0"/><path d="m365.717 276.792c4.718 4.718 0 28.883 0 28.883l17.953 13.134h4.249c5.146-5.461 8.306-12.816 8.306-20.912 0-16.849-13.659-30.507-30.508-30.507 0-.001-4.718 4.683 0 9.402z" fill="#4f71b6"/><ellipse cx="365.717" cy="290.171" fill="#ffc7ab" rx="13.379" ry="13.379" transform="matrix(.23 -.973 .973 .23 -.716 579.436)"/><path d="m387.564 317.098c-.227-1.097-.421-2.202-.551-3.316-.253-2.165-1.389-7.217-6.503-8.861-5.556-1.786-11.975-2.551-18.368-2.111-3.473 1.976-8.117 5.615-8.117 10.942v12.316c3.601 1.498 7.547 2.335 11.691 2.335 8.753 0 16.638-3.691 22.201-9.596z" fill="#ff7186"/><path d="m350.923 304.922c-5.114 1.644-6.25 6.697-6.503 8.861-.13 1.113-.324 2.218-.551 3.316l-.354 1.71c3.343 3.548 7.529 6.288 12.234 7.917 0-3.439 0-8.301 0-12.973 0-5.416 4.798-9.084 8.287-11.037-4.441.141-8.912.855-13.113 2.206z" fill="#ff4155"/></g></g></svg>