<svg id="Capa_1" enable-background="new 0 0 512 512" height="512" viewBox="0 0 512 512" width="512" xmlns="http://www.w3.org/2000/svg"><g><g clip-rule="evenodd" fill-rule="evenodd"><path d="m123.365 413.693c-37.644-15.081-123.365-57.119-123.365-145.674v-107.973c0-5.357 2.608-9.156 7.342-11.197l116.023-50.543z" fill="#f37c7c"/><path d="m123.365 413.693c-6.974-2.806-15.591-6.52-25.002-11.282v-293.219l25.002-10.886z" fill="#eb5468"/><path d="m123.365 98.307 116.024 50.543c5.018 2.154 7.342 5.839 7.342 11.197v107.973c0 88.555-85.721 130.593-123.365 145.674v-315.387z" fill="#80b4fb"/><path d="m123.365 98.307 116.024 50.543c5.018 2.154 7.342 5.839 7.342 11.197v107.973c0 88.555-85.721 130.593-123.365 145.674v-11.282c41.443-20.948 98.364-62.221 98.364-134.392v-107.974c0-5.357-2.325-9.042-7.342-11.197l-91.022-39.657v-10.885z" fill="#61a2f9"/><path d="m123.365 334.464c45.979 0 83.481-37.503 83.481-83.453 0-33.118-19.457-61.838-47.524-75.314-10.899-5.233-37.714-1.567-37.714-1.567s-23.302-3.666-34.199 1.568c-28.057 13.477-47.497 42.196-47.497 75.312 0 45.951 37.475 83.454 83.453 83.454z" fill="#f9f7f8"/><path d="m138.41 172.882c12.88 0 10.037-2.435 20.932 2.776 28.093 13.436 47.505 42.121 47.505 75.353 0 46.092-37.39 83.453-83.481 83.453-4.252 0-8.419-.312-12.501-.935 40.168-6.038 70.98-40.678 70.98-82.518 0-41.869-30.812-76.508-70.98-82.546 4.082-.624 8.249-.936 12.501-.936z" fill="#ebe8fa"/><path d="m504.006 184.311h-208.945c-4.393 0-7.994-3.6-7.994-7.994v-70.017c0-4.394 3.601-7.994 7.994-7.994h208.944c4.394 0 7.994 3.6 7.994 7.994v70.017c.001 4.394-3.6 7.994-7.993 7.994z" fill="#80b4fb"/><path d="m504.006 184.311h-25.001c4.393 0 7.993-3.6 7.993-7.994v-70.017c0-4.394-3.6-7.994-7.993-7.994h25.001c4.394 0 7.994 3.6 7.994 7.994v70.017c0 4.394-3.601 7.994-7.994 7.994z" fill="#61a2f9"/><path d="m504.006 299.002h-208.945c-4.393 0-7.994-3.6-7.994-7.994v-70.017c0-4.394 3.601-7.994 7.994-7.994h208.944c4.394 0 7.994 3.6 7.994 7.994v70.017c.001 4.394-3.6 7.994-7.993 7.994z" fill="#f37c7c"/><path d="m504.006 299.002h-25.001c4.393 0 7.993-3.6 7.993-7.994v-70.017c0-4.394-3.6-7.994-7.993-7.994h25.001c4.394 0 7.994 3.6 7.994 7.994v70.017c0 4.394-3.601 7.994-7.994 7.994z" fill="#eb5468"/><path d="m504.006 413.693h-208.945c-4.393 0-7.994-3.6-7.994-7.994v-70.016c0-4.394 3.601-7.994 7.994-7.994h208.944c4.394 0 7.994 3.6 7.994 7.994v70.016c.001 4.394-3.6 7.994-7.993 7.994z" fill="#fee274"/><path d="m504.006 413.693h-25.001c4.393 0 7.993-3.6 7.993-7.994v-70.016c0-4.394-3.6-7.994-7.993-7.994h25.001c4.394 0 7.994 3.6 7.994 7.994v70.016c0 4.394-3.601 7.994-7.994 7.994z" fill="#ffd064"/></g><path d="m382.114 163.08c-4.139 0-7.483-3.374-7.483-7.512 0-4.139 3.345-7.513 7.483-7.513h68.004c4.139 0 7.513 3.374 7.513 7.513 0 4.138-3.374 7.512-7.513 7.512zm0-28.461c-4.139 0-7.483-3.345-7.483-7.512 0-4.139 3.345-7.483 7.483-7.483h93.007c4.139 0 7.512 3.345 7.512 7.483 0 4.167-3.373 7.512-7.512 7.512z" fill="#365e7d"/><path d="m382.114 277.714c-4.139 0-7.483-3.345-7.483-7.484s3.345-7.512 7.483-7.512h68.004c4.139 0 7.513 3.373 7.513 7.512s-3.374 7.484-7.513 7.484zm0-28.432c-4.139 0-7.483-3.373-7.483-7.512s3.345-7.484 7.483-7.484h93.007c4.139 0 7.512 3.345 7.512 7.484s-3.373 7.512-7.512 7.512z" fill="#365e7d"/><path d="m382.114 392.376c-4.139 0-7.483-3.345-7.483-7.484 0-4.167 3.345-7.512 7.483-7.512h68.004c4.139 0 7.513 3.345 7.513 7.512 0 4.139-3.374 7.484-7.513 7.484zm0-28.432c-4.139 0-7.483-3.373-7.483-7.512s3.345-7.512 7.483-7.512h93.007c4.139 0 7.512 3.373 7.512 7.512s-3.373 7.512-7.512 7.512z" fill="#365e7d"/><path clip-rule="evenodd" d="m150.38 277.487 9.213-28.347 17.717-5.754 25.001 18.171c1.134.793 2.41 1.247 3.686 1.389.538-3.912.851-7.88.851-11.934 0-21.657-8.249-41.386-21.77-56.24-1.049.878-1.899 2.069-2.353 3.458l-10.035 30.897-17.716 5.783-24.095-17.519v-19.729l25.965-18.851c1.135-.85 1.984-1.927 2.495-3.146-10.886-5.216-23.074-8.136-35.973-8.136-12.869 0-25.087 2.92-35.972 8.136.51 1.219 1.36 2.296 2.494 3.146l25.994 18.851v19.729l-24.095 17.519-17.745-5.783-10.034-30.897c-.454-1.389-1.275-2.58-2.324-3.458-13.521 14.854-21.771 34.583-21.771 56.24 0 4.054.283 8.022.851 11.934 1.275-.142 2.523-.595 3.657-1.389l25.002-18.171 17.717 5.754 9.212 28.347-9.949 13.691h-31.55c-1.474 0-2.835.425-3.997 1.162 11.963 20.948 32.74 36.199 57.288 40.734.284-1.276.256-2.665-.198-3.997l-9.439-29.084 9.95-13.691h29.821l9.949 13.691-9.439 29.084c-.453 1.333-.481 2.721-.17 3.997 24.548-4.536 45.326-19.787 57.288-40.734-1.162-.737-2.551-1.162-4.024-1.162h-31.55z" fill="#365e7d" fill-rule="evenodd"/><path clip-rule="evenodd" d="m191.88 291.179h-20.325c-7.228 13.124-17.887 24.094-30.756 31.72l-2.013 6.179c-.453 1.333-.481 2.721-.17 3.997 24.548-4.536 45.326-19.787 57.288-40.734-1.162-.738-2.55-1.162-4.024-1.162zm-68.515-119.823c9.327 2.92 17.944 7.427 25.541 13.21l7.937-5.754c1.135-.85 1.984-1.927 2.495-3.146-10.886-5.216-23.074-8.136-35.973-8.136-4.252 0-8.419.311-12.501.936 4.281.651 8.476 1.615 12.501 2.89zm59.359 26.874-6.974 21.458c3.401 8.362 5.471 17.434 5.981 26.902l20.579 14.967c1.134.793 2.41 1.247 3.686 1.389.538-3.912.851-7.88.851-11.934 0-21.657-8.249-41.386-21.77-56.24-1.05.878-1.9 2.069-2.353 3.458z" fill="#2b4d66" fill-rule="evenodd"/><path d="m329.616 124.613c0-4.139 3.374-7.483 7.513-7.483 4.138 0 7.483 3.345 7.483 7.483v3.77l3.232-1.871c3.571-2.069 8.163-.85 10.232 2.722 2.069 3.571.851 8.164-2.721 10.233l-3.26 1.871 3.26 1.899c3.571 2.069 4.79 6.634 2.721 10.234-2.069 3.571-6.661 4.79-10.232 2.721l-3.232-1.871v3.742c0 4.139-3.346 7.512-7.483 7.512-4.139 0-7.513-3.373-7.513-7.512v-3.742l-3.23 1.871c-3.572 2.069-8.164.851-10.233-2.721-2.069-3.6-.851-8.165 2.721-10.234l3.288-1.899-3.288-1.871c-3.571-2.069-4.79-6.662-2.721-10.233 2.069-3.572 6.661-4.791 10.233-2.722l3.23 1.871z" fill="#365e7d"/><path d="m329.616 239.304c0-4.139 3.374-7.512 7.513-7.512 4.138 0 7.483 3.373 7.483 7.512v3.742l3.232-1.843c3.571-2.098 8.163-.85 10.232 2.721 2.069 3.572.851 8.136-2.721 10.205l-3.26 1.899 3.26 1.899c3.571 2.069 4.79 6.633 2.721 10.205s-6.661 4.791-10.232 2.721l-3.232-1.842v3.742c0 4.139-3.346 7.512-7.483 7.512-4.139 0-7.513-3.374-7.513-7.512v-3.742l-3.23 1.842c-3.572 2.069-8.164.851-10.233-2.721s-.851-8.135 2.721-10.205l3.288-1.899-3.288-1.899c-3.571-2.069-4.79-6.633-2.721-10.205 2.069-3.571 6.661-4.819 10.233-2.721l3.23 1.843z" fill="#365e7d"/><path d="m329.616 353.995c0-4.139 3.374-7.512 7.513-7.512 4.138 0 7.483 3.373 7.483 7.512v3.742l3.232-1.871c3.571-2.069 8.163-.851 10.232 2.721 2.069 3.601.851 8.164-2.721 10.233l-3.26 1.899 3.26 1.871c3.571 2.069 4.79 6.661 2.721 10.233s-6.661 4.791-10.232 2.721l-3.232-1.871v3.771c0 4.138-3.346 7.483-7.483 7.483-4.139 0-7.513-3.345-7.513-7.483v-3.771l-3.23 1.871c-3.572 2.069-8.164.851-10.233-2.721s-.851-8.164 2.721-10.233l3.288-1.871-3.288-1.899c-3.571-2.069-4.79-6.633-2.721-10.233 2.069-3.572 6.661-4.791 10.233-2.721l3.23 1.871z" fill="#365e7d"/></g></svg>