<svg id="Layer_1" enable-background="new 0 0 512 512" height="512" viewBox="0 0 512 512" width="512" xmlns="http://www.w3.org/2000/svg"><g><path d="m47.787 396.154 416.426-.001c23.311-37.5 36.789-81.751 36.789-129.155 0-135.311-109.691-245.002-245.002-245.002s-245.002 109.691-245.002 245.002c0 47.405 13.478 91.655 36.789 129.156z" fill="#73c3f9"/><path d="m159.422 188.867c.323.333.637.666.971 1 0 0-12.991 13.509 0 26.5v44.612s-14.206 11.918 0 26.124v44.612s-14.088 12.037 0 26.124v44.612s-17.27 10.818 0 26.124v44.612s-7.753 7.253-6.053 16.771c30.966 14.149 65.389 22.042 101.66 22.042 48.801 0 94.26-14.277 132.448-38.871l50.789-43.519c9.235-10.399 17.599-21.589 24.977-33.457v-207.286z" fill="#e9efff"/><path d="m47.787 396.154c7.377 11.868 15.742 23.058 24.977 33.457l50.788 43.517c10.479 6.749 21.509 12.715 33.002 17.829-2.46-10.004 5.839-17.77 5.839-17.77v-44.612c-17.27-15.306 0-26.124 0-26.124v-44.612c-14.088-14.088 0-26.124 0-26.124v-44.612c-14.206-14.206 0-26.124 0-26.124v-44.612c-12.991-12.991 0-26.5 0-26.5-.334-.334-.648-.667-.971-1h-113.635z" fill="#d3dcfb"/><path d="m451.334 114.757h-130.97c-12.486 22.701-36.625 38.088-64.363 38.088s-51.877-15.388-64.364-38.088h-31.244s-39.824 35.285 0 75.109h303.82v-62.23c0-7.112-5.766-12.879-12.879-12.879z" fill="#ff4155"/><path d="m162.393 114.757h-101.726c-7.113 0-12.88 5.766-12.88 12.88v62.23h114.606c-39.824-39.825 0-75.11 0-75.11z" fill="#e80054"/><path d="m165.587 287.103c-12.319 0-22.306 9.987-22.306 22.306 0 12.318 9.985 22.305 22.303 22.306h197.367v-44.612z" fill="#bec8f7"/><g><path d="m360.951 331.715h75.005c3.179 0 5.756-2.577 5.756-5.756v-33.1c0-3.179-2.577-5.756-5.756-5.756h-75.005z" fill="#3c58a0"/></g><path d="m165.587 357.839c-12.319 0-22.306 9.987-22.306 22.306s9.987 22.306 22.306 22.306h197.364v-44.612z" fill="#bec8f7"/><g><path d="m360.951 402.451h75.005c3.179 0 5.756-2.577 5.756-5.756v-33.1c0-3.179-2.577-5.756-5.756-5.756h-75.005z" fill="#3c58a0"/></g><path d="m165.587 216.367c-12.319 0-22.306 9.986-22.306 22.306 0 12.318 9.985 22.304 22.303 22.306h197.367v-44.612z" fill="#bec8f7"/><g><path d="m360.951 260.979h75.005c3.179 0 5.756-2.577 5.756-5.756v-33.1c0-3.179-2.577-5.756-5.756-5.756h-75.005z" fill="#3c58a0"/></g><g><path d="m132.628 216.367h-56.585c-3.179 0-5.756 2.577-5.756 5.756v33.1c0 3.179 2.577 5.756 5.756 5.756h23.555z" fill="#ffc839"/></g><path d="m165.587 428.576c-12.319 0-22.306 9.987-22.306 22.306v.001c0 12.319 9.987 22.306 22.306 22.306h197.364v-44.612h-197.364z" fill="#bec8f7"/><g fill="#a2b6f4"><path d="m145.281 309.409c0-12.319 9.987-22.306 22.306-22.306h-91.544c-3.179 0-5.756 2.577-5.756 5.756v33.1c0 3.179 2.577 5.756 5.756 5.756h91.544c-12.32 0-22.306-9.987-22.306-22.306z"/><path d="m145.281 380.146c0-12.319 9.987-22.306 22.306-22.306h-91.544c-3.179 0-5.756 2.577-5.756 5.756v33.1c0 3.179 2.577 5.756 5.756 5.756h91.544c-12.32-.001-22.306-9.987-22.306-22.306z"/><path d="m145.281 238.673c0-12.32 9.987-22.306 22.306-22.306h-36.958l-33.03 44.612h69.988c-12.32 0-22.306-9.987-22.306-22.306z"/><path d="m145.281 450.882c0-12.319 9.987-22.306 22.306-22.306h-91.544c-1.221 0-2.352.383-3.283 1.032 14.859 16.732 31.965 31.424 50.861 43.58h43.966c-12.32 0-22.306-9.987-22.306-22.306z"/></g><path d="m435.956 428.576h-75.006v44.612h27.428c18.896-12.156 36.001-26.848 50.861-43.58-.931-.65-2.061-1.032-3.283-1.032z" fill="#3c58a0"/><g><path d="m419.731 159.312h-45.56c-3.866 0-7-3.134-7-7s3.134-7 7-7h45.56c3.866 0 7 3.134 7 7 0 3.867-3.134 7-7 7z" fill="#f9a0b1"/></g><g><path d="m245.274 245.673h-5.087c-3.866 0-7-3.134-7-7s3.134-7 7-7h5.087c3.866 0 7 3.134 7 7s-3.133 7-7 7z" fill="#e9efff"/></g><g><path d="m179.663 245.673h-34.54c-3.866 0-7-3.134-7-7s3.134-7 7-7h34.54c3.866 0 7 3.134 7 7s-3.134 7-7 7z" fill="#e9efff"/></g><g><path d="m284.613 245.673h-5.087c-3.866 0-7-3.134-7-7s3.134-7 7-7h5.087c3.866 0 7 3.134 7 7s-3.134 7-7 7z" fill="#e9efff"/></g><g><path d="m323.951 245.673h-5.087c-3.866 0-7-3.134-7-7s3.134-7 7-7h5.087c3.866 0 7 3.134 7 7s-3.134 7-7 7z" fill="#e9efff"/></g><g><path d="m403.875 245.673h-5.087c-3.866 0-7-3.134-7-7s3.134-7 7-7h5.087c3.866 0 7 3.134 7 7s-3.133 7-7 7z" fill="#6289cc"/></g><g><path d="m245.274 316.409h-5.087c-3.866 0-7-3.134-7-7s3.134-7 7-7h5.087c3.866 0 7 3.134 7 7s-3.133 7-7 7z" fill="#e9efff"/></g><g><path d="m179.663 316.409h-78.205c-3.866 0-7-3.134-7-7s3.134-7 7-7h78.205c3.866 0 7 3.134 7 7s-3.134 7-7 7z" fill="#e9efff"/></g><g><path d="m284.613 316.409h-5.087c-3.866 0-7-3.134-7-7s3.134-7 7-7h5.087c3.866 0 7 3.134 7 7s-3.134 7-7 7z" fill="#e9efff"/></g><g><path d="m323.951 316.409h-5.087c-3.866 0-7-3.134-7-7s3.134-7 7-7h5.087c3.866 0 7 3.134 7 7s-3.134 7-7 7z" fill="#e9efff"/></g><g><path d="m403.875 316.409h-5.087c-3.866 0-7-3.134-7-7s3.134-7 7-7h5.087c3.866 0 7 3.134 7 7s-3.133 7-7 7z" fill="#6289cc"/></g><g><path d="m245.274 457.882h-5.087c-3.866 0-7-3.134-7-7s3.134-7 7-7h5.087c3.866 0 7 3.134 7 7s-3.133 7-7 7z" fill="#e9efff"/></g><g><path d="m179.663 457.882h-78.205c-3.866 0-7-3.134-7-7s3.134-7 7-7h78.205c3.866 0 7 3.134 7 7s-3.134 7-7 7z" fill="#e9efff"/></g><g><path d="m284.613 457.882h-5.087c-3.866 0-7-3.134-7-7s3.134-7 7-7h5.087c3.866 0 7 3.134 7 7s-3.134 7-7 7z" fill="#e9efff"/></g><g><path d="m323.951 457.882h-5.087c-3.866 0-7-3.134-7-7s3.134-7 7-7h5.087c3.866 0 7 3.134 7 7s-3.134 7-7 7z" fill="#e9efff"/></g><g><path d="m403.875 457.882h-5.087c-3.866 0-7-3.134-7-7s3.134-7 7-7h5.087c3.866 0 7 3.134 7 7s-3.133 7-7 7z" fill="#6289cc"/></g><g><path d="m245.274 387.145h-5.087c-3.866 0-7-3.134-7-7s3.134-7 7-7h5.087c3.866 0 7 3.134 7 7 0 3.867-3.133 7-7 7z" fill="#e9efff"/></g><g><path d="m179.663 387.145h-78.205c-3.866 0-7-3.134-7-7s3.134-7 7-7h78.205c3.866 0 7 3.134 7 7 0 3.867-3.134 7-7 7z" fill="#e9efff"/></g><g><path d="m284.613 387.145h-5.087c-3.866 0-7-3.134-7-7s3.134-7 7-7h5.087c3.866 0 7 3.134 7 7 0 3.867-3.134 7-7 7z" fill="#e9efff"/></g><g><path d="m323.951 387.145h-5.087c-3.866 0-7-3.134-7-7s3.134-7 7-7h5.087c3.866 0 7 3.134 7 7 0 3.867-3.134 7-7 7z" fill="#e9efff"/></g><g><path d="m403.875 387.145h-5.087c-3.866 0-7-3.134-7-7s3.134-7 7-7h5.087c3.866 0 7 3.134 7 7 0 3.867-3.133 7-7 7z" fill="#6289cc"/></g><g><path d="m264.289 143.242c-3.038 4.987-2.482 10.374 2.546 14.233 6.991-.958 13.693-2.823 19.978-5.484l-10.052-10.536h-17.316c1.502.655 3.11 1.256 4.844 1.787z" fill="#bec8f7"/><path d="m267.82 157.337c-8.87-6.181-2.429-14.493-2.429-14.493-1.463-.417-2.842-.882-4.145-1.389h-26.007l-10.052 10.536c9.47 4.008 19.883 6.226 30.813 6.226 4.017 0 7.963-.302 11.82-.88z" fill="#a2b6f4"/><path d="m266.629.713c-2.168 1.789-6.936 6.896-2.627 14.66 0 0-1.574.408-3.93 1.389h16.688l10.052-10.536c-6.346-2.687-13.117-4.564-20.183-5.513z" fill="#bec8f7"/><path d="m267.82.88c-3.856-.578-7.803-.88-11.82-.88-10.93 0-21.343 2.217-30.813 6.226l10.052 10.536h26.222c2.356-.981 3.93-1.389 3.93-1.389-4.182-7.535.186-12.568 2.429-14.493z" fill="#a2b6f4"/><path d="m310.951 95.372 19.521 10.469c2.998-8.351 4.636-17.35 4.636-26.733s-1.638-18.382-4.636-26.733l-19.521 10.469z" fill="#e9efff"/><path d="m201.049 95.372-19.521 10.469c-2.998-8.351-4.636-17.35-4.636-26.733s1.638-18.382 4.636-26.733l19.521 10.469z" fill="#a2b6f4"/><path d="m330.473 52.375c-7.47-20.806-23.406-37.576-43.659-46.15l-10.052 9.147 4.813 32.706 30.765 14.765z" fill="#d3dcfb"/><path d="m181.528 52.375c7.47-20.806 23.406-37.576 43.66-46.15l10.052 9.147-3.269 33.598-32.31 13.874z" fill="#3c58a0"/><path d="m330.473 105.841c-7.47 20.806-23.406 37.576-43.659 46.15l-10.052-9.147 3.734-33.329 31.844-14.142z" fill="#d3dcfb"/><path d="m181.528 105.841c7.47 20.806 23.406 37.576 43.66 46.15l10.052-9.147-3.211-33.631-32.368-13.84z" fill="#3c58a0"/><path d="m256 93.058-17.017 11.223.467.459c-.25 1.625-1.046 8.256 1.146 15.834 2.186 7.554 7.87 17.375 22.459 22.271h13.705l7.409-31.208z" fill="#e9efff"/><path d="m240.194 104.498-.618-.608-11.746 7.746 7.409 31.208h30.152c-30.744-8.775-25.197-38.346-25.197-38.346z" fill="#d3dcfb"/><path d="m276.761 15.373h-12.759s-31.101 8.034-24.056 39.005c.017.075.03.149.046.224l16.008 10.557 28.17-18.578z" fill="#e9efff"/><path d="m265.391 15.373h-30.152l-7.409 31.208 13.74 9.062c-.062-.416-.194-.828-.236-1.265-2.984-31.135 24.057-39.005 24.057-39.005z" fill="#d3dcfb"/><path d="m256 62.844v32.528l28.17 16.264 28.17-16.264v-32.528l-28.17-16.263z" fill="#4f71b6"/><path d="m240.882 54.116c-4.052 2.184-9.707 6.611-9.707 14.336v24.605s1.209 7.681 8.559 11.706l16.266-9.391v-32.528z" fill="#d3dcfb"/><path d="m241.335 54.377-13.505-7.797-28.17 16.264v32.528l28.17 16.264 12.364-7.138c-6.935-4.087-8.093-11.44-8.093-11.44s0-12.57 0-24.605c0-7.428 5.229-11.808 9.234-14.076z" fill="#bec8f7"/></g></g></svg>