<svg height="512pt" viewBox="0 0 512 512" width="512pt" xmlns="http://www.w3.org/2000/svg"><path d="m490.210938 0h-468.421876c-12.015624 0-21.789062 9.773438-21.789062 21.789062v482.710938c0 4.144531 3.359375 7.5 7.5 7.5h497c4.140625 0 7.5-3.355469 7.5-7.5v-482.710938c0-12.015624-9.773438-21.789062-21.789062-21.789062zm0 0" fill="#26a69a"/><path d="m490.210938 0h-18.289063c.046875.589844.078125 1.1875.078125 1.789062v362.425782c0 70.574218-57.210938 127.785156-127.785156 127.785156h-344.214844v12.5c0 4.144531 3.359375 7.5 7.5 7.5h497c4.140625 0 7.5-3.355469 7.5-7.5v-482.710938c0-12.015624-9.773438-21.789062-21.789062-21.789062zm0 0" fill="#00796b"/><path d="m490.210938 0h-468.421876c-12.015624 0-21.789062 9.773438-21.789062 21.789062v482.710938c0 4.144531 3.359375 7.5 7.5 7.5h497c4.140625 0 7.5-3.355469 7.5-7.5v-482.710938c0-12.015624-9.773438-21.789062-21.789062-21.789062zm-303.855469 15h139.289062v64.613281h-139.289062zm-77.140625 0h62.140625v72.113281c0 4.144531 3.359375 7.5 7.5 7.5h154.289062c4.140625 0 7.5-3.355469 7.5-7.5v-72.113281h62.140625v134.230469h-293.570312zm209.445312 149.230469c-3.722656 31.28125-30.394531 55.621093-62.660156 55.621093s-58.9375-24.339843-62.660156-55.621093zm-303.660156-142.441407c0-3.742187 3.046875-6.789062 6.789062-6.789062h25.726563c-3.074219 16.449219-16.066406 29.441406-32.515625 32.519531zm178.339844 475.210938c3.722656-31.28125 30.394531-55.621094 62.660156-55.621094s58.9375 24.339844 62.660156 55.621094zm303.660156 0h-163.246094c-3.789062-39.570312-37.207031-70.621094-77.753906-70.621094s-73.964844 31.050782-77.753906 70.621094h-163.246094v-434.296875c24.734375-3.34375 44.359375-22.96875 47.703125-47.703125h31.511719v141.730469c0 4.140625 3.355468 7.5 7.5 7.5h76.53125c3.785156 39.570312 37.207031 70.621093 77.753906 70.621093s73.964844-31.050781 77.753906-70.621093h76.53125c4.140625 0 7.5-3.359375 7.5-7.5v-141.730469h31.511719c3.34375 24.734375 22.96875 44.359375 47.703125 47.703125zm0-449.480469c-16.449219-3.078125-29.441406-16.070312-32.515625-32.519531h25.726563c3.742187 0 6.789062 3.046875 6.789062 6.789062zm0 0" fill="#cfd8dc"/><path d="m512 21.789062v482.710938c0 4.144531-3.359375 7.5-7.5 7.5h-497c-4.140625 0-7.5-3.355469-7.5-7.5v-12.5h15v5h163.246094c.160156-1.683594.394531-3.347656.664062-5h15.242188c-.332032 1.644531-.613282 3.3125-.8125 5h125.320312c-.199218-1.6875-.480468-3.355469-.8125-5h15.246094c.265625 1.652344.5 3.316406.660156 5h163.246094v-434.296875c-9.242188-1.25-17.769531-4.773437-25-9.984375v-20.734375c6 7.945313 14.839844 13.632813 25 15.535156v-25.730469c0-3.742187-3.046875-6.789062-6.789062-6.789062h-18.210938v-13.210938c0-.601562-.03125-1.199218-.078125-1.789062h18.289063c12.015624 0 21.789062 9.773438 21.789062 21.789062zm0 0" fill="#90a4ae"/><path d="m266.449219 33.398438c-.644531 0-1.183594.484374-1.261719 1.125-.542969 4.59375-4.445312 8.152343-9.1875 8.152343s-8.644531-3.558593-9.1875-8.152343c-.078125-.640626-.613281-1.128907-1.261719-1.125-1.613281 0-5.382812.003906-14.199219.003906-5.582031 0-10.113281 4.523437-10.113281 10.109375v22.207031c0 .710938.574219 1.285156 1.285157 1.285156h9.585937c.707031 0 1.285156.574219 1.285156 1.285156v36.890626c0 .707031.574219 1.285156 1.285157 1.285156h42.644531c.710937 0 1.285156-.578125 1.285156-1.285156v-36.890626c0-.710937.574219-1.285156 1.285156-1.285156h9.585938c.710937 0 1.285156-.574218 1.285156-1.285156v-22.207031c0-5.585938-4.53125-10.109375-10.117187-10.109375-8.816407-.003906-12.585938-.003906-14.199219-.003906zm0 0" fill="#eceff1"/><path d="m290.761719 43.515625c0-5.585937-4.535157-10.117187-10.121094-10.117187-1.84375 0-3.457031 0-4.882813 0 0 .039062.003907.074218.003907.113281v17.414062c0 3.355469-2.722657 6.074219-6.078125 6.074219-3.355469 0-6.074219 2.722656-6.074219 6.078125v27.304687c0 3.355469-2.722656 6.078126-6.078125 6.078126h-24.140625v8.714843c0 .710938.574219 1.285157 1.285156 1.285157h42.648438c.707031 0 1.285156-.574219 1.285156-1.285157v-36.890625c0-.710937.574219-1.285156 1.285156-1.285156h9.582031c.710938 0 1.285157-.574219 1.285157-1.285156zm0 0" fill="#b0bec5"/><g fill="#ef5350"><path d="m89.390625 139.9375c-.648437 0-1.1875.484375-1.261719 1.125-.542968 4.59375-4.445312 8.152344-9.1875 8.152344-4.742187 0-8.644531-3.558594-9.191406-8.152344-.074219-.640625-.613281-1.128906-1.261719-1.125-1.609375 0-5.382812.003906-14.195312.003906-5.582031 0-10.113281 4.523438-10.113281 10.109375v22.207031c0 .710938.574218 1.285157 1.285156 1.285157h9.582031c.710937 0 1.285156.574219 1.285156 1.285156v36.890625c0 .707031.574219 1.285156 1.285157 1.285156h42.648437c.710937 0 1.285156-.578125 1.285156-1.285156v-36.890625c0-.710937.574219-1.285156 1.285157-1.285156h9.585937c.707031 0 1.28125-.574219 1.28125-1.285157v-22.207031c0-5.585937-4.53125-10.109375-10.113281-10.109375-8.816406 0-12.589844-.003906-14.199219-.003906zm0 0"/><path d="m207.429688 139.9375c-.648438 0-1.183594.484375-1.261719 1.125-.542969 4.59375-4.445313 8.152344-9.1875 8.152344-4.742188 0-8.644531-3.558594-9.191407-8.152344-.074218-.640625-.609374-1.128906-1.257812-1.125-1.613281 0-5.382812.003906-14.199219.003906-5.582031 0-10.113281 4.523438-10.113281 10.109375v22.207031c0 .710938.574219 1.285157 1.285156 1.285157h9.585938c.707031 0 1.28125.574219 1.28125 1.285156v36.890625c0 .707031.578125 1.285156 1.285156 1.285156h42.648438c.710937 0 1.285156-.578125 1.285156-1.285156v-36.890625c0-.710937.574218-1.285156 1.285156-1.285156h9.585938c.710937 0 1.285156-.574219 1.285156-1.285157v-22.207031c0-5.585937-4.53125-10.109375-10.117188-10.109375-8.816406 0-12.585937-.003906-14.199218-.003906zm0 0"/><path d="m325.472656 139.9375c-.648437 0-1.1875.484375-1.261718 1.125-.546876 4.59375-4.449219 8.152344-9.191407 8.152344-4.742187 0-8.644531-3.558594-9.1875-8.152344-.078125-.640625-.613281-1.128906-1.261719-1.125-1.609374 0-5.382812.003906-14.199218.003906-5.582032 0-10.113282 4.523438-10.113282 10.109375v22.207031c0 .710938.574219 1.285157 1.285157 1.285157h9.585937c.710938 0 1.285156.574219 1.285156 1.285156v36.890625c0 .707031.574219 1.285156 1.285157 1.285156h42.644531c.710938 0 1.285156-.578125 1.285156-1.285156v-36.890625c0-.710937.574219-1.285156 1.285156-1.285156h9.585938c.710938 0 1.285156-.574219 1.285156-1.285157v-22.207031c0-5.585937-4.53125-10.109375-10.117187-10.109375-8.816407 0-12.585938-.003906-14.195313-.003906zm0 0"/><path d="m207.429688 268.640625c-.648438 0-1.183594.488281-1.261719 1.128906-.542969 4.59375-4.445313 8.152344-9.1875 8.152344-4.742188 0-8.644531-3.558594-9.191407-8.152344-.074218-.640625-.609374-1.128906-1.257812-1.128906-1.613281 0-5.382812.003906-14.199219.003906-5.582031 0-10.113281 4.527344-10.113281 10.113281v22.207032c0 .707031.574219 1.28125 1.285156 1.28125h9.585938c.707031 0 1.28125.578125 1.28125 1.285156v36.890625c0 .710937.578125 1.285156 1.285156 1.285156h42.648438c.710937 0 1.285156-.574219 1.285156-1.285156v-36.890625c0-.707031.574218-1.285156 1.285156-1.285156h9.585938c.710937 0 1.285156-.574219 1.285156-1.28125v-22.207032c0-5.585937-4.53125-10.113281-10.117188-10.113281-8.816406 0-12.585937-.003906-14.199218-.003906zm0 0"/><path d="m325.472656 268.640625c-.648437 0-1.1875.488281-1.261718 1.128906-.546876 4.59375-4.449219 8.152344-9.191407 8.152344-4.742187 0-8.644531-3.558594-9.1875-8.152344-.078125-.640625-.613281-1.128906-1.261719-1.128906-1.609374 0-5.382812.003906-14.199218.003906-5.582032 0-10.113282 4.527344-10.113282 10.113281v22.207032c0 .707031.574219 1.28125 1.285157 1.28125h9.585937c.710938 0 1.285156.578125 1.285156 1.285156v36.890625c0 .710937.574219 1.285156 1.285157 1.285156h42.644531c.710938 0 1.285156-.574219 1.285156-1.285156v-36.890625c0-.707031.574219-1.285156 1.285156-1.285156h9.585938c.710938 0 1.285156-.574219 1.285156-1.28125v-22.207032c0-5.585937-4.53125-10.113281-10.117187-10.113281-8.816407 0-12.585938-.003906-14.195313-.003906zm0 0"/><path d="m207.429688 397.34375c-.648438 0-1.183594.488281-1.261719 1.128906-.542969 4.59375-4.445313 8.148438-9.1875 8.148438-4.742188 0-8.644531-3.554688-9.191407-8.148438-.074218-.644531-.609374-1.128906-1.257812-1.128906-1.613281 0-5.382812.003906-14.199219.003906-5.582031 0-10.113281 4.527344-10.113281 10.113282v22.203124c0 .710938.574219 1.285157 1.285156 1.285157h9.585938c.707031 0 1.28125.578125 1.28125 1.285156v36.890625c0 .710938.578125 1.285156 1.285156 1.285156h42.648438c.710937 0 1.285156-.574218 1.285156-1.285156v-36.890625c0-.707031.574218-1.285156 1.285156-1.285156h9.585938c.710937 0 1.285156-.574219 1.285156-1.285157v-22.203124c0-5.585938-4.53125-10.113282-10.117188-10.113282-8.816406 0-12.585937 0-14.199218-.003906zm0 0"/><path d="m325.472656 397.34375c-.648437 0-1.1875.488281-1.261718 1.128906-.546876 4.59375-4.449219 8.148438-9.191407 8.148438-4.742187 0-8.644531-3.554688-9.1875-8.148438-.078125-.644531-.613281-1.128906-1.261719-1.128906-1.609374 0-5.382812.003906-14.199218.003906-5.582032 0-10.113282 4.527344-10.113282 10.113282v22.203124c0 .710938.574219 1.285157 1.285157 1.285157h9.585937c.710938 0 1.285156.578125 1.285156 1.285156v36.890625c0 .710938.574219 1.285156 1.285157 1.285156h42.644531c.710938 0 1.285156-.574218 1.285156-1.285156v-36.890625c0-.707031.574219-1.285156 1.285156-1.285156h9.585938c.710938 0 1.285156-.574219 1.285156-1.285157v-22.203124c0-5.585938-4.53125-10.113282-10.117187-10.113282-8.816407 0-12.585938 0-14.195313-.003906zm0 0"/><path d="m443.511719 139.9375c-.648438 0-1.1875.484375-1.261719 1.125-.546875 4.59375-4.449219 8.152344-9.191406 8.152344-4.738282 0-8.644532-3.558594-9.1875-8.152344-.074219-.640625-.613282-1.128906-1.261719-1.125-1.609375 0-5.382813.003906-14.195313.003906-5.585937 0-10.117187 4.523438-10.117187 10.109375v22.207031c0 .710938.574219 1.285157 1.285156 1.285157h9.585938c.710937 0 1.285156.574219 1.285156 1.285156v36.890625c0 .707031.574219 1.285156 1.285156 1.285156h42.648438c.707031 0 1.285156-.578125 1.285156-1.285156v-36.890625c0-.710937.574219-1.285156 1.28125-1.285156h9.585937c.710938 0 1.285157-.574219 1.285157-1.285157v-22.207031c0-5.585937-4.53125-10.109375-10.113281-10.109375-8.816407 0-12.589844-.003906-14.199219-.003906zm0 0"/><path d="m89.390625 318.640625c-.648437 0-1.1875.488281-1.261719 1.128906-.542968 4.59375-4.445312 8.152344-9.1875 8.152344-4.742187 0-8.644531-3.558594-9.191406-8.152344-.074219-.640625-.613281-1.128906-1.261719-1.128906-1.609375 0-5.382812.003906-14.195312.003906-5.582031 0-10.113281 4.527344-10.113281 10.113281v22.207032c0 .707031.574218 1.28125 1.285156 1.28125h9.582031c.710937 0 1.285156.578125 1.285156 1.285156v36.890625c0 .710937.574219 1.285156 1.285157 1.285156h42.648437c.710937 0 1.285156-.574219 1.285156-1.285156v-36.890625c0-.707031.574219-1.285156 1.285157-1.285156h9.585937c.707031 0 1.28125-.574219 1.28125-1.28125v-22.207032c0-5.585937-4.53125-10.113281-10.113281-10.113281-8.816406 0-12.589844-.003906-14.199219-.003906zm0 0"/><path d="m443.511719 318.640625c-.648438 0-1.1875.488281-1.261719 1.128906-.546875 4.59375-4.449219 8.152344-9.191406 8.152344-4.738282 0-8.644532-3.558594-9.1875-8.152344-.074219-.640625-.613282-1.128906-1.261719-1.128906-1.609375 0-5.382813.003906-14.195313.003906-5.585937 0-10.117187 4.527344-10.117187 10.113281v22.207032c0 .707031.574219 1.28125 1.285156 1.28125h9.585938c.710937 0 1.285156.578125 1.285156 1.285156v36.890625c0 .710937.574219 1.285156 1.285156 1.285156h42.648438c.707031 0 1.285156-.574219 1.285156-1.285156v-36.890625c0-.707031.574219-1.285156 1.28125-1.285156h9.585937c.710938 0 1.285157-.574219 1.285157-1.28125v-22.207032c0-5.585937-4.53125-10.113281-10.113281-10.113281-8.816407 0-12.589844-.003906-14.199219-.003906zm0 0"/></g><path d="m221.621094 397.347656c-1.84375 0-3.457032 0-4.886719 0 0 .039063.007813.074219.007813.113282v17.414062c0 3.355469-2.722657 6.074219-6.078126 6.074219-3.355468 0-6.074218 2.722656-6.074218 6.078125v27.304687c0 3.355469-2.722656 6.078125-6.078125 6.078125h-24.140625v8.714844c0 .710938.574218 1.285156 1.285156 1.285156h42.648438c.707031 0 1.285156-.574218 1.285156-1.285156v-36.890625c0-.710937.574218-1.285156 1.28125-1.285156h9.585937c.710938 0 1.285157-.574219 1.285157-1.285157v-22.199218c0-5.585938-4.535157-10.117188-10.121094-10.117188zm0 0" fill="#d32f2f"/><path d="m103.582031 139.941406c-1.84375 0-3.457031 0-4.886719 0 0 .035156.007813.070313.007813.109375v17.414063c0 3.355468-2.722656 6.074218-6.078125 6.074218s-6.078125 2.722657-6.078125 6.078126v27.304687c0 3.355469-2.71875 6.078125-6.074219 6.078125h-24.140625v8.714844c0 .710937.574219 1.285156 1.285157 1.285156h42.644531c.710937 0 1.285156-.574219 1.285156-1.285156v-36.890625c0-.710938.574219-1.285157 1.285156-1.285157h9.585938c.710937 0 1.285156-.574218 1.285156-1.285156v-22.199218c-.003906-5.585938-4.535156-10.113282-10.121094-10.113282zm0 0" fill="#d32f2f"/><path d="m103.582031 318.644531c-1.84375 0-3.457031 0-4.886719 0 0 .039063.007813.074219.007813.109375v17.414063c0 3.355469-2.722656 6.078125-6.078125 6.078125s-6.078125 2.722656-6.078125 6.078125v27.304687c0 3.355469-2.71875 6.074219-6.074219 6.074219h-24.140625v8.71875c0 .707031.574219 1.28125 1.285157 1.28125h42.644531c.710937 0 1.285156-.574219 1.285156-1.28125v-36.890625c0-.710938.574219-1.285156 1.285156-1.285156h9.585938c.710937 0 1.285156-.574219 1.285156-1.285156v-22.203126c-.003906-5.582031-4.535156-10.113281-10.121094-10.113281zm0 0" fill="#d32f2f"/><path d="m452.824219 140.050781v17.414063c0 3.355468-2.722657 6.074218-6.078125 6.074218-3.355469 0-6.078125 2.722657-6.078125 6.078126v27.304687c0 3.355469-2.71875 6.078125-6.074219 6.078125h-24.140625v8.714844c0 .710937.574219 1.285156 1.285156 1.285156h42.644531c.710938 0 1.285157-.574219 1.285157-1.285156v-36.890625c0-.710938.574219-1.285157 1.285156-1.285157h9.585937c.710938 0 1.285157-.574218 1.285157-1.285156v-22.199218c0-5.585938-4.535157-10.117188-10.121094-10.117188-1.84375 0-3.457031 0-4.886719 0 0 .039062.007813.074219.007813.113281zm0 0" fill="#d32f2f"/><path d="m221.621094 268.644531c-1.84375 0-3.457032 0-4.886719 0 0 .039063.007813.074219.007813.109375v17.414063c0 3.355469-2.722657 6.078125-6.078126 6.078125-3.355468 0-6.074218 2.722656-6.074218 6.078125v27.304687c0 3.355469-2.722656 6.074219-6.078125 6.074219h-24.140625v8.71875c0 .707031.574218 1.28125 1.285156 1.28125h42.648438c.707031 0 1.285156-.574219 1.285156-1.28125v-36.890625c0-.710938.574218-1.285156 1.28125-1.285156h9.585937c.710938 0 1.285157-.574219 1.285157-1.285156v-22.203126c0-5.582031-4.535157-10.113281-10.121094-10.113281zm0 0" fill="#d32f2f"/><path d="m339.660156 268.644531c-1.84375 0-3.453125 0-4.882812 0 0 .039063.003906.074219.003906.109375v17.414063c0 3.355469-2.71875 6.078125-6.074219 6.078125s-6.078125 2.722656-6.078125 6.078125v27.304687c0 3.355469-2.722656 6.074219-6.078125 6.074219h-24.140625v8.71875c0 .707031.578125 1.28125 1.285156 1.28125h42.648438c.710938 0 1.285156-.574219 1.285156-1.28125v-36.890625c0-.710938.574219-1.285156 1.285156-1.285156h9.585938c.710938 0 1.285156-.574219 1.285156-1.285156v-22.203126c-.003906-5.582031-4.539062-10.113281-10.125-10.113281zm0 0" fill="#d32f2f"/><path d="m457.703125 318.644531c-1.84375 0-3.457031 0-4.886719 0 0 .039063.007813.074219.007813.109375v17.414063c0 3.355469-2.722657 6.078125-6.078125 6.078125-3.355469 0-6.078125 2.722656-6.078125 6.078125v27.304687c0 3.355469-2.71875 6.074219-6.074219 6.074219h-24.140625v8.71875c0 .707031.574219 1.28125 1.285156 1.28125h42.644531c.710938 0 1.285157-.574219 1.285157-1.28125v-36.890625c0-.710938.574219-1.285156 1.285156-1.285156h9.585937c.710938 0 1.285157-.574219 1.285157-1.285156v-22.203126c0-5.582031-4.535157-10.113281-10.121094-10.113281zm0 0" fill="#d32f2f"/><path d="m339.660156 139.941406c-1.84375 0-3.453125 0-4.882812 0 0 .035156.003906.070313.003906.109375v17.414063c0 3.355468-2.71875 6.074218-6.074219 6.074218s-6.078125 2.722657-6.078125 6.078126v27.304687c0 3.355469-2.722656 6.078125-6.078125 6.078125h-24.140625v8.714844c0 .710937.578125 1.285156 1.285156 1.285156h42.648438c.710938 0 1.285156-.574219 1.285156-1.285156v-36.890625c0-.710938.574219-1.285157 1.285156-1.285157h9.585938c.710938 0 1.285156-.574218 1.285156-1.285156v-22.199218c-.003906-5.585938-4.539062-10.113282-10.125-10.113282zm0 0" fill="#d32f2f"/><path d="m221.621094 139.941406c-1.84375 0-3.457032 0-4.886719 0 0 .035156.007813.070313.007813.109375v17.414063c0 3.355468-2.722657 6.074218-6.078126 6.074218-3.355468 0-6.074218 2.722657-6.074218 6.078126v27.304687c0 3.355469-2.722656 6.078125-6.078125 6.078125h-24.140625v8.714844c0 .710937.574218 1.285156 1.285156 1.285156h42.648438c.707031 0 1.285156-.574219 1.285156-1.285156v-36.890625c0-.710938.574218-1.285157 1.28125-1.285157h9.585937c.710938 0 1.285157-.574218 1.285157-1.285156v-22.199218c0-5.585938-4.535157-10.113282-10.121094-10.113282zm0 0" fill="#d32f2f"/><path d="m339.660156 397.347656c-1.84375 0-3.453125 0-4.882812 0 0 .039063.003906.074219.003906.113282v17.414062c0 3.355469-2.71875 6.074219-6.074219 6.074219s-6.078125 2.722656-6.078125 6.078125v27.304687c0 3.355469-2.722656 6.078125-6.078125 6.078125h-24.140625v8.714844c0 .710938.578125 1.285156 1.285156 1.285156h42.648438c.710938 0 1.285156-.574218 1.285156-1.285156v-36.890625c0-.710937.574219-1.285156 1.285156-1.285156h9.585938c.710938 0 1.285156-.574219 1.285156-1.285157v-22.199218c-.003906-5.585938-4.539062-10.117188-10.125-10.117188zm0 0" fill="#d32f2f"/></svg>