<svg id="Capa_1" enable-background="new 0 0 497 497" height="512" viewBox="0 0 497 497" width="512" xmlns="http://www.w3.org/2000/svg"><g><path d="m421.997 142.469c-47.208-17.448-84.56-79.58-101.143-111.52-6.142-11.83-18.344-19.266-31.674-19.266h-135.65c-13.33 0-25.532 7.435-31.674 19.266-16.599 31.971-54.008 94.195-101.283 111.572-14.45 5.312-22.939 20.259-19.991 35.37 12.814 65.692 56.27 219.98 189.779 297.413 3.778 2.191 17.4 9.926 30.983 10.013 13.647.088 27.255-7.482 30.803-9.583 134.694-79.767 177.369-232.619 189.968-297.871 2.922-15.132-5.663-30.051-20.118-35.394z" fill="#af66da"/><path d="m421.997 142.469c-47.208-17.448-84.56-79.581-101.143-111.52-6.142-11.831-18.344-19.266-31.674-19.266h-19.206c13.33 0 25.532 7.435 31.674 19.266 16.583 31.939 53.934 94.072 101.143 111.52 14.455 5.343 23.04 20.262 20.118 35.394-12.598 65.251-55.273 218.104-189.968 297.871-2.677 1.585-11.08 6.281-20.904 8.455 3.024.675 6.166 1.108 9.308 1.128 13.647.088 27.255-7.481 30.803-9.583 134.694-79.767 177.369-232.619 189.968-297.871 2.921-15.132-5.664-30.051-20.119-35.394z" fill="#9857bd"/><path d="m407.649 173.99c-1.84 9.25-4.2 19.76-7.23 31.19-7.7 29.18-19.69 64.42-38.22 100.32-32.01 62.01-74.96 109.27-127.67 140.49-4.96 2.94-10.58 4.76-12.95 4.76h-.01c-.05 0-4.8-.09-13.87-5.35-.43-.25-.85-.49-1.27-.75-119.02-69.85-159.25-210.36-171.38-270.66 30.15-11.89 74.19-43.73 117.49-127.11.2-.39.58-.63.99-.63h135.65c.41 0 .79.24 1 .63 8.58 16.53 17.19 31.03 25.72 43.75 34.49 51.49 67.61 73.83 91.75 83.36z" fill="#30dde5"/><g><path d="m407.65 173.99c-6.54 32.88-19.67 81.55-45.45 131.51-32.01 62.01-74.96 109.27-127.67 140.49-4.96 2.94-10.58 4.76-12.95 4.76h-.01c-.05 0-4.8-.09-13.87-5.35-.43-.25-.85-.49-1.27-.75 2.78.63 7.34.49 12.66-3.02 48.83-32.16 89.98-76.94 120.53-136.13 23.13-44.82 35.07-84.59 42.21-116.87 1.32-5.99-1.63-12.08-7.13-14.8-29.48-14.54-68.151-48.708-105.84-124.519-1.343-2.702-3.85-3.061-4.26-3.061h24.58c.41 0 .79.24 1 .63 43.3 83.42 87.36 115.23 117.47 127.11z" fill="#02c7dd"/></g><g><path d="m256.073 225.565c0-19.605-16.573-35.339-36.473-33.956-16.669 1.158-30.209 14.58-31.503 31.238-.93 11.975 4.348 22.762 12.946 29.508l-11.706 63.698c-.576 3.137 1.832 6.028 5.021 6.028h55.348c3.189 0 5.598-2.891 5.021-6.028l-11.706-63.698c7.943-6.232 13.052-15.911 13.052-26.79z" fill="#017297"/><path d="m255.988 223.119c-1.143-16.349-14.098-29.731-30.401-31.412-5.042-.52-9.878.085-14.315 1.563 13.527 4.503 23.285 17.255 23.285 32.295 0 10.879-5.109 20.558-13.052 26.79l10.875 59.173c1.009 5.491-3.207 10.553-8.791 10.553h26.118c3.189 0 5.598-2.891 5.021-6.028l-11.706-63.698c8.532-6.695 13.795-17.37 12.966-29.236z" fill="#025f80"/></g><g><path d="m470.82 90.627h-276.165c-14.459 0-26.18 11.721-26.18 26.18v62.194c0 14.459 11.721 26.18 26.18 26.18h94.53c5.862 0 11.239 3.256 13.956 8.45l14.15 40.492c3.652 6.981 13.572 7.181 17.501.352l16.086-41.398c2.81-4.885 8.016-7.896 13.652-7.896h106.29c14.459 0 26.18-11.721 26.18-26.18v-62.194c0-14.458-11.721-26.18-26.18-26.18z" fill="#edf5fa"/></g><g fill="#d0e7f2"><path d="m326.18 213.078-9.692 24.945c-.652 1.678-2.583 2.46-4.218 1.708l-.01-.005 5.032 14.399c3.651 6.981 13.572 7.18 17.501.352l16.086-41.398c2.81-4.885 8.016-7.896 13.652-7.896h-24.698c-5.636-.001-10.842 3.01-13.653 7.895z"/><path d="m470.82 90.627h-24.698c14.459 0 26.18 11.721 26.18 26.18v62.194c0 14.459-11.721 26.18-26.18 26.18h24.698c14.459 0 26.18-11.721 26.18-26.18v-62.194c0-14.458-11.721-26.18-26.18-26.18z"/></g><g><g><path d="m227.587 178.73c-4.142 0-7.5-3.357-7.5-7.5v-51.537c0-4.143 3.358-7.5 7.5-7.5s7.5 3.357 7.5 7.5v51.537c0 4.142-3.358 7.5-7.5 7.5z" fill="#017297"/></g><g><path d="m206.677 171.182c-2.093 0-4.175-.871-5.658-2.573-2.721-3.123-2.395-7.86.728-10.581l41.826-36.441c3.123-2.722 7.86-2.396 10.582.728 2.721 3.123 2.396 7.86-.728 10.581l-41.826 36.441c-1.421 1.238-3.176 1.845-4.924 1.845z" fill="#017297"/></g><g><path d="m248.497 171.182c-1.748 0-3.503-.607-4.924-1.846l-41.826-36.441c-3.123-2.721-3.449-7.458-.728-10.581s7.458-3.449 10.582-.728l41.826 36.441c3.123 2.721 3.448 7.458.728 10.581-1.484 1.703-3.565 2.574-5.658 2.574z" fill="#017297"/></g></g><g><g><path d="m304.721 182.215c-4.143 0-7.5-3.357-7.5-7.5v-55.022c0-4.143 3.357-7.5 7.5-7.5s7.5 3.357 7.5 7.5v55.022c0 4.143-3.357 7.5-7.5 7.5z" fill="#017297"/></g><g><path d="m283.812 171.182c-2.093 0-4.175-.871-5.657-2.573-2.722-3.123-2.396-7.86.728-10.581l41.825-36.441c3.122-2.722 7.86-2.396 10.581.728 2.722 3.123 2.396 7.86-.728 10.581l-41.825 36.441c-1.421 1.238-3.177 1.845-4.924 1.845z" fill="#017297"/></g><g><path d="m325.631 171.182c-1.748 0-3.503-.607-4.924-1.846l-41.825-36.441c-3.123-2.721-3.449-7.458-.728-10.581 2.72-3.125 7.459-3.449 10.581-.728l41.825 36.441c3.123 2.721 3.449 7.458.728 10.581-1.482 1.703-3.564 2.574-5.657 2.574z" fill="#017297"/></g></g><g><g><path d="m381.969 178.73c-4.143 0-7.5-3.357-7.5-7.5v-51.537c0-4.143 3.357-7.5 7.5-7.5s7.5 3.357 7.5 7.5v51.537c0 4.142-3.357 7.5-7.5 7.5z" fill="#017297"/></g><g><path d="m361.059 171.182c-2.093 0-4.175-.871-5.658-2.573-2.721-3.123-2.395-7.86.729-10.582l41.826-36.441c3.123-2.72 7.859-2.395 10.582.729 2.721 3.123 2.395 7.86-.729 10.582l-41.826 36.441c-1.421 1.237-3.177 1.844-4.924 1.844z" fill="#017297"/></g><g><path d="m402.879 171.182c-1.748 0-3.503-.607-4.924-1.845l-41.826-36.441c-3.123-2.722-3.449-7.459-.729-10.582 2.722-3.125 7.459-3.447 10.582-.729l41.826 36.441c3.123 2.722 3.449 7.459.729 10.582-1.483 1.703-3.565 2.574-5.658 2.574z" fill="#017297"/></g></g><g><path d="m462.039 176.215h-29.14c-4.143 0-7.5-3.357-7.5-7.5s3.357-7.5 7.5-7.5h29.14c4.143 0 7.5 3.357 7.5 7.5s-3.358 7.5-7.5 7.5z" fill="#b7d9eb"/></g></g></svg>