<svg width="48" height="48" xmlns="http://www.w3.org/2000/svg" xmlns:xlink="http://www.w3.org/1999/xlink" overflow="hidden"><defs><clipPath id="clip0"><rect x="600" y="361" width="48" height="48"/></clipPath></defs><g clip-path="url(#clip0)" transform="translate(-600 -361)"><path d="M635.517 378.494 628 378.494 628 379.494 634.85 379.494 639.836 391.528 627.978 391.528 627.972 391.902C627.97 393.865 626.564 395.546 624.633 395.895 622.457 396.242 620.413 394.759 620.067 392.584 620.037 392.398 620.021 392.21 620.018 392.021L620.011 391.528 608.154 391.528 613.139 379.494 620 379.494 620 378.494 612.471 378.494 606.989 391.729 606.989 402.982 641 402.982 641 391.729ZM607.989 401.982 607.989 392.528 619.05 392.528C619.357 395.259 621.821 397.224 624.552 396.916 626.86 396.657 628.681 394.836 628.94 392.528L640 392.528 640 401.982Z"/><path d="M618.35 382.646 617.643 383.354 623.994 389.707 630.35 383.354 629.643 382.646 624.503 387.784C624.501 387.786 624.497 387.786 624.495 387.784 624.495 387.784 624.494 387.782 624.494 387.781L624.494 368 623.494 368 623.494 387.781C623.494 387.788 623.49 387.789 623.485 387.784Z"/></g></svg>