<svg width="64" height="64" xmlns="http://www.w3.org/2000/svg" xmlns:xlink="http://www.w3.org/1999/xlink" overflow="hidden"><defs><clipPath id="clip0"><rect x="653" y="357" width="64" height="64"/></clipPath></defs><g clip-path="url(#clip0)" transform="translate(-653 -357)"><path d="M699 382.333C702.314 382.333 705 379.647 705 376.333 705 373.02 702.314 370.333 699 370.333 695.686 370.333 693 373.02 693 376.333 693.004 379.645 695.688 382.329 699 382.333ZM699 371.667C701.577 371.667 703.667 373.756 703.667 376.333 703.667 378.911 701.577 381 699 381 696.423 381 694.333 378.911 694.333 376.333 694.336 373.757 696.424 371.67 699 371.667Z"/><path d="M699 397.667C695.686 397.667 693 400.353 693 403.667 693 406.98 695.686 409.667 699 409.667 702.314 409.667 705 406.98 705 403.667 704.996 400.355 702.312 397.671 699 397.667ZM699 408.333C696.423 408.333 694.333 406.244 694.333 403.667 694.333 401.089 696.423 399 699 399 701.577 399 703.667 401.089 703.667 403.667 703.664 406.243 701.576 408.33 699 408.333Z"/><path d="M683.331 384.424 691.33 379.758 692.002 380.909 684.003 385.576Z"/><path d="M683.331 394.909 684.003 393.757 692.002 398.423 691.331 399.575Z"/><path d="M673.333 381.667C668.731 381.667 665 385.398 665 390 665 394.602 668.731 398.333 673.333 398.333 677.936 398.333 681.667 394.602 681.667 390 681.662 385.4 677.934 381.672 673.333 381.667ZM669.302 395.713C669.513 393.486 671.488 391.852 673.715 392.063 675.65 392.246 677.182 393.778 677.365 395.713 674.951 397.429 671.716 397.429 669.302 395.713ZM671.479 388.854C671.48 387.83 672.31 387 673.334 387.001 674.358 387.001 675.188 387.831 675.187 388.855 675.187 389.879 674.357 390.709 673.333 390.709 672.31 390.708 671.48 389.878 671.479 388.854ZM678.523 394.681C678.096 393.118 676.989 391.829 675.508 391.171 676.795 389.97 676.865 387.953 675.664 386.666 674.463 385.38 672.446 385.31 671.159 386.511 669.872 387.712 669.802 389.729 671.003 391.016 671.053 391.069 671.105 391.121 671.159 391.171 669.678 391.829 668.571 393.118 668.143 394.681 665.549 391.814 665.77 387.388 668.636 384.793 671.502 382.199 675.929 382.42 678.523 385.286 680.937 387.953 680.937 392.014 678.523 394.681Z"/></g></svg>