<svg width="55" height="56" xmlns="http://www.w3.org/2000/svg" xmlns:xlink="http://www.w3.org/1999/xlink" overflow="hidden"><defs><clipPath id="clip0"><rect x="738" y="385" width="55" height="56"/></clipPath></defs><g clip-path="url(#clip0)" transform="translate(-738 -385)"><path d="M46.0545 17.5851 45.5818 18.6295 49.2708 20.4738 49.2708 44.2658 39.5312 39.396 39.5312 29.7917 38.3854 29.7917 38.3854 39.396 28.0729 44.5523 28.0729 20.7602 32.301 18.6461 31.8278 17.6017 27.5 19.7656 16.0417 14.0365 4.58333 19.7656 4.58333 46.1198 16.0417 40.3906 27.5 46.1198 38.9583 40.3906 50.4167 46.1198 50.4167 19.7656ZM15.4688 39.396 5.72917 44.2658 5.72917 20.4738 15.4688 15.604ZM26.9271 44.5523 16.6146 39.396 16.6146 15.604 26.9271 20.7602Z" transform="matrix(1 0 0 1.01818 738 385)"/><path d="M38.9371 10.0335C40.5167 10.0317 41.993 10.8183 42.8725 12.1304 43.7516 13.4299 43.9413 15.0765 43.3807 16.5418L40.7241 22.4142 38.9371 26.1651 37.1611 22.4377 34.4942 16.5441C33.9332 15.0747 34.1257 13.4238 35.0098 12.1229 35.8894 10.8145 37.3634 10.0309 38.94 10.0335M38.94 8.88766C36.9822 8.88559 35.1521 9.85904 34.0593 11.4835 32.9617 13.1036 32.7295 15.1595 33.4383 16.9835L36.119 22.9086 38.4324 27.7613C38.5791 28.0416 38.9253 28.1499 39.2057 28.0032 39.3091 27.9491 39.3935 27.8647 39.4476 27.7613L41.7616 22.9086 44.4417 16.9835C45.1507 15.1595 44.9187 13.1038 43.8213 11.4835 42.7282 9.85909 40.8979 8.88571 38.94 8.88766Z" transform="matrix(1 0 0 1.01818 738 385)"/><path d="M38.9371 13.4194C39.7067 13.4194 40.3305 14.0432 40.3305 14.8128 40.3305 15.5823 39.7067 16.2061 38.9371 16.2061 38.1676 16.2061 37.5438 15.5823 37.5438 14.8128 37.5356 14.0515 38.1459 13.4277 38.9072 13.4194 38.9171 13.4193 38.9272 13.4193 38.9371 13.4194M38.9371 12.2736C37.5348 12.2752 36.3992 13.4133 36.4008 14.8156 36.4024 16.218 37.5405 17.3535 38.9429 17.3519 40.3441 17.3503 41.4792 16.214 41.4792 14.8128 41.4852 13.4164 40.3581 12.2796 38.9618 12.2736 38.9546 12.2735 38.9473 12.2735 38.94 12.2736Z" transform="matrix(1 0 0 1.01818 738 385)"/></g></svg>