<svg width="64" height="63" xmlns="http://www.w3.org/2000/svg" xmlns:xlink="http://www.w3.org/1999/xlink" overflow="hidden"><defs><clipPath id="clip0"><rect x="665" y="386" width="64" height="63"/></clipPath></defs><g clip-path="url(#clip0)" transform="translate(-665 -386)"><path d="M55.125 20.3497 38.0625 20.3497 38.0625 15.7559C38.0582 14.308 36.8855 13.1352 35.4375 13.1309L7.875 13.1309C6.42705 13.1352 5.25432 14.308 5.25 15.7559L5.25 33.4799C5.25432 34.9279 6.42705 36.1006 7.875 36.1049L11.8125 36.1049 11.8125 42.6674 18.375 36.1049 24.9375 36.1049 24.9375 40.6987C24.9418 42.1466 26.1145 43.3193 27.5625 43.3237L44.625 43.3237 51.1875 49.8862 51.1875 43.3237 55.125 43.3237C56.5729 43.3193 57.7457 42.1466 57.75 40.6987L57.75 22.9753C57.7461 21.5271 56.5732 20.354 55.125 20.3497ZM24.9375 22.9747 24.9375 34.7931 17.8329 34.7931 17.4484 35.1776 13.125 39.501 13.125 34.7931 7.875 34.7931C7.15011 34.7931 6.5625 34.2055 6.5625 33.4806L6.5625 15.7566C6.5625 15.0317 7.15011 14.4441 7.875 14.4441L35.4375 14.4441C36.1624 14.4441 36.75 15.0317 36.75 15.7566L36.75 20.3503 27.5625 20.3503C26.1145 20.3546 24.9418 21.5274 24.9375 22.9753ZM56.4375 40.6987C56.4375 41.4235 55.8499 42.0112 55.125 42.0112L49.875 42.0112 49.875 46.7191 45.5556 42.3937 45.171 42.0092 27.5625 42.0092C26.8376 42.0092 26.25 41.4216 26.25 40.6967L26.25 22.9753C26.25 22.2504 26.8376 21.6628 27.5625 21.6628L55.125 21.6628C55.8499 21.6628 56.4375 22.2504 56.4375 22.9753Z" transform="matrix(1.01587 0 0 1 665 386)"/></g></svg>